<?xml version="1.0" encoding="utf-8"?>
<!-- Generator: Adobe Illustrator 25.0.0, SVG Export Plug-In . SVG Version: 6.00 Build 0)  -->
<svg version="1.1" id="Layer_1" xmlns="http://www.w3.org/2000/svg" xmlns:xlink="http://www.w3.org/1999/xlink" x="0px" y="0px"
	 viewBox="0 0 441.7 503.8" style="enable-background:new 0 0 441.7 503.8;" xml:space="preserve">
<style type="text/css">
	.st0{clip-path:url(#SVGID_2_);fill:url(#SVGID_3_);}
	.st1{clip-path:url(#SVGID_5_);fill:url(#SVGID_6_);}
	.st2{clip-path:url(#SVGID_8_);fill:url(#SVGID_9_);}
	.st3{clip-path:url(#SVGID_11_);fill:url(#SVGID_12_);}
</style>
<g id="PLAY">
	<g>
		<defs>
			<path id="SVGID_1_" d="M331.4,181l-105.3-60.8c0,0-192.5-110.8-203.4-117.1S0,0.3,0,13.9c0,22.7,0,237,0,237s0,231.5,0,241.5
				c0,10,8.2,14.5,18.2,9.1s207.9-119.8,207.9-119.8l105.3-60.8c0,0,89.9-51.8,101.7-58.1c11.8-7.3,10.9-16.3,0.9-21.8
				C423.1,233.7,331.4,181,331.4,181z"/>
		</defs>
		<clipPath id="SVGID_2_">
			<use xlink:href="#SVGID_1_"  style="overflow:visible;"/>
		</clipPath>
		
			<linearGradient id="SVGID_3_" gradientUnits="userSpaceOnUse" x1="130.2892" y1="544.7692" x2="130.2892" y2="27.2434" gradientTransform="matrix(1 0 0 -1 0 536)">
			<stop  offset="0" style="stop-color:#207CB0"/>
			<stop  offset="0.3757" style="stop-color:#3CB2BF"/>
			<stop  offset="0.7961" style="stop-color:#58E9CE"/>
			<stop  offset="1" style="stop-color:#63FFD4"/>
		</linearGradient>
		<polygon class="st0" points="0,-8.8 0,250 0,508.8 260.6,250 		"/>
	</g>
	<g>
		<defs>
			<path id="SVGID_4_" d="M331.4,181l-105.3-60.8c0,0-192.5-110.8-203.4-117.1S0,0.3,0,13.9c0,22.7,0,237,0,237s0,231.5,0,241.5
				c0,10,8.2,14.5,18.2,9.1s207.9-119.8,207.9-119.8l105.3-60.8c0,0,89.9-51.8,101.7-58.1c11.8-7.3,10.9-16.3,0.9-21.8
				C423.1,233.7,331.4,181,331.4,181z"/>
		</defs>
		<clipPath id="SVGID_5_">
			<use xlink:href="#SVGID_4_"  style="overflow:visible;"/>
		</clipPath>
		
			<linearGradient id="SVGID_6_" gradientUnits="userSpaceOnUse" x1="0" y1="416.2957" x2="331.3981" y2="416.2957" gradientTransform="matrix(1 0 0 -1 0 536)">
			<stop  offset="0" style="stop-color:#4BC3AE"/>
			<stop  offset="1" style="stop-color:#DEE999"/>
		</linearGradient>
		<polygon class="st1" points="331.4,181 226.1,120.2 0,-10.6 0,-8.8 260.6,250 		"/>
	</g>
	<g>
		<defs>
			<path id="SVGID_7_" d="M331.4,181l-105.3-60.8c0,0-192.5-110.8-203.4-117.1S0,0.3,0,13.9c0,22.7,0,237,0,237s0,231.5,0,241.5
				c0,10,8.2,14.5,18.2,9.1s207.9-119.8,207.9-119.8l105.3-60.8c0,0,89.9-51.8,101.7-58.1c11.8-7.3,10.9-16.3,0.9-21.8
				C423.1,233.7,331.4,181,331.4,181z"/>
		</defs>
		<clipPath id="SVGID_8_">
			<use xlink:href="#SVGID_7_"  style="overflow:visible;"/>
		</clipPath>
		
			<linearGradient id="SVGID_9_" gradientUnits="userSpaceOnUse" x1="165.699" y1="286.0063" x2="165.699" y2="25.4274" gradientTransform="matrix(1 0 0 -1 0 536)">
			<stop  offset="0" style="stop-color:#EC403D"/>
			<stop  offset="0.384" style="stop-color:#C93B75"/>
			<stop  offset="0.7988" style="stop-color:#A636AC"/>
			<stop  offset="1" style="stop-color:#9934C2"/>
		</linearGradient>
		<polygon class="st2" points="0,508.8 0,510.6 226.1,380.7 331.4,319.9 260.6,250 		"/>
	</g>
	<g>
		<defs>
			<path id="SVGID_10_" d="M331.4,181l-105.3-60.8c0,0-192.5-110.8-203.4-117.1S0,0.3,0,13.9c0,22.7,0,237,0,237s0,231.5,0,241.5
				c0,10,8.2,14.5,18.2,9.1s207.9-119.8,207.9-119.8l105.3-60.8c0,0,89.9-51.8,101.7-58.1c11.8-7.3,10.9-16.3,0.9-21.8
				C423.1,233.7,331.4,181,331.4,181z"/>
		</defs>
		<clipPath id="SVGID_11_">
			<use xlink:href="#SVGID_10_"  style="overflow:visible;"/>
		</clipPath>
		
			<linearGradient id="SVGID_12_" gradientUnits="userSpaceOnUse" x1="355.912" y1="355.4246" x2="355.912" y2="216.3165" gradientTransform="matrix(1 0 0 -1 0 536)">
			<stop  offset="0" style="stop-color:#FF8877"/>
			<stop  offset="0.6121" style="stop-color:#FFB175"/>
			<stop  offset="1" style="stop-color:#FFC774"/>
		</linearGradient>
		<polygon class="st3" points="331.4,181 260.6,250 331.4,319.9 451.2,250 		"/>
	</g>
</g>
</svg>
