<?xml version="1.0" encoding="utf-8"?>
<!-- Generator: Adobe Illustrator 25.0.0, SVG Export Plug-In . SVG Version: 6.00 Build 0)  -->
<svg version="1.1" id="Ebene_1" xmlns="http://www.w3.org/2000/svg" xmlns:xlink="http://www.w3.org/1999/xlink" x="0px" y="0px"
	 viewBox="0 0 496.3 614.4" style="enable-background:new 0 0 496.3 614.4;" xml:space="preserve">
<style type="text/css">
	.st0{fill-rule:evenodd;clip-rule:evenodd;fill:#FFFFFF;}
</style>
<g>
	<path class="st0" d="M273.8,58.5c40-52.7,95.6-53,95.6-53s8.3,49.6-31.5,97.3c-42.4,51-90.6,42.6-90.6,42.6S238.2,105.4,273.8,58.5
		z"/>
	<path class="st0" d="M252.4,180.2c20.6,0,58.8-28.3,108.5-28.3c85.6,0,119.2,60.9,119.2,60.9s-65.8,33.7-65.8,115.3
		c0,92.1,82,123.9,82,123.9S439,613.5,361.5,613.5c-35.6,0-63.2-24-100.7-24c-38.2,0-76.1,24.9-100.8,24.9
		C89.3,614.4,0,461.3,0,338.3c0-121.1,75.6-184.6,146.5-184.6C192.6,153.6,228.4,180.2,252.4,180.2z"/>
</g>
</svg>
