<?xml version="1.0" encoding="utf-8"?>
<!-- Generator: Adobe Illustrator 25.0.0, SVG Export Plug-In . SVG Version: 6.00 Build 0)  -->
<svg version="1.1" id="Layer_1" xmlns="http://www.w3.org/2000/svg" xmlns:xlink="http://www.w3.org/1999/xlink" x="0px" y="0px"
	 viewBox="0 0 2000 2000" style="enable-background:new 0 0 2000 2000;" xml:space="preserve">
<style type="text/css">
	.st0{filter:url(#Adobe_OpacityMaskFilter);}
	.st1{mask:url(#SVGID_1_);fill:#AE5426;}
	.st2{filter:url(#Adobe_OpacityMaskFilter_1_);}
	.st3{opacity:0.7;mask:url(#SVGID_2_);fill:#F9DE6E;}
	.st4{filter:url(#Adobe_OpacityMaskFilter_2_);}
	.st5{fill:url(#SVGID_4_);}
	.st6{mask:url(#SVGID_3_);fill:#B26828;}
	.st7{filter:url(#Adobe_OpacityMaskFilter_3_);}
	.st8{fill:url(#SVGID_6_);}
	.st9{mask:url(#SVGID_5_);fill:#B26828;}
	.st10{fill:url(#SVGID_7_);}
	.st11{filter:url(#Adobe_OpacityMaskFilter_4_);}
	.st12{mask:url(#SVGID_8_);fill:#B26828;}
	.st13{filter:url(#Adobe_OpacityMaskFilter_5_);}
	.st14{opacity:0.5;mask:url(#SVGID_9_);fill:#F9DE6E;}
	.st15{filter:url(#Adobe_OpacityMaskFilter_6_);}
	.st16{opacity:0.5;mask:url(#SVGID_10_);fill:#F9DE6E;}
	.st17{filter:url(#Adobe_OpacityMaskFilter_7_);}
	.st18{fill:url(#SVGID_12_);}
	.st19{opacity:0.7;mask:url(#SVGID_11_);fill:#EF3E2D;}
	.st20{filter:url(#Adobe_OpacityMaskFilter_8_);}
	.st21{fill:url(#SVGID_14_);}
	.st22{opacity:0.7;mask:url(#SVGID_13_);fill:#EF3E2D;}
	.st23{filter:url(#Adobe_OpacityMaskFilter_9_);}
	.st24{opacity:0.6;mask:url(#SVGID_15_);fill:#AE5426;}
	.st25{filter:url(#Adobe_OpacityMaskFilter_10_);}
	.st26{fill:url(#SVGID_17_);}
	.st27{mask:url(#SVGID_16_);fill:#B26828;}
	.st28{filter:url(#Adobe_OpacityMaskFilter_11_);}
	.st29{fill:url(#SVGID_19_);}
	.st30{mask:url(#SVGID_18_);fill:#B26828;}
	.st31{fill:url(#SVGID_20_);}
	.st32{filter:url(#Adobe_OpacityMaskFilter_12_);}
	.st33{mask:url(#SVGID_21_);fill:#B26828;}
	.st34{filter:url(#Adobe_OpacityMaskFilter_13_);}
	.st35{mask:url(#SVGID_22_);fill:#F9DE6E;}
	.st36{filter:url(#Adobe_OpacityMaskFilter_14_);}
	.st37{mask:url(#SVGID_23_);fill:#F9DE6E;}
</style>
<g>
	<g>
		<g>
			<image style="overflow:visible;" width="8334" height="8334" xlink:href="DFC3480.png"  transform="matrix(0.24 0 0 0.24 0 0)">
			</image>
		</g>
	</g>
	<defs>
		<filter id="Adobe_OpacityMaskFilter" filterUnits="userSpaceOnUse" x="639.3" y="988" width="553.2" height="867.9">
			<feColorMatrix  type="matrix" values="1 0 0 0 0  0 1 0 0 0  0 0 1 0 0  0 0 0 1 0"/>
		</filter>
	</defs>
	<mask maskUnits="userSpaceOnUse" x="639.3" y="988" width="553.2" height="867.9" id="SVGID_1_">
		<g class="st0">
			
				<image style="overflow:visible;" width="553.2" height="867.9" xlink:href="E5205F1E.png"  transform="matrix(1 0 0 1 639.3031 987.9533)"/>
		</g>
	</mask>
	<path class="st1" d="M1074,1017.5c-28.9-17.2-65.9-28-100.1-29.2c-34.8-1.9-69.5,4.3-100.8,15.8c-62.9,23.3-112.3,67.3-147.5,116.9
		c-35.5,50-58.7,106.7-72.7,166.6c-13.1,60.5-16.2,124.8-11.3,189.5c5.2,64.8,19.4,132.3,48.4,195.2c14.4,31.3,32.7,61.2,54.9,87.5
		c21.6,26.2,49.2,49.8,78.3,65.5c58.7,31.9,123.2,37.3,178.9,23c-0.6-3.9-1.2-7.8-1.8-11.8s-1.2-7.8-1.8-11.8
		c-52.4,2.2-104.8-12.7-144-41.8c-38.8-28.6-64.6-72.8-80.1-120.2c-15.4-47.7-20.9-99.7-20.4-152.4c0.7-52.9,6.7-105.8,19.1-156.4
		c11.5-50.5,29.1-99.6,53.9-143.6c24.8-43.9,56.4-82.2,95.9-107.7c39.2-25,85.6-36.8,130.6-23.4c45.9,13,88.3,47.3,118.3,90.2
		c3.5-1.9,7-3.7,10.5-5.6c3.5-1.9,7-3.7,10.5-5.6C1171.5,1105.7,1133.5,1051.9,1074,1017.5z"/>
	<defs>
		<filter id="Adobe_OpacityMaskFilter_1_" filterUnits="userSpaceOnUse" x="796.2" y="1133.3" width="559.2" height="757">
			<feColorMatrix  type="matrix" values="1 0 0 0 0  0 1 0 0 0  0 0 1 0 0  0 0 0 1 0"/>
		</filter>
	</defs>
	<mask maskUnits="userSpaceOnUse" x="796.2" y="1133.3" width="559.2" height="757" id="SVGID_2_">
		<g class="st2">
			
				<image style="overflow:visible;" width="559.2" height="757" xlink:href="E5205F22.png"  transform="matrix(1 0 0 1 796.1953 1133.303)"/>
		</g>
	</mask>
	<path class="st3" d="M1335.7,1388.2c-13-50.2-31.9-99.2-58.4-143.8c-25.9-44.5-60.7-84.9-102.8-111.2c-2.4,3.1-4.9,6.3-7.3,9.4
		c-2.4,3.1-4.9,6.3-7.3,9.4c30.7,31.6,51.4,71.3,65.3,113.5c14.3,42,22.1,86.6,26.3,131.4c7.3,89.2,2.4,183.7-28.7,261.9
		c-14.8,39-37.1,74-67.1,100.6c-29.8,26.8-67.5,45-108.9,54.3c-42.6,9.5-83,10.5-123.6-3.3c-40.3-12.9-77.6-38.2-107.7-70.6
		c-3.2,2.3-6.5,4.6-9.7,6.9c-3.2,2.3-6.5,4.6-9.7,6.9c23.6,41.9,60.3,80.6,108.7,105.8c24.1,12.6,50.8,22.2,79.1,26.8
		c29,4.5,56.1,4.8,84.2,2.3c55.8-4.9,113.1-24.3,159.4-59.1c46.6-34.3,80.5-82,100.6-131.9c19.8-50.7,27.1-103.8,27.2-155.7
		C1355.5,1490.1,1348.5,1438.6,1335.7,1388.2z"/>
	<g>
		<defs>
			<filter id="Adobe_OpacityMaskFilter_2_" filterUnits="userSpaceOnUse" x="1262.3" y="598.5" width="336" height="412.5">
				<feColorMatrix  type="matrix" values="1 0 0 0 0  0 1 0 0 0  0 0 1 0 0  0 0 0 1 0"/>
			</filter>
		</defs>
		<mask maskUnits="userSpaceOnUse" x="1262.3" y="598.5" width="336" height="412.5" id="SVGID_3_">
			<g class="st4">
				
					<radialGradient id="SVGID_4_" cx="1426.2917" cy="813.4857" r="168.0062" gradientTransform="matrix(1 0 0 1.2276 4.0302 -193.8637)" gradientUnits="userSpaceOnUse">
					<stop  offset="0.3646" style="stop-color:#FFFFFF"/>
					<stop  offset="0.4129" style="stop-color:#E8E8E8"/>
					<stop  offset="0.6324" style="stop-color:#878787"/>
					<stop  offset="0.8098" style="stop-color:#3F3F3F"/>
					<stop  offset="0.9363" style="stop-color:#121212"/>
					<stop  offset="1" style="stop-color:#010101"/>
				</radialGradient>
				<ellipse class="st5" cx="1430.3" cy="804.8" rx="168" ry="206.2"/>
			</g>
		</mask>
		<ellipse class="st6" cx="1430.3" cy="804.8" rx="168" ry="206.2"/>
		<defs>
			<filter id="Adobe_OpacityMaskFilter_3_" filterUnits="userSpaceOnUse" x="1303.9" y="547.8" width="272.4" height="412.5">
				<feColorMatrix  type="matrix" values="1 0 0 0 0  0 1 0 0 0  0 0 1 0 0  0 0 0 1 0"/>
			</filter>
		</defs>
		<mask maskUnits="userSpaceOnUse" x="1303.9" y="547.8" width="272.4" height="412.5" id="SVGID_5_">
			<g class="st7">
				
					<radialGradient id="SVGID_6_" cx="1528.729" cy="772.1675" r="168.0019" gradientTransform="matrix(0.8106 0 0 1.2276 200.8709 -193.8637)" gradientUnits="userSpaceOnUse">
					<stop  offset="0.3646" style="stop-color:#FFFFFF"/>
					<stop  offset="0.4129" style="stop-color:#E8E8E8"/>
					<stop  offset="0.6324" style="stop-color:#878787"/>
					<stop  offset="0.8098" style="stop-color:#3F3F3F"/>
					<stop  offset="0.9363" style="stop-color:#121212"/>
					<stop  offset="1" style="stop-color:#010101"/>
				</radialGradient>
				<ellipse class="st8" cx="1440.1" cy="754" rx="136.2" ry="206.2"/>
			</g>
		</mask>
		<ellipse class="st9" cx="1440.1" cy="754" rx="136.2" ry="206.2"/>
		
			<image style="overflow:visible;" width="1083" height="1484" xlink:href="DFC3481.png"  transform="matrix(0.24 0 0 0.24 1266.72 566.16)">
		</image>
		
			<linearGradient id="SVGID_7_" gradientUnits="userSpaceOnUse" x1="1347.9181" y1="607.4994" x2="1338.3933" y2="718.3329" gradientTransform="matrix(1 0 0 1 4.0302 0)">
			<stop  offset="0" style="stop-color:#FFFFFF"/>
			<stop  offset="1" style="stop-color:#010101"/>
		</linearGradient>
		<path class="st10" d="M1381.6,674.7c-7.9,26.8-29.8,44-48.9,38.4c-19.1-5.6-28.1-32-20.1-58.8c7.9-26.8,29.8-44,48.9-38.4
			C1380.5,621.5,1389.5,647.9,1381.6,674.7z"/>
		<g>
			<defs>
				<filter id="Adobe_OpacityMaskFilter_4_" filterUnits="userSpaceOnUse" x="1275.9" y="300.3" width="311.8" height="181.6">
					
						<feColorMatrix  type="matrix" values="-1 0 0 0 1  0 -1 0 0 1  0 0 -1 0 1  0 0 0 1 0" color-interpolation-filters="sRGB" result="source"/>
				</filter>
			</defs>
			<mask maskUnits="userSpaceOnUse" x="1275.9" y="300.3" width="311.8" height="181.6" id="SVGID_8_">
				<g class="st11">
					
						<image style="overflow:visible;" width="311.8" height="181.6" xlink:href="E5205F25.png"  transform="matrix(1 0 0 1 1275.8608 300.3)"/>
				</g>
			</mask>
			<path class="st12" d="M1289.5,336.8c45-36.9,113.3-46.1,168.6-26.3c43.1,16.1,95,48.2,119.1,87.7c9.5,15.5,14.5,25.3,6.7,47.9
				c-0.8,8.7-16.6,27.6-28.3,32.4c-11.1,4.5-29.3,5.4-36.7-2.5c-7.8-7-12.9-20.3-19.1-29.3c-16.2-23.4-43.2-45.8-70-55.5
				c-29.5-10.3-59.8-2.2-83.9,16.7c-5.6,4.4-13.1,8.7-21.2,10c-13.9,2-21.8-2.3-32.2-9.5c-10.4-7.2-15.2-24.7-16.6-33.8
				C1275.5,361.7,1278.8,345.5,1289.5,336.8z"/>
			<defs>
				<filter id="Adobe_OpacityMaskFilter_5_" filterUnits="userSpaceOnUse" x="1260.7" y="244.2" width="362.6" height="189.7">
					
						<feColorMatrix  type="matrix" values="-1 0 0 0 1  0 -1 0 0 1  0 0 -1 0 1  0 0 0 1 0" color-interpolation-filters="sRGB" result="source"/>
				</filter>
			</defs>
			<mask maskUnits="userSpaceOnUse" x="1260.7" y="244.2" width="362.6" height="189.7" id="SVGID_9_">
				<g class="st13">
					
						<image style="overflow:visible;" width="362.6" height="189.7" xlink:href="E5205F26.png"  transform="matrix(1 0 0 1 1260.6949 244.2168)"/>
				</g>
			</mask>
			<path class="st14" d="M1262.5,312.9c5.2-13.3,15.7-19.9,28.7-29.3c51.7-37.1,117.6-50,178.7-29.9
				c57.3,18.8,103.2,58.5,136.8,107.8c8.6,12.6,15.3,22.6,16.6,37.7c-2.2,11.1-7.5,25.4-18.8,31.1c-11.3,5.8-29.9,4-38.2-0.6
				c-7.4-4.9-14.3-13.7-20.9-23.5c-24.4-36.1-56.7-66.7-98.8-80.4c-39.2-13.2-80.1-3.1-112.8,20.7c-8.9,6.5-17.5,9.8-28.2,13.6
				c-14.5,2.6-28.9,0.4-37.6-8.8C1259.3,342.2,1259.7,321,1262.5,312.9z"/>
			
				<image style="overflow:visible;" width="1152" height="627" xlink:href="DFC3487.png"  transform="matrix(0.24 0 0 0.24 1304.4 282.48)">
			</image>
		</g>
		
			<image style="overflow:visible;" width="543" height="701" xlink:href="DFC3482.png"  transform="matrix(0.24 0 0 0.24 1384.3199 737.52)">
		</image>
		<defs>
			<filter id="Adobe_OpacityMaskFilter_6_" filterUnits="userSpaceOnUse" x="1281.1" y="813.2" width="321.2" height="245.4">
				<feColorMatrix  type="matrix" values="1 0 0 0 0  0 1 0 0 0  0 0 1 0 0  0 0 0 1 0"/>
			</filter>
		</defs>
		<mask maskUnits="userSpaceOnUse" x="1281.1" y="813.2" width="321.2" height="245.4" id="SVGID_10_">
			<g class="st15">
				
					<image style="overflow:visible;" width="321.2" height="245.4" xlink:href="E5205F24.png"  transform="matrix(1 0 0 1 1281.0718 813.2366)"/>
			</g>
		</mask>
		<path class="st16" d="M1593.6,813.2c-4,0-7.9,0-11.9,0c-4,0-7.9,0-11.9,0c-9.4,33.4-19.4,65.1-34.8,89.5
			c-15.2,24.4-35.1,41-61.8,52c-25.7,11.9-55.4,17.4-85.5,16.6c-15.1-0.3-30.3-2-45.5-5.4c-15.2-3.6-31.4-10-48.2-13.9
			c-2.2,3.3-4.3,6.7-6.5,10c-2.2,3.3-4.3,6.7-6.5,10c12.9,12.9,25.6,27.6,42.7,41c17.3,13.2,37.3,24.2,58.2,32.1
			c41.9,16,87.9,19.1,127.3,2.4c19.4-8.9,37.9-23,52.8-41.9c14.9-18.8,25.8-41.9,32.1-65.2C1606.8,893.4,1602.9,848.3,1593.6,813.2z
			"/>
	</g>
	<g>
		<defs>
			<filter id="Adobe_OpacityMaskFilter_7_" filterUnits="userSpaceOnUse" x="51.3" y="842.4" width="801.7" height="565.4">
				<feColorMatrix  type="matrix" values="1 0 0 0 0  0 1 0 0 0  0 0 1 0 0  0 0 0 1 0"/>
			</filter>
		</defs>
		<mask maskUnits="userSpaceOnUse" x="51.3" y="842.4" width="801.7" height="565.4" id="SVGID_11_">
			<g class="st17">
				
					<radialGradient id="SVGID_12_" cx="586.5521" cy="1125.087" r="282.688" gradientTransform="matrix(1.4179 0 0 1 -379.5913 0)" gradientUnits="userSpaceOnUse">
					<stop  offset="0" style="stop-color:#FFFFFF"/>
					<stop  offset="7.604963e-02" style="stop-color:#E8E8E8"/>
					<stop  offset="0.4214" style="stop-color:#878787"/>
					<stop  offset="0.7006" style="stop-color:#3F3F3F"/>
					<stop  offset="0.8997" style="stop-color:#121212"/>
					<stop  offset="1" style="stop-color:#010101"/>
				</radialGradient>
				<ellipse class="st18" cx="452.1" cy="1125.1" rx="400.8" ry="282.7"/>
			</g>
		</mask>
		<ellipse class="st19" cx="452.1" cy="1125.1" rx="400.8" ry="282.7"/>
		<defs>
			<filter id="Adobe_OpacityMaskFilter_8_" filterUnits="userSpaceOnUse" x="1147.3" y="842.4" width="801.7" height="565.4">
				<feColorMatrix  type="matrix" values="1 0 0 0 0  0 1 0 0 0  0 0 1 0 0  0 0 0 1 0"/>
			</filter>
		</defs>
		<mask maskUnits="userSpaceOnUse" x="1147.3" y="842.4" width="801.7" height="565.4" id="SVGID_13_">
			<g class="st20">
				
					<radialGradient id="SVGID_14_" cx="1359.5847" cy="1125.087" r="282.688" gradientTransform="matrix(1.4179 0 0 1 -379.5913 0)" gradientUnits="userSpaceOnUse">
					<stop  offset="0" style="stop-color:#FFFFFF"/>
					<stop  offset="7.604963e-02" style="stop-color:#E8E8E8"/>
					<stop  offset="0.4214" style="stop-color:#878787"/>
					<stop  offset="0.7006" style="stop-color:#3F3F3F"/>
					<stop  offset="0.8997" style="stop-color:#121212"/>
					<stop  offset="1" style="stop-color:#010101"/>
				</radialGradient>
				<ellipse class="st21" cx="1548.2" cy="1125.1" rx="400.8" ry="282.7"/>
			</g>
		</mask>
		<ellipse class="st22" cx="1548.2" cy="1125.1" rx="400.8" ry="282.7"/>
	</g>
	<defs>
		<filter id="Adobe_OpacityMaskFilter_9_" filterUnits="userSpaceOnUse" x="761.3" y="1842.6" width="477.6" height="157.4">
			
				<feColorMatrix  type="matrix" values="-1 0 0 0 1  0 -1 0 0 1  0 0 -1 0 1  0 0 0 1 0" color-interpolation-filters="sRGB" result="source"/>
		</filter>
	</defs>
	<mask maskUnits="userSpaceOnUse" x="761.3" y="1842.6" width="477.6" height="157.4" id="SVGID_15_">
		<g class="st23">
			
				<image style="overflow:visible;" width="477.6" height="157.4" xlink:href="E5205F23.png"  transform="matrix(1 0 0 1 761.3321 1842.6029)"/>
		</g>
	</mask>
	<path class="st24" d="M1227.4,1853.2c-3.8-3.5-7.7-7-11.5-10.6c-8.7,4-17.5,8.2-26.4,12.5c-9.2,4.1-18.1,8.3-27.3,12.1
		c-18.2,7.8-36.3,14.8-54.6,20.3c-36.3,11.6-72.7,18.2-109,18.7c-36.5,0.4-62.6-0.9-91.6-8.6c-14.5-3.8-29.5-8.9-47.8-16.9
		c-9.1-4-19.2-8.7-30.8-14.7c-6-2.9-12.2-6.3-19.1-10.1c-6.8-3.5-15.3-8.6-21.9-11.8c-4.4,3-8.7,6-13.1,9.1c-4.4,3-8.7,6-13.1,9.1
		c5.8,10.9,12.1,19.3,19.7,28.5c7.4,9.1,15.9,17.6,24.8,26c18,16.7,38.4,31.8,59.8,44.5c21.4,12.9,44,22.4,66.7,29.4
		c22.7,6.3,45.6,10,68.3,9.3c45.3-1.1,91.1-18,132.7-43.7c20.8-12.6,40.4-27.6,58.4-43.1c8.9-7.8,17.5-15.8,25.3-23.9
		c8-8.4,15-16.1,21.9-25.5C1235.1,1860.2,1231.3,1856.7,1227.4,1853.2z"/>
	
		<image style="overflow:visible;" width="2469" height="3401" xlink:href="DFC3483.png"  transform="matrix(0.24 0 0 0.24 703.92 1038)">
	</image>
	
		<image style="overflow:visible;" width="2406" height="1639" xlink:href="DFC348E.png"  transform="matrix(0.24 0 0 0.24 711.36 1460.88)">
	</image>
	<g>
		<defs>
			<filter id="Adobe_OpacityMaskFilter_10_" filterUnits="userSpaceOnUse" x="443.4" y="598.5" width="336" height="412.5">
				<feColorMatrix  type="matrix" values="1 0 0 0 0  0 1 0 0 0  0 0 1 0 0  0 0 0 1 0"/>
			</filter>
		</defs>
		<mask maskUnits="userSpaceOnUse" x="443.4" y="598.5" width="336" height="412.5" id="SVGID_16_">
			<g class="st25">
				
					<radialGradient id="SVGID_17_" cx="611.3933" cy="813.4857" r="168.0064" gradientTransform="matrix(1 0 0 1.2276 0 -193.8637)" gradientUnits="userSpaceOnUse">
					<stop  offset="0.3646" style="stop-color:#FFFFFF"/>
					<stop  offset="0.4129" style="stop-color:#E8E8E8"/>
					<stop  offset="0.6324" style="stop-color:#878787"/>
					<stop  offset="0.8098" style="stop-color:#3F3F3F"/>
					<stop  offset="0.9363" style="stop-color:#121212"/>
					<stop  offset="1" style="stop-color:#010101"/>
				</radialGradient>
				<ellipse class="st26" cx="611.4" cy="804.8" rx="168" ry="206.2"/>
			</g>
		</mask>
		<ellipse class="st27" cx="611.4" cy="804.8" rx="168" ry="206.2"/>
		<defs>
			<filter id="Adobe_OpacityMaskFilter_11_" filterUnits="userSpaceOnUse" x="484.9" y="547.8" width="272.4" height="412.5">
				<feColorMatrix  type="matrix" values="1 0 0 0 0  0 1 0 0 0  0 0 1 0 0  0 0 0 1 0"/>
			</filter>
		</defs>
		<mask maskUnits="userSpaceOnUse" x="484.9" y="547.8" width="272.4" height="412.5" id="SVGID_18_">
			<g class="st28">
				
					<radialGradient id="SVGID_19_" cx="523.427" cy="772.1675" r="168.0019" gradientTransform="matrix(0.8106 0 0 1.2276 196.8406 -193.8637)" gradientUnits="userSpaceOnUse">
					<stop  offset="0.3646" style="stop-color:#FFFFFF"/>
					<stop  offset="0.4129" style="stop-color:#E8E8E8"/>
					<stop  offset="0.6324" style="stop-color:#878787"/>
					<stop  offset="0.8098" style="stop-color:#3F3F3F"/>
					<stop  offset="0.9363" style="stop-color:#121212"/>
					<stop  offset="1" style="stop-color:#010101"/>
				</radialGradient>
				<ellipse class="st29" cx="621.1" cy="754" rx="136.2" ry="206.2"/>
			</g>
		</mask>
		<ellipse class="st30" cx="621.1" cy="754" rx="136.2" ry="206.2"/>
		
			<image style="overflow:visible;" width="1084" height="1484" xlink:href="DFC348F.png"  transform="matrix(0.24 0 0 0.24 447.6 566.16)">
		</image>
		<linearGradient id="SVGID_20_" gradientUnits="userSpaceOnUse" x1="533.0198" y1="607.4994" x2="523.4951" y2="718.3329">
			<stop  offset="0" style="stop-color:#FFFFFF"/>
			<stop  offset="1" style="stop-color:#010101"/>
		</linearGradient>
		<path class="st31" d="M562.6,674.7c-7.9,26.8-29.8,44-48.9,38.4s-28.1-32-20.1-58.8c7.9-26.8,29.8-44,48.9-38.4
			C561.6,621.5,570.6,647.9,562.6,674.7z"/>
		<g>
			<defs>
				<filter id="Adobe_OpacityMaskFilter_12_" filterUnits="userSpaceOnUse" x="398" y="300.3" width="311.8" height="181.6">
					
						<feColorMatrix  type="matrix" values="-1 0 0 0 1  0 -1 0 0 1  0 0 -1 0 1  0 0 0 1 0" color-interpolation-filters="sRGB" result="source"/>
				</filter>
			</defs>
			<mask maskUnits="userSpaceOnUse" x="398" y="300.3" width="311.8" height="181.6" id="SVGID_21_">
				<g class="st32">
					
						<image style="overflow:visible;" width="311.8" height="181.6" xlink:href="E5205F2D.png"  transform="matrix(1 0 0 1 397.9931 300.3)"/>
				</g>
			</mask>
			<path class="st33" d="M696.2,336.8c-45-36.9-113.3-46.1-168.6-26.3c-43.1,16.1-95,48.2-119.1,87.7c-9.5,15.5-14.5,25.3-6.7,47.9
				c0.8,8.7,16.6,27.6,28.3,32.4c11.1,4.5,29.3,5.4,36.7-2.5c7.8-7,12.9-20.3,19.1-29.3c16.2-23.4,43.2-45.8,70-55.5
				c29.5-10.3,59.8-2.2,83.9,16.7c5.6,4.4,13.1,8.7,21.2,10c13.9,2,21.8-2.3,32.2-9.5c10.4-7.2,15.2-24.7,16.6-33.8
				C710.2,361.7,706.9,345.5,696.2,336.8z"/>
			<defs>
				<filter id="Adobe_OpacityMaskFilter_13_" filterUnits="userSpaceOnUse" x="362.4" y="244.2" width="362.6" height="189.7">
					
						<feColorMatrix  type="matrix" values="-1 0 0 0 1  0 -1 0 0 1  0 0 -1 0 1  0 0 0 1 0" color-interpolation-filters="sRGB" result="source"/>
				</filter>
			</defs>
			<mask maskUnits="userSpaceOnUse" x="362.4" y="244.2" width="362.6" height="189.7" id="SVGID_22_">
				<g class="st34">
					
						<image style="overflow:visible;" width="362.6" height="189.7" xlink:href="E5205F2E.png"  transform="matrix(1 0 0 1 362.4023 244.2168)"/>
				</g>
			</mask>
			<path class="st35" d="M723.2,312.9c-5.2-13.3-15.7-19.9-28.7-29.3c-51.7-37.1-117.6-50-178.7-29.9
				c-57.3,18.8-103.2,58.5-136.8,107.8c-8.6,12.6-15.3,22.6-16.6,37.7c2.2,11.1,7.5,25.4,18.8,31.1c11.3,5.8,29.9,4,38.2-0.6
				c7.4-4.9,14.3-13.7,20.9-23.5c24.4-36.1,56.7-66.7,98.8-80.4c39.2-13.2,80.1-3.1,112.8,20.7c8.9,6.5,17.5,9.8,28.2,13.6
				c14.5,2.6,28.9,0.4,37.6-8.8C726.4,342.2,726,321,723.2,312.9z"/>
			
				<image style="overflow:visible;" width="1153" height="627" xlink:href="DFC3484.png"  transform="matrix(0.24 0 0 0.24 404.64 282.48)">
			</image>
		</g>
		
			<image style="overflow:visible;" width="543" height="701" xlink:href="DFC3485.png"  transform="matrix(0.24 0 0 0.24 565.44 737.52)">
		</image>
		<defs>
			<filter id="Adobe_OpacityMaskFilter_14_" filterUnits="userSpaceOnUse" x="462.1" y="813.2" width="321.2" height="245.4">
				<feColorMatrix  type="matrix" values="1 0 0 0 0  0 1 0 0 0  0 0 1 0 0  0 0 0 1 0"/>
			</filter>
		</defs>
		<mask maskUnits="userSpaceOnUse" x="462.1" y="813.2" width="321.2" height="245.4" id="SVGID_23_">
			<g class="st36">
				
					<image style="overflow:visible;" width="321.2" height="245.4" xlink:href="E5205F2C.png"  transform="matrix(1 0 0 1 462.1436 813.2366)"/>
			</g>
		</mask>
		<path class="st37" d="M774.7,813.2c-4,0-7.9,0-11.9,0c-4,0-7.9,0-11.9,0c-9.4,33.4-19.4,65.1-34.8,89.5
			c-15.2,24.4-35.1,41-61.8,52c-25.7,11.9-55.4,17.4-85.5,16.6c-15.1-0.3-30.3-2-45.5-5.4c-15.2-3.6-31.3-10-48.2-13.9
			c-2.2,3.3-4.3,6.7-6.5,10c-2.2,3.3-4.3,6.7-6.5,10c12.9,12.9,25.6,27.6,42.7,41c17.3,13.2,37.3,24.2,58.2,32.1
			c41.9,16,87.9,19.1,127.3,2.4c19.4-8.9,37.9-23,52.8-41.9c14.9-18.8,25.8-41.9,32.1-65.2C787.9,893.4,784,848.3,774.7,813.2z"/>
	</g>
</g>
</svg>
