<?xml version="1.0" encoding="utf-8"?>
<!-- Generator: Adobe Illustrator 25.0.0, SVG Export Plug-In . SVG Version: 6.00 Build 0)  -->
<svg version="1.1"
	 id="wide_rectangle" xmlns:cc="http://creativecommons.org/ns#" xmlns:dc="http://purl.org/dc/elements/1.1/" xmlns:inkscape="http://www.inkscape.org/namespaces/inkscape" xmlns:rdf="http://www.w3.org/1999/02/22-rdf-syntax-ns#" xmlns:sodipodi="http://sodipodi.sourceforge.net/DTD/sodipodi-0.dtd" xmlns:svg="http://www.w3.org/2000/svg"
	 xmlns="http://www.w3.org/2000/svg" xmlns:xlink="http://www.w3.org/1999/xlink" x="0px" y="0px" viewBox="0 0 3050.9 1460.8"
	 style="enable-background:new 0 0 3050.9 1460.8;" xml:space="preserve">
<style type="text/css">
	.st0{fill-rule:evenodd;clip-rule:evenodd;fill:url(#background_2_);}
	.st1{fill-rule:evenodd;clip-rule:evenodd;}
	.st2{opacity:0.3;}
	.st3{fill:#FBFBED;}
</style>
<g>
	
		<radialGradient id="background_2_" cx="1259.5123" cy="1339.8698" r="872.5101" gradientTransform="matrix(1.9867 0 0 1.9867 -1002.6445 -1875.271)" gradientUnits="userSpaceOnUse">
		<stop  offset="0" style="stop-color:#FCF06E"/>
		<stop  offset="0.99" style="stop-color:#DBA506"/>
	</radialGradient>
	<path id="background_1_" inkscape:connector-curvature="0" class="st0" d="M3050.9,1336.9v-1211C3042.6,61.3,2992.3,10,2928.4,0
		H123.8C53.6,11,0,71.5,0,144.6V1318c0,80.8,65.7,146.3,146.6,146.3h2758.8C2980.1,1464.4,3041.7,1408.8,3050.9,1336.9z"/>
	<g id="g22">
		<g id="g24">
			<g id="g26">
				<path id="rect28" inkscape:connector-curvature="0" class="st1" d="M421.3,289.1h230.6v887.7H421.3V289.1z"/>
				<g id="g30" class="st2">
					<path id="path32" inkscape:connector-curvature="0" class="st3" d="M651.9,289.1v887.7H421.3V289.1H651.9 M672.2,268.8h-20.3
						H421.3H401v20.3v887.7v20.3h20.3h230.6h20.3v-20.3V289.1V268.8L672.2,268.8z"/>
				</g>
			</g>
			<g id="g34">
				<path id="path36" inkscape:connector-curvature="0" class="st1" d="M1143.6,289.1l-53.3,414.8l-33.1-225.6
					c-9.6-72.3-18.9-135.4-27.6-189.2h-299v887.7h201.9l0.7-586.1l85,586.1h143.8l80.8-599.1l0.7,599.1h201.4V289.1H1143.6
					L1143.6,289.1z"/>
				<g id="g38" class="st2">
					<path id="path40" inkscape:connector-curvature="0" class="st3" d="M1444.9,289.1v887.7h-201.4l-0.7-599.1l-80.6,599.1h-143.8
						l-85.1-586.1l-0.7,586.1H730.6V289.1h299c8.7,53.8,18,116.8,27.6,189.2l33,225.5l53.5-414.6H1444.9 M1465.3,268.8h-20.3h-301.3
						h-17.9l-2.3,17.7L1089,554.7l-11.6-79.2c-9.6-72.2-18.9-136-27.7-189.6l-2.8-17h-17.3h-299h-20.3v20.3v887.7v20.3h20.3h201.9
						h20.3v-20.3l0.4-306.5l44.9,309.4l2.5,17.4h17.6h143.8h17.7l2.3-17.6l40.5-301l0.3,298.3v20.3h20.3h201.4h20.3v-20.3V289.3
						L1465.3,268.8L1465.3,268.8L1465.3,268.8z"/>
				</g>
			</g>
			<g id="g42">
				<path id="path44" inkscape:connector-curvature="0" class="st1" d="M1805.5,448.9c9.2,5.2,15,13.7,17.4,24.8
					c2.6,11.3,3.8,37,3.8,77.1v344.2c0,59.1-3.8,95.3-11.5,108.7c-7.7,13.4-28,20-61.2,20V441.1
					C1779.2,440.9,1796.4,443.5,1805.5,448.9L1805.5,448.9z M1803.1,1176.8c55.2,0,96.6-3.1,124.1-9c27.5-6,50.6-16.6,69.2-31.7
					c18.6-15.1,31.7-36.2,39.2-62.9c7.6-26.7,11.9-80,11.9-159.5V601.9c0-84-3.3-140.2-8.4-169c-5.1-28.6-17.9-54.6-38.4-78
					c-20.5-23.4-50.4-40.1-89.8-50.4c-39.4-10.2-103.6-15.4-215.2-15.4h-172v887.7H1803.1L1803.1,1176.8z"/>
				<g id="g46" class="st2">
					<path id="path48" inkscape:connector-curvature="0" class="st3" d="M1695.8,289.1c111.6,0,175.8,5.1,215.2,15.4
						c39.4,10.2,69.3,27,89.8,50.4c20.5,23.4,33.3,49.4,38.4,78c5.1,28.6,8.4,85,8.4,169v311.8c0,79.6-4.5,132.8-11.9,159.5
						c-7.6,26.9-20.6,47.8-39.2,62.9c-18.7,15.1-41.7,25.7-69.2,31.7c-27.5,6.1-68.9,9-124.1,9h-279.5V289.1H1695.8 M1754.1,1023.6
						c33.1,0,53.6-6.7,61.2-20c7.7-13.4,11.5-49.5,11.5-108.7V550.8c0-40.1-1.3-65.8-3.8-77.1c-2.6-11.3-8.4-19.6-17.4-24.8
						c-9.2-5.2-26.3-8-51.4-8V1023.6 M1695.8,268.8h-172.2h-20.3v20.3v887.7v20.3h20.3h279.4c57.2,0,99.2-3.1,128.4-9.4
						c30.4-6.7,56.5-18.7,77.6-35.7c21.9-17.7,37.3-42.4,46.1-73.2c8.4-30.2,12.6-85.7,12.6-165V601.9c0-80.9-3.1-140.5-8.7-172.4
						c-5.8-32.3-20.3-61.7-43.1-87.9c-23.1-26.3-56.8-45.5-100-56.7C1873.5,273.7,1805.5,268.8,1695.8,268.8L1695.8,268.8
						L1695.8,268.8z M1774.4,1002.1V462c14.1,1.2,19.3,3.5,20.8,4.4c2.8,1.6,6.2,4.4,7.8,11.8c1.3,5.5,3.3,22.4,3.3,72.6v344.2
						c0,77.1-6.7,94.9-8.7,98.5C1797.2,994.3,1793.5,999.8,1774.4,1002.1L1774.4,1002.1L1774.4,1002.1z"/>
				</g>
			</g>
			<g id="g50">
				<path id="path52" inkscape:connector-curvature="0" class="st1" d="M2426,961.5c0,43-2.2,70-6.4,81.4c-4.2,11.3-22.8,17-36.9,17
					c-13.7,0-23-5.5-27.5-16.4c-4.6-10.9-7-35.9-7-74.8V733.9c0-40.4,2-65.7,6.1-75.7s12.9-15,26.7-15c14.1,0,33,5.7,37.8,17.1
					c4.8,11.5,7.3,36,7.3,73.5L2426,961.5L2426,961.5z M2126,289.1v887.7h207.6l14.4-56.5c18.7,22.8,39.5,39.8,62.2,51.1
					c22.7,11.3,56.5,17,82.5,17c36.5,0,68-9.6,94.4-28.8c26.4-19.2,43.3-41.7,50.6-67.8c7.1-26.2,10.8-65.7,10.8-119v-249
					c0-53.6-1.2-88.6-3.6-105c-2.5-16.4-9.4-33.1-21.2-50.3c-11.8-17.1-28.9-30.4-51.3-40c-22.4-9.4-49-14.2-79.5-14.2
					c-26.4,0-60.4,5.2-83.1,15.7c-22.7,10.5-43.1,26.3-61.6,47.7V289L2126,289.1L2126,289.1z"/>
				<g id="g54" class="st2">
					<path id="path56" inkscape:connector-curvature="0" class="st3" d="M2348.1,289.1v288.8c18.5-21.4,38.9-37.2,61.6-47.7
						s56.7-15.7,83.1-15.7c30.5,0,56.9,4.8,79.5,14.2c22.5,9.4,39.5,22.8,51.3,40c11.8,17.1,18.9,33.8,21.2,50.3s3.6,51.4,3.6,105
						v249c0,53.2-3.6,92.8-10.8,119c-7.1,26-24.1,48.7-50.6,67.8c-26.4,19.2-58,28.8-94.4,28.8c-26.2,0-60-5.7-82.5-17
						c-22.7-11.3-43.3-28.5-62.2-51.1l-14.4,56.5H2126V289.4h222.1 M2382.6,1059.8c14.1,0,32.7-5.7,36.9-17
						c4.2-11.3,6.4-38.4,6.4-81.4V733.9c0-37.5-2.5-62-7.3-73.5c-4.8-11.5-23.7-17.1-37.8-17.1c-13.7,0-22.7,5.1-26.7,15
						c-4.1,10-6.1,35.3-6.1,75.7v234.6c0,38.9,2.3,63.9,7,74.8C2359.8,1054.3,2368.9,1059.8,2382.6,1059.8 M2368.5,268.8h-20.3H2126
						h-20.3v20.3v887.7v20.3h20.3h207.6h15.8l3.9-15.4l5.4-21.2c13.4,11.8,27.5,21.5,42.3,28.9c28.2,14.1,67,19.2,91.7,19.2
						c40.7,0,76.4-10.9,106.3-32.5c30.2-21.8,49.8-48.4,58.3-78.9c7.7-28.2,11.5-68.7,11.5-124.4v-249c0-55.1-1.3-90.4-3.8-107.9
						c-2.9-19.5-11.2-39.2-24.6-58.8c-13.9-20.3-34.3-36.2-60.1-47.1c-24.8-10.5-54.2-15.8-87.3-15.8c-24.7,0-63.5,4.6-91.7,17.6
						c-11.3,5.2-22.2,11.8-32.7,19.5v-242L2368.5,268.8L2368.5,268.8L2368.5,268.8z M2382.6,1039.5c-7.1,0-8-1.9-8.9-4.1
						c-1.3-2.9-5.4-16.4-5.4-67V733.8c0-52.6,3.5-65.4,4.6-68c0.4-0.9,0.6-1,0.9-1.2c0.4-0.3,2.3-1.2,7-1.2c9.2,0,17.1,3.3,19.2,5.4
						c1.7,4.8,5.4,19.9,5.4,65.1v227.5c0,51.3-3.1,68-4.8,73.2C2398.6,1036.4,2391,1039.5,2382.6,1039.5L2382.6,1039.5z"/>
				</g>
			</g>
		</g>
	</g>
</g>
</svg>
