<?xml version="1.0" encoding="utf-8"?>
<!-- Generator: Adobe Illustrator 25.0.0, SVG Export Plug-In . SVG Version: 6.00 Build 0)  -->
<svg version="1.1" id="Layer_1" xmlns="http://www.w3.org/2000/svg" xmlns:xlink="http://www.w3.org/1999/xlink" x="0px" y="0px"
	 viewBox="0 0 2126.2 1893.4" style="enable-background:new 0 0 2126.2 1893.4;" xml:space="preserve">
<style type="text/css">
	.st0{fill:none;stroke:#F5F5F7;stroke-width:100;}
</style>
<g id="Group" transform="translate(-374.497 -825.491)">
	<g id="Group-2">
		<path id="Vector" class="st0" d="M2431.5,1633.8L1556.3,2341c-10.1,8.1-24.9,6.6-33.1-3.6c-3.4-4.3-5.3-9.6-5.2-15.1v-379.7
			c-86.8-22.7-177-29.3-266.1-19.6c-114.1,12.9-224.1,49.7-322.9,108.2c-108.8,64.4-203.1,150.4-277.2,252.8
			C571.4,2396,515,2523.4,486,2658.2h-22.2c-31.4-149.2-31.9-303.1-1.7-452.5c32.8-161.2,98.4-314,192.7-448.9
			c101-143.8,229.8-266,378.8-359.3c148-92.9,312.4-156.9,484.2-188.5V908c0.2-13.2,11-23.7,24.2-23.5c5.1,0.1,10,1.8,14.1,4.9
			l875.3,707.2c10.3,9.2,11.2,24.9,2,35.2C2432.9,1632.5,2432.3,1633.2,2431.5,1633.8z"/>
	</g>
</g>
</svg>
