<?xml version="1.0" encoding="utf-8"?>
<!-- Generator: Adobe Illustrator 25.0.0, SVG Export Plug-In . SVG Version: 6.00 Build 0)  -->
<svg version="1.1" id="Layer_1" xmlns="http://www.w3.org/2000/svg" xmlns:xlink="http://www.w3.org/1999/xlink" x="0px" y="0px"
	 viewBox="0 0 2039 1855.1" style="enable-background:new 0 0 2039 1855.1;" xml:space="preserve">
<style type="text/css">
	.st0{fill:#F5F5F7;stroke:#F5F5F7;stroke-width:18;}
</style>
<g id="Group" transform="translate(-374.904 -857.891)">
	<g id="Group-2">
		<path id="Vector" class="st0" d="M801.2,2308c-5.2-0.4-10.3-1.6-15-3.7c-12-6.3-19.2-19.1-18.4-32.7V2044H657.3
			c-152.7-8.4-270-138.5-262.6-291.3v-591.8c-6.8-152.5,110.2-282.3,262.6-291.3h900.1c152.7,8.4,270,138.5,262.6,291.3v589.9
			c6.8,152.5-110.2,282.3-262.6,291.3h-438.3L823,2300.7C816.9,2305.8,809.1,2308.4,801.2,2308z M657.3,942.4
			c-113.9,6.8-201,104.2-195.2,218.2v590.3c-5.2,113.7,81.6,210.7,195.2,218.2h143.9c19.2,0.9,34.1,17.2,33.4,36.4v191.5
			l250.9-218.2c5.6-4.8,12.7-7.3,20.1-7.2h450c113.9-6.8,201-104.2,195.2-218.2v-592.5c5.2-113.7-81.6-210.7-195.2-218.2
			L657.3,942.4z"/>
	</g>
	<g id="Group-3">
		<path id="Vector-2" class="st0" d="M2044.2,2703.1c-7.4,0.4-14.6-2.2-20.1-7.2l-249.3-216.7h-368.1
			c-131.9-7.4-233.3-119.4-227.5-251.3V2146h66.9v82c-4.6,93.5,67.2,173.2,160.7,178.4h379.6c7.3,0.2,14.3,2.8,20.1,7.2l204,176.6
			v-148c-0.7-19.2,14.2-35.5,33.4-36.4h122.6c93.5-5.2,165.3-84.9,160.7-178.4v-498.4c4.6-93.5-67.2-173.2-160.7-178.4h-269.8v-72.8
			h269.8c131.8,7.4,233.2,119.3,227.5,251.2v498.9c5.8,131.9-95.6,244-227.5,251.3h-89.1v187.5c0.9,13.6-6.3,26.4-18.4,32.7
			C2054.5,2701.4,2049.4,2702.7,2044.2,2703.1z"/>
	</g>
	<g id="Group-4">
		<path id="Vector-3" class="st0" d="M828,1495.9c-8.9-0.4-17.3-4.6-23-11.5c-6.5-6.7-10.2-15.6-10.4-24.9v-7.2
			c0-1.8,1.7-3.7,1.7-7.3c0-1.8,1.6-3.6,3.3-5.4c1.7-1.8,3.3-3.7,3.3-4.9c10.8-12.9,30.1-14.6,43-3.8c1.4,1.2,2.7,2.4,3.8,3.8
			c13.4,14.4,13.4,36.6,0,51c-3,2.7-6.4,4.9-10.1,6.4C836.6,1495.1,832.3,1496.6,828,1495.9z"/>
	</g>
	<g id="Group-5">
		<path id="Vector-4" class="st0" d="M1107.3,1495.9c-8.9-0.4-17.3-4.6-23-11.5c-13.4-14.4-13.4-36.6,0-51c1-1.3,3-3,4.6-3
			c1.7-1.8,3.3-1.8,5.1-3.7c1.6,0,2.9-2.3,6.7-2.3c11.1-1.6,22.4,1.9,30.7,9.5c13.4,14.4,13.4,36.6,0,51
			C1125.3,1491.9,1116.5,1495.9,1107.3,1495.9z"/>
	</g>
	<g id="Group-6">
		<path id="Vector-5" class="st0" d="M1385,1495.6c-4.5,0.4-9.1-0.1-13.4-1.5c-4.2-1.8-8.1-4.2-11.5-7.2c-13.4-14.4-13.4-36.6,0-51
			c1.3-2,3.2-3.7,4.8-3.7c1.7-1.8,3.3-1.8,6.7-3.7c1.3,0,3.4-1.8,6.8-1.8h13.3c1.7,0,3.3,1.8,6.8,1.8c3.4,0,3.3,1.8,6.7,3.7
			c3.3,1.8,3.3,3.6,5.1,3.6c13.4,14.4,13.4,36.6,0,51C1403.1,1492.6,1394.2,1495.7,1385,1495.6z"/>
	</g>
	<g id="Group-7">
		<path id="Vector-6" class="st0" d="M2020.8,2080.3c-8.9-0.4-17.3-4.6-23-11.5l-5.4-4.8c-1.7-1.8-1.7-3.7-3.3-5.5
			c-1.6-1.8-1.7-3.7-1.7-7.2v-14.6c0-1.8,1.7-5.5,1.7-7.3c0-1.8,1.6-3.6,3.3-5.4c1.7-1.8,3.3-3.7,3.3-4.9
			c10.8-12.9,30.1-14.6,43-3.8c1.4,1.2,2.7,2.4,3.8,3.8c2.2,1.3,3.3,3.1,3.3,4.9s1.6,3.6,3.3,5.4c1.7,1.8,1.7,3.7,1.7,7.3v14.6
			c0,2.2-1.7,5.4-1.7,7.2c0,1.8-1.7,3.7-3.3,5.5c-1.6,1.8-3.3,3.6-3.3,5.4C2037.8,2076.7,2029.5,2080.9,2020.8,2080.3z"/>
	</g>
	<g id="Group-8">
		<path id="Vector-7" class="st0" d="M1769.9,2080.3c-8.9-0.4-17.3-4.6-23-11.5c-2.2-1.3-3.8-2.5-3.8-4.8s-1.7-3.7-3.3-5.5
			c-1.6-1.8-1.7-3.7-1.7-7.2v-14.6c0-1.8,1.7-5.5,1.7-7.3c0-1.8,1.6-3.6,3.3-5.4s3.3-3.6,3.3-5.5s3.1-3.6,5.1-3.6
			c1.6-1.8,3.3-1.8,4.9-3.7c1.7,0,3.3-2.3,6.8-2.3c11.3-1.6,22.7,2.8,30.1,11.5c6.4,6.9,10,16,10,25.4v7.3c0,1.7-1.6,5.4-1.6,7.2
			c0,1.8-1.7,3.7-3.3,6c-1.6,2.3-2.9,3.1-2.9,4.9c0,1.8-3.9,3.7-5.5,3.7c-1.7,1.8-3.3,1.8-5.1,3.7c-1.7,0-3.3,1.7-6.7,1.7H1769.9z"
			/>
	</g>
</g>
</svg>
