<?xml version="1.0" encoding="utf-8"?>
<!-- Generator: Adobe Illustrator 25.0.0, SVG Export Plug-In . SVG Version: 6.00 Build 0)  -->
<svg version="1.1" id="Layer_1" xmlns="http://www.w3.org/2000/svg" xmlns:xlink="http://www.w3.org/1999/xlink" x="0px" y="0px"
	 viewBox="0 0 583.9 658.3" style="enable-background:new 0 0 583.9 658.3;" xml:space="preserve">
<style type="text/css">
	.st0{fill:#FFF78A;}
	.st1{fill:#FBB03B;}
	.st2{fill:#FFFFFF;}
	.st3{fill:#FC611F;}
	.st4{fill:#D7ECED;}
	.st5{fill:#E64500;}
</style>
<g id="Frame" transform="translate(0.008 0.035)">
	<g id="Group">
		<g id="Group-2">
			<path id="Vector" class="st0" d="M10.6,179.3h557c-2.2-9.8-16.3-16.3-23.9-19.5c-1.1-8.7-4.3-27.1-16.3-29.3
				c-9.8-1.1-17.4,8.7-21.8,17.4c-2-3.6-4.5-6.9-7.6-9.7c3.3-8.7,9.8-26,0-33.6c-9.8-7.6-25,3.3-32.7,8.7h-1.1l-1.1-1.1
				c3.3-8.7,9.8-26,0-33.6c-9.8-7.6-25,3.3-32.7,8.7c-0.8-0.1-1.6-0.5-2.2-1.1c-3.7-3.9-7.7-7.6-11.9-10.9
				c1.1-8.7,3.3-27.1-8.7-32.7c-12-5.6-23.9,8.7-29.3,16.3c-5.7-1-11.6-1.3-17.4-1.1c2.2-9.8,3.3-21.8-5.4-26
				c-10.9-6.5-23.9,5.4-31.5,11.9c-1.1,0-2.2-1.1-3.3-1.1c0-1.1-1.1-1.1-1.1-2.2c5.9-7.6,14.8-22.7,7-32.5c-8.7-9.7-25-2.1-33.7,2.2
				c-7.6-5.4-24-15.2-32.6-6.3c-5.5,5.9-6.7,14.6-3.3,21.8c-1.1,1.1-3.3,1.1-4.3,2.2c-7.6-5.8-23.9-15.5-32.6-6.8
				c-4,4-5.6,9.7-4.3,15.2h-13c-5.5-7.6-16.3-22.8-28.3-18.5c-12,4.3-10.9,22.8-10.9,32.7c-4.6,3.3-9,6.9-13,10.9
				c-5.4-6.5-14.1-13-21.8-9.8c-11.9,4.3-10.9,22.8-10.9,32.7c-5.5,3-10.3,7-14.1,11.9c-3.5-6.7-11-10.3-18.4-8.7
				c-11.9,4.3-10.9,22.8-10.9,32.7c-3.3,3.3-8.7,7.6-13,11.9c-4.5-6.7-12.6-10.1-20.6-8.7c-11.9,4.3-10.9,22.8-10.9,32.7
				C23.6,159.7,11.7,169.5,10.6,179.3z"/>
			<path id="Vector-2" class="st1" d="M212.5,52.2c-6,0-10.9,4.9-10.9,10.9c0.4,5.9,5,10.5,10.9,10.9c5.9-0.4,10.5-5,10.9-10.9
				C223.4,57.1,218.6,52.2,212.5,52.2z M163.5,75c-6,0-10.9,4.9-10.9,10.9c0,6,4.9,10.9,10.9,10.9c6,0,10.9-4.9,10.9-10.9
				c0.4-5.7-3.9-10.5-9.6-10.9C164.4,75,163.9,75,163.5,75z M134.4,118.4c-6,0-10.9,4.9-10.9,10.9c0.4,5.9,5,10.5,10.9,10.9
				c6,0,10.9-4.9,10.9-10.9C144.9,123.5,140.3,118.8,134.4,118.4z M245.2,90.2c-6,0-10.9,4.9-10.9,10.9s4.9,10.9,10.9,10.9
				c6,0,10.9-4.9,10.9-10.9l0,0c0.4-5.6-3.8-10.5-9.5-10.9C246.1,90.2,245.6,90.2,245.2,90.2L245.2,90.2z M308.1,107.5
				c-6,0-10.9,4.9-10.9,10.9l0,0c0,6,4.9,10.9,10.9,10.9c6,0,10.9-4.9,10.9-10.9C319,112.4,314.1,107.5,308.1,107.5z M279.9,45.7
				c-6,0-10.9,4.9-10.9,10.9s4.9,10.9,10.9,10.9c6,0,10.9-4.9,10.9-10.9c0.4-5.6-3.8-10.5-9.5-10.9
				C280.8,45.7,280.4,45.7,279.9,45.7z M372.1,85.7c-6,0-10.9,4.9-10.9,10.9c0,0,0,0,0,0c0,6,4.9,10.9,10.9,10.9
				c6,0,10.9-4.9,10.9-10.9c0,0,0,0,0,0C383,90.6,378.2,85.7,372.1,85.7z M330.8,69.6c-6,0-10.9,4.9-10.9,10.9c0,0,0,0,0,0
				c0.4,5.9,5,10.5,10.9,10.9c6,0,10.9-4.9,10.9-10.9S336.8,69.6,330.8,69.6C330.8,69.6,330.8,69.6,330.8,69.6z M197.3,118.4
				c-6,0-10.9,4.9-10.9,10.9c0.4,5.9,5,10.5,10.9,10.9c6,0,10.9-4.9,10.9-10.9S203.3,118.4,197.3,118.4z M372.1,120.6
				c-6,0-10.9,4.9-10.9,10.9c0,6,4.9,10.9,10.9,10.9c0,0,0,0,0,0c5.9-0.4,10.5-5,10.9-10.9C383,125.5,378.2,120.6,372.1,120.6
				C372.1,120.6,372.1,120.6,372.1,120.6z M443.8,96.6c-6,0-10.9,4.9-10.9,10.9s4.9,10.9,10.9,10.9s10.9-4.9,10.9-10.9
				c0.4-5.6-3.8-10.5-9.5-10.9C444.7,96.6,444.3,96.6,443.8,96.6z M427.5,132.4c-6,0-10.9,4.9-10.9,10.9s4.9,10.9,10.9,10.9
				c5.9-0.4,10.5-5,10.9-10.9c1.1-6.5-4.4-10.8-10.9-10.8V132.4z M269,120.6c-6,0-10.9,4.9-10.9,10.9c0,6,4.9,10.9,10.9,10.9
				c0,0,0,0,0,0c5.9-0.4,10.5-5,10.9-10.9C279.9,125.5,275,120.6,269,120.6L269,120.6z"/>
		</g>
		<g id="Group-3">
			<path id="Vector-3" class="st2" d="M581.7,167.3c4.1-12.6-2.8-26.2-15.5-30.3c-2.1-0.7-4.2-1.1-6.4-1.2
				c-16.1,2.1-28.9,14.4-31.5,30.4c3.4-13-4.4-26.3-17.4-29.6c-1.7-0.4-3.5-0.7-5.3-0.8c-16,1.8-28.6,14.4-30.4,30.4
				c1.1-17.4-8.7-30.4-22.8-30.4c-15.7,1.9-28,14.6-29.3,30.4c2.4-14.2-7.2-27.7-21.4-30.1c-0.8-0.1-1.7-0.2-2.5-0.3
				c-15.6,1.7-27.6,14.7-28.2,30.4c1.6-15.1-9.3-28.7-24.4-30.3c-0.2,0-0.4,0-0.7-0.1c-15.6,1.4-27.5,14.7-27.1,30.4
				c1.2-15.6-10.4-29.2-26-30.4c0,0,0,0,0,0c-15.4,1.6-26.8,15-26,30.4c0.3-15.7-11.5-29-27.2-30.4c-15.1,1.3-26.3,14.6-25,29.7
				c0,0.2,0,0.5,0.1,0.7c-0.1-15.9-12.4-29.1-28.3-30.4c-14.7,1.4-25.4,14.4-24.1,29.1c0,0.4,0.1,0.9,0.2,1.3
				c-1-16-13.4-28.8-29.3-30.4c-14,1.2-24.4,13.5-23.2,27.5c0.1,1,0.2,1.9,0.4,2.9c-1.1-16.3-14.1-29.2-30.3-30.4
				c-14.3,1.5-24.6,14.3-23.1,28.6c0.1,0.6,0.2,1.2,0.3,1.8c-1.9-16.4-15.1-29.1-31.6-30.4C12.2,137,2.1,148.9,3.3,162.5
				c0.1,1.2,0.3,2.5,0.6,3.7L92,659.1h405l86.9-489.7C581.7,168.5,581.7,168.5,581.7,167.3z"/>
			<path id="Vector-4" class="st3" d="M54,166.2c-1.9-16.3-15.1-29.1-31.5-30.4C8.9,137-1.1,148.9,0.1,162.5
				c0.1,1.2,0.3,2.5,0.6,3.7l88.1,492.9h36.9L54,166.2z M159.5,166.2c-1-16-13.5-28.9-29.5-30.4c-14,1.2-24.4,13.5-23.2,27.5
				c0.1,1,0.2,1.9,0.4,2.9l55.4,492.9h36.9L159.5,166.2z M265.9,166.2c0.3-15.7-11.6-29-27.3-30.4c-15.1,1.3-26.3,14.6-25.1,29.7
				c0,0.2,0,0.5,0.1,0.7l23.9,492.9h36.9L265.9,166.2z"/>
			<path id="Vector-5" class="st4" d="M560,135.8c-16.1,2.1-28.9,14.4-31.5,30.4c3.4-13-4.4-26.3-17.4-29.6
				c-1.8-0.5-3.6-0.7-5.4-0.8c-16,1.8-28.6,14.4-30.4,30.4c1.1-17.4-8.7-30.4-22.8-30.4c-15.7,1.9-28,14.6-29.3,30.4
				c2.4-14.2-7.2-27.7-21.4-30.1c-0.8-0.1-1.7-0.2-2.5-0.3c-15.7,1.7-27.7,14.7-28.2,30.4c1.6-15.1-9.3-28.7-24.4-30.4
				c-0.2,0-0.4,0-0.6-0.1c-15.6,1.4-27.5,14.7-27.2,30.4c1.2-15.6-10.4-29.2-26-30.4c0,0,0,0,0,0v523.3h203l86.9-489.7
				c0-1.1,0-1.1,1.1-2.2C584.9,149.9,575.2,135.8,560,135.8z"/>
			<path id="Vector-6" class="st5" d="M371,166.2c1.6-15.1-9.3-28.7-24.4-30.3c-0.2,0-0.4,0-0.6-0.1c-15.6,1.4-27.5,14.7-27.1,30.4
				l-7.6,492.9h36.9L371,166.2z M476.5,166.2c2.7-13.8-6.2-27.2-20-29.9c-1.3-0.3-2.7-0.4-4-0.5c-15.7,1.9-28,14.6-29.3,30.4
				L383,659.1h36.9L476.5,166.2z M582.9,166.2c2-17.4-6.7-30.4-21.9-30.4c-16.1,2.1-28.9,14.4-31.5,30.4l-71.7,492.9h36.9
				L582.9,166.2z"/>
		</g>
		<path id="Vector-7" class="st3" d="M470.9,444.2c0,50.9-79.7,92.3-178.2,92.3s-177.9-41.3-177.9-92.3s79.7-92.3,178.2-92.3
			S470.9,393.2,470.9,444.2z"/>
		<path id="Vector-8" class="st5" d="M291.8,353v183.5c98.8,0,178.2-41.2,178.2-92.3C470,394.2,390.6,353,291.8,353z"/>
		<path id="Vector-9" class="st2" d="M437.3,444.2c0,34.7-65.1,63-145.5,63s-145.5-28.2-145.5-63s65.1-63,145.5-63
			C372.1,382.3,437.3,409.4,437.3,444.2z"/>
		<path id="Vector-10" class="st4" d="M292.9,382.3v124.9c79.3,0,144.4-28.2,144.4-63S372.1,382.3,292.9,382.3z"/>
	</g>
</g>
</svg>
