<?xml version="1.0" encoding="utf-8"?>
<!-- Generator: Adobe Illustrator 25.0.0, SVG Export Plug-In . SVG Version: 6.00 Build 0)  -->
<svg version="1.1" id="Layer_1" xmlns="http://www.w3.org/2000/svg" xmlns:xlink="http://www.w3.org/1999/xlink" x="0px" y="0px"
	 viewBox="0 0 1083.6 677.6" style="enable-background:new 0 0 1083.6 677.6;" xml:space="preserve">
<style type="text/css">
	.st0{fill:#5B5E65;}
	.st1{fill:#FFFFFF;}
	.st2{fill:#E44536;}
	.st3{fill:#FFBB33;}
</style>
<g id="Frame" transform="translate(-0.002)">
	<g id="Group">
		<g id="Group-2">
			<path id="Vector" class="st0" d="M89.2,138.7C71.6,115.1,68.4,88,79.9,78.8c11.2-11,33.9,0,51.2,22.1c16,22.1,20.8,48.8,9.6,59.9
				C127.7,170.2,105.3,160.7,89.2,138.7z"/>
			<path id="Vector-2" class="st0" d="M89.2,138.7C71.6,115.1,68.4,88,79.9,78.8c11.2-11,33.9,0,51.2,22.1
				c16,22.1,20.8,48.8,9.6,59.9C127.7,170.2,105.3,160.7,89.2,138.7z"/>
			<path id="Vector-3" class="st0" d="M407.8,260c-8,11-43.2,86.7,0,129.2c0,6.3-1.6,9.5-8,4.7c-36.1-29.7-51.8-77.6-40-122.9
				C385.4,206.4,407.8,260,407.8,260z"/>
			<path id="Vector-4" class="st0" d="M407.8,260c-8,11-43.2,86.7,0,129.2c0,6.3-1.6,9.5-8,4.7c-36.1-29.7-51.8-77.6-40-122.9
				C385.4,206.4,407.8,260,407.8,260z"/>
			<path id="Vector-5" class="st0" d="M7.6,655.5l211.4,22.1c0,0,40-197,48-226.9c8-28.4,1.6-53.6,56-39.4
				c60.5,11.8,123,6.9,181-14.2c-6.4-118.3,54.4-149.8,88-149.8l-307.7-1.6c0,0-227-31.5-265.5,1.6c39.8-0.8,72.7,30.9,73.4,70.7
				c0.4,23.8-10.9,46.2-30.2,60c0,0-24,77.2-43.2,119.8C-1.6,547.9-5.5,603.1,7.6,655.5z M302.2,337.1c0-37.8,32-67.8,96.1-67.8
				c62.5,0,91.3,29.9,91.3,67.8s-28.8,67.8-91.3,67.8s-96.1-29.8-96.1-67.6V337.1z"/>
			<path id="Vector-6" class="st0" d="M25.2,250.5l4.8-7.9c84.1-10.4,169.3-8.8,253,4.8l309,1.5c-13.5,0.2-26.8,4-38.3,11H57.2
				C47.3,254.7,36.4,251.5,25.2,250.5z"/>
			<path id="Vector-7" class="st0" d="M191.7,635c12.8-58.3,35.2-173.3,43.2-197c1.3-3.6,2.3-7.3,3.2-11
				c2.7-23.2,16.5-43.7,36.9-55.1c-4.6-11.5-6.7-23.9-6.4-36.2c0.3-17.6,4.6-34.8,12.8-50.4h-1.6c-53.6-7.3-107.6-11.5-161.7-12.6
				c2.9,6.5,5,13.3,6.4,20.3c5.9,40-6.5,80.5-33.9,110.3c-7.8,22.2-25.4,78.9-41.4,113.3c-12.9,32.6-17.8,67.8-14.4,102.7L191.7,635
				z"/>
			<path id="Vector-8" class="st0" d="M18.8,249H853V91.4H124.5L18.8,249z"/>
			<path id="Vector-9" class="st0" d="M853,91.4h33.9V156H853V91.4z"/>
			<path id="Vector-10" class="st0" d="M861,91.4v44.1h25.9v12.6H861v9.5h-8V91.4H861z"/>
			<path id="Vector-11" class="st0" d="M808.2,50.4h36.6l8.3,40.7h-62.5L808.2,50.4z"/>
			<path id="Vector-12" class="st0" d="M154.9,70.9h241.8v20.3H137.2L154.9,70.9z"/>
			<path id="Vector-13" class="st1" d="M861,100.8h25.6v9.5H861V100.8z"/>
			<path id="Vector-14" class="st1" d="M396.7,107.1H853v12.6H396.7V107.1z"/>
			<path id="Vector-15" class="st1" d="M116.4,104h280.2v-9.5H122.9L116.4,104z"/>
			<path id="Vector-16" class="st0" d="M391.9,110.3h4.8V249h-4.8V110.3z"/>
			<path id="Vector-17" class="st0" d="M396.7,170.2H853v9.5H396.7V170.2z"/>
		</g>
		<g id="Group-3">
			<path id="Vector-18" class="st2" d="M889.8,104l14.4-89.8L931.4,63l97.8-63l-28.8,85.1l83.3,42.5l-83.3,27.1l27.1,108.4
				l-81.6-67.8l-35.2,61.5l-20.7-108.7V104z"/>
			<path id="Vector-19" class="st3" d="M944,173.3L918.4,214l-28.6-65.9V104l17.6-53.7l20.8,31.6l72.1-52l-20.9,63l61,31.5l-61,18.9
				l19.2,74.1L944,173.3z"/>
		</g>
	</g>
</g>
</svg>
