<?xml version="1.0" encoding="utf-8"?>
<!-- Generator: Adobe Illustrator 25.0.0, SVG Export Plug-In . SVG Version: 6.00 Build 0)  -->
<svg version="1.1" id="Layer_1" xmlns="http://www.w3.org/2000/svg" xmlns:xlink="http://www.w3.org/1999/xlink" x="0px" y="0px"
	 viewBox="0 0 604.9 481.2" style="enable-background:new 0 0 604.9 481.2;" xml:space="preserve">
<style type="text/css">
	.st0{fill:#62D2DD;}
	.st1{fill:#E4403F;}
	.st2{fill:#FFBA39;}
	.st3{fill:#C10601;}
	.st4{fill:#FF9292;}
	.st5{fill:#F49B0C;}
	.st6{fill:#FFE3B6;}
</style>
<g id="Group">
	<g id="Group-2">
		<path id="Vector" class="st0" d="M257.5,74.6C175.5,43.3,86.6,34.5,0,48.9v12.4c86.6-14.5,175.4-5.7,257.5,25.4
			c118.5,42,283.1-41.6,347.4-31.6V42.9C539.5,32.7,376,116.5,257.5,74.6z"/>
	</g>
	<g id="Group-3">
		<path id="Vector-2" class="st0" d="M257.5,146.1C175.6,114.4,86.6,105.6,0,120.6v12.3c86.6-14.5,175.4-5.6,257.5,25.6
			c118.5,41.8,283.1-42,347.4-31.7v-12.2C539.5,103.2,376,187,257.5,146.1z"/>
	</g>
	<g id="Group-4">
		<path id="Vector-3" class="st0" d="M257.5,216.6C175.6,184.9,86.6,176.1,0,191.1v12.3c86.6-14.5,175.4-5.6,257.5,25.6
			c118.5,41.8,283.1-42,347.4-31.7v-12.2C539.5,174.7,376,258.5,257.5,216.6z"/>
	</g>
	<g id="Group-5">
		<path id="Vector-4" class="st0" d="M257.5,287.1C175.6,255.4,86.6,246.6,0,261.6v12.3c86.6-14.5,175.4-5.6,257.5,25.6
			c118.5,41.8,283.1-42,347.4-31.7v-12.2C539.5,245.2,376,329,257.5,287.1z"/>
	</g>
	<g id="Group-6">
		<path id="Vector-5" class="st0" d="M257.5,358.5C175.6,326.5,86.6,317.4,0,332v12.4c86.6-14.5,175.4-5.7,257.5,25.4
			c118.5,42,283.1-41.8,347.4-31.6v-11.3C539.5,315.7,376,399.5,257.5,358.5z"/>
	</g>
	<g id="Group-7">
		<g id="Group-8">
			<g id="Group-9">
				<path id="Vector-6" class="st1" d="M577.4,84.8c-30.8-43.9-175.8-74.6-175.8-74.6V324c-38.8-28.3-93.2-19.7-121.5,19.1
					c-28.3,38.8-19.7,93.2,19.1,121.5c38.8,28.3,93.2,19.7,121.5-19.1c10.8-14.8,16.6-32.6,16.7-51V87.9
					c44.9,12.2,118.5,35.8,140.1,66.4c1.1,1.1,1.8,2.5,2,4.1C590.5,134.9,589.7,107.6,577.4,84.8z"/>
			</g>
		</g>
		<g id="Group-10">
			<path id="Vector-7" class="st2" d="M300.4,78.7C277.9,38.8,156.3,0,156.3,0l-26.5,269.7c-11.7-10.9-26.9-17.4-42.9-18.4
				c-41.2-4-77.8,26.1-81.8,67.3s26.1,77.8,67.3,81.8s77.8-26.1,81.8-67.3c0,0,0-0.1,0-0.1l16.3-170.5
				c37.8,14.3,98.1,40.9,113.4,68.5c1,1,1,2,2,4.1c11.3-19.3,12.8-42.8,4.1-63.4c-15.3-27.6-75.6-54.1-113.4-68.5l3.1-33.7
				c37.8,14.3,99.1,40.9,114.4,68.5c1,1,1,2,2,4.1C307.5,122.7,309,99.3,300.4,78.7z"/>
		</g>
	</g>
	<g id="Group-11">
		<path id="Vector-8" class="st3" d="M428.1,49v305.5c0,48-38.9,86.9-86.9,86.9c0,0,0,0,0,0c-32.4,0.1-62-18.1-76.5-47.1
			c2.2,48,42.9,85,90.9,82.8c44.8-2.1,80.7-38,82.8-82.8V87.9c44.9,12.2,118.5,35.8,139.9,66.4c1.1,1.1,1.8,2.5,2,4.1
			c6.1-10.5,8.7-22.7,7.1-34.7C538.7,90.2,484.9,65,428.1,49z"/>
	</g>
	<g id="Group-12">
		<path id="Vector-9" class="st4" d="M360.7,342.2c17,0.1,33.8,4,49.1,11.3c-11.7-23.2-35.4-37.8-61.4-37.8
			c-35.3-0.4-65,26.2-68.5,61.3C300.9,354.8,330.1,342.2,360.7,342.2z"/>
	</g>
	<g id="Group-13">
		<path id="Vector-10" class="st5" d="M172.7,39.8l-9.2,91.9l-16.3,170.6c-4.2,41.1-40.6,71.2-81.7,67.4
			c-25.9-2.9-48.5-18.7-60.3-41.9c1.3,37.6,30,68.5,67.4,72.5c41,4.1,77.6-25.8,81.7-66.8c0-0.2,0-0.4,0.1-0.6l16.3-170.6
			c37.8,14.3,98.1,40.9,113.4,68.5c1,1,1,2,2,4.1c1.9-2,3.3-4.5,4.1-7.1c-14.3-25.4-23.5-52.1-117.5-90.9l6.2-66.4
			c37.8,14.3,99.1,40.9,114.4,68.5c1,1,1,2,2,4.1c2-1,3.1-4.1,4.1-6.1C287.1,109.3,278.9,83.8,172.7,39.8z"/>
	</g>
	<g id="Group-14">
		<path id="Vector-11" class="st6" d="M91.9,283.9c17,0.1,33.8,4,49.1,11.3c-11.7-23.2-35.4-37.8-61.4-37.8
			c-35.3-0.4-65,26.2-68.5,61.3C32.2,296.6,61.4,284,91.9,283.9z"/>
	</g>
</g>
</svg>
