<?xml version="1.0" encoding="utf-8"?>
<!-- Generator: Adobe Illustrator 25.0.0, SVG Export Plug-In . SVG Version: 6.00 Build 0)  -->
<svg version="1.1" id="Layer_1" xmlns="http://www.w3.org/2000/svg" xmlns:xlink="http://www.w3.org/1999/xlink" x="0px" y="0px"
	 viewBox="0 0 769.6 658.3" style="enable-background:new 0 0 769.6 658.3;" xml:space="preserve">
<style type="text/css">
	.st0{fill:#D7ECED;}
	.st1{fill:#FFFFFF;}
	.st2{fill:#FC611F;}
	.st3{fill:#15B0BF;}
	.st4{fill:#E64500;}
	.st5{fill:#129BA8;}
</style>
<g id="Frame" transform="translate(0 0.003)">
	<g id="Group">
		<path id="Vector" class="st0" d="M747.2,517.1V242.3c0-34,1.3-68.1,1.3-100.9V93.6c-2-16.8-8.1-32.8-17.7-46.6
			c-8.1-11.2-18.4-20.6-30.2-27.7c-8.7-5.3-18-9.5-27.7-12.6c-7.6-2.5-15.1-3.8-18.9-5.1c-2.6,0.1-5.2-0.4-7.6-1.4
			c-9.1-1.3-17.6,4.9-19.1,14c-1.2,8.9,4.8,17.3,13.7,18.9h7.9c5.1,0.4,10.2,1.3,15.1,2.5c7,2.8,13.7,6.2,20.2,10.1
			c8,5.2,15.2,11.6,21.4,18.9c2.8,4.4,5.3,9,7.6,13.7c0.7,3,1.5,5.9,2.5,8.8c0,2.5,1.3,5.1,1.3,7.6v8.8c0,3.8-1.3,7.6-1.3,11.3
			c-1.3,7.6-1.3,15.1-2.5,23.9c-2.5,31.5-5.1,66.8-8.8,100.9c-2.5,34-6.3,68.1-8.8,100.9c-2.5,31.5-5.1,61.7-7.6,87
			c-5.1,51.7-8.8,85.7-8.8,85.7c-2.1,18.8,11.5,35.7,30.3,37.8c18.8,2.1,35.7-11.5,37.8-30.3l0,0V517.1z"/>
		<path id="Vector-2" class="st1" d="M22.5,517.1V242.3c0-34-1.3-68-1.3-101V94.9c2-16.8,8-32.8,17.7-46.7
			C47,37,57.3,27.6,69.1,20.5c8.7-5.3,18-9.5,27.7-12.6c7.6-2.5,15.1-3.8,18.9-5.1c3-0.5,6-1.4,8.8-2.7c8.9-1.2,17.3,4.8,18.9,13.7
			c1.2,8.9-4.8,17.3-13.7,18.9h-7.7c-5.1,0.4-10.2,1.3-15.1,2.5c-7.2,2.4-14,6-20.2,10.5c-8.5,4.5-15.9,11-21.4,18.9
			c-3.3,4.6-5.9,9.7-7.6,15.1c-1.3,2.5-1.3,5.1-2.5,7.6c0,2.5-1.3,5.1-1.3,7.6l1.3,6.3l1.3,1.3l0,0h-1.2v2.5
			c-0.2,3.8,0.2,7.7,1.3,11.3c1,8,1.4,16,1.1,24c2.6,31.5,5.1,66.8,9.1,100.9c2.5,34,6.3,68.1,8.8,100.9c2.5,31.5,5.1,61.7,7.6,87
			c5.1,51.7,8.8,85.7,8.8,85.7c2.2,18.7-11.2,35.6-29.9,37.8c-0.1,0-0.2,0-0.3,0C43,554.5,26.1,541.2,24,522.5c0-0.1,0-0.2,0-0.3
			C23,520.6,22.5,518.9,22.5,517.1z"/>
		<path id="Vector-3" class="st1" d="M339.9,614.2c-0.3,24.2-19.9,43.8-44.1,44.1H65.3c-24.2-0.3-43.8-19.9-44.1-44.1V481.8
			c0.3-24.2,19.9-43.8,44.1-44.1H296c24.2,0.4,43.6,19.9,43.9,44.1V614.2z"/>
		<path id="Vector-4" class="st1" d="M748.4,614.2c-0.3,24.2-19.9,43.8-44.1,44.1H472.4c-24.2-0.3-43.8-19.9-44.1-44.1V481.8
			c0.3-24.2,19.9-43.8,44.1-44.1h230.7c24.2,0.4,43.6,19.9,43.9,44.1v132.3H748.4z"/>
		<path id="Vector-5" class="st1" d="M704.2,437.7H65.3c-24.2,0.3-43.8,19.9-44.1,44.1v132.3c0.3,24.2,19.9,43.8,44.1,44.1H296
			c24.2-0.4,43.6-19.9,43.9-44.1V504.5h88.4v109.6c0.3,24.2,19.9,43.8,44.1,44.1h230.7c24.2-0.3,43.8-19.9,44.1-44.1V481.8
			c0.7-23.6-17.8-43.4-41.5-44.1C705.2,437.7,704.7,437.7,704.2,437.7z"/>
		<path id="Vector-6" class="st1" d="M704.2,427.6H65.3c-24.2,0.3-43.8,19.9-44.1,44.1v132.3c0.3,24.2,19.9,43.8,44.1,44.1H296
			c24.2-0.4,43.6-19.9,43.9-44.1V494.4h88.4v109.6c0.3,24.2,19.9,43.8,44.1,44.1h230.7c24.2-0.3,43.8-19.9,44.1-44.1V471.7
			c1.1-23.2-16.8-42.9-40-44.1C706.2,427.6,705.2,427.6,704.2,427.6z"/>
		<path id="Vector-7" class="st2" d="M65.3,625.3c-6.2,0-11.2-4.9-11.3-11.1V481.8c0-6.2,5-11.3,11.2-11.3c0,0,0.1,0,0.1,0H296
			c6.2,0,11.3,5,11.3,11.2c0,0,0,0.1,0,0.1v132.4c0,6.2-5,11.3-11.2,11.3c0,0-0.1,0-0.1,0L65.3,625.3z"/>
		<path id="Vector-8" class="st0" d="M704.3,437.7H384.2v66.8h44.1v109.6c0.3,24.2,19.9,43.8,44.1,44.1h230.5
			c24.2-0.3,43.8-19.9,44.1-44.1V481.8c0.7-23.6-17.8-43.4-41.5-44.1C705.2,437.7,704.7,437.7,704.3,437.7z"/>
		<path id="Vector-9" class="st3" d="M472.4,625.3c-6.2,0-11.2-4.9-11.3-11.1V481.8c0-6.2,5-11.3,11.2-11.3c0,0,0.1,0,0.1,0h230.7
			c6.2,0,11.3,5,11.3,11.2c0,0,0,0.1,0,0.1v132.4c0,6.2-5,11.3-11.2,11.3c0,0-0.1,0-0.1,0L472.4,625.3z"/>
		<path id="Vector-10" class="st4" d="M296,471.7h-97.1l-39.1,153.8H296c6.2,0,11.3-5,11.3-11.2c0,0,0-0.1,0-0.1V481.8
			C306.8,476,301.8,471.6,296,471.7z"/>
		<path id="Vector-11" class="st5" d="M704.4,471.7h-97.1l-39.1,153.8h136.1c6.2,0,11.3-5,11.3-11.2c0,0,0-0.1,0-0.1V481.8
			C714.4,476.4,709.9,472.4,704.4,471.7z"/>
	</g>
</g>
</svg>
