<?xml version="1.0" encoding="utf-8"?>
<!-- Generator: Adobe Illustrator 25.0.0, SVG Export Plug-In . SVG Version: 6.00 Build 0)  -->
<svg version="1.1" id="Layer_1" xmlns="http://www.w3.org/2000/svg" xmlns:xlink="http://www.w3.org/1999/xlink" x="0px" y="0px"
	 viewBox="0 0 537.6 481.2" style="enable-background:new 0 0 537.6 481.2;" xml:space="preserve">
<style type="text/css">
	.st0{fill:#78E3F4;}
	.st1{fill:#935402;}
	.st2{fill:#913D03;}
	.st3{fill:#CC7E21;}
	.st4{fill:#62D2DD;}
	.st5{fill:#CAFAFF;}
	.st6{fill:#E4403F;}
	.st7{fill:#C10601;}
</style>
<g id="Frame" transform="translate(15.994 -0.015) rotate(180)">
	<g id="Group">
		<g id="Group-2">
			<g id="Group-3">
				<g id="Group-4">
					<g id="Group-5">
						<g id="Group-6">
							<path id="Vector" class="st0" d="M0.9-428.1C-112.1-309.5-218.3-184.6-317.2-54c-31.9,49.3-36.1,64-53.5,47.5
								c-17.3-15.5-99.5-77.7-140.9-119.2C-527-140.4-325.7-356.4-292-371.1c9.5-4.3,83,62.2,83,62.2c7.5-10.1,18.1-17.4,30.2-20.7
								c20.7-4.3,33.7-27.7,42.2-49.2c8.5-21.6,53.6-47.5,72.6-61.3c19-13,6-15.5,4.3-32C5.2-505,15.6-439.3,0.9-428.1z
								 M-362.9-53.1c-8-0.1-14.6,6.4-14.7,14.4c0,0.1,0,0.2,0,0.3c-0.1,8,6.4,14.6,14.4,14.7c0.1,0,0.2,0,0.3,0
								c8,0.1,14.6-6.4,14.7-14.4c0-0.1,0-0.2,0-0.3c0.4-7.8-5.6-14.3-13.4-14.7C-362-53.1-362.4-53.1-362.9-53.1z"/>
						</g>
					</g>
					<g id="Group-7">
						<path id="Vector-2" class="st1" d="M1-428.1c-38.2,40.7-102.9,109.8-155.8,172c-5.1-6-42.2-39.8-55.2-52.7
							c7.4-10,18.1-17.1,30.2-19.9c20.7-4.3,33.7-27.7,42.2-49.2c8.5-21.6,53.6-47.5,72.6-61.3c19-13,6-15.5,4.3-32
							C5.2-505,15.6-439.3,1-428.1z"/>
					</g>
					<g id="Group-8">
						<path id="Vector-3" class="st2" d="M-44.9-461.8c0,16.4,13,19-6.9,32c-19.9,12.9-66.5,38.9-77,60.5
							c-10.5,21.6-25,44.9-45.7,49.3c-11.5,2.3-21.8,8.4-29.4,17.3l-6-6c7.4-10.1,18.1-17.1,30.2-19.9c20.7-4.3,33.7-27.7,42.2-49.2
							c8.5-21.6,53.7-47.5,72.7-61.3c19-13,6-15.5,4.3-32c30.2-15.5,48.4-9.5,57.9,1.7C-17.1-472.7-32.4-469.9-44.9-461.8z"/>
					</g>
					<g id="Group-9">
						<path id="Vector-4" class="st3" d="M-8.6-441.9c5.7-6.7,7.3-15.9,4.3-24.2c8.9,11,9.2,26.7,0.7,38
							c-36.1,38-103.5,110.6-153.6,170.2l-8.6-8.6C-164.1-268.2-44.9-403-8.6-441.9z"/>
					</g>
				</g>
			</g>
			<g id="Group-10">
				<path id="Vector-5" class="st4" d="M-306.7-361.5c25.2,75.3,41.4,153.2,48.4,232.3c-28.5,35.7-49.3,63.2-57.9,76.2
					c0,0.9-0.9,0.9-0.9,1.7c-1.7-14.7-3.4-30.2-6-44.9c-8.6-54.5-17.2-109.7-31.1-163.3c-3.5-14.7-7.8-30.2-12.1-44.9
					C-347.7-324.7-327.8-343.8-306.7-361.5z"/>
			</g>
			<g id="Group-11">
				<path id="Vector-6" class="st4" d="M-418.3-44.4c-31-25.1-69-55.2-93.2-79.5c-6-6,17.3-38,50.1-77.9
					C-444.3-150.1-429.9-97.6-418.3-44.4z"/>
			</g>
			<g id="Group-12">
				<g id="Group-13">
					<path id="Vector-7" class="st5" d="M-273.9-357.2c-31.1,13.8-196.3,188.5-226.4,243.6c-4-3.5-7.7-7.3-11.2-11.2
						C-527-140.3-325.7-356.4-292-371c4.3-1.7,19.9,9.5,37.2,23.3C-264.4-354.6-271.3-358.1-273.9-357.2z"/>
				</g>
			</g>
		</g>
		<g id="Group-14">
			<path id="Vector-8" class="st6" d="M-284.2-291.5c-11.1,0.6-22,3.6-32,8.6c-13,8.6-32.8,6-44.1,18.1
				c-10.4,10.3-17.3,23.2-27.6,33.7c-13.8,13.8-34.6,9.5-50.1,19.9c-10.1,8.4-21.1,15.6-32.8,21.6c57-70,156.4-172,179.7-182.3
				c6.9-3.5,53.6,36.3,73.4,53.6C-238.2-305.8-260.7-296.7-284.2-291.5z"/>
		</g>
		<g id="Group-15">
			<path id="Vector-9" class="st7" d="M-245.4-340c-13.8,10.9-30.2,18-47.5,20.7c-8.5-0.3-16.8,1.8-24.2,6
				c-10.4,6.9-13.8,14.7-27.7,12.1c-7.8-1.7-12.1,1.7-18.1,7.8c-10.4,9.5-13.8,24.2-22.5,35.4c-10.1,7.9-21.1,14.6-32.8,19.9
				c-12.2,10.6-23.7,21.8-34.6,33.7c-4.3,3.7-8.9,6.8-13.8,9.5C-413-258.3-354.7-317.5-292-371.9c9.5-6.9-11.2-35.4-11.2-47.5
				c-0.1-8,6.4-14.6,14.4-14.7c0.1,0,0.2,0,0.3,0c8-0.1,14.6,6.4,14.7,14.4c0,0.1,0,0.2,0,0.3c0,6.9-20.7,38-12.1,48.4
				C-281.6-365.9-265.3-359-245.4-340z"/>
		</g>
	</g>
</g>
</svg>
