<?xml version="1.0" encoding="utf-8"?>
<!-- Generator: Adobe Illustrator 25.0.0, SVG Export Plug-In . SVG Version: 6.00 Build 0)  -->
<svg version="1.1" id="Layer_1" xmlns="http://www.w3.org/2000/svg" xmlns:xlink="http://www.w3.org/1999/xlink" x="0px" y="0px"
	 viewBox="0 0 1222.5 2000" style="enable-background:new 0 0 1222.5 2000;" xml:space="preserve">
<style type="text/css">
	.st0{fill:#F2F2F2;}
	.st1{fill:#F15A24;}
	.st2{fill:#FFFFFF;}
	.st3{fill:#FBB03B;}
	.st4{fill:#FCEE21;}
	.st5{fill:url(#Vector-10_1_);}
	.st6{fill:url(#Vector-14_1_);}
	.st7{fill:url(#Vector-15_1_);}
	.st8{fill:url(#Vector-16_1_);}
	.st9{fill:url(#Vector-20_1_);}
	.st10{fill:url(#Vector-24_1_);}
	.st11{fill:url(#Vector-25_1_);}
	.st12{fill:url(#Vector-26_1_);}
	.st13{fill:url(#Vector-31_1_);}
	.st14{fill:url(#Vector-32_1_);}
	.st15{fill:url(#Vector-34_1_);}
	.st16{fill:url(#Vector-36_1_);}
	.st17{fill:url(#Vector-38_1_);}
	.st18{fill:url(#Vector-41_1_);}
	.st19{fill:url(#Vector-43_1_);}
	.st20{fill:url(#Vector-46_1_);}
	.st21{fill:url(#Vector-48_1_);}
	.st22{fill:url(#Vector-50_1_);}
	.st23{fill:#E6E6E6;}
	.st24{fill:url(#Vector-52_1_);}
	.st25{fill:url(#Vector-53_1_);}
	.st26{fill:url(#Vector-55_1_);}
	.st27{fill:url(#Vector-57_1_);}
</style>
<g id="Group" transform="translate(0.003 0.005)">
	<path id="Vector" class="st0" d="M848,1773.6c-2.5,125.5-106.1,225.2-231.6,222.9c-125.5,2.8-229.5-96.5-232.5-222
		c2.4-125.5,106.1-225.3,231.6-223C741,1548.7,845,1648.1,848,1773.6z"/>
	<path id="Vector-2" class="st1" d="M839.9,1760.9c8.4,123.6-85.1,230.5-208.7,238.8c-123.6,8.2-230.6-85.3-239-208.9
		s85.1-230.5,208.7-238.8c0.6,0,1.3-0.1,1.9-0.1C725.9,1544.2,832.1,1637.8,839.9,1760.9C839.9,1760.9,839.9,1760.9,839.9,1760.9z"
		/>
	<path id="Vector-3" class="st2" d="M781.9,1773.7c0.2,122.9-73.9,222.7-165.6,222.8c-91.7,0.2-166.2-99.3-166.4-222.2
		s73.9-222.7,165.6-222.8S781.7,1650.8,781.9,1773.7z"/>
	<path id="Vector-4" class="st3" d="M772.7,1773.7c0.2,122.9-69.8,222.6-156.4,222.8s-156.9-99.3-157.2-222.2
		s69.8-222.6,156.4-222.8S772.5,1650.9,772.7,1773.7z"/>
	<path id="Vector-5" class="st2" d="M720.5,1774c0,123.5-46.1,222.5-104.5,222.5c-56.9-0.1-104.6-99.2-104.6-222.5
		s46.1-222.5,104.5-222.5S720.5,1650.5,720.5,1774z"/>
	<path id="Vector-6" class="st4" d="M711.2,1773.8c0.2,122.9-42.2,222.6-95.2,222.7s-95.1-99.4-95.4-222.3
		c-0.2-122.9,42.2-222.6,95.2-222.7S710.9,1651,711.2,1773.8z"/>
	<g id="Group-2">
		<path id="Vector-7" class="st1" d="M941.8,862.7h6.2l-3.1,4.6L941.8,862.7z"/>
		<path id="Vector-8" class="st1" d="M1058.6,1761.9h-6.2l6.2-18.3l1.2,4.6L1058.6,1761.9z"/>
		<path id="Vector-9" class="st1" d="M948,862.7L863.4,977l18.5,172.2l18.3-1.5c181.4,163.1,158.3,614.1,158.3,614.1
			C1296.8,1147.7,948,862.7,948,862.7z M971,1063.9c-15.2-0.1-27.3-12.5-27.2-27.7c0.1-15.2,12.5-27.3,27.7-27.2
			c15.1,0.1,27.2,12.4,27.2,27.4c0,15.2-12.3,27.4-27.4,27.4C971.2,1063.9,971.1,1063.9,971,1063.9z"/>
		
			<linearGradient id="Vector-10_1_" gradientUnits="userSpaceOnUse" x1="-245.2529" y1="1944.0372" x2="-171.9663" y2="1944.1108" gradientTransform="matrix(3.792 0 0 -12.219 1788.3584 25066.8789)">
			<stop  offset="0" style="stop-color:#B5332A"/>
			<stop  offset="0.462" style="stop-color:#D86E68"/>
			<stop  offset="0.816" style="stop-color:#A22F27"/>
			<stop  offset="0.983" style="stop-color:#78221C"/>
		</linearGradient>
		<path id="Vector-10" class="st5" d="M941.8,862.7L857.2,977l18.5,172.2l18.3-1.5c181.4,164.6,158.3,614.1,158.3,614.1
			C1292.2,1149.2,941.8,862.7,941.8,862.7z M964.8,1063.9c-15.2-0.1-27.3-12.5-27.2-27.7c0.1-15.2,12.5-27.3,27.7-27.2
			c15.1,0.1,27.2,12.4,27.2,27.4c0,15.2-12.3,27.4-27.4,27.4C965,1063.9,964.9,1063.9,964.8,1063.9z"/>
		<path id="Vector-11" class="st2" d="M1094,1166l61.5-6.1c7.5-0.7,13-7.4,12.3-14.9c0-0.1,0-0.2,0-0.3c-0.7-7.6-7.4-13.2-14.9-12.5
			c-0.2,0-0.3,0-0.5,0l-61.5,6.3c-7.5,0.6-13.2,7.2-12.6,14.7c0,0.2,0,0.3,0,0.5C1080.3,1160.9,1086.6,1165.9,1094,1166z"/>
		<path id="Vector-12" class="st2" d="M1110.8,1219.3l61.5-6.1c7.5-0.7,13-7.4,12.3-14.9c0-0.1,0-0.2,0-0.3
			c-0.7-7.6-7.4-13.2-14.9-12.5c-0.2,0-0.3,0-0.5,0l-61.5,6.3c-7.5,0.6-13.2,7.2-12.6,14.7c0,0.2,0,0.3,0,0.5
			c-0.2,6.8,5.2,12.5,12.1,12.6C1108.5,1219.7,1109.7,1219.6,1110.8,1219.3z"/>
		<path id="Vector-13" class="st2" d="M1126.2,1274.2l61.5-6.1c7.5-0.7,13-7.4,12.3-14.9c0-0.1,0-0.2,0-0.3
			c-0.7-7.6-7.4-13.2-14.9-12.5c-0.2,0-0.3,0-0.5,0l-61.5,6.3c-7.5,0.6-13.2,7.2-12.6,14.7c0,0.2,0,0.3,0,0.5
			c0.9,7.6,7.8,13.1,15.4,12.2C1126,1274.2,1126.1,1274.2,1126.2,1274.2z"/>
		
			<linearGradient id="Vector-14_1_" gradientUnits="userSpaceOnUse" x1="233.553" y1="850.7074" x2="307.5754" y2="851.0753" gradientTransform="matrix(1.2176 0 0 -0.461 792.722 1542.7743)">
			<stop  offset="0" style="stop-color:#666666"/>
			<stop  offset="0.47" style="stop-color:#F2F2F2"/>
			<stop  offset="1" style="stop-color:#808080"/>
		</linearGradient>
		<path id="Vector-14" class="st6" d="M1092.4,1167.5l61.5-6.1c7.5-0.7,13-7.4,12.3-14.9c0-0.1,0-0.2,0-0.3
			c-0.7-7.6-7.4-13.2-14.9-12.5c-0.2,0-0.3,0-0.5,0l-61.5,6.3c-7.5,0.6-13.2,7.2-12.6,14.7c0,0.2,0,0.3,0,0.5
			C1078.1,1162.7,1084.8,1168,1092.4,1167.5z"/>
		
			<linearGradient id="Vector-15_1_" gradientUnits="userSpaceOnUse" x1="246.9205" y1="735.3056" x2="320.1335" y2="735.7471" gradientTransform="matrix(1.2176 0 0 -0.4617 792.952 1545.0975)">
			<stop  offset="0" style="stop-color:#666666"/>
			<stop  offset="0.47" style="stop-color:#F2F2F2"/>
			<stop  offset="1" style="stop-color:#808080"/>
		</linearGradient>
		<path id="Vector-15" class="st7" d="M1109.3,1222.4l61.5-6.1c7.5-0.7,13-7.4,12.3-14.9c0-0.1,0-0.2,0-0.3
			c-0.7-7.6-7.4-13.2-14.9-12.5c-0.2,0-0.3,0-0.5,0l-61.5,6.3c-7.5,0.6-13.2,7.2-12.6,14.7c0,0.2,0,0.3,0,0.5
			C1094.7,1217.8,1101.7,1223.3,1109.3,1222.4z"/>
		
			<linearGradient id="Vector-16_1_" gradientUnits="userSpaceOnUse" x1="259.3276" y1="628.3306" x2="332.6878" y2="628.6985" gradientTransform="matrix(1.2176 0 0 -0.4641 793.16 1550.6282)">
			<stop  offset="0" style="stop-color:#666666"/>
			<stop  offset="0.47" style="stop-color:#F2F2F2"/>
			<stop  offset="1" style="stop-color:#808080"/>
		</linearGradient>
		<path id="Vector-16" class="st8" d="M1124.6,1275.7l61.5-6.1c7.5-0.7,13-7.4,12.3-14.9c0-0.1,0-0.2,0-0.3
			c-0.7-7.6-7.4-13.2-14.9-12.5c-0.2,0-0.3,0-0.5,0l-61.5,6.3c-7.5,0.6-13.2,7.2-12.6,14.7c0,0.2,0,0.3,0,0.5
			c0.3,7.1,6.3,12.7,13.4,12.5C1123.2,1275.9,1123.9,1275.9,1124.6,1275.7z"/>
	</g>
	<g id="Group-3">
		<path id="Vector-17" class="st1" d="M277.9,864.2h-4.6l1.5,4.6L277.9,864.2z"/>
		<path id="Vector-18" class="st1" d="M165.7,1764.9h5.8l-5.8-16.8l-1.5,4.6L165.7,1764.9z"/>
		<path id="Vector-19" class="st1" d="M165.7,1764.8c0,0-24.6-449.5,155.2-614.1l18.5,1.5l18.5-172.2l-84.5-114.3
			C273.2,864.2-75.7,1150.7,165.7,1764.8z M224,1037.9c-0.1-15.3,12.2-27.8,27.4-27.9c15.3-0.1,27.8,12.2,27.9,27.4
			c0.1,15.3-12.2,27.8-27.4,27.9c-0.1,0-0.1,0-0.2,0c-15.2,0.1-27.5-12.1-27.7-27.2C224,1038,224,1038,224,1037.9z"/>
		
			<linearGradient id="Vector-20_1_" gradientUnits="userSpaceOnUse" x1="-377.8073" y1="1943.8312" x2="-446.3847" y2="1943.8312" gradientTransform="matrix(3.7701 0 0 -12.2191 1769.3969 25067.0898)">
			<stop  offset="6.000000e-03" style="stop-color:#B5332A"/>
			<stop  offset="0.211" style="stop-color:#D86E68"/>
			<stop  offset="0.816" style="stop-color:#A22F27"/>
			<stop  offset="0.983" style="stop-color:#78221C"/>
		</linearGradient>
		<path id="Vector-20" class="st9" d="M171.8,1764.8c0,0-24.6-449.5,155.2-614.1l18.5,1.5l18.5-172.2l-84.5-114.3
			C277.8,864.2-69.6,1150.7,171.8,1764.8z M228.6,1037.9c-0.1-15.3,12.2-27.8,27.4-27.9c15.3-0.1,27.8,12.2,27.9,27.4
			c0.1,15.3-12.2,27.8-27.4,27.9c-0.1,0-0.1,0-0.2,0c-15.2,0.1-27.5-12.1-27.7-27.2C228.6,1038,228.6,1038,228.6,1037.9z"/>
		<path id="Vector-21" class="st2" d="M127.3,1167.5l-61.5-6.1c-7.5-0.6-13.2-7.2-12.6-14.7c0-0.2,0-0.3,0-0.5
			c0.7-7.6,7.3-13.2,14.9-12.5c0.2,0,0.5,0,0.7,0.1l61.5,6.1c7.5,0.7,13,7.4,12.3,14.9c0,0.1,0,0.2,0,0.3
			c-0.8,7.6-7.6,13.2-15.2,12.5C127.4,1167.5,127.3,1167.5,127.3,1167.5z"/>
		<path id="Vector-22" class="st2" d="M111.9,1222.4l-61.5-6.1c-7.5-0.6-13.2-7.2-12.6-14.7c0-0.2,0-0.3,0-0.5
			c0.7-7.6,7.3-13.2,14.9-12.5c0.2,0,0.5,0,0.7,0.1l61.5,6.1c7.5,0.7,13,7.4,12.3,14.9c0,0.1,0,0.2,0,0.3
			C127.3,1216.3,119.5,1222.4,111.9,1222.4z"/>
		<path id="Vector-23" class="st2" d="M96.5,1275.7l-61.5-6.1c-7.5-0.6-13.2-7.2-12.6-14.7c0-0.2,0-0.3,0-0.5
			c0.7-7.6,7.3-13.2,14.9-12.5c0.2,0,0.5,0,0.7,0.1l61.5,6.1c7.5,0.7,13,7.4,12.3,14.9c0,0.1,0,0.2,0,0.3
			c-0.2,7.2-6.1,12.8-13.2,12.7C97.9,1275.9,97.2,1275.8,96.5,1275.7z"/>
		
			<linearGradient id="Vector-24_1_" gradientUnits="userSpaceOnUse" x1="-520.787" y1="854.9911" x2="-594.7358" y2="854.5496" gradientTransform="matrix(1.2176 0 0 -0.4639 778.831 1548.7192)">
			<stop  offset="0" style="stop-color:#666666"/>
			<stop  offset="0.47" style="stop-color:#F2F2F2"/>
			<stop  offset="1" style="stop-color:#808080"/>
		</linearGradient>
		<path id="Vector-24" class="st10" d="M128.7,1169l-61.5-6.1c-7.5-0.6-13.2-7.2-12.6-14.7c0-0.2,0-0.3,0-0.5
			c0.7-7.6,7.3-13.2,14.9-12.5c0.2,0,0.5,0,0.7,0.1l61.5,6.1c7.5,0.7,13,7.4,12.3,14.9c0,0.1,0,0.2,0,0.3
			c-0.2,7.2-6.1,12.8-13.2,12.7C130.1,1169.2,129.4,1169.1,128.7,1169z"/>
		
			<linearGradient id="Vector-25_1_" gradientUnits="userSpaceOnUse" x1="-533.1818" y1="733.0971" x2="-607.1306" y2="732.6556" gradientTransform="matrix(1.2176 0 0 -0.462 778.623 1545.5582)">
			<stop  offset="0" style="stop-color:#666666"/>
			<stop  offset="0.47" style="stop-color:#F2F2F2"/>
			<stop  offset="1" style="stop-color:#808080"/>
		</linearGradient>
		<path id="Vector-25" class="st11" d="M113.4,1223.9l-61.5-6.1c-7.5-0.6-13.2-7.2-12.6-14.7c0-0.2,0-0.3,0-0.5
			c0.7-7.6,7.3-13.2,14.9-12.5c0.2,0,0.5,0,0.7,0.1l61.5,6.1c7.5,0.7,13,7.4,12.3,14.9c0,0.1,0,0.2,0,0.3
			c-0.8,7.6-7.6,13.2-15.2,12.5C113.5,1223.9,113.5,1223.9,113.4,1223.9z"/>
		
			<linearGradient id="Vector-26_1_" gradientUnits="userSpaceOnUse" x1="-545.637" y1="612.5669" x2="-619.5858" y2="612.199" gradientTransform="matrix(1.2176 0 0 -0.4608 778.414 1543.9464)">
			<stop  offset="0" style="stop-color:#666666"/>
			<stop  offset="0.47" style="stop-color:#F2F2F2"/>
			<stop  offset="1" style="stop-color:#808080"/>
		</linearGradient>
		<path id="Vector-26" class="st12" d="M98,1278.7l-61.5-6.1c-7.5-0.6-13.2-7.2-12.6-14.7c0-0.2,0-0.3,0-0.5
			c0.7-7.6,7.3-13.2,14.9-12.5c0.2,0,0.5,0,0.7,0.1l61.5,6.1c7.5,0.7,13,7.4,12.3,14.9c0,0.1,0,0.2,0,0.3
			C113.4,1272.6,105.7,1278.7,98,1278.7z"/>
	</g>
	<path id="Vector-27" class="st2" d="M769.6,350.6H456.1c-164.2,310.9-112.2,800-112.2,800h541
		C886.5,1150.7,935.6,659.7,769.6,350.6z"/>
	<path id="Vector-28" class="st2" d="M612.9,169.3c-60.9,42.1-110.9,97.9-146,163.1h293.6C724.3,267.5,673.9,211.8,612.9,169.3z"/>
	<path id="Vector-29" class="st2" d="M463.8,355.3H762c7.6,0,13.7-6.1,13.7-13.7s-6.1-13.7-13.7-13.7H463.8
		c-7.6,0-13.7,6.1-13.7,13.7S456.2,355.3,463.8,355.3z"/>
	<path id="Vector-30" class="st2" d="M697.4,1560.6H533c-37.6,0.5-68.5-29.5-69.2-67c-0.2-37.6,30.1-68.2,67.6-68.6h164.5
		c37.6-0.5,68.5,29.5,69.2,67c1.3,36.6-27.3,67.2-63.8,68.6C700,1560.6,698.7,1560.6,697.4,1560.6z"/>
	
		<linearGradient id="Vector-31_1_" gradientUnits="userSpaceOnUse" x1="-351.8874" y1="1529.6411" x2="-278.3044" y2="1530.009" gradientTransform="matrix(4.094 0 0 -1.8432 1900.1073 4312.5225)">
		<stop  offset="0" style="stop-color:#5F5F5F"/>
		<stop  offset="0.53" style="stop-color:#D1D1D1"/>
		<stop  offset="1" style="stop-color:#454545"/>
	</linearGradient>
	<path id="Vector-31" class="st13" d="M692.8,1560.6H528.3c-37.6,0.5-68.5-29.5-69.2-67c-0.2-37.6,30.1-68.2,67.6-68.6h164.5
		c37.6-0.5,68.5,29.5,69.2,67C760.6,1529.6,730.4,1560.2,692.8,1560.6z"/>
	
		<linearGradient id="Vector-32_1_" gradientUnits="userSpaceOnUse" x1="-385.1334" y1="1987.9573" x2="-302.0605" y2="1988.1044" gradientTransform="matrix(7.5584 0 0 -10.873 3242.2126 22366.582)">
		<stop  offset="0" style="stop-color:#646464"/>
		<stop  offset="0.482" style="stop-color:#EEEEEE"/>
		<stop  offset="1" style="stop-color:#EEEEEE"/>
	</linearGradient>
	<path id="Vector-32" class="st14" d="M765.1,350.6H451.5c-164.2,310.9-112.2,800-112.2,800h541C880.4,1150.7,931,659.7,765.1,350.6
		z"/>
	<path id="Vector-33" class="st2" d="M614.4,1179.7H348.5l95.7,332.2h342.4l93.7-333.8L614.4,1179.7z"/>
	
		<linearGradient id="Vector-34_1_" gradientUnits="userSpaceOnUse" x1="-383.2686" y1="1841.1793" x2="-309.6873" y2="1841.4" gradientTransform="matrix(7.227 0 0 -4.536 3113.8284 9697.5215)">
		<stop  offset="0" style="stop-color:#646464"/>
		<stop  offset="0.482" style="stop-color:#EEEEEE"/>
		<stop  offset="1" style="stop-color:#EEEEEE"/>
	</linearGradient>
	<path id="Vector-34" class="st15" d="M609.9,1179.7H343.9l95.7,332.2H782l93.7-333.8L609.9,1179.7z"/>
	<g id="Group-4">
		<path id="Vector-35" class="st2" d="M725.2,532c46.9,60,36.2,146.7-23.9,193.5c-0.4,0.3-0.9,0.7-1.3,1
			c-61.2,46.8-148.7,35.6-196.2-25c-46.9-60-36.2-146.7,23.9-193.5c0.4-0.3,0.9-0.7,1.3-1C590.3,460.2,677.7,471.4,725.2,532z"/>
		
			<linearGradient id="Vector-36_1_" gradientUnits="userSpaceOnUse" x1="-346.7911" y1="1999.085" x2="-273.1366" y2="1999.2322" gradientTransform="matrix(3.8 0 0 -3.8 1786.1836 8215.3135)">
			<stop  offset="0" style="stop-color:#F2F2F2"/>
			<stop  offset="1" style="stop-color:#808080"/>
		</linearGradient>
		<path id="Vector-36" class="st16" d="M748,617.4c0.6,77.2-61.5,140.3-138.7,140.9S469,696.8,468.4,619.6s61.5-140.3,138.7-140.9
			c0.4,0,0.7,0,1.1,0C685.1,478.4,747.7,540.5,748,617.4z"/>
		<path id="Vector-37" class="st2" d="M725.1,617.4c0,60.6-49.1,109.7-109.7,109.7c-0.4,0-0.8,0-1.3,0
			c-60.6,0-109.7-49.1-109.7-109.7s49.1-109.7,109.7-109.7c60.6-0.7,110.3,47.9,111,108.5C725.1,616.5,725.1,616.9,725.1,617.4z"/>
		
			<linearGradient id="Vector-38_1_" gradientUnits="userSpaceOnUse" x1="-326.0105" y1="1999.0981" x2="-252.2824" y2="1999.2454" gradientTransform="matrix(2.9996 0 0 -2.9834 1476.1002 6581.6826)">
			<stop  offset="0" style="stop-color:#34399E"/>
			<stop  offset="6.600000e-02" style="stop-color:#3D3BA0"/>
			<stop  offset="0.503" style="stop-color:#7744AB"/>
			<stop  offset="0.827" style="stop-color:#9A4AB2"/>
			<stop  offset="1" style="stop-color:#A84CB5"/>
		</linearGradient>
		<path id="Vector-38" class="st17" d="M718.9,617.4c0,60.6-49.1,109.7-109.7,109.7c-0.4,0-0.8,0-1.3,0
			c-60.6,0-109.7-49.1-109.7-109.7S547.3,507.6,608,507.6c60-1.2,109.7,46.5,110.9,106.5C718.9,615.2,718.9,616.3,718.9,617.4z"/>
		<path id="Vector-39" class="st2" d="M679,559.4c-0.2,10.9-9,19.6-19.9,19.8c-10.9-0.1-19.8-8.9-20-19.8c0.2-10.9,9.1-19.7,20-19.8
			C669.9,539.8,678.7,548.5,679,559.4z"/>
	</g>
	<g id="Group-5">
		<path id="Vector-40" class="st2" d="M675.9,852c0,34.8-28.2,63-63,63c-34.8,0-63-28.2-63-63c0.3-34.6,28.4-62.4,63-62.5
			C647,790.6,674.5,817.9,675.9,852z"/>
		
			<linearGradient id="Vector-41_1_" gradientUnits="userSpaceOnUse" x1="-251.0273" y1="1862.2086" x2="-177.9614" y2="1862.3558" gradientTransform="matrix(1.713 0 0 -1.7055 977.6994 4028.425)">
			<stop  offset="0" style="stop-color:#F2F2F2"/>
			<stop  offset="1" style="stop-color:#808080"/>
		</linearGradient>
		<path id="Vector-41" class="st18" d="M672.9,852c0,34.8-28.2,63-63,63s-63-28.2-63-63c0.3-34.6,28.4-62.4,63-62.5
			C644.2,790.1,672,817.6,672.9,852z"/>
		<path id="Vector-42" class="st2" d="M662,853.6c0.2,26.7-21.2,48.5-47.9,48.8c-0.4,0-0.8,0-1.3,0c-26.7,0.5-48.7-20.8-49.2-47.4
			c0-0.4,0-0.9,0-1.3c-0.3-26.7,21.1-48.6,47.8-48.9c0.4,0,0.9,0,1.3,0c26.2-1,48.2,19.4,49.2,45.6
			C662.1,851.4,662.1,852.5,662,853.6z"/>
		
			<linearGradient id="Vector-43_1_" gradientUnits="userSpaceOnUse" x1="-201.8605" y1="1821.8992" x2="-128.7946" y2="1822.0463" gradientTransform="matrix(1.3371 0 0 -1.3272 832.0877 3271.7039)">
			<stop  offset="0" style="stop-color:#34399E"/>
			<stop  offset="6.600000e-02" style="stop-color:#3D3BA0"/>
			<stop  offset="0.503" style="stop-color:#7744AB"/>
			<stop  offset="0.827" style="stop-color:#9A4AB2"/>
			<stop  offset="1" style="stop-color:#A84CB5"/>
		</linearGradient>
		<path id="Vector-43" class="st19" d="M660.6,853.6c0.2,26.7-21.2,48.5-47.9,48.8c-0.4,0-0.8,0-1.3,0
			c-26.7,0.5-48.7-20.8-49.2-47.4c0-0.4,0-0.9,0-1.3c-0.3-26.7,21.1-48.6,47.8-48.9c0.4,0,0.9,0,1.3,0c26.7-0.5,48.7,20.8,49.2,47.4
			C660.6,852.6,660.6,853.1,660.6,853.6z"/>
		<path id="Vector-44" class="st2" d="M640.6,826.1c-0.2,3.3-2.8,5.9-6.1,6.1c-3.3-0.2-6-2.8-6.2-6.1c0.2-3.3,2.9-5.9,6.2-6.1
			C637.7,820.2,640.3,822.8,640.6,826.1z"/>
	</g>
	<g id="Group-6">
		<path id="Vector-45" class="st2" d="M675.9,1019.6c0,34.8-28.2,63-63,63c-34.8,0-63-28.2-63-63c0-34.8,28.2-63,63-63
			C647.7,956.6,675.9,984.8,675.9,1019.6z"/>
		
			<linearGradient id="Vector-46_1_" gradientUnits="userSpaceOnUse" x1="-250.8059" y1="1766.4528" x2="-177.7401" y2="1766.6" gradientTransform="matrix(1.713 0 0 -1.713 977.6994 4045.7031)">
			<stop  offset="0" style="stop-color:#F2F2F2"/>
			<stop  offset="1" style="stop-color:#808080"/>
		</linearGradient>
		<path id="Vector-46" class="st20" d="M672.9,1019.6c0,34.8-28.2,63-63,63s-63-28.2-63-63c0-34.8,28.2-63,63-63
			S672.9,984.8,672.9,1019.6z"/>
		<path id="Vector-47" class="st2" d="M662,1019.6c0.2,26.7-21.2,48.5-47.9,48.8c-0.4,0-0.8,0-1.3,0c-26.7,0.5-48.7-20.8-49.2-47.4
			c0-0.4,0-0.9,0-1.3c-0.2-26.7,21.2-48.5,47.9-48.8c0.4,0,0.8,0,1.3,0c26.7-0.5,48.7,20.8,49.2,47.4
			C662,1018.8,662,1019.2,662,1019.6z"/>
		
			<linearGradient id="Vector-48_1_" gradientUnits="userSpaceOnUse" x1="-201.8579" y1="1698.1761" x2="-128.4977" y2="1698.3969" gradientTransform="matrix(1.3371 0 0 -1.3262 832.08 3271.9214)">
			<stop  offset="0" style="stop-color:#34399E"/>
			<stop  offset="6.600000e-02" style="stop-color:#3D3BA0"/>
			<stop  offset="0.503" style="stop-color:#7744AB"/>
			<stop  offset="0.827" style="stop-color:#9A4AB2"/>
			<stop  offset="1" style="stop-color:#A84CB5"/>
		</linearGradient>
		<path id="Vector-48" class="st21" d="M660.6,1019.6c0.2,26.7-21.2,48.5-47.9,48.8c-0.4,0-0.8,0-1.3,0
			c-26.7,0.5-48.7-20.8-49.2-47.4c0-0.4,0-0.9,0-1.3c-0.2-26.7,21.2-48.5,47.9-48.8c0.4,0,0.8,0,1.3,0
			C638.3,970.9,660.3,992.6,660.6,1019.6z"/>
		<path id="Vector-49" class="st2" d="M642.1,998.3c-0.2,3.3-2.8,5.9-6.1,6.1c-3.3-0.2-6-2.8-6.2-6.1c0.2-3.3,2.9-5.9,6.2-6.1
			C639,990.7,642.1,993.7,642.1,998.3z"/>
	</g>
	
		<linearGradient id="Vector-50_1_" gradientUnits="userSpaceOnUse" x1="-350.6423" y1="2161.6726" x2="-276.9878" y2="2161.8936" gradientTransform="matrix(3.99 0 0 -2.216 1859.7799 5041.5039)">
		<stop  offset="1.700000e-02" style="stop-color:#78221C"/>
		<stop  offset="0.184" style="stop-color:#A22F27"/>
		<stop  offset="0.538" style="stop-color:#D86E68"/>
		<stop  offset="1" style="stop-color:#B5332A"/>
	</linearGradient>
	<path id="Vector-50" class="st22" d="M606.7,169.3c-60.9,42.1-110.9,97.9-146,163.1h293.6C718.6,267.2,668,211.3,606.7,169.3z"/>
	<g id="Group-7">
		<path id="Vector-51" class="st23" d="M594.5,173.9L605.2,3.3c0-1.7,1.4-3.1,3.1-3.1s3.1,1.4,3.1,3.1L622.2,174
			c2.5,0,4.6,2,4.6,4.6c0,2.5-2,4.6-4.6,4.6l0,0h-27.7c-2.5-0.1-4.5-2.1-4.6-4.6c-0.3-2.2,1.2-4.3,3.4-4.6
			C593.7,173.8,594.1,173.8,594.5,173.9z"/>
		
			<linearGradient id="Vector-52_1_" gradientUnits="userSpaceOnUse" x1="427.6068" y1="2213.4375" x2="354.173" y2="2213.4375" gradientTransform="matrix(0.376 0 0 -2.4283 459.7018 5463.9111)">
			<stop  offset="0" style="stop-color:#FFFFFF"/>
			<stop  offset="1" style="stop-color:#000000"/>
		</linearGradient>
		<path id="Vector-52" class="st24" d="M609.8,3.3l10.7,175.2h-27.7L603.6,3.3C602.1-1.4,608.2-1.4,609.8,3.3z"/>
		
			<linearGradient id="Vector-53_1_" gradientUnits="userSpaceOnUse" x1="233.1918" y1="5460.0986" x2="161.156" y2="5459.5103" gradientTransform="matrix(0.5 0 0 -0.124 507.7395 855.4844)">
			<stop  offset="0" style="stop-color:#FFFFFF"/>
			<stop  offset="1" style="stop-color:#000000"/>
		</linearGradient>
		<path id="Vector-53" class="st25" d="M592.9,183h27.7c2.4-0.2,4.3-2.1,4.5-4.6c-0.1-2.4-2.1-4.4-4.5-4.6h-27.7
			c-2.5,0.1-4.5,2.1-4.6,4.6C588.5,181,590.5,182.9,592.9,183z"/>
	</g>
	<path id="Vector-54" class="st2" d="M459.2,353.7h298.1c7.6,0,13.7-6.1,13.7-13.7s-6.1-13.7-13.7-13.7H459.2
		c-7.6,0-13.7,6.1-13.7,13.7S451.6,353.7,459.2,353.7z"/>
	
		<linearGradient id="Vector-55_1_" gradientUnits="userSpaceOnUse" x1="-284.2733" y1="2720.125" x2="-357.707" y2="2718.2856" gradientTransform="matrix(4.425 0 0 -0.373 2028.3092 1355.8241)">
		<stop  offset="0" style="stop-color:#666666"/>
		<stop  offset="0.47" style="stop-color:#F2F2F2"/>
		<stop  offset="1" style="stop-color:#808080"/>
	</linearGradient>
	<path id="Vector-55" class="st26" d="M459.2,355.3h298.1c7.6,0,13.7-6.1,13.7-13.7s-6.1-13.7-13.7-13.7H459.2
		c-7.6,0-13.7,6.1-13.7,13.7S451.6,355.3,459.2,355.3z"/>
	<path id="Vector-56" class="st2" d="M330.1,1182.7l557.9-1.5c7.6,0.1,13.8-6,13.8-13.5c0,0,0-0.1,0-0.1v-16.8
		c0-7.6-6.1-13.7-13.7-13.7c0,0-0.1,0-0.1,0l-557.9,1.5c-7.6-0.1-13.8,6-13.8,13.5c0,0,0,0.1,0,0.1v16.8c0,7.6,6.1,13.7,13.7,13.7
		C330,1182.7,330.1,1182.7,330.1,1182.7z"/>
	
		<linearGradient id="Vector-57_1_" gradientUnits="userSpaceOnUse" x1="-313.4659" y1="1126.1697" x2="-387.0468" y2="1124.1831" gradientTransform="matrix(7.958 0 0 -0.621 3397.0078 1863.173)">
		<stop  offset="0" style="stop-color:#666666"/>
		<stop  offset="0.47" style="stop-color:#F2F2F2"/>
		<stop  offset="1" style="stop-color:#808080"/>
	</linearGradient>
	<path id="Vector-57" class="st27" d="M330.1,1187.3l557.9-1.5c7.6,0.1,13.8-6,13.8-13.5c0,0,0-0.1,0-0.1v-16.8
		c0-7.6-6.1-13.7-13.7-13.7c0,0-0.1,0-0.1,0l-557.9,1.5c-7.6-0.1-13.8,6-13.8,13.5c0,0,0,0.1,0,0.1v16.8c0,7.6,6.1,13.7,13.7,13.7
		C330,1187.3,330.1,1187.3,330.1,1187.3z"/>
</g>
</svg>
