<?xml version="1.0" encoding="utf-8"?>
<!-- Generator: Adobe Illustrator 25.0.0, SVG Export Plug-In . SVG Version: 6.00 Build 0)  -->
<svg version="1.1" id="Layer_1" xmlns="http://www.w3.org/2000/svg" xmlns:xlink="http://www.w3.org/1999/xlink" x="0px" y="0px"
	 viewBox="0 0 675.7 633.7" style="enable-background:new 0 0 675.7 633.7;" xml:space="preserve">
<style type="text/css">
	.st0{fill:#A6DAE8;}
	.st1{fill:#FDC00F;}
	.st2{fill:#F29A00;}
	.st3{fill:#0F303F;}
	.st4{fill:#95C2D8;}
	.st5{fill:#FC611F;}
	.st6{fill:#E64500;}
	.st7{fill:#14B0BF;}
	.st8{fill:#3387B5;}
</style>
<g id="Group" transform="translate(0 0.011)">
	<g id="Group-2">
		<path id="Vector" class="st0" d="M160,0.5C71.6,0.5,0,72.1,0,160.5s71.6,160,160,160s160-71.6,160-160S248.3,0.5,160,0.5z
			 M242,59.1l-39.3,38.5c-8.6-5.4-18.1-9.2-28.1-11.3V29.8C199.3,33.1,222.7,43.3,242,59.1z M146.5,30.9v56.3
			c-9.6,2.1-18.7,5.9-27,11.3L79.1,58C98.4,42.4,121.8,32.9,146.5,30.9z M57.9,78.2l40.4,40.5c-5.3,8.3-9.2,17.4-11.2,27H30.8
			c2.5-24.6,11.9-48,27-67.6H57.9z M31,175.3h56c2.1,10,5.9,19.5,11.2,28.2l-39.3,39.5c-16.2-19.1-26-42.8-28.1-67.8L31,175.3z
			 M78,263l38.2-38.3c8.3,6.2,17.9,10.4,28.1,12.4v54.1C120,288,97.1,278.3,78,263z M174.6,291.2v-54.1c10.3-2.1,20.2-5.9,29.2-11.3
			l38.2,38.3C222.4,279.1,199.1,288.5,174.6,291.2L174.6,291.2z M262.1,242.7l-38-38.3c5.7-9,9.9-18.9,12.4-29.3h53.8
			C287.4,199.9,277.6,223.3,262.1,242.7z M290.2,147h-53.8c-1.7-10.3-5.9-20-12.3-28.3l38-39.3c15.5,19.5,25.3,42.9,28.2,67.6
			L290.2,147z"/>
		<path id="Vector-2" class="st1" d="M210.7,162.7c0,28-22.7,50.6-50.6,50.6s-50.6-22.7-50.6-50.6s22.7-50.6,50.6-50.6
			S210.7,134.7,210.7,162.7z"/>
		<path id="Vector-3" class="st2" d="M160,112v101.3c28,0,50.6-22.7,50.6-50.6l0,0C210.6,134.7,187.9,112,160,112
			C160,112,160,112,160,112z"/>
		<path id="Vector-4" class="st3" d="M184.7,161.6c0,13-10.6,23.5-23.7,23.5c-13,0-23.5-10.6-23.5-23.7c0-13,10.6-23.5,23.6-23.5
			C174.2,138,184.7,148.6,184.7,161.6C184.7,161.6,184.7,161.6,184.7,161.6z"/>
	</g>
	<g id="Group-3">
		<path id="Vector-5" class="st0" d="M530.7,1.6C443.1-11,361.8,49.9,349.2,137.5s48.2,168.9,135.9,181.5S654,270.8,666.6,183.2
			c0,0,0-0.1,0-0.1C679.4,95.7,618.9,14.5,531.5,1.8C531.3,1.7,531,1.7,530.7,1.6z M603.7,71.5l-43.8,33.8
			c-7.7-6.4-16.5-11.3-26-14.6l8-56.3C565.9,39.9,587.5,52.9,603.7,71.5z M512.8,29.8l-7.9,56.3c-9.8,0.9-19.3,3.6-28.1,7.9
			L443,48.9C463.7,35.4,488.1,28.7,512.8,29.8z M419.6,64.7l33.8,45.1c-6.7,7.3-12,15.7-15.7,24.8l-56.3-7.9
			C388.5,103.1,401.7,81.7,419.6,64.7L419.6,64.7z M377.8,157.1l54.9,7.9c0,10.2,2.3,20.2,6.8,29.3l-43.8,33.8
			C383.7,206.3,377.6,181.9,377.8,157.1z M413.7,250.6l43.8-32.7c7.6,7,16.3,12.7,25.8,16.9l-7.7,54.1
			c-23.5-7.4-44.7-20.5-61.8-38.3H413.7z M504.9,291.2l7.9-53c10.6,0.2,21.1-2.5,30.3-7.9l32.6,42.8
			C554.5,286.3,529.8,292.6,504.9,291.2z M598.1,256.2l-32.6-42.8c7.3-7.6,12.7-16.9,15.7-27l52.8,7.7
			C628.9,218.1,616.3,239.8,598.1,256.2L598.1,256.2z M639.7,165l-53.9-7.8c-1-10.5-3.7-20.8-7.9-30.5L621.7,94
			C634.3,115.5,640.5,140.1,639.7,165L639.7,165z"/>
		<path id="Vector-6" class="st1" d="M558.8,169.5c-3.2,27-27.7,46.4-54.7,43.2c-0.9-0.1-1.7-0.2-2.6-0.4
			c-27.3-3.7-46.5-28.8-42.9-56.2c0.1-0.4,0.1-0.9,0.2-1.3c3.6-27.3,28.6-46.6,55.9-43c0.4,0.1,0.9,0.1,1.3,0.2
			C543.4,116.6,562.3,142,558.8,169.5z"/>
		<path id="Vector-7" class="st2" d="M516.1,112l-13.5,100.3c27.5,3.5,52.8-15.4,57.3-42.8C562.5,141.9,543.4,116.9,516.1,112z"/>
		<path id="Vector-8" class="st3" d="M528.4,148.1c7.7,10.7,5.7,25.5-4.5,33.8c-10.6,7.8-25.5,5.8-33.8-4.5
			c-7.7-10.7-5.7-25.5,4.5-33.8c9.4-8.2,23.7-7.3,31.9,2.1C527.3,146.5,527.9,147.3,528.4,148.1z"/>
	</g>
	<g id="Group-4">
		<path id="Vector-9" class="st0" d="M563.3,424.1h44.9V512h-44.9V424.1z"/>
		<path id="Vector-10" class="st4" d="M563.3,468.1h44.9V512h-44.9V468.1z"/>
		<path id="Vector-11" class="st5" d="M675.7,553.7l-67.5-40.5v-89l67.5-40.5V553.7z"/>
		<path id="Vector-12" class="st6" d="M608.2,468.1v45.1l67.5,40.5v-85.6H608.2z"/>
	</g>
	<path id="Vector-13" class="st7" d="M485.8,368.9c-19.1-2-33.6-18-33.8-37.2v-92.4c0.2-21-16.7-38.1-37.6-38.3c-0.2,0-0.3,0-0.5,0
		H255.5c-21-0.1-38.1,16.8-38.2,37.8c0,0.2,0,0.4,0,0.6v92.5c0.2,21-16.7,38.1-37.6,38.3c-0.2,0-0.4,0-0.6,0h-36
		c-21-0.1-38.1,16.8-38.2,37.8c0,0.1,0,0.3,0,0.4v187c-0.2,21,16.7,38.1,37.6,38.3c0.2,0,0.4,0,0.6,0h420.1V368.9H485.8z"/>
	<path id="Vector-14" class="st8" d="M485.8,368.9c-18.9-2.1-33.3-18-33.5-37v-92.5c0.2-21-16.7-38.1-37.6-38.3c-0.3,0-0.5,0-0.8,0
		h-79.7v431.5h229.2V368.9H485.8z"/>
	<path id="Vector-15" class="st1" d="M148.8,416.2h376.3v178H148.8V416.2z"/>
	<path id="Vector-16" class="st2" d="M334.1,416.2H524v178H334.1V416.2z"/>
	<path id="Vector-17" class="st0" d="M84.7,428.6H105v56.3H84.7V428.6z"/>
	<path id="Vector-18" class="st4" d="M84.7,456.8H105V485H84.7V456.8z"/>
	<path id="Vector-19" class="st5" d="M64.5,412.8h20.2v87.9H64.5V412.8z"/>
	<path id="Vector-20" class="st6" d="M64.5,457.9h20.2v42.8H64.5V457.9z"/>
</g>
</svg>
