<?xml version="1.0" encoding="utf-8"?>
<!-- Generator: Adobe Illustrator 25.0.0, SVG Export Plug-In . SVG Version: 6.00 Build 0)  -->
<svg version="1.1" id="Layer_1" xmlns="http://www.w3.org/2000/svg" xmlns:xlink="http://www.w3.org/1999/xlink" x="0px" y="0px"
	 viewBox="0 0 805 523" style="enable-background:new 0 0 805 523;" xml:space="preserve">
<style type="text/css">
	.st0{fill:#C10601;}
	.st1{fill:#A50000;}
	.st2{fill:#E4403F;}
	.st3{fill:#FF9292;}
</style>
<g id="Frame" transform="translate(0.004 0.002)">
	<g id="Group">
		<g id="Group-2">
			<path id="Vector" class="st0" d="M515,177.7c54,136.4-152.1,262.8-149.2,345.3C318.9,463.5,73.1,510.2,19,373.8
				s68.4-237.3,217.6-173.4C294.7,66.8,459.5,41.3,515,177.7z"/>
		</g>
		<g id="Group-3">
			<path id="Vector-2" class="st1" d="M514.9,177.7c-9.5-24.8-25.2-46.8-45.5-63.9c-6.4,5.3-12.5,11-18.2,17
				c-16.7-16.3-34.8-31.1-54.2-44.2c-71.8,1.4-135.5,46.6-160.5,114c-36.4-16.6-76.7-23-116.5-18.6c-3.4,16.3-5.4,32.9-5.7,49.5
				c0,132.3,156.3,199.1,255.7,260.2C408.4,410.6,561.8,298.4,514.9,177.7z"/>
		</g>
		<g id="Group-4">
			<path id="Vector-3" class="st2" d="M799.1,182c0,184.7-299.8,238.7-335.3,335.3C438.2,424.9,128.5,366.6,128.5,182
				s189-247.2,335.3-100.9C594.5-49.6,799.1-2.7,799.1,182z"/>
		</g>
		<g id="Group-5">
			<path id="Vector-4" class="st3" d="M168.3,207.5c17-102.3,116.5-156.3,248.6-135.2c10.6,1.7,21,4.1,31.3,7.1
				c-41.4-40-95.9-63.6-153.4-66.5c-88.3,0-147.7,68.2-147.7,169c0.3,31.8,10.7,62.6,29.7,88.1C168.3,250.3,165.4,228.7,168.3,207.5
				z"/>
		</g>
		<g id="Group-6">
			<g id="Group-7">
				<path id="Vector-5" class="st0" d="M684,25.7c27.5,40.5,41,88.9,38.3,137.8c0,184.7-268.5,142-262.6,321.1l4.3,8.5
					c33.9-90.8,319.4-140.6,319.4-313.8C789.4,111.3,748.4,48,684,25.7z"/>
			</g>
		</g>
		<g id="Group-8">
			<path id="Vector-6" class="st3" d="M661.3,18.6c-95.2-11.3-196.1,61.1-196.1,90.9v139.2C475.1,122.3,541.9,34.2,661.3,18.6z"/>
		</g>
	</g>
</g>
</svg>
