<?xml version="1.0" encoding="utf-8"?>
<!-- Generator: Adobe Illustrator 25.0.0, SVG Export Plug-In . SVG Version: 6.00 Build 0)  -->
<svg version="1.1" id="Layer_1" xmlns="http://www.w3.org/2000/svg" xmlns:xlink="http://www.w3.org/1999/xlink" x="0px" y="0px"
	 viewBox="0 0 670.4 658.3" style="enable-background:new 0 0 670.4 658.3;" xml:space="preserve">
<style type="text/css">
	.st0{fill:#155468;}
	.st1{fill:#3B758D;}
	.st2{fill:#02393F;}
	.st3{fill:#FFBA39;}
</style>
<g id="Frame" transform="translate(0 0)">
	<g id="Group">
		<g id="Group-2">
			<path id="Vector" class="st0" d="M660.2,550.6c0,60.1-145.8,107.7-325.7,107.7c-178.5,0-324.4-49.1-324.4-107.7
				s181.3-143.1,325.7-143.1C479,407.5,660.2,490.6,660.2,550.6z"/>
		</g>
		<g id="Group-3">
			<path id="Vector-2" class="st1" d="M660.2,538.3c0,60.1-145.8,107.7-325.7,107.7C156,646,10.1,596.9,10.1,538.3
				s181.3-143.1,325.7-143.1C479,395.2,660.2,478.4,660.2,538.3z"/>
		</g>
		<g id="Group-4">
			<path id="Vector-3" class="st0" d="M528,447c0-209.9-136.3-214-95.4-404.8c38.2-175.8-278,244-278,404.8
				C154.6,539.7,528,549.2,528,447z"/>
		</g>
		<g id="Group-5">
			<path id="Vector-4" class="st1" d="M408.1,109c1.4-12.2,2.7-24.4,5.4-39.5C446.3-80.2,175.1,278,175.1,415.7
				c0,2.7,1.4,6.8,1.4,9.5C232.9,306.1,311.5,198.8,408.1,109z"/>
		</g>
		<g id="Group-6">
			<path id="Vector-5" class="st2" d="M515.7,346.2C476.7,420.6,402,469.6,318.2,475.7c-54.8,4.9-110-1.6-162.2-19.1
				c23.2,84.6,372.1,91.3,372.1-9.5C528.8,413,524.7,379,515.7,346.2z"/>
		</g>
		<g id="Group-7">
			<path id="Vector-6" class="st3" d="M406.7,130.9l-23.2-8.1L370,143.1v-24.4l-23.2-6.9l23.2-6.9V80.4l13.7,20.3l23.2-8.1l-15,19.1
				L406.7,130.9z"/>
		</g>
		<g id="Group-8">
			<path id="Vector-7" class="st3" d="M274.5,298.5l-12.2-21.8l-23.2,5.4l16.3-17.9l-12.2-21.6l21.8,10.9l16.4-17.7l-2.7,23.2
				l21.8,10.9l-24.4,4.1L274.5,298.5z"/>
		</g>
		<g id="Group-9">
			<path id="Vector-8" class="st3" d="M459.9,289l-20.3-13.6l-17.7,16.3l5.3-23.1l-21.8-12.3l24.4-1.5l5.6-24.4l8.1,23.2l24.4-4.1
				l-17.7,16.3L459.9,289z"/>
		</g>
		<g id="Group-10">
			<path id="Vector-9" class="st3" d="M380.8,443l-23.2-6.8L344,456.5v-24.4l-24.5-5.5l23.2-8.3l-1.3-24.4l15,19.1l21.8-9.5
				l-13.6,20.3L380.8,443z"/>
		</g>
		<g id="Group-11">
			<path id="Vector-10" class="st3" d="M171,399.4l17.6,17.7l-4.1-24.5l21.9-10.9l-24.5-2.9l-5.6-24.4l-5.4,12.2
				c-4.1,13.6-8.1,25.9-10.9,38.2L171,399.4z"/>
		</g>
		<g id="Group-12">
			<path id="Vector-11" class="st3" d="M526.7,412.8h-4.1l-5.5-24.4l-8.3,23.2l-24.4-2.8l19.1,15.1l-9.5,23.2l20.3-13.6l13.6,12.2
				v-13.6l-1.2-6.8l1.3-1.4C528.2,420.2,527.7,416.4,526.7,412.8z"/>
		</g>
		<g id="Group-13">
			<path id="Vector-12" class="st3" d="M383.6,601.1l-49-27.3L282.7,597l32.7-32.8l-23.2-10.8l32.7,1.3l9.5-10.9l9.5,10.9l32.7,1.3
				l-23.2,9.5L383.6,601.1z"/>
		</g>
		<g id="Group-14">
			<path id="Vector-13" class="st3" d="M526.7,537l61.3-17.8l23.2,17.7l-6.8-20.3l15-4.1l-17.7-4.1l-2.7-8.1l-10.9,5.4l-31.3-6.8
				L577,511L526.7,537z"/>
		</g>
		<g id="Group-15">
			<path id="Vector-14" class="st3" d="M153.2,537l-62.7-17.8L67.3,537l8.1-20.3l-16.3-4.2l17.7-4.1l2.6-8.2l11,5.4l31.4-6.8
				L102.8,511L153.2,537z"/>
		</g>
	</g>
</g>
</svg>
