<?xml version="1.0" encoding="utf-8"?>
<!-- Generator: Adobe Illustrator 25.0.0, SVG Export Plug-In . SVG Version: 6.00 Build 0)  -->
<svg version="1.1" id="Layer_1" xmlns="http://www.w3.org/2000/svg" xmlns:xlink="http://www.w3.org/1999/xlink" x="0px" y="0px"
	 viewBox="0 0 792 481.2" style="enable-background:new 0 0 792 481.2;" xml:space="preserve">
<style type="text/css">
	.st0{fill:#E44536;}
	.st1{fill:#FFBB33;}
	.st2{fill:#5CB9CC;}
	.st3{fill:#5B5E65;}
	.st4{fill:#FFFFFF;}
</style>
<g id="Frame" transform="translate(-0.031)">
	<g id="Group">
		<path id="Vector" class="st0" d="M393,0C239.5,0,110.6,147.3,84.9,342.5H199c24.6-111.7,101.9-195.2,194-195.2
			s170.6,82.2,194,195.2h114.2C675.3,147.3,547.7,0,393,0z"/>
		<path id="Vector-2" class="st0" d="M400.3,29.5c-138.7,0-254.1,136.3-273.7,313h71.2c24.6-111.7,101.9-195.2,194-195.2
			s170.6,82.3,194,195.2h85.9C654.4,165.7,539,29.5,400.3,29.5z"/>
		<path id="Vector-3" class="st1" d="M393,49.1c-133.8,0-245.5,126.4-271.3,293.4h76.1c24.6-111.7,101.9-195.2,194-195.2
			s170.6,82.2,193.9,195.2h76.1C638.5,175.6,526.8,49.1,393,49.1z"/>
		<path id="Vector-4" class="st1" d="M400.3,78.5c-117.8,0-216.1,114.2-235.7,263.9H199c24.6-111.7,101.9-195.2,194-195.2
			s170.6,82.2,194,195.2H636C617.6,192.7,519.4,78.5,400.3,78.5z"/>
		<path id="Vector-5" class="st2" d="M393,98.2c-112.9,0-207.5,104.4-233.2,244.3h38c24.8-111.7,102.1-195.2,194-195.2
			s170.6,82.2,194,195.2h38C601.7,202.6,505.9,98.2,393,98.2z"/>
		<path id="Vector-6" class="st2" d="M400.3,127.7c-82.3,0-152.3,65.1-184.2,158.3c25.5-77.7,95.2-132.4,176.8-138.7
			c91.8,0,170.6,82.2,194,195.2H598C579.5,219.5,498.5,127.7,400.3,127.7z"/>
		<g id="Group-2">
			<path id="Vector-7" class="st3" d="M210.1,481.2c-12.9-2.9-24.8-9.3-34.4-18.4c-9.1-8.3-20-14.2-31.9-17.2
				c-13,0.4-25.7,4.2-36.8,11.1c-12.9,6.9-27.1,11.1-41.7,12.3c-6.5,0-12.7-2.7-17.2-7.3c-16-14.5-7.3-35.6,1.2-52.8
				c7-11,10.4-23.8,9.7-36.8c-5.6-12.1-13.5-22.9-23.3-31.9c-14.5-14.5-33.2-33.2-24.6-52.8s31.9-18.4,52.8-17.2
				c13.2,2.7,26.9,1.4,39.3-3.7c9.8-7.7,17.4-17.9,22.1-29.5c8.6-17.2,19.6-36.8,40.5-35.6c22.1,2.5,28.2,23.3,34.4,41.7
				c2.8,12.1,8.2,23.4,16,33.2c11.5,6.8,24.7,10.1,38,9.7c20.9,2.5,44.2,4.8,49.1,25.8c4.9,20.9-14.5,35.6-33.2,47.9
				c-11.6,6.4-21.4,15.7-28.2,27c-3.1,12.1-3.1,24.7,0,36.8c2.5,19.6,6.1,41.7-12.3,52.8C223.5,479.2,216.9,481,210.1,481.2z"/>
			<path id="Vector-8" class="st1" d="M162.2,222.1c27,2.5,22.1,49.1,41.7,66.3c19.6,17.2,71.2,2.5,77.3,29.5
				c6.1,25.9-45.4,39.6-55.1,63.8c-11.1,24.6,13.5,63.8-8.6,78.5c-23.3,13.5-45.4-27-72.5-29.5c-27-3.7-63.8,31.9-83.5,14.5
				s17.2-51.1,11-78.1c-5.9-25.9-54-47.9-43-72.5s57.7-1.2,81-14.5C132.7,266.4,136.4,219.7,162.2,222.1z"/>
			<path id="Vector-9" class="st4" d="M206.4,454.2c-9-2.8-17.3-7.3-24.6-13.3c-9.9-9.5-22.3-16-35.8-18.6
				c-14.2,0.2-28.2,4-40.5,11.1c-9.6,4.9-20,8.2-30.7,9.7c-2.8-0.2-5.4-1.5-7.2-3.6c-7.3-6.1-3.7-14.5,4.8-33.2
				c7.2-12.7,10.6-27.2,9.7-41.7c-4.6-13.6-13.1-25.5-24.3-34.4c-17.2-13.5-25.8-23.3-22.1-33.2c3.7-8.6,16-8.6,35.6-7.3
				c14.5,2.8,29.5,1.1,43-4.8c10.8-8.4,19.2-19.4,24.5-32c8.6-16,13.5-25.8,24.6-24.7c9.7,1.2,13.5,11.1,19.6,28.2
				c2.6,13.4,9,25.8,18.4,35.6c12.4,8.1,26.9,12.3,41.7,12.3c19.6,2.5,30.7,3.7,33.2,13.5c2.5,9.8-8.6,18.4-24.6,29.5
				c-13.1,6.9-23.8,17.6-30.7,30.7c-4.1,13.1-4.5,27.1-1.2,40.5c2.5,18.4,3.7,29.5-4.8,34.4C211.3,454.2,208.9,455.4,206.4,454.2z"
				/>
			<path id="Vector-10" class="st1" d="M204,457.9c-9-2.8-17.4-7.4-24.6-13.5c-9.9-9.4-22.2-15.8-35.6-18.4
				c-14.2,0.2-28.2,4-40.5,11.1c-9.6,4.9-20,8.2-30.7,9.7c-2.8-0.2-5.5-1.5-7.3-3.7c-7.3-6.1-3.7-14.5,3.7-31.9
				c7.2-12.2,10.6-26.3,9.7-40.5c-5.3-13.2-13.7-25-24.6-34.4c-13.3-13.4-23.2-23.2-19.5-31.8s16-8.6,34.4-7.3
				c14.5,2.8,29.5,1.1,43-4.8c10.8-7.9,19.2-18.6,24.6-30.8c8.5-16,13.3-25.8,24.6-24.7c9.7,1.2,13.5,11.1,19.6,28.2
				c2.6,13.4,9,25.8,18.4,35.6c12.3,8.2,26.9,12.5,41.7,12.3c19.6,2.5,30.7,3.7,33.2,12.3c2.5,9.7-8.6,17.2-24.6,28.2
				c-12.7,6.8-23.4,17-30.7,29.5c-3.5,12.8-3.9,26.3-1.2,39.3c2.5,17.2,3.7,28.2-4.8,34.4C209.8,457.5,206.9,458,204,457.9z"/>
			<g id="Group-3">
				<path id="Vector-11" class="st1" d="M224.8,445.6c-23.3,13.5-45.4-27-72.5-29.5s-62.5,33.2-83.4,16.1
					c-19.6-17.4,18.4-51.7,12.3-77.3c-6.1-24.7-47.9-44.3-45.4-67.7c-2.9,1.5-5.1,4.2-6.1,7.3c-11.1,24.6,38,45.4,44.2,72.5
					c6.2,25.7-31.9,60.3-11,78.5c18.4,17.2,55.2-18.4,82.2-16s49.1,43,72.5,29.5c5-2.9,8.5-7.8,9.7-13.5L224.8,445.6z"/>
				<path id="Vector-12" class="st1" d="M129,256.6c5.2-7.8,9.7-16,13.5-24.6C137.3,239.8,132.8,248,129,256.6z"/>
				<path id="Vector-13" class="st1" d="M233.4,368.3c0,1.2,0,1.2-1.2,2.5c14.5-16,44.2-28.2,49.1-45.4
					C267.8,338.8,240.8,351.1,233.4,368.3z"/>
			</g>
		</g>
		<g id="Group-4">
			<path id="Vector-14" class="st3" d="M718.2,468.9c-13.3-0.1-26.2-4.4-36.9-12.3c-10.3-6.6-22.1-10.5-34.4-11.1
				c-12.6,3.2-24.3,9.1-34.4,17.2c-11.4,9.3-24.9,15.6-39.3,18.4c-5.9,0.1-11.8-1.2-17.2-3.7c-18.4-11.1-13.5-33.2-8.6-52.8
				c5-12.1,5.9-25.4,2.5-38c-3.5-9.9-17.1-18.5-28.1-27.1c-17.2-12.3-38-25.8-33.2-47.9c4.8-20.9,28.2-23.3,49.1-25.8
				c13.3,0.5,26.5-2.9,38-9.7c8.4-9.3,14-20.8,16-33.2c6.2-18.6,12.2-40.7,34.5-42.1c22.1-2.5,31.9,18.4,40.5,35.6
				c4.2,11.8,11.9,22.1,22.1,29.5c12.6,4.6,26.1,5.8,39.3,3.7c20.9-1.2,44.2-3.7,52.8,17.2c8.6,19.6-8.6,36.8-24.6,52.8
				c-10.4,8.5-18.4,19.5-23.3,31.9c-0.8,12.2,1.3,24.4,6.1,35.6c6.1,18.4,13.5,40.5-3.7,54C730.5,465.4,724.6,468,718.2,468.9z"/>
			<path id="Vector-15" class="st1" d="M626.2,222.1c27-2.5,29.5,44.2,52.8,57.7c23.3,13.5,70-9.7,81,14.5
				c11,24.2-38,46.9-44.3,72.8c-6.3,25.9,24.6,61.4,4.8,78.5s-50.3-18.4-76.1-16c-27,2.5-56.5,44.2-78.5,29.5
				c-23.3-13.5,8.6-54-2.5-78.5c-9.6-24.7-61.2-36.9-55.1-63.9c6.1-25.8,56.5-11.1,77.3-29.5C604.1,270,599.2,224.7,626.2,222.1z"/>
			<path id="Vector-16" class="st4" d="M709.7,443.1c-9.8-0.2-19.3-3.6-27-9.7c-11.7-7.6-25.3-11.9-39.2-12.4
				c-14,2.8-27.1,9.1-38,18.4c-8.6,7-18.7,12-29.5,14.5c-2.9,0.2-5.9-0.2-8.6-1.2c-7.4-4.7-6-13.1-1.2-33c5-13.8,5.9-28.7,2.4-43
				c-4.8-12.3-18.4-20.9-30.7-30.7c-16-11.1-27-19.6-24.6-29.5c2.5-9.9,13.5-11.1,33.2-13.5c14.8-0.1,29.2-4.4,41.7-12.3
				c9.4-9.8,15.8-22.2,18.4-35.6c4.8-17.2,9.7-28.2,19.6-28.2c9.7-1.2,16,8.6,24.6,24.6c5,12.7,13.5,23.8,24.6,31.9
				c13.5,5.9,28.5,7.6,43,4.8c19.6-1.2,30.7-1.2,35.6,7.3c3.7,8.6-4.8,18.4-19.6,33.2c-11.2,9-19.7,20.9-24.6,34.4
				c-1.6,13.8,0.5,27.8,6.1,40.5c6.1,17.2,8.6,28.2,1.2,35.6C715.2,441.6,712.5,442.9,709.7,443.1z"/>
			<path id="Vector-17" class="st1" d="M707.2,446.9c-9.6-0.3-19-3.3-27-8.6c-11.4-7-24.6-10.8-38-11.1c-13.8,2.9-26.8,8.8-38,17.2
				c-8.6,7-18.7,12-29.5,14.5c-2.9,0.2-5.9-0.2-8.6-1.2c-7.3-4.8-6.1-13.5-1.2-31.9c5-13.3,5.9-27.9,2.5-41.7
				c-7.3-12.4-18-22.6-30.7-29.5c-16-11.1-27-18.4-24.6-28.2c2.5-8.6,13.5-11.1,33.2-12.3c14.8-0.1,29.2-4.4,41.7-12.3
				c9.4-9.8,15.8-22.1,18.4-35.4c4.8-17.2,9.7-27,19.6-28.2s16,8.6,24.6,24.6c5,12.4,13.5,23.1,24.6,30.7c13.5,6,28.5,7.7,43,4.8
				c19.6-1.2,30.7-1.2,34.4,7.3c3.7,8.6-4.8,18.4-19.6,31.9c-11.4,8.7-20,20.7-24.6,34.4c-1.5,13.4,0.6,27,6.1,39.3
				c6.1,17.2,8.6,28.2,1.2,34.4C712.2,445.6,710.9,446.9,707.2,446.9z"/>
			<g id="Group-5">
				<path id="Vector-18" class="st1" d="M725.6,432.1c-19.6,17.2-50.3-18.4-76.1-16c-27,2.5-56.5,44.2-78.5,29.5
					c-23.3-13.5,8.6-54.1-2.5-78.6c-9.8-23.3-55.2-35.6-56.5-57.7c-2.3,2.4-4,5.4-4.8,8.6c-6.1,25.8,45.4,38,56.5,62.8
					c11,24.8-20.9,64.8,2.4,78.4s52.8-28.2,78.5-29.5c27-2.5,56.5,34.4,76.1,16c4.4-4.2,7-9.9,7.3-16L725.6,432.1z"/>
				<path id="Vector-19" class="st1" d="M599.2,262.7c3.7-8.6,6.1-17.4,9.7-27C604.2,244.1,600.9,253.2,599.2,262.7z"/>
				<path id="Vector-20" class="st1" d="M722,353.5v2.5c12.3-18.4,39.3-34.4,40.5-52.8C750.2,319.2,725.6,335.1,722,353.5z"/>
			</g>
		</g>
	</g>
</g>
</svg>
