<?xml version="1.0" encoding="utf-8"?>
<!-- Generator: Adobe Illustrator 25.0.0, SVG Export Plug-In . SVG Version: 6.00 Build 0)  -->
<svg version="1.1" id="Layer_1" xmlns="http://www.w3.org/2000/svg" xmlns:xlink="http://www.w3.org/1999/xlink" x="0px" y="0px"
	 viewBox="0 0 974.4 523" style="enable-background:new 0 0 974.4 523;" xml:space="preserve">
<style type="text/css">
	.st0{fill:#EA3531;}
	.st1{fill:#D62121;}
	.st2{fill:#FFFFFF;}
	.st3{fill:#EA4B48;}
	.st4{fill:#F46060;}
</style>
<g id="Group-2">
	<g id="Group-3">
		<g id="Group-4">
			<path id="Vector" class="st0" d="M266.2,510.6c-90.6,21.7-182-32.8-206-122.8L0,145.7l336-81.9l57.8,243.6
				C413.3,398.5,356.7,488.6,266.2,510.6z"/>
		</g>
		<g id="Group-5">
			<path id="Vector-2" class="st1" d="M336,63.8l-83.1,20.5l1.2,225.3c1,64.5,31.6,124.9,83.1,163.8c47.2-41.2,68.4-104.7,55.4-166
				L336,63.8z"/>
		</g>
		<g id="Group-6">
			<path id="Vector-3" d="M165,240.9c2.4,3.6,0,8.4-4.8,10.8L104.8,277c-3.7,2.4-8.5,0-10.8-4.8c-2.4-3.7,0-8.5,4.8-11l56.6-25.3
				C159.4,235.1,163.4,237.1,165,240.9z"/>
		</g>
		<g id="Group-7">
			<g id="Group-8">
				<path id="Vector-4" d="M84.3,212h-4.8c-4.8-1.2-6.1-6.1-4.8-10.8c12.2-31.8,43.1-52.5,77.1-51.8c4.5-0.1,8.3,3.5,8.4,8
					c0,0.1,0,0.2,0,0.4c0.1,4.5-3.5,8.3-8,8.4c-0.1,0-0.2,0-0.4,0c-27-0.3-51.4,16-61.4,41C88.9,209.4,86.8,211.1,84.3,212z"/>
			</g>
		</g>
		<g id="Group-9">
			<path id="Vector-5" class="st2" d="M316.8,361.3c-27.1-16.3-59.5-21.4-90.4-14.4c-31,7-57.6,26.7-73.4,54.2
				c-26.5,42.1,6.1,67.5,35,47c16.7-13.5,35.4-24.5,55.4-32.5c21.3-2.2,42.9-0.9,63.8,3.6C342.1,425.1,360.2,387.8,316.8,361.3z"/>
		</g>
		<g id="Group-10">
			<path id="Vector-6" d="M233.7,225.1c-0.4,3.7,2.2,7.1,6,7.5c0.8,0.1,1.7,0,2.4-0.2l62.7-3.6c3.7,0.4,7-2.3,7.4-6
				c0.1-0.8,0-1.7-0.2-2.5c0.5-3.7-2.1-7.1-5.8-7.6c-0.9-0.1-1.8-0.1-2.7,0.2l-62.6,2.6C236.5,216.5,233.4,220.6,233.7,225.1z"/>
		</g>
		<g id="Group-11">
			<g id="Group-12">
				<path id="Vector-7" d="M291.5,161.4c-2.8,1.1-5.9,0.1-7.5-2.4c-20.1-18-49.4-21.4-73.1-8.4c-3.2,2.3-7.6,1.6-9.9-1.6
					c-0.4-0.6-0.8-1.3-1-2c-2.3-3.2-1.5-7.7,1.8-9.9c0.6-0.4,1.2-0.7,1.8-0.9c30.1-16,67-11.7,92.6,10.8c3.4,3.2,3.9,8.4,1.2,12.2
					C293.8,160.2,292.7,161.4,291.5,161.4z"/>
			</g>
		</g>
	</g>
	<g id="Group-13">
		<g id="Group-14">
			<path id="Vector-8" class="st0" d="M708.2,510.6c90.4,22.5,182.1-31.8,206-121.8l60.2-243.6l-336-81.4l-57.8,243.6
				C561.6,398.4,618,488.2,708.2,510.6z"/>
		</g>
		<g id="Group-15">
			<path id="Vector-9" class="st1" d="M638.3,63.8l83.1,20.5l-1.2,225.3c-1,64.4-31.6,124.8-83.1,163.7
				c-47.2-41.2-68.4-104.6-55.4-165.9L638.3,63.8z"/>
		</g>
		<g id="Group-16">
			<path id="Vector-10" d="M809.4,240.9c-2.4,3.6,0,8.4,4.8,10.8l56.6,25.3c3.6,2.4,8.4,0,10.8-4.8c2.4-3.6-0.2-8.4-4.9-10.8
				L820.2,236C815.9,234.7,811.3,236.8,809.4,240.9z"/>
		</g>
		<g id="Group-17">
			<g id="Group-18">
				<path id="Vector-11" d="M890.1,212h4.8c4.8-1.2,6.1-6.1,4.8-10.8c-12.2-31.8-43.1-52.5-77.1-51.8c-4.5-0.1-8.3,3.5-8.4,8
					c0,0.1,0,0.3,0,0.4c-0.1,4.5,3.4,8.3,8,8.5c0.1,0,0.3,0,0.4,0c27-0.3,51.3,15.9,61.4,40.9C885.5,209.4,887.6,211.1,890.1,212z"
					/>
			</g>
		</g>
		<g id="Group-19">
			<path id="Vector-12" class="st2" d="M657.6,361.3c27.1-16.3,59.5-21.4,90.3-14.4c31,7,57.7,26.6,73.6,54.2
				c26.5,42.1-6.1,67.5-35,47c-16.7-13.5-35.4-24.5-55.4-32.5c-21.3-2.2-42.9-0.9-63.8,3.6C632.3,425.1,615.4,387.8,657.6,361.3z"/>
		</g>
		<g id="Group-20">
			<path id="Vector-13" d="M741.9,225.1c0.4,3.7-2.2,7.1-6,7.5c-0.8,0.1-1.7,0-2.4-0.2l-62.7-3.6c-3.7,0.5-7.1-2.1-7.6-5.8
				c-0.1-0.9-0.1-1.8,0.2-2.7c-0.5-3.7,2-7.1,5.7-7.7c1-0.1,2-0.1,2.9,0.2l62.7,3.8C739,217.2,742.1,220.9,741.9,225.1z"/>
		</g>
		<g id="Group-21">
			<g id="Group-22">
				<path id="Vector-14" d="M682.9,161.4c2.7,1,5.7,0,7.2-2.4c20.2-18.2,49.7-21.6,73.5-8.4c3.2,2.3,7.7,1.5,9.9-1.8
					c0.4-0.6,0.7-1.2,0.9-1.8c2.2-3.2,1.4-7.7-1.8-9.9c-0.6-0.4-1.2-0.7-1.9-0.9c-30.2-16-67.1-11.7-92.7,10.8
					c-3.4,3.2-3.9,8.4-1.2,12.2C680.5,160.2,681.7,161.4,682.9,161.4z"/>
			</g>
		</g>
	</g>
	<g id="Group-23">
		<g id="Group-24">
			<path id="Vector-15" class="st3" d="M486.6,516.7c-115.5,0.8-210.1-91.7-211.9-207.2L272.2,0h427.6l-1.3,309.5
				C696.2,424.9,601.9,517.1,486.6,516.7z"/>
		</g>
		<g id="Group-25">
			<path id="Vector-16" class="st4" d="M485.4,0H272.2l2.4,309.5c2.1,114.9,95.8,207,210.7,207.2V0z"/>
		</g>
		<g id="Group-26">
			<path id="Vector-17" d="M444.4,163.8c1.3,5.3-2,10.7-7.3,12c-0.4,0.1-0.7,0.2-1.1,0.2l-76,13.2c-5.3,1.3-10.7-2-12-7.3
				c-0.1-0.4-0.2-0.8-0.2-1.1c-1.3-5.3,2-10.7,7.3-12c0.4-0.1,0.7-0.2,1.1-0.2l76.1-13.3C438.1,154.2,443.5,158.1,444.4,163.8
				C444.4,163.8,444.4,163.8,444.4,163.8z"/>
		</g>
		<g id="Group-27">
			<path id="Vector-18" d="M529.7,163.8c-1.3,5.3,2,10.7,7.3,12c0.4,0.1,0.7,0.2,1.1,0.2l76.1,13.2c5.3,1.3,10.7-2,12-7.3
				c0.1-0.4,0.2-0.7,0.2-1.1c1.3-5.3-2-10.7-7.3-12c-0.4-0.1-0.7-0.2-1.1-0.2l-76.1-13.4c-5.3-1.3-10.7,2-12,7.4
				C529.8,162.9,529.7,163.4,529.7,163.8z"/>
		</g>
		<g id="Group-28">
			<path id="Vector-19" class="st2" d="M591.4,352.9c-27.8-27.8-65.5-43.4-104.8-43.4c-39.2,0.3-76.8,15.8-104.7,43.4
				c-43.4,43.4-12.1,83.1,27.8,66.3c23.9-11.7,49.5-19.4,75.9-22.9c26.3,3.7,51.9,11.4,75.8,22.9C602.2,436,634.9,396.3,591.4,352.9
				z"/>
		</g>
		<g id="Group-29">
			<g id="Group-30">
				<path id="Vector-20" d="M355.3,104.7c-2.3,0.3-4.6-0.6-6.1-2.4c-4.6-3.1-5.8-9.2-2.8-13.8c0.1-0.2,0.3-0.4,0.4-0.6
					c24.1-34.8,67.5-50.7,108.4-39.7c5.6,1.5,8.9,7.2,7.4,12.7c0,0.2-0.1,0.4-0.2,0.5c-1.5,5.6-7.2,8.9-12.7,7.4
					c-0.2,0-0.4-0.1-0.5-0.2c-32.2-8.5-66.2,4-85.3,31.3C362.2,103.1,358.9,105,355.3,104.7z"/>
			</g>
		</g>
		<g id="Group-31">
			<g id="Group-32">
				<path id="Vector-21" d="M617.9,104.7c-3.5,0.1-6.8-1.9-8.4-5.1c-19-27.6-53.3-40-85.6-31.1c-5.6,1.1-11.2-2-13.5-7.2
					c-0.9-5.6,2.2-11.1,7.4-13.2c40.8-10.3,83.8,5.4,108.3,39.7c3.4,4.4,2.5,10.6-1.8,14c-0.2,0.2-0.4,0.3-0.6,0.4
					C622.1,103.8,620.1,104.7,617.9,104.7z"/>
			</g>
		</g>
	</g>
</g>
<g id="Group-33">
	<path id="Vector-22" class="st2" d="M113.2,319.2c0.3,7.7-5.7,14.2-13.4,14.5c-0.4,0-0.7,0-1.1,0c-7.7,0.3-14.2-5.7-14.4-13.4
		c0-0.4,0-0.7,0-1.1c1.9-9.8,7-18.7,14.4-25.3C105.8,300.8,110.8,309.6,113.2,319.2z"/>
</g>
<g id="Group-34">
	<path id="Vector-23" class="st2" d="M887.7,319.2c0.3,7.7-5.7,14.2-13.4,14.5c-0.4,0-0.7,0-1.1,0c-7.7,0.3-14.2-5.7-14.4-13.4
		c0-0.4,0-0.7,0-1.1c1.9-9.8,7-18.7,14.4-25.3C880.2,300.8,885.3,309.6,887.7,319.2z"/>
</g>
</svg>
