<?xml version="1.0" encoding="utf-8"?>
<!-- Generator: Adobe Illustrator 25.0.0, SVG Export Plug-In . SVG Version: 6.00 Build 0)  -->
<svg version="1.1" id="Layer_1" xmlns="http://www.w3.org/2000/svg" xmlns:xlink="http://www.w3.org/1999/xlink" x="0px" y="0px"
	 viewBox="0 0 537 523" style="enable-background:new 0 0 537 523;" xml:space="preserve">
<style type="text/css">
	.st0{fill:#E4403F;}
	.st1{fill:#C10601;}
	.st2{fill:#FF9292;}
</style>
<g id="Frame" transform="translate(15.987) rotate(180)">
	<g id="Group">
		<g id="Group-2">
			<g id="Group-3">
				<path id="Vector" class="st0" d="M-14.8-475.9C-221.3-322.9-160.3-93-252.8-21c-16,12.7-35.5,20.1-55.9,21
					c-80.4,0-177-119-145.4-256.9c2-7,3-14,5.1-21l-39.7-4c-13.8,0.3-25.2-10.7-25.4-24.5c0-0.2,0-0.3,0-0.5
					c0-14,26.4-19.9,40.7-19.9l42.7-3.3c11-25,24.7-48.8,40.7-70.8c22.2-27,46.4-52.4,72.2-76c18.3-19,43.8-46,73.2-45
					c4.4,0.2,8.8,0.9,13.1,2c8.6,2.9,17.4,5,26.4,6c14.9-0.7,29.6-3.4,43.8-8c30.5-6,52.9,14,82.4,10c20.4-3,78.4-26.1,87.5,8
					C12.7-489.8-4.5-482.8-14.8-475.9z M-314.9-136c0,0-5.1-99-62.1-49C-353.6-172.4-332.6-155.8-314.9-136z M-414.6-185
					c-30.5-45-32.7,44-32.7,44C-440.2-158.1-429-173.3-414.6-185z M-418.6-268c0,1-1,1-1,2c-7.1,28,5.1,50,26.4,50
					c26-3.9,46.5-24.1,50.8-50v-2H-418.6z"/>
			</g>
		</g>
		<g id="Group-4">
			<path id="Vector-2" class="st1" d="M-226.4-312.9c0,0-96.6-15-97.6-16l89.5,3c10.8,0,20.1,7.5,22.4,18
				C-216.3-310.9-221.3-312.7-226.4-312.9z"/>
		</g>
		<g id="Group-5">
			<path id="Vector-3" class="st2" d="M-350.5-311.9c1.8,11.7,11.6,20.4,23.4,21l97.6,13.1c-2,0-4.1,1-6.1,1l-101.7-4.1
				c-13.2-0.2-23.7-11.1-23.5-24.3c0-0.2,0-0.5,0-0.7c0.6-13.2,11.7-23.5,25-22.9c0.2,0,0.3,0,0.5,0
				C-335.3-327.9-350.5-323.9-350.5-311.9z"/>
		</g>
		<g id="Group-6">
			<g id="Group-7">
				<path id="Vector-4" class="st1" d="M-62.6-496.9c-30.5,4-53.9-17-85.5-11c-14.6,4.3-29.6,6.6-44.8,7c-9.4-1.4-18.6-3.7-27.4-7
					c-4.3-1.1-8.7-1.8-13.1-2c-31.5-2-57,25-76.3,43c-26.8,23.2-51.9,48.2-75.2,75c-16.9,21.8-31,45.7-42,71l-43.8,2
					c-13.2,0-36.6,5-41.7,16v-4c0-14,26.4-20,40.7-20l40.7-3c11-25.1,24.6-48.9,40.7-71c22.2-27,46.4-52.4,72.2-76
					c18.3-18.8,43.8-45.9,73.3-44.9c4.4,0.2,8.8,0.9,13.1,2c8.6,2.9,17.4,5,26.4,6c14.9-0.7,29.7-3.4,43.9-8c30.5-6,52.9,14,82.4,10
					c20.4-3,77.3-26.1,86.5,6C-16.2-506.3-39.8-503.3-62.6-496.9z"/>
			</g>
		</g>
		<g id="Group-8">
			<g id="Group-9">
				<path id="Vector-5" class="st2" d="M-339.3-52c20.5-1.3,40.2-8.2,57-20c95.6-67,17.3-300.9,263.4-408.9c-5.1,4-11.2,8-15.3,11
					C-230.5-319.9-172.5-97-260.1-27c-15,12.3-33.5,19.6-52.8,21c-49.8,0-105.8-48-130.2-119C-424-83.9-384.4-56.1-339.3-52z"/>
			</g>
		</g>
	</g>
</g>
</svg>
