<?xml version="1.0" encoding="utf-8"?>
<!-- Generator: Adobe Illustrator 25.0.0, SVG Export Plug-In . SVG Version: 6.00 Build 0)  -->
<svg version="1.1" id="Layer_1" xmlns="http://www.w3.org/2000/svg" xmlns:xlink="http://www.w3.org/1999/xlink" x="0px" y="0px"
	 viewBox="0 0 819.7 481.2" style="enable-background:new 0 0 819.7 481.2;" xml:space="preserve">
<style type="text/css">
	.st0{fill:#FFBA39;}
	.st1{fill:#E5920E;}
	.st2{fill:#FFFFFF;}
	.st3{fill:#FFC76E;}
</style>
<g id="Group">
	<g id="Group-2">
		<g id="Group-3">
			<path id="Vector" class="st0" d="M254.3,475.6c-82.1,22.6-167.2-24.5-191.8-106L0,150l306.6-82.7l59.1,219.6
				C386,369.6,336.5,453.4,254.3,475.6z"/>
		</g>
		<g id="Group-4">
			<path id="Vector-2" class="st1" d="M306.6,68.4L191.8,99.2l1.1,195.4c1.5,68.5,39.3,131.1,99.2,164.4c59.9-34.2,90-104,73.6-171
				L306.6,68.4z"/>
		</g>
		<g id="Group-5">
			<path id="Vector-3" class="st2" d="M110.4,355.3c17.1,54.6,74,86.1,129.4,71.8c55.4-14.2,88.8-70.5,74.7-125.9L110.4,355.3z"/>
		</g>
		<g id="Group-6">
			<path id="Vector-4" d="M148.3,241.6c1.1,3.6-0.8,7.4-4.4,8.6c-0.4,0.1-0.8,0.2-1.1,0.3l-54.6,14.4c-3.6,1.1-7.5-0.9-8.6-4.5
				c-0.1-0.3-0.2-0.7-0.2-1.1c-1.1-3.6,0.8-7.4,4.4-8.6c0.4-0.1,0.7-0.2,1.1-0.3l54.6-14.4c3.9-1,7.9,1.4,8.9,5.4
				C148.3,241.5,148.3,241.6,148.3,241.6z"/>
		</g>
		<g id="Group-7">
			<g id="Group-8">
				<path id="Vector-5" d="M48,217.4h-4.7c-3.6-0.8-5.9-4.4-5.1-8c0.2-0.7,0.4-1.4,0.8-2c10.7-29.1,38.1-48.8,69.1-49.7
					c4.2-0.1,7.7,3.2,7.8,7.4c0,0.1,0,0.2,0,0.4c0,4.2-3.3,7.6-7.5,7.6c-0.1,0-0.2,0-0.3,0c-24.8,0.4-46.7,16.3-54.6,39.8
					C52.2,215,50.3,216.6,48,217.4z"/>
			</g>
		</g>
		<g id="Group-9">
			<path id="Vector-6" d="M225.3,220.7c0.9,4,4.8,6.4,8.8,5.6c0,0,0.1,0,0.1,0l54.7-14.4c3.9-0.8,6.4-4.6,5.6-8.6
				c0-0.1,0-0.2-0.1-0.3c-0.9-4-4.8-6.5-8.7-5.6c-0.1,0-0.1,0-0.2,0l-54.6,14.4c-3.7,0.5-6.3,4-5.8,7.7
				C225.1,219.9,225.2,220.3,225.3,220.7z"/>
		</g>
		<g id="Group-10">
			<g id="Group-11">
				<path id="Vector-7" d="M300,149.1c-2.3,0.7-4.8,0.3-6.7-1.1c-19.2-15.9-46.1-18.5-68.1-6.7c-2.9,2.2-7.1,1.6-9.3-1.4
					c-0.4-0.6-0.8-1.3-1-2c-2-3-1.2-7,1.8-9c0.6-0.4,1.2-0.7,1.8-0.9c27.1-15.3,60.9-12.2,84.7,7.7c3.1,2.9,3.6,7.6,1.1,11
					C302.2,147.8,301.3,149.1,300,149.1z"/>
			</g>
		</g>
	</g>
	<g id="Group-12">
		<g id="Group-13">
			<path id="Vector-8" class="st0" d="M566.4,475.6c82.1,22.5,167.1-24.5,191.8-105.9l61.6-219.6L514,68.4L454.9,288
				C434.9,370.4,484.4,453.8,566.4,475.6z"/>
		</g>
		<g id="Group-14">
			<path id="Vector-9" class="st1" d="M514,68.4l114.8,30.8l-1.1,195.4c-1.5,68.5-39.3,131.1-99.2,164.4c-59.9-34.2-90-104-73.6-171
				L514,68.4z"/>
		</g>
		<g id="Group-15">
			<path id="Vector-10" class="st2" d="M709.2,355.3c-16.9,54.6-74.2,85.9-129.4,70.6c-55.3-14.2-88.7-70.4-74.7-125.8L709.2,355.3z
				"/>
		</g>
		<g id="Group-16">
			<path id="Vector-11" d="M672.4,241.6c-1.1,3.6,0.8,7.4,4.4,8.6c0.4,0.1,0.7,0.2,1.1,0.3l54.6,14.4c3.6,1.2,7.5-0.8,8.7-4.4
				c0.1-0.4,0.2-0.7,0.3-1.1c1.1-3.6-0.8-7.4-4.4-8.6c-0.4-0.1-0.7-0.2-1.1-0.3l-54.7-14.4c-3.6-1.1-7.5,0.9-8.6,4.5
				C672.5,240.9,672.4,241.3,672.4,241.6z"/>
		</g>
		<g id="Group-17">
			<g id="Group-18">
				<path id="Vector-12" d="M772.7,217.4h4.5c3.6-0.7,6-4.2,5.3-7.8c-0.1-0.8-0.4-1.5-0.8-2.1c-10.7-29.1-38.1-48.8-69.1-49.7
					c-4.2-0.1-7.7,3.2-7.8,7.4c0,0.1,0,0.2,0,0.4c0,4.2,3.3,7.6,7.5,7.6c0.1,0,0.2,0,0.3,0c24.8,0.3,46.6,16.2,54.6,39.7
					C768.4,214.9,770.4,216.5,772.7,217.4z"/>
			</g>
		</g>
		<g id="Group-19">
			<path id="Vector-13" d="M594.3,220.7c-0.9,4-4.8,6.5-8.7,5.6c-0.1,0-0.1,0-0.2,0l-54.6-14.4c-3.9-0.8-6.4-4.6-5.6-8.6
				c0-0.1,0-0.2,0.1-0.3c0.9-4,4.8-6.4,8.8-5.6c0,0,0.1,0,0.1,0l54.6,14.4c3.7,0.5,6.4,3.9,5.8,7.7
				C594.5,219.9,594.4,220.3,594.3,220.7z"/>
		</g>
		<g id="Group-20">
			<g id="Group-21">
				<path id="Vector-14" d="M520.7,149.1c2.3,0.7,4.8,0.2,6.7-1.2c19.2-15.8,46.1-18.4,68-6.6c2.9,2.2,7.1,1.6,9.3-1.4
					c0.4-0.6,0.8-1.3,1-2c2-3,1.2-7-1.8-9c-0.6-0.4-1.3-0.7-2-0.9c-27-15.2-60.7-12.2-84.5,7.7c-3.1,2.9-3.6,7.6-1.1,11
					C517.3,148.2,519,149,520.7,149.1z"/>
			</g>
		</g>
	</g>
	<g id="Group-22">
		<g id="Group-23">
			<path id="Vector-15" class="st0" d="M410.3,475.6C303.3,477,215.2,391.7,213,284.7L210.8,0h398.1l-2.3,285.8
				C604.7,392.4,516.9,477.3,410.3,475.6z"/>
		</g>
		<g id="Group-24">
			<path id="Vector-16" class="st3" d="M408.1,0H210.8l2.2,285.8c2.5,105.8,89.1,190.1,194.9,189.8L408.1,0z"/>
		</g>
		<g id="Group-25">
			<path id="Vector-17" class="st2" d="M277.6,283.6c1.9,71.8,60.9,128.8,132.7,128.2c71.8,0.6,130.8-56.5,132.7-128.2H277.6z"/>
		</g>
		<g id="Group-26">
			<path id="Vector-18" d="M360.2,158.9c0,4.8-3.9,8.8-8.7,8.8c-0.1,0-0.1,0-0.2,0h-72.5c-4.8,0.1-8.8-3.8-8.9-8.6
				c0-0.1,0-0.1,0-0.2c-0.1-4.8,3.7-8.9,8.6-9c0.1,0,0.2,0,0.4,0h71.3c4.6-0.9,9.1,2.2,9.9,6.8C360.2,157.4,360.2,158.1,360.2,158.9
				z"/>
		</g>
		<g id="Group-27">
			<g id="Group-28">
				<path id="Vector-19" d="M246.4,96c-2.1,0.3-4.2-0.5-5.6-2.2c-4.2-2.7-5.4-8.3-2.7-12.6c0.2-0.2,0.3-0.5,0.5-0.7
					c22.3-32.2,62.3-47.2,100.3-37.5c5.1,1.3,8.1,6.5,6.8,11.5c-0.1,0.2-0.1,0.4-0.2,0.6c-1.4,5.1-6.7,8.2-11.9,6.7
					c-0.1,0-0.3-0.1-0.4-0.1c-30.3-7.6-62.1,4.1-80.2,29.5C253.1,94.9,249.7,96,246.4,96z"/>
			</g>
		</g>
		<g id="Group-29">
			<path id="Vector-20" d="M460.5,158.9c-0.1,4.8,3.8,8.8,8.7,8.9c0.1,0,0.2,0,0.3,0h71.3c4.8,0.1,8.8-3.8,8.9-8.6
				c0-0.1,0-0.2,0-0.3c0.1-4.8-3.7-8.9-8.6-9c-0.1,0-0.2,0-0.4,0h-71.3C465,149,460.5,153.4,460.5,158.9z"/>
		</g>
		<g id="Group-30">
			<g id="Group-31">
				<path id="Vector-21" d="M574.3,96c-3.3,0.1-6.3-1.7-7.8-4.7c-18.1-25.5-50-37.2-80.3-29.5c-5.2,1-10.4-1.8-12.5-6.6
					c-0.9-5.2,2-10.3,6.9-12.2c38-9.7,78,5.3,100.3,37.5c3.1,3.9,2.4,9.6-1.5,12.7c-0.2,0.2-0.4,0.3-0.7,0.5
					C577.6,96,576.3,96,574.3,96z"/>
			</g>
		</g>
	</g>
</g>
</svg>
