<?xml version="1.0" encoding="utf-8"?>
<!-- Generator: Adobe Illustrator 25.0.0, SVG Export Plug-In . SVG Version: 6.00 Build 0)  -->
<svg version="1.1" id="Layer_1" xmlns="http://www.w3.org/2000/svg" xmlns:xlink="http://www.w3.org/1999/xlink" x="0px" y="0px"
	 viewBox="0 0 438 489.4" style="enable-background:new 0 0 438 489.4;" xml:space="preserve">
<style type="text/css">
	.st0{fill:#0F303F;}
	.st1{fill:#2C5871;}
	.st2{fill:#FDC00F;}
	.st3{fill:#F29A00;}
</style>
<g id="Group">
	<path id="Vector" class="st0" d="M368.6,198c0,73-59.2,132.3-132.3,132.3S104,271.1,104,198S163.3,65.8,236.3,65.8c0,0,0.1,0,0.1,0
		C309.4,65.8,368.6,125,368.6,198z"/>
	<g id="Group-2">
		<path id="Vector-2" class="st0" d="M330.3,291.9L144,478.2c-15.5,14.9-40.1,14.9-55.6,0l-3.1-3c-14.5-16.3-23.1-37-24.3-58.8v-3.2
			c-1.3-17.6-8.2-34.3-19.6-47.8L4.7,328.7l11-11l36,36c14.7,16.2,23.3,36.9,24.3,58.8v3.1c1.3,17.6,8.2,34.3,19.6,47.7l3.1,3.1
			c8.6,9.1,23,9.4,32.1,0.8c0.3-0.3,0.5-0.5,0.8-0.8l186.3-186.3L330.3,291.9z"/>
	</g>
	<path id="Vector-3" class="st1" d="M234.8,0C126.3,0,38.4,87.9,38.4,196.4s87.9,196.4,196.4,196.4s196.4-87.9,196.4-196.4
		C431.2,88,343.3,0.1,234.8,0z M335.8,71.2L288.1,119c-10.3-7-22.1-11.6-34.4-13.4V36.8C283.7,40.3,312.2,52.2,335.8,71.2
		L335.8,71.2z M217.6,36.8v69.7c-12,2.5-23.4,7.3-33.7,14.1l-48.5-50.1C159,51.5,187.6,39.8,217.6,36.8z M109.6,95.5l49.3,49.2
		c-6.9,9.9-11.7,21.1-14.1,32.9H75.2C79.1,147.7,91,119.3,109.6,95.5L109.6,95.5z M75.2,214.4H144c2.2,12.2,6.8,23.9,13.4,34.4
		l-48.6,48.6C90.1,273.4,78.5,244.7,75.2,214.4z M134.5,322.4l47.8-47.8c10.4,7.3,22.1,12.6,34.4,15.7v66.5
		C186.7,353.2,158.2,341.3,134.5,322.4z M252.7,356.9v-65.8c12.8-2.3,25-7.1,36-14.1l46.3,46.1c-24,18.2-52.3,29.8-82.2,33.7
		L252.7,356.9z M360.7,297.4l-46.1-46.2c7.5-10.8,12.6-23.1,14.8-36h65.8c-3.8,30-15.7,58.4-34.4,82.2L360.7,297.4z M395.2,179.2
		h-66.4c-2.6-12.6-7.7-24.6-14.9-35.2l47.7-47.8c18.9,24,30.5,52.8,33.7,83.1L395.2,179.2z"/>
	<path id="Vector-4" class="st2" d="M245.6,137.3c33.7,5.5,56.6,37.2,51.1,70.9s-37.2,56.6-70.9,51.1s-56.6-37.2-51.1-70.9
		c0,0,0,0,0,0C180.1,154.8,211.9,131.9,245.6,137.3z"/>
	<path id="Vector-5" class="st3" d="M235.6,136.2v124.4c33.9,0.2,61.6-27.1,61.8-61c0-0.3,0-0.5,0-0.8
		C297.4,164.5,269.9,136.6,235.6,136.2z"/>
	<path id="Vector-6" class="st0" d="M265.4,198c0,16-13,29-29,29s-29-13-29-29s13-29,29-29S265.4,182,265.4,198L265.4,198z"/>
</g>
</svg>
