<?xml version="1.0" encoding="utf-8"?>
<!-- Generator: Adobe Illustrator 25.0.0, SVG Export Plug-In . SVG Version: 6.00 Build 0)  -->
<svg version="1.1" id="Layer_1" xmlns="http://www.w3.org/2000/svg" xmlns:xlink="http://www.w3.org/1999/xlink" x="0px" y="0px"
	 viewBox="0 0 818.7 658.3" style="enable-background:new 0 0 818.7 658.3;" xml:space="preserve">
<style type="text/css">
	.st0{fill:#935402;}
	.st1{fill:#C67D26;}
	.st2{fill:#02393F;}
	.st3{fill:#F49B0C;}
	.st4{fill:#FFBA39;}
	.st5{fill:#FFE3B6;}
</style>
<g id="Frame" transform="translate(0 0.005)">
	<g id="Group">
		<g id="Group-2">
			<path id="Vector" class="st0" d="M815.9,281.2c0-235.9-181.6-28-406.6-28c-225,1.7-406.6-206.7-406.6,28
				c0,235.9,181.6,377.1,406.6,377.1S815.9,517,815.9,281.2z"/>
		</g>
		<g id="Group-3">
			<path id="Vector-2" class="st1" d="M815.9,262.6c0-235.9-181.6-28-406.6-28S2.7,26.6,2.7,262.6c0,234.4,181.6,377.1,406.6,377.1
				S815.9,496.9,815.9,262.6z"/>
		</g>
		<g id="Group-4">
			<path id="Vector-3" class="st0" d="M170.3,177.2c-8.2,39.5-19.1,78.4-32.6,116.4c3.2,142.2,121,255,263.3,251.8
				c3.3-0.1,6.6-0.2,9.8-0.4c142.9,8.5,265.6-100.5,274.1-243.4c0.2-2.7,0.3-5.4,0.4-8c-17.4-36.8-30.8-75.2-40.1-114.8
				c-74.6,32.7-154.5,51.6-235.9,55.9C326.8,230.1,245.9,210.6,170.3,177.2z"/>
		</g>
		<g id="Group-5">
			<path id="Vector-4" class="st1" d="M521,9.6L410.9,90.3L300.7,9.6c-90,66.7-83.8,175.3-152.1,291.7
				c0,125.7,116.4,228.2,260.7,228.2S670.1,427,670.1,301.3C592.5,191.2,611.1,74.7,521,9.6z"/>
		</g>
		<g id="Group-6">
			<path id="Vector-5" class="st0" d="M524.2,9.6c-34.2-31-72.9,23.3-113.3,23.3S331.8-21.4,297.6,9.6
				c23.3,63.6,65.2,125.7,113.3,125.7C459,136.8,500.9,73.2,524.2,9.6z"/>
		</g>
		<g id="Group-7">
			<path id="Vector-6" class="st2" d="M410.9,405.3C310,407.6,216.5,353,168.9,264.1c-6.4,12.4-12.6,24.9-20.3,37.3
				c0,125.7,116.4,228.1,260.7,228.1S670.1,427,670.1,301.3c-7.8-10.9-15.6-23.3-21.8-34.2C602.1,354.9,509.9,408.5,410.9,405.3z"/>
		</g>
		<g id="Group-8">
			<g id="Group-9">
				<path id="Vector-7" class="st3" d="M410.9,434.8l-66.7,34.2l12.4-72.9l-52.8-52.8l72.9-10.9l34.2-66.7l32.6,66.7l72.9,10.9
					L463.7,396l12.4,72.9L410.9,434.8z"/>
			</g>
			<g id="Group-10">
				<path id="Vector-8" class="st4" d="M410.9,293.6l24.9,51.2l55.9,7.8l-40.4,40.4l9.3,55.9l-49.7-26.4l-51.2,26.3l9.3-55.9
					l-40.4-40.3l55.9-7.8L410.9,293.6z"/>
			</g>
			<g id="Group-11">
				<path id="Vector-9" class="st5" d="M435.7,344.8l-24.9-51.2l-24.8,51.2l-57.4,7.7l40.4,40.4v3.1c13.2,3.2,26.8,4.7,40.4,4.7
					c14.7,0.3,29.4-1.8,43.5-6.2v-1.6l40.4-40.4L435.7,344.8z"/>
			</g>
		</g>
	</g>
</g>
</svg>
