<?xml version="1.0" encoding="utf-8"?>
<!-- Generator: Adobe Illustrator 25.0.0, SVG Export Plug-In . SVG Version: 6.00 Build 0)  -->
<svg version="1.1" id="Layer_1" xmlns="http://www.w3.org/2000/svg" xmlns:xlink="http://www.w3.org/1999/xlink" x="0px" y="0px"
	 viewBox="0 0 406 481.2" style="enable-background:new 0 0 406 481.2;" xml:space="preserve">
<style type="text/css">
	.st0{fill:#5CB9CC;}
	.st1{fill:#5B5E65;}
	.st2{fill:#FFFFFF;}
</style>
<g id="Group">
	<path id="Vector" class="st0" d="M398,180.2C398,80.9,300.8,0,201.5,0S6,80.9,6,180.2s96.1,298.1,195.5,298.1S398,279.5,398,180.2z
		"/>
	<path id="Vector-2" class="st0" d="M201.5,454.3c-95,0-187.8-183.5-195.5-286.1v12c0,99.4,96.1,298.1,195.5,298.1
		s195.4-198.7,195.4-298.1v-12C390.4,270.8,297.6,454.3,201.5,454.3z"/>
	<path id="Vector-3" class="st0" d="M328.1,273c-39.2,17.5-78.6,15.3-87.3-4.4c-8.7-19.6,16.3-49.1,55.7-66.6
		c25.3-10.3,53.4-11.8,79.7-4.4C376.2,197.6,368.5,255.5,328.1,273z M74.8,273c39.2,17.5,78.6,15.3,87.3-4.4s-16.3-49.1-55.7-66.6
		c-25.3-10.3-53.4-11.8-79.7-4.4C26.7,197.6,35.5,255.5,74.8,273L74.8,273z"/>
	<path id="Vector-4" class="st1" d="M328.1,288.3c-39.2,17.5-78.6,15.3-87.3-4.4c-8.7-19.6,16.3-49.1,55.7-66.6
		c25.3-10.3,53.4-11.8,79.7-4.4C376.2,212.9,368.5,270.8,328.1,288.3z M74.8,288.3c39.2,17.5,78.6,15.3,87.3-4.4
		c8.7-19.6-16.3-49.1-55.7-66.6c-25.3-10.3-53.4-11.8-79.7-4.4C26.7,212.9,35.5,270.8,74.8,288.3L74.8,288.3z"/>
	<g id="Group-2">
		<path id="Vector-5" class="st1" d="M162.1,268.6c-8.7,19.6-48,20.8-87.3,4.4c-22.9-12.6-39.2-34.5-44.8-60.1c-1,0.6-2.1,1-3.3,1.1
			c0,0,8.7,56.8,48,74.2s78.6,15.3,87.3-4.3C164.4,279.1,164.4,273.5,162.1,268.6z"/>
		<path id="Vector-6" class="st1" d="M328.1,273c-39.2,17.5-78.6,15.3-87.3-4.4v-1.1c-2.2,5.2-2.2,11.1,0,16.4
			c8.7,19.6,48,20.8,87.3,4.4s48-74.2,48-74.2c-1.2-0.1-2.3-0.5-3.3-1.1C367.3,238.5,351,260.3,328.1,273z"/>
	</g>
	<path id="Vector-7" class="st2" d="M341.2,216.2c9.8,0,18.6,4.4,18.6,7.6c0,4.4-8.7,7.6-18.6,6.5c-9.8,0-18.6-4.4-18.6-7.6
		C322.7,218.4,331.4,216.2,341.2,216.2z"/>
	<path id="Vector-8" class="st2" d="M111.9,223.9c8.7,4.4,15.3,12,13.1,15.3s-10.9,2.2-19.7-2.2s-15.3-12-13.1-15.2
		C93.4,218.4,103.2,219.5,111.9,223.9z"/>
	<path id="Vector-9" class="st2" d="M335.7,64.4c19.6,18.6,29.4,40.4,21.8,49.1c-7.6,7.6-29.4-1.1-49.1-20.8
		c-19.6-18.6-29.5-40.4-21.9-49.1C294.3,36,316.1,44.8,335.7,64.4z"/>
	<path id="Vector-10" class="st0" d="M255,394.2c-17.5,4.3-35.6,5.8-53.5,4.4c-18,1.4-36-0.1-53.5-4.4c17.5-4.3,35.6-5.8,53.5-4.4
		C219.4,388.4,237.5,389.9,255,394.2z"/>
</g>
</svg>
