<?xml version="1.0" encoding="utf-8"?>
<!-- Generator: Adobe Illustrator 25.0.0, SVG Export Plug-In . SVG Version: 6.00 Build 0)  -->
<svg version="1.1" id="Layer_1" xmlns="http://www.w3.org/2000/svg" xmlns:xlink="http://www.w3.org/1999/xlink" x="0px" y="0px"
	 viewBox="0 0 325.8 481.2" style="enable-background:new 0 0 325.8 481.2;" xml:space="preserve">
<style type="text/css">
	.st0{fill:#E6B185;}
	.st1{fill:#383838;}
	.st2{fill:#FFBA39;}
	.st3{fill:#0D2123;}
</style>
<g id="Frame" transform="translate(0.017 -0.008)">
	<g id="Group">
		<g id="Group-2">
			<path id="Vector" class="st0" d="M268.8,178.2c0,82.2-46.2,148.8-103.2,148.8S62.4,260.4,62.4,178.2S108.6,29.4,165.6,29.4
				S268.8,96,268.8,178.2z"/>
		</g>
		<g id="Group-3">
			<path id="Vector-2" class="st0" d="M104.4,310.9h122.5v161.3H104.4V310.9z"/>
		</g>
		<g id="Group-4">
			<g id="Group-5">
				<path id="Vector-3" class="st1" d="M58.9,161.2c0,0.9,0.8,22.3,0.8,24.9c-0.1,18.4,2.6,36.7,7.9,54.4c3.4,30,16.3,58,36.8,80.2
					c0,0,9.6,8,15.7,12.5c5.7,12.9,18.3,21.2,32.4,21.4h27.1c15.3-0.1,28.8-10.2,33.2-24.9c1.7-0.9,14.9-13.4,14.9-13.4
					c18.2-20.7,30.3-46,35-73.1c6.4-18.6,9.6-38.2,9.6-57.9c0-2.7,2.6-24.9,2.6-24.9C315.2-20.5,108.8-30.4,80.8,42.8
					C44.9,64.1,52.8,130.9,58.9,161.2z M200.6,297.5c-0.9,1.8-2.6,3.6-3.5,5.3c-19.4,8.9-41.8,8.9-61.2,0c-1.7-1.9-3.1-4-4.4-6.2
					v-13.4c0.1-11.6,9.4-21.1,21-21.4h27.2c11.6,0.3,20.9,9.8,21,21.4c-0.5,4.8-0.6,9.6-0.1,14.4L200.6,297.5z M69.4,155.9
					c8-22.5,17.9-44.3,29.7-65.1c40.2,29.4,124.2,11.6,135.6,9.8c7.9-0.9,18.3,18.7,26.2,41c0.9,9.8,1.7,19.6,1.7,30.3v13.4
					c0.1,14.4-1.7,28.8-5.2,42.7c-12.2,25.8-28,44.6-44.6,45.4c-4.1-15.5-18-26.4-34.1-26.6h-27.1c-15.5,0.4-29.1,10.3-34.1,24.9
					v-0.9c-18.3,0-32.4-16-44.6-41c-3.6-14.6-5.3-29.5-5.2-44.6C67.7,184.4,68.5,162.1,69.4,155.9z"/>
			</g>
		</g>
		<g id="Group-6">
			<path id="Vector-4" class="st2" d="M325.7,397.3c-4.4-16.9-30.6-27.6-60.4-27.6h-38.5l-59.5,98.9l-63-98.9H64.2
				c-29.7,0-57.7,8.9-63,25.8c-2.4,9-1.2,18.6,3.5,26.7c44.6,79.3,274.6,77.5,314.8,0C324.1,414.8,326.2,406.1,325.7,397.3z"/>
		</g>
		<g id="Group-7">
			<path id="Vector-5" class="st3" d="M271.4,176.5c1.7-1.6,3.1-3.4,4.3-5.4c1.5-3.8,0.5-8.1-2.6-10.7c0.9,8.9-19.2,15.1-24.4,15.1
				c-1.1-8.2-6.4-15.3-14-18.7c-7.1-2-14.5-2.9-21.9-2.7c-7.4-0.3-14.8,0.6-21.9,2.7c-8.4,3.6-14.1,11.4-14.9,20.5
				c-7.3-2.7-15.4-2.7-22.7,0c-0.8-9.1-6.5-16.9-14.9-20.5c-7.1-2-14.5-2.9-21.9-2.7c-7.4-0.3-14.8,0.6-21.9,2.7
				c-7.6,3.4-12.9,10.5-14,18.7c-4.1-0.1-8.2-0.7-12.2-1.8c-9.7-2.6-8.8-13.3-9.7-12.4c-3.7,2.6-5.5,7.2-4.4,11.6
				c0.9,2.7,7.9,9.8,24.4,10.7v5.3c0,20.8,16.8,37.6,37.6,37.6c20.8,0,37.6-16.8,37.6-37.6c0,0,0,0,0,0v-2.7c6.5-3.6,14.4-3.6,21,0
				v2.7c0,20.8,16.8,37.6,37.6,37.6s37.6-16.8,37.6-37.6c0,0,0,0,0,0v-5.3C257.7,182.3,264.8,179.9,271.4,176.5z M116.6,219.2
				C99.7,218.8,86.1,205,86,188c0-8.9,2.6-21.4,10.5-24.1c6.5-2.1,13.3-3,20.1-2.7c6.8-0.2,13.6,0.7,20.1,2.7
				c7.9,2.7,10.5,14.2,10.5,24.1C147.2,205,133.6,218.8,116.6,219.2z M212.8,219.2c-17-0.4-30.6-14.2-30.6-31.2
				c0-8.9,2.6-21.4,10.5-24.1c6.5-2.1,13.3-3,20.1-2.7c6.8-0.2,13.7,0.7,20.2,2.7c7.9,2.7,10.5,14.2,10.5,24.1
				c0.3,17-13.2,30.9-30.2,31.2C213.2,219.2,213,219.2,212.8,219.2z"/>
		</g>
	</g>
</g>
</svg>
