<?xml version="1.0" encoding="utf-8"?>
<!-- Generator: Adobe Illustrator 25.0.0, SVG Export Plug-In . SVG Version: 6.00 Build 0)  -->
<svg version="1.1" id="Layer_1" xmlns="http://www.w3.org/2000/svg" xmlns:xlink="http://www.w3.org/1999/xlink" x="0px" y="0px"
	 viewBox="0 0 589.2 523" style="enable-background:new 0 0 589.2 523;" xml:space="preserve">
<style type="text/css">
	.st0{fill:#5B5E65;}
	.st1{fill:#5CB9CC;}
	.st2{fill:#FFBB33;}
</style>
<g id="Frame" transform="translate(-0.01)">
	<g id="Group">
		<path id="Vector" class="st0" d="M105.6,415.5c3.7-5.2,9.8-8.1,16.2-7.6H224c6.7,0,9.5,3.7,7.6,7.6l-43.9,82.1
			c-3.6,5.2-9.8,8.1-16.2,7.6H69.3c-6.7,0-9.5-3.7-7.6-7.6L105.6,415.5z"/>
		<path id="Vector-2" class="st0" d="M105.6,415.5c3.7-5.2,9.8-8.1,16.2-7.6H224c6.7,0,9.5,3.7,7.6,7.6l-43.9,82.1
			c-3.6,5.2-9.8,8.1-16.2,7.6H69.3c-6.7,0-9.5-3.7-7.6-7.6L105.6,415.5z"/>
		<path id="Vector-3" class="st0" d="M482.7,415.5c-3.6-5.2-9.8-8.1-16.2-7.6H364.3c-6.7,0-9.5,3.7-7.6,7.6l43.9,82.1
			c3.7,5.3,9.8,8.2,16.2,7.6h102.1c6.7,0,9.5-3.7,7.6-7.6L482.7,415.5z"/>
		<path id="Vector-4" class="st0" d="M482.7,415.5c-3.6-5.2-9.8-8.1-16.2-7.6H364.3c-6.7,0-9.5,3.7-7.6,7.6l43.9,82.1
			c3.7,5.3,9.8,8.2,16.2,7.6h102.1c6.7,0,9.5-3.7,7.6-7.6L482.7,415.5z"/>
		<path id="Vector-5" class="st0" d="M417.7,266.6c0-21.9-56.3-41-124.9-41s-125.2,18.1-125.2,41s55.2,41,125.2,41
			C361.4,307.6,417.7,289.5,417.7,266.6z"/>
		<path id="Vector-6" class="st0" d="M417.7,266.6c0-21.9-56.3-41-124.9-41s-125.2,18.1-125.2,41s55.2,41,125.2,41
			C361.4,307.6,417.7,289.5,417.7,266.6z"/>
		<path id="Vector-7" class="st1" d="M502.7,271.3h-420c-27.9,0.2-50.4,22.7-50.6,50.6L14.9,341v12.4l17.2,20.1
			c0.2,27.9,22.7,50.4,50.6,50.6h420c27.9-0.2,50.4-22.7,50.6-50.6l17.2-20.1V341l-17.2-19.1C553.1,294.1,530.6,271.5,502.7,271.3z"
			/>
		<path id="Vector-8" class="st1" d="M502.7,271.3h-420c-27.9,0.2-50.4,22.7-50.6,50.6L14.9,341v12.4l17.2,20.1
			c0.2,27.9,22.7,50.4,50.6,50.6h420c27.9-0.2,50.4-22.7,50.6-50.6l17.2-20.1V341l-17.2-19.1C553.1,294.1,530.6,271.5,502.7,271.3z"
			/>
		<path id="Vector-9" class="st1" d="M82.7,271.3c-27.9,0.2-50.4,22.7-50.6,50.6l-15.3,17.2h550.8l-14.3-17.2
			c-0.2-27.9-22.7-50.4-50.6-50.6H82.7z"/>
		<path id="Vector-10" class="st2" d="M417.7,174.9c0-22.9-56.3-41-124.9-41s-125.2,18.1-125.2,41c0,22.1,56.3,41,125.2,41
			C361.4,214.9,417.7,196.9,417.7,174.9z"/>
		<path id="Vector-11" class="st1" d="M434,169.2H151.4c-16.6-0.2-30.3,13.1-30.6,29.7c0,0.3,0,0.5,0,0.8l-10.5,11.4v7.6l10.5,12.4
			c-0.2,16.6,13.1,30.3,29.7,30.6c0.3,0,0.5,0,0.8,0H434c16.6,0.2,30.3-13.1,30.6-29.7c0-0.3,0-0.5,0-0.8l10.5-12.4v-7.6l-10.5-11.4
			c0.2-16.6-13.1-30.3-29.7-30.6C434.5,169.2,434.2,169.2,434,169.2z"/>
		<path id="Vector-12" class="st1" d="M434,169.2H151.4c-16.6-0.2-30.3,13.1-30.6,29.7c0,0.3,0,0.5,0,0.8l-10.5,11.4v7.6l10.5,12.4
			c-0.2,16.6,13.1,30.3,29.7,30.6c0.3,0,0.5,0,0.8,0H434c16.6,0.2,30.3-13.1,30.6-29.7c0-0.3,0-0.5,0-0.8l10.5-12.4v-7.6l-10.5-11.4
			c0.2-16.6-13.1-30.3-29.7-30.6C434.5,169.2,434.2,169.2,434,169.2z"/>
		<path id="Vector-13" class="st1" d="M434,169.2H151.4c-16.6-0.2-30.3,13.1-30.6,29.7c0,0.3,0,0.5,0,0.8l-10.5,11.4H475l-10.5-11.4
			c0.2-16.6-13.1-30.3-29.7-30.6C434.5,169.2,434.2,169.2,434,169.2z"/>
		<path id="Vector-14" class="st1" d="M321.3,206.4c0-15.8-12.8-28.6-28.6-28.6s-28.6,12.8-28.6,28.6s12.8,28.6,28.6,28.6
			c15.2,0.6,28-11.2,28.6-26.5C321.4,207.9,321.4,207.2,321.3,206.4z"/>
		<path id="Vector-15" class="st1" d="M311.8,200.7c0,14.2-11.5,25.8-25.8,25.8s-25.8-11.5-25.8-25.8c0-14.2,11.5-25.8,25.8-25.8
			S311.8,186.5,311.8,200.7L311.8,200.7z"/>
		<path id="Vector-16" class="st1" d="M334.7,173c0-23.7-19.2-43-43-43c-23.7,0-43,19.2-43,43s19.2,43,43,43
			C315.4,215.8,334.5,196.7,334.7,173z"/>
		<path id="Vector-17" class="st1" d="M325.2,166.3c0-21.1-17.1-38.2-38.2-38.1c-21.1,0-38.2,17.1-38.1,38.2
			c0,21.1,17.1,38.1,38.1,38.1C308,204.5,325.1,187.4,325.2,166.3z"/>
		<path id="Vector-18" class="st1" d="M350,134.8c0-31.6-25.6-57.3-57.3-57.3c-31.6,0-57.3,25.6-57.3,57.3s25.6,57.3,57.3,57.3
			C324.3,192,349.9,166.4,350,134.8z"/>
		<path id="Vector-19" class="st1" d="M337.5,129.1c0-28.5-23.1-51.5-51.5-51.5s-51.5,23.1-51.5,51.5s23.1,51.5,51.5,51.5
			c28.4,0.1,51.4-22.8,51.5-51.2C337.5,129.3,337.5,129.2,337.5,129.1z"/>
		<path id="Vector-20" class="st1" d="M365.2,84.3c0-40.1-32.5-72.6-72.6-72.6c-40.1,0-72.6,32.5-72.6,72.6s32.5,72.6,72.6,72.6
			C332.7,156.8,365.2,124.4,365.2,84.3C365.2,84.3,365.2,84.3,365.2,84.3z"/>
		<path id="Vector-21" class="st0" d="M342.5,84.2c0.2-27.2-21.7-49.4-49-49.6c-0.3,0-0.5,0-0.8,0c-27.2-0.2-49.4,21.7-49.6,49
			c0,0.2,0,0.4,0,0.7c-0.3,27.2,21.6,49.5,48.8,49.8c0.3,0,0.5,0,0.8,0c27.2,0.3,49.5-21.6,49.8-48.8
			C342.5,84.9,342.5,84.5,342.5,84.2z"/>
		<path id="Vector-22_1_" class="st0" d="M342.5,84.2c0.2-27.2-21.7-49.4-49-49.6c-0.3,0-0.5,0-0.8,0c-27.2-0.2-49.4,21.7-49.6,49
			c0,0.2,0,0.4,0,0.7c-0.3,27.2,21.6,49.5,48.8,49.8c0.3,0,0.5,0,0.8,0c27.2,0.3,49.5-21.6,49.8-48.8
			C342.5,84.9,342.5,84.5,342.5,84.2z"/>
		<g id="Group-2">
			<path id="Vector-23" class="st2" d="M563.8,283.8H444.5l21,62.1h119.3L563.8,283.8z"/>
			<path id="Vector-24" class="st2" d="M21.6,283.8h119.3l-22.1,62.1H0.6L21.6,283.8z"/>
		</g>
		<path id="Vector-25" class="st0" d="M125.6,373.5c-2.5-6.8-9-11.4-16.2-11.4H8.2c-6.7,0-9.5,4.8-7.6,11.4l43.9,120.3
			c2.5,6.8,9,11.4,16.2,11.4H162c6.7,0,9.5-4.8,7.6-11.4L125.6,373.5z"/>
		<path id="Vector-26" class="st0" d="M462.6,373.5c2.5-6.8,9-11.3,16.2-11.4H581c6.7,0,9.5,4.8,7.6,11.4l-44.8,120.3
			c-2.5,6.8-8.9,11.3-16.2,11.4H425.4c-6.7,0-9.5-4.8-7.6-11.4L462.6,373.5z"/>
	</g>
</g>
</svg>
