<?xml version="1.0" encoding="utf-8"?>
<!-- Generator: Adobe Illustrator 25.0.0, SVG Export Plug-In . SVG Version: 6.00 Build 0)  -->
<svg version="1.1" id="Layer_1" xmlns="http://www.w3.org/2000/svg" xmlns:xlink="http://www.w3.org/1999/xlink" x="0px" y="0px"
	 viewBox="0 0 455.8 658.3" style="enable-background:new 0 0 455.8 658.3;" xml:space="preserve">
<style type="text/css">
	.st0{fill:#935402;}
	.st1{fill:#FFBA39;}
	.st2{fill:#E5920E;}
	.st3{fill:#FFD38D;}
	.st4{fill:#D3830D;}
</style>
<g id="Frame" transform="translate(0 -0.091)">
	<g id="Group">
		<g id="Group-2">
			<path id="Vector" class="st0" d="M450.6,320.4c0,0-45.6,190.1-88.6,234.4c-43.8,8.1-88.3,12.9-132.8,14.2
				c-42.6-1.1-84.9-6.8-126.3-16.8c-58.6-43-97.7-233.2-97.7-233.2l-2.6-11.8l225.3-151l225.3,151L450.6,320.4z"/>
		</g>
		<g id="Group-3">
			<g id="Group-4">
				<g id="Group-5">
					<path id="Vector-2" class="st1" d="M451.9,225.4c-6.5-2.6-11.7-5.2-18.2-7.8C422.1,116.4,336.3,40.1,234.4,40.5h-11.7
						c-102-0.8-188.1,75.7-199.2,177.1c-6.5,2.6-13,5.2-18.2,7.8C1.5,240.3-0.2,255.6,0,271c0.2,12.6,1.1,25.2,2.6,37.8
						c35.7-11.9,72.3-21,109.4-27.3c20.6-4,41.5-6.6,62.5-7.8c22.1-2.6,112,0,112,0c19.2,1.3,38.4,3.9,57.3,7.8
						c37,6.7,73.6,15.8,109.4,27.3c1.5-12.5,2.4-25.1,2.6-37.8C455.9,255.7,454.5,240.4,451.9,225.4z"/>
				</g>
			</g>
			<g id="Group-6">
				<path id="Vector-3" class="st2" d="M442.8,316.5c-2.2,71.4-47.6,134.3-114.7,158.9c0,0-5.1,74.2-14.2,181
					c56.4-15.4,100.5-59.5,115.9-115.9c3.9-28.7,18.2-170.6,22.1-221.4C448.7,319.1,445.6,318.2,442.8,316.5z"/>
			</g>
			<g id="Group-7">
				<path id="Vector-4" class="st1" d="M5.2,320.4c5.2,50.8,19.5,194,22.1,221.4c14.9,56.7,59.2,101,115.9,115.9
					c-9.1-106.8-14.2-181-14.2-181C62,452.1,16.6,389.2,14.4,317.9C11.2,318.3,8.1,319.1,5.2,320.4z"/>
			</g>
			<g id="Group-8">
				<path id="Vector-5" class="st3" d="M93.8,580.9c-9.7-52.3-24.9-103.4-45.6-152.4c-10.3-12.8-19-26.8-26-41.6
					c6.5,59.8,13,132.8,15.6,152.4c9.4,36.1,32.2,67.3,63.8,87.3C99.1,612.2,96.4,596.5,93.8,580.9z"/>
			</g>
			<g id="Group-9">
				<path id="Vector-6" class="st4" d="M270.9,199.4l-1.3-11.7c0.2-2.3-0.3-4.5-1.3-6.5c-1.8-13.2-7.7-25.5-16.9-35.2l-1.3-1.3V41.8
					c-5.2,0-10.4-1.3-16.9-1.3h-11.7c-5.2-0.2-10.5,0.2-15.6,1.3v102.9l-1.3,1.2c-8.9,10.3-14.8,23-16.9,36.5c0,2.6-1.3,3.9-1.3,6.5
					l-1.3,11.7c-2.8,24.6-7.1,49-13,73h1.3c19.5-1.3,93.7,0,109.4,0C277.3,248.8,273.5,220.2,270.9,199.4z"/>
			</g>
			<g id="Group-10">
				<path id="Vector-7" class="st1" d="M388.1,302.2c-14.9,23.9-40.9,38.5-69,39.1c-20.8-1.3-33.9-26-41.7-56V284
					c-7.6-30.9-13.2-62.2-16.9-93.7c0.2-1.8-0.3-3.7-1.3-5.2v-1.3c-1.2-11.3-6.2-21.9-14.2-29.9l-1.3-1.3c-1.4-1.4-1.4-1.4-2.7-1.4
					V0.1h-24.8v151c-1.3,0-1.3,1.3-2.6,1.3l-1.3,1.3c-7.5,8.4-12.5,18.8-14.2,29.9v1.3c0,1.3-1.3,3.9-1.3,5.2
					c0.2,1.8-0.3,3.7-1.3,5.2v5.3c-3,28.1-8.3,56-15.6,83.4v1.3c-9.1,29.9-20.8,54.7-41.7,56c-28.2-0.2-54.3-15-69-39.1
					c-16.9,3.9-33.9,9.1-49.5,14.2c5.2,49.5,26,99,72.9,115.9c57.3,20.8,99,32.6,135.4,67.7c36.5-35.2,78.1-46.9,135.4-67.7
					c46.9-16.9,67.7-66.4,72.9-115.9C420.5,310.8,404.4,306,388.1,302.2z"/>
			</g>
			<g id="Group-11">
				<path id="Vector-8" class="st3" d="M220.1,157.7l-2.6,2.6c-6.4,7.3-10.5,16.4-11.7,26c0.2,1.8-0.3,3.7-1.3,5.2l-1.3,11.7
					c-3,28.1-8.3,56-15.6,83.4l-2.6,7.8c-11.7,36.5-27.3,56-48.2,57.3h-4c-27.9-1.5-53.6-15.3-70.2-37.7
					c-11.9,2.9-23.6,6.3-35.2,10.4c1.7,43.2,26.6,82,65.1,101.6c9.3,1.1,18.5,3.3,27.3,6.5c39.3,10.7,76.1,29.3,108.1,54.7V157.7
					H220.1z"/>
			</g>
			<g id="Group-12">
				<path id="Vector-9" class="st3" d="M201.9,50.9C114.8,59.9,45,127,32.6,213.7c35.9-11.9,70.1-28.6,101.6-49.5
					C172.2,138.1,196.9,96.7,201.9,50.9z"/>
			</g>
			<g id="Group-13">
				<path id="Vector-10" class="st3" d="M9.1,231.9c-3.4,11.8-4.2,24.3-2.6,36.5c51.1-36.9,107.9-65.5,168-84.6
					C117.5,192.1,61.8,208.3,9.1,231.9z"/>
			</g>
		</g>
	</g>
</g>
</svg>
