<?xml version="1.0" encoding="utf-8"?>
<!-- Generator: Adobe Illustrator 25.0.0, SVG Export Plug-In . SVG Version: 6.00 Build 0)  -->
<svg version="1.1" id="Layer_1" xmlns="http://www.w3.org/2000/svg" xmlns:xlink="http://www.w3.org/1999/xlink" x="0px" y="0px"
	 viewBox="0 0 426.9 481.2" style="enable-background:new 0 0 426.9 481.2;" xml:space="preserve">
<style type="text/css">
	.st0{fill:#646464;}
	.st1{fill:#FFFFFF;}
	.st2{fill:#969696;}
	.st3{fill:#FFC800;}
</style>
<g id="Group">
	<path id="Vector" class="st0" d="M351.9,0H155.1c-41.3-0.2-74.9,33.1-75,74.4c0,0.2,0,0.4,0,0.6v340.2H0v28.4
		c-0.1,11.4,5.1,22.3,14.2,29.3c6,4.8,13.2,7.7,20.9,8.3l63.4-0.8h175.9c41.3,0.2,74.9-33.1,75-74.4c0-0.2,0-0.4,0-0.6V90.1h77.5V75
		C426.5,33.8,393.1,0.4,351.9,0z"/>
	<path id="Vector-2" class="st1" d="M335.2,74.2v331c0.1,29.2-20.5,54.5-49.2,60c-2.7,1-5.5,1.6-8.3,1.7h-3.3
		c-17.7-1.7-31.3-16.4-31.7-34.2v-16.7H94.2V75c-0.1-34,27.4-61.6,61.4-61.7c0.1,0,0.2,0,0.3,0h195.9c9.6,0,19,2.3,27.5,6.7
		C353.7,25.3,335.2,48,335.2,74.2z"/>
	<g id="Group-2">
		<path id="Vector-3" class="st2" d="M125.9,64.2h174.3v19.2H125.9V64.2z"/>
		<path id="Vector-4" class="st2" d="M125.9,103.4h174.3v19.2H125.9V103.4z"/>
		<path id="Vector-5" class="st2" d="M125.9,142.6h174.3v19.2H125.9V142.6z"/>
		<path id="Vector-6" class="st2" d="M125.9,181.8h174.3v19.2H125.9V181.8z"/>
		<path id="Vector-7" class="st2" d="M125.9,220.9h174.3v19.2H125.9V220.9z"/>
		<path id="Vector-8" class="st2" d="M125.9,260.1h174.3v19.2H125.9V260.1z"/>
	</g>
	<path id="Vector-9" class="st3" d="M298.5,326.9l-3.3-11.7l-12.5,0.8l-9.2-7.5l-10,7.5l-11.7-0.9l-3.3,11.7l-10,6.7l4.2,11.7
		l-4.2,11.7l10,6.7l3.3,11.6l11.7-0.8l10,7.5l9.2-7.5l12.5,0.8l3.3-11.7l10-6.7l-4.2-11.7l4.2-11.6L298.5,326.9z"/>
</g>
</svg>
