<?xml version="1.0" encoding="utf-8"?>
<!-- Generator: Adobe Illustrator 25.0.0, SVG Export Plug-In . SVG Version: 6.00 Build 0)  -->
<svg version="1.1" id="Layer_1" xmlns="http://www.w3.org/2000/svg" xmlns:xlink="http://www.w3.org/1999/xlink" x="0px" y="0px"
	 viewBox="0 0 457.9 523" style="enable-background:new 0 0 457.9 523;" xml:space="preserve">
<style type="text/css">
	.st0{fill:#797BB1;}
	.st1{fill:#FFD599;}
	.st2{fill:#FF9797;}
	.st3{fill:#B1F1A8;}
	.st4{fill:#EEF5FF;}
	.st5{fill:#E1ECFF;}
	.st6{fill:#94D5FF;}
	.st7{fill:#85BFE5;}
	.st8{fill:#6D6E9F;}
	.st9{fill:#A9DDFF;}
	.st10{fill:#93E286;}
	.st11{fill:#C1F4B9;}
	.st12{fill:#FCC67E;}
	.st13{fill:#FFDDAD;}
	.st14{fill:#FF7878;}
	.st15{fill:#FFACAC;}
</style>
<g id="Group">
	<g id="Group-2">
		<g id="Group-3">
			<path id="Vector" class="st0" d="M228.9,415.5c-4.6,0-8.4-3.8-8.4-8.4v-43.4c0-4.6,3.8-8.4,8.4-8.4c4.6,0,8.4,3.8,8.4,8.4v43.4
				C237.3,411.7,233.5,415.5,228.9,415.5z"/>
		</g>
	</g>
	<g id="Group-4">
		<g id="Group-5">
			<path id="Vector-2" class="st1" d="M229,398.2c18.8-0.2,34.2,14.9,34.3,33.7c0,0,0,0.1,0,0.1c-0.1,18.8-15.4,34-34.2,33.9
				c0,0-0.1,0-0.1,0c-18.8,0.2-34.2-14.9-34.3-33.7c0,0,0-0.1,0-0.1C194.8,413.2,210.1,398.1,229,398.2
				C229,398.2,229,398.2,229,398.2z"/>
		</g>
	</g>
	<g id="Group-6">
		<g id="Group-7">
			<path id="Vector-3" class="st0" d="M144.7,469.5c-4.6,0-8.4-3.8-8.4-8.4v-35.4c0-2.2,0.9-4.4,2.5-6l33.9-33.5v-26.2
				c0-4.6,3.8-8.4,8.4-8.4c4.6,0,8.4,3.8,8.4,8.4v29.7c0,2.2-0.9,4.4-2.5,6l-33.9,33.5v31.9C153.1,465.8,149.4,469.5,144.7,469.5z"
				/>
		</g>
	</g>
	<g id="Group-8">
		<g id="Group-9">
			<path id="Vector-4" class="st2" d="M144.8,452.3c18.8-0.2,34.2,14.9,34.3,33.7c0,0,0,0.1,0,0.1c-0.1,18.8-15.4,34-34.2,33.9
				c0,0-0.1,0-0.1,0c-18.8,0.2-34.2-14.9-34.3-33.7c0,0,0-0.1,0-0.1c0.1-18.8,15.4-33.9,34.2-33.8
				C144.7,452.3,144.8,452.3,144.8,452.3z"/>
		</g>
	</g>
	<g id="Group-10">
		<g id="Group-11">
			<path id="Vector-5" class="st0" d="M313.1,469.5c-4.6,0-8.4-3.8-8.4-8.4v-31.9l-33.9-33.5c-1.6-1.6-2.5-3.7-2.5-6V360
				c0-4.6,3.8-8.4,8.4-8.4s8.4,3.8,8.4,8.4c0,0,0,0,0,0v26.2l33.9,33.5c1.6,1.6,2.5,3.7,2.5,6v35.4
				C321.5,465.7,317.8,469.5,313.1,469.5z"/>
		</g>
	</g>
	<g id="Group-12">
		<g id="Group-13">
			<path id="Vector-6" class="st3" d="M313.2,452.3c-18.8-0.2-34.2,14.9-34.3,33.7c0,0,0,0.1,0,0.1c0.1,18.8,15.4,34,34.2,33.9
				c0,0,0.1,0,0.1,0c18.8,0.2,34.2-14.9,34.3-33.7c0,0,0-0.1,0-0.1C347.5,467.3,332.1,452.1,313.2,452.3
				C313.3,452.3,313.2,452.3,313.2,452.3z"/>
		</g>
	</g>
	<g id="Group-14">
		<g id="Group-15">
			<path id="Vector-7" class="st3" d="M347.3,486.1c-1.4,18.9-18,33.1-36.9,31.6c-16.9-1.3-30.3-14.7-31.6-31.6
				c0-15.7,10.9-29.3,26.2-32.8c2.6-0.7,5.3-1,8-1c18.8-0.2,34.1,14.9,34.3,33.7C347.3,486,347.3,486.1,347.3,486.1z"/>
		</g>
	</g>
	<g id="Group-16">
		<g id="Group-17">
			<path id="Vector-8" class="st0" d="M228.9,28c-4.6,0-8.4-3.8-8.4-8.4v-8.1c0-4.6,3.8-8.4,8.4-8.4c4.6,0,8.4,3.8,8.4,8.4v8.1
				C237.3,24.2,233.5,28,228.9,28z"/>
		</g>
	</g>
	<g id="Group-18">
		<g id="Group-19">
			<path id="Vector-9" class="st0" d="M118.5,57.2c-3,0-5.7-1.6-7.2-4.1l-4.1-7.1c-2.5-3.9-1.4-9.1,2.4-11.6
				c3.9-2.5,9.1-1.4,11.6,2.4c0.2,0.2,0.3,0.5,0.4,0.8l4.1,7.1c2.3,4,1,9.1-3,11.4c0,0,0,0,0,0C121.5,56.8,120,57.2,118.5,57.2z"/>
		</g>
	</g>
	<g id="Group-20">
		<g id="Group-21">
			<path id="Vector-10" class="st0" d="M339.3,57.2c-1.5,0-2.9-0.4-4.2-1.1c-4-2.3-5.3-7.4-3-11.4l4.1-7.1c2.4-3.9,7.4-5.2,11.4-3
				c4,2.3,5.3,7.4,3,11.4l-4.1,7.1C345,55.6,342.2,57.2,339.3,57.2z"/>
		</g>
	</g>
	<g id="Group-22">
		<g id="Group-23">
			<path id="Vector-11" class="st4" d="M412.1,163.2c-101.7-100.1-264.9-100.1-366.5,0l-45.6,45.1l45.8,45.2
				c101.7,100.1,264.9,100.1,366.5,0l45.6-45.2L412.1,163.2z"/>
		</g>
	</g>
	<g id="Group-24">
		<g id="Group-25">
			<path id="Vector-12" class="st5" d="M457.9,208.4l-45.8-33.9c-110.6-75.2-256-75.2-366.6,0L0,208.4l45.6-45.1
				c101.7-100.1,264.9-100.1,366.6,0L457.9,208.4z"/>
		</g>
	</g>
	<g id="Group-26">
		<g id="Group-27">
			<path id="Vector-13" class="st6" d="M312,208.4c-0.3,45.7-37.5,82.5-83.2,82.3c0,0,0,0,0,0c-45.7,0.3-82.9-36.6-83.2-82.3
				c0,0,0,0,0,0c0.3-45.7,37.5-82.5,83.2-82.3c0,0,0,0,0,0C274.6,125.9,311.8,162.8,312,208.4C312,208.4,312,208.4,312,208.4z"/>
		</g>
	</g>
	<g id="Group-28">
		<g id="Group-29">
			<path id="Vector-14" class="st6" d="M312,208.4c-0.2,45.6-37.4,82.5-83.1,82.3c0,0-0.1,0-0.1,0c-45.6,0.3-82.9-36.5-83.2-82.1
				c0,0,0-0.1,0-0.1c0-14.3,3.8-28.4,11-40.8c10.7-18.6,28.2-32.2,48.7-38.2c7.6-2.3,15.5-3.4,23.4-3.4
				C274.6,125.9,311.8,162.7,312,208.4C312,208.4,312,208.4,312,208.4z"/>
		</g>
	</g>
	<g id="Group-30">
		<g id="Group-31">
			<path id="Vector-15" class="st7" d="M312.1,208.4c-0.2,45.6-37.4,82.5-83.1,82.3c0,0-0.1,0-0.1,0c-36.9,0.2-69.4-24-79.9-59.3
				c12,7.5,25.9,11.5,40.1,11.4c42.3-0.1,76.4-34.5,76.3-76.7c0-12.2-3-24.3-8.6-35.1C289.8,142.3,312,173.4,312.1,208.4z"/>
		</g>
	</g>
	<g id="Group-32">
		<g id="Group-33">
			<path id="Vector-16" class="st0" d="M273.3,208.4c0,24.5-19.9,44.4-44.4,44.4s-44.4-19.9-44.4-44.4c0-5.4,1-10.8,2.9-15.9
				c3.9,3.3,8.8,5.1,13.9,5c11.9,0.1,21.8-9.4,21.9-21.4c0,0,0-0.1,0-0.1c0.1-3.8-0.9-7.5-2.9-10.7c2.8-0.5,5.6-0.7,8.4-0.7
				c24.4-0.2,44.3,19.4,44.5,43.7C273.3,208.4,273.3,208.4,273.3,208.4z"/>
		</g>
	</g>
	<g id="Group-34">
		<g id="Group-35">
			<path id="Vector-17" class="st8" d="M273.3,208.4c-0.1,24.4-20,44-44.4,43.9c-10.6,0.1-20.8-3.7-28.8-10.5
				c31.9-4.6,57.4-28.8,63.7-60.3C270,189.1,273.3,198.6,273.3,208.4z"/>
		</g>
	</g>
	<g id="Group-36">
		<g id="Group-37">
			<path id="Vector-18" class="st9" d="M208.9,143.8c0,17.4-14,31.5-31.4,31.5c-7.6,0-15-2.7-20.7-7.7
				c10.7-18.5,28.1-32.2,48.7-38.2C207.7,133.9,208.9,138.8,208.9,143.8z"/>
		</g>
	</g>
	<g id="Group-38">
		<g id="Group-39">
			<g id="Group-40">
				<path id="Vector-19" class="st10" d="M347.3,486.1c-0.5,19-16.2,34-35.2,33.5c-12.4-0.3-23.6-7.2-29.5-18.1
					c4.9,2.5,10.4,3.8,15.9,3.8c18.8,0.2,34.2-14.9,34.3-33.7c0,0,0,0,0-0.1c0-5.4-1.3-10.8-3.9-15.6
					C340.2,461.9,347.2,473.5,347.3,486.1z"/>
			</g>
		</g>
		<g id="Group-41">
			<g id="Group-42">
				<path id="Vector-20" class="st11" d="M307.8,461.1c0,7.2-5.8,13-13,13c-4.4,0-8.4-2.2-10.7-5.9c4.8-7.5,12.3-12.9,21-14.9
					C306.9,455.5,307.8,458.3,307.8,461.1z"/>
			</g>
		</g>
	</g>
	<g id="Group-43">
		<g id="Group-44">
			<g id="Group-45">
				<path id="Vector-21" class="st12" d="M263.1,432c-0.5,19-16.2,34-35.2,33.5c-12.4-0.3-23.6-7.2-29.5-18.1
					c4.9,2.5,10.4,3.8,15.9,3.8c18.8,0.2,34.2-14.9,34.3-33.7c0,0,0,0,0-0.1c0-5.4-1.3-10.8-3.9-15.6C256,407.8,263,419.4,263.1,432
					z"/>
			</g>
		</g>
		<g id="Group-46">
			<g id="Group-47">
				<path id="Vector-22" class="st13" d="M223.7,407c0,7.2-5.8,13-13,13c-4.4,0-8.4-2.2-10.7-5.9c4.8-7.5,12.3-12.9,21-14.9
					C222.7,401.5,223.7,404.2,223.7,407z"/>
			</g>
		</g>
	</g>
	<g id="Group-48">
		<g id="Group-49">
			<g id="Group-50">
				<path id="Vector-23" class="st14" d="M178.9,486.1c-0.5,19-16.2,34-35.2,33.5c-12.4-0.3-23.6-7.2-29.5-18.1
					c4.9,2.5,10.4,3.8,15.9,3.8c18.8,0.2,34.2-14.9,34.3-33.7c0,0,0,0,0-0.1c0-5.4-1.3-10.8-3.9-15.6
					C171.9,461.8,178.9,473.4,178.9,486.1z"/>
			</g>
		</g>
		<g id="Group-51">
			<g id="Group-52">
				<path id="Vector-24" class="st15" d="M139.5,461.1c0,7.2-5.8,12.9-13,13c-4.4,0-8.4-2.2-10.7-5.9c4.7-7.5,12.3-12.9,21-14.8
					C138.5,455.5,139.5,458.2,139.5,461.1z"/>
			</g>
		</g>
	</g>
</g>
</svg>
