<?xml version="1.0" encoding="utf-8"?>
<!-- Generator: Adobe Illustrator 25.0.0, SVG Export Plug-In . SVG Version: 6.00 Build 0)  -->
<svg version="1.1" id="Layer_1" xmlns="http://www.w3.org/2000/svg" xmlns:xlink="http://www.w3.org/1999/xlink" x="0px" y="0px"
	 viewBox="0 0 481 481.2" style="enable-background:new 0 0 481 481.2;" xml:space="preserve">
<style type="text/css">
	.st0{fill:#EA4B48;}
	.st1{fill:#FF9292;}
	.st2{fill:#C10601;}
</style>
<g id="Frame" transform="translate(0.012 0.012)">
	<g id="Group">
		<g id="Group-2">
			<g id="Group-3">
				<path id="Vector" class="st0" d="M401.5,419.5c-98.8,88.9-250.9,80.8-339.8-18s-80.8-250.9,18-339.8
					c98.8-88.8,250.9-80.8,339.8,18c88.9,98.6,80.9,250.6-17.7,339.5C401.7,419.3,401.6,419.4,401.5,419.5z"/>
			</g>
		</g>
		<g id="Group-4">
			<path id="Vector-2" class="st1" d="M50.8,150.9C167.6,46.1,347.2,55.7,452,172.4c0,0,0.1,0.1,0.1,0.1c4.5,5.9,9.4,11.5,14.5,16.8
				c-8.8-38.4-27-74-53-103.6C327.9-8.8,182-16.3,87,68.9c-35.4,32-60.2,74.1-71.1,120.5C26.2,175.4,37.9,162.5,50.8,150.9z"/>
		</g>
		<g id="Group-5">
			<path id="Vector-3" class="st2" d="M430.4,325.5C313.7,430.3,134.1,420.7,29.3,304c0-0.1-0.1-0.1-0.1-0.2
				c-4.5-5.9-9.3-11.5-14.5-16.9c8.8,38.4,27,74,53,103.6c84.9,95.1,230.9,103.4,326.1,18.5c0.2-0.1,0.3-0.3,0.5-0.4
				c35.4-32,60.2-74,71.2-120.5C454.7,301.5,443,314,430.4,325.5z"/>
		</g>
		<g id="Group-6">
			<path id="Vector-4" d="M481,229.1c-0.2-8.1-1-16.1-2.4-24c-58.3-43.1-127.7-68.7-200-73.6c-33.8-0.8-66.9,9.8-94,30l-30-33.7
				C208.1,80.8,277.1,55,348.5,55.5c17.4-0.2,34.8,1.4,51.8,4.8c-9.6-8.7-20.1-16.3-31.3-22.8c-7.6-1-15.2-1.4-22.9-1.2
				c-75.2,0.2-147.7,28.1-203.6,78.4l-19.3-20.5c21.6-21.9,35.5-50.2,39.8-80.7c-7,2.3-13.9,5.1-20.5,8.4
				c-4.7,22.2-15.6,42.7-31.3,59L89.4,54.4c-3.6,2.4-6,4.8-9.6,7.2c-1.5,1.4-2.7,3-3.6,4.8l21.7,24c-17.5,12-37.9,19-59,20.5
				l-10.8,18.1c29.3,0.5,58-8.4,81.9-25.3l19.3,21.7c-65.7,63.2-99.3,152.6-91.6,243.4c7,10.5,14.6,20.6,22.9,30
				c-16.6-94.5,14-191.2,81.9-259l30,33.7c-55.4,61.5-45.8,178.3,24,302.5c7.2,1.2,14.5,2.4,22.9,3.6c-71-118.1-84.2-235-34.8-292.8
				l212.1,236.2c1.2-1.2,3.6-2.4,4.8-3.6c2.5-2.7,5.4-5.1,8.4-7.2L196.6,174.9c23.5-18,52.4-27.4,81.9-26.5
				C352.6,154.5,423.1,182.6,481,229.1z"/>
		</g>
	</g>
</g>
</svg>
