<?xml version="1.0" encoding="utf-8"?>
<!-- Generator: Adobe Illustrator 25.0.0, SVG Export Plug-In . SVG Version: 6.00 Build 0)  -->
<svg version="1.1" id="Layer_1" xmlns="http://www.w3.org/2000/svg" xmlns:xlink="http://www.w3.org/1999/xlink" x="0px" y="0px"
	 viewBox="0 0 537.6 481.2" style="enable-background:new 0 0 537.6 481.2;" xml:space="preserve">
<style type="text/css">
	.st0{fill:#0D2123;}
	.st1{fill:#155468;}
	.st2{fill:#4C4C4C;}
	.st3{fill:#3B758D;}
	.st4{opacity:0.6;}
	.st5{opacity:0.6;fill:#CAFAFF;enable-background:new    ;}
</style>
<g id="Frame" transform="translate(0.002 0.008)">
	<g id="Group">
		<g id="Group-2">
			<g id="Group-3">
				<path id="Vector" class="st0" d="M176.7,143.5c-66.6-0.4-127.5,37.2-157.1,96.8c29.5,59.6,90.5,97.2,157.1,96.8
					c66.6,0.4,127.5-37.2,157.1-96.8C303.9,181,243.1,143.6,176.7,143.5z M176.7,316.6c-54.5,0.7-105.2-28.1-132.6-75.2
					c27.5-47.1,78.1-75.8,132.6-75.2c54.4-0.2,104.8,28.4,132.6,75.2C281.5,288.1,231.1,316.7,176.7,316.6z"/>
			</g>
			<g id="Group-4">
				<g id="Group-5">
					<path id="Vector-2" class="st1" d="M178.8,177.5c-34.3-0.1-62.2,27.7-62.2,62c0,0.3,0,0.5,0,0.8c-0.8,34.4,26.4,62.9,60.8,63.7
						c34.4,0.8,62.9-26.4,63.7-60.8c0-1,0-1.9,0-2.9c0.4-34.3-27.1-62.4-61.4-62.8C179.3,177.5,179,177.5,178.8,177.5z M206.3,230
						c1.3,3.3,2,6.8,2,10.3c-0.1,15.8-13.1,28.4-28.8,28.3c-15.8-0.1-28.4-13.1-28.3-28.8c0.1-15.7,12.9-28.3,28.6-28.3
						c1.8-0.3,3.6,0.1,5.1,1c1.1-8.2,8-14.4,16.3-14.4c8.9-0.1,16.3,7.1,16.3,16.1c0,0.1,0,0.3,0,0.4
						C217.4,221.6,212.9,227.7,206.3,230z"/>
				</g>
			</g>
		</g>
		<g id="Group-6">
			<g id="Group-7">
				<g id="Group-8">
					<path id="Vector-3" class="st1" d="M469.5,472.1c18.2,14.2,44.3,11.5,59.2-6.2c14.1-18.4,11.4-44.6-6.1-59.8L384.8,294.9
						c-18.2-14.2-44.3-11.5-59.2,6.2c-14.1,18.4-11.4,44.6,6.1,59.7L469.5,472.1z"/>
				</g>
				<g id="Group-9">
					<path id="Vector-4" class="st2" d="M65.5,317.6c70.6,58,174,52.2,237.6-13.4l11.2,9.3c1.1,1.1,2.6,1.8,4.1,2l20.4-24.7
						c-1-1-2-3.1-3.1-4.1l-11.2-9.3c50.7-77,34.8-180-36.9-238.1C212.6-21.8,102.2-10.5,41.1,64.6c-0.4,0.5-0.8,1-1.2,1.5
						C-22.1,142.8-10.6,255,65.5,317.6z M81.9,299.1C16.7,245.2,6.3,149.3,58.4,82.7c52.1-65.3,147.2-76.1,212.6-24
						c0.5,0.4,1.1,0.9,1.6,1.3C338,113.9,348,210.3,295,276.4C242.4,341.4,147,351.5,81.9,299.1z"/>
				</g>
				<g id="Group-10">
					<path id="Vector-5" class="st3" d="M509.2,437.1L382.8,333.1c-14.7-13.5-37.5-12.6-51,2c-1.1,1.1-1.8,2.6-2,4.1
						c-4.4-10.6-2.8-22.8,4.1-32c13.6-14.6,36.3-15.5,51-2.1l127.4,103.9c14.8,11.1,19.5,31.1,11.3,47.6
						C521,448.8,516,442,509.2,437.1z"/>
				</g>
			</g>
			<g id="Group-11" class="st4">
				<g id="Group-12" class="st4">
					<path id="Vector-6" class="st5" d="M181.8,174.4c46.3-1.1,89.2-24.5,115.2-62.8c27.4,49.4,22.1,110.6-13.4,154.5
						c-45.7,58.5-130.2,68.8-188.7,23.1c-1-0.8-2.1-1.6-3.1-2.5c-51.5-42.5-65.5-115.5-33.5-174.1
						C86.6,152.5,132.9,175.7,181.8,174.4z"/>
				</g>
			</g>
		</g>
	</g>
</g>
</svg>
