<?xml version="1.0" encoding="utf-8"?>
<!-- Generator: Adobe Illustrator 25.0.0, SVG Export Plug-In . SVG Version: 6.00 Build 0)  -->
<svg version="1.1" id="Layer_1" xmlns="http://www.w3.org/2000/svg" xmlns:xlink="http://www.w3.org/1999/xlink" x="0px" y="0px"
	 viewBox="0 0 200 88.4" style="enable-background:new 0 0 200 88.4;" xml:space="preserve">
<style type="text/css">
	.st0{fill-rule:evenodd;clip-rule:evenodd;fill:#E20514;}
	.st1{fill-rule:evenodd;clip-rule:evenodd;fill:#F29200;}
</style>
<path class="st0" d="M176.6,4l3.2,7.3c0.6,1.4,2.3,2.1,3.7,1.4c1.4-0.6,2.1-2.3,1.4-3.7l-3.2-7.3c-0.6-1.4-2.3-2.1-3.7-1.4
	C176.6,0.9,176,2.5,176.6,4z"/>
<path class="st0" d="M119.5,65.9c-5,13.1-17.7,22.5-32.6,22.5c-10.4,0-19.7-4.5-26.1-11.7c-6.4,7.2-15.7,11.7-26.1,11.7
	C15.6,88.4,0,72.8,0,53.6c0-19.2,15.6-34.8,34.8-34.8c4.9,0,8.8,4,8.8,8.8c0,4.9-4,8.8-8.8,8.8c-9.5,0-17.1,7.7-17.1,17.1
	c0,9.5,7.7,17.1,17.1,17.1C44.3,70.7,52,63,52,53.6c0-0.6,0.1-1.2,0.2-1.8c0.9-17.9,15.3-32.2,33.2-33c4.9-0.2,9,3.6,9.2,8.4
	c0.2,4.9-3.6,9-8.4,9.2c-9.1,0.4-16.4,7.9-16.4,17.1c0,9.5,7.7,17.1,17.1,17.1c6.2,0,11.7-3.3,14.7-8.3h-8.5c-4.9,0-8.8-4-8.8-8.8
	c0-4.9,4-8.8,8.8-8.8h15.4l-5.8-11.1c-2.3-4.3-0.6-9.7,3.8-11.9c4.3-2.3,9.7-0.6,11.9,3.8l18.1,34.7l17.4-34.5
	c2.2-4.4,7.5-6.1,11.9-3.9c4.4,2.2,6.1,7.5,3.9,11.9l-25.1,50c-1.5,3-4.5,4.9-7.8,4.9c-3.3,0-6.4-1.8-7.9-4.8L119.5,65.9z"/>
<path class="st1" d="M190.4,11.3l3.4-7.3c0.6-1.3,0-2.8-1.2-3.4c-1.3-0.6-2.8,0-3.4,1.2l-3.4,7.3c-0.6,1.3,0,2.8,1.2,3.4
	C188.3,13.1,189.8,12.6,190.4,11.3z"/>
<path class="st0" d="M193,17.1l5.4-2.3c1.4-0.6,2-2.2,1.4-3.5c-0.6-1.4-2.2-2-3.5-1.4l-5.4,2.3c-1.4,0.6-2,2.2-1.4,3.5
	C190.1,17.1,191.7,17.7,193,17.1z"/>
<path class="st1" d="M188.7,22l4.2,3.6c1.1,1,2.8,0.8,3.8-0.3c1-1.1,0.8-2.8-0.3-3.8l-4.2-3.6c-1.1-1-2.8-0.8-3.8,0.3
	C187.4,19.4,187.5,21.1,188.7,22z"/>
<path class="st0" d="M182.5,22.3v5.1c0,1.5,1.2,2.7,2.7,2.7c1.5,0,2.7-1.2,2.7-2.7v-5.1c0-1.5-1.2-2.7-2.7-2.7
	C183.7,19.6,182.5,20.8,182.5,22.3z"/>
<path class="st0" d="M178.1,18.3l-3.3,2.9c-1.1,1-1.2,2.7-0.2,3.8c1,1.1,2.7,1.2,3.8,0.2l3.3-2.9c1.1-1,1.2-2.7,0.2-3.8
	C180.9,17.4,179.2,17.3,178.1,18.3z"/>
<path class="st1" d="M179.6,12l-5.3-2.4c-1.3-0.6-2.9,0-3.6,1.3c-0.6,1.3,0,2.9,1.3,3.6l5.3,2.4c1.3,0.6,2.9,0,3.6-1.3
	C181.6,14.2,181,12.6,179.6,12z"/>
</svg>
