<?xml version="1.0" encoding="utf-8"?>
<!-- Generator: Adobe Illustrator 25.0.0, SVG Export Plug-In . SVG Version: 6.00 Build 0)  -->
<svg version="1.1" id="Layer_1" xmlns="http://www.w3.org/2000/svg" xmlns:xlink="http://www.w3.org/1999/xlink" x="0px" y="0px"
	 viewBox="0 0 144.9 13.4" style="enable-background:new 0 0 144.9 13.4;" xml:space="preserve">
<style type="text/css">
	.st0{fill:#FFFFFF;}
</style>
<g>
	<path class="st0" d="M91.6,6.9c0-0.7,0.1-1.3,0.3-2c0.2-0.7,0.5-1.3,1-1.9c0.4-0.6,0.9-1,1.5-1.4s1.3-0.5,2-0.5h15.4
		c0.4,0,0.7,0.1,0.9,0.4c0.2,0.2,0.4,0.5,0.4,0.9s-0.1,0.7-0.4,0.9c-0.2,0.2-0.5,0.4-0.9,0.4H97c-0.6,0-1.1,0.1-1.5,0.3
		c-0.4,0.2-0.7,0.5-0.9,0.8c-0.2,0.3-0.4,0.7-0.4,1c-0.1,0.4-0.1,0.7-0.1,1s0,0.7,0.1,1c0.1,0.4,0.2,0.7,0.4,1
		c0.2,0.3,0.5,0.6,0.9,0.8s0.9,0.3,1.5,0.3h14.9c0.4,0,0.7,0.1,0.9,0.4s0.4,0.5,0.4,0.9s-0.1,0.7-0.4,0.9c-0.2,0.2-0.5,0.4-0.9,0.4
		H96.2c-0.7,0-1.4-0.2-1.9-0.5c-0.6-0.4-1-0.8-1.4-1.4C92.5,10,92.2,9.4,92,8.7C91.7,8.3,91.6,7.6,91.6,6.9z"/>
	<g>
		<path class="st0" d="M143.6,10.2H129c-0.6,0-1.1-0.1-1.5-0.3s-0.7-0.5-0.9-0.8c-0.2-0.3-0.4-0.7-0.4-1c-0.1-0.4-0.1-0.7-0.1-1
			s0-0.7,0.1-1c0.1-0.4,0.2-0.7,0.4-1c0.2-0.3,0.5-0.6,0.9-0.8c0.4-0.2,0.9-0.3,1.5-0.3h14.6c0.4,0,0.7-0.1,0.9-0.4
			c0.2-0.2,0.4-0.5,0.4-0.9s-0.1-0.7-0.4-0.9c-0.2-0.2-0.5-0.4-0.9-0.4h-15.2c-0.8,0-1.4,0.2-2,0.5c-0.6,0.4-1.1,0.8-1.5,1.4
			s-0.7,1.2-1,1.9c-0.2,0.7-0.3,1.4-0.3,2c0,0.7,0.1,1.3,0.3,2c0.2,0.7,0.5,1.3,0.9,1.9c0.4,0.6,0.9,1,1.4,1.4
			c0.6,0.4,1.2,0.5,1.9,0.5h15.4c0.4,0,0.7-0.1,0.9-0.4c0.2-0.2,0.4-0.5,0.4-0.9s-0.1-0.7-0.4-0.9C144.3,10.3,144,10.2,143.6,10.2z"
			/>
		<path class="st0" d="M132.9,5.7c-0.4,0-0.7,0.1-0.9,0.4s-0.4,0.5-0.4,0.9s0.1,0.7,0.4,0.9c0.2,0.2,0.5,0.4,0.9,0.4h5.4
			c0.4,0,0.7-0.1,0.9-0.4c0.2-0.2,0.4-0.5,0.4-0.9s-0.1-0.7-0.4-0.9c-0.2-0.2-0.5-0.4-0.9-0.4H132.9z"/>
	</g>
	<path class="st0" d="M3.5,8.2c-0.5,0-1-0.1-1.4-0.3C1.7,7.8,1.3,7.5,1,7.2C0.7,6.9,0.5,6.5,0.3,6.1C0.1,5.6,0,5.2,0,4.7
		s0.1-1,0.3-1.4C0.5,2.9,0.7,2.5,1,2.2s0.7-0.6,1.1-0.8C2.6,1.3,3,1.2,3.5,1.2h16.4c0.4,0,0.7,0.1,0.9,0.4c0.2,0.2,0.4,0.5,0.4,0.9
		s-0.1,0.7-0.4,0.9c-0.2,0.2-0.5,0.4-0.9,0.4H3.5C3.2,3.7,3,3.8,2.8,4C2.6,4.2,2.5,4.4,2.5,4.7c0,0.3,0.1,0.5,0.3,0.7
		C3,5.6,3.2,5.7,3.5,5.7h14.6c0.5,0,1,0.1,1.4,0.3c0.4,0.2,0.8,0.4,1.1,0.8c0.3,0.3,0.6,0.7,0.8,1.1c0.2,0.4,0.3,0.9,0.3,1.4
		s-0.1,1-0.3,1.4c-0.2,0.4-0.4,0.8-0.8,1.1c-0.3,0.3-0.7,0.6-1.1,0.7c-0.4,0.2-0.9,0.3-1.4,0.3H1.5c-0.4,0-0.7-0.1-0.9-0.4
		c-0.2-0.2-0.4-0.5-0.4-0.9s0.1-0.7,0.4-0.9c0.2-0.2,0.5-0.4,0.9-0.4h16.8c0.3,0,0.5-0.1,0.7-0.3s0.3-0.4,0.3-0.7S19.2,8.7,19,8.5
		c-0.2-0.2-0.4-0.3-0.7-0.3C18.3,8.2,3.5,8.2,3.5,8.2z"/>
	<g>
		<path class="st0" d="M81.3,11c-0.1-0.2-0.2-0.3-0.3-0.4L74.6,2c-0.3-0.4-0.7-0.7-1.2-1c-0.5-0.2-1-0.3-1.5-0.3
			c-0.6,0-1.1,0.1-1.6,0.4s-0.9,0.6-1.2,1l-6.4,8.7c-0.2,0.2-0.3,0.5-0.3,0.8c0,0.4,0.1,0.7,0.4,0.9c0.2,0.2,0.5,0.4,0.9,0.4
			c0.4,0,0.7-0.2,1-0.5L71,4c0.1-0.1,0.3-0.3,0.4-0.5c0.2-0.2,0.4-0.3,0.6-0.3s0.4,0.1,0.6,0.3C72.7,3.7,72.9,3.8,73,4l6.2,8.2
			c0.2,0.3,0.6,0.5,1,0.5s0.7-0.1,0.9-0.4c0.2-0.2,0.4-0.5,0.4-0.9C81.4,11.3,81.4,11.1,81.3,11z"/>
		<path class="st0" d="M73.3,7.4h-2.7c-0.7,0-1.3,0.6-1.3,1.3s0.6,1.3,1.3,1.3h2.7c0.7,0,1.3-0.6,1.3-1.3S74,7.4,73.3,7.4z"/>
	</g>
	<path class="st0" d="M52.6,3.3c-0.2-0.4-0.4-0.8-0.8-1.1c-0.3-0.3-0.7-0.6-1.1-0.8c-0.4-0.2-0.9-0.3-1.4-0.3H33.5
		c-0.4,0-0.7,0.1-0.9,0.4c-0.2,0.2-0.4,0.5-0.4,0.9v9c0,0.4,0.1,0.7,0.4,0.9c0.2,0.2,0.5,0.4,0.9,0.4c0.3,0,0.6-0.1,0.9-0.4
		c0.3-0.2,0.4-0.5,0.4-0.9V3.7h14.7c0.3,0,0.5,0.1,0.7,0.3c0.2,0.2,0.3,0.4,0.3,0.7c0,0.3-0.1,0.5-0.3,0.7s-0.4,0.3-0.7,0.3H39.2
		l0,0h-0.9c-0.4,0-0.7,0.1-0.9,0.4C37.2,6.3,37,6.6,37,6.9s0.1,0.7,0.4,0.9c0.2,0.2,0.5,0.4,0.9,0.4h4.9l0,0h6.1
		c0.5,0,1-0.1,1.4-0.3s0.8-0.4,1.1-0.8c0.3-0.3,0.6-0.7,0.8-1.1s0.3-0.9,0.3-1.4C52.9,4.2,52.8,3.7,52.6,3.3z"/>
</g>
</svg>
