<?xml version="1.0" encoding="utf-8"?>
<!-- Generator: Adobe Illustrator 25.0.0, SVG Export Plug-In . SVG Version: 6.00 Build 0)  -->
<svg version="1.1" id="Layer_1" xmlns="http://www.w3.org/2000/svg" xmlns:xlink="http://www.w3.org/1999/xlink" x="0px" y="0px"
	 viewBox="0 0 400 400" style="enable-background:new 0 0 400 400;" xml:space="preserve">
<style type="text/css">
	.st0{fill-rule:evenodd;clip-rule:evenodd;fill:#0078EF;}
</style>
<path class="st0" d="M-236,100.2c0.3-0.1,11.8-0.1,11.8-0.1c2.7,0,5,1.6,5.9,4c0.5,1.2,0.4,2.6,0.4,4l0,25.8c0,2.1-0.6,3.4-1.7,4.5
	c-1.4,1.4-2.6,1.8-4.8,1.8l-7,0l0-35.3c0-1.4,0.3-1.2-1.8-2.7C-234,101.8-235.8,100.6-236,100.2C-236,100.3-236,100.3-236,100.2
	L-236,100.2z M-198.1,50.9c37.2,0,67.3,30.1,67.3,67.3s-30.1,67.3-67.3,67.3s-67.3-30.1-67.3-67.3S-235.2,50.9-198.1,50.9
	L-198.1,50.9z M-198.1,56.1c21.4,0,40.2,10.8,51.4,27.2c-1.4,0.1-6.2,0-7.9,0c-2.2,0-1.8,0-2.5,1.7c-0.2,0.4-0.4,0.9-0.7,1.4
	c-0.2,0.5-0.5,1-0.7,1.5c-0.4,0-0.6-0.3-1-0.5c-0.3-0.2-0.5-0.4-0.8-0.6l-3.3-2.4c-0.7-0.5-1.1-1-2-1h-14c-0.6,0-0.8,0.1-1.2,0.4
	l-8.1,5.9c-0.5,0.4-1.3,0.9-1.8,1.3c-0.6,0.4-1.2,0.9-1.8,1.3c-1.6,1.2-1.4,0.9-1.4,3.2l0,51c0,1,0.9,1.3,1.6,1.8
	c0.6,0.4,1.3,1.1,2,1.5c0.7,0.4,1.3,1,2,1.4c1.6,1,7.3,5.5,8,5.7c0.5,0.2,2.7,0.1,3.4,0.1c2.8,0,26.9-0.1,27.5,0.1c0,0,0,0,0,0
	c-11.4,14.3-29,23.5-48.7,23.5c-19.7,0-37.3-9.2-48.7-23.5c0,0,0,0,0,0c0.8-0.1,1.6,0,2.4,0l30.4,0c1.4,0,1.5-0.1,2.4-0.8l11.4-8.3
	c0.7-0.5,1-0.6,1-1.6l0-52.4c0-0.9-0.7-1.2-1.4-1.7c-0.2-0.1-0.6-0.4-0.9-0.6l-6.2-4.5c-0.6-0.4-1.2-0.8-1.8-1.3l-2.7-1.9
	c-0.6-0.5-1.4-0.4-2.2-0.4l-35.2,0c0,0,0-0.1,0-0.1C-238.3,66.9-219.4,56.1-198.1,56.1L-198.1,56.1z M-142.1,91
	c4,8.2,6.3,17.5,6.3,27.2c0,11-2.9,21.4-7.9,30.4c0,0-0.1,0-0.1,0c-0.2-1,0.1-17.1-0.1-17.6c0-0.2-0.1-0.3-0.3-0.4
	c-0.2-0.1-16.9-0.2-17.1,0.1c-0.3,0.3-0.2,4.1-0.2,4.7c0,1.3,0.1,3.7,0,4.9c-0.9,0.1-6,0-7.2,0c-2.1,0-3.8-1-4.9-2.4
	c-1.4-1.7-1.3-3.3-1.3-5.9l0-27.2c0-0.7,0.1-1.1-0.3-1.5l-4.1-3.1c1.8-0.1,17.5-0.1,17.8,0.1c0.1,0.1,0.1,0.7,0.1,0.9l0,8.5
	c0,0.9,0,1,0.9,1l11.5,0c0.6,0,3.4,0.1,3.7-0.1c0.4-0.4,0.4-2.8,0.8-3.9c0.1-0.5,0.9-6.3,1.2-7.5l1-6.6c0-0.4,0.1-0.5,0.1-0.8
	C-142.4,91.5-142.4,91.1-142.1,91C-142.1,91.1-142.1,91-142.1,91L-142.1,91z M-250.5,151.7c-6.2-9.7-9.7-21.1-9.7-33.4
	c0-7.3,1.3-14.3,3.6-20.8c0.6,0.1,1.4,0.9,2.1,1.4l3.8,2.8c0.2,0.2,0.4,0.3,0.4,0.6c0.1,0.6,0,39.4,0,45.7
	C-250.3,148.6-250.2,151.3-250.5,151.7C-250.4,151.7-250.5,151.7-250.5,151.7L-250.5,151.7z"/>
</svg>
