<?xml version="1.0" encoding="utf-8"?>
<!-- Generator: Adobe Illustrator 25.0.0, SVG Export Plug-In . SVG Version: 6.00 Build 0)  -->
<svg version="1.1" id="objects" xmlns="http://www.w3.org/2000/svg" xmlns:xlink="http://www.w3.org/1999/xlink" x="0px" y="0px"
	 viewBox="0 0 639.3 123" style="enable-background:new 0 0 639.3 123;" xml:space="preserve">
<style type="text/css">
	.st0{fill:#BFE7F7;}
	.st1{fill:url(#SVGID_1_);}
	.st2{fill:url(#SVGID_2_);}
	.st3{fill:url(#SVGID_3_);}
	.st4{fill:url(#SVGID_4_);}
	.st5{fill:url(#SVGID_5_);}
	.st6{fill:url(#SVGID_6_);}
	.st7{fill:url(#SVGID_7_);}
	.st8{fill:url(#SVGID_8_);}
	.st9{fill:url(#SVGID_9_);}
	.st10{fill:url(#SVGID_10_);}
	.st11{fill:url(#SVGID_11_);}
	.st12{fill:url(#SVGID_12_);}
	.st13{fill:url(#SVGID_13_);}
	.st14{fill:url(#SVGID_14_);}
	.st15{fill:url(#SVGID_15_);}
</style>
<g>
	<g>
		<g>
			<polygon class="st0" points="37.8,121 37.8,28.7 1.3,28.7 1.3,0 109.8,0 109.8,28.7 73.5,28.7 73.5,121 			"/>
			<path class="st0" d="M197.9,121l-21.6-31.6h-16.8V121h-35.7V0h55.4c10.9,0,20.4,1.8,28.5,5.4s14.4,8.9,18.8,15.7
				c4.4,6.8,6.6,14.8,6.6,23.9c0,8.8-2.1,16.5-6.2,23.1c-3.9,6.2-9.5,11.2-16.6,14.9l26.1,38H197.9z M177.2,61.4
				c6.6,0,11.7-1.4,15-4.3c3.3-2.8,4.9-6.9,4.9-12.1s-1.7-9.3-4.9-12.2c-3.3-2.9-8.4-4.3-15-4.3h-17.7v32.8L177.2,61.4L177.2,61.4z"
				/>
			<polygon class="st0" points="253.1,121 253.1,0 348.4,0 348.4,28 288.3,28 288.3,46.1 341.2,46.1 341.2,73.2 288.3,73.2 
				288.3,93 350.6,93 350.6,121 			"/>
			<polygon class="st0" points="456.7,121 405.6,59.4 405.6,121 370.7,121 370.7,0 399.8,0 450.9,61.6 450.9,0 485.9,0 485.9,121 
							"/>
			<path class="st0" d="M511.1,121V0h57.3c13.1,0,24.9,2.5,35.1,7.4c10.2,4.9,18.2,12,23.9,21.1c5.6,9.1,8.5,19.8,8.5,32
				c0,12.1-2.9,22.9-8.5,32s-13.7,16.2-23.9,21.1s-22,7.4-35.1,7.4H511.1z M567,92.1c9.9,0,17.9-2.8,23.9-8.4
				c5.9-5.6,8.9-13.4,8.9-23.2c0-9.9-3-17.7-8.9-23.2c-6-5.6-14-8.4-23.9-8.4h-20.2v63.3L567,92.1L567,92.1z"/>
		</g>
		<g>
			
				<linearGradient id="SVGID_1_" gradientUnits="userSpaceOnUse" x1="55.65" y1="4" x2="55.65" y2="123" gradientTransform="matrix(1 0 0 -1 1 125)">
				<stop  offset="0" style="stop-color:#EF5383"/>
				<stop  offset="2.871445e-03" style="stop-color:#EE5383"/>
				<stop  offset="0.2636" style="stop-color:#945F9D"/>
				<stop  offset="0.4466" style="stop-color:#5C67AD"/>
				<stop  offset="0.5344" style="stop-color:#466AB3"/>
				<stop  offset="0.6247" style="stop-color:#4A77BB"/>
				<stop  offset="0.7923" style="stop-color:#569AD1"/>
				<stop  offset="1" style="stop-color:#67CDF1"/>
			</linearGradient>
			<path class="st1" d="M39.8,28.7H3.3V2h106.6v26.7H73.5V121H39.8V28.7z"/>
			
				<linearGradient id="SVGID_2_" gradientUnits="userSpaceOnUse" x1="179.65" y1="4" x2="179.65" y2="123" gradientTransform="matrix(1 0 0 -1 1 125)">
				<stop  offset="0" style="stop-color:#EF5383"/>
				<stop  offset="2.871445e-03" style="stop-color:#EE5383"/>
				<stop  offset="0.2636" style="stop-color:#945F9D"/>
				<stop  offset="0.4466" style="stop-color:#5C67AD"/>
				<stop  offset="0.5344" style="stop-color:#466AB3"/>
				<stop  offset="0.6247" style="stop-color:#4A77BB"/>
				<stop  offset="0.7923" style="stop-color:#569AD1"/>
				<stop  offset="1" style="stop-color:#67CDF1"/>
			</linearGradient>
			<path class="st2" d="M177.8,89.4h-18.4V121h-33.7V2h54.4c10.8,0,20.1,1.8,28.1,5.4c7.9,3.6,14.1,8.7,18.4,15.3
				c4.3,6.6,6.5,14.4,6.5,23.4c0,8.6-2,16.1-6,22.5s-9.8,11.4-17.3,15l25.7,37.4h-36L177.8,89.4z M193.8,33.1
				c-3.5-3.1-8.7-4.6-15.6-4.6h-18.7v34.8h18.7c6.9,0,12.1-1.5,15.6-4.5s5.3-7.3,5.3-12.8S197.3,36.2,193.8,33.1z"/>
			
				<linearGradient id="SVGID_3_" gradientUnits="userSpaceOnUse" x1="301.9" y1="4" x2="301.9" y2="123" gradientTransform="matrix(1 0 0 -1 1 125)">
				<stop  offset="0" style="stop-color:#EF5383"/>
				<stop  offset="2.871445e-03" style="stop-color:#EE5383"/>
				<stop  offset="0.2636" style="stop-color:#945F9D"/>
				<stop  offset="0.4466" style="stop-color:#5C67AD"/>
				<stop  offset="0.5344" style="stop-color:#466AB3"/>
				<stop  offset="0.6247" style="stop-color:#4A77BB"/>
				<stop  offset="0.7923" style="stop-color:#569AD1"/>
				<stop  offset="1" style="stop-color:#67CDF1"/>
			</linearGradient>
			<path class="st3" d="M350.6,95v26h-95.5V2h93.3v26h-60v20.1h52.9v25.2h-52.9v21.8h62.2V95z"/>
			
				<linearGradient id="SVGID_4_" gradientUnits="userSpaceOnUse" x1="428.35" y1="4" x2="428.35" y2="123" gradientTransform="matrix(1 0 0 -1 1 125)">
				<stop  offset="0" style="stop-color:#EF5383"/>
				<stop  offset="2.871445e-03" style="stop-color:#EE5383"/>
				<stop  offset="0.2636" style="stop-color:#945F9D"/>
				<stop  offset="0.4466" style="stop-color:#5C67AD"/>
				<stop  offset="0.5344" style="stop-color:#466AB3"/>
				<stop  offset="0.6247" style="stop-color:#4A77BB"/>
				<stop  offset="0.7923" style="stop-color:#569AD1"/>
				<stop  offset="1" style="stop-color:#67CDF1"/>
			</linearGradient>
			<path class="st4" d="M485.9,2v119h-27.7l-52.5-63.4V121h-33V2h27.7l52.5,63.4V2H485.9z"/>
			
				<linearGradient id="SVGID_5_" gradientUnits="userSpaceOnUse" x1="573.55" y1="4.1" x2="573.55" y2="123" gradientTransform="matrix(1 0 0 -1 1 125)">
				<stop  offset="0" style="stop-color:#EF5383"/>
				<stop  offset="2.871445e-03" style="stop-color:#EE5383"/>
				<stop  offset="0.2636" style="stop-color:#945F9D"/>
				<stop  offset="0.4466" style="stop-color:#5C67AD"/>
				<stop  offset="0.5344" style="stop-color:#466AB3"/>
				<stop  offset="0.6247" style="stop-color:#4A77BB"/>
				<stop  offset="0.7923" style="stop-color:#569AD1"/>
				<stop  offset="1" style="stop-color:#67CDF1"/>
			</linearGradient>
			<path class="st5" d="M513.2,2h56.3c13,0,24.6,2.4,34.7,7.3c10.1,4.9,17.9,11.8,23.5,20.7c5.6,9,8.3,19.4,8.3,31.5
				c0,12-2.8,22.5-8.3,31.4c-5.6,9-13.4,15.9-23.5,20.7c-10.1,4.9-21.6,7.3-34.7,7.3h-56.3V2z M568,94.1c10.2,0,18.4-2.9,24.6-8.7
				c6.2-5.8,9.3-13.8,9.3-24s-3.1-18.2-9.3-24s-14.4-8.7-24.6-8.7h-21.2V94L568,94.1L568,94.1z"/>
		</g>
		<g>
			
				<linearGradient id="SVGID_6_" gradientUnits="userSpaceOnUse" x1="57.65" y1="2" x2="57.65" y2="121" gradientTransform="matrix(1 0 0 -1 1 125)">
				<stop  offset="0" style="stop-color:#EF5383"/>
				<stop  offset="2.871445e-03" style="stop-color:#EE5383"/>
				<stop  offset="0.2636" style="stop-color:#945F9D"/>
				<stop  offset="0.4466" style="stop-color:#5C67AD"/>
				<stop  offset="0.5344" style="stop-color:#466AB3"/>
				<stop  offset="0.6247" style="stop-color:#4A77BB"/>
				<stop  offset="0.7923" style="stop-color:#569AD1"/>
				<stop  offset="1" style="stop-color:#67CDF1"/>
			</linearGradient>
			<path class="st6" d="M41.8,30.7H5.3V4h106.6v26.7H75.5V123H41.8V30.7z"/>
			
				<linearGradient id="SVGID_7_" gradientUnits="userSpaceOnUse" x1="181.65" y1="2" x2="181.65" y2="121" gradientTransform="matrix(1 0 0 -1 1 125)">
				<stop  offset="0" style="stop-color:#EF5383"/>
				<stop  offset="2.871445e-03" style="stop-color:#EE5383"/>
				<stop  offset="0.2636" style="stop-color:#945F9D"/>
				<stop  offset="0.4466" style="stop-color:#5C67AD"/>
				<stop  offset="0.5344" style="stop-color:#466AB3"/>
				<stop  offset="0.6247" style="stop-color:#4A77BB"/>
				<stop  offset="0.7923" style="stop-color:#569AD1"/>
				<stop  offset="1" style="stop-color:#67CDF1"/>
			</linearGradient>
			<path class="st7" d="M179.8,91.4h-18.4V123h-33.7V4h54.4c10.8,0,20.1,1.8,28.1,5.4c7.9,3.6,14.1,8.7,18.4,15.3
				c4.3,6.6,6.5,14.4,6.5,23.4c0,8.6-2,16.1-6,22.5s-9.8,11.4-17.3,15l25.7,37.4h-36L179.8,91.4z M195.8,35.1
				c-3.5-3.1-8.7-4.6-15.6-4.6h-18.7v34.8h18.7c6.9,0,12.1-1.5,15.6-4.5s5.3-7.3,5.3-12.8S199.3,38.2,195.8,35.1z"/>
			
				<linearGradient id="SVGID_8_" gradientUnits="userSpaceOnUse" x1="303.9" y1="2" x2="303.9" y2="121" gradientTransform="matrix(1 0 0 -1 1 125)">
				<stop  offset="0" style="stop-color:#EF5383"/>
				<stop  offset="2.871445e-03" style="stop-color:#EE5383"/>
				<stop  offset="0.2636" style="stop-color:#945F9D"/>
				<stop  offset="0.4466" style="stop-color:#5C67AD"/>
				<stop  offset="0.5344" style="stop-color:#466AB3"/>
				<stop  offset="0.6247" style="stop-color:#4A77BB"/>
				<stop  offset="0.7923" style="stop-color:#569AD1"/>
				<stop  offset="1" style="stop-color:#67CDF1"/>
			</linearGradient>
			<path class="st8" d="M352.6,97v26h-95.5V4h93.3v26h-60v20.1h52.9v25.2h-52.9v21.8h62.2V97z"/>
			
				<linearGradient id="SVGID_9_" gradientUnits="userSpaceOnUse" x1="430.35" y1="2" x2="430.35" y2="121" gradientTransform="matrix(1 0 0 -1 1 125)">
				<stop  offset="0" style="stop-color:#EF5383"/>
				<stop  offset="2.871445e-03" style="stop-color:#EE5383"/>
				<stop  offset="0.2636" style="stop-color:#945F9D"/>
				<stop  offset="0.4466" style="stop-color:#5C67AD"/>
				<stop  offset="0.5344" style="stop-color:#466AB3"/>
				<stop  offset="0.6247" style="stop-color:#4A77BB"/>
				<stop  offset="0.7923" style="stop-color:#569AD1"/>
				<stop  offset="1" style="stop-color:#67CDF1"/>
			</linearGradient>
			<path class="st9" d="M487.9,4v119h-27.7l-52.5-63.4V123h-33V4h27.7l52.5,63.4V4H487.9z"/>
			
				<linearGradient id="SVGID_10_" gradientUnits="userSpaceOnUse" x1="575.55" y1="2.1" x2="575.55" y2="121" gradientTransform="matrix(1 0 0 -1 1 125)">
				<stop  offset="0" style="stop-color:#EF5383"/>
				<stop  offset="2.871445e-03" style="stop-color:#EE5383"/>
				<stop  offset="0.2636" style="stop-color:#945F9D"/>
				<stop  offset="0.4466" style="stop-color:#5C67AD"/>
				<stop  offset="0.5344" style="stop-color:#466AB3"/>
				<stop  offset="0.6247" style="stop-color:#4A77BB"/>
				<stop  offset="0.7923" style="stop-color:#569AD1"/>
				<stop  offset="1" style="stop-color:#67CDF1"/>
			</linearGradient>
			<path class="st10" d="M515.2,4h56.3c13,0,24.6,2.4,34.7,7.3c10.1,4.9,17.9,11.8,23.5,20.7c5.6,9,8.3,19.4,8.3,31.5
				c0,12-2.8,22.5-8.3,31.4c-5.6,9-13.4,15.9-23.5,20.7c-10.1,4.9-21.6,7.3-34.7,7.3h-56.3V4z M570,96.1c10.2,0,18.4-2.9,24.6-8.7
				c6.2-5.8,9.3-13.8,9.3-24s-3.1-18.2-9.3-24s-14.4-8.7-24.6-8.7h-21.2V96L570,96.1L570,96.1z"/>
		</g>
	</g>
	<g>
		
			<linearGradient id="SVGID_11_" gradientUnits="userSpaceOnUse" x1="55.6" y1="5" x2="55.6" y2="122" gradientTransform="matrix(1 0 0 -1 0 124)">
			<stop  offset="0" style="stop-color:#DFF3FB"/>
			<stop  offset="0.1874" style="stop-color:#E8F6FC"/>
			<stop  offset="0.6528" style="stop-color:#F9FDFE"/>
			<stop  offset="1" style="stop-color:#FFFFFF"/>
		</linearGradient>
		<polygon class="st11" points="39.8,119 39.8,26.7 3.3,26.7 3.3,2 107.8,2 107.8,26.7 71.5,26.7 71.5,119 		"/>
		
			<linearGradient id="SVGID_12_" gradientUnits="userSpaceOnUse" x1="179.25" y1="5" x2="179.25" y2="122" gradientTransform="matrix(1 0 0 -1 0 124)">
			<stop  offset="0" style="stop-color:#DFF3FB"/>
			<stop  offset="0.1874" style="stop-color:#E8F6FC"/>
			<stop  offset="0.6528" style="stop-color:#F9FDFE"/>
			<stop  offset="1" style="stop-color:#FFFFFF"/>
		</linearGradient>
		<path class="st12" d="M199.1,119l-21.6-31.6h-19.9V119h-31.7V2h53.4c10.6,0,19.9,1.8,27.6,5.3c7.7,3.5,13.7,8.5,17.9,14.9
			s6.3,14.1,6.3,22.8c0,8.4-2,15.8-5.9,22s-9.6,11.2-16.8,14.7l-1,0.5l25.3,36.8H199.1z M157.6,63.4h19.7c7.1,0,12.6-1.6,16.3-4.7
			c3.7-3.2,5.6-7.8,5.6-13.6s-1.9-10.4-5.6-13.7c-3.7-3.2-9.2-4.8-16.3-4.8h-19.7V63.4z"/>
		
			<linearGradient id="SVGID_13_" gradientUnits="userSpaceOnUse" x1="301.85" y1="5" x2="301.85" y2="122" gradientTransform="matrix(1 0 0 -1 0 124)">
			<stop  offset="0" style="stop-color:#DFF3FB"/>
			<stop  offset="0.1874" style="stop-color:#E8F6FC"/>
			<stop  offset="0.6528" style="stop-color:#F9FDFE"/>
			<stop  offset="1" style="stop-color:#FFFFFF"/>
		</linearGradient>
		<polygon class="st13" points="255.1,119 255.1,2 346.4,2 346.4,26 286.3,26 286.3,48.1 339.2,48.1 339.2,71.2 286.3,71.2 
			286.3,95 348.6,95 348.6,119 		"/>
		
			<linearGradient id="SVGID_14_" gradientUnits="userSpaceOnUse" x1="428.35" y1="5" x2="428.35" y2="122" gradientTransform="matrix(1 0 0 -1 0 124)">
			<stop  offset="0" style="stop-color:#DFF3FB"/>
			<stop  offset="0.1874" style="stop-color:#E8F6FC"/>
			<stop  offset="0.6528" style="stop-color:#F9FDFE"/>
			<stop  offset="1" style="stop-color:#FFFFFF"/>
		</linearGradient>
		<polygon class="st14" points="457.6,119 403.6,53.8 403.6,119 372.7,119 372.7,2 398.9,2 452.9,67.2 452.9,2 483.9,2 483.9,119 		
			"/>
		
			<linearGradient id="SVGID_15_" gradientUnits="userSpaceOnUse" x1="573.5" y1="5" x2="573.5" y2="122" gradientTransform="matrix(1 0 0 -1 0 124)">
			<stop  offset="0" style="stop-color:#DFF3FB"/>
			<stop  offset="0.1874" style="stop-color:#E8F6FC"/>
			<stop  offset="0.6528" style="stop-color:#F9FDFE"/>
			<stop  offset="1" style="stop-color:#FFFFFF"/>
		</linearGradient>
		<path class="st15" d="M513.2,119V2h55.3c12.8,0,24.3,2.4,34.2,7.2s17.6,11.6,23,20.4s8.2,19.2,8.2,30.9c0,11.8-2.8,22.2-8.2,30.9
			c-5.4,8.8-13.2,15.6-23,20.4c-9.9,4.8-21.4,7.2-34.2,7.2H513.2z M544.8,94.1H567c10.4,0,18.9-3,25.2-8.9c6.4-6,9.6-14.3,9.6-24.7
			s-3.2-18.8-9.6-24.7c-6.3-5.9-14.8-8.9-25.2-8.9h-22.2V94.1z"/>
	</g>
</g>
</svg>
