<?xml version="1.0" encoding="utf-8"?>
<!-- Generator: Adobe Illustrator 25.0.0, SVG Export Plug-In . SVG Version: 6.00 Build 0)  -->
<svg version="1.1" id="Layer_1" xmlns="http://www.w3.org/2000/svg" xmlns:xlink="http://www.w3.org/1999/xlink" x="0px" y="0px"
	 viewBox="0 0 1769.6 1769.6" style="enable-background:new 0 0 1769.6 1769.6;" xml:space="preserve">
<style type="text/css">
	.st0{fill-rule:evenodd;clip-rule:evenodd;fill:#FFFFFF;}
	.st1{fill-rule:evenodd;clip-rule:evenodd;fill:#6457EA;}
</style>
<g>
	<circle class="st0" cx="-1036.2" cy="884.8" r="884.8"/>
	<path class="st1" d="M-563.1,523.8c48.6,63.6,84.6,137.2,104.4,217.2c5.6-1.5,11.5-2.4,17.5-2.4c36.3,0,66.1,29.7,66.1,66.1v160.1
		c0,36.3-29.7,66.1-66.1,66.1c-6.1,0-11.9-0.8-17.5-2.4c-32.8,132-109.5,246.6-213.9,327.2c88.9,45.6,168.2,107.4,233.9,181.5
		c176.5-161.8,287.2-394.2,287.2-652.5C-151.4,396.1-547.5,0-1036.2,0S-1921,396.1-1921,884.8c0,258.3,110.7,490.7,287.2,652.5
		c65.7-74.1,144.9-135.9,233.9-181.5c-104.3-80.7-181.1-195.3-213.9-327.2c-5.6,1.5-11.5,2.4-17.5,2.4c-36.3,0-66.1-29.7-66.1-66.1
		V804.7c0-36.3,29.7-66.1,66.1-66.1c6.1,0,11.9,0.8,17.5,2.4c64.3-259.2,298.5-451.3,577.6-451.3c156.5,0,298.8,60.4,405,159.1
		v-88.4c-22.5-12.1-37.8-35.9-37.8-63.3c0-39.7,32.2-71.8,71.8-71.8c39.7,0,71.8,32.2,71.8,71.8c0,27.3-15.3,51.1-37.8,63.3v163.4
		H-563.1z M-1109.6,1123.9L-1109.6,1123.9L-1109.6,1123.9z M-1205.9,1070.2L-1205.9,1070.2L-1205.9,1070.2z M-1111.2,645.3
		c6.6,1.7,13.1,4.3,19.3,7.9l284.2,164.1c6.1,3.5,11.6,7.8,16.4,12.6l0.5,0.5l0.1,0.1c4.4,4.5,8.2,9.6,11.5,15.2
		c7.1,12.3,10.4,25.7,10.4,39s-3.3,26.7-10.4,39c-3.3,5.7-7.1,10.7-11.5,15.2l-0.1,0.1l-0.5,0.5c-4.8,4.8-10.2,9.1-16.4,12.6
		l-284.2,164.1c-5.7,3.3-11.6,5.8-17.7,7.5l-1.1,0.3c-6.5,1.7-13.2,2.7-20.2,2.7c-13.6,0-26.4-3.5-37.5-9.7l-1.2-0.7l-0.1-0.1
		c-11.6-6.6-21.6-16.2-28.7-28.5c-3.3-5.7-5.8-11.6-7.5-17.7l-0.3-1.1c-1.7-6.5-2.7-13.2-2.7-20.2v-328c0-6.6,0.8-13,2.4-19.1l0,0
		l0.3-1c1.7-6.5,4.3-12.8,7.8-18.9c7.1-12.3,17.2-22,28.8-28.6l1.2-0.7h0.1c11.1-6.1,23.9-9.6,37.5-9.6c6.4,0,12.7,0.8,18.6,2.3
		l0.4,0.1l0.4,0.1H-1111.2L-1111.2,645.3z M-993.9,1268.3c165-3.2,379.9-50.7,379.9-383.5s-214.9-380.2-379.9-383.5h-84.7
		c-165,3.2-379.9,50.7-379.9,383.5s214.9,380.2,379.9,383.5H-993.9L-993.9,1268.3z"/>
</g>
<g>
	<circle class="st0" cx="884.8" cy="884.7" r="813.3"/>
	<g>
		<path class="st1" d="M1297.6,884.7c0-325.3-210-371.7-371.4-374.8h-82.8C682.1,513,472,559.4,472,884.7
			c0,325.3,210.1,371.7,371.4,374.8h82.8C1087.5,1256.4,1297.6,1210,1297.6,884.7z M1136,922.8c-3.2,5.5-7,10.5-11.2,14.9l-0.1,0.1
			l-0.5,0.5c-4.7,4.7-10,8.9-16,12.4l-277.8,160.4c-5.6,3.2-11.4,5.6-17.3,7.3l-1,0.3c-6.3,1.7-12.9,2.6-19.8,2.6
			c-13.3,0-25.8-3.4-36.7-9.5l-1.2-0.7l-0.1-0.1c-11.3-6.5-21.1-15.9-28-27.9c-3.2-5.6-5.6-11.4-7.3-17.3l-0.3-1
			c-1.7-6.3-2.6-12.9-2.6-19.8V724.3c0-6.4,0.8-12.7,2.3-18.6l0,0l0.3-1c1.7-6.3,4.2-12.5,7.6-18.5c7-12.1,16.8-21.5,28.1-28
			l1.2-0.7l0.1,0c10.9-6,23.4-9.4,36.6-9.4c6.3,0,12.4,0.8,18.2,2.2l0.4,0.1l0.4,0.1l0.3,0.1c6.5,1.7,12.8,4.2,18.9,7.7l277.8,160.4
			c6,3.5,11.3,7.6,16,12.3l0.5,0.5l0.1,0.1c4.3,4.4,8.1,9.4,11.2,14.9c6.9,12,10.2,25.1,10.2,38.1
			C1146.2,897.7,1143,910.8,1136,922.8z"/>
		<path class="st1" d="M1533.1,1457c7.5-8.5,14.9-17.3,22.1-26.1c1.6-1.9,3.2-3.8,4.8-5.8c8.6-10.7,17-21.7,25.1-32.9
			c1.6-2.3,3.1-4.6,4.8-6.9c5.3-7.5,10.6-15,15.7-22.6c0,0-0.1,0-0.1,0c91-136.9,144.2-301.2,144.2-477.9
			c0-477.7-387.2-864.9-864.9-864.9C407.1,19.8,19.9,407,19.9,884.7c0,237.4,95.7,452.5,250.7,608.8c0,0.1-0.1,0.1-0.1,0.2
			c87.7,88.6,195.9,159.5,320.9,204.6c312.9,112.9,648,34,877.5-175.9c0,0,0,0,0,0.1c1.5-1.4,2.9-2.8,4.3-4.2
			c8.3-7.7,16.4-15.5,24.4-23.5c2.3-2.3,4.6-4.7,6.8-7c7.6-7.8,15-15.7,22.2-23.7C1528.9,1461.7,1531,1459.4,1533.1,1457z
			 M687.4,1431.9c-59.9-21.6-113.9-52.2-161.4-89.5c-10.8-8.4-21.2-17.2-31.4-26.4c-1-0.9-2-1.7-3-2.6
			c-11.3-10.4-22.1-21.2-32.6-32.4c-1.7-1.9-3.4-3.9-5.1-5.8c-63.5-70-110.3-155.3-133.8-250c-5.5,1.5-11.2,2.3-17.1,2.3
			c-35.5,0-64.6-29.1-64.6-64.6V806.4c0-35.5,29.1-64.6,64.6-64.6c5.9,0,11.7,0.8,17.1,2.3C383.1,490.8,612,303,884.8,303
			c152.9,0,292.1,59,395.9,155.5v-86.4c-22-11.9-36.9-35.1-36.9-61.8c0-38.8,31.4-70.2,70.2-70.2c38.8,0,70.2,31.4,70.2,70.2
			c0,26.7-14.9,50-36.9,61.8v159.8c47.5,62.1,82.7,134.1,102.1,212.3c5.5-1.5,11.2-2.3,17.1-2.3c35.5,0,64.6,29.1,64.6,64.6V963
			c0,35.5-29.1,64.6-64.6,64.6c-5.9,0-11.7-0.8-17.1-2.3c-22.4,90.4-66.4,172.2-125.6,240.4c-7.8,9-15.8,17.7-24.1,26.1
			c-2.1,2.1-4.2,4.2-6.3,6.3c-8.7,8.6-17.6,17-26.8,25c-1.4,1.3-2.9,2.4-4.4,3.7C1108.5,1457.8,891.1,1505.4,687.4,1431.9z"/>
	</g>
</g>
</svg>
