<?xml version="1.0" encoding="utf-8"?>
<!-- Generator: Adobe Illustrator 25.0.0, SVG Export Plug-In . SVG Version: 6.00 Build 0)  -->
<svg version="1.1" xmlns="http://www.w3.org/2000/svg" xmlns:xlink="http://www.w3.org/1999/xlink" x="0px" y="0px"
	 viewBox="0 0 224.1 211.5" style="enable-background:new 0 0 224.1 211.5;" xml:space="preserve">
<style type="text/css">
	.st0{display:none;}
	.st1{fill:#1C75BC;}
	.st2{fill:url(#SVGID_1_);}
	.st3{fill:url(#SVGID_2_);}
	.st4{fill:#FFFFFF;}
	.st5{fill:url(#SVGID_3_);}
</style>
<g id="Layer_1" class="st0">
	
		<image style="display:inline;overflow:visible;" width="300" height="279" xlink:href="E2C933D8.jpg"  transform="matrix(0.75 0 0 0.75 -1.082 1.5645)">
	</image>
</g>
<g id="Layer_2">
	<g>
		<path class="st1" d="M181.2,157.9c3.4-16.4-2-37.9-14.7-59.1l0.6-2.5l8.6-33.7l1.4-5.5h-5.7h-30.2h0c-0.4,0-4.1,0.1-9,1.8
			c-34.3-28.9-73.8-37.8-93-19.2C22.4,56,26.4,88.8,46.7,120.4l-5.7,23.2l-1.4,5.5h5.6h25c36,34.9,80.7,47.1,101.5,26.9
			c4.4-4.2,7.3-9.6,9-15.8c0.7-1.1,1.1-1.9,1.1-2L181.2,157.9z M167.5,148.2c-7.8,8.5-23.4,8.1-40.9,0.8h7.1c6.9,0,21.1-5.1,26-24.6
			l4.3-17.2l0.1-0.3C173.5,123.9,175.5,139.5,167.5,148.2z M58.7,50.3c11.1-12.1,38.5-6.4,65.3,12.9c-2.1,1.6-4.2,3.5-6.1,6
			c-0.4-2.8-1.4-5.2-2.9-7.1c-3.5-4.5-8.5-5-10.5-5c-0.3,0-0.6,0-0.8,0H67.3h-3.4l-0.9,3.3l-4.5,17.1l-3.9-5.9
			C52.9,62.8,54.1,55.3,58.7,50.3z"/>
		<g>
			<linearGradient id="SVGID_1_" gradientUnits="userSpaceOnUse" x1="30.4499" y1="61.0047" x2="156.7384" y2="175.8793">
				<stop  offset="0" style="stop-color:#5CA8E6"/>
				<stop  offset="0.17" style="stop-color:#FFFFFF"/>
				<stop  offset="0.66" style="stop-color:#FFFFFF"/>
				<stop  offset="1" style="stop-color:#5CA8E6"/>
			</linearGradient>
			<path class="st2" d="M99,130.4c0,0,7.5-26.2,13.3-48.3c5.9-22.1-8.4-20.6-8.4-20.6H67.3L56,103.9c0.9-3.8-1.8-4.7-1.8-4.7
				l4.3-13.8c0,0,0,0-8.6-12.9c-8.6-12.9-6.1-25.3-6.1-25.3s-8.4,6.1-8.4,21.2c0,24.6,28,53.1,28,53.1c-4.3-4.5-11.7-3.4-11.7-3.4
				l-6.5,26.4h26.9C96,144.6,99,130.4,99,130.4z M92.2,79.1c-2.3,8.4-12.9,46.3-12.9,46.3s-1.4,9.7-12.2,9.7c0,0,2.3-0.7,4.5-8.8
				l13.1-49.5c0,0,2.3-6.3-1.4-6.3h6.5C89.9,70.5,94.4,70.7,92.2,79.1z"/>
			<linearGradient id="SVGID_2_" gradientUnits="userSpaceOnUse" x1="32.5068" y1="58.7465" x2="158.7931" y2="173.6191">
				<stop  offset="0" style="stop-color:#5CA8E6"/>
				<stop  offset="0.17" style="stop-color:#FFFFFF"/>
				<stop  offset="0.66" style="stop-color:#FFFFFF"/>
				<stop  offset="1" style="stop-color:#5CA8E6"/>
			</linearGradient>
			<path class="st3" d="M158.6,163.8c-25.7,0-58.5-26.9-58.5-26.9c-4.1,8.8-10.2,8.6-10.2,8.6s30.5,24.4,61.7,24.4
				c20.1,0,26.2-13.6,26.2-13.6S173.3,163.8,158.6,163.8z"/>
		</g>
		<path class="st4" d="M108.4,140.6c1.9,1.1,7.5,4,7.5,4s11.7,0,17.8,0c5.2,0,17.4-4.1,21.7-21.2c4.3-17.2,4.3-17.2,4.3-17.2h-21.2
			l-4.7,18.1c0,0-1.1,10.4-12.6,10.6c0.7-0.2,2.6-1.6,5.2-11.5c3.2-12.4,10.4-40.7,10.4-40.7s2.7-12.4,14.7-12.4
			c0,0-3.2,0.2-6.1,11.3c-2.9,11.1-3.8,13.6-3.8,13.6h21.5l8.6-33.7h-30.3c0,0-19.4-0.2-25.7,22.6c-6.3,22.8-13.8,51.7-13.8,51.7
			S106.7,139.6,108.4,140.6z"/>
		<linearGradient id="SVGID_3_" gradientUnits="userSpaceOnUse" x1="178.4041" y1="142.2356" x2="156.3132" y2="161.7493">
			<stop  offset="0" style="stop-color:#1C75BC"/>
			<stop  offset="1" style="stop-color:#5CA8E6"/>
		</linearGradient>
		<path class="st5" d="M177.2,115.6c0,0,3.3,4.7,5,10.6c1.7,6,2.6,11,2.6,11l8.9,7.7c0,0-0.2,2.7-6.2,6.3l-0.4,20.6
			c0,0-3.1-8.6-9.2-15.7c0,0-5.2,6.2-20.1,6.2l-0.4-0.1c0,0,8.5-5.1,12.7-18.2c0,0-4.6-9.3-14.4-18.9c0,0,11.1,0.3,18.7,5.6
			C174.4,130.7,177.4,125.3,177.2,115.6z"/>
		<path class="st4" d="M178.9,121.9c0,0,2.3,4.1,3.5,8.7c1.2,4.6,1.3,8.4,1.3,8.4l7.2,5.6c0,0-0.6,2.3-5,5.1l-0.1,14.5
			c0,0-2-5.4-6.5-10.9c0,0-3.8,4.8-14.6,4.8l-0.3-0.1c0,0,7.3-4.5,10.4-14.7c0,0-4.5-6.6-11.6-14.1c0,0,8.6,1.5,14.2,5.6
			C177.4,134.8,179,129.4,178.9,121.9z"/>
	</g>
</g>
</svg>
