<?xml version="1.0" encoding="utf-8"?>
<!-- Generator: Adobe Illustrator 25.0.0, SVG Export Plug-In . SVG Version: 6.00 Build 0)  -->
<svg version="1.1" id="svg2" xmlns="http://www.w3.org/2000/svg" xmlns:xlink="http://www.w3.org/1999/xlink" x="0px" y="0px"
	 viewBox="0 0 1007.1 1828" style="enable-background:new 0 0 1007.1 1828;" xml:space="preserve">
<style type="text/css">
	.st0{fill:#B1060F;stroke:#000000;stroke-width:0.9519;stroke-miterlimit:3.8076;}
	.st1{fill:url(#path5719_1_);}
	.st2{fill:#E50914;}
</style>
<g id="layer1" transform="translate(12.495 6.756)">
	<g id="g4182">
		<g id="g5747" transform="translate(81.631 113.771) scale(.29074)">
			<path id="path4155" class="st0" d="M1905.3-409.9l-2.5,1389.5l-2.5,1389.5l-114.2-322.5v-0.8l-148,3093.2
				c145.5,410.2,223.3,629.5,224.1,630.1c0.8,0.8,83.6,5.8,183.6,10.8c302.7,14.8,678.2,47.1,963.6,82.7
				c66.1,8.3,122.4,12.5,126.5,9.2c4.2-3.3,5-1417.6,4.2-3143.7l-2.5-3137.9L1905.3-409.9L1905.3-409.9z"/>
			<path id="path4157" class="st0" d="M-323.7-414v3141.2c0,1727.8,1.7,3142.9,4.2,3145.4c2.5,2.5,109.2-8.3,238.2-22.3
				s306.8-32.3,395.4-39.6c135.7-11.7,542.6-37.3,588.8-38.1c14,0,14.8-70.3,16.5-1330.7l2.5-1330.7l98.4,277.9
				c14.8,43,19.8,56.3,34.8,98.4l148-3092.4c-31.5-88.6-14.8-42.1-50.4-143C1031.9-89.7,929.4-378.2,925.2-391.6l-8.3-23.1H-323.7
				L-323.7-414z"/>
			<path id="path5715" class="st0" d="M1905.3-409.9l-2.5,1389.5l-2.5,1389.5l-114.2-322.5v-0.8l-148,3093.2
				c145.5,410.2,223.3,629.5,224.1,630.1c0.8,0.8,83.6,5.8,183.6,10.8c302.7,14.8,678.2,47.1,963.6,82.7
				c66.1,8.3,122.4,12.5,126.5,9.2c4.2-3.3,5-1417.6,4.2-3143.7l-2.5-3137.9L1905.3-409.9L1905.3-409.9z"/>
			<path id="path5717" class="st0" d="M-323.7-414v3141.2c0,1727.8,1.7,3142.9,4.2,3145.4c2.5,2.5,109.2-8.3,238.2-22.3
				s306.8-32.3,395.4-39.6c135.7-11.7,542.6-37.3,588.8-38.1c14,0,14.8-70.3,16.5-1330.7l2.5-1330.7l98.4,277.9
				c14.8,43,19.8,56.3,34.8,98.4l148-3092.4c-31.5-88.6-14.8-42.1-50.4-143C1031.9-89.7,929.4-378.2,925.2-391.6l-8.3-23.1H-323.7
				L-323.7-414z"/>
			
				<radialGradient id="path5719_1_" cx="232986.4844" cy="-16787.1992" r="270.796" gradientTransform="matrix(6.730631e-02 -2.331232e-02 -0.8539 -2.466 -28670.3789 -33273.5195)" gradientUnits="userSpaceOnUse">
				<stop  offset="0" style="stop-color:#000000"/>
				<stop  offset="1" style="stop-color:#000000;stop-opacity:0"/>
			</radialGradient>
			<path id="path5719" class="st1" d="M-323.7-414v1763.2l1242.3,3295c0-75.2,0-116.5,0.8-202.6l2.5-1330.7l98.4,277.9
				C1566.2,4937,1859.7,5767.5,1861.3,5769c0.8,0.8,83.6,5.8,183.6,10.8c302.7,14.8,678.2,47.1,963.6,82.7
				c66.1,8.3,122.4,12.5,126.5,9.2c2.5-2.5,4.2-695.6,4.2-1674L1903.6,643l-0.8,336.6l-2.5,1389.5l-114.2-322.5
				C1674.4,1731.4,1600,1520.5,1151,251.9C1030.3-89.7,927.7-378.2,923.5-391.6l-8.3-23.1h-1239L-323.7-414L-323.7-414z"/>
			<path id="path5721" class="st2" d="M-323.7-414L921,3113.4v-1.7l98.4,277.9C1566.2,4937,1859.7,5767.5,1861.3,5769
				c0.8,0.8,83.6,5.8,183.6,10.8c302.7,14.8,678.2,47.1,963.6,82.7c65.3,8.3,122.4,12.5,125.7,9.2l-1234-3503.5v0.8l-114.2-322.5
				C1674.4,1731.4,1600,1520.5,1151,251.9C1030.3-89.7,927.7-378.2,923.5-391.6l-8.3-23.1H295.7L-323.7-414L-323.7-414z"/>
		</g>
	</g>
</g>
</svg>
