<?xml version="1.0" encoding="utf-8"?>
<!-- Generator: Adobe Illustrator 25.0.0, SVG Export Plug-In . SVG Version: 6.00 Build 0)  -->
<svg version="1.1" id="Layer_1" xmlns="http://www.w3.org/2000/svg" xmlns:xlink="http://www.w3.org/1999/xlink" x="0px" y="0px"
	 viewBox="0 0 570 153.2" style="enable-background:new 0 0 570 153.2;" xml:space="preserve">
<style type="text/css">
	.st0{fill:#ED2517;}
</style>
<g>
	<path class="st0" d="M78.2,0c-7.8,0-16.2,0-24,0c0,32.6-0.1,53.7-0.1,86.4C43.8,54.6,33.5,33.5,23.1,0C14.2,0,8.8,0,0,0
		c0,50.9,0,102,0,152.9c7.8-1.1,16.1-2.1,23.9-3.2c0-31.9,0-51.6,0.1-83.6c10.7,31.5,17.3,50,28,79.9c8.3-0.9,17.5-2.1,26-3
		C78.1,95.5,78.2,47.8,78.2,0"/>
	<path class="st0" d="M167.9,0c-22.3,0-44.2,0-66.5,0c-0.1,47.1-0.1,94.1-0.3,141.1c22.3-2,44.5-3.7,66.7-5c0-6.9,0-16.8,0-23.6
		c-14.5,0.9-28.4,1.8-42.7,2.8c0-12.7,0-23.1,0.1-35.7c10.6-0.1,21.6,0,32.5-0.3c0-6.9,0-16.9,0-23.7c-10.7,0.1-21.9,0.3-32.5,0.4
		c0-12.7,0-19.5,0.1-32.2c6.6-0.1,13.1-0.1,19.5-0.1c1.2,0,2.2,0,3.4,0c1.2,0,2.2,0,3.4,0c5.4,0,10.8,0,16.4,0
		C168.1,16.8,167.9,6.9,167.9,0"/>
	<path class="st0" d="M257.5,0.1c-24.4,0-49.6,0-74,0c0,6.9,0,16.6,0,23.5c1.1,0,2.1,0,3.2,0c3.2,0,6.5,0,9.6,0c3.2,0,6.5,0,9.6,0
		c0.8,0,1.6,0,2.5,0c0,37.9-0.1,72.6-0.1,110.4c7.8-0.3,16.2-0.5,24-0.8c0-37.7,0.1-72.2,0.1-109.9c8.3,0,16.8,0,25.1-0.1
		C257.5,16.9,257.5,6.9,257.5,0.1"/>
	<path class="st0" d="M339.8,0c-22.3,0-44.5,0-66.7,0c0,44.3,0,88.5,0,132.8c2.6,0,5.1,0,7.8,0c5.3,0,10.7,0,16,0
		c0-18.7,0-35.9,0-54.7c1.3,0,2.6,0,4,0c3.2,0,6.2,0,9.4,0s6.3,0,9.5,0c3.3,0,6.5,0,9.6,0c0-6.7,0-16.8,0-23.5c-3,0-6.1,0-9.1,0
		c-3.3,0-6.6,0-9.9,0s-6.6,0-9.8,0c-1.2,0-2.5,0-3.7,0c0-12.1,0-18.9,0-31c2.6,0,5.3,0,7.8,0c2.6,0,5.3,0,7.9,0s5.3,0,7.9,0
		c6.5,0,12.9,0,19.4,0C339.8,17,339.8,6.9,339.8,0"/>
	<path class="st0" d="M355.4,0.1c0,44.7-0.1,89.4-0.1,134c21.4,0.8,43.8,1.7,65,3.2c0-6.9,0-16.8,0-23.6c-13.5-0.8-27.6-1.7-41-2.2
		c0-38.3,0.1-72.9,0.1-111.3C371.5,0.1,363.2,0.1,355.4,0.1"/>
	<path class="st0" d="M439.9,0.1c0.1,46.2,0.1,92.5,0.3,138.6c7.8,0.7,16,1.2,23.7,2c0-46.8,0.1-93.8,0-140.6
		C456.2,0.1,447.8,0.1,439.9,0.1"/>
	<path class="st0" d="M484.5,0.1c9.6,23.3,18.3,46.8,28.1,71.6c-10.2,23.9-20.4,47.5-30.6,70.4c8.4,0.8,17,2,25.5,3
		c6.1-14.8,11.5-26.1,17.5-41.2c5.9,16.1,11.5,28.6,17.4,45.2c8.3,1.1,19.1,2.6,27.6,3.8c-10.2-27-21.2-55.3-31.4-80.7
		c10.2-24,20.4-47,31-72c-8.7,0-17.5,0-26.3,0c-6.5,15.6-10.9,25.5-17.1,40.2c-5.8-15.3-9.6-25.3-15.6-40.2
		C502.1,0.1,493.2,0.1,484.5,0.1"/>
</g>
</svg>
