<?xml version="1.0" encoding="utf-8"?>
<!-- Generator: Adobe Illustrator 25.0.0, SVG Export Plug-In . SVG Version: 6.00 Build 0)  -->
<svg version="1.1" id="svg2" xmlns="http://www.w3.org/2000/svg" xmlns:xlink="http://www.w3.org/1999/xlink" x="0px" y="0px"
	 viewBox="0 0 1650.7 1828" style="enable-background:new 0 0 1650.7 1828;" xml:space="preserve">
<style type="text/css">
	.st0{fill:#B1060F;stroke:#000000;stroke-width:3.2741;stroke-miterlimit:13.0964;}
	.st1{fill:url(#path5719_1_);}
	.st2{fill:#E50914;}
</style>
<g>
	<path d="M1610.7,1828H37.9c-22.1,0-40-17.9-40-40V40c0-22.1,17.9-40,40-40h1572.8c22.1,0,40,17.9,40,40v1748
		C1650.7,1810.1,1632.8,1828,1610.7,1828z"/>
	<g id="layer1" transform="translate(12.495 6.756)">
		<g id="g4182">
			<g id="g5747" transform="translate(81.631 113.771) scale(.29074)">
				<path id="path4155" class="st0" d="M2810,843.8l-1.5,834.6L2807,2513l-68.6-193.7v-0.5l-88.9,1858
					c87.4,246.4,134.1,378.1,134.6,378.5c0.5,0.5,50.2,3.5,110.3,6.5c181.8,8.9,407.4,28.3,578.8,49.7c39.7,5,73.5,7.5,76,5.5
					c2.5-2,3-851.5,2.5-1888.3l-1.5-1884.8L2810,843.8L2810,843.8z"/>
				<path id="path4157" class="st0" d="M1471.1,841.3v1886.8c0,1037.8,1,1887.8,2.5,1889.3c1.5,1.5,65.6-5,143.1-13.4
					c77.5-8.4,184.3-19.4,237.5-23.8c81.5-7,325.9-22.4,353.7-22.9c8.4,0,8.9-42.2,9.9-799.3l1.5-799.3l59.1,166.9
					c8.9,25.8,11.9,33.8,20.9,59.1l88.9-1857.5c-18.9-53.2-8.9-25.3-30.3-85.9c-72.5-205.2-134.1-378.5-136.6-386.5l-5-13.9h-745.2
					L1471.1,841.3z"/>
				<path id="path5715" class="st0" d="M2810,843.8l-1.5,834.6L2807,2513l-68.6-193.7v-0.5l-88.9,1858
					c87.4,246.4,134.1,378.1,134.6,378.5c0.5,0.5,50.2,3.5,110.3,6.5c181.8,8.9,407.4,28.3,578.8,49.7c39.7,5,73.5,7.5,76,5.5
					c2.5-2,3-851.5,2.5-1888.3l-1.5-1884.8L2810,843.8L2810,843.8z"/>
				<path id="path5717" class="st0" d="M1471.1,841.3v1886.8c0,1037.8,1,1887.8,2.5,1889.3c1.5,1.5,65.6-5,143.1-13.4
					c77.5-8.4,184.3-19.4,237.5-23.8c81.5-7,325.9-22.4,353.7-22.9c8.4,0,8.9-42.2,9.9-799.3l1.5-799.3l59.1,166.9
					c8.9,25.8,11.9,33.8,20.9,59.1l88.9-1857.5c-18.9-53.2-8.9-25.3-30.3-85.9c-72.5-205.2-134.1-378.5-136.6-386.5l-5-13.9h-745.2
					L1471.1,841.3z"/>
				
					<radialGradient id="path5719_1_" cx="66474.2969" cy="6624.9194" r="162.6573" gradientTransform="matrix(0.2315 -8.018269e-02 2.9369 8.4819 -32371.9258 -48154.4023)" gradientUnits="userSpaceOnUse">
					<stop  offset="0" style="stop-color:#000000"/>
					<stop  offset="1" style="stop-color:#000000;stop-opacity:0"/>
				</radialGradient>
				<path id="path5719" class="st1" d="M1471.1,841.3v1059.1l746.2,1979.2c0-45.2,0-70,0.5-121.7l1.5-799.3l59.1,166.9
					c327.9,930,504.2,1428.8,505.2,1429.7c0.5,0.5,50.2,3.5,110.3,6.5c181.8,8.9,407.4,28.3,578.8,49.7c39.7,5,73.5,7.5,76,5.5
					c1.5-1.5,2.5-417.8,2.5-1005.5L2809,1476.2l-0.5,202.2L2807,2513l-68.6-193.7c-67.1-189.3-111.8-316-381.5-1078
					c-72.5-205.2-134.1-378.5-136.6-386.5l-5-13.9h-744.2V841.3L1471.1,841.3z"/>
				<path id="path5721" class="st2" d="M1471.1,841.3l747.7,2118.8v-1l59.1,166.9c328.4,929.5,504.7,1428.3,505.7,1429.2
					c0.5,0.5,50.2,3.5,110.3,6.5c181.8,8.9,407.4,28.3,578.8,49.7c39.2,5,73.5,7.5,75.5,5.5L2807,2512.5v0.5l-68.6-193.7
					c-67.1-189.3-111.8-316-381.5-1078c-72.5-205.2-134.1-378.5-136.6-386.5l-5-13.9h-372.1L1471.1,841.3L1471.1,841.3z"/>
			</g>
		</g>
	</g>
</g>
</svg>
