<?xml version="1.0" encoding="utf-8"?>
<!-- Generator: Adobe Illustrator 25.0.0, SVG Export Plug-In . SVG Version: 6.00 Build 0)  -->
<svg version="1.1" id="Ebene_1" xmlns="http://www.w3.org/2000/svg" xmlns:xlink="http://www.w3.org/1999/xlink" x="0px" y="0px"
	 viewBox="0 0 595.3 841.9" style="enable-background:new 0 0 595.3 841.9;" xml:space="preserve">
<style type="text/css">
	.st0{fill-rule:evenodd;clip-rule:evenodd;fill:#999999;}
</style>
<g>
	<path class="st0" d="M324.4,170.8c40-52.7,95.6-53,95.6-53s8.3,49.6-31.5,97.3c-42.4,51-90.6,42.6-90.6,42.6
		S288.8,217.7,324.4,170.8z"/>
	<path class="st0" d="M303,292.5c20.6,0,58.8-28.3,108.5-28.3c85.6,0,119.2,60.9,119.2,60.9s-65.8,33.7-65.8,115.3
		c0,92.1,82,123.9,82,123.9s-57.3,161.4-134.8,161.4c-35.6,0-63.2-24-100.7-24c-38.2,0-76.1,24.9-100.8,24.9
		c-70.7,0-160-153.1-160-276.1c0-121.1,75.6-184.6,146.5-184.6C243.2,265.9,279,292.5,303,292.5z"/>
</g>
</svg>
