<?xml version="1.0" encoding="utf-8"?>
<!-- Generator: Adobe Illustrator 25.0.0, SVG Export Plug-In . SVG Version: 6.00 Build 0)  -->
<svg version="1.1" xmlns="http://www.w3.org/2000/svg" xmlns:xlink="http://www.w3.org/1999/xlink" x="0px" y="0px"
	 viewBox="0 0 171.5 171.3" style="enable-background:new 0 0 171.5 171.3;" xml:space="preserve">
<style type="text/css">
	.st0{fill:#FFFFFF;}
</style>
<g id="Background">
</g>
<g id="Objects">
	<path class="st0" d="M145.4,24.1C128.8,8,107.2,0,85.8,0c0,0,0,0,0,0c0,0,0,0,0,0c0,0,0,0,0,0C63.3,0,41,8.7,24.2,26
		c-33,34-32.1,88.2,1.9,121.1c16.6,16.1,38.2,24.1,59.6,24.1c0,0,0,0,0,0c0,0,0,0,0,0c0,0,0,0,0,0c22.4,0,44.8-8.7,61.6-26
		C180.3,111.2,179.4,57,145.4,24.1z M88.6,54.3c11.9-0.1,22.2-0.6,30.9-1.4c2,9.3,3.1,19.4,3.3,29.8H88.6V54.3z M88.6,48.6V6
		c3.2,0.6,6.3,2.1,9.4,4.5c4.6,3.6,8.8,9.1,12.5,16.3c3.1,6.1,5.7,13,7.7,20.6C109.8,48,99.9,48.5,88.6,48.6z M82.9,6v42.6
		c-11.4-0.1-21.2-0.6-29.5-1.3c1.8-6.8,4.1-13.1,6.8-18.8C66.5,15.5,74.6,7.5,82.9,6z M82.9,54.3v28.5H48.7C48.9,72.3,50,62.3,52,53
		C60.7,53.7,71,54.2,82.9,54.3z M43,82.8H5.8c0.4-12.8,3.9-25,10-36c4.9,1.5,14.8,3.9,30.6,5.6C44.3,62.1,43.2,72.4,43,82.8z
		 M43,88.5c0.2,10.4,1.3,20.7,3.3,30.4c-15.8,1.7-25.7,4.1-30.6,5.6c-6.1-10.9-9.5-23.2-10-36H43z M48.7,88.5h34.2v28.5
		c-11.9,0.1-22.2,0.6-30.9,1.4C50,109,48.9,98.9,48.7,88.5z M82.9,122.7v42.6c-3.2-0.6-6.3-2.1-9.4-4.5c-4.6-3.6-8.8-9.1-12.5-16.2
		c-3.1-6.1-5.7-13-7.7-20.6C61.7,123.2,71.5,122.7,82.9,122.7z M88.6,165.3v-42.6c11.4,0.1,21.2,0.6,29.5,1.3
		c-1.8,6.8-4.1,13.1-6.8,18.8C105,155.7,96.9,163.8,88.6,165.3z M88.6,116.9V88.5h34.2c-0.2,10.4-1.3,20.5-3.3,29.8
		C110.8,117.5,100.5,117,88.6,116.9z M128.5,88.5h37.2c-0.4,12.8-3.9,25-10,36c-4.9-1.5-14.8-3.9-30.6-5.6
		C127.2,109.1,128.3,98.8,128.5,88.5z M128.5,82.8c-0.2-10.4-1.3-20.7-3.3-30.4c15.8-1.7,25.7-4.1,30.6-5.6c6.1,10.9,9.5,23.2,10,36
		H128.5z M141.4,28.2c4.3,4.1,8,8.7,11.2,13.5c-5.1,1.4-14.5,3.5-28.8,5c-2.1-8.2-4.9-15.9-8.3-22.6c-3.6-7-7.7-12.5-12-16.5
		C117.7,10.9,130.8,17.9,141.4,28.2z M28.3,30c7.7-7.9,16.7-14,26.8-18.2c4.2-1.7,8.5-3.1,13-4.1C63.3,12,58.9,18.1,55,26
		c-3,6.3-5.5,13.3-7.4,20.7c-14.3-1.5-23.7-3.6-28.8-5C21.6,37.6,24.7,33.7,28.3,30z M30,143c-4.3-4.1-8-8.7-11.2-13.5
		c5.1-1.4,14.5-3.5,28.8-5c2.1,8.2,4.9,15.9,8.4,22.6c3.6,7,7.7,12.5,12,16.5C53.8,160.4,40.7,153.4,30,143z M143.2,141.2
		c-7.7,7.9-16.7,14-26.8,18.2c-4.2,1.7-8.5,3.1-13,4.1c4.7-4.3,9.2-10.4,13-18.4c3-6.3,5.5-13.3,7.4-20.7c14.3,1.5,23.7,3.6,28.8,5
		C149.9,133.7,146.7,137.6,143.2,141.2z"/>
</g>
</svg>
