<?xml version="1.0" encoding="utf-8"?>
<!-- Generator: Adobe Illustrator 25.0.0, SVG Export Plug-In . SVG Version: 6.00 Build 0)  -->
<svg version="1.1" id="Layer_1" xmlns="http://www.w3.org/2000/svg" xmlns:xlink="http://www.w3.org/1999/xlink" x="0px" y="0px"
	 viewBox="0 0 841.9 595.3" style="enable-background:new 0 0 841.9 595.3;" xml:space="preserve">
<style type="text/css">
	.st0{clip-path:url(#SVGID_2_);fill:url(#SVGID_3_);}
	.st1{clip-path:url(#SVGID_2_);fill:url(#SVGID_4_);}
	.st2{clip-path:url(#SVGID_2_);fill:url(#SVGID_5_);}
	.st3{clip-path:url(#SVGID_2_);fill:url(#SVGID_6_);}
	.st4{fill:#808080;}
	.st5{fill:#7F7F7F;}
	.st6{fill:#BB8545;}
	.st7{fill:#0065A5;}
</style>
<g id="PLAY">
	<defs>
		<path id="SVGID_1_" d="M696.4,708.1l-11.6-6.7c0,0-21.2-12.2-22.4-12.9c-1.2-0.7-2.5-0.3-2.5,1.2c0,2.5,0,26.1,0,26.1
			s0,25.5,0,26.6s0.9,1.6,2,1c1.1-0.6,22.9-13.2,22.9-13.2l11.6-6.7c0,0,9.9-5.7,11.2-6.4c1.3-0.8,1.2-1.8,0.1-2.4
			C706.5,713.9,696.4,708.1,696.4,708.1z"/>
	</defs>
	<clipPath id="SVGID_2_">
		<use xlink:href="#SVGID_1_"  style="overflow:visible;"/>
	</clipPath>
	<linearGradient id="SVGID_3_" gradientUnits="userSpaceOnUse" x1="674.2566" y1="687.193" x2="674.2566" y2="744.2369">
		<stop  offset="0" style="stop-color:#207CB0"/>
		<stop  offset="0.3757" style="stop-color:#3CB2BF"/>
		<stop  offset="0.7961" style="stop-color:#58E9CE"/>
		<stop  offset="1" style="stop-color:#63FFD4"/>
	</linearGradient>
	<polygon class="st0" points="659.9,687.2 659.9,715.7 659.9,744.2 688.6,715.7 	"/>
	<linearGradient id="SVGID_4_" gradientUnits="userSpaceOnUse" x1="659.8743" y1="701.3505" x2="696.3651" y2="701.3505">
		<stop  offset="0" style="stop-color:#4BC3AE"/>
		<stop  offset="1" style="stop-color:#DEE999"/>
	</linearGradient>
	<polygon class="st1" points="696.4,708.1 684.8,701.4 659.9,687 659.9,687.2 688.6,715.7 	"/>
	<linearGradient id="SVGID_5_" gradientUnits="userSpaceOnUse" x1="678.1194" y1="715.7154" x2="678.1194" y2="744.444">
		<stop  offset="0" style="stop-color:#EC403D"/>
		<stop  offset="0.384" style="stop-color:#C93B75"/>
		<stop  offset="0.7988" style="stop-color:#A636AC"/>
		<stop  offset="1" style="stop-color:#9934C2"/>
	</linearGradient>
	<polygon class="st2" points="659.9,744.2 659.9,744.4 684.8,730.1 696.4,723.4 688.6,715.7 	"/>
	<linearGradient id="SVGID_6_" gradientUnits="userSpaceOnUse" x1="699.1365" y1="708.0543" x2="699.1365" y2="723.3756">
		<stop  offset="0" style="stop-color:#FF8877"/>
		<stop  offset="0.6121" style="stop-color:#FFB175"/>
		<stop  offset="1" style="stop-color:#FFC774"/>
	</linearGradient>
	<polygon class="st3" points="696.4,708.1 688.6,715.7 696.4,723.4 709.6,715.7 	"/>
</g>
<g>
	<path class="st4" d="M488.5,308.7c-1.1,0-2.1-0.2-3-0.6c-0.9-0.4-1.6-1-2.2-1.8h-0.2c0.1,1,0.2,1.9,0.2,2.8v6.8h-2.5v-24h2l0.3,2.3
		h0.1c0.6-0.9,1.4-1.6,2.3-2c0.9-0.4,1.8-0.6,3-0.6c2.2,0,3.9,0.8,5.1,2.3c1.2,1.5,1.8,3.6,1.8,6.3c0,2.7-0.6,4.8-1.8,6.4
		C492.3,307.9,490.6,308.7,488.5,308.7z M488.1,293.6c-1.7,0-2.9,0.5-3.7,1.4c-0.8,0.9-1.1,2.4-1.2,4.5v0.6c0,2.3,0.4,4,1.2,5
		c0.8,1,2,1.5,3.7,1.5c1.4,0,2.6-0.6,3.4-1.7c0.8-1.2,1.2-2.8,1.2-4.8c0-2.1-0.4-3.7-1.2-4.8C490.7,294.2,489.6,293.6,488.1,293.6z"
		/>
	<path class="st4" d="M501.2,308.4h-2.5v-23.6h2.5V308.4z"/>
	<path class="st4" d="M515.6,308.4l-0.5-2.4H515c-0.8,1-1.7,1.7-2.5,2.1c-0.8,0.4-1.8,0.6-3.1,0.6c-1.6,0-2.9-0.4-3.9-1.3
		c-0.9-0.8-1.4-2.1-1.4-3.6c0-3.3,2.7-5.1,8-5.3l2.8-0.1v-1c0-1.3-0.3-2.3-0.8-2.9c-0.6-0.6-1.5-0.9-2.7-0.9c-1.4,0-2.9,0.4-4.7,1.3
		l-0.8-1.9c0.8-0.4,1.7-0.8,2.7-1c1-0.3,1.9-0.4,2.9-0.4c2,0,3.4,0.4,4.4,1.3c1,0.9,1.4,2.3,1.4,4.2v11.3H515.6z M509.9,306.6
		c1.6,0,2.8-0.4,3.7-1.3c0.9-0.9,1.3-2.1,1.3-3.6v-1.5l-2.5,0.1c-2,0.1-3.4,0.4-4.3,0.9c-0.9,0.5-1.3,1.4-1.3,2.6
		c0,0.9,0.3,1.6,0.8,2.1C508.2,306.4,509,306.6,509.9,306.6z"/>
	<path class="st4" d="M518.9,291.8h2.7l3.6,9.5c0.8,2.2,1.3,3.7,1.5,4.7h0.1c0.1-0.5,0.4-1.4,0.8-2.6c0.4-1.2,1.8-5.1,4.1-11.5h2.7
		l-7.1,18.9c-0.7,1.9-1.5,3.2-2.5,4c-0.9,0.8-2.1,1.2-3.5,1.2c-0.8,0-1.5-0.1-2.3-0.3v-2c0.6,0.1,1.2,0.2,1.9,0.2c1.7,0,3-1,3.7-2.9
		l0.9-2.4L518.9,291.8z"/>
</g>
<g>
	<path class="st5" d="M441.9,293.3c0.8,0.7,2.5,2,2.5,4.7c0,2.6-1.5,3.8-2.9,4.9c-0.5,0.5-1,0.9-1,1.7c0,0.8,0.5,1.2,0.9,1.5l1.2,1
		c1.5,1.3,2.9,2.5,2.9,4.9c0,3.3-3.2,6.6-9.1,6.6c-5,0-7.5-2.4-7.5-5c0-1.2,0.6-3,2.7-4.2c2.1-1.3,5.1-1.5,6.6-1.6
		c-0.5-0.6-1-1.3-1-2.4c0-0.6,0.2-0.9,0.3-1.4c-0.4,0-0.8,0.1-1.1,0.1c-3.7,0-5.8-2.7-5.8-5.4c0-1.6,0.7-3.4,2.2-4.6
		c2-1.6,4.3-1.9,6.2-1.9h7.1l-2.2,1.2H441.9z M439.5,308.7c-0.3,0-0.5,0-0.8,0c-0.3,0-2.2,0.1-3.6,0.6c-0.8,0.3-3,1.1-3,3.6
		c0,2.5,2.4,4.2,6.1,4.2c3.3,0,5.1-1.6,5.1-3.7C443.2,311.5,442.1,310.6,439.5,308.7z M440.5,302.1c0.8-0.8,0.9-1.9,0.9-2.5
		c0-2.5-1.5-6.4-4.4-6.4c-0.9,0-1.9,0.5-2.4,1.1c-0.6,0.7-0.8,1.7-0.8,2.6c0,2.3,1.4,6.2,4.3,6.2C439,303.1,439.9,302.7,440.5,302.1
		z"/>
	<path class="st5" d="M420.1,308.2c-5.5,0-8.5-4.3-8.5-8.2c0-4.5,3.7-8.4,9-8.4c5.1,0,8.3,4,8.3,8.2
		C428.9,303.8,425.7,308.2,420.1,308.2z M424.4,305.4c0.8-1.1,1-2.5,1-3.8c0-3-1.5-8.9-5.8-8.9c-1.1,0-2.3,0.5-3.1,1.2
		c-1.4,1.2-1.6,2.7-1.6,4.2c0,3.4,1.7,9.1,5.9,9.1C422.2,307.1,423.6,306.5,424.4,305.4z"/>
	<path class="st5" d="M401.3,308.2c-5.5,0-8.5-4.3-8.5-8.2c0-4.5,3.7-8.4,9-8.4c5.1,0,8.3,4,8.3,8.2
		C410.1,303.8,407,308.2,401.3,308.2z M405.6,305.4c0.8-1.1,1-2.5,1-3.8c0-3-1.5-8.9-5.8-8.9c-1.1,0-2.3,0.5-3.1,1.2
		c-1.4,1.2-1.6,2.7-1.6,4.2c0,3.4,1.7,9.1,5.9,9.1C403.5,307.1,404.8,306.5,405.6,305.4z"/>
	<path class="st5" d="M390.2,307.6l-5,1.1c-2,0.3-3.8,0.6-5.7,0.6c-9.6,0-13.3-7.1-13.3-12.6c0-6.8,5.2-13,14.1-13
		c1.9,0,3.7,0.3,5.3,0.7c2.6,0.7,3.8,1.6,4.6,2.2l-2.9,2.8l-1.2,0.3l0.9-1.4c-1.2-1.1-3.3-3.3-7.5-3.3c-5.5,0-9.6,4.2-9.6,10.3
		c0,6.5,4.7,12.7,12.3,12.7c2.2,0,3.4-0.5,4.4-0.9v-5.6l-5.3,0.3l2.8-1.5h7.4l-0.9,0.9c-0.2,0.2-0.3,0.3-0.3,0.6
		c0,0.3-0.1,1.3-0.1,1.7V307.6z"/>
	<path class="st5" d="M452.9,306.6c-1.2-0.1-1.4-0.3-1.4-1.7v-0.4v-19.3c0-0.1,0-0.2,0-0.2c0.1-1.2,0.5-1.4,1.6-2.1h-5l-2.6,1.3h2.7
		v0l0,0v20.4v1.2c0,0.7-0.1,0.8-0.9,1.8h6.2l1.3-0.8C454.1,306.7,453.5,306.7,452.9,306.6z"/>
	<path class="st5" d="M467.1,306.9c-0.4,0.2-0.8,0.5-1.1,0.6c-1.1,0.5-2.3,0.7-3.4,0.7c-1.1,0-2.8-0.1-4.6-1.3
		c-2.5-1.7-3.5-4.7-3.5-7.3c0-5.4,4.4-8,7.9-8c1.2,0,2.5,0.3,3.6,1c1.7,1.1,2.2,2.6,2.4,3.4l-8.1,3.3l-2.7,0.2c0.9,4.4,3.8,7,7.1,7
		c1.8,0,3-0.6,4.2-1.2L467.1,306.9z M463.9,296.6c0.7-0.2,1-0.4,1-0.9c0-1.4-1.6-3-3.4-3c-1.4,0-4,1.1-4,4.8c0,0.6,0.1,1.2,0.1,1.8
		L463.9,296.6z"/>
	<g>
		<path class="st5" d="M470.4,291.8v2.3h-0.3v-2.3h-0.8v-0.2h1.8v0.2H470.4z"/>
		<path class="st5" d="M473.6,294.1v-2.3h0l-0.7,2.3h-0.2l-0.7-2.3h0v2.3h-0.3v-2.5h0.4l0.6,2h0l0.6-2h0.4v2.5H473.6z"/>
	</g>
</g>
<g>
	<path class="st6" d="M163.1,603.2c1.2-0.2,2.5-0.3,4-0.3c2.7,0,4.6,0.7,5.9,1.8c1.3,1.2,2.1,2.9,2.1,5.3c0,2.4-0.8,4.3-2.1,5.7
		c-1.4,1.4-3.7,2.1-6.5,2.1c-1.4,0-2.5-0.1-3.4-0.2V603.2z M165,616.2c0.5,0.1,1.2,0.1,1.9,0.1c4.1,0,6.2-2.3,6.2-6.2
		c0-3.5-1.9-5.6-5.9-5.6c-1,0-1.7,0.1-2.2,0.2V616.2z"/>
	<path class="st6" d="M187.1,612.3c0,3.9-2.7,5.6-5.2,5.6c-2.8,0-5-2.1-5-5.4c0-3.5,2.3-5.6,5.2-5.6
		C185.1,606.9,187.1,609.1,187.1,612.3z M178.8,612.4c0,2.3,1.3,4,3.2,4c1.8,0,3.2-1.7,3.2-4.1c0-1.8-0.9-4-3.2-4
		C179.8,608.4,178.8,610.5,178.8,612.4z"/>
	<path class="st6" d="M190.1,607.2l1.4,5.3c0.3,1.2,0.6,2.3,0.8,3.3h0.1c0.2-1.1,0.6-2.2,0.9-3.3l1.7-5.4h1.6l1.6,5.3
		c0.4,1.3,0.7,2.4,0.9,3.4h0.1c0.2-1.1,0.5-2.2,0.8-3.4l1.5-5.3h1.9l-3.4,10.5h-1.7l-1.6-5c-0.4-1.2-0.7-2.2-0.9-3.5h0
		c-0.3,1.3-0.6,2.3-1,3.5l-1.7,5h-1.7l-3.2-10.5H190.1z"/>
	<path class="st6" d="M205.4,610c0-1.1,0-2-0.1-2.8h1.7l0.1,1.7h0c0.5-1,1.7-2,3.5-2c1.5,0,3.7,0.9,3.7,4.5v6.3h-1.9v-6.1
		c0-1.7-0.6-3.1-2.4-3.1c-1.2,0-2.2,0.9-2.6,2c-0.1,0.2-0.1,0.6-0.1,0.9v6.3h-1.9V610z"/>
	<path class="st6" d="M217.4,602.2h1.9v15.4h-1.9V602.2z"/>
	<path class="st6" d="M232.1,612.3c0,3.9-2.7,5.6-5.2,5.6c-2.8,0-5-2.1-5-5.4c0-3.5,2.3-5.6,5.2-5.6
		C230.1,606.9,232.1,609.1,232.1,612.3z M223.8,612.4c0,2.3,1.3,4,3.2,4c1.8,0,3.2-1.7,3.2-4.1c0-1.8-0.9-4-3.2-4
		C224.8,608.4,223.8,610.5,223.8,612.4z"/>
	<path class="st6" d="M241.9,615.1c0,0.9,0,1.8,0.2,2.5h-1.7l-0.2-1.3h-0.1c-0.6,0.8-1.7,1.6-3.2,1.6c-2.1,0-3.2-1.5-3.2-3
		c0-2.5,2.3-3.9,6.3-3.9v-0.2c0-0.8-0.2-2.4-2.4-2.4c-1,0-2,0.3-2.8,0.8l-0.4-1.3c0.9-0.5,2.2-0.9,3.5-0.9c3.2,0,4,2.2,4,4.3V615.1z
		 M240,612.3c-2.1,0-4.5,0.3-4.5,2.4c0,1.3,0.8,1.8,1.8,1.8c1.4,0,2.3-0.9,2.6-1.8c0.1-0.2,0.1-0.4,0.1-0.6V612.3z"/>
	<path class="st6" d="M254,602.2V615c0,0.9,0,2,0.1,2.7h-1.7l-0.1-1.8h-0.1c-0.6,1.2-1.8,2.1-3.5,2.1c-2.5,0-4.5-2.2-4.5-5.3
		c0-3.5,2.2-5.6,4.7-5.6c1.6,0,2.7,0.8,3.2,1.6h0v-6.3H254z M252.2,611.4c0-0.2,0-0.6-0.1-0.8c-0.3-1.2-1.3-2.2-2.8-2.2
		c-2,0-3.2,1.7-3.2,4c0,2.1,1.1,3.9,3.1,3.9c1.3,0,2.5-0.9,2.8-2.3c0.1-0.3,0.1-0.5,0.1-0.8V611.4z"/>
	<path class="st6" d="M261.2,617.7v-1.2l1.5-1.5c3.6-3.4,5.3-5.3,5.3-7.4c0-1.4-0.7-2.8-2.8-2.8c-1.3,0-2.3,0.7-3,1.2l-0.6-1.3
		c1-0.8,2.4-1.4,4-1.4c3,0,4.3,2.1,4.3,4.1c0,2.6-1.9,4.7-4.9,7.6l-1.1,1v0h6.3v1.6H261.2z"/>
	<path class="st6" d="M281.8,610.5c0,4.8-1.8,7.5-4.9,7.5c-2.8,0-4.6-2.6-4.7-7.3c0-4.8,2.1-7.3,4.9-7.3
		C280.1,603.3,281.8,606,281.8,610.5z M274.1,610.7c0,3.7,1.1,5.8,2.9,5.8c1.9,0,2.9-2.3,2.9-5.9c0-3.5-0.9-5.8-2.9-5.8
		C275.3,604.8,274.1,606.8,274.1,610.7z"/>
	<path class="st6" d="M292.9,610.5c0,4.8-1.8,7.5-4.9,7.5c-2.8,0-4.6-2.6-4.7-7.3c0-4.8,2.1-7.3,4.9-7.3
		C291.2,603.3,292.9,606,292.9,610.5z M285.3,610.7c0,3.7,1.1,5.8,2.9,5.8c1.9,0,2.9-2.3,2.9-5.9c0-3.5-0.9-5.8-2.9-5.8
		C286.5,604.8,285.3,606.8,285.3,610.7z"/>
	<path class="st6" d="M294.1,620.4c0.5-1.3,1.1-3.6,1.3-5.2l2.1-0.2c-0.5,1.8-1.5,4.3-2.1,5.3L294.1,620.4z"/>
	<path class="st6" d="M308.6,610.5c0,4.8-1.8,7.5-4.9,7.5c-2.8,0-4.6-2.6-4.7-7.3c0-4.8,2.1-7.3,4.9-7.3
		C306.9,603.3,308.6,606,308.6,610.5z M300.9,610.7c0,3.7,1.1,5.8,2.9,5.8c1.9,0,2.9-2.3,2.9-5.9c0-3.5-0.9-5.8-2.9-5.8
		C302.1,604.8,300.9,606.8,300.9,610.7z"/>
	<path class="st6" d="M319.7,610.5c0,4.8-1.8,7.5-4.9,7.5c-2.8,0-4.6-2.6-4.7-7.3c0-4.8,2.1-7.3,4.9-7.3
		C318,603.3,319.7,606,319.7,610.5z M312.1,610.7c0,3.7,1.1,5.8,2.9,5.8c1.9,0,2.9-2.3,2.9-5.9c0-3.5-0.9-5.8-2.9-5.8
		C313.3,604.8,312.1,606.8,312.1,610.7z"/>
	<path class="st6" d="M330.9,610.5c0,4.8-1.8,7.5-4.9,7.5c-2.8,0-4.6-2.6-4.7-7.3c0-4.8,2.1-7.3,4.9-7.3
		C329.2,603.3,330.9,606,330.9,610.5z M323.2,610.7c0,3.7,1.1,5.8,2.9,5.8c1.9,0,2.9-2.3,2.9-5.9c0-3.5-0.9-5.8-2.9-5.8
		C324.4,604.8,323.2,606.8,323.2,610.7z"/>
	<path class="st6" d="M338.8,606.1v5.1h4.9v1.3h-4.9v5.1h-1.4v-5.1h-4.9v-1.3h4.9v-5.1H338.8z"/>
	<path class="st6" d="M350.8,602.2h1.9v6.6h0c0.7-1.2,1.9-1.9,3.6-1.9c2.6,0,4.5,2.2,4.5,5.3c0,3.8-2.4,5.6-4.7,5.6
		c-1.5,0-2.7-0.6-3.5-2h0l-0.1,1.7h-1.6c0-0.7,0.1-1.8,0.1-2.7V602.2z M352.7,613.5c0,0.2,0,0.5,0.1,0.7c0.3,1.3,1.5,2.2,2.9,2.2
		c2,0,3.2-1.6,3.2-4c0-2.1-1.1-3.9-3.2-3.9c-1.3,0-2.5,0.9-2.9,2.3c-0.1,0.2-0.1,0.5-0.1,0.8V613.5z"/>
	<path class="st6" d="M363.2,610.4c0-1.2,0-2.3-0.1-3.3h1.7l0.1,2.1h0.1c0.5-1.4,1.7-2.3,2.9-2.3c0.2,0,0.3,0,0.5,0v1.8
		c-0.2,0-0.4,0-0.7,0c-1.3,0-2.3,1-2.6,2.4c0,0.3-0.1,0.6-0.1,0.9v5.6h-1.9V610.4z"/>
	<path class="st6" d="M377.6,615.1c0,0.9,0,1.8,0.2,2.5H376l-0.2-1.3h-0.1c-0.6,0.8-1.7,1.6-3.2,1.6c-2.1,0-3.2-1.5-3.2-3
		c0-2.5,2.3-3.9,6.3-3.9v-0.2c0-0.8-0.2-2.4-2.4-2.4c-1,0-2,0.3-2.8,0.8l-0.4-1.3c0.9-0.5,2.2-0.9,3.5-0.9c3.2,0,4,2.2,4,4.3V615.1z
		 M375.7,612.3c-2.1,0-4.5,0.3-4.5,2.4c0,1.3,0.8,1.8,1.8,1.8c1.4,0,2.3-0.9,2.6-1.8c0.1-0.2,0.1-0.4,0.1-0.6V612.3z"/>
	<path class="st6" d="M380.6,610c0-1.1,0-2-0.1-2.8h1.7l0.1,1.7h0c0.5-1,1.7-2,3.5-2c1.5,0,3.7,0.9,3.7,4.5v6.3h-1.9v-6.1
		c0-1.7-0.6-3.1-2.4-3.1c-1.2,0-2.2,0.9-2.6,2c-0.1,0.2-0.1,0.6-0.1,0.9v6.3h-1.9V610z"/>
	<path class="st6" d="M401.8,602.2V615c0,0.9,0,2,0.1,2.7h-1.7l-0.1-1.8H400c-0.6,1.2-1.8,2.1-3.5,2.1c-2.5,0-4.5-2.2-4.5-5.3
		c0-3.5,2.2-5.6,4.7-5.6c1.6,0,2.7,0.8,3.2,1.6h0v-6.3H401.8z M399.9,611.4c0-0.2,0-0.6-0.1-0.8c-0.3-1.2-1.3-2.2-2.8-2.2
		c-2,0-3.2,1.7-3.2,4c0,2.1,1.1,3.9,3.1,3.9c1.3,0,2.5-0.9,2.8-2.3c0.1-0.3,0.1-0.5,0.1-0.8V611.4z"/>
	<path class="st6" d="M409.6,602.2h1.9v15.4h-1.9V602.2z"/>
	<path class="st6" d="M424.2,612.3c0,3.9-2.7,5.6-5.2,5.6c-2.8,0-5-2.1-5-5.4c0-3.5,2.3-5.6,5.2-5.6
		C422.2,606.9,424.2,609.1,424.2,612.3z M415.9,612.4c0,2.3,1.3,4,3.2,4c1.8,0,3.2-1.7,3.2-4.1c0-1.8-0.9-4-3.2-4
		C416.9,608.4,415.9,610.5,415.9,612.4z"/>
	<path class="st6" d="M435.6,616.1c0,2.4-0.5,3.9-1.5,4.8c-1,0.9-2.5,1.3-3.8,1.3c-1.3,0-2.7-0.3-3.5-0.9l0.5-1.5
		c0.7,0.5,1.8,0.8,3.1,0.8c2,0,3.4-1,3.4-3.7v-1.2h0c-0.6,1-1.7,1.8-3.3,1.8c-2.6,0-4.5-2.2-4.5-5.1c0-3.6,2.3-5.6,4.8-5.6
		c1.8,0,2.8,0.9,3.3,1.8h0l0.1-1.6h1.7c-0.1,0.7-0.1,1.6-0.1,2.9V616.1z M433.7,611.3c0-0.3,0-0.6-0.1-0.8c-0.3-1.1-1.3-2-2.7-2
		c-1.8,0-3.1,1.5-3.1,4c0,2.1,1.1,3.8,3.1,3.8c1.2,0,2.3-0.7,2.7-2c0.1-0.3,0.2-0.7,0.2-1V611.3z"/>
	<path class="st6" d="M448.3,612.3c0,3.9-2.7,5.6-5.2,5.6c-2.8,0-5-2.1-5-5.4c0-3.5,2.3-5.6,5.2-5.6
		C446.3,606.9,448.3,609.1,448.3,612.3z M440,612.4c0,2.3,1.3,4,3.2,4c1.8,0,3.2-1.7,3.2-4.1c0-1.8-0.9-4-3.2-4
		C441,608.4,440,610.5,440,612.4z"/>
	<path class="st6" d="M450.5,615.7c0.6,0.3,1.6,0.7,2.5,0.7c1.4,0,2-0.7,2-1.6c0-0.9-0.5-1.4-1.9-1.9c-1.9-0.7-2.8-1.7-2.8-3
		c0-1.7,1.4-3.1,3.6-3.1c1.1,0,2,0.3,2.6,0.7L456,609c-0.4-0.3-1.2-0.6-2.2-0.6c-1.1,0-1.7,0.7-1.7,1.4c0,0.9,0.6,1.3,2,1.8
		c1.8,0.7,2.8,1.6,2.8,3.2c0,1.9-1.5,3.2-3.9,3.2c-1.2,0-2.2-0.3-3-0.7L450.5,615.7z"/>
	<path class="st6" d="M466.1,604.2c0,0.7-0.5,1.2-1.2,1.2c-0.7,0-1.2-0.5-1.2-1.2c0-0.7,0.5-1.2,1.2-1.2
		C465.6,603,466.1,603.5,466.1,604.2z M463.9,617.7v-10.5h1.9v10.5H463.9z"/>
	<path class="st6" d="M469,610c0-1.1,0-2-0.1-2.8h1.7l0.1,1.7h0c0.5-1,1.7-2,3.5-2c1.5,0,3.7,0.9,3.7,4.5v6.3h-1.9v-6.1
		c0-1.7-0.6-3.1-2.4-3.1c-1.2,0-2.2,0.9-2.6,2c-0.1,0.2-0.1,0.6-0.1,0.9v6.3H469V610z"/>
	<path class="st6" d="M486.4,607.2l2.1,5.9c0.3,1,0.6,1.8,0.8,2.7h0.1c0.2-0.9,0.5-1.7,0.9-2.7l2-5.9h2l-4.1,10.5h-1.8l-4-10.5
		H486.4z"/>
	<path class="st6" d="M497,612.8c0,2.6,1.7,3.7,3.6,3.7c1.4,0,2.2-0.2,2.9-0.5l0.3,1.4c-0.7,0.3-1.8,0.7-3.5,0.7
		c-3.2,0-5.2-2.2-5.2-5.3c0-3.2,1.9-5.7,4.9-5.7c3.5,0,4.3,3,4.3,4.9c0,0.4,0,0.7-0.1,0.9H497z M502.6,611.4c0-1.2-0.5-3.1-2.7-3.1
		c-2,0-2.8,1.8-2.9,3.1H502.6z"/>
	<path class="st6" d="M514.3,617.3c-0.5,0.2-1.6,0.6-3,0.6c-3.2,0-5.2-2.2-5.2-5.4c0-3.2,2.2-5.6,5.7-5.6c1.1,0,2.1,0.3,2.7,0.6
		l-0.4,1.5c-0.5-0.2-1.2-0.5-2.2-0.5c-2.4,0-3.7,1.8-3.7,4c0,2.4,1.6,3.9,3.7,3.9c1.1,0,1.8-0.3,2.3-0.5L514.3,617.3z"/>
	<path class="st6" d="M519.1,604.6v2.5h2.7v1.5h-2.7v5.7c0,1.3,0.4,2,1.4,2c0.5,0,0.8,0,1.1-0.1l0.1,1.5c-0.4,0.1-1,0.3-1.7,0.3
		c-0.9,0-1.6-0.3-2.1-0.8c-0.5-0.6-0.7-1.5-0.7-2.8v-5.7h-1.6v-1.5h1.6v-2L519.1,604.6z"/>
	<path class="st6" d="M533.4,612.3c0,3.9-2.7,5.6-5.2,5.6c-2.8,0-5-2.1-5-5.4c0-3.5,2.3-5.6,5.2-5.6
		C531.4,606.9,533.4,609.1,533.4,612.3z M525.1,612.4c0,2.3,1.3,4,3.2,4c1.8,0,3.2-1.7,3.2-4.1c0-1.8-0.9-4-3.2-4
		C526.1,608.4,525.1,610.5,525.1,612.4z"/>
	<path class="st6" d="M535.8,610.4c0-1.2,0-2.3-0.1-3.3h1.7l0.1,2.1h0.1c0.5-1.4,1.7-2.3,2.9-2.3c0.2,0,0.3,0,0.5,0v1.8
		c-0.2,0-0.4,0-0.7,0c-1.3,0-2.3,1-2.6,2.4c0,0.3-0.1,0.6-0.1,0.9v5.6h-1.9V610.4z"/>
	<path class="st6" d="M547.7,617.7v-9.1h-1.5v-1.5h1.5v-0.5c0-1.5,0.3-2.8,1.2-3.7c0.7-0.7,1.7-1,2.6-1c0.7,0,1.3,0.2,1.6,0.3
		l-0.3,1.5c-0.3-0.1-0.7-0.2-1.2-0.2c-1.6,0-2,1.4-2,3v0.6h2.5v1.5h-2.5v9.1H547.7z"/>
	<path class="st6" d="M563.1,612.3c0,3.9-2.7,5.6-5.2,5.6c-2.8,0-5-2.1-5-5.4c0-3.5,2.3-5.6,5.2-5.6
		C561.1,606.9,563.1,609.1,563.1,612.3z M554.8,612.4c0,2.3,1.3,4,3.2,4c1.8,0,3.2-1.7,3.2-4.1c0-1.8-0.9-4-3.2-4
		C555.8,608.4,554.8,610.5,554.8,612.4z"/>
	<path class="st6" d="M565.5,610.4c0-1.2,0-2.3-0.1-3.3h1.7l0.1,2.1h0.1c0.5-1.4,1.7-2.3,2.9-2.3c0.2,0,0.3,0,0.5,0v1.8
		c-0.2,0-0.4,0-0.7,0c-1.3,0-2.3,1-2.6,2.4c0,0.3-0.1,0.6-0.1,0.9v5.6h-1.9V610.4z"/>
	<path class="st6" d="M572.7,610c0-1.1,0-2-0.1-2.8h1.7l0.1,1.7h0.1c0.6-1,1.6-1.9,3.3-1.9c1.4,0,2.5,0.9,3,2.1h0
		c0.3-0.6,0.8-1,1.2-1.4c0.6-0.5,1.3-0.7,2.3-0.7c1.4,0,3.5,0.9,3.5,4.6v6.2h-1.9v-5.9c0-2-0.8-3.2-2.3-3.2c-1.1,0-1.9,0.8-2.3,1.7
		c-0.1,0.3-0.2,0.6-0.2,1v6.5h-1.9v-6.3c0-1.7-0.7-2.9-2.2-2.9c-1.2,0-2.1,1-2.4,1.9c-0.1,0.3-0.2,0.6-0.2,0.9v6.3h-1.9V610z"/>
	<path class="st6" d="M598.2,615.1c0,0.9,0,1.8,0.2,2.5h-1.7l-0.2-1.3h-0.1c-0.6,0.8-1.7,1.6-3.2,1.6c-2.1,0-3.2-1.5-3.2-3
		c0-2.5,2.3-3.9,6.3-3.9v-0.2c0-0.8-0.2-2.4-2.4-2.4c-1,0-2,0.3-2.8,0.8l-0.4-1.3c0.9-0.5,2.2-0.9,3.5-0.9c3.2,0,4,2.2,4,4.3V615.1z
		 M596.4,612.3c-2.1,0-4.5,0.3-4.5,2.4c0,1.3,0.8,1.8,1.8,1.8c1.4,0,2.3-0.9,2.6-1.8c0.1-0.2,0.1-0.4,0.1-0.6V612.3z"/>
	<path class="st6" d="M603.6,604.6v2.5h2.7v1.5h-2.7v5.7c0,1.3,0.4,2,1.4,2c0.5,0,0.8,0,1.1-0.1l0.1,1.5c-0.4,0.1-1,0.3-1.7,0.3
		c-0.9,0-1.6-0.3-2.1-0.8c-0.5-0.6-0.7-1.5-0.7-2.8v-5.7h-1.6v-1.5h1.6v-2L603.6,604.6z"/>
	<path class="st6" d="M613.2,617.7v-9.1h-1.5v-1.5h1.5v-0.5c0-1.5,0.3-2.8,1.2-3.7c0.7-0.7,1.7-1,2.6-1c0.7,0,1.3,0.2,1.6,0.3
		l-0.3,1.5c-0.3-0.1-0.7-0.2-1.2-0.2c-1.6,0-2,1.4-2,3v0.6h2.5v1.5h-2.5v9.1H613.2z"/>
	<path class="st6" d="M628.6,612.3c0,3.9-2.7,5.6-5.2,5.6c-2.8,0-5-2.1-5-5.4c0-3.5,2.3-5.6,5.2-5.6
		C626.6,606.9,628.6,609.1,628.6,612.3z M620.3,612.4c0,2.3,1.3,4,3.2,4c1.8,0,3.2-1.7,3.2-4.1c0-1.8-0.9-4-3.2-4
		C621.3,608.4,620.3,610.5,620.3,612.4z"/>
	<path class="st6" d="M631,610.4c0-1.2,0-2.3-0.1-3.3h1.7l0.1,2.1h0.1c0.5-1.4,1.7-2.3,2.9-2.3c0.2,0,0.3,0,0.5,0v1.8
		c-0.2,0-0.4,0-0.7,0c-1.3,0-2.3,1-2.6,2.4c0,0.3-0.1,0.6-0.1,0.9v5.6H631V610.4z"/>
	<path class="st6" d="M643,617.7v-9.1h-1.5v-1.5h1.5v-0.5c0-1.5,0.3-2.8,1.2-3.7c0.7-0.7,1.7-1,2.6-1c0.7,0,1.3,0.2,1.6,0.3
		l-0.3,1.5c-0.3-0.1-0.7-0.2-1.2-0.2c-1.6,0-2,1.4-2,3v0.6h2.5v1.5h-2.5v9.1H643z"/>
	<path class="st6" d="M649.1,610.4c0-1.2,0-2.3-0.1-3.3h1.7l0.1,2.1h0.1c0.5-1.4,1.7-2.3,2.9-2.3c0.2,0,0.3,0,0.5,0v1.8
		c-0.2,0-0.4,0-0.7,0c-1.3,0-2.3,1-2.6,2.4c0,0.3-0.1,0.6-0.1,0.9v5.6h-1.9V610.4z"/>
	<path class="st6" d="M657.1,612.8c0,2.6,1.7,3.7,3.6,3.7c1.4,0,2.2-0.2,2.9-0.5l0.3,1.4c-0.7,0.3-1.8,0.7-3.5,0.7
		c-3.2,0-5.2-2.2-5.2-5.3c0-3.2,1.9-5.7,4.9-5.7c3.5,0,4.3,3,4.3,4.9c0,0.4,0,0.7-0.1,0.9H657.1z M662.7,611.4
		c0-1.2-0.5-3.1-2.7-3.1c-2,0-2.8,1.8-2.9,3.1H662.7z"/>
	<path class="st6" d="M667.9,612.8c0,2.6,1.7,3.7,3.6,3.7c1.4,0,2.2-0.2,2.9-0.5l0.3,1.4c-0.7,0.3-1.8,0.7-3.5,0.7
		c-3.2,0-5.2-2.2-5.2-5.3c0-3.2,1.9-5.7,4.9-5.7c3.5,0,4.3,3,4.3,4.9c0,0.4,0,0.7-0.1,0.9H667.9z M673.6,611.4
		c0-1.2-0.5-3.1-2.7-3.1c-2,0-2.8,1.8-2.9,3.1H673.6z"/>
	<path class="st6" d="M677.1,616.5c0-0.8,0.5-1.4,1.3-1.4c0.8,0,1.3,0.6,1.3,1.4c0,0.8-0.5,1.4-1.3,1.4
		C677.6,617.9,677.1,617.3,677.1,616.5z"/>
	<path class="st7" d="M274.5,628.3h3.3v6.1h0c0.3-0.5,0.8-0.8,1.3-1.1c0.5-0.3,1.1-0.4,1.7-0.4c2.1,0,3.7,1.5,3.7,4.7v6.2h-3.3v-5.8
		c0-1.4-0.5-2.3-1.7-2.3c-0.9,0-1.4,0.6-1.7,1.2c-0.1,0.2-0.1,0.5-0.1,0.7v6.3h-3.3V628.3z"/>
	<path class="st7" d="M293,630.3v2.9h2.4v2.4H293v3.8c0,1.3,0.3,1.9,1.3,1.9c0.5,0,0.7,0,1-0.1l0,2.5c-0.4,0.2-1.2,0.3-2.1,0.3
		c-1.1,0-2-0.4-2.5-0.9c-0.6-0.6-0.9-1.7-0.9-3.2v-4.3h-1.4v-2.4h1.4v-2L293,630.3z"/>
	<path class="st7" d="M303.1,630.3v2.9h2.4v2.4h-2.4v3.8c0,1.3,0.3,1.9,1.3,1.9c0.5,0,0.7,0,1-0.1l0,2.5c-0.4,0.2-1.2,0.3-2.1,0.3
		c-1.1,0-2-0.4-2.5-0.9c-0.6-0.6-0.9-1.7-0.9-3.2v-4.3h-1.4v-2.4h1.4v-2L303.1,630.3z"/>
	<path class="st7" d="M309.6,636.7c0-1.4,0-2.6-0.1-3.6h2.9l0.2,1.5h0c0.8-1.1,2-1.7,3.5-1.7c2.3,0,4.4,2,4.4,5.4
		c0,3.9-2.5,5.7-4.8,5.7c-1.3,0-2.3-0.5-2.8-1.2h0v5.3h-3.3V636.7z M312.9,639.2c0,0.3,0,0.5,0.1,0.7c0.2,0.9,1,1.6,1.9,1.6
		c1.4,0,2.3-1.2,2.3-3c0-1.7-0.8-3-2.2-3c-0.9,0-1.8,0.7-2,1.7c0,0.2-0.1,0.4-0.1,0.6V639.2z"/>
	<path class="st7" d="M324.5,635c0-1.2,0.8-2,1.9-2c1.2,0,1.9,0.8,1.9,2c0,1.1-0.8,2-2,2C325.3,637,324.5,636.1,324.5,635z
		 M324.5,642c0-1.2,0.8-2,1.9-2c1.2,0,1.9,0.8,1.9,2c0,1.1-0.8,2-2,2C325.3,644,324.5,643.1,324.5,642z"/>
	<path class="st7" d="M331.6,644.6l4.7-15.8h2.2l-4.7,15.8H331.6z"/>
	<path class="st7" d="M341,644.6l4.7-15.8h2.2l-4.7,15.8H341z"/>
	<path class="st7" d="M353.6,633.1l0.9,4.4c0.2,1.1,0.4,2.3,0.6,3.5h0.1c0.2-1.2,0.5-2.4,0.8-3.5l1.1-4.4h2.6l1.1,4.2
		c0.3,1.2,0.6,2.4,0.8,3.6h0c0.2-1.2,0.4-2.4,0.6-3.6l0.9-4.2h3.2l-3.3,10.6h-3.1l-1-3.7c-0.3-1-0.5-2-0.7-3.3h0
		c-0.2,1.3-0.4,2.3-0.7,3.3l-1.1,3.7h-3.1l-3.1-10.6H353.6z"/>
	<path class="st7" d="M372.7,633.1l0.9,4.4c0.2,1.1,0.4,2.3,0.6,3.5h0.1c0.2-1.2,0.5-2.4,0.8-3.5l1.1-4.4h2.6l1.1,4.2
		c0.3,1.2,0.6,2.4,0.8,3.6h0c0.2-1.2,0.4-2.4,0.6-3.6l0.9-4.2h3.2l-3.3,10.6H379l-1-3.7c-0.3-1-0.5-2-0.7-3.3h0
		c-0.2,1.3-0.4,2.3-0.7,3.3l-1.1,3.7h-3.1l-3.1-10.6H372.7z"/>
	<path class="st7" d="M391.7,633.1l0.9,4.4c0.2,1.1,0.4,2.3,0.6,3.5h0.1c0.2-1.2,0.5-2.4,0.8-3.5l1.1-4.4h2.6l1.1,4.2
		c0.3,1.2,0.6,2.4,0.8,3.6h0c0.2-1.2,0.4-2.4,0.6-3.6l0.9-4.2h3.2l-3.3,10.6h-3.1l-1-3.7c-0.3-1-0.5-2-0.7-3.3h0
		c-0.2,1.3-0.4,2.3-0.7,3.3l-1.1,3.7h-3.1l-3.1-10.6H391.7z"/>
	<path class="st7" d="M406.8,642c0-1.2,0.8-2,2-2c1.1,0,1.9,0.8,1.9,2c0,1.2-0.8,2-2,2C407.7,644,406.8,643.1,406.8,642z"/>
	<path class="st7" d="M414.9,628.3h3.3v15.4h-3.3V628.3z"/>
	<path class="st7" d="M433.6,638.3c0,3.9-2.8,5.7-5.6,5.7c-3.1,0-5.5-2-5.5-5.5c0-3.5,2.3-5.6,5.7-5.6
		C431.4,632.9,433.6,635.1,433.6,638.3z M425.9,638.4c0,1.8,0.8,3.2,2.2,3.2c1.3,0,2.1-1.3,2.1-3.2c0-1.6-0.6-3.2-2.1-3.2
		C426.5,635.2,425.9,636.9,425.9,638.4z"/>
	<path class="st7" d="M447.9,642.2c0,2-0.4,3.7-1.6,4.8c-1.2,1-2.7,1.3-4.3,1.3c-1.4,0-2.9-0.3-3.8-0.8l0.7-2.5
		c0.7,0.4,1.8,0.8,3.1,0.8c1.6,0,2.8-0.8,2.8-2.8v-0.7h0c-0.6,0.9-1.7,1.4-2.9,1.4c-2.6,0-4.5-2.1-4.5-5.2c0-3.4,2.2-5.6,4.8-5.6
		c1.5,0,2.4,0.6,2.9,1.5h0l0.1-1.3h2.9c0,0.7-0.1,1.6-0.1,3.2V642.2z M444.6,637.4c0-0.2,0-0.4-0.1-0.6c-0.2-0.9-0.9-1.5-1.8-1.5
		c-1.2,0-2.2,1.1-2.2,3c0,1.6,0.8,2.8,2.2,2.8c0.9,0,1.5-0.6,1.8-1.3c0.1-0.3,0.1-0.6,0.1-0.9V637.4z"/>
	<path class="st7" d="M463.2,638.3c0,3.9-2.8,5.7-5.6,5.7c-3.1,0-5.5-2-5.5-5.5c0-3.5,2.3-5.6,5.7-5.6
		C461,632.9,463.2,635.1,463.2,638.3z M455.5,638.4c0,1.8,0.8,3.2,2.2,3.2c1.3,0,2.1-1.3,2.1-3.2c0-1.6-0.6-3.2-2.1-3.2
		C456.1,635.2,455.5,636.9,455.5,638.4z"/>
	<path class="st7" d="M470,639.5c0.1,1.4,1.5,2,3,2c1.1,0,2-0.2,2.9-0.5l0.4,2.2c-1.1,0.5-2.4,0.7-3.8,0.7c-3.6,0-5.7-2.1-5.7-5.4
		c0-2.7,1.7-5.7,5.4-5.7c3.4,0,4.7,2.7,4.7,5.3c0,0.6-0.1,1.1-0.1,1.3H470z M473.9,637.2c0-0.8-0.3-2.2-1.9-2.2c-1.4,0-2,1.3-2,2.2
		H473.9z"/>
	<path class="st7" d="M481.2,636.7c0-1.4,0-2.6-0.1-3.6h2.9l0.2,1.5h0c0.8-1.1,2-1.7,3.5-1.7c2.3,0,4.4,2,4.4,5.4
		c0,3.9-2.5,5.7-4.8,5.7c-1.3,0-2.3-0.5-2.8-1.2h0v5.3h-3.3V636.7z M484.5,639.2c0,0.3,0,0.5,0.1,0.7c0.2,0.9,1,1.6,1.9,1.6
		c1.4,0,2.3-1.2,2.3-3c0-1.7-0.8-3-2.2-3c-0.9,0-1.8,0.7-2,1.7c0,0.2-0.1,0.4-0.1,0.6V639.2z"/>
	<path class="st7" d="M496.3,640.9c0.6,0.4,1.9,0.8,2.8,0.8c1,0,1.4-0.3,1.4-0.9c0-0.6-0.3-0.8-1.5-1.2c-2.2-0.7-3.1-1.9-3-3.2
		c0-2,1.7-3.5,4.3-3.5c1.2,0,2.3,0.3,3,0.6l-0.6,2.3c-0.5-0.3-1.4-0.6-2.3-0.6c-0.8,0-1.3,0.3-1.3,0.8c0,0.5,0.4,0.8,1.7,1.2
		c2,0.7,2.8,1.7,2.9,3.3c0,2-1.5,3.5-4.6,3.5c-1.4,0-2.6-0.3-3.4-0.8L496.3,640.9z"/>
	<path class="st7" d="M507.5,642c0-1.2,0.8-2,2-2c1.1,0,1.9,0.8,1.9,2c0,1.2-0.8,2-2,2C508.3,644,507.5,643.1,507.5,642z"/>
	<path class="st7" d="M523.5,643.5c-0.6,0.3-1.7,0.5-3,0.5c-3.4,0-5.6-2.1-5.6-5.4c0-3.1,2.1-5.6,6.1-5.6c0.9,0,1.8,0.2,2.5,0.4
		l-0.5,2.5c-0.4-0.2-1-0.3-1.8-0.3c-1.7,0-2.9,1.2-2.8,3c0,1.9,1.3,3,2.9,3c0.8,0,1.4-0.1,1.9-0.3L523.5,643.5z"/>
	<path class="st7" d="M537.8,638.3c0,3.9-2.8,5.7-5.6,5.7c-3.1,0-5.5-2-5.5-5.5c0-3.5,2.3-5.6,5.7-5.6
		C535.6,632.9,537.8,635.1,537.8,638.3z M530.1,638.4c0,1.8,0.8,3.2,2.2,3.2c1.3,0,2.1-1.3,2.1-3.2c0-1.6-0.6-3.2-2.1-3.2
		C530.7,635.2,530.1,636.9,530.1,638.4z"/>
	<path class="st7" d="M542,636.5c0-1.3,0-2.4-0.1-3.4h2.8l0.1,1.4h0.1c0.5-0.7,1.4-1.7,3.2-1.7c1.4,0,2.5,0.7,2.9,1.8h0
		c0.4-0.6,0.9-1,1.4-1.3c0.6-0.3,1.2-0.5,2-0.5c2,0,3.6,1.4,3.6,4.6v6.3h-3.2V638c0-1.5-0.5-2.4-1.6-2.4c-0.8,0-1.3,0.5-1.5,1.2
		c-0.1,0.2-0.1,0.6-0.1,0.8v6.2h-3.2v-6c0-1.3-0.5-2.2-1.5-2.2c-0.8,0-1.3,0.7-1.5,1.2c-0.1,0.3-0.1,0.6-0.1,0.8v6.2H542V636.5z"/>
	<path class="st7" d="M561.9,644.6l4.6-15.8h2.2l-4.7,15.8H561.9z"/>
</g>
</svg>
