<?xml version="1.0" encoding="utf-8"?>
<!-- Generator: Adobe Illustrator 25.0.0, SVG Export Plug-In . SVG Version: 6.00 Build 0)  -->
<svg version="1.1" id="Layer_1" xmlns="http://www.w3.org/2000/svg" xmlns:xlink="http://www.w3.org/1999/xlink" x="0px" y="0px"
	 viewBox="0 0 512 512" style="enable-background:new 0 0 512 512;" xml:space="preserve">
<style type="text/css">
	.st0{fill:none;stroke:#000000;stroke-miterlimit:10;}
</style>
<path class="st0" d="M-472,119c0-141.4,114.6-256,256-256S40-22.4,40,119S-74.6,375-216,375S-472,260.4-472,119z M-307.9,188.5
	c-5.8-6.7-15.9-7.4-22.6-1.6c-6.7,5.8-7.4,15.9-1.6,22.6c22.2,25.6,61,53.5,115.2,53.5c56,0,94.7-27.9,117-53.5
	c5.8-6.7,5.1-16.8-1.6-22.6c-6.7-5.8-16.8-5.1-22.6,1.6c-18,20.7-48.5,42.5-92.8,42.5C-259.4,231-290,209.2-307.9,188.5
	L-307.9,188.5z M-295.6,39c-17.7,0-32,14.3-32,32s14.3,32,32,32c17.6,0,32-14.3,32-32S-278,39-295.6,39z M-135.6,103
	c17.6,0,32-14.3,32-32s-14.4-32-32-32c-17.7,0-32,14.3-32,32S-153.3,103-135.6,103z"/>
</svg>
