<?xml version="1.0" encoding="utf-8"?>
<!-- Generator: Adobe Illustrator 25.0.0, SVG Export Plug-In . SVG Version: 6.00 Build 0)  -->
<svg version="1.1" id="Layer_1" xmlns="http://www.w3.org/2000/svg" xmlns:xlink="http://www.w3.org/1999/xlink" x="0px" y="0px"
	 viewBox="0 0 409.6 408.6" style="enable-background:new 0 0 409.6 408.6;" xml:space="preserve">
<style type="text/css">
	.st0{fill:#BEBEBE;}
</style>
<g>
	<path class="st0" d="M409.2,192.3c0,8,0,16,0,24c-0.2,1.1-0.6,2.3-0.7,3.4c-2,28.5-9.5,55.5-23.3,80.5
		c-31.8,57.6-80.1,92.8-144.8,105.3c-7.8,1.5-15.8,2.2-23.6,3.2c-8,0-16,0-24,0c-1-0.2-2-0.6-3.1-0.7c-28.5-1.9-55.6-9.3-80.6-23.2
		C42,347.2,5.5,289.7,0.7,212.8c-2.3-36.9,5.7-72.2,23.7-104.4C62,41.3,119.5,4.9,196.2,0.2c36.9-2.3,72,5.8,104.5,23.7
		C358.4,55.6,393.6,104,406,168.7C407.5,176.5,408.2,184.5,409.2,192.3z M204.9,383.2c98.7-0.1,178.7-80.1,178.8-178.8
		c0.1-98.8-80.2-179.1-178.9-179C106.1,25.5,26.1,105.5,26,204.2C25.9,303,106.2,383.3,204.9,383.2z"/>
	<path class="st0" d="M115.6,178.8c14.1,0.1,25.6,12,25.3,25.9S129,230,115.2,229.8c-14.1-0.1-25.6-12-25.3-25.9
		C90.2,190,101.8,178.6,115.6,178.8z"/>
	<path class="st0" d="M204.8,229.8c-14,0-25.7-11.7-25.5-25.7c0.1-13.9,11.6-25.3,25.5-25.3c14,0,25.7,11.7,25.5,25.7
		C230.2,218.4,218.7,229.8,204.8,229.8z"/>
	<path class="st0" d="M294.2,229.8c-14,0-25.7-11.8-25.5-25.8c0.2-13.9,11.7-25.3,25.6-25.3c14,0,25.7,11.8,25.5,25.8
		S308.1,229.9,294.2,229.8z"/>
</g>
</svg>
