<?xml version="1.0" encoding="utf-8"?>
<!-- Generator: Adobe Illustrator 25.0.0, SVG Export Plug-In . SVG Version: 6.00 Build 0)  -->
<svg version="1.1" id="Layer_1" xmlns="http://www.w3.org/2000/svg" xmlns:xlink="http://www.w3.org/1999/xlink" x="0px" y="0px"
	 viewBox="0 0 409.6 408.6" style="enable-background:new 0 0 409.6 408.6;" xml:space="preserve">
<style type="text/css">
	.st0{fill:#FFFFFF;}
</style>
<path class="st0" d="M409.6,192.1c0,8,0,16,0,24c-0.2,1.1-0.6,2.3-0.7,3.4c-2,28.5-9.5,55.5-23.3,80.5
	c-31.8,57.6-80.1,92.8-144.8,105.3c-7.8,1.5-15.8,2.2-23.6,3.2c-8,0-16,0-24,0c-1-0.2-2-0.6-3.1-0.7c-28.5-1.9-55.6-9.3-80.6-23.2
	C42.4,347,5.8,289.5,1.1,212.6c-2.3-36.9,5.7-72.2,23.7-104.4C62.4,41.2,119.9,4.7,196.6,0c36.9-2.3,72,5.8,104.5,23.7
	c57.7,31.7,92.9,80.1,105.3,144.9C407.9,176.3,408.5,184.3,409.6,192.1z M205.3,383c98.7-0.1,178.7-80.1,178.8-178.8
	c0.1-98.8-80.2-179.1-178.9-179C106.4,25.3,26.4,105.3,26.3,204C26.2,302.8,106.5,383.1,205.3,383z"/>
<path class="st0" d="M409.6,192.1c-1.1-7.9-1.7-15.8-3.2-23.6C394,103.8,358.7,55.4,301.1,23.7C268.6,5.8,233.5-2.3,196.6,0
	C119.9,4.7,62.4,41.2,24.8,108.2c-18.1,32.3-26,67.6-23.7,104.4c4.7,76.9,41.3,134.4,108.5,172c24.9,14,52,21.3,80.6,23.2
	c1,0.1,2.1,0.4,3.1,0.7c-64.4,0-128.8,0-193.2,0C0,272.1,0,135.6,0-1c136.5,0,273.1,0,409.6,0C409.6,63.3,409.6,127.7,409.6,192.1z"
	/>
<path class="st0" d="M217.2,408.6c7.9-1.1,15.8-1.7,23.6-3.2c64.7-12.4,113-47.7,144.8-105.3c13.8-25,21.3-52,23.3-80.5
	c0.1-1.2,0.4-2.3,0.7-3.4c0,64.2,0,128.3,0,192.5C345.5,408.6,281.3,408.6,217.2,408.6z"/>
<path class="st0" d="M115.9,178.6c14.1,0.1,25.6,12,25.3,25.9c-0.3,13.9-11.9,25.3-25.7,25.1c-14.1-0.1-25.6-12-25.3-25.9
	C90.5,189.8,102.1,178.5,115.9,178.6z"/>
<path class="st0" d="M205.2,229.7c-14,0-25.7-11.7-25.5-25.7c0.1-13.9,11.6-25.3,25.5-25.3c14,0,25.7,11.7,25.5,25.7
	C230.6,218.2,219.1,229.6,205.2,229.7z"/>
<path class="st0" d="M294.6,229.7c-14,0-25.7-11.8-25.5-25.8c0.2-13.9,11.7-25.3,25.6-25.3c14,0,25.7,11.8,25.5,25.8
	C320,218.3,308.4,229.7,294.6,229.7z"/>
</svg>
