<?xml version="1.0" encoding="utf-8"?>
<!-- Generator: Adobe Illustrator 25.0.0, SVG Export Plug-In . SVG Version: 6.00 Build 0)  -->
<svg version="1.1" id="Layer_1" xmlns="http://www.w3.org/2000/svg" xmlns:xlink="http://www.w3.org/1999/xlink" x="0px" y="0px"
	 viewBox="0 0 512 512" style="enable-background:new 0 0 512 512;" xml:space="preserve">
<path d="M1067,148c0,141.4-114.6,256-256,256S555,289.4,555,148s114.6-256,256-256S1067,6.6,1067,148z M731,60v176
	c0,8.7,4.7,16.7,12.3,20.9c7.5,4.3,16.8,4.1,24.2-0.4l144-88c7.1-4.4,11.5-12.1,11.5-20.5s-4.4-16.1-11.5-20.5l-144-88
	c-7.4-5.4-16.7-4.7-24.2-0.4C735.7,43.3,731,51.3,731,60L731,60z"/>
</svg>
