<?xml version="1.0" encoding="utf-8"?>
<!-- Generator: Adobe Illustrator 25.0.0, SVG Export Plug-In . SVG Version: 6.00 Build 0)  -->
<svg version="1.1" id="Layer_1" xmlns="http://www.w3.org/2000/svg" xmlns:xlink="http://www.w3.org/1999/xlink" x="0px" y="0px"
	 viewBox="0 0 104.4 35.5" style="enable-background:new 0 0 104.4 35.5;" xml:space="preserve">
<style type="text/css">
	.st0{enable-background:new    ;}
	.st1{fill:#FFFFFF;}
</style>
<g class="st0">
	<path class="st1" d="M15.5,34.7H8.6V12.6H0V7.3c2.6,0.1,4.9-0.4,6.7-1.5S9.7,3,10,0.6h5.5C15.5,0.6,15.5,34.7,15.5,34.7z"/>
	<path class="st1" d="M31.6,26c0.2,1.2,0.8,2.2,1.6,3c0.8,0.8,1.8,1.2,3,1.2c1.2,0,2.2-0.3,3.1-1c0.9-0.7,1.5-1.6,2-2.8
		c0.5-1.1,0.8-2.2,1-3.3c0.2-1,0.3-2.1,0.4-3.2l-0.1-0.1c-1.7,2.5-4.3,3.8-7.8,3.8c-1.5,0-2.9-0.3-4.3-0.9s-2.6-1.5-3.5-2.5
		c-1.7-2-2.6-4.6-2.6-7.7c0-3.5,1.1-6.5,3.3-8.9C30,1.2,32.9,0,36.3,0c2.5,0,4.6,0.5,6.3,1.5c1.7,1,3.1,2.4,4,4.1
		c0.9,1.7,1.6,3.6,2,5.5c0.4,1.9,0.6,4.1,0.6,6.4c0,2.2-0.3,4.3-0.8,6.3c-0.5,2-1.3,3.9-2.3,5.6c-1,1.7-2.4,3.1-4.2,4.2
		c-1.8,1-3.8,1.5-6.1,1.5c-3,0-5.5-0.8-7.5-2.5c-2-1.6-3.2-3.9-3.6-6.9h6.8V26z M36.6,18.3c1.7,0,3.1-0.6,4-1.8
		c1-1.2,1.4-2.7,1.4-4.5c0-1.7-0.5-3.1-1.5-4.4c-1-1.3-2.3-1.9-4-1.9c-1.6,0-2.8,0.6-3.8,1.9c-0.9,1.2-1.4,2.7-1.4,4.3
		c0,1.7,0.4,3.2,1.3,4.5C33.6,17.6,34.9,18.3,36.6,18.3z"/>
	<path class="st1" d="M75.8,6.5c-3.4,2.9-6,7.1-8.1,12.6c-2,5.4-3,10.7-3.1,15.6h-7.5C58,24.6,61.8,15.4,68.7,7H52.5V0.6h23.4V6.5z"
		/>
	<path class="st1" d="M78.7,17.5c0-6.2,1.1-10.8,3.4-13.5s5.3-4.1,9.1-4.1c1.8,0,3.4,0.3,4.8,0.9c1.5,0.6,2.8,1.6,3.9,2.9
		c1.2,1.3,2.1,3.1,2.7,5.5c0.6,2.3,1,5.1,1,8.4c0,3.3-0.3,6.1-1,8.6c-0.6,2.4-1.6,4.2-2.8,5.5c-1.2,1.3-2.5,2.3-3.9,2.9
		s-3,0.9-4.8,0.9c-3.7,0-6.8-1.4-9.1-4.1C79.8,28.5,78.7,23.9,78.7,17.5z M85.7,17.5c0,1.1,0,2.1,0,2.8s0.1,1.8,0.3,3.1
		c0.2,1.3,0.5,2.4,0.8,3.2c0.4,0.8,0.9,1.5,1.7,2.1c0.8,0.6,1.7,0.9,2.7,0.9c1.1,0,2-0.3,2.7-0.9c0.8-0.6,1.3-1.3,1.7-2.1
		c0.4-0.8,0.6-1.8,0.8-3.2c0.2-1.3,0.3-2.3,0.3-3.1c0-0.7,0-1.7,0-2.8c0-0.7,0-1.3,0-1.8c0-0.5-0.1-1.1-0.1-2.1s-0.2-1.7-0.3-2.3
		c-0.1-0.6-0.3-1.3-0.6-2.1c-0.3-0.8-0.6-1.4-1-1.9S93.8,6.3,93.2,6c-0.6-0.3-1.3-0.5-2.1-0.5c-0.9,0-1.6,0.2-2.3,0.6
		c-0.7,0.4-1.2,1-1.6,1.7c-0.4,0.8-0.7,1.5-0.9,2.2c-0.2,0.7-0.4,1.6-0.5,2.7s-0.2,1.9-0.2,2.4S85.7,16.6,85.7,17.5z"/>
</g>
</svg>
