<?xml version="1.0" encoding="utf-8"?>
<!-- Generator: Adobe Illustrator 25.0.0, SVG Export Plug-In . SVG Version: 6.00 Build 0)  -->
<svg version="1.1" id="Layer_1" xmlns="http://www.w3.org/2000/svg" xmlns:xlink="http://www.w3.org/1999/xlink" x="0px" y="0px"
	 viewBox="0 0 87.4 38.3" style="enable-background:new 0 0 87.4 38.3;" xml:space="preserve">
<style type="text/css">
	.st0{fill:#FFFFFF;}
</style>
<g id="Frame" transform="translate(-6)">
	<g id="Light_1_">
		<g id="Group_60">
			<path id="Vector" class="st0" d="M25,8.2c1.2-1.4,1.7-3.2,1.6-5.1c-1.8,0.2-3.5,1.1-4.7,2.4C20.6,7,20,8.7,20.2,10.5
				C22,10.6,23.8,9.7,25,8.2z"/>
			<path id="Vector-2" class="st0" d="M26.6,10.9c-2.6-0.2-4.9,1.5-6.1,1.5s-3.2-1.4-5.3-1.4C12.4,11,9.9,12.6,8.6,15
				c-2.9,4.9-0.8,12.2,2,16.1c1.3,2,2.9,4.1,5.1,4.1s2.8-1.3,5.3-1.3s3.1,1.3,5.3,1.3c2.1,0,3.6-2,4.9-3.9c1-1.4,1.7-2.9,2.2-4.5
				c-2.6-1.1-4.3-3.7-4.2-6.6c0-2.5,1.4-4.8,3.5-6.1c-1.4-1.9-3.5-3.1-5.9-3.2"/>
		</g>
		<path id="Vector-3" class="st0" d="M44.7,8.3v5.1h4.1v3.5h-4.1v11.9c0,1.8,0.8,2.7,2.6,2.7c0.5,0,1,0,1.5-0.1v3.5
			c-0.8,0.1-1.6,0.2-2.5,0.2c-4.4,0-6.1-1.6-6.1-5.8V16.9h-3.1v-3.5h3.1V8.3H44.7z"/>
		<path id="Vector-4" class="st0" d="M63.7,34.9H59l-7.8-21.6h4.7l5.4,17.2l5.5-17.2h4.6L63.7,34.9z"/>
		<path id="Vector-5" class="st0" d="M92.2,22h-8.6v-8.6h-4.1V22h-8.6v4h8.6v8.7h4.1V26h8.6L92.2,22z"/>
	</g>
</g>
</svg>
