<?xml version="1.0" encoding="utf-8"?>
<!-- Generator: Adobe Illustrator 25.0.0, SVG Export Plug-In . SVG Version: 6.00 Build 0)  -->
<svg version="1.1" id="Layer_1" xmlns="http://www.w3.org/2000/svg" xmlns:xlink="http://www.w3.org/1999/xlink" x="0px" y="0px"
	 viewBox="0 0 265.6 83.3" style="enable-background:new 0 0 265.6 83.3;" xml:space="preserve">
<style type="text/css">
	.st0{fill:#FFFFFF;}
</style>
<g id="Group" transform="translate(-0.006 0.006)">
	<g id="Group-2">
		<path id="Vector" class="st0" d="M155.3,31.5c0.2-0.6,0.4-1.3,0.6-2c1.5-5.2,3-10.5,4.6-15.7l0.2-0.6c0.2-0.6,0.7-1,1.3-1h5.1
			c1.3,0,1.5,0.4,1.1,1.6l-2,5.4c-2.2,5.9-4.4,11.8-6.6,17.7c-0.1,0.2-0.2,0.4-0.3,0.6c-0.2,0.7-0.9,1.1-1.6,1.1
			c-1.5-0.1-2.9-0.1-4.4,0c-0.9,0.1-1.8-0.5-2-1.4c-0.8-2.3-1.7-4.5-2.5-6.7c-2-5.3-4-10.6-6-16c-0.2-0.4-0.3-0.9-0.4-1.3
			c-0.1-0.6,0.1-1,0.8-1c1.9-0.1,3.8,0,5.6,0c0.8,0,1.1,0.5,1.4,1.2l1.1,3.9c1.4,4.7,2.7,9.4,4.1,14.1
			C155.2,31.5,155.2,31.5,155.3,31.5z"/>
		<path id="Vector-2" class="st0" d="M178.8,25.4v12.2c0,0.6-0.4,1-1,1c0,0,0,0,0,0c-1.8,0.1-3.5,0.1-5.4,0c-0.5,0.1-1-0.3-1-0.8
			c0,0,0-0.1,0-0.1c-0.1-0.2-0.1-0.4-0.1-0.7V13.6c0.1-1,0.3-1.4,1.3-1.4h4.8c1,0,1.3,0.3,1.3,1.4V25.4z"/>
		<path id="Vector-3" class="st0" d="M175.1,0c0.7-0.1,1.3,0.1,2,0.3c1.3,0.5,2.2,1.8,2.3,3.2c0.4,2.2-1.1,4.2-3.3,4.6
			c-0.4,0.1-0.8,0.1-1.2,0c-0.4,0-0.7-0.1-1.1-0.1c-2-0.4-3.3-2.4-2.9-4.4c0.2-1.9,1.7-3.3,3.5-3.4C174.7,0,174.9,0,175.1,0z"/>
		<path id="Vector-4" class="st0" d="M265.6,23.3v0.1c-0.1-0.1-0.2-0.3-0.1-0.5v-0.3c0,0,0-0.1,0.1-0.1c0,0,0,0,0,0h-0.1v-0.3h0.1
			c0,0,0-0.1-0.1-0.1c0,0,0,0,0,0c-0.1-0.6-0.2-1.3-0.4-1.9c-0.9-4.3-4.2-7.6-8.5-8.6c-2.1-0.5-4.2-0.6-6.3-0.3
			c-4.3,0.4-7.9,3.3-9.2,7.4c-1.5,4.1-1.5,8.7,0.1,12.8c1.2,3.6,4.1,6.3,7.8,7.1c2,0.5,4.2,0.6,6.3,0.3c5.7-0.6,10-5.2,10.3-10.9
			h-0.1v-0.5c-0.1-0.2,0-0.4,0.1-0.5v0.1c0,0,0-0.1,0.1-0.1V23.3z M257.7,29.8c-0.2,0.7-0.5,1.4-0.9,1.9c-0.7,1-1.9,1.7-3.2,1.8
			c-0.6,0.1-1.3,0.1-1.9-0.1c-1.4-0.3-2.5-1.2-3.1-2.5c-0.5-1-0.8-2.2-0.9-3.4c-0.2-2-0.1-4,0.3-5.9c0.2-0.8,0.5-1.5,0.9-2.3
			c0.7-1.2,2-2,3.4-2.1c0.6-0.1,1.3-0.1,1.9,0.1c1.3,0.3,2.4,1.2,3,2.4c0.6,1.2,0.9,2.5,0.9,3.8c0.1,0.6,0.1,1.2,0.1,1.8
			C258.3,26.8,258.1,28.3,257.7,29.8z"/>
		<path id="Vector-5" class="st0" d="M207.5,0.3h-4.6c-1.3,0-1.5,0.3-1.5,1.5v11c0,0.3,0.1,0.5-0.1,0.7c-0.3-0.1-0.4-0.3-0.7-0.4
			c-3.2-2.1-7.3-2.4-10.8-0.7c-2.4,1.3-4.3,3.4-5.2,6c-0.9,2.5-1.3,5.2-1.1,7.8c0,2.5,0.6,5,1.6,7.2c1.1,2.5,3.2,4.3,5.8,5.2
			c3.5,1.2,7.3,0.5,10.1-1.7c0.3-0.1,0.4-0.4,0.6-0.5c0.2,0.4,0.3,0.8,0.4,1.2c0.1,0.5,0.6,0.9,1.1,0.9h0.8c1.2,0,2.3,0.1,3.5,0
			c0.9,0,1.2-0.3,1.2-1.3V1.6C208.7,0.5,208.4,0.3,207.5,0.3z M201.4,25.2v6.2c0,0.4-0.2,0.8-0.5,1c-1.6,0.9-3.4,1.3-5.2,1
			c-1.5-0.2-2.9-1.1-3.5-2.5c-0.5-1.1-0.8-2.2-0.9-3.4c-0.3-2.1-0.1-4.3,0.4-6.4c0.2-0.6,0.4-1.1,0.6-1.7c0.7-1.3,2-2.2,3.5-2.3
			c1.8-0.2,3.5,0.2,5.1,0.9c0.4,0.1,0.6,0.6,0.6,1L201.4,25.2z"/>
		<path id="Vector-6" class="st0" d="M227.5,27.9c1.9-0.1,3.8-0.6,5.6-1.5c1.8-0.9,3-2.6,3.4-4.5c0.3-1.2,0.2-2.5-0.1-3.7
			c-0.6-2.8-2.7-5.1-5.4-5.9c-1.6-0.5-3.3-0.7-4.9-0.7c-5.4-0.1-10.2,3.5-11.6,8.7c-1.1,3.7-1,7.7,0.1,11.4c1,3.6,3.9,6.4,7.6,7.2
			c1.6,0.4,3.3,0.6,5,0.5c2.4-0.1,4.9-0.5,7.1-1.4c0.9-0.4,1.2-0.7,1.2-1.7v-2.5c-0.1-1-0.4-1.3-1.4-1.1c-0.8,0.2-1.5,0.4-2.2,0.5
			c-2.2,0.5-4.6,0.6-6.8,0.3c-2.2-0.3-3.9-1.9-4.4-4.1c-0.2-0.7-0.3-1.4-0.4-2.1c0.2,0,0.3,0,0.4,0.1C223,27.9,225.2,28,227.5,27.9z
			 M220.6,22.5c0.2-1.3,0.6-2.6,1.3-3.7c1.1-1.5,3-2.3,4.9-1.9c0.2,0,0.3,0.1,0.4,0.1c1.7,0.2,2.9,1.7,2.7,3.4
			c0,0.3-0.1,0.5-0.2,0.8c-0.4,1.2-1.4,2-2.7,2.1c-0.7,0.1-1.4,0.2-2.1,0.2c-1.4-0.1-2.7-0.1-4-0.3C220.7,23,220.5,22.7,220.6,22.5z
			"/>
	</g>
	<g id="Group-3">
		<path id="Vector-7" class="st0" d="M131.6,83.3c-1.8-0.1-3.6-0.2-5.4-0.3c-4.8-0.4-9.6-1.1-14.4-2.3C95.7,76.9,80.9,69,68.7,57.8
			c-1.1-1-2.3-2.1-3.4-3.2c-0.3-0.3-0.5-0.6-0.6-0.9c-0.2-0.5-0.1-1,0.3-1.4c0.3-0.4,0.9-0.5,1.3-0.3c0.3,0.1,0.6,0.3,0.9,0.5
			c11.9,7.5,24.9,13,38.6,16.3c4.6,1.1,9.2,1.9,13.9,2.5c6.7,0.8,13.4,1.2,20.1,0.9c3.6-0.1,7.2-0.5,10.8-0.9
			c8.4-1.1,16.6-3,24.6-5.7c4.2-1.4,8.3-3,12.3-5c0.6-0.3,1.3-0.4,2-0.3c1.1,0.3,1.8,1.4,1.5,2.5c-0.1,0.1-0.1,0.3-0.2,0.5
			c-0.2,0.5-0.6,1-1.1,1.3c-3.8,3.1-7.9,5.7-12.3,7.9c-8.2,4.2-16.9,7.2-26,9c-5.2,1-10.4,1.5-15.7,1.7v0.1L131.6,83.3L131.6,83.3z
			 M192.7,50.3c2.2,0,4.3,0.3,6.5,0.8c0.6,0.2,1.1,0.4,1.7,0.6c0.8,0.3,1.3,1,1.4,1.9c0.1,1,0.2,1.9,0.1,2.9
			c-0.4,5.8-2.2,11.3-5.1,16.3c-1.1,1.8-2.4,3.4-3.9,4.8c-0.3,0.3-0.7,0.5-1.1,0.6c-0.6,0.2-1-0.2-1.1-0.8c0.1-0.4,0.1-0.7,0.3-1
			c1.1-3.2,2.3-6.3,3.2-9.6c0.5-1.8,0.9-3.6,1.1-5.5c0.1-0.7,0.1-1.3,0.1-2c0-1.1-0.8-2.1-1.8-2.5c-1-0.3-2.1-0.5-3.2-0.6
			c-3-0.1-6.1,0-9.1,0.4l-4,0.5c-0.4,0.1-0.8,0-1.1-0.4c-0.2-0.4-0.2-0.9,0.1-1.2c0.3-0.4,0.6-0.7,1-1c2.5-1.7,5.2-3,8.2-3.6
			C188.2,50.6,190.4,50.3,192.7,50.3z"/>
		<path id="Vector-8" class="st0" d="M25.5,22.5c-0.1-1.8-0.6-3.5-1.3-5.1c-1.2-2.9-3.6-5-6.6-5.8c-3.5-0.8-7.2,0-9.9,2.3
			c-0.2,0.2-0.4,0.4-0.7,0.5c-0.1-0.1-0.1-0.1-0.1-0.1c-0.1-0.3-0.2-0.7-0.3-1c-0.1-0.7-0.7-1.3-1.5-1.2c0,0,0,0-0.1,0
			c-1,0-2,0.1-3,0c-0.7-0.1-1.5,0.1-2,0.6C0,24.7,0,36.6,0.1,48.4c0.4,0.6,1.1,0.9,1.8,0.8c1.2-0.1,2.4,0,3.6,0c2.1,0,2.1,0,2.1-2.1
			v-9.7c0-0.3-0.1-0.5,0.1-0.7c1.7,1.3,3.7,2.1,5.8,2.3c2.8,0.4,5.7-0.5,7.8-2.5c1.7-1.5,2.9-3.5,3.5-5.7
			C25.5,28.2,25.8,25.4,25.5,22.5z M115.5,27.5c2.5,0.5,5,0.5,7.5,0.1c1.5-0.2,2.9-0.7,4.2-1.4c1.5-0.8,2.6-2.2,3-3.8
			c1.4-4.2-0.9-8.7-5-10.1c-2.1-0.7-4.4-0.9-6.6-0.6c-4.9,0.4-9.1,3.8-10.2,8.6c-1,3.5-1,7.1-0.1,10.6c0.9,4.2,4.3,7.4,8.5,8.1
			c2.5,0.5,5.1,0.5,7.6,0.1c1.3-0.2,2.7-0.6,3.9-1.1c0.7-0.2,1.2-0.9,1.1-1.7c-0.1-0.8,0-1.7,0-2.5c0-1-0.4-1.3-1.4-1.1
			c-0.9,0.3-1.9,0.5-2.8,0.6c-2.1,0.4-4.2,0.5-6.3,0.1c-2.8-0.6-4.8-3.2-4.5-6.1C114.9,27.4,115.3,27.4,115.5,27.5z M69.8,38.7h-4.4
			c-1.1,0-1.5-0.3-1.5-1.5V13.6c0-0.3,0.1-0.6,0.1-0.8c0.1-0.4,0.5-0.7,0.9-0.6h4.2c0.6,0,1,0.4,1.1,1c0.2,0.5,0.3,0.9,0.4,1.4
			c0.3,0,0.5-0.3,0.8-0.4c1.8-1.2,3.8-2.1,5.9-2.5c1.7-0.3,3.3-0.3,5,0c1.6,0.3,3,1.3,3.9,2.6c0,0.1,0.1,0.2,0.2,0.3
			c-0.1,0.1,0,0.1,0.1,0.1c0.8-0.5,1.7-1,2.6-1.5c2.3-1.2,4.9-1.8,7.5-1.7c1.9,0,3.6,0.8,4.9,2.1c1.2,1.3,1.8,3,1.8,4.7
			c0.1,0.4,0.1,0.8,0.1,1.2v17.5c0,1.5-0.2,1.7-1.7,1.7h-4c-0.3,0-0.6,0-0.8-0.1c-0.4-0.1-0.7-0.4-0.8-0.8C96,37.5,96,37.1,96,36.7
			V21c0-0.6,0-1.3-0.2-1.9c-0.3-1-1.2-1.8-2.3-1.9c-2-0.1-3.9,0.3-5.7,1.1c-0.3,0.1-0.4,0.3-0.4,0.6v17.9c0,0.3,0,0.6-0.1,1
			c0,0.5-0.4,0.8-0.8,0.8c-0.5,0.1-1,0.1-1.5,0.1h-3.5c-1.2,0-1.5-0.3-1.5-1.5V21.1c0-0.6-0.1-1.2-0.2-1.7c-0.2-1.1-1.2-1.9-2.3-2
			c-2-0.1-4,0.3-5.8,1.2c-0.3,0.1-0.4,0.4-0.4,0.6v18.1C71.3,38.4,71.1,38.7,69.8,38.7z M36.2,38.6h-4.3c-0.3,0-0.5,0-0.8-0.1
			c-0.4-0.1-0.8-0.4-0.8-0.8V13.9c0-1.5,0.2-1.7,1.7-1.7h3.2c0.7-0.1,1.4,0.4,1.5,1.2c0.3,0.8,0.4,1.7,0.6,2.6
			c0.2-0.1,0.4-0.2,0.6-0.4c0.6-0.6,1.2-1.2,1.9-1.7c1.7-1.4,3.9-2,6.1-1.9c0.9,0.1,1.1,0.3,1.2,1.2c0.1,1.2,0.1,2.3,0.1,3.5
			c0,0.5,0,1-0.1,1.4c0,0.5-0.4,0.9-0.9,0.9c-0.5,0-0.9,0-1.4-0.1c-2.2-0.1-4.4,0.2-6.5,1c-0.4,0.2-0.4,0.5-0.4,0.9v16.3
			c0,0.3,0,0.6-0.1,0.9c0,0.4-0.4,0.8-0.8,0.8L36.2,38.6z M56.3,38.5h-4.6c-0.2,0-0.3,0-0.4-0.1c-0.5,0-0.9-0.4-0.9-0.9
			c-0.1-0.3-0.1-0.6-0.1-0.8c0.1-3.7,0.1-7.6,0.1-11.5V13.3c0.1-0.8,0.3-1.1,1.1-1.2c1.7-0.1,3.5-0.1,5.2,0c0.8,0,1,0.3,1.1,1
			c0.1,0.3,0.1,0.6,0.1,0.9v22.6c0,0.4-0.1,0.8-0.1,1.1c0,0.4-0.4,0.8-0.8,0.8L56.3,38.5z M17.5,29.6c-0.2,1-0.8,2-1.5,2.7
			c-0.8,0.8-1.9,1.2-3,1.2c-1.7,0.1-3.4-0.3-4.9-1.1c-0.4-0.2-0.6-0.6-0.6-1v-6.1c0-2,0.1-4.1,0-6.1c-0.1-0.5,0.2-0.9,0.7-1
			c1.7-0.9,3.7-1.3,5.7-0.9c1.4,0.2,2.6,1.1,3.2,2.5c0.5,1.1,0.8,2.3,0.9,3.5C18.2,25.3,18.1,27.5,17.5,29.6z M114.7,22.3
			c0.1-0.8,0.3-1.6,0.6-2.3c0.8-2.1,2.9-3.4,5.2-3.2c0.6,0.1,1.2,0.2,1.8,0.4c0.9,0.4,1.5,1.2,1.5,2.1c0.1,0.6,0.1,1.2-0.1,1.7
			c-0.4,1.1-1.4,1.9-2.5,1.9c-0.7,0.2-1.4,0.3-2.2,0.2c-1.3,0-2.6-0.1-3.9-0.3C114.6,22.9,114.6,22.9,114.7,22.3L114.7,22.3z
			 M54.1,0c0.5,0,1.1,0,1.6,0.3c1.8,0.6,2.9,2.4,2.5,4.3c-0.1,1.7-1.4,3.2-3.2,3.5c-0.7,0.1-1.5,0.1-2.2,0c-2-0.3-3.4-2.2-3.2-4.3
			c0.1-2.2,1.9-3.9,4.1-3.8C53.9,0,54,0,54.1,0z"/>
	</g>
</g>
</svg>
