<?xml version="1.0" encoding="utf-8"?>
<!-- Generator: Adobe Illustrator 25.0.0, SVG Export Plug-In . SVG Version: 6.00 Build 0)  -->
<svg version="1.1" id="Layer_1" xmlns="http://www.w3.org/2000/svg" xmlns:xlink="http://www.w3.org/1999/xlink" x="0px" y="0px"
	 viewBox="0 0 2000 527.1" style="enable-background:new 0 0 2000 527.1;" xml:space="preserve">
<style type="text/css">
	.st0{fill:#FFFFFF;}
	.st1{fill:#8796B2;}
	.st2{fill:#9FABC2;}
</style>
<g id="Group">
	<g id="Group-2">
		<path id="Vector" class="st0" d="M986,29.4L957.5,1.2h-421l-28.5,28.2v109.4h310.6l28.5,28.2v222.4H675.4L647,361.2V167H508.1
			v331.8l28.5,28.3h421l28.5-28.4V29.4z"/>
		<g id="Group-3">
			<path id="Vector-2" class="st0" d="M140.6,167l28.5-28.2h310.6V29.4L450.9,1.2H30.1L1.6,29.4V167H140.6z"/>
			<path id="Vector-3" class="st0" d="M340.7,166.9l-28.8,28.4H30.1L1.6,223.5v275.2l28.5,28.4h420.8l28.6-28.4V361.1H340.7
				l-28.6,28.2H140.6v-28.2L169,333h281.9l28.6-28.2V166.9H340.7z"/>
		</g>
		<g id="Group-4">
			<path id="Vector-4" class="st0" d="M1153.4,167l28.6-28.2h310.3V29.4l-28.3-28.2h-420.9l-28.6,28.2V167H1153.4z"/>
			<path id="Vector-5" class="st0" d="M1353.5,166.9l-28.5,28.4h-282l-28.6,28.2v275.2l28.6,28.4h420.9l28.5-28.4V361.1h-138.9
				l-28.5,28.2h-171.6v-28.2L1182,333h281.9l28.5-28.2V166.9H1353.5z"/>
		</g>
		<g id="Group-5">
			<path id="Vector-6" class="st0" d="M1660,167l28.5-28.2H1999V29.4l-28.7-28.2h-420.8l-28.5,28.2V167H1660z"/>
			<path id="Vector-7" class="st0" d="M1860,166.9l-28.6,28.4h-281.8l-28.5,28.2v275.2l28.5,28.4h420.8l28.6-28.4V361.1h-139
				l-28.6,28.2H1660v-28.2l28.5-28.2h281.9l28.6-28.2V166.9H1860z"/>
		</g>
	</g>
</g>
<g id="Group-6">
	<path id="Vector-8" class="st0" d="M647,166.9c-11.5,0.5-23.2,0.7-34.7,0.9s-23.2,0.2-34.7,0.2c-11.5,0-23.2,0-34.7-0.2l-17.4-0.2
		c-5.7-0.2-11.5-0.2-17.4-0.5c5.7-0.2,11.5-0.5,17.4-0.5l17.4-0.2c11.5-0.2,23.2-0.2,34.7-0.2c11.5,0,23.2,0,34.7,0.2
		C623.8,166.2,635.5,166.5,647,166.9z"/>
	<path id="Vector-9" class="st0" d="M508.1,29.4l28.2-28.4h0.2c35.1-0.5,70.1-0.5,105.2-0.7L746.9,0l105.2,0.2
		c35.2,0.2,70.1,0.2,105.2,0.7h0.2l28.2,28.4L957.2,1.4h0.2c-35.2,0.5-70.1,0.5-105.2,0.7L746.9,2.4L641.7,2.2
		c-35.1-0.3-70.1-0.3-105.2-0.8h0.2L508.1,29.4z"/>
	<path id="Vector-10" class="st1" d="M847.1,389.4c-0.2-36.9-0.7-74.1-0.7-111.1l-0.2-111.1l0.9,0.9h-0.5l-0.2-0.2l-28.8-28.2
		l0.7,0.2l-77.7,0.2l-77.5-0.5l-155.1-0.6h-0.7v-0.6c0-36.5,0.5-72.9,0.7-109.4c0.2,36.5,0.7,72.9,0.7,109.4l-0.7-0.7l155.2-0.5
		l77.7-0.2l77.7,0.2h0.5l0.2,0.2l28.5,28.4l-0.7-0.2h0.9v0.9l-0.2,111.1C847.6,315.2,847.3,352.4,847.1,389.4z"/>
	<path id="Vector-11" class="st0" d="M847.1,389.3c-14.3,0.5-28.6,0.7-42.8,0.7s-28.6,0.2-42.8,0.2h-43c-14.3,0-28.6-0.2-42.8-0.2
		h-0.2l-0.2-0.2c-9.3-9.4-18.6-19.2-28-28.9c9.8,9.2,19.4,18.5,29.2,27.7l-0.6-0.2c14.3-0.2,28.6-0.2,42.8-0.2h43
		c14.3,0,28.6,0,42.8,0.2S832.7,389.1,847.1,389.3z"/>
	<path id="Vector-12" class="st1" d="M647,166.9c0.5,16.1,0.7,32.4,0.9,48.5l0.2,48.6l-0.2,48.5l-0.2,24.2
		c-0.2,8.1-0.2,16.1-0.5,24.2c-0.2-8.1-0.5-16.1-0.5-24.2l-0.2-24.2l-0.2-48.5l0.2-48.6C646.2,199.4,646.5,183.3,647,166.9z"/>
	<path id="Vector-13" class="st1" d="M508.1,167l0.5,166.1l0.2,165.8l-0.5-0.7h0.2v0.2l28.6,28.2l-0.7-0.2l210.4-0.2h210.7l-1.2,1.2
		v-0.5l0.5-0.5l28.4-28.1l0.2-0.2h0.5l-0.9,0.9l0.2-234.7L986,29.4l0.7,234.7l0.3,234.7v0.9h-0.9l0.7-0.2l-28.5,28.4l0.2-0.7v0.9
		H746.9l-210.4-0.2h-0.2l-0.3-0.2l-28.4-28.2l-0.2-0.2V333L508.1,167z"/>
</g>
<g id="Group-7">
	<path id="Vector-14" class="st0" d="M1.6,29.4L29.9,0.9h0.2c35.1-0.5,70.1-0.5,105.2-0.7L240.5,0l105.2,0.2
		c35.2,0.2,70.1,0.2,105.2,0.7h0.2l28.2,28.4L450.8,1.4h0.2c-35.2,0.5-70.1,0.5-105.2,0.7L240.5,2.4L135.3,2.2
		C100.2,1.9,65.2,1.9,30.1,1.7h0.2L1.6,29.4z"/>
	<path id="Vector-15" class="st1" d="M479.6,29.4l0.7,109.4v0.7h-0.7l-155.4,0.2l-77.7,0.2h-77.7l0.7-0.2l-28.6,28.2l0.2,0.2h-0.6
		L1.7,167.8L0.9,167c0-23,0-45.9,0.2-68.9l0.5-68.9l0.5,68.9C2.4,121,2.4,144,2.4,167l-0.7-0.7l138.9-0.2l-0.7,0.2l28.5-28.4
		l0.2-0.2h78.2l77.7,0.2l155.2,0.2l-0.7,0.7L479.6,29.4z"/>
	<path id="Vector-16" class="st0" d="M1.6,223.5l28.2-28.4v-0.2h0.2l70.6-0.5l70.4-0.2h140.8l-0.7,0.2l28.6-28.2l0.4-0.2h0.5
		l69.3,0.5l69.6,0.5l-69.6,0.7l-69.3,0.6l0.5-0.5l-28.5,28.4l-0.2,0.2h-0.6l-70.4,0.2l-70.4-0.2l-70.4-0.2l-70.6-0.5h0.2L1.6,223.5z
		"/>
	<path id="Vector-17" class="st1" d="M140.6,389.3l-0.2-28.2v-0.2l28.2-28.4l0.2-0.2h0.2l70.6-0.3l70.5-0.2h140.8l-0.7,0.5
		l28.6-28.2l-0.2,0.7l0.2-68.9l0.8-68.9l0.5,68.9l0.5,68.9v0.2l-0.2,0.2l-28.5,28.4l-0.5,0.2h-0.5l-70.3,0.3l-70.5-0.3h-70.5
		l-70.6-0.5h0.5l-28.6,27.9v-0.2L140.6,389.3z"/>
	<path id="Vector-18" class="st2" d="M479.6,361.2l0.5,137.6v0.5l-28.5,28.4h-0.7l-210.4,0.5H135.3l-105.2-0.2h-0.5l-0.3-0.2
		L0.9,499.5l-0.2-0.2v-0.5l0.2-137.6l0.7-137.6l0.5,137.6l0.2,137.6l-0.2-0.5l28.6,28.2l-0.7-0.2l105.2-0.2h105.3l210.4,0.5h-0.5
		l28.6-28.2l-0.2,0.5L479.6,361.2z"/>
	<path id="Vector-19" class="st0" d="M140.6,389.4c28.6-0.5,57.2-0.7,85.8-0.9l85.8-0.2l-0.9,0.2l28.5-28.2l0.2-0.2h0.5
		c23.2,0,46.4,0,69.6,0.2l69.6,0.7c-23.2,0.5-46.4,0.7-69.6,0.7c-23.2,0.2-46.4,0.2-69.6,0.2l0.7-0.2l-28.5,28.2l-0.2,0.2H312
		l-85.8-0.2C197.8,390.1,169,389.8,140.6,389.4z"/>
</g>
<g id="Group-8">
	<path id="Vector-20" class="st0" d="M1014.5,29.4l28.2-28.4h0.2c35.1-0.5,70.1-0.5,105.2-0.7L1253.5,0l105.2,0.2
		c35.2,0.2,70.1,0.2,105.2,0.7h0.2l28.2,28.4l-28.6-27.9h0.2c-35.2,0.5-70.1,0.5-105.2,0.7l-105.3,0.2l-105.2-0.2
		c-35.2-0.3-70.1-0.3-105.3-0.8h0.2L1014.5,29.4z"/>
	<path id="Vector-21" class="st1" d="M1492.4,29.4l0.7,109.4v0.7h-0.7l-155.2,0.2l-77.7,0.2h-77.7l0.7-0.2l-28.6,28.2l-0.2,0.2h-0.6
		l-138.7-0.4l-0.7-0.8c0-23,0-45.9,0.2-68.9l0.5-68.9l0.5,68.9c0.2,23,0.2,45.9,0.2,68.9l-0.7-0.7l138.9-0.2l-0.7,0.2l28.5-28.4
		l0.2-0.2h78.2l77.7,0.2l155.2,0.2l-0.7,0.7L1492.4,29.4z"/>
	<path id="Vector-22" class="st0" d="M1014.5,223.5l28.2-28.4l0.2-0.2h0.2l70.4-0.5l70.4-0.2H1325l-0.7,0.2l28.5-28.2l0.2-0.2h0.5
		l69.6,0.5l69.3,0.5l-69.3,0.7l-69.6,0.6l0.7-0.6l-28.5,28.4l-0.2,0.2h-0.5l-70.5,0.2l-70.6-0.2l-70.4-0.2l-70.4-0.5h0.2
		L1014.5,223.5z"/>
	<path id="Vector-23" class="st1" d="M1153.4,389.3l-0.2-28.2l0.2-0.2l28.2-28.4l0.2-0.2h0.2l70.6-0.3l70.3-0.2h141.1l-0.7,0.5
		l28.5-28.2l-0.2,0.7l0.6-68.9l0.4-68.9l0.7,68.9l0.2,68.9v0.2l-0.2,0.2l-28.5,28.4l-0.2,0.2h-0.5l-70.5,0.3l-70.5-0.3h-70.3
		l-70.5-0.5h0.2l-28.6,27.9v-0.2L1153.4,389.3z"/>
	<path id="Vector-24" class="st2" d="M1492.4,361.2l0.7,137.6v0.2l-0.2,0.2l-28.5,28.4h-0.5l-210.4,0.5h-105.2l-105.2-0.2h-0.5
		l-0.3-0.2l-28.4-28.2l-0.2-0.2v-0.5l0.2-137.6l0.5-137.6l0.7,137.6l0.2,137.6l-0.2-0.5l28.5,28.2l-0.5-0.2l105.2-0.2h105.2
		l210.4,0.5h-0.5l28.5-28.2v0.5L1492.4,361.2z"/>
	<path id="Vector-25" class="st0" d="M1153.3,389.4c28.6-0.5,57.2-0.7,85.8-0.9l85.8-0.2l-0.9,0.2l28.5-28.2l0.2-0.2h0.5
		c23.2,0,46.4,0,69.6,0.2l69.6,0.7c-23.2,0.5-46.4,0.7-69.6,0.7c-23.2,0.2-46.4,0.2-69.6,0.2l0.7-0.2l-28.5,28.2l-0.2,0.2h-0.5
		l-85.8-0.2C1210.7,390.1,1182,389.8,1153.3,389.4z"/>
</g>
<g id="Group-9">
	<path id="Vector-26" class="st0" d="M1521.1,29.4l28.2-28.4h0.2c35.1-0.5,70.1-0.5,105.2-0.7L1760,0l105.2,0.2
		c35.2,0.2,70.1,0.2,105.2,0.7h0.2l28.2,28.4l-28.6-27.9h0.2c-35.2,0.5-70.1,0.5-105.2,0.7L1760,2.4l-105.2-0.2
		c-35.1-0.3-70.1-0.3-105.2-0.8h0.2L1521.1,29.4z"/>
	<path id="Vector-27" class="st1" d="M1999,29.4l0.7,109.4v0.6h-0.7l-155.4,0.2l-77.7,0.2h-77.7l0.7-0.2l-28.7,28.4l-0.2,0.2h-0.5
		l-138.9-0.2l-0.7-0.8c0-23,0-45.9,0.2-68.9l0.5-68.9l0.5,68.9c0.2,23,0.2,45.9,0.2,68.9l-0.7-0.7l138.9-0.2l-0.7,0.2l28.5-28.4
		l0.2-0.2h78.2l77.7,0.2l155.2,0.2l-0.7,0.7L1999,29.4z"/>
	<path id="Vector-28" class="st0" d="M1521.1,223.5l28.2-28.4v-0.2h0.2l70.6-0.5l70.3-0.2h141l-0.7,0.2l28.5-28.2l0.5-0.2h0.3
		l69.6,0.5l69.5,0.5l-69.6,0.7l-69.5,0.6l0.7-0.5l-28.5,28.4l-0.2,0.2h-0.6l-70.4,0.2l-70.6-0.2l-70.3-0.2l-70.6-0.5h0.2
		L1521.1,223.5z"/>
	<path id="Vector-29" class="st1" d="M1660,389.3l-0.2-28.2v-0.2l28.2-28.4l0.2-0.2h0.2l70.6-0.3l70.5-0.2h140.8l-0.7,0.5l28.6-28.2
		l-0.2,0.7l0.2-68.9l0.8-68.9l0.5,68.9l0.5,68.9v0.2l-0.5,0.2l-28.5,28.4l-0.2,0.2h-0.5l-70.3,0.3l-70.5-0.3H1759l-70.6-0.5h0.5
		l-28.8,27.9l0.2-0.2L1660,389.3z"/>
	<path id="Vector-30" class="st2" d="M1999,361.2l0.5,137.6v0.2l-0.2,0.2l-28.5,28.4h-0.5l-210.4,0.5h-105.2l-105.2-0.2h-0.5
		l-0.3-0.2l-28.4-28.2l-0.2-0.2v-0.5l0.2-137.6l0.7-137.6l0.5,137.6l0.2,137.6l-0.2-0.5l28.6,28.2l-0.7-0.2l105.2-0.2H1760
		l210.4,0.5h-0.5l28.6-28.2l-0.2,0.5L1999,361.2z"/>
	<path id="Vector-31" class="st0" d="M1660,389.4c28.6-0.5,57.2-0.7,85.8-0.9l85.8-0.2l-0.9,0.2l28.5-28.2l0.2-0.2h0.5
		c23.2,0,46.4,0,69.6,0.2l69.6,0.7c-23.2,0.5-46.4,0.7-69.6,0.7c-23.2,0.2-46.4,0.2-69.6,0.2l0.7-0.2l-28.5,28.2l-0.2,0.2h-0.5
		l-85.8-0.2C1717.2,390.1,1688.4,389.8,1660,389.4z"/>
</g>
</svg>
