<?xml version="1.0" encoding="utf-8"?>
<!-- Generator: Adobe Illustrator 25.0.0, SVG Export Plug-In . SVG Version: 6.00 Build 0)  -->
<svg version="1.1" id="Layer_1" xmlns="http://www.w3.org/2000/svg" xmlns:xlink="http://www.w3.org/1999/xlink" x="0px" y="0px"
	 viewBox="0 0 67.3 24.5" style="enable-background:new 0 0 67.3 24.5;" xml:space="preserve">
<style type="text/css">
	.st0{fill:none;}
	.st1{fill:#FFFFFF;}
</style>
<rect x="-1441.7" y="-2057.9" class="st0" width="2983.5" height="4096"/>
<g>
	<path class="st1" d="M0.5,9.6c-0.1-2.7,0.6-5,2.1-6.7c1.5-1.8,3.6-2.6,6.3-2.6c2.2,0,4.1,0.7,5.6,2c1.5,1.3,2.3,3.1,2.3,5.2
		c0,1.1-0.2,2.1-0.6,3c-0.4,0.9-0.9,1.6-1.5,2.2c-0.6,0.6-1.3,1.2-2.1,1.8c-0.8,0.6-1.6,1.1-2.3,1.6c-0.8,0.5-1.5,1-2.3,1.7
		s-1.5,1.3-2,2H17v4H0c0-0.9,0.1-1.7,0.2-2.4S0.7,20,1,19.3s0.7-1.2,1.1-1.6c0.3-0.4,0.8-1,1.6-1.5c0.7-0.6,1.3-1,1.7-1.3
		c0.4-0.3,1.1-0.8,2-1.4c0.1-0.1,0.5-0.4,1.2-0.8c0.7-0.5,1.1-0.8,1.4-1c0.3-0.2,0.6-0.5,1-1c0.4-0.4,0.7-0.9,0.9-1.3
		c0.2-0.4,0.3-1,0.3-1.5c0-1.1-0.3-2-1-2.6c-0.6-0.6-1.5-1-2.5-1c-1.3,0-2.2,0.5-2.8,1.6C5.3,6.9,5,8.1,5,9.6H0.5z"/>
	<path class="st1" d="M18.4,12.2c0-4.2,0.8-7.3,2.3-9.1c1.6-1.9,3.6-2.8,6.1-2.8c1.2,0,2.3,0.2,3.3,0.6c1,0.4,1.9,1.1,2.7,1.9
		c0.8,0.9,1.4,2.1,1.9,3.7c0.4,1.6,0.7,3.5,0.7,5.6c0,2.2-0.2,4.1-0.7,5.8s-1.1,2.9-1.9,3.8c-0.8,0.9-1.7,1.5-2.7,1.9
		c-1,0.4-2.1,0.6-3.3,0.6c-2.6,0-4.6-0.9-6.1-2.8C19.1,19.6,18.4,16.5,18.4,12.2z M23,12.2c0,0.8,0,1.4,0,1.9c0,0.5,0.1,1.2,0.2,2.1
		c0.1,0.9,0.3,1.6,0.6,2.2c0.2,0.5,0.6,1,1.1,1.5c0.5,0.4,1.1,0.6,1.8,0.6c0.7,0,1.3-0.2,1.9-0.6c0.5-0.4,0.9-0.9,1.1-1.5
		c0.2-0.5,0.4-1.3,0.6-2.2c0.1-0.9,0.2-1.6,0.2-2.1c0-0.5,0-1.1,0-1.9c0-0.5,0-0.9,0-1.2c0-0.3,0-0.8-0.1-1.4c0-0.6-0.1-1.1-0.2-1.6
		c-0.1-0.4-0.2-0.9-0.4-1.4c-0.2-0.5-0.4-1-0.7-1.3c-0.3-0.3-0.6-0.6-1-0.8s-0.9-0.3-1.4-0.3c-0.6,0-1.1,0.1-1.6,0.4
		c-0.5,0.3-0.8,0.7-1.1,1.2c-0.3,0.5-0.5,1-0.6,1.5c-0.2,0.5-0.3,1.1-0.3,1.8c-0.1,0.7-0.1,1.3-0.1,1.7S23,11.6,23,12.2z"/>
	<path class="st1" d="M37.2,9.6c-0.1-2.7,0.6-5,2.1-6.7c1.5-1.8,3.6-2.6,6.3-2.6c2.2,0,4.1,0.7,5.6,2c1.5,1.3,2.3,3.1,2.3,5.2
		c0,1.1-0.2,2.1-0.6,3c-0.4,0.9-0.9,1.6-1.5,2.2s-1.3,1.2-2.1,1.8c-0.8,0.6-1.6,1.1-2.3,1.6c-0.8,0.5-1.5,1-2.3,1.7
		c-0.8,0.7-1.5,1.3-2,2h10.9v4h-17c0-0.9,0.1-1.7,0.2-2.4s0.4-1.4,0.8-2.1s0.7-1.2,1.1-1.6c0.3-0.4,0.8-1,1.6-1.5
		c0.7-0.6,1.3-1,1.7-1.3c0.4-0.3,1.1-0.8,2-1.4c0.1-0.1,0.5-0.4,1.2-0.8c0.7-0.5,1.1-0.8,1.4-1c0.3-0.2,0.6-0.5,1-1
		c0.4-0.4,0.7-0.9,0.9-1.3c0.2-0.4,0.3-1,0.3-1.5c0-1.1-0.3-2-1-2.6c-0.6-0.6-1.5-1-2.5-1c-1.3,0-2.2,0.5-2.8,1.6
		c-0.6,1-0.9,2.3-0.9,3.7H37.2z"/>
	<path class="st1" d="M67.3,23.8h-4.7v-15h-5.8V5.3c1.8,0,3.3-0.3,4.6-1s2-1.9,2.2-3.6h3.7V23.8z"/>
</g>
</svg>
