<?xml version="1.0" encoding="utf-8"?>
<!-- Generator: Adobe Illustrator 25.0.0, SVG Export Plug-In . SVG Version: 6.00 Build 0)  -->
<svg version="1.1" id="Layer_1" xmlns="http://www.w3.org/2000/svg" xmlns:xlink="http://www.w3.org/1999/xlink" x="0px" y="0px"
	 viewBox="0 0 82.6 157.3" style="enable-background:new 0 0 82.6 157.3;" xml:space="preserve">
<style type="text/css">
	.st0{fill:#4D4D4E;}
	.st1{fill:#ED1C76;}
	.st2{fill:#FFFFFF;}
</style>
<g id="Frame" transform="translate(-0.029 -0.005)">
	<g id="Group">
		<path id="Vector" d="M41.9,6.6c-3,0-5.9,0.6-8.6,1.7c-5,2.2-9.3,5.9-12.2,10.6c-2.7,4.4-4.3,9.4-4.7,14.5c16.6,5.5,34.5,5.5,51,0
			c-0.4-5.2-2-10.2-4.7-14.6c-2.9-4.7-7.1-8.4-12.2-10.6C47.8,7.2,44.9,6.6,41.9,6.6z M61.4,5.8c10.7,7.1,17.1,19.2,17,32
			c0,10.2-4,20.1-11.1,27.4c17.6,16.6,21.5,34.5,4.1,53.1c-0.3,5.1-0.8,10.3-1.6,15.3c-0.5,4-1.4,7.9-2.4,11.7
			c-1.2,4.1-3.5,10.3-8.1,11.7c0,0,0,0-0.1,0c-0.8,0.2-1.6,0.2-2.3,0.1c-4.2-0.6-6.7-5.4-8.2-9c-1.2-3.1-2.2-6.3-2.9-9.6
			c-0.9-4-1.6-8.1-2.2-12.1c-1.5,0-2.9,0-4.5,0c-0.6,4.1-1.3,8.2-2.2,12.1c-0.7,3.3-1.7,6.5-2.9,9.6c-1.5,3.5-4,8.3-8.2,9
			c-0.8,0.1-1.6,0.1-2.3-0.1c0,0,0,0-0.1,0c-4.6-1.4-6.9-7.6-8.1-11.7c-1.1-3.9-1.9-7.8-2.4-11.7c-0.7-5.1-1.2-10.2-1.6-15.3
			C-6.1,99.8-2.2,81.9,15.4,65.2C8.1,58,4.1,48.1,4.2,37.8C4.1,25,10.5,12.9,21.2,5.8C33.5-1.9,49.1-1.9,61.4,5.8z M15.2,100.4h25.6
			V75.6c-3.4,0-6.7-0.5-10-1.3c-0.6-0.1-0.9-0.7-0.8-1.3c0,0,0-0.1,0-0.1c0.2-0.6,0.7-0.9,1.3-0.7c0,0,0,0,0.1,0
			c3.1,0.9,6.2,1.3,9.4,1.3v-6C26,66.9,14.2,53,14.2,36c0-17.4,12.5-31.6,27.8-31.6c15.4,0,27.8,14.1,27.8,31.6
			c0,17-11.9,30.9-26.7,31.6v5.9c2.8-0.1,5.5-0.6,8.2-1.3c0.6-0.2,1.2,0.2,1.4,0.7c0.2,0.6-0.2,1.2-0.7,1.3
			c-2.9,0.8-5.8,1.2-8.8,1.3v24.8h24.5c-1.1-7.5-2.7-15-4.6-22.4c-0.1-0.6,0.2-1.1,0.8-1.3c0,0,0,0,0,0c0.6-0.2,1.2,0.2,1.3,0.8
			c0,0,0,0,0,0c1.6,6.2,3,12.4,4,18.7c3.7,0,8.7-0.3,11.5-2.7c-0.2-9.2-5.5-18.1-14.7-26.8c-1.5,1.3-3.1,2.5-4.8,3.6
			c-0.5,0.3-1.2,0.2-1.5-0.3c0,0,0,0,0,0c-0.3-0.5-0.2-1.1,0.3-1.4c0,0,0,0,0.1,0c10.4-6.7,16.6-18.2,16.5-30.6
			c0.1-12.1-6-23.5-16.1-30.3c-11.5-7.3-26.3-7.3-37.8,0C12.3,14.3,6.2,25.7,6.3,37.8c-0.1,12.4,6.1,23.9,16.5,30.6
			c0.5,0.3,0.7,1,0.3,1.5c0,0,0,0,0,0c-0.3,0.5-1,0.7-1.5,0.3c-1.7-1.1-3.3-2.3-4.8-3.6C7.7,75.3,2.3,84.3,2.1,93.5
			c2.8,2.3,7.9,2.7,11.5,2.7c1.1-6.3,2.4-12.5,4-18.7c0.1-0.6,0.7-0.9,1.3-0.8c0,0,0,0,0,0c0.6,0.1,0.9,0.7,0.8,1.3c0,0,0,0,0,0
			C17.8,85.4,16.3,92.9,15.2,100.4z M68.1,106H42.9v8.4c0,0.6-0.5,1.1-1.1,1.1c-0.6,0-1.1-0.5-1.1-1.1V106H14.4
			c-0.5,3.9-0.8,7.9-1.1,11.8c0.2,2.9,0.6,9.7,1.7,16.7c6.8,3.3,13.7,4,20.4,0.2c0.8-4.1,1.3-7.6,1.6-9.4c0-0.5,0.5-0.9,1-0.9
			c2.2-0.1,4.3-0.1,6.5,0c0.5,0,0.9,0.4,1,0.9c0.2,1.8,0.7,5.3,1.6,9.4c6.7,3.7,13.6,3,20.4-0.2c0.8-5.5,1.4-11.1,1.7-16.7
			C69,113.8,68.6,109.9,68.1,106z M13.3,98.3c-0.9,5.6-1.6,11.2-1.9,16.9c-5-5.2-8.2-11.9-9.1-19.1C5.7,97.7,9.5,98.5,13.3,98.3z
			 M34.9,137.4c-1.8,8.1-4.8,16.9-9.5,17.6c-0.5,0.1-1,0.1-1.5,0c-4.3-1.4-6.9-9.5-8.4-17.9C21.6,140,28.7,140.2,34.9,137.4
			L34.9,137.4z M69.3,98.3c0.9,5.6,1.6,11.2,1.9,16.9c5-5.2,8.2-11.9,9.1-19.1C76.9,97.7,73.1,98.5,69.3,98.3z M47.7,137.4
			c1.8,8.1,4.8,16.9,9.5,17.6c0.5,0.1,1,0.1,1.5,0c4.3-1.4,6.9-9.5,8.4-17.9C61,140,53.9,140.2,47.7,137.4z M16.3,35.7v0.4
			c0,6.1,1.6,12,4.8,17.2c2.9,4.7,7.1,8.4,12.2,10.6c2.4,1,5,1.6,7.6,1.7V39.7C32.5,39.7,24.2,38.3,16.3,35.7z M43,65.5
			c2.6-0.2,5.1-0.7,7.5-1.7c5-2.2,9.3-5.9,12.2-10.6c3.2-5.2,4.9-11.1,4.8-17.2v-0.4c-7.9,2.4-16.2,3.8-24.5,4L43,65.5z"/>
		<path id="Vector-2" class="st0" d="M43,65.5c2.6-0.2,5.1-0.7,7.5-1.7c5-2.2,9.3-5.9,12.2-10.6c3.2-5.2,4.9-11.1,4.8-17.2v-0.4
			c-7.9,2.4-16.2,3.8-24.5,4L43,65.5z M16.3,35.7v0.4c0,6.1,1.6,12,4.8,17.2c2.9,4.7,7.1,8.4,12.2,10.6c2.4,1,5,1.6,7.6,1.7V39.7
			C32.5,39.7,24.2,38.3,16.3,35.7z M41.9,6.6c-3,0-5.9,0.6-8.6,1.7c-5,2.2-9.3,5.9-12.2,10.6c-2.7,4.4-4.3,9.4-4.7,14.5
			c16.6,5.5,34.5,5.5,51,0c-0.4-5.2-2-10.2-4.7-14.6c-2.9-4.7-7.1-8.4-12.2-10.6C47.8,7.2,44.9,6.6,41.9,6.6z"/>
		<path id="Vector-3" class="st1" d="M47.7,137.4c1.8,8.1,4.8,16.9,9.5,17.6c0.5,0.1,1,0.1,1.5,0c4.3-1.4,6.9-9.5,8.4-17.9
			C61,140,53.9,140.2,47.7,137.4z M69.3,98.3c0.9,5.6,1.6,11.2,1.9,16.9c5-5.2,8.2-11.9,9.1-19.1C76.9,97.7,73.1,98.5,69.3,98.3
			L69.3,98.3z M34.9,137.4c-1.8,8.1-4.8,16.9-9.5,17.6c-0.5,0.1-1,0.1-1.5,0c-4.3-1.4-6.9-9.5-8.4-17.9
			C21.6,140,28.7,140.2,34.9,137.4L34.9,137.4z M13.3,98.3c-0.9,5.6-1.6,11.2-1.9,16.9c-5-5.2-8.2-11.9-9.1-19.1
			C5.7,97.7,9.5,98.5,13.3,98.3L13.3,98.3z M68.1,106H42.9v8.4c0,0.6-0.5,1.1-1.1,1.1s-1.1-0.5-1.1-1.1l0,0V106H14.4
			c-0.5,3.9-0.8,7.9-1.1,11.8c0.2,2.9,0.6,9.7,1.7,16.7c6.8,3.3,13.7,4,20.4,0.2c0.8-4.1,1.3-7.6,1.6-9.4c0-0.5,0.5-0.9,1-0.9
			c2.2-0.1,4.3-0.1,6.5,0c0.5,0,0.9,0.4,1,0.9c0.2,1.8,0.7,5.3,1.6,9.4c6.7,3.7,13.6,3,20.4-0.2c0.8-5.5,1.4-11.1,1.7-16.7
			C69,113.8,68.6,109.9,68.1,106z M15.2,100.4h25.6V75.6c-3.4,0-6.7-0.5-10-1.3c-0.6-0.1-0.9-0.7-0.8-1.3c0,0,0-0.1,0-0.1
			c0.2-0.6,0.7-0.9,1.3-0.7c0,0,0,0,0.1,0c3.1,0.9,6.2,1.3,9.4,1.3v-6C26,66.9,14.2,53,14.2,36c0-17.4,12.5-31.6,27.8-31.6
			c15.4,0,27.8,14.1,27.8,31.6c0,17-11.9,30.9-26.7,31.6v5.9c2.8-0.1,5.5-0.6,8.2-1.3c0.6-0.2,1.2,0.2,1.4,0.7
			c0.2,0.6-0.2,1.2-0.7,1.3c-2.9,0.8-5.8,1.2-8.8,1.3v24.8h24.5c-1.1-7.5-2.7-15-4.6-22.4c-0.1-0.6,0.2-1.1,0.8-1.3c0,0,0,0,0,0
			c0.6-0.2,1.2,0.2,1.3,0.8c0,0,0,0,0,0c1.6,6.2,3,12.4,4,18.7c3.7,0,8.7-0.3,11.5-2.7c-0.2-9.2-5.5-18.1-14.7-26.8
			c-1.5,1.3-3.1,2.5-4.8,3.6c-0.5,0.3-1.2,0.2-1.5-0.3c0,0,0,0,0,0c-0.3-0.5-0.2-1.1,0.3-1.4c0,0,0,0,0.1,0
			c10.4-6.7,16.6-18.2,16.5-30.6c0.1-12.1-6-23.5-16.1-30.3c-11.5-7.3-26.3-7.3-37.8,0C12.3,14.3,6.2,25.7,6.3,37.8
			c-0.1,12.4,6.1,23.9,16.5,30.6c0.5,0.3,0.7,1,0.3,1.5c0,0,0,0,0,0c-0.3,0.5-1,0.7-1.5,0.3c-1.7-1.1-3.3-2.3-4.8-3.6
			C7.7,75.3,2.3,84.3,2.1,93.5c2.8,2.3,7.9,2.7,11.5,2.7c1.1-6.3,2.4-12.5,4-18.7c0.1-0.6,0.7-0.9,1.3-0.8c0,0,0,0,0,0
			c0.6,0.1,0.9,0.7,0.8,1.3c0,0,0,0,0,0C17.8,85.4,16.3,92.9,15.2,100.4z"/>
		<path id="Vector-4" class="st2" d="M41.3,16.5c3.5,0,6.3,2.8,6.3,6.3c0,3.5-2.8,6.4-6.3,6.4c-3.5,0-6.4-2.8-6.4-6.3
			C34.9,19.4,37.7,16.6,41.3,16.5C41.3,16.5,41.3,16.5,41.3,16.5z M41.3,12.7c5.6-0.1,10.2,4.4,10.3,10c0.1,5.6-4.4,10.2-10,10.3
			c-0.1,0-0.2,0-0.3,0C35.7,33,31.1,28.6,31,23s4.4-10.2,10-10.3C41.1,12.7,41.2,12.7,41.3,12.7z"/>
	</g>
</g>
</svg>
