<?xml version="1.0" encoding="utf-8"?>
<!-- Generator: Adobe Illustrator 25.0.0, SVG Export Plug-In . SVG Version: 6.00 Build 0)  -->
<svg version="1.1" id="Layer_1" xmlns="http://www.w3.org/2000/svg" xmlns:xlink="http://www.w3.org/1999/xlink" x="0px" y="0px"
	 viewBox="0 0 104.4 29.8" style="enable-background:new 0 0 104.4 29.8;" xml:space="preserve">
<style type="text/css">
	.st0{enable-background:new    ;}
	.st1{fill:#FFFFFF;}
</style>
<g class="st0">
	<path class="st1" d="M0.6,11.9C0.5,8.7,1.3,6.1,3.1,4C4.8,2,7.2,1,10.4,1C13,1,15.2,1.7,17,3.3c1.8,1.5,2.7,3.6,2.7,6.1
		c0,1.3-0.2,2.5-0.7,3.5c-0.4,1.1-1,1.9-1.7,2.6c-0.7,0.7-1.5,1.4-2.4,2.1c-0.9,0.7-1.8,1.3-2.7,1.8c-0.9,0.5-1.8,1.2-2.7,2
		c-0.9,0.8-1.7,1.6-2.3,2.4h12.8v4.7H0c0-1,0.1-2,0.3-2.8c0.2-0.9,0.5-1.7,0.9-2.4c0.4-0.7,0.9-1.4,1.3-1.9c0.4-0.5,1-1.1,1.8-1.8
		c0.8-0.7,1.5-1.2,1.9-1.5c0.5-0.3,1.2-0.9,2.3-1.6c0.2-0.1,0.6-0.4,1.4-1c0.8-0.5,1.3-0.9,1.6-1.2c0.3-0.2,0.7-0.6,1.2-1.1
		s0.9-1,1.1-1.6c0.2-0.5,0.3-1.1,0.3-1.8c0-1.3-0.4-2.3-1.1-3s-1.7-1.1-2.9-1.1c-1.5,0-2.6,0.6-3.3,1.8c-0.7,1.2-1,2.7-1,4.4H0.6z"
		/>
	<path class="st1" d="M21.4,14.9c0-4.9,0.9-8.5,2.7-10.7C25.9,2,28.3,1,31.3,1c1.4,0,2.7,0.2,3.9,0.7c1.2,0.5,2.2,1.2,3.1,2.3
		c0.9,1,1.7,2.5,2.2,4.3c0.5,1.8,0.8,4,0.8,6.6c0,2.6-0.3,4.8-0.8,6.7s-1.2,3.4-2.2,4.4c-1,1-2,1.8-3.1,2.3C34,28.7,32.7,29,31.3,29
		c-3,0-5.4-1.1-7.2-3.3C22.3,23.5,21.4,19.9,21.4,14.9z M26.9,14.9c0,0.9,0,1.6,0,2.2c0,0.6,0.1,1.4,0.3,2.4
		c0.2,1.1,0.4,1.9,0.7,2.5c0.3,0.6,0.7,1.2,1.3,1.7c0.6,0.5,1.3,0.8,2.1,0.8c0.8,0,1.6-0.3,2.2-0.8c0.6-0.5,1-1.1,1.3-1.7
		c0.3-0.6,0.5-1.5,0.7-2.5c0.2-1.1,0.2-1.9,0.3-2.4c0-0.6,0-1.3,0-2.2c0-0.6,0-1.1,0-1.4c0-0.4,0-0.9-0.1-1.6
		c-0.1-0.7-0.1-1.3-0.2-1.8c-0.1-0.5-0.3-1-0.5-1.7c-0.2-0.6-0.5-1.1-0.8-1.5c-0.3-0.4-0.7-0.7-1.2-1s-1-0.4-1.7-0.4
		c-0.7,0-1.3,0.2-1.8,0.5c-0.5,0.3-1,0.8-1.3,1.4c-0.3,0.6-0.6,1.2-0.7,1.8c-0.2,0.6-0.3,1.3-0.4,2.1c-0.1,0.9-0.1,1.5-0.1,1.9
		C26.9,13.6,26.9,14.1,26.9,14.9z"/>
	<path class="st1" d="M42.8,14.9c0-4.9,0.9-8.5,2.7-10.7C47.4,2,49.8,1,52.7,1c1.4,0,2.7,0.2,3.9,0.7c1.2,0.5,2.2,1.2,3.1,2.3
		c0.9,1,1.7,2.5,2.2,4.3c0.5,1.8,0.8,4,0.8,6.6c0,2.6-0.3,4.8-0.8,6.7c-0.5,1.9-1.2,3.4-2.2,4.4c-0.9,1-2,1.8-3.1,2.3
		c-1.1,0.5-2.4,0.7-3.8,0.7c-3,0-5.4-1.1-7.2-3.3C43.7,23.5,42.8,19.9,42.8,14.9z M48.3,14.9c0,0.9,0,1.6,0,2.2
		c0,0.6,0.1,1.4,0.3,2.4c0.2,1.1,0.4,1.9,0.7,2.5c0.3,0.6,0.7,1.2,1.3,1.7c0.6,0.5,1.3,0.8,2.1,0.8c0.8,0,1.6-0.3,2.2-0.8
		c0.6-0.5,1-1.1,1.3-1.7c0.3-0.6,0.5-1.5,0.7-2.5c0.2-1.1,0.2-1.9,0.3-2.4c0-0.6,0-1.3,0-2.2c0-0.6,0-1.1,0-1.4c0-0.4,0-0.9-0.1-1.6
		c-0.1-0.7-0.1-1.3-0.2-1.8c-0.1-0.5-0.3-1-0.5-1.7s-0.5-1.1-0.8-1.5c-0.3-0.4-0.7-0.7-1.2-1c-0.5-0.3-1-0.4-1.7-0.4
		c-0.7,0-1.3,0.2-1.8,0.5c-0.5,0.3-1,0.8-1.3,1.4c-0.3,0.6-0.6,1.2-0.7,1.8c-0.2,0.6-0.3,1.3-0.4,2.1c-0.1,0.9-0.1,1.5-0.1,1.9
		C48.3,13.6,48.3,14.1,48.3,14.9z"/>
	<path class="st1" d="M64.3,14.9c0-4.9,0.9-8.5,2.7-10.7C68.8,2,71.2,1,74.1,1c1.4,0,2.7,0.2,3.9,0.7c1.2,0.5,2.2,1.2,3.1,2.3
		c0.9,1,1.7,2.5,2.2,4.3c0.5,1.8,0.8,4,0.8,6.6c0,2.6-0.3,4.8-0.8,6.7c-0.5,1.9-1.2,3.4-2.2,4.4c-1,1-2,1.8-3.1,2.3
		c-1.1,0.5-2.4,0.7-3.8,0.7c-3,0-5.4-1.1-7.2-3.3C65.2,23.5,64.3,19.9,64.3,14.9z M69.7,14.9c0,0.9,0,1.6,0,2.2
		c0,0.6,0.1,1.4,0.3,2.4c0.2,1.1,0.4,1.9,0.7,2.5c0.3,0.6,0.7,1.2,1.3,1.7c0.6,0.5,1.3,0.8,2.1,0.8c0.8,0,1.6-0.3,2.2-0.8
		c0.6-0.5,1-1.1,1.3-1.7c0.3-0.6,0.5-1.5,0.7-2.5c0.2-1.1,0.2-1.9,0.3-2.4c0-0.6,0-1.3,0-2.2c0-0.6,0-1.1,0-1.4c0-0.4,0-0.9-0.1-1.6
		c-0.1-0.7-0.1-1.3-0.2-1.8c-0.1-0.5-0.3-1-0.5-1.7c-0.2-0.6-0.5-1.1-0.8-1.5c-0.3-0.4-0.7-0.7-1.2-1s-1-0.4-1.7-0.4
		c-0.7,0-1.3,0.2-1.8,0.5c-0.5,0.3-1,0.8-1.3,1.4c-0.3,0.6-0.6,1.2-0.7,1.8c-0.2,0.6-0.3,1.3-0.4,2.1c-0.1,0.9-0.1,1.5-0.1,1.9
		C69.7,13.6,69.7,14.1,69.7,14.9z"/>
	<path class="st1" d="M91.2,22c0,1.1,0.4,1.9,1.2,2.5c0.8,0.6,1.8,0.8,3,0.8c0.9,0,1.8-0.2,2.5-0.6c0.7-0.4,1.1-1.1,1.1-1.9
		c0-0.8-0.5-1.4-1.4-1.8c-0.9-0.4-2.5-0.8-4.8-1.3c-1-0.2-1.7-0.4-2.4-0.7c-0.6-0.2-1.3-0.5-1.9-0.9c-0.7-0.4-1.2-0.9-1.5-1.5
		c-0.3-0.6-0.5-1.3-0.5-2.2c0-1.2,0.2-2.2,0.7-3.1c0.5-0.9,1.2-1.5,2-2c0.9-0.5,1.8-0.8,2.7-1c1-0.2,2-0.3,3.2-0.3
		c2.4,0,4.5,0.5,6.1,1.5c1.6,1,2.5,2.6,2.7,4.9h-5.2c-0.1-1.8-1.4-2.7-3.7-2.7c-2,0-3,0.6-3,1.8c0,0.3,0.1,0.5,0.2,0.8
		c0.1,0.2,0.3,0.4,0.5,0.6c0.2,0.2,0.5,0.3,0.8,0.4c0.3,0.1,0.6,0.2,1,0.3c0.4,0.1,0.8,0.2,1.1,0.3c0.3,0.1,0.8,0.2,1.3,0.3
		c0.5,0.1,1,0.2,1.3,0.3c2,0.5,3.5,1.1,4.6,1.9c1.1,0.8,1.7,2,1.7,3.7c0,1.3-0.3,2.4-0.8,3.3c-0.5,0.9-1.2,1.7-2.1,2.2
		c-0.9,0.5-1.8,0.9-2.9,1.1c-1,0.2-2.1,0.3-3.4,0.3c-1.7,0-3.2-0.2-4.5-0.6c-1.3-0.4-2.4-1.1-3.4-2.2C86.5,25,86,23.7,86,22H91.2z"
		/>
</g>
</svg>
