<?xml version="1.0" encoding="utf-8"?>
<!-- Generator: Adobe Illustrator 25.0.0, SVG Export Plug-In . SVG Version: 6.00 Build 0)  -->
<svg version="1.1" id="Layer_1" xmlns="http://www.w3.org/2000/svg" xmlns:xlink="http://www.w3.org/1999/xlink" x="0px" y="0px"
	 viewBox="0 0 306.5 83.3" style="enable-background:new 0 0 306.5 83.3;" xml:space="preserve">
<style type="text/css">
	.st0{fill:#EB2924;}
</style>
<g>
	<path id="Vector" class="st0" d="M51.6,4H39.8c0,16-0.1,26.4-0.1,42.4C34.7,30.8,29.6,20.5,24.5,4H13.2v75.1
		c3.8-0.5,7.9-1,11.7-1.6c0-15.7,0-25.3,0.1-41.1C30.3,52,33.5,61,38.7,75.8c4.1-0.5,8.6-1,12.8-1.5C51.5,50.9,51.6,27.5,51.6,4z"/>
	<path id="Vector-2" class="st0" d="M95.6,4H63c-0.1,23.1-0.1,46.2-0.1,69.3c11-1,21.8-1.8,32.8-2.5V59.3c-7.1,0.5-13.9,0.9-21,1.4
		c0-6.2,0-11.3,0.1-17.6c5.2-0.1,10.6,0,15.9-0.1V31.3l-15.9,0.2c0-6.2,0-9.6,0.1-15.8c3.2-0.1,6.4-0.1,9.6-0.1h11.4
		C95.7,12.3,95.6,7.4,95.6,4z"/>
	<path id="Vector-3" class="st0" d="M139.6,4.1h-36.4v11.5h12.2c0,18.6-0.1,35.6-0.1,54.2c3.8-0.1,8-0.3,11.8-0.4
		c0-18.5,0.1-35.4,0.1-54c4.1,0,8.2,0,12.3-0.1V4.1z"/>
	<path id="Vector-4" class="st0" d="M180.1,4h-32.8v65.2h11.7V42.4h15.9V30.9h-15.9V15.6h21.1V4z"/>
	<path id="Vector-5" class="st0" d="M187.7,4.1c0,22-0.1,43.9-0.1,65.8c10.5,0.4,21.5,0.8,31.9,1.6V59.9c-6.6-0.4-13.5-0.8-20.2-1.1
		c0-18.8,0.1-35.8,0.1-54.7L187.7,4.1z"/>
	<path id="Vector-6" class="st0" d="M229.2,4.1c0.1,22.7,0.1,45.4,0.1,68.1c3.8,0.3,7.8,0.6,11.7,1c0-23,0.1-46.1,0-69.1L229.2,4.1z
		"/>
	<path id="Vector-7" class="st0" d="M251.1,4.1c4.7,11.5,9,23,13.8,35.2c-5,11.7-10,23.3-15,34.6c4.1,0.4,8.4,1,12.5,1.5
		c3-7.3,5.6-12.8,8.6-20.2c2.9,7.9,5.6,14.1,8.6,22.2c4.1,0.5,9.4,1.3,13.5,1.9c-5-13.3-10.4-27.1-15.4-39.7c5-11.8,10-23,15.2-35.4
		H280c-3.2,7.6-5.4,12.5-8.4,19.8c-2.9-7.5-4.7-12.4-7.6-19.8C259.8,4.1,255.4,4.1,251.1,4.1z"/>
</g>
</svg>
