<?xml version="1.0" encoding="utf-8"?>
<!-- Generator: Adobe Illustrator 25.0.0, SVG Export Plug-In . SVG Version: 6.00 Build 0)  -->
<svg version="1.1" id="Layer_1" xmlns="http://www.w3.org/2000/svg" xmlns:xlink="http://www.w3.org/1999/xlink" x="0px" y="0px"
	 viewBox="0 0 107.4 24" style="enable-background:new 0 0 107.4 24;" xml:space="preserve">
<style type="text/css">
	.st0{fill:#ED2024;}
	.st1{fill:#FFFFFF;}
</style>
<g id="Group">
	<g id="Group-2">
		<path id="Vector" class="st0" d="M33.5,3.7c-0.4-1.5-1.6-2.6-3-3C27.8,0,17.1,0,17.1,0S6.4,0,3.7,0.7c-1.5,0.4-2.6,1.6-3,3
			C0.2,6.5-0.1,9.2-0.1,12c0,2.8,0.2,5.5,0.7,8.3c0.4,1.5,1.6,2.6,3,3C6.4,24,17.1,24,17.1,24s10.7,0,13.4-0.7c1.5-0.4,2.6-1.6,3-3
			c0.5-2.7,0.7-5.5,0.7-8.3C34.2,9.2,34,6.5,33.5,3.7z"/>
		<path id="Vector-2" class="st1" d="M13.7,17.1l8.9-5.1l-8.9-5.1V17.1z"/>
	</g>
	<g id="Group-3">
		<path id="Vector-3" class="st1" d="M49.7,21.8c-0.7-0.5-1.2-1.3-1.4-2.1c-0.3-1.3-0.5-2.6-0.4-3.9v-2.2c0-1.3,0.1-2.6,0.5-3.9
			c0.2-0.9,0.8-1.6,1.5-2.1c0.8-0.5,1.8-0.7,2.7-0.7c0.9,0,1.9,0.2,2.7,0.7c0.7,0.5,1.2,1.3,1.5,2.1c0.3,1.3,0.5,2.6,0.5,3.9v2.2
			c0,1.3-0.1,2.6-0.5,3.9c-0.2,0.9-0.7,1.6-1.5,2.1c-0.8,0.5-1.8,0.7-2.8,0.7C51.5,22.6,50.6,22.3,49.7,21.8z M53.5,19.5
			c0.2-0.8,0.3-1.6,0.3-2.4v-4.7c0-0.8-0.1-1.6-0.3-2.4c-0.1-0.4-0.5-0.8-1-0.7c-0.5,0-0.9,0.3-1,0.7c-0.2,0.8-0.3,1.6-0.3,2.4v4.7
			c0,0.8,0.1,1.6,0.3,2.4c0.1,0.4,0.5,0.7,1,0.7C53,20.2,53.4,19.9,53.5,19.5L53.5,19.5z"/>
		<path id="Vector-4" class="st1" d="M101.8,15.9v0.8c0,0.7,0,1.4,0.1,2.2c0,0.4,0.1,0.7,0.4,1.1c0.2,0.2,0.5,0.4,0.8,0.3
			c0.4,0,0.9-0.2,1-0.6c0.2-0.6,0.3-1.3,0.3-2l2.9,0.2c0,0.2,0,0.4,0,0.5c0.1,1.2-0.3,2.3-1.1,3.1c-0.9,0.7-2.1,1.1-3.2,1
			c-1.4,0.1-2.7-0.5-3.5-1.6c-0.8-1.5-1.1-3.2-1-4.9v-2.6c-0.1-1.7,0.2-3.4,1-4.9c0.8-1.1,2.2-1.7,3.6-1.6c0.9-0.1,1.9,0.2,2.7,0.6
			c0.7,0.5,1.1,1.2,1.3,2c0.3,1.2,0.4,2.5,0.4,3.7v2.6H101.8z M102.2,9.6c-0.2,0.3-0.3,0.7-0.3,1c-0.1,0.7-0.1,1.5-0.1,2.2v1.1h2.5
			v-1.1c0-0.7,0-1.5-0.1-2.2c0-0.4-0.1-0.7-0.4-1.1c-0.2-0.2-0.5-0.3-0.8-0.3C102.7,9.2,102.4,9.3,102.2,9.6z"/>
		<path id="Vector-5" class="st1" d="M41.5,15.6L37.6,1.7H41L42.3,8c0.3,1.6,0.6,2.9,0.8,4h0.1c0.1-0.8,0.4-2.1,0.8-3.9l1.4-6.3h3.4
			l-3.9,13.9v6.7h-3.3L41.5,15.6L41.5,15.6z"/>
		<path id="Vector-6" class="st1" d="M68.1,7.2v15h-2.6l-0.3-1.8h-0.1c-0.6,1.3-1.8,2.1-3.2,2.1c-0.9,0.1-1.7-0.3-2.2-1
			c-0.5-0.9-0.8-2-0.7-3.1V7.2h3.4v11c0,0.5,0,1,0.2,1.4c0.1,0.3,0.4,0.4,0.7,0.4c0.3,0,0.6-0.1,0.8-0.3c0.3-0.2,0.5-0.4,0.6-0.7
			V7.2H68.1z"/>
		<path id="Vector-7" class="st1" d="M85.5,7.2v15h-2.6l-0.3-1.8h-0.1c-0.6,1.3-1.8,2.1-3.2,2.1c-0.9,0.1-1.7-0.3-2.2-1
			c-0.5-0.9-0.8-2-0.7-3.1V7.2h3.4v11c0,0.5,0,1,0.2,1.4c0.1,0.3,0.4,0.4,0.7,0.4c0.3,0,0.6-0.1,0.8-0.3c0.3-0.2,0.5-0.4,0.6-0.7
			V7.2H85.5z"/>
		<path id="Vector-8" class="st1" d="M77.3,4.4H74v17.9h-3.3V4.4h-3.4V1.7h10L77.3,4.4L77.3,4.4z"/>
		<path id="Vector-9" class="st1" d="M96.7,9.6c-0.1-0.8-0.5-1.5-1-2.1c-0.5-0.4-1.2-0.7-1.9-0.6c-0.6,0-1.2,0.2-1.7,0.5
			c-0.5,0.3-1,0.8-1.3,1.4h0V0.9h-3.3v21.3h2.8l0.3-1.4h0.1c0.3,0.5,0.7,0.9,1.2,1.2c0.5,0.3,1.1,0.4,1.7,0.4c1.1,0,2.1-0.6,2.5-1.6
			c0.6-1.6,0.9-3.3,0.8-4.9v-2.4C97,12.3,96.9,11,96.7,9.6z M93.6,15.8c0,0.9,0,1.7-0.1,2.6c0,0.5-0.2,0.9-0.5,1.3
			c-0.2,0.3-0.5,0.4-0.9,0.4c-0.3,0-0.5-0.1-0.8-0.2c-0.2-0.1-0.4-0.3-0.6-0.6v-8.5c0.1-0.4,0.3-0.7,0.6-1c0.2-0.2,0.6-0.4,0.9-0.4
			c0.3,0,0.6,0.1,0.8,0.4c0.2,0.4,0.4,0.9,0.4,1.4c0.1,0.9,0.1,1.8,0.1,2.7L93.6,15.8L93.6,15.8z"/>
	</g>
</g>
</svg>
