<?xml version="1.0" encoding="utf-8"?>
<!-- Generator: Adobe Illustrator 25.0.0, SVG Export Plug-In . SVG Version: 6.00 Build 0)  -->
<svg version="1.1" id="Layer_1" xmlns="http://www.w3.org/2000/svg" xmlns:xlink="http://www.w3.org/1999/xlink" x="0px" y="0px"
	 viewBox="0 0 793 527.1" style="enable-background:new 0 0 793 527.1;" xml:space="preserve">
<style type="text/css">
	.st0{fill:#FFFFFF;}
</style>
<path id="path3441_1_" class="st0" d="M273.5,243.1h-64.9v-92.8h-41.9v92.3H99.8V3.9h66.4v89.4h41.9V3.9H273L273.5,243.1z
	 M571,244.1c67.1-0.8,121.1-55.6,120.8-122.8C691.8,54.3,637.5,0,570.6,0c-46.7,0-89.2,26.8-109.4,68.9c-2.2-34.5-29.4-62.2-63.9-65
	H286.5V243h103.3c37.8-0.1,69.1-29.6,71.4-67.3C481.7,217.6,524.3,244.1,571,244.1z M381.3,146.7c10.2,1,17.9,9.7,17.5,20
	c0.8,10.5-7,19.6-17.5,20.5h-33v-40.4L381.3,146.7L381.3,146.7z M381.3,57.4c10.2,1,17.9,9.7,17.5,20c0.6,10.3-7.2,19.2-17.5,20h-33
	v-40H381.3z M425.3,121.3c9.5-2.4,18.2-7.4,25-14.5c-2,10.9-2,22.1,0,33C444,131.2,435.3,124.7,425.3,121.3z M510.1,121.3
	C510,87.8,537,60.5,570.5,60.4s60.8,26.9,60.9,60.4c0.1,33.5-26.9,60.8-60.4,60.9c-0.2,0-0.3,0-0.5,0c-33.1,0.2-60.2-26.4-60.4-59.5
	C510.1,121.8,510.1,121.6,510.1,121.3L510.1,121.3z M571,169.2c26.3-0.1,47.6-21.6,47.4-47.9c-0.1-26.3-21.6-47.6-47.9-47.4
	c-26.1,0.1-47.3,21.3-47.4,47.4c-0.1,26.4,21.3,47.9,47.7,47.9C570.9,169.2,570.9,169.2,571,169.2L571,169.2z"/>
<g id="Group_39">
	<path id="XMLID_2_" class="st0" d="M323.4,373.3C321.9,315.4,281,285,231,285c-25.8-1-50.9,8.8-69.3,26.9
		c-18.4-18.2-43.5-27.9-69.4-26.9C41.9,285,1,315.9,0,373.8v132.3c0.1,12.1,9.9,21.9,22,22h21c1.9,0.1,3.4-1.4,3.5-3.3
		c0-0.1,0-0.1,0-0.2V373.8c-0.4-23.6,18.4-43.1,42.1-43.5c1.3,0,2.6,0,3.9,0.1c23.4-1.9,43.9,15.6,45.8,39c0.1,1.5,0.2,2.9,0.1,4.4
		v131.8c0.1,12.1,9.9,21.9,22,22h21c1.9,0.1,3.4-1.4,3.5-3.3c0-0.1,0-0.1,0-0.2V373.3c-0.4-23.6,18.4-43.1,42-43.5
		c1.3,0,2.6,0,3.9,0.1c23.4-1.9,43.9,15.6,45.8,39c0.1,1.5,0.2,2.9,0.1,4.4v131.8c0.1,12.1,9.9,21.9,22,22h21
		c1.9,0.1,3.4-1.4,3.5-3.3c0-0.1,0-0.1,0-0.2L323.4,373.3z M790.1,288.4h-35.4c-9.8,0.1-18.9,5-24.5,13l-38.9,57.4
		c-4.1,5.9-12.2,7.4-18.2,3.3c-1.3-0.9-2.4-2-3.3-3.3l-38.9-57.4c-5.5-8.1-14.7-13-24.4-13H571c-1.6,0.1-2.8,1.4-2.7,2.9
		c0,0.3,0.1,0.7,0.2,1l69.4,102.8c5,7.4,5,17.1,0,24.5l-69.4,102.8c-1.5,2,0,4,2.5,4h35.4c9.8-0.1,18.9-5,24.5-13l38.9-57.4
		c4.1-5.9,12.2-7.4,18.2-3.3c1.3,0.9,2.4,2,3.3,3.3l38.9,57.4c5.5,8.1,14.7,13,24.5,13h35.4c1.6-0.1,2.8-1.4,2.7-2.9
		c0-0.3-0.1-0.7-0.2-1l-69.4-102.8c-5-7.4-5-17.1,0-24.5l69.4-102.8c0.7-1.3,0.3-2.9-1-3.6C791.2,288.5,790.7,288.4,790.1,288.4z
		 M554,288.4h-21c-10.4,0-19.3,7.3-21.5,17.5c-19.2-14.2-42.5-21.8-66.4-21.4c-60.9,0-109.8,42.4-109.8,121.8
		c0,79.9,48.9,121.8,109.8,121.8c23.8,0.5,47.2-6.9,66.4-21c1.1,11.3,10.6,19.9,22,20h20.9c1.9,0.1,3.4-1.4,3.5-3.3
		c0-0.1,0-0.1,0-0.2V292C557.6,290,556,288.6,554,288.4z M445.2,483.1c-36.4,0-65.9-26.4-65.9-76.4s29.5-76.4,65.9-76.4
		s65.9,26.4,65.9,76.4C510.6,456.7,481.2,483.1,445.2,483.1z"/>
</g>
</svg>
