<?xml version="1.0" encoding="utf-8"?>
<!-- Generator: Adobe Illustrator 25.0.0, SVG Export Plug-In . SVG Version: 6.00 Build 0)  -->
<svg version="1.1" id="Layer_1" xmlns="http://www.w3.org/2000/svg" xmlns:xlink="http://www.w3.org/1999/xlink" x="0px" y="0px"
	 viewBox="0 0 39.1 66.4" style="enable-background:new 0 0 39.1 66.4;" xml:space="preserve">
<style type="text/css">
	.st0{fill:#FFFFFF;}
</style>
<g id="Frame" transform="translate(0.128 0.03)">
	<path id="XMLID_2_" class="st0" d="M39,32.7c-0.1,0-0.2,0-0.2-0.1c0.1,0,0.1-0.1,0.1-0.2c-0.3,0-0.2-0.4-0.6-0.5
		c0.1,0,0.3-0.2,0.3-0.3c0.1-0.1,0.1-0.2-0.1-0.2c0-0.3-0.2-0.1-0.4-0.2c0.1-0.3-0.3-0.1-0.4-0.3c0.3-0.3-0.3-0.4-0.2-0.7
		c-0.2,0-0.5,0-0.7-0.1l0.1-0.3c-0.3-0.2-0.5-0.5-0.9-0.4c-0.1,0.1-0.1,0-0.1,0c-0.2,0-0.4-0.1-0.7-0.1c-1.6-0.2-2.8,0.7-4.1,1.3
		c-0.2-0.1-0.6,0.1-0.8-0.1c-1.1-0.1-2.2-0.3-3.2-0.8l-0.9-0.1c-0.2,0-0.4,0-0.7,0h-0.3c0-0.3-0.3,0.1-0.3-0.2
		c-1.1-0.5-2.2-1-3.3-1.6c0.3-0.7,0.8-1.4,1.3-1.9c0.3-0.5,0.6-0.9,1.1-1.1c0.1-0.4,0.4-0.7,0.7-0.8c0.2-0.1-0.1-0.3,0.1-0.4
		c0.4-0.1,0.5-0.4,0.8-0.7c0.4-0.4,0.9-0.4,1.3-0.9c0.1-0.3,0.4-0.4,0.5-0.6l0.3-0.9c-0.1,0-0.1,0.1-0.1,0.1s-0.1,0.1-0.2,0.1
		c0.2-0.4-0.1-0.9,0.4-1.2c0.1-0.1,0-0.4,0-0.6c-0.1-0.4,0.1-0.7,0-1c-0.2-0.1-0.3-0.2-0.5-0.2c-0.2-0.2-0.6,0-0.8,0.1
		c-0.5,0-1.1,0.2-1.6,0.4c-0.2,0-0.5,0.1-0.7,0.1c-0.3,0.1-0.6-0.1-0.9,0.1c-0.1-0.1-0.2-0.2-0.2-0.4c-0.4,0.2-0.4-0.3-0.7-0.1
		c-0.1-0.2-0.3-0.2-0.5-0.2c0-0.1,0.1-0.1,0.1-0.2c-0.1-0.2,0.2-0.3,0.3-0.4c-0.8-0.3-1.7-0.3-2.5-0.1c-0.8,0.3-1.6,0.6-2.5,0.6
		c-0.5,0.1-1,0.4-1.5,0.1c-0.2,0.1-0.4,0.3-0.7,0.1c0-0.1,0-0.2-0.1-0.2c-0.1-0.2-0.4,0-0.6,0c-0.1-0.1-0.1-0.1-0.2-0.1
		c-0.2,0-0.3,0.2-0.4,0.4l-0.3,0c-0.3-0.1,0.1-0.3,0-0.5c-0.1-0.1-0.1,0.1-0.2,0c0.1-0.1,0.3-0.3,0.2-0.5c-0.4,0.1-0.7,0.3-0.8,0.6
		c-0.1,0.1-0.2,0.1-0.2,0.3l0.1,0c-0.1,0.3-0.3,0.4-0.5,0.6c-0.1,0.2-0.2,0.3-0.4,0.5c0,0.1,0.1,0.1,0.1,0.1l-0.2,0.3
		c0.1,0.1,0.2,0.1,0.2,0.2c0,0.1-0.1,0.1-0.1,0.4h0.2c-0.2,0,0.2,0.3,0.1,0.6c0.1,0.4,0.5,0.6,0.8,0.8c0.1,0,0.2,0.2,0.1,0.3
		c0,0,0,0,0,0c0.2,2.4,0,4.9,1.1,6.9c0,1-0.2,2-0.3,2.9c-0.1,0.4-0.2,0.9-0.2,1.4c0,0.2,0.2,0.2,0.4,0.4c0.1,0.9,0.3,1.8,0.5,2.7
		c-0.1,0.9-0.9,1.6-1.1,2.4c-0.2,0.8-0.8,1.5-0.9,2.4l-0.1,0.1c-0.3,0.6-0.5,1.3-0.6,2c-0.1,0.5-0.5,1-0.1,1.5
		c-0.2,0.2-0.6,0.1-0.7,0.5c0,0.8,0.1,1.5,0.2,2.2c0.3,1.4,0.7,2.7,1.3,3.9c-0.1,0.1,0.1,0.1,0.1,0.2c0.2,0.5,0.4,0.9,0.7,1.3
		c0.3,0.3,0.6,0.7,0.9,1.1c-0.1,0-0.3-0.1-0.4,0c-0.2,0.3-0.5,0.6-0.9,0.9c-1.1,0.9-2.1,2-3.2,2.9c-0.4,0.8-0.6,1.7-0.7,2.6
		c-0.2-0.4-0.2-0.8-0.2-1.3c-0.1-0.4-0.1-1.1-0.7-1.3c-0.4-1.4-0.4-2.9-0.8-4.3c0.5-0.3,0.9-0.8,1.2-1.2c0.2-1.1-1-1.7-1.8-2.1
		c-0.1-0.1-0.1-0.2-0.1-0.2c0.7-0.8,1.7-0.1,2.5-0.3l-0.1-0.9c-0.5-0.2-1.1-0.2-1.7-0.2c-0.3-0.1-0.6,0-0.8-0.2
		c0.1-0.4,0.4-0.6,0.5-1c-0.1-0.6-0.2-1.2-0.5-1.7c0.4,0,0.8-0.1,1.2-0.3c0-0.3,0.2-0.5,0.3-0.7c0-1.3-0.4-2.6-1.2-3.6
		c-0.1-0.2-0.4-0.4-0.3-0.6C6.8,40,7.2,40,7.6,40l0.9,0.4c0.2,0.1,0.5,0.1,0.6-0.1c0.1-0.2,0.1-0.5,0-0.7c-0.4-0.9-1-1.7-1.7-2.3
		c-0.1-0.3-0.5-0.6-0.4-1c0.6,0.2,1.1,0.7,1.8,0.5c0.2,0,0.3-0.2,0.2-0.4l-0.4-1.7C8.3,34,8,33.1,7.8,32.3c0.4-0.6,1.2-0.7,1.8-1.2
		c1-0.6,0.4-1.9,0.4-2.7c0.4-0.3,0.6-0.7,0.6-1.1c-0.1-0.7-0.4-1.3-0.7-1.9c0.2,0,0.4,0,0.5-0.2c0.1-0.3,0.1-0.6,0-0.9
		c-0.7-1.5-1.4-2.9-2.4-4.2c0.8,0.2,1.6,0.1,2.4-0.2c0.6-0.2,1-0.8,1-1.5c-0.2-1.3-0.6-2.6-1.3-3.8c1.5-0.4,2.6-1.5,3.2-2.9
		c0.4-1.5,0.5-3,0.4-4.5c-0.2-1.9-0.9-3.8-2.1-5.4c-0.3-0.3-0.4-0.7-0.8-0.7c-0.3,0.2-0.2,0.6-0.3,0.9C10.7,2.5,10.8,3,11,3.4
		c0.4,0.1,0.2-0.4,0.4-0.6c0.5,0.5,0.9,1.1,1.1,1.7c0.6,1.8,0.8,3.8,0.6,5.7c-0.1,1.3-0.9,2.5-2.2,3c0.2-1.3,0-2.6-0.7-3.8L9.8,9.2
		C9.4,9,9.1,8.4,8.7,8.6c-0.7,0.5-1.2,1.2-1.3,2.1c0,1-0.4,2.1,0.1,3c0.4,0.6,1.1,1,1.9,1.1c0.9,1,1.4,2.3,1.5,3.7
		c-0.1,0.2-0.3,0.4-0.5,0.5c-1.1,0.5-2.3,0.4-3.3-0.3c-1-1-1.8-2.3-3.1-3c-0.3-0.1-0.6-0.2-0.9-0.1c0,0.4-0.2,1,0.2,1.3
		c1.1,1.2,2.4,2.2,3.8,2.9c1.1,1.2,2,2.6,2.5,4.1c0,0.1,0.1,0.4-0.1,0.5c-0.3,0-0.5-0.3-0.8-0.4c-0.3,0.2,0,0.7-0.1,1
		c0.2,0.2,0.5,0.3,0.7,0.5c0.4,0.3,0.7,0.9,0.6,1.4c-0.1,0.1-0.2,0.3-0.4,0.3c-0.4,0-0.8-0.1-1.1-0.3c-0.7-0.4-0.3-1.3-0.3-2
		c-0.1,0-0.2-0.1-0.4,0c-0.4,0.5-0.5,1.2-0.3,1.9c0.4,0.9,1.2,1.6,2.1,1.8c0.1,0.4,0.1,0.9,0,1.3c-0.7,0.5-1.5,0.8-2.4,1.1
		c-0.3,0-0.4,0.3-0.4,0.5c0.3,1.2,0.7,2.3,1.2,3.4c0,0.2,0.1,0.4-0.1,0.6c-0.2,0.2-0.5,0-0.7-0.1c-0.3-0.1-0.5-0.7-1-0.5
		c-0.2,0.2-0.4,0.4-0.4,0.8l0.8,1.5c0.5,0.5,0.9,1.1,1.3,1.7C8.1,39,8,39,8,39c-0.8-0.1-1.6-0.3-2.4-0.7c-0.2,0-0.5-0.2-0.7,0
		c-0.1,0.3,0.1,0.6,0,0.9c0.4,1.1,1.7,1.9,2.1,3c0.3,0.5,0.4,1.2,0.2,1.8c-0.4,0.1-0.9,0.1-1.3,0.1c-1-1.7-2.5-3-4.3-3.7
		c-0.5-0.3-1.1-0.2-1.5,0c-0.2,0.3-0.2,0.8-0.1,1.2c0.4,0.6,1,1.2,1.6,1.6C3,44,4.1,45.1,5.8,45.1c0.3,0.5,0.4,1,0.5,1.6
		c0.1,0.7-1,1-0.8,1.8c0.1,0.4,0.7,0.2,1,0.4l-0.3,0.2c-0.2,0.1-0.3,0.4-0.3,0.6c0.5,0.5,1,0.9,1.6,1.2c0.1,0.1,0.3,0.3,0.2,0.5
		c-0.3,0.3-0.6,0.6-0.9,0.8c-0.1-0.2-0.2-0.3-0.4-0.4c-0.7-0.6-1.8-0.1-2.5,0.2c-0.2,0.1-0.1,0.4-0.1,0.6c0.1,0.2,0,0.5,0.1,0.8
		c0.8,0.5,1.8,0.4,2.7-0.1c0.4,1.4,0.7,2.8,1,4.3l-1.6,1.8c-0.2,0.2-0.4,0.4-0.7,0.4c-0.2-0.1-0.4-0.3-0.5-0.5l-1.8-3.2
		c-0.3-0.4-0.7-1-1.3-0.9c-0.8,0.4-0.7,1.5-0.7,2.4c0.1,2.5,0.7,5,1.8,7.3c0.1,0.2,0.2,0.2,0.4,0.2c0.3-0.5,0.7-0.9,1.2-1.2
		c0.1-0.1,0-0.2,0-0.2c0,0,0,0,0,0c-0.3,0-0.7,0-1,0.2C3,63.8,3,63.6,2.9,63.5c-1-2-1.4-4.2-1.4-6.5c0.1-0.3,0.1-0.7,0.4-0.9
		c0.2,0.1,0.4,0.2,0.5,0.4c0.7,1.1,1.3,2.2,1.7,3.4c-0.4-0.1-0.7-0.4-1.1-0.2c-0.1,0.2-0.4,0.1-0.3,0.3C3.3,60.3,4,60.7,4.6,61
		c0.2,0.1,0.3,0.5,0.6,0.3c1.1,0.6,2.2,1.1,3.4,1.5c0.1,0,0.2-0.1,0.3-0.2C9,62.3,9,62,8.8,61.8c-1-0.3-1.9-0.7-2.9-1.2l0.8-1
		C7,59.3,7.3,59,7.7,58.8c0.7,0.7,0.1,1.9,0.7,2.5c0.3,0.1,0.4-0.4,0.5-0.5l0.1,0c0.1,0.1,0.1,0.3,0.1,0.4c0.1,0,0.1,0.4,0.3,0.1
		c0.1,0.4,0.6,0.4,0.9,0.5c0.2,0.2,0.4,0.4,0.4,0.7c0.2-0.1,0.3,0.2,0.6,0.2c0.2,0.1,0.3-0.2,0.4-0.3c0.2-0.2,0.6-0.3,0.9-0.2
		c0.2,0.1,0.1,0.5,0.4,0.4c0.2-0.3,0.4-0.4,0.7-0.4c0.1,0,0.2,0.1,0.2,0.2c0.2,0.1,0.5,0.3,0.7,0.2l-0.2-0.1c0.1,0,0.1-0.2,0.1-0.3
		c0.5,0,1,0,1.5,0l0.1-0.1l1.2,0.2c0.1,0.1,0.1,0.2,0.1,0.4c0.3,0.1,0.1-0.2,0.2-0.3c0-0.1,0.2-0.1,0.3-0.1c0.2,0.1,0.3-0.2,0.4-0.4
		c0.3-0.1,0.5,0.1,0.8,0c0.4-0.6,0.4-1.4,0.2-2.1c0-0.3-0.4-0.1-0.5-0.4c-0.9-0.1-1.7-0.4-2.6-0.5c-0.1-0.1-0.1-0.2-0.1-0.2l2.2-1.9
		l1.4-1.5c0-0.2,0-0.4,0.1-0.6c-0.1-0.2-0.1-0.4-0.1-0.5c0.4,0.1,0.4,0.5,0.7,0.7l0.2,1.9c0,0.9,0.1,1.7,0.3,2.5
		c0.1,0.4,0,0.9,0.3,1.2c0,0.1-0.1,0.1-0.1,0.2c0.1,0.2,0.4,0.1,0.5,0.1c0.4-0.1,0.3,0.4,0.6,0.4v0.3l0.3,0c0.2,0,0.2,0.2,0.2,0.4
		c0.1,0.2,0.4,0,0.6,0.2c0,0.1,0,0.2,0.1,0.3l0.7,0c1.5,0.1,3.2,0.1,4.9,0.1c0.1,0,0.3,0.1,0.5,0.1c0.1-0.2,0.2-0.3,0.3-0.5l0.6,0
		c0.1,0,0.2,0.2,0.4,0.1c0.3-0.1,0.1-0.6,0.2-0.8c0.1-0.4,0.1-0.8,0-1.2c-0.2-0.3-0.6-0.5-0.9-0.5c-0.5-0.3-1.3-0.1-1.8-0.3
		c-0.4,0.2-0.7-0.1-1-0.1c-0.7-1-0.2-2.5-0.4-3.7c-0.1-0.9-0.2-1.8-0.2-2.7l0.1-0.1c0.1-0.1,0.1,0,0.2,0c0.1,0.1,0.2-0.1,0.4-0.1
		l-0.7-0.9c-0.1-0.1,0-0.3-0.2-0.3c-0.2-0.2-0.1-0.8-0.6-0.7l-0.8-1.1c-0.9-1.2-1.8-2.4-2.6-3.7h-0.1c-0.1,0-0.1-0.1-0.1-0.1
		c0-0.1-0.1,0-0.1-0.1c-0.1-0.4-0.4-0.7-0.5-1l0.9-1.6l0.1-0.1c0.4-0.7,0.8-1.4,1.3-2.1c0.1-0.3,0.3-0.6,0.5-0.9l0.4-1.5
		c0.2-0.6,0.1-1.4,0.6-1.9l-0.1-0.1c0.4-0.5,1-1,1.5-1.4c0.2,0,0.3,0.1,0.5,0.3c0.1,0.1,0.2,0,0.3,0.1l0-0.3l0.1,0.1l-0.1,0.2
		c0.3,0.3,0.4-0.4,0.7-0.3c0-0.1,0.1-0.1,0.1-0.1c0.1,0.1,0.3,0,0.4,0.1c1.5-0.2,3.1-0.4,4.6-0.7c0.3,0.1,0.7,0.1,1,0.1
		c0.1-0.1,0.2-0.1,0.3-0.2c0.1-0.2,0.3-0.3,0.4-0.5c0.5,0.1,0.8-0.2,1.2-0.2c0.4-0.3,0.8-0.5,1.3-0.6c0.3-0.1,0.7,0,0.8-0.3
		C39.1,32.8,39,32.8,39,32.7z M9.4,13.3c-0.2-0.2-0.3-0.4-0.6-0.5c-0.1,0-0.2,0.2-0.3,0.3c-0.4-0.3-0.6-0.7-0.6-1.2
		c0.1-0.4-0.2-0.7,0.1-1.1c0.1-0.3,0.3-0.7,0.7-0.8c0.7-0.2,1,0.6,1.3,1c0.1,0.7,0.2,1.4,0.3,2.1l-0.1,0.3L9.4,13.3z M2.6,42.8
		C2,42.5,1.5,42,1.1,41.5c0-0.1,0-0.3,0.2-0.3c0.8,0.2,1.6,0.5,2.3,0.9c0.8,0.5,1.5,1.2,2,2C4.4,43.9,3.4,43.5,2.6,42.8z M6.2,52.6
		C5.7,53,5,53,4.4,52.8c-0.1-0.1-0.1-0.1-0.1-0.2c0.4-0.3,0.9-0.4,1.4-0.3C5.9,52.3,6,52.4,6.2,52.6z"/>
	<path id="XMLID_1_" class="st0" d="M3.5,37.4c0.1,0.2,0.1,0.4,0,0.5c-0.1,0.3-0.3,0.5-0.6,0.6c-0.2,0-0.4-0.1-0.4-0.2
		c-0.1-0.3-0.1-0.6,0.1-0.8c0.1-0.2,0.2-0.3,0.4-0.3C3.2,37.1,3.4,37.2,3.5,37.4z"/>
</g>
</svg>
