<?xml version="1.0" encoding="utf-8"?>
<!-- Generator: Adobe Illustrator 25.0.0, SVG Export Plug-In . SVG Version: 6.00 Build 0)  -->
<svg version="1.1" id="Layer_1" xmlns="http://www.w3.org/2000/svg" xmlns:xlink="http://www.w3.org/1999/xlink" x="0px" y="0px"
	 viewBox="0 0 250.3 527.1" style="enable-background:new 0 0 250.3 527.1;" xml:space="preserve">
<style type="text/css">
	.st0{fill:url(#Vector_1_);}
	.st1{fill:url(#Vector-2_1_);}
	.st2{fill:url(#Vector-3_1_);}
	.st3{fill:url(#Vector-4_1_);}
	.st4{fill:url(#Vector-5_1_);}
	.st5{fill:url(#Vector-6_1_);}
	.st6{fill:#342D56;}
	.st7{fill:url(#Vector-9_1_);}
	.st8{fill:url(#Vector-10_1_);}
	.st9{fill:url(#Vector-11_1_);}
	.st10{fill:url(#Vector-12_1_);}
	.st11{fill:url(#Vector-13_1_);}
	.st12{fill:url(#Vector-14_1_);}
	.st13{fill:url(#Vector-15_1_);}
	.st14{opacity:0.5;fill:#FFFFFF;enable-background:new    ;}
	.st15{fill:url(#Vector-17_1_);}
	.st16{fill:url(#Vector-18_1_);}
	.st17{fill:url(#Vector-19_1_);}
	.st18{fill:url(#Vector-20_1_);}
	.st19{fill:url(#Vector-21_1_);}
	.st20{fill:url(#Vector-22_1_);}
	.st21{fill:url(#Vector-23_1_);}
	.st22{fill:url(#Vector-25_1_);}
	.st23{fill:#FFFCF3;}
	.st24{fill:url(#Vector-27_1_);}
	.st25{opacity:0.4;fill:#FFFFFF;enable-background:new    ;}
	.st26{fill:#DEB99E;}
	.st27{fill:#CCC08A;}
	.st28{fill:#E96724;}
	.st29{fill:url(#Vector-36_1_);}
	.st30{fill:#DBD8EB;}
	.st31{fill:url(#Vector-38_1_);}
	.st32{fill:url(#Vector-39_1_);}
	.st33{fill:url(#Vector-40_1_);}
	.st34{fill:url(#Vector-41_1_);}
	.st35{fill:url(#Vector-43_1_);}
	.st36{fill:url(#Vector-44_1_);}
	.st37{fill:url(#Vector-45_1_);}
	.st38{fill:url(#Vector-46_1_);}
	.st39{fill:url(#Vector-47_1_);}
	.st40{fill:url(#Vector-48_1_);}
	.st41{fill:url(#Vector-49_1_);}
	.st42{fill:#FFFFFF;}
	.st43{fill:url(#Vector-52_1_);}
	.st44{fill:url(#Vector-53_1_);}
	.st45{fill:#2F2854;}
	.st46{fill:url(#Vector-55_1_);}
	.st47{fill:#37305C;}
	.st48{fill:url(#Vector-57_1_);}
	.st49{fill:url(#Vector-58_1_);}
	.st50{fill:url(#Vector-59_1_);}
	.st51{fill:url(#Vector-60_1_);}
	.st52{fill:url(#Vector-61_1_);}
	.st53{fill:url(#Vector-62_1_);}
	.st54{fill:url(#Vector-63_1_);}
	.st55{fill:url(#Vector-64_1_);}
	.st56{fill:#CFCAE5;}
</style>
<g id="Frame" transform="translate(-0.021)">
	<g id="Group">
		<g id="Group-2">
			
				<linearGradient id="Vector_1_" gradientUnits="userSpaceOnUse" x1="-828.0187" y1="1235.4252" x2="-828.0187" y2="1229.9366" gradientTransform="matrix(6.719 0 0 -16.9887 5714.6489 21430.6113)">
				<stop  offset="0" style="stop-color:#F1D213"/>
				<stop  offset="1" style="stop-color:#F07A22"/>
			</linearGradient>
			<path id="Vector" class="st0" d="M171.8,443.1c0,11.1-20.6,84-20.6,84s-20.6-72.9-20.6-84c0.1-11.3,9.3-20.3,20.6-20.2
				c0,0,0,0,0,0c11.2-0.2,20.4,8.6,20.6,19.8C171.8,442.8,171.8,443,171.8,443.1z"/>
			
				<linearGradient id="Vector-2_1_" gradientUnits="userSpaceOnUse" x1="-834.4978" y1="1235.4231" x2="-834.4978" y2="1229.9344" gradientTransform="matrix(6.719 0 0 -16.9874 5706.167 21429.0098)">
				<stop  offset="0" style="stop-color:#F1D213"/>
				<stop  offset="1" style="stop-color:#F07A22"/>
			</linearGradient>
			<path id="Vector-2" class="st1" d="M119.8,443.1c0,11.1-20.6,84-20.6,84s-20.6-72.9-20.6-84c0.1-11.3,9.3-20.3,20.6-20.2
				c0,0,0,0,0,0c11.2-0.2,20.4,8.8,20.6,20C119.8,443,119.8,443,119.8,443.1z"/>
			
				<linearGradient id="Vector-3_1_" gradientUnits="userSpaceOnUse" x1="-822.7524" y1="1219.1345" x2="-822.7524" y2="1213.6459" gradientTransform="matrix(5.169 0 0 -10.7925 4351.9834 13595.0381)">
				<stop  offset="0" style="stop-color:#F1D213"/>
				<stop  offset="1" style="stop-color:#F07A22"/>
			</linearGradient>
			<path id="Vector-3" class="st2" d="M115,437.9c0,7-15.8,53.3-15.8,53.3s-15.9-46.2-15.9-53.3c0.9-7.9,8-13.6,15.8-12.8
				C107.1,424.3,114.1,430,115,437.9z"/>
			
				<linearGradient id="Vector-4_1_" gradientUnits="userSpaceOnUse" x1="-814.3304" y1="1219.1349" x2="-814.3304" y2="1213.6464" gradientTransform="matrix(5.169 0 0 -10.7926 4360.4653 13595.1572)">
				<stop  offset="0" style="stop-color:#F1D213"/>
				<stop  offset="1" style="stop-color:#F07A22"/>
			</linearGradient>
			<path id="Vector-4" class="st3" d="M167,437.9c0,7-15.8,53.3-15.8,53.3s-15.9-46.2-15.9-53.3c0.9-7.9,8-13.6,15.8-12.8
				C159.1,424.3,166.1,430,167,437.9z"/>
			
				<linearGradient id="Vector-5_1_" gradientUnits="userSpaceOnUse" x1="-788.772" y1="1189.7177" x2="-788.772" y2="1184.229" gradientTransform="matrix(3.1 0 0 -6.4893 2544.3662 8152.9199)">
				<stop  offset="0" style="stop-color:#F1D213"/>
				<stop  offset="1" style="stop-color:#F07A22"/>
			</linearGradient>
			<path id="Vector-5" class="st4" d="M108.7,432.8c-2.6,10.8-5.8,21.5-9.5,32c-3.8-10.5-6.9-21.2-9.5-32c0.5-4.7,4.8-8.2,9.5-7.8
				C103.9,424.7,108.1,428.1,108.7,432.8z"/>
			
				<linearGradient id="Vector-6_1_" gradientUnits="userSpaceOnUse" x1="-774.7289" y1="1189.7177" x2="-774.7289" y2="1184.229" gradientTransform="matrix(3.1 0 0 -6.4893 2552.8481 8152.9199)">
				<stop  offset="0" style="stop-color:#F1D213"/>
				<stop  offset="1" style="stop-color:#F07A22"/>
			</linearGradient>
			<path id="Vector-6" class="st5" d="M160.7,432.8c-2.6,10.8-5.8,21.5-9.5,32c-3.8-10.5-6.9-21.2-9.5-32c0.5-4.7,4.8-8.2,9.5-7.8
				C155.9,424.7,160.1,428.1,160.7,432.8z"/>
		</g>
		<path id="Vector-7" class="st6" d="M64.2,120h122v14.2h-122V120z"/>
		<path id="Vector-8" class="st6" d="M64.2,230.6h122v14.2h-122V230.6z"/>
		<g id="Group-5">
			<g id="Group-6">
				
					<linearGradient id="Vector-9_1_" gradientUnits="userSpaceOnUse" x1="-824.413" y1="1258.6479" x2="-818.2806" y2="1258.6479" gradientTransform="matrix(6.5781 0 0 -56.9941 5598.8584 71963.1094)">
					<stop  offset="0" style="stop-color:#FFFFFF"/>
					<stop  offset="1" style="stop-color:#BFB6DA"/>
				</linearGradient>
				<path id="Vector-9" class="st7" d="M198.7,53.7c-0.4-1.1-2.9-0.8-2.9-0.8s-2.3-0.3-2.9,0.8c-0.4,1.1-17.3,48.5-17.3,50.8v297.9
					H216V104.5C216.2,102.2,199.2,54.7,198.7,53.7z"/>
				
					<linearGradient id="Vector-10_1_" gradientUnits="userSpaceOnUse" x1="-813.723" y1="1260.1023" x2="-820.2172" y2="1257.772" gradientTransform="matrix(6.578 0 0 -53.678 5598.7686 67772.6875)">
					<stop  offset="0" style="stop-color:#FFFFFF"/>
					<stop  offset="1" style="stop-color:#BFB6DA"/>
				</linearGradient>
				<path id="Vector-10" class="st8" d="M175.8,157v245.2h40.3V104.3c0-1.3-5.6-17.5-10.4-31.3C212.6,105.4,203.3,139.9,175.8,157z"
					/>
				
					<linearGradient id="Vector-11_1_" gradientUnits="userSpaceOnUse" x1="-818.6984" y1="1258.3201" x2="-824.4629" y2="1256.9586" gradientTransform="matrix(6.578 0 0 -51.241 5598.7686 64693.2227)">
					<stop  offset="0" style="stop-color:#FFFFFF"/>
					<stop  offset="1" style="stop-color:#BFB6DA"/>
				</linearGradient>
				<path id="Vector-11" class="st9" d="M216.2,397.4v-96.8c-7.2-7.2-13.7-15-19.4-23.4c-4.3-7.5-7.4-15.6-9.1-24.1V129.4
					c-0.2-14-2.4-27.8-6.6-41.2c-2.9,8.6-5.2,15.5-5.2,16.4v297.9h12v-4.1h23.8C212,398.3,213.7,398,216.2,397.4z"/>
				<g id="Group-7">
					
						<linearGradient id="Vector-12_1_" gradientUnits="userSpaceOnUse" x1="-824.4056" y1="642.6708" x2="-818.2854" y2="642.6708" gradientTransform="matrix(6.578 0 0 -0.345 5598.7686 330.9064)">
						<stop  offset="0" style="stop-color:#584D95"/>
						<stop  offset="1" style="stop-color:#312B52"/>
					</linearGradient>
					<path id="Vector-12" class="st10" d="M175.8,108.1h40.3v2.1h-40.3V108.1z"/>
					
						<linearGradient id="Vector-13_1_" gradientUnits="userSpaceOnUse" x1="-824.4056" y1="455.9394" x2="-818.2854" y2="455.9394" gradientTransform="matrix(6.578 0 0 -0.345 5598.7686 343.4584)">
						<stop  offset="0" style="stop-color:#584D95"/>
						<stop  offset="1" style="stop-color:#312B52"/>
					</linearGradient>
					<path id="Vector-13" class="st11" d="M175.8,185.1h40.3v2.1h-40.3V185.1z"/>
					
						<linearGradient id="Vector-14_1_" gradientUnits="userSpaceOnUse" x1="-824.4056" y1="269.2228" x2="-818.2854" y2="269.2228" gradientTransform="matrix(6.578 0 0 -0.345 5598.7686 356.0094)">
						<stop  offset="0" style="stop-color:#584D95"/>
						<stop  offset="1" style="stop-color:#312B52"/>
					</linearGradient>
					<path id="Vector-14" class="st12" d="M175.8,262.1h40.3v2.1h-40.3V262.1z"/>
					
						<linearGradient id="Vector-15_1_" gradientUnits="userSpaceOnUse" x1="-824.4056" y1="82.4913" x2="-818.2854" y2="82.4913" gradientTransform="matrix(6.578 0 0 -0.345 5598.7686 368.5614)">
						<stop  offset="0" style="stop-color:#584D95"/>
						<stop  offset="1" style="stop-color:#312B52"/>
					</linearGradient>
					<path id="Vector-15" class="st13" d="M175.8,339h40.3v2.1h-40.3V339z"/>
				</g>
				<path id="Vector-16" class="st14" d="M211.1,201.6c0,2.2-1.8,4-4,3.9c0,0,0,0,0,0c-2.2,0-4-1.7-4-3.9c0,0,0,0,0,0v-23.5
					c0-2.2,1.8-4,4-3.9c0,0,0,0,0,0c2.2,0,4,1.7,4,3.9c0,0,0,0,0,0V201.6z M211.1,163.7c0-2.2-1.8-4-4-3.9c0,0,0,0,0,0
					c-2.2,0-4,1.7-4,3.9c0,0,0,0,0,0v3.5c0,2.2,1.8,4,4,3.9c0,0,0,0,0,0c2.2,0,4-1.7,4-3.9c0,0,0,0,0,0V163.7z"/>
			</g>
			<g id="Group-8">
				
					<linearGradient id="Vector-17_1_" gradientUnits="userSpaceOnUse" x1="-842.413" y1="1258.6479" x2="-836.2806" y2="1258.6479" gradientTransform="matrix(6.578 0 0 -56.9941 5575.6733 71963.1094)">
					<stop  offset="0" style="stop-color:#FFFFFF"/>
					<stop  offset="1" style="stop-color:#BFB6DA"/>
				</linearGradient>
				<path id="Vector-17" class="st15" d="M57.3,53.7c-0.4-1.1-2.9-0.8-2.9-0.8s-2.3-0.3-2.9,0.8c-0.4,1.1-17.3,48.5-17.3,50.8v297.9
					h40.3V104.5C74.5,102.2,57.7,54.7,57.3,53.7z"/>
				
					<linearGradient id="Vector-18_1_" gradientUnits="userSpaceOnUse" x1="-842.4253" y1="1258.1519" x2="-836.3726" y2="1258.1519" gradientTransform="matrix(6.578 0 0 -53.678 5575.6733 67772.6875)">
					<stop  offset="0" style="stop-color:#FFFFFF"/>
					<stop  offset="1" style="stop-color:#BFB6DA"/>
				</linearGradient>
				<path id="Vector-18" class="st16" d="M34.2,157v245.2h40.3V104.3c0-1.3-5.6-17.5-10.4-31.3C71.1,105.4,61.9,139.9,34.2,157z"/>
				
					<linearGradient id="Vector-19_1_" gradientUnits="userSpaceOnUse" x1="-842.0627" y1="1258.0723" x2="-830.9692" y2="1256.7109" gradientTransform="matrix(6.579 0 0 -51.241 5576.5474 64693.2227)">
					<stop  offset="0" style="stop-color:#FFFFFF"/>
					<stop  offset="1" style="stop-color:#BFB6DA"/>
				</linearGradient>
				<path id="Vector-19" class="st17" d="M34.2,397.4v-96.8c7.2-7.2,13.7-15,19.5-23.4c4.3-7.5,7.4-15.6,9.1-24.1V129.4
					c0.2-14,2.4-27.8,6.6-41.2c2.9,8.6,5.2,15.5,5.2,16.4v297.9h-12v-4.1H38.8C38.4,398.3,36.7,398,34.2,397.4z"/>
				<g id="Group-9">
					
						<linearGradient id="Vector-20_1_" gradientUnits="userSpaceOnUse" x1="-842.413" y1="642.6708" x2="-836.2806" y2="642.6708" gradientTransform="matrix(6.578 0 0 -0.345 5575.6733 330.9064)">
						<stop  offset="0" style="stop-color:#584D95"/>
						<stop  offset="1" style="stop-color:#312B52"/>
					</linearGradient>
					<path id="Vector-20" class="st18" d="M34.2,108.1h40.3v2.1H34.2V108.1z"/>
					
						<linearGradient id="Vector-21_1_" gradientUnits="userSpaceOnUse" x1="-842.413" y1="455.9394" x2="-836.2806" y2="455.9394" gradientTransform="matrix(6.578 0 0 -0.345 5575.6733 343.4584)">
						<stop  offset="0" style="stop-color:#584D95"/>
						<stop  offset="1" style="stop-color:#312B52"/>
					</linearGradient>
					<path id="Vector-21" class="st19" d="M34.2,185.1h40.3v2.1H34.2V185.1z"/>
					
						<linearGradient id="Vector-22_1_" gradientUnits="userSpaceOnUse" x1="-842.413" y1="269.2228" x2="-836.2806" y2="269.2228" gradientTransform="matrix(6.578 0 0 -0.345 5575.6733 356.0094)">
						<stop  offset="0" style="stop-color:#584D95"/>
						<stop  offset="1" style="stop-color:#312B52"/>
					</linearGradient>
					<path id="Vector-22" class="st20" d="M34.2,262.1h40.3v2.1H34.2V262.1z"/>
					
						<linearGradient id="Vector-23_1_" gradientUnits="userSpaceOnUse" x1="-842.413" y1="82.4913" x2="-836.2806" y2="82.4913" gradientTransform="matrix(6.578 0 0 -0.345 5575.6733 368.5614)">
						<stop  offset="0" style="stop-color:#584D95"/>
						<stop  offset="1" style="stop-color:#312B52"/>
					</linearGradient>
					<path id="Vector-23" class="st21" d="M34.2,339h40.3v2.1H34.2V339z"/>
				</g>
				<path id="Vector-24" class="st14" d="M50,204.1c0,2.2-1.8,4-4,3.9c0,0,0,0,0,0c-2.2,0-4-1.7-4-3.9c0,0,0,0,0,0v-23.5
					c0-2.2,1.8-4,4-3.9c0,0,0,0,0,0c2.2,0,4,1.7,4,3.9c0,0,0,0,0,0V204.1z M50,166.1c0-2.2-1.8-4-4-3.9c0,0,0,0,0,0
					c-2.2,0-4,1.7-4,3.9c0,0,0,0,0,0v3.5c0,2.2,1.8,4,4,3.9c0,0,0,0,0,0c2.2,0,4-1.7,4-3.9c0,0,0,0,0,0V166.1z"/>
			</g>
		</g>
		<g id="Group-10">
			
				<linearGradient id="Vector-25_1_" gradientUnits="userSpaceOnUse" x1="-858.0889" y1="1261.2516" x2="-852.8334" y2="1257.9952" gradientTransform="matrix(14.9902 0 0 -64.709 12936.6631 81711.1172)">
				<stop  offset="0" style="stop-color:#F1D213"/>
				<stop  offset="1" style="stop-color:#F07A22"/>
			</linearGradient>
			<path id="Vector-25" class="st22" d="M125.1,0c-33.6,19.5-46,66.5-46,95.7v301.1h91.9V95.7C171.2,66.5,158.8,19.5,125.1,0z"/>
			<path id="Vector-26" class="st23" d="M125.1,0c0,0-1.4,1.1-3.9,2.8c-0.6,0.4-1.3,1-2,1.6c-0.8,0.6-1.5,1.3-2.2,2
				c-0.7,0.7-1.6,1.4-2.5,2.3c-0.9,0.8-1.8,1.7-2.6,2.7c-0.9,1-1.9,2-2.7,3c-0.9,1.1-1.7,2.3-2.7,3.4c-1.9,2.3-3.6,4.9-5.5,7.5
				c-0.9,1.3-1.7,2.8-2.6,4.2c-0.9,1.4-1.7,2.9-2.5,4.4c-0.7,1.6-1.6,3-2.3,4.5c-0.7,1.6-1.4,3.1-2,4.7c-0.3,0.8-0.7,1.6-1,2.4
				l-0.9,2.4c-0.7,1.6-1.2,3.2-1.7,4.8c-1,3.2-2.2,6.3-2.9,9.4c-0.9,3.1-1.6,6.1-2.3,9c-0.6,2.8-1.2,5.6-1.6,8.2
				c-0.3,2.5-0.9,4.8-1,6.9c-0.3,1.8-0.5,3.6-0.6,5.4c-0.3,3-0.4,4.7-0.4,4.7s0-1.7-0.1-4.8c0-1.6,0.1-3.4,0.1-5.5
				c0.1-2.4,0.3-4.7,0.6-7c0.3-2.5,0.7-5.4,1.2-8.3c0.6-3,1.2-6.1,2-9.2c0.7-3.2,1.7-6.3,2.7-9.7c0.6-1.7,1.2-3.2,1.7-4.9l0.8-2.4
				c0.3-0.8,0.7-1.6,1-2.4c0.7-1.6,1.4-3.2,2.2-4.8c0.9-1.6,1.6-3.1,2.5-4.7c0.8-1.5,1.6-3,2.6-4.4c0.9-1.4,1.7-2.8,2.7-4.2
				c1.8-2.6,3.8-5.1,5.9-7.5c1-1.1,2-2.3,2.9-3.2c1-1,2-2,3-2.8s1.9-1.8,2.9-2.5c1-0.7,1.9-1.4,2.7-2.1c0.9-0.7,1.7-1.3,2.5-1.8
				c0.7-0.4,1.6-0.9,2.2-1.3C123.7,0.8,125.1,0,125.1,0z"/>
			
				<linearGradient id="Vector-27_1_" gradientUnits="userSpaceOnUse" x1="-857.8555" y1="1260.2837" x2="-853.2929" y2="1258.8427" gradientTransform="matrix(14.99 0 0 -64.713 12936.4941 81716.1719)">
				<stop  offset="0" style="stop-color:#F07A22;stop-opacity:0.2"/>
				<stop  offset="1" style="stop-color:#F07A22"/>
			</linearGradient>
			<path id="Vector-27" class="st24" d="M125.1,396.8h46V95.7c0-29.2-12.4-76.3-46-95.7c36.2,45.8,28.2,114.9-46,151.6v245.3H125.1z
				"/>
			<path id="Vector-28" class="st25" d="M92.7,70.5c-0.3,0-0.7,0-1-0.1c-2.6-0.6-4.2-3.1-3.7-5.7c0-0.1,0-0.2,0.1-0.3
				c1.8-7.1,4.2-14,7.2-20.7c1.2-2.5,4.1-3.6,6.6-2.5c2.5,1.1,3.7,3.9,2.6,6.4c0,0,0,0,0,0.1c-2.8,6.2-5,12.6-6.6,19.2
				C97.1,69,95,70.5,92.7,70.5z M109.9,36.5c0.2-0.3,0.4-0.6,0.6-1c1.5-2.1,1-5.1-1.1-6.6c-0.1,0-0.1-0.1-0.2-0.1
				c-2.3-1.6-5.4-1-6.9,1.2c0,0,0,0,0,0c-0.3,0.3-0.4,0.7-0.7,1c-1.5,2.2-0.9,5.2,1.3,6.7c0.8,0.6,1.7,0.8,2.6,0.8
				C107.1,38.8,108.8,38,109.9,36.5L109.9,36.5z"/>
			<path id="Vector-29" class="st26" d="M105.4,396.8h65.8V180.2c-2-6.6-3.9-7.8-4-7.8c-0.7-19.4-4.3-38.5-10.7-56.8
				c-0.3-0.7-0.4-1.4-0.7-2c-2.7-8.2-6.1-16.2-10.2-23.8c-2.1-3.1-5.6-4.9-9.4-4.7c-3.7-0.2-7.3,1.6-9.4,4.7
				c-4.2,7.6-7.6,15.6-10.2,23.8c-0.3,0.7-0.4,1.4-0.7,2c-7.3,21.2-10.9,43.4-10.8,65.8C105.4,188.3,105.4,336.8,105.4,396.8z"/>
			<g id="Group-12">
				<path id="Vector-30" class="st27" d="M79.2,99.5h92.1v1.7H79.2V99.5z"/>
				<path id="Vector-31" class="st28" d="M79.2,100.4h92.1v1.7H79.2V100.4z"/>
			</g>
			<g id="Group-13">
				<path id="Vector-32" class="st27" d="M79.2,161.1h92.1v1.7H79.2V161.1z"/>
				<path id="Vector-33" class="st28" d="M79.2,162h92.1v1.7H79.2V162z"/>
			</g>
			<g id="Group-14">
				<path id="Vector-34" class="st27" d="M79.2,222.7h92.1v1.7H79.2V222.7z"/>
				<path id="Vector-35" class="st28" d="M79.2,223.6h92.1v1.7H79.2V223.6z"/>
			</g>
		</g>
		<g id="Group-15">
			<g id="Group-16">
				
					<linearGradient id="Vector-36_1_" gradientUnits="userSpaceOnUse" x1="-860.0894" y1="1255.1014" x2="-855.3062" y2="1254.7213" gradientTransform="matrix(15.5777 0 0 -39.425 13437.5332 49762.9844)">
					<stop  offset="0" style="stop-color:#FFFFFF"/>
					<stop  offset="1" style="stop-color:#BFB6DA"/>
				</linearGradient>
				<path id="Vector-36" class="st29" d="M94.3,167.1c0,0-4,2.1-6.3,19.6c-2.5,17.5-3.6,77.8-18.3,100.9
					C54.8,310.7,17,340.8,10.7,352s-9.7,41-9.5,42.3c17.6,5.8,35.5,10.7,53.6,14.5h41.9V167.1H94.3z"/>
				<path id="Vector-37" class="st30" d="M3.1,378.7h93.5v1.8H64.5v28.3h-1.6v-28.3H35.5v24c-0.6-0.1-1-0.3-1.6-0.4v-23.5H2.8
					C3,379.9,3.1,379.3,3.1,378.7z"/>
				
					<linearGradient id="Vector-38_1_" gradientUnits="userSpaceOnUse" x1="-856.3319" y1="1242.1411" x2="-855.4059" y2="1237.3885" gradientTransform="matrix(11.8225 0 0 -16.805 10154.6445 21177.2754)">
					<stop  offset="0" style="stop-color:#584D95"/>
					<stop  offset="1" style="stop-color:#312B52"/>
				</linearGradient>
				<path id="Vector-38" class="st31" d="M9.6,352c5.9-10.3,39.3-37.5,55.9-58.4h7.1c-14.1,23.1-49.6,52.9-55.6,64
					c-4.9,9.2-7.9,30.9-8.8,39.1c-2.8-0.6-5.5-1.4-8.1-2.5C-0.2,393,3.1,363.3,9.6,352z"/>
				<g id="Group-17">
					
						<linearGradient id="Vector-39_1_" gradientUnits="userSpaceOnUse" x1="-834.3906" y1="1189.7863" x2="-828.3073" y2="1183.6293" gradientTransform="matrix(5.5 0 0 -5.3807 4635.2476 6736.146)">
						<stop  offset="0" style="stop-color:#6493CD"/>
						<stop  offset="1" style="stop-color:#3F479D"/>
					</linearGradient>
					<path id="Vector-39" class="st32" d="M79.7,350.9c-0.1,9.2-7.5,16.6-16.7,16.5c0,0-0.1,0-0.1,0c-9.2,0.1-16.7-7.2-16.9-16.3
						c0-0.1,0-0.1,0-0.2c0.1-9.2,7.5-16.6,16.7-16.5c0,0,0.1,0,0.1,0C72.1,334.3,79.6,341.7,79.7,350.9z"/>
					
						<linearGradient id="Vector-40_1_" gradientUnits="userSpaceOnUse" x1="-809.4134" y1="1137.891" x2="-803.3484" y2="1131.0779" gradientTransform="matrix(3.454 0 0 -3.218 2847.7134 4002.0808)">
						<stop  offset="0" style="stop-color:#F1E904"/>
						<stop  offset="1" style="stop-color:#F19620"/>
					</linearGradient>
					<path id="Vector-40" class="st33" d="M62.9,340.2l3,6.7l7.5,0.7l-5.6,4.9l1.6,7.4l-6.5-3.8l-6.6,3.8l1.7-7.4l-5.8-4.9l7.6-0.7
						L62.9,340.2z"/>
				</g>
			</g>
			<g id="Group-18">
				
					<linearGradient id="Vector-41_1_" gradientUnits="userSpaceOnUse" x1="-846.7264" y1="1254.1829" x2="-854.3491" y2="1254.9249" gradientTransform="matrix(15.5787 0 0 -39.434 13463.2666 49774.3672)">
					<stop  offset="0" style="stop-color:#FFFFFF"/>
					<stop  offset="1" style="stop-color:#BFB6DA"/>
				</linearGradient>
				<path id="Vector-41" class="st34" d="M156.1,167.1c0,0,4,2.1,6.3,19.6c2.5,17.5,3.6,77.8,18.3,100.9
					c14.8,23.1,52.6,53.1,58.9,64.4s9.7,41,9.5,42.3c-17.6,5.8-35.5,10.7-53.6,14.5h-41.9V167.1H156.1z"/>
				<path id="Vector-42" class="st30" d="M247.3,378.7h-93.5v1.8h32.1v28.3h1.6v-28.3h27.4v24c0.6-0.1,1-0.3,1.6-0.4v-23.5h31.1
					C247.4,379.9,247.3,379.3,247.3,378.7z"/>
				
					<linearGradient id="Vector-43_1_" gradientUnits="userSpaceOnUse" x1="-845.4088" y1="1242.5909" x2="-839.9509" y2="1236.8572" gradientTransform="matrix(11.8208 0 0 -16.805 10182.1982 21177.2754)">
					<stop  offset="0" style="stop-color:#584D95"/>
					<stop  offset="1" style="stop-color:#312B52"/>
				</linearGradient>
				<path id="Vector-43" class="st35" d="M240.8,352c-5.9-10.3-39.5-37.5-55.9-58.4h-7.1c14.1,23.1,49.6,52.9,55.6,64
					c4.9,9.2,7.9,30.9,8.8,39.1c2.8-0.6,5.5-1.4,8.1-2.5C250.6,393,247.3,363.3,240.8,352z"/>
				<g id="Group-19">
					
						<linearGradient id="Vector-44_1_" gradientUnits="userSpaceOnUse" x1="-815.4264" y1="1189.7863" x2="-809.3307" y2="1183.6293" gradientTransform="matrix(5.5 0 0 -5.3807 4655.5708 6736.1924)">
						<stop  offset="0" style="stop-color:#6493CD"/>
						<stop  offset="1" style="stop-color:#3F479D"/>
					</linearGradient>
					<path id="Vector-44" class="st36" d="M204.4,350.9c-0.1,9.2-7.5,16.6-16.7,16.5c0,0-0.1,0-0.1,0c-9.2,0.1-16.7-7.2-16.9-16.3
						c0-0.1,0-0.1,0-0.2c0.1-9.2,7.5-16.6,16.7-16.5c0,0,0.1,0,0.1,0c9.2-0.1,16.7,7.2,16.9,16.3
						C204.4,350.8,204.4,350.8,204.4,350.9z"/>
					
						<linearGradient id="Vector-45_1_" gradientUnits="userSpaceOnUse" x1="-779.1445" y1="1137.8987" x2="-773.1041" y2="1131.0854" gradientTransform="matrix(3.453 0 0 -3.218 2867.1853 4002.0808)">
						<stop  offset="0" style="stop-color:#F1E904"/>
						<stop  offset="1" style="stop-color:#F19620"/>
					</linearGradient>
					<path id="Vector-45" class="st37" d="M187.5,340.2l3,6.7l7.6,0.7l-5.8,4.9l1.7,7.4l-6.6-3.8l-6.5,3.8l1.6-7.4l-5.6-4.9l7.5-0.7
						L187.5,340.2z"/>
				</g>
			</g>
			
				<linearGradient id="Vector-46_1_" gradientUnits="userSpaceOnUse" x1="-841.713" y1="1254.2579" x2="-849.8139" y2="1254.9202" gradientTransform="matrix(12.687 0 0 -39.425 10935.4824 49763.0078)">
				<stop  offset="0" style="stop-color:#FFFFFF"/>
				<stop  offset="1" style="stop-color:#BFB6DA"/>
			</linearGradient>
			<path id="Vector-46" class="st38" d="M189.7,299.4c-3.2-3.7-6.1-7.6-8.8-11.7c-14.8-23.1-15.9-83.3-18.3-100.9
				c-2.5-17.5-6.3-19.6-6.3-19.6h-2.3V409h41.9c1.6,0,24.8-5.9,35.9-8.9L189.7,299.4z"/>
			
				<linearGradient id="Vector-47_1_" gradientUnits="userSpaceOnUse" x1="-840.2284" y1="1257.4896" x2="-836.3527" y2="1252.2404" gradientTransform="matrix(8.552 0 0 -39.4 7318.2417 49731.3945)">
				<stop  offset="0" style="stop-color:#FFFFFF"/>
				<stop  offset="1" style="stop-color:#BFB6DA"/>
			</linearGradient>
			<path id="Vector-47" class="st39" d="M190.7,408.8l-18.6-35.2c0-8.9-4.2-17.2-11.4-22.4V177.3c-2.2-8.9-4.6-10.1-4.6-10.1h-2.3
				v183.7h-15.6v54.7h15.4v3.2H190.7z"/>
			
				<linearGradient id="Vector-48_1_" gradientUnits="userSpaceOnUse" x1="-848.5435" y1="1257.3274" x2="-831.0599" y2="1256.0212" gradientTransform="matrix(10.1041 0 0 -48.16 8667.8408 60800.4297)">
				<stop  offset="0" style="stop-color:#FFFFFF"/>
				<stop  offset="1" style="stop-color:#BFB6DA"/>
			</linearGradient>
			<path id="Vector-48" class="st40" d="M145.4,110.2h-6.6l-3.6,3.5h-19.9l-3.6-3.5h-6.6c-7.3,21.2-10.9,43.4-10.8,65.8V399
				c0,4.7,5,6.6,8.8,6.6h44.4c3.9,0,8.8-2,8.8-6.6V176.1C156.4,153.7,152.7,131.4,145.4,110.2z"/>
			
				<linearGradient id="Vector-49_1_" gradientUnits="userSpaceOnUse" x1="-848.5366" y1="1257.8837" x2="-842.4839" y2="1257.8837" gradientTransform="matrix(10.1035 0 0 -52.37 8667.3506 66120.3906)">
				<stop  offset="0" style="stop-color:#FFFFFF"/>
				<stop  offset="1" style="stop-color:#BFB6DA"/>
			</linearGradient>
			<path id="Vector-49" class="st41" d="M94.1,186.2V399c0,4.7,5,6.6,8.8,6.6h44.4c3.9,0,8.8-2,8.8-6.6V176.1
				c0.1-22.4-3.5-44.7-10.8-65.8c-0.3-0.7-0.4-1.4-0.7-2c-2.7-8.2-6.1-16.2-10.2-23.8C144.7,112.7,137.8,165.8,94.1,186.2z"/>
			<path id="Vector-50" class="st42" d="M94.1,186.2c0,0,0.1,2.5,0.3,7c0.1,4.5,0.4,11,0.4,18.6c0.1,7.8,0.3,16.8,0.4,26.4
				c0.1,9.6,0.1,19.9,0.1,30.2s-0.1,20.6-0.1,30.2c-0.1,9.6-0.3,18.6-0.4,26.4c0,3.8-0.1,7.4-0.3,10.6c-0.1,3.1-0.1,5.9-0.1,8.2
				c-0.1,4.5-0.3,7-0.3,7s-0.1-2.5-0.3-7c0-2.3-0.1-4.9-0.1-8.2c0-3.1-0.1-6.6-0.3-10.6c-0.1-7.8-0.3-16.8-0.4-26.4
				c-0.1-9.6-0.2-19.9-0.2-30.2c0-10.3,0-20.6,0.1-30.2c0-9.6,0.3-18.6,0.4-26.4c0.1-7.8,0.4-14.1,0.4-18.6
				C94,188.8,94.1,186.2,94.1,186.2z"/>
			<path id="Vector-51" class="st42" d="M124.2,214c0,0,0,1.7,0.1,4.7c0,3,0.1,7,0.1,12.1c0,5.1,0.1,10.9,0.1,17.2v39.2
				c0,6.2-0.1,12.1-0.1,17.2l0,0c0-5.1,0-10.9-0.1-17.2V248c0-6.2,0.1-12.1,0.1-17.2s0.1-9.2,0.1-12.1
				C124.4,217.1,124.3,215.6,124.2,214z"/>
			
				<linearGradient id="Vector-52_1_" gradientUnits="userSpaceOnUse" x1="-830.7061" y1="1213.6337" x2="-837.0347" y2="1214.897" gradientTransform="matrix(7.354 0 0 -8.92 6265.8208 11214.8545)">
				<stop  offset="0" style="stop-color:#FFFFFF"/>
				<stop  offset="1" style="stop-color:#BFB6DA"/>
			</linearGradient>
			<path id="Vector-52" class="st43" d="M106.5,405.6h40.9c1.4,0,2.8-0.3,4.2-0.7l-35.4-54h-9.7V405.6z"/>
			
				<linearGradient id="Vector-53_1_" gradientUnits="userSpaceOnUse" x1="-833.4404" y1="1227.3464" x2="-827.2834" y2="1227.3464" gradientTransform="matrix(6.5805 0 0 -5.5437 5589.4053 6900.7915)">
				<stop  offset="0" style="stop-color:#584D95"/>
				<stop  offset="1" style="stop-color:#312B52"/>
			</linearGradient>
			<path id="Vector-53" class="st44" d="M144.7,108.3c-2.7-8.2-6.1-16.2-10.2-23.8c-2.1-3.1-5.6-4.9-9.4-4.7
				c-3.7-0.2-7.3,1.6-9.4,4.7c-4.2,7.6-7.6,15.6-10.2,23.8c-0.3,0.7-0.4,1.4-0.7,2h6.6l3.6,3.5h19.9l3.6-3.5h6.6
				C145.2,109.6,145.1,108.9,144.7,108.3z"/>
			<path id="Vector-54" class="st45" d="M121.2,113.9H135l3.6-3.5h6.6c-0.3-0.7-0.4-1.4-0.7-2c-2.7-8.2-6.1-16.2-10.2-23.8
				C135.1,95.9,130.2,106.9,121.2,113.9z"/>
			
				<linearGradient id="Vector-55_1_" gradientUnits="userSpaceOnUse" x1="-831.9307" y1="1193.5962" x2="-827.2885" y2="1185.2867" gradientTransform="matrix(6.483 0 0 -3.2599 5504.2197 4020.1963)">
				<stop  offset="0" style="stop-color:#584D95"/>
				<stop  offset="1" style="stop-color:#312B52"/>
			</linearGradient>
			<path id="Vector-55" class="st46" d="M140.7,134.5c-4.5-3.9-9.8-6.6-15.6-8c-5.7,1.5-11.1,4.2-15.6,8c-2.5,2.1-4.3,4.1-4.3,5.8
				v5.2c0,1,1.3,1.1,2.3,0.6c1.5-0.9,2.8-1.9,4.2-3c0.4-0.7,0.5-1.5,0.4-2.3c0-1.8,0.3-2.1,0.9-2.5c1-0.8,2.1-1.5,3.2-2.1
				c0.6-0.4,1,0,1,0.6v2c0,0.7,0.5,1.4,1.3,1.4h13.3c0.7,0,1.3-0.7,1.3-1.4v-2c0-0.7,0.3-1,1-0.6c1.1,0.6,2.2,1.3,3.2,2.1
				c0.4,0.4,0.9,0.7,0.9,2.5c0,0.8,0.1,1.5,0.4,2.3c1.3,1.1,2.7,2.1,4.2,3c1,0.7,2.3,0.4,2.3-0.6v-5.2
				C145,138.6,143.3,136.6,140.7,134.5z"/>
			<path id="Vector-56" class="st47" d="M140.7,134.5c-4.5-3.9-9.8-6.6-15.6-8c-5.7,1.5-11.1,4.2-15.6,8c-2.5,2.1-4.3,4.1-4.3,5.8
				v1.3c0-1.7,1.9-3.7,4.3-5.8c4.5-3.9,9.8-6.6,15.6-8c5.7,1.5,11.1,4.2,15.6,8c2.5,2.1,4.3,4.1,4.3,5.8v-1.3
				C145,138.6,143.3,136.6,140.7,134.5z"/>
			<g id="Group-20">
				
					<linearGradient id="Vector-57_1_" gradientUnits="userSpaceOnUse" x1="-595.2468" y1="1010.3364" x2="-595.2468" y2="1003.002" gradientTransform="matrix(1.01 0 0 -0.989 721.9156 1152.7422)">
					<stop  offset="0" style="stop-color:#584D95"/>
					<stop  offset="1" style="stop-color:#312B52"/>
				</linearGradient>
				<path id="Vector-57" class="st48" d="M123.8,158c0,0.9-0.7,1.6-1.6,1.6h-3c-0.9,0-1.6-0.7-1.6-1.6v-3c0-0.9,0.7-1.6,1.6-1.6h3
					c0.9,0,1.6,0.7,1.6,1.6V158z"/>
				
					<linearGradient id="Vector-58_1_" gradientUnits="userSpaceOnUse" x1="-587.726" y1="1010.3364" x2="-587.726" y2="1003.002" gradientTransform="matrix(1.01 0 0 -0.989 723.3956 1152.7422)">
					<stop  offset="0" style="stop-color:#584D95"/>
					<stop  offset="1" style="stop-color:#312B52"/>
				</linearGradient>
				<path id="Vector-58" class="st49" d="M132.9,158c0,0.9-0.7,1.6-1.6,1.6h-3c-0.9,0-1.6-0.7-1.6-1.6v-3c0-0.9,0.7-1.6,1.6-1.6h3
					c0.9,0,1.6,0.7,1.6,1.6V158z"/>
			</g>
			<g id="Group-21">
				
					<linearGradient id="Vector-59_1_" gradientUnits="userSpaceOnUse" x1="-826.8521" y1="1190.2814" x2="-826.8275" y2="1195.8127" gradientTransform="matrix(6.5493 0 0 -6.6683 5566.3906 8373.4707)">
					<stop  offset="0" style="stop-color:#584D95"/>
					<stop  offset="1" style="stop-color:#312B52"/>
				</linearGradient>
				<path id="Vector-59" class="st50" d="M171.1,424c0.6,2.6-1,5.2-3.5,5.8c-0.5,0.1-1,0.2-1.5,0.1h-29.8c-2.7,0.2-5-1.9-5.1-4.6
					c0-0.5,0-0.9,0.1-1.4l6.2-29c0.9-3.4,4-5.8,7.5-5.9h12.5c3.5,0.1,6.6,2.5,7.5,5.9L171.1,424z"/>
				
					<linearGradient id="Vector-60_1_" gradientUnits="userSpaceOnUse" x1="-821.3292" y1="1171.0112" x2="-821.3292" y2="1165.541" gradientTransform="matrix(5.874 0 0 -4.851 4976.541 6075.229)">
					<stop  offset="0" style="stop-color:#FFFFFF"/>
					<stop  offset="1" style="stop-color:#BFB6DA"/>
				</linearGradient>
				<path id="Vector-60" class="st51" d="M145,389.1c-3.5,0.1-6.6,2.5-7.5,5.9l-3.5,16.3l36,7.5l-5-23.7c-0.9-3.4-4-5.8-7.5-5.9H145
					V389.1z"/>
				
					<linearGradient id="Vector-61_1_" gradientUnits="userSpaceOnUse" x1="-833.4982" y1="1190.2814" x2="-833.4738" y2="1195.8127" gradientTransform="matrix(6.5493 0 0 -6.6683 5557.9097 8373.4707)">
					<stop  offset="0" style="stop-color:#584D95"/>
					<stop  offset="1" style="stop-color:#312B52"/>
				</linearGradient>
				<path id="Vector-61" class="st52" d="M119.1,424c0.6,2.6-1,5.2-3.5,5.8c-0.5,0.1-1,0.2-1.5,0.1H84.2c-2.7,0.2-5-1.9-5.1-4.6
					c0-0.5,0-0.9,0.1-1.4l6.2-29c0.9-3.4,4-5.8,7.5-5.9h12.5c3.5,0.1,6.6,2.5,7.5,5.9L119.1,424z"/>
				
					<linearGradient id="Vector-62_1_" gradientUnits="userSpaceOnUse" x1="-828.7396" y1="1171.0112" x2="-828.7396" y2="1165.541" gradientTransform="matrix(5.874 0 0 -4.851 4968.0601 6075.229)">
					<stop  offset="0" style="stop-color:#FFFFFF"/>
					<stop  offset="1" style="stop-color:#BFB6DA"/>
				</linearGradient>
				<path id="Vector-62" class="st53" d="M92.8,389.1c-3.5,0.1-6.6,2.5-7.5,5.9L82,411.4l36,7.5l-5-23.7c-0.9-3.4-4-5.8-7.5-5.9
					H92.8V389.1z"/>
				
					<linearGradient id="Vector-63_1_" gradientUnits="userSpaceOnUse" x1="-829.1733" y1="1214.8674" x2="-822.6177" y2="1214.8674" gradientTransform="matrix(5.5317 0 0 -8.92 4668.8726 11214.8545)">
					<stop  offset="0" style="stop-color:#FCFDFE"/>
					<stop  offset="1" style="stop-color:#BFB6DA"/>
				</linearGradient>
				<path id="Vector-63" class="st54" d="M94.1,350.9c-8.1,5.6-12.6,15-12,24.8v29.9H116v-54.7H94.1z"/>
				
					<linearGradient id="Vector-64_1_" gradientUnits="userSpaceOnUse" x1="-813.5393" y1="1214.8674" x2="-821.1926" y2="1214.8674" gradientTransform="matrix(5.5317 0 0 -8.92 4677.3877 11214.8545)">
					<stop  offset="0" style="stop-color:#FFFFFF"/>
					<stop  offset="1" style="stop-color:#BFB6DA"/>
				</linearGradient>
				<path id="Vector-64" class="st55" d="M156.2,350.9c8.1,5.6,12.6,15,12,24.8v29.9h-33.9v-54.7H156.2z"/>
			</g>
			<g id="Group-22">
				<path id="Vector-65" class="st56" d="M94.1,175.9h62.1v1.3H94.1V175.9z"/>
				<path id="Vector-66" class="st56" d="M124.5,175.9h1.3v165.4h-1.3V175.9z"/>
				<path id="Vector-67" class="st56" d="M94.1,230.6h62.1v1.3H94.1V230.6z"/>
				<path id="Vector-68" class="st56" d="M94.1,285.3h62.1v1.3H94.1V285.3z"/>
				<path id="Vector-69" class="st56" d="M94.1,340h62.1v1.3H94.1V340z"/>
			</g>
			<path id="Vector-70" class="st42" d="M107.5,126.5h-0.7c-1.9-0.4-3.2-2.2-2.9-4.1c1-5.2,2.5-10.3,4.3-15.2
				c0.7-1.9,2.8-2.8,4.6-2.1c1.8,0.6,2.8,2.6,2.2,4.4c0,0,0,0.1,0,0.1c-1.8,4.6-3.1,9.4-4,14.2C110.6,125.4,109.2,126.5,107.5,126.5
				z M118.6,101.4l0.3-0.4c0.9-1.7,0.2-3.9-1.5-4.8c0,0,0,0-0.1,0c-1.8-0.9-4-0.2-4.9,1.6l-0.3,0.6c-0.8,1.8-0.1,3.9,1.6,4.8
				c0.5,0.3,1,0.4,1.6,0.4C116.7,103.4,118,102.6,118.6,101.4z"/>
			<path id="Vector-71" class="st14" d="M151.2,298.6c0,2.2-1.8,4-4,3.9c0,0,0,0,0,0c-2.2,0-4-1.7-4-3.9c0,0,0,0,0,0V275
				c0-2.2,1.8-4,4-3.9c0,0,0,0,0,0c2.2,0,4,1.7,4,3.9c0,0,0,0,0,0V298.6z M151.2,260.5c0-2.2-1.8-4-4-3.9c0,0,0,0,0,0
				c-2.2,0-4,1.7-4,3.9c0,0,0,0,0,0v3.5c0,2.2,1.8,4,4,3.9c0,0,0,0,0,0c2.2,0,4-1.7,4-3.9c0,0,0,0,0,0V260.5z"/>
			<path id="Vector-72" class="st14" d="M28.4,374.1c-0.7,0-1.5-0.1-2.2-0.4c-2.5-1.2-3.6-4.1-2.5-6.6c6.5-10.7,14.5-20.3,23.9-28.5
				l3.3-3.2c1.9-1.9,5.1-2,7.1-0.1c1.9,1.8,2,4.9,0.2,6.8c0,0-0.1,0.1-0.1,0.1l-3.3,3.2c-8.5,7.6-15.9,16.2-22,25.8
				C32.1,373,30.4,374.2,28.4,374.1z M68.8,331.2c0.6-0.7,1.2-1.3,1.7-2c1.8-2,1.7-5-0.3-6.8c0,0-0.1-0.1-0.1-0.1
				c-2.1-1.8-5.2-1.6-7.1,0.4c-0.6,0.6-1.2,1.3-1.7,1.8c-1.8,1.9-1.7,4.9,0.2,6.7c0.1,0.1,0.2,0.2,0.3,0.2c0.9,0.8,2.1,1.3,3.3,1.3
				C66.4,332.8,67.8,332.2,68.8,331.2z"/>
			<path id="Vector-73" class="st14" d="M211.4,364.4c-6.5-9.3-14.2-17.7-22.9-25l-3.5-3.3c-1.9-1.8-2-4.9-0.2-6.8
				c0,0,0.1-0.1,0.1-0.1c1.9-1.9,5.1-2,7.1-0.1l3.3,3.1c9.6,7.9,18.1,17.2,24.9,27.6c1.2,2.4,0.3,5.4-2.1,6.6c0,0,0,0,0,0
				c-0.7,0.3-1.4,0.5-2.2,0.6C214,367.1,212.3,366.1,211.4,364.4z M178,327.2c2.8-0.1,4.9-2.4,4.8-5.2c0-1.2-0.5-2.4-1.4-3.3
				c-0.6-0.6-1.2-1.2-1.7-1.8c-1.9-2-5-2.1-7-0.2c0,0,0,0-0.1,0.1c-1.9,1.7-2.1,4.7-0.4,6.6c0.1,0.1,0.2,0.2,0.3,0.3
				c0.6,0.6,1.2,1.3,1.9,1.8C175.2,326.7,176.6,327.3,178,327.2z"/>
		</g>
	</g>
</g>
</svg>
