<?xml version="1.0" encoding="utf-8"?>
<!-- Generator: Adobe Illustrator 25.0.0, SVG Export Plug-In . SVG Version: 6.00 Build 0)  -->
<svg version="1.1" id="Layer_1" xmlns="http://www.w3.org/2000/svg" xmlns:xlink="http://www.w3.org/1999/xlink" x="0px" y="0px"
	 viewBox="0 0 13.8 41.5" style="enable-background:new 0 0 13.8 41.5;" xml:space="preserve">
<style type="text/css">
	.st0{fill:url(#Vector-5_1_);}
	.st1{fill:url(#Vector-6_1_);}
	.st2{fill:url(#Vector-7_1_);}
	.st3{fill:url(#Vector-8_1_);}
	.st4{fill:url(#Vector-9_1_);}
	.st5{fill:url(#Vector-10_1_);}
	.st6{fill:url(#Vector-11_1_);}
	.st7{fill:url(#Vector-12_1_);}
	.st8{fill:url(#Vector-13_1_);}
	.st9{fill:#94A4A4;}
	.st10{fill:url(#Vector-15_1_);}
	.st11{fill:url(#Vector-16_1_);}
	.st12{fill:url(#Vector-17_1_);}
	.st13{fill:url(#Vector-18_1_);}
	.st14{fill:url(#Vector-19_1_);}
	.st15{fill:url(#Vector-20_1_);}
	.st16{fill:url(#Vector-21_1_);}
	.st17{fill:url(#Vector-22_1_);}
	.st18{fill:url(#Vector-23_1_);}
	.st19{fill:url(#Vector-24_1_);}
	.st20{fill:url(#Vector-25_1_);}
	.st21{fill:url(#Vector-26_1_);}
	.st22{fill:url(#Vector-27_1_);}
	.st23{fill:url(#Vector-28_1_);}
	.st24{fill:url(#Vector-29_1_);}
	.st25{fill:url(#Vector-30_1_);}
	.st26{fill:url(#Vector-31_1_);}
	.st27{fill:url(#Vector-32_1_);}
	.st28{fill:url(#Vector-33_1_);}
	.st29{fill:url(#Vector-34_1_);}
	.st30{fill:url(#Vector-35_1_);}
	.st31{fill:url(#Vector-36_1_);}
	.st32{fill:url(#Vector-37_1_);}
	.st33{fill:url(#Vector-38_1_);}
	.st34{fill:url(#Vector-39_1_);}
	.st35{fill:url(#Vector-40_1_);}
	.st36{fill:url(#Vector-41_1_);}
	.st37{fill:url(#Vector-42_1_);}
	.st38{fill:url(#Vector-43_1_);}
	.st39{fill:url(#Vector-44_1_);}
	.st40{fill:url(#Vector-45_1_);}
	.st41{fill:url(#Vector-46_1_);}
	.st42{fill:url(#Vector-47_1_);}
</style>
<g id="Frame" transform="translate(-14.841 -0.786)">
	<g id="Group-6">
		<g id="Group-7">
			
				<linearGradient id="Vector-5_1_" gradientUnits="userSpaceOnUse" x1="-974.8685" y1="1128.8386" x2="-974.1884" y2="1128.8386" gradientTransform="matrix(8.1 0 0 -31.555 7916.0884 35646.4961)">
				<stop  offset="0" style="stop-color:#F5F9FA"/>
				<stop  offset="1" style="stop-color:#7A9CB9"/>
			</linearGradient>
			<path id="Vector-5" class="st0" d="M23.5,17.7H20l-0.4,15.9c0,0.3,0.9,0.7,2.1,0.7s2.1-0.3,2.1-0.7L23.5,17.7z"/>
			
				<linearGradient id="Vector-6_1_" gradientUnits="userSpaceOnUse" x1="-1002.919" y1="1122.5723" x2="-1002.3943" y2="1122.5723" gradientTransform="matrix(26.4144 0 0 -16.4125 26506.3223 18462.209)">
				<stop  offset="0" style="stop-color:#0D4250"/>
				<stop  offset="0.473" style="stop-color:#0F3144"/>
				<stop  offset="0.491" style="stop-color:#0F3144"/>
				<stop  offset="1" style="stop-color:#14273D"/>
			</linearGradient>
			<path id="Vector-6" class="st1" d="M22.9,42.2l5.5-2.4c0.1-0.1,0.2-0.2,0.2-0.4v-5.7l-13.8,1.1v5.6c0,0.2,0.1,0.4,0.3,0.4
				l7.3,1.5C22.6,42.3,22.8,42.3,22.9,42.2z"/>
			
				<linearGradient id="Vector-7_1_" gradientUnits="userSpaceOnUse" x1="-805.308" y1="1088.3105" x2="-805.0189" y2="1088.0363" gradientTransform="matrix(1.542 0 0 -4.648 1267.3837 5097.0732)">
				<stop  offset="0" style="stop-color:#0F3144"/>
				<stop  offset="1" style="stop-color:#14222C"/>
			</linearGradient>
			<path id="Vector-7" class="st2" d="M26.4,38.6l-0.8,0.3V41l0.8-0.3V38.6z"/>
			<g id="Group-8">
				
					<linearGradient id="Vector-8_1_" gradientUnits="userSpaceOnUse" x1="-616.1661" y1="1049.7421" x2="-615.6199" y2="1049.0682" gradientTransform="matrix(0.835 0 0 -2.619 529.9706 2784.9045)">
					<stop  offset="0" style="stop-color:#0D4250"/>
					<stop  offset="0.473" style="stop-color:#0F3144"/>
					<stop  offset="0.491" style="stop-color:#0F3144"/>
					<stop  offset="1" style="stop-color:#14273D"/>
				</linearGradient>
				<path id="Vector-8" class="st3" d="M15.4,35.7l0.4,0.1v1.3L15.4,37V35.7z"/>
				
					<linearGradient id="Vector-9_1_" gradientUnits="userSpaceOnUse" x1="-646.0236" y1="1051.9259" x2="-645.5115" y2="1051.2673" gradientTransform="matrix(0.9 0 0 -2.684 597.9104 2859.1929)">
					<stop  offset="0" style="stop-color:#0D4250"/>
					<stop  offset="0.473" style="stop-color:#0F3144"/>
					<stop  offset="0.491" style="stop-color:#0F3144"/>
					<stop  offset="1" style="stop-color:#14273D"/>
				</linearGradient>
				<path id="Vector-9" class="st4" d="M16.5,35.9l0.5,0.1v1.3l-0.5-0.1V35.9z"/>
				
					<linearGradient id="Vector-10_1_" gradientUnits="userSpaceOnUse" x1="-647.0452" y1="1051.9951" x2="-646.5284" y2="1051.3348" gradientTransform="matrix(0.9 0 0 -2.684 599.8384 2859.5859)">
					<stop  offset="0" style="stop-color:#0D4250"/>
					<stop  offset="0.473" style="stop-color:#0F3144"/>
					<stop  offset="0.491" style="stop-color:#0F3144"/>
					<stop  offset="1" style="stop-color:#14273D"/>
				</linearGradient>
				<path id="Vector-10" class="st5" d="M17.5,36.1l0.5,0.1v1.3l-0.5-0.1V36.1z"/>
				
					<linearGradient id="Vector-11_1_" gradientUnits="userSpaceOnUse" x1="-648.0668" y1="1052.0642" x2="-647.5448" y2="1051.4019" gradientTransform="matrix(0.9 0 0 -2.684 601.7664 2859.979)">
					<stop  offset="0" style="stop-color:#0D4250"/>
					<stop  offset="0.473" style="stop-color:#0F3144"/>
					<stop  offset="0.491" style="stop-color:#0F3144"/>
					<stop  offset="1" style="stop-color:#14273D"/>
				</linearGradient>
				<path id="Vector-11" class="st6" d="M18.5,36.3l0.5,0.1v1.3l-0.5-0.1V36.3z"/>
			</g>
			
				<linearGradient id="Vector-12_1_" gradientUnits="userSpaceOnUse" x1="-1002.9197" y1="1108.056" x2="-1002.3501" y2="1107.9513" gradientTransform="matrix(26.413 0 0 -8.1002 26504.9512 9009.2617)">
				<stop  offset="0" style="stop-color:#015F73"/>
				<stop  offset="0.473" style="stop-color:#175261"/>
				<stop  offset="0.792" style="stop-color:#123B4C"/>
				<stop  offset="1" style="stop-color:#0F3144"/>
			</linearGradient>
			<path id="Vector-12" class="st7" d="M22.9,36.2l5.8-2.6l-7.8-1.6l-6,2.7l7.6,1.5C22.6,36.3,22.8,36.3,22.9,36.2z"/>
			
				<linearGradient id="Vector-13_1_" gradientUnits="userSpaceOnUse" x1="-995.5803" y1="1086.817" x2="-995.3048" y2="1087.0098" gradientTransform="matrix(16.712 0 0 -4.648 16653.0137 5086.9253)">
				<stop  offset="0" style="stop-color:#015F73"/>
				<stop  offset="0.473" style="stop-color:#175261"/>
				<stop  offset="0.792" style="stop-color:#123B4C"/>
				<stop  offset="1" style="stop-color:#0F3144"/>
			</linearGradient>
			<path id="Vector-13" class="st8" d="M19.7,33.3l-2.6,0.5l-2.2,1l4.7,1l4-1L19.7,33.3z"/>
			<path id="Vector-14" class="st9" d="M24.3,33.7c-0.8-0.4-1.6-0.6-2.5-0.5c-0.9-0.1-1.7,0.1-2.5,0.5h-0.2V34
				c0,0.4,1.2,0.8,2.7,0.8s2.7-0.4,2.7-0.8v-0.3H24.3z"/>
			
				<linearGradient id="Vector-15_1_" gradientUnits="userSpaceOnUse" x1="-983.4089" y1="1062.7274" x2="-983.045" y2="1063.4484" gradientTransform="matrix(10.282 0 0 -3.142 10130.96 3374.1753)">
				<stop  offset="0" style="stop-color:#F5F9FA"/>
				<stop  offset="1" style="stop-color:#7A9CB9"/>
			</linearGradient>
			<path id="Vector-15" class="st10" d="M24.5,33.7c0,0.5-1.2,0.8-2.7,0.8s-2.7-0.4-2.7-0.8c0-0.5,1.2-0.8,2.7-0.8
				S24.5,33.3,24.5,33.7z"/>
			
				<linearGradient id="Vector-16_1_" gradientUnits="userSpaceOnUse" x1="-974.8685" y1="1111.766" x2="-974.0811" y2="1111.766" gradientTransform="matrix(8.1 0 0 -9.427 7916.0884 10512.4043)">
				<stop  offset="0" style="stop-color:#F05972"/>
				<stop  offset="1" style="stop-color:#CA3242"/>
			</linearGradient>
			<path id="Vector-16" class="st11" d="M21.8,34.3c1.2,0,2.1-0.3,2.1-0.7l-0.1-4.3c-0.6,0.3-1.3,0.4-2,0.4c-0.7,0-1.4-0.1-2-0.4
				l-0.1,4.3C19.7,34,20.6,34.3,21.8,34.3z"/>
			
				<linearGradient id="Vector-17_1_" gradientUnits="userSpaceOnUse" x1="-969.8112" y1="1115.491" x2="-968.8885" y2="1115.491" gradientTransform="matrix(7.2 0 0 -11.5911 7002.5288 12950.5244)">
				<stop  offset="0" style="stop-color:#F05972"/>
				<stop  offset="1" style="stop-color:#CA3242"/>
			</linearGradient>
			<path id="Vector-17" class="st12" d="M23.7,23.5c-0.6,0.2-1.2,0.3-1.9,0.3c-0.6,0-1.3-0.1-1.9-0.3l0.1-4.7v-1.1h3.5v1.1
				L23.7,23.5z"/>
			<g id="Group-9">
				
					<linearGradient id="Vector-18_1_" gradientUnits="userSpaceOnUse" x1="-969.8112" y1="893.3944" x2="-969.286" y2="893.3944" gradientTransform="matrix(7.2 0 0 -0.9844 7002.5288 903.088)">
					<stop  offset="0" style="stop-color:#61618E"/>
					<stop  offset="1" style="stop-color:#4A2D7C"/>
				</linearGradient>
				<path id="Vector-18" class="st13" d="M23.7,23.6c-0.6,0.2-1.2,0.3-1.9,0.3c-0.6,0-1.3-0.1-1.9-0.3v-0.2c0.6,0.2,1.2,0.3,1.9,0.3
					c0.6,0,1.3-0.1,1.9-0.3V23.6z"/>
			</g>
			<g id="Group-10">
				
					<linearGradient id="Vector-19_1_" gradientUnits="userSpaceOnUse" x1="-967.217" y1="871.8065" x2="-966.6955" y2="871.8065" gradientTransform="matrix(6.812 0 0 -0.9219 6608.6821 822.1813)">
					<stop  offset="0" style="stop-color:#61618E"/>
					<stop  offset="1" style="stop-color:#4A2D7C"/>
				</linearGradient>
				<path id="Vector-19" class="st14" d="M23.6,18.5c-0.6,0.2-1.2,0.2-1.8,0.2c-0.6,0-1.2-0.1-1.8-0.2v-0.2c0.6,0.2,1.2,0.2,1.8,0.2
					c0.6,0,1.2-0.1,1.8-0.2V18.5z"/>
			</g>
			<g id="Group-11">
				
					<linearGradient id="Vector-20_1_" gradientUnits="userSpaceOnUse" x1="-967.2175" y1="872.1109" x2="-966.6939" y2="872.1109" gradientTransform="matrix(6.812 0 0 -0.9219 6608.6821 822.7704)">
					<stop  offset="0" style="stop-color:#61618E"/>
					<stop  offset="1" style="stop-color:#4A2D7C"/>
				</linearGradient>
				<path id="Vector-20" class="st15" d="M23.6,18.8C23,18.9,22.4,19,21.8,19c-0.6,0-1.2-0.1-1.8-0.2v-0.2c0.6,0.2,1.2,0.2,1.8,0.2
					c0.6,0,1.2-0.1,1.8-0.2V18.8z"/>
			</g>
			<g id="Group-12">
				
					<linearGradient id="Vector-21_1_" gradientUnits="userSpaceOnUse" x1="-972.8329" y1="898.7756" x2="-972.3083" y2="898.7756" gradientTransform="matrix(7.712 0 0 -0.984 7522.2412 913.9424)">
					<stop  offset="0" style="stop-color:#61618E"/>
					<stop  offset="1" style="stop-color:#4A2D7C"/>
				</linearGradient>
				<path id="Vector-21" class="st16" d="M23.8,29.6c-0.7,0.2-1.3,0.3-2,0.3c-0.7,0-1.4-0.1-2-0.3v-0.2c0.7,0.2,1.3,0.3,2,0.3
					c0.7,0,1.4-0.1,2-0.3V29.6z"/>
			</g>
			<g id="Group-13">
				
					<linearGradient id="Vector-22_1_" gradientUnits="userSpaceOnUse" x1="-970.5939" y1="1032.5724" x2="-969.9771" y2="1032.5724" gradientTransform="matrix(7.326 0 0 -2.357 7130.4263 2451.4368)">
					<stop  offset="0" style="stop-color:#F5F9FA"/>
					<stop  offset="1" style="stop-color:#7A9CB9"/>
				</linearGradient>
				<path id="Vector-22" class="st17" d="M19.9,17v0.7c0.1,0.3,0.9,0.5,1.9,0.5c1,0,1.8-0.2,1.9-0.5V17H19.9z"/>
				
					<linearGradient id="Vector-23_1_" gradientUnits="userSpaceOnUse" x1="-970.5472" y1="1025.7869" x2="-970.1844" y2="1026.5052" gradientTransform="matrix(7.326 0 0 -2.226 7130.4263 2301.3965)">
					<stop  offset="0" style="stop-color:#F5F9FA"/>
					<stop  offset="1" style="stop-color:#7A9CB9"/>
				</linearGradient>
				<path id="Vector-23" class="st18" d="M23.7,17c0,0.3-0.9,0.6-1.9,0.6c-1,0-1.9-0.3-1.9-0.6c0-0.3,0.9-0.6,1.9-0.6
					C22.9,16.5,23.7,16.7,23.7,17z"/>
				
					<linearGradient id="Vector-24_1_" gradientUnits="userSpaceOnUse" x1="-963.2807" y1="969.1115" x2="-963.2807" y2="967.6312" gradientTransform="matrix(6.3284 0 0 -1.4637 6117.8345 1435.1239)">
					<stop  offset="0" style="stop-color:#1A88C9"/>
					<stop  offset="1" style="stop-color:#3A449C"/>
				</linearGradient>
				<path id="Vector-24" class="st19" d="M21.8,17.4c-0.5,0-1.1-0.1-1.6-0.3c-0.1,0-0.1-0.1-0.1-0.1c0,0,0-0.1,0.1-0.1
					c0.5-0.2,1-0.3,1.6-0.3c0.5,0,1.1,0.1,1.6,0.3c0.1,0,0.1,0.1,0.1,0.1c0,0,0,0.1-0.1,0.1C22.9,17.4,22.3,17.5,21.8,17.4z"/>
			</g>
		</g>
		<g id="Group-14">
			
				<linearGradient id="Vector-25_1_" gradientUnits="userSpaceOnUse" x1="-996.0423" y1="1128.3445" x2="-995.4333" y2="1127.7926" gradientTransform="matrix(17.0621 0 0 -30.9249 17013.2715 34897.8203)">
				<stop  offset="0" style="stop-color:#F5F9FA"/>
				<stop  offset="1" style="stop-color:#7A9CB9"/>
			</linearGradient>
			<path id="Vector-25" class="st20" d="M26.2,9.4c0-0.5-0.4-1-1-1c-0.2,0-0.3,0.1-0.5,0.1C25,8.3,25.2,8,25.2,7.7
				c0-0.3-0.2-0.7-0.4-0.9c0.3-0.2,0.6-0.5,0.5-0.9c0-0.4-0.2-0.7-0.6-0.9c0.2-0.1,0.4-0.4,0.4-0.7c0-0.4-0.3-0.8-0.7-0.8
				c0,0,0,0,0,0h-0.1c0.1-0.2,0.1-0.3,0.1-0.5c0-0.6-0.5-1.1-1.1-1.1c-0.2,0-0.4,0.1-0.6,0.2c0-0.7-0.5-1.3-1.2-1.3
				c-0.7,0-1.3,0.5-1.3,1.2c0,0,0,0,0,0.1v0.1c-0.8,0-1.5,0.7-1.5,1.6c0,0.4,0.1,0.7,0.4,1c-0.2,0.2-0.4,0.5-0.4,0.8
				c0,0.1,0,0.3,0.1,0.4c-0.1,0-0.2-0.1-0.3-0.1c-0.5,0-1,0.4-1,1c0,0.5,0.4,1,1,1h0.1c-0.2,0.3-0.3,0.6-0.3,1
				c0,0.5,0.2,0.9,0.6,1.2C18.3,10,18,10.4,18,10.8c0,0.2,0.1,0.4,0.2,0.5c-0.1,0.2-0.2,0.4-0.2,0.6c0,0.5,0.4,1,0.9,1c0,0,0,0,0,0
				c0.1,0,0.2,0,0.3-0.1c0,0.1,0.1,0.1,0.1,0.1c-0.1,0.1-0.1,0.2-0.1,0.3c0,0.3,0.2,0.5,0.5,0.6c0,0.1-0.1,0.2-0.1,0.2
				c0,0.2,0.2,0.4,0.4,0.4c0,0,0,0,0,0h0.1c-0.3,0.2-0.5,0.5-0.5,0.9c0,0.5,0.1,1.6,2.2,1.6s2.3-1.1,2.3-1.6c0-0.2,0-0.3-0.1-0.5
				c0.3-0.1,0.4-0.3,0.4-0.5c0-0.1-0.1-0.3-0.1-0.4h0.1c0.4,0,0.7-0.3,0.7-0.7c0,0,0,0,0,0c0-0.2-0.1-0.4-0.2-0.5
				c0.3,0,0.5-0.3,0.5-0.5c0-0.2-0.1-0.3-0.2-0.4c0.4-0.1,0.7-0.6,0.6-1c-0.1-0.3-0.3-0.5-0.6-0.6h0.1C25.8,10.4,26.2,10,26.2,9.4z"
				/>
			
				<linearGradient id="Vector-26_1_" gradientUnits="userSpaceOnUse" x1="-908.5065" y1="1077.3492" x2="-908.0604" y2="1077.4456" gradientTransform="matrix(3.0785 0 0 -4.3429 2816.5908 4684.4434)">
				<stop  offset="0" style="stop-color:#F5F9FA"/>
				<stop  offset="1" style="stop-color:#000000;stop-opacity:0"/>
			</linearGradient>
			<path id="Vector-26" class="st21" d="M21.3,4.2h-0.1c-0.5,0-0.5,2.1,0,2.1h0.1c-0.2,0.1-0.3,0.1-0.5,0.1c-0.6,0-1.1-0.5-1.1-1.2
				c0-0.6,0.5-1.1,1.1-1.1C21,4.1,21.2,4.1,21.3,4.2z"/>
			
				<linearGradient id="Vector-27_1_" gradientUnits="userSpaceOnUse" x1="-947.2319" y1="1080.0765" x2="-947.3377" y2="1079.8409" gradientTransform="matrix(4.8629 0 0 -4.558 4626.7505 4925.3223)">
				<stop  offset="0" style="stop-color:#F5F9FA"/>
				<stop  offset="1" style="stop-color:#000000;stop-opacity:0"/>
			</linearGradient>
			<path id="Vector-27" class="st22" d="M21.2,3.5c0-0.1,0-0.1-0.1-0.2c-0.3-0.5-2.3,0.6-2,1.1c0,0,0.1,0.1,0.1,0.1
				c-0.2-0.1-0.3-0.3-0.4-0.5c-0.3-0.6-0.1-1.4,0.5-1.7c0,0,0,0,0,0C20,2,20.7,2.2,21.1,2.8c0,0,0,0.1,0,0.1
				C21.2,3.1,21.2,3.3,21.2,3.5z"/>
			
				<linearGradient id="Vector-28_1_" gradientUnits="userSpaceOnUse" x1="-915.0965" y1="1056.1881" x2="-914.8839" y2="1055.9672" gradientTransform="matrix(3.2708 0 0 -3.1339 3013.866 3318.707)">
				<stop  offset="0" style="stop-color:#F5F9FA"/>
				<stop  offset="1" style="stop-color:#000000;stop-opacity:0"/>
			</linearGradient>
			<path id="Vector-28" class="st23" d="M22.5,9.4c0,0,0-0.1-0.1-0.1c-0.2-0.3-0.7-0.3-1-0.1c0,0,0,0,0,0c-0.3,0.2-0.4,0.7-0.2,1
				c0,0,0,0.1,0.1,0.1c-0.1-0.1-0.2-0.1-0.3-0.3c-0.3-0.4-0.2-0.9,0.2-1.2C21.5,8.6,22,8.7,22.3,9c0,0,0,0,0,0
				C22.4,9.1,22.5,9.3,22.5,9.4z"/>
			
				<linearGradient id="Vector-29_1_" gradientUnits="userSpaceOnUse" x1="-908.0567" y1="1039.5219" x2="-908.1829" y2="1039.2344" gradientTransform="matrix(3.0451 0 0 -2.5964 2789.8083 2707.8225)">
				<stop  offset="0" style="stop-color:#F5F9FA"/>
				<stop  offset="1" style="stop-color:#000000;stop-opacity:0"/>
			</linearGradient>
			<path id="Vector-29" class="st24" d="M24.9,10.1c0,0,0-0.1,0-0.1c0.1-0.3-1.2-0.8-1.3-0.4c0,0,0,0.1,0,0.1c0-0.1,0-0.3,0-0.4
				c0.1-0.4,0.6-0.6,1-0.6c0.4,0.1,0.6,0.6,0.5,1C25,9.9,25,10,24.9,10.1z"/>
			
				<linearGradient id="Vector-30_1_" gradientUnits="userSpaceOnUse" x1="-908.3235" y1="1039.4019" x2="-908.4497" y2="1039.1075" gradientTransform="matrix(3.0451 0 0 -2.5964 2791.4783 2707.1675)">
				<stop  offset="0" style="stop-color:#F5F9FA"/>
				<stop  offset="1" style="stop-color:#000000;stop-opacity:0"/>
			</linearGradient>
			<path id="Vector-30" class="st25" d="M25.7,9.8c0,0,0-0.1,0-0.1c0.1-0.3-1.2-0.8-1.3-0.4c0,0,0,0.1,0,0.1c0-0.1,0-0.3,0-0.4
				c0.1-0.4,0.6-0.6,1-0.6c0.4,0.1,0.6,0.6,0.5,1C25.9,9.6,25.8,9.7,25.7,9.8z"/>
			
				<linearGradient id="Vector-31_1_" gradientUnits="userSpaceOnUse" x1="-874.6486" y1="998.4847" x2="-874.6219" y2="998.1743" gradientTransform="matrix(2.3225 0 0 -1.84 2054.7783 1843.8588)">
				<stop  offset="0" style="stop-color:#F5F9FA"/>
				<stop  offset="1" style="stop-color:#000000;stop-opacity:0"/>
			</linearGradient>
			<path id="Vector-31" class="st26" d="M24,7.5L24,7.5c0-0.3-1.1-0.2-1.1,0.1c0,0,0,0.1,0,0.1c-0.1-0.1-0.1-0.2-0.1-0.3
				c0-0.3,0.2-0.6,0.5-0.7c0.3,0,0.6,0.2,0.7,0.5c0,0,0,0,0,0C24,7.3,24,7.4,24,7.5z"/>
			
				<linearGradient id="Vector-32_1_" gradientUnits="userSpaceOnUse" x1="-870.626" y1="1022.5209" x2="-870.9161" y2="1022.2732" gradientTransform="matrix(2.266 0 0 -2.2422 1996.5641 2297.4465)">
				<stop  offset="0" style="stop-color:#F5F9FA"/>
				<stop  offset="1" style="stop-color:#000000;stop-opacity:0"/>
			</linearGradient>
			<path id="Vector-32" class="st27" d="M23.2,5.9C23.2,5.9,23.2,5.9,23.2,5.9c0.2-0.2-0.5-1-0.7-0.8l-0.1,0.1
				c0-0.1,0.1-0.2,0.2-0.2c0.2-0.2,0.6-0.2,0.8,0c0,0,0,0,0,0c0.2,0.2,0.2,0.6,0,0.9C23.4,5.9,23.3,5.9,23.2,5.9z"/>
			
				<linearGradient id="Vector-33_1_" gradientUnits="userSpaceOnUse" x1="-893.2373" y1="1037.6597" x2="-892.9467" y2="1037.3276" gradientTransform="matrix(2.6993 0 0 -2.5596 2430.302 2663.5454)">
				<stop  offset="0" style="stop-color:#F5F9FA"/>
				<stop  offset="1" style="stop-color:#000000;stop-opacity:0"/>
			</linearGradient>
			<path id="Vector-33" class="st28" d="M20.5,8.2c0,0,0-0.1,0-0.1c-0.2-0.3-1.2,0.4-1.1,0.7c0,0,0,0.1,0.1,0.1
				c-0.1-0.1-0.2-0.1-0.2-0.2c-0.2-0.3-0.1-0.8,0.2-1c0.3-0.2,0.8-0.1,1,0.2c0,0,0,0,0,0C20.5,7.9,20.5,8.1,20.5,8.2z"/>
			
				<linearGradient id="Vector-34_1_" gradientUnits="userSpaceOnUse" x1="-910.2662" y1="1040.1479" x2="-910.2594" y2="1039.7506" gradientTransform="matrix(3.1571 0 0 -2.6402 2892.0596 2752.075)">
				<stop  offset="0" style="stop-color:#F5F9FA"/>
				<stop  offset="1" style="stop-color:#000000;stop-opacity:0"/>
			</linearGradient>
			<path id="Vector-34" class="st29" d="M18.9,7.3c0,0,0-0.1,0-0.1c0.1-0.3-1.3-0.6-1.4-0.3V7c0-0.1,0-0.3,0-0.4
				c0.1-0.4,0.5-0.7,1-0.7c0.4,0.1,0.7,0.5,0.6,1C19,7,18.9,7.2,18.9,7.3z"/>
			
				<linearGradient id="Vector-35_1_" gradientUnits="userSpaceOnUse" x1="-939.5826" y1="1073.8372" x2="-939.7313" y2="1073.4968" gradientTransform="matrix(4.3411 0 0 -4.0934 4101.7686 4398.6362)">
				<stop  offset="0" style="stop-color:#F5F9FA"/>
				<stop  offset="1" style="stop-color:#000000;stop-opacity:0"/>
			</linearGradient>
			<path id="Vector-35" class="st30" d="M23,5.2L23.1,5c0.3-0.4-1.4-1.5-1.7-1.1c0,0-0.1,0.1-0.1,0.1c0-0.2,0.1-0.4,0.2-0.5
				c0.3-0.5,1-0.7,1.6-0.4c0,0,0,0,0,0c0.5,0.4,0.7,1.1,0.3,1.6C23.2,4.9,23.1,5,23,5.2z"/>
			
				<linearGradient id="Vector-36_1_" gradientUnits="userSpaceOnUse" x1="-888.9067" y1="1037.0317" x2="-888.6082" y2="1036.714" gradientTransform="matrix(2.5771 0 0 -2.4955 2314.0168 2600.5854)">
				<stop  offset="0" style="stop-color:#F5F9FA"/>
				<stop  offset="1" style="stop-color:#000000;stop-opacity:0"/>
			</linearGradient>
			<path id="Vector-36" class="st31" d="M24.6,13.3C24.6,13.3,24.6,13.3,24.6,13.3c-0.2-0.3-1.2,0.3-1.1,0.6c0,0,0,0,0.1,0.1
				c-0.1-0.1-0.2-0.1-0.2-0.2c-0.2-0.3-0.1-0.7,0.2-1c0,0,0,0,0,0c0.3-0.2,0.7-0.1,0.9,0.2c0,0,0,0,0,0
				C24.5,13.2,24.5,13.3,24.6,13.3z"/>
			
				<linearGradient id="Vector-37_1_" gradientUnits="userSpaceOnUse" x1="-889.1037" y1="1028.2346" x2="-889.1576" y2="1027.854" gradientTransform="matrix(2.5953 0 0 -2.3115 2330.3694 2387.3213)">
				<stop  offset="0" style="stop-color:#F5F9FA"/>
				<stop  offset="1" style="stop-color:#000000;stop-opacity:0"/>
			</linearGradient>
			<path id="Vector-37" class="st32" d="M23.3,11.8C23.3,11.7,23.3,11.7,23.3,11.8c0.1-0.3-1-0.8-1.1-0.5c0,0,0,0.1,0,0.1
				c0-0.1,0-0.2,0-0.3c0.1-0.3,0.5-0.5,0.8-0.4c0,0,0,0,0,0c0.4,0.1,0.5,0.5,0.4,0.9c0,0,0,0,0,0C23.4,11.6,23.4,11.7,23.3,11.8z"/>
			
				<linearGradient id="Vector-38_1_" gradientUnits="userSpaceOnUse" x1="-874.317" y1="1044.6887" x2="-873.9594" y2="1044.6075" gradientTransform="matrix(2.3312 0 0 -2.7123 2058.2695 2846.4031)">
				<stop  offset="0" style="stop-color:#F5F9FA"/>
				<stop  offset="1" style="stop-color:#000000;stop-opacity:0"/>
			</linearGradient>
			<path id="Vector-38" class="st33" d="M21.3,12.6C21.3,12.6,21.2,12.6,21.3,12.6c-0.3-0.2-0.8,1-0.6,1.1c0,0,0.1,0,0.1,0
				c-0.1,0-0.2,0-0.3-0.1c-0.3-0.2-0.5-0.6-0.4-0.9c0.2-0.3,0.6-0.5,0.9-0.4C21.1,12.4,21.2,12.5,21.3,12.6z"/>
			
				<linearGradient id="Vector-39_1_" gradientUnits="userSpaceOnUse" x1="-873.5139" y1="1044.0339" x2="-873.1516" y2="1043.9528" gradientTransform="matrix(2.3312 0 0 -2.7046 2054.3496 2835.3855)">
				<stop  offset="0" style="stop-color:#F5F9FA"/>
				<stop  offset="1" style="stop-color:#000000;stop-opacity:0"/>
			</linearGradient>
			<path id="Vector-39" class="st34" d="M19.2,11.4C19.2,11.4,19.2,11.4,19.2,11.4c-0.3-0.2-0.8,1-0.6,1.1c0,0,0.1,0,0.1,0
				c-0.1,0-0.2,0-0.3-0.1c-0.3-0.2-0.5-0.6-0.4-0.9c0.2-0.3,0.6-0.5,0.9-0.4C19,11.3,19.1,11.3,19.2,11.4z"/>
			
				<linearGradient id="Vector-40_1_" gradientUnits="userSpaceOnUse" x1="-892.0729" y1="1012.3722" x2="-892.0054" y2="1011.936" gradientTransform="matrix(2.6604 0 0 -2.0355 2395.3291 2068.7065)">
				<stop  offset="0" style="stop-color:#F5F9FA"/>
				<stop  offset="1" style="stop-color:#000000;stop-opacity:0"/>
			</linearGradient>
			<path id="Vector-40" class="st35" d="M22.8,9.1V9c0-0.3-1.2-0.4-1.2-0.1V9c0-0.1-0.1-0.2-0.1-0.3c0-0.4,0.4-0.7,0.7-0.7
				c0.4,0,0.7,0.4,0.6,0.8C22.9,8.9,22.9,9,22.8,9.1z"/>
			
				<linearGradient id="Vector-41_1_" gradientUnits="userSpaceOnUse" x1="-887.8348" y1="1042.4606" x2="-888.0663" y2="1042.1365" gradientTransform="matrix(2.5714 0 0 -2.6197 2306.3933 2745.6379)">
				<stop  offset="0" style="stop-color:#F5F9FA"/>
				<stop  offset="1" style="stop-color:#000000;stop-opacity:0"/>
			</linearGradient>
			<path id="Vector-41" class="st36" d="M23.1,16.1L23.1,16.1c0.3-0.3-0.6-1.2-0.8-1l-0.1,0.1c0-0.1,0.1-0.2,0.2-0.3
				c0.3-0.3,0.7-0.3,1,0c0,0,0,0,0,0c0.3,0.3,0.3,0.7,0,1C23.3,16,23.2,16.1,23.1,16.1z"/>
			
				<linearGradient id="Vector-42_1_" gradientUnits="userSpaceOnUse" x1="-849.416" y1="1012.4188" x2="-849.1055" y2="1012.1549" gradientTransform="matrix(1.9875 0 0 -2.0243 1707.2666 2059.2791)">
				<stop  offset="0" style="stop-color:#F5F9FA"/>
				<stop  offset="1" style="stop-color:#000000;stop-opacity:0"/>
			</linearGradient>
			<path id="Vector-42" class="st37" d="M20.1,10.2C20.1,10.2,20.1,10.2,20.1,10.2c-0.2-0.2-0.9,0.4-0.8,0.6c0,0,0,0,0.1,0
				c-0.1,0-0.2-0.1-0.2-0.1c-0.2-0.2-0.2-0.6,0.1-0.8c0,0,0,0,0,0c0.2-0.2,0.6-0.2,0.8,0c0,0,0,0,0,0C20,10.1,20.1,10.2,20.1,10.2z"
				/>
			
				<linearGradient id="Vector-43_1_" gradientUnits="userSpaceOnUse" x1="-860.9788" y1="985.8617" x2="-860.8531" y2="985.4313" gradientTransform="matrix(2.1255 0 0 -1.6403 1851.5801 1631.3601)">
				<stop  offset="0" style="stop-color:#F5F9FA"/>
				<stop  offset="1" style="stop-color:#000000;stop-opacity:0"/>
			</linearGradient>
			<path id="Vector-43" class="st38" d="M22.2,15.1L22.2,15.1c0-0.3-1-0.2-1,0v0.1c0-0.1-0.1-0.2-0.1-0.2c0-0.3,0.2-0.6,0.5-0.6
				c0.3,0,0.6,0.2,0.6,0.5C22.3,14.9,22.3,15,22.2,15.1z"/>
			
				<linearGradient id="Vector-44_1_" gradientUnits="userSpaceOnUse" x1="-864.2021" y1="1012.9908" x2="-864.3467" y2="1012.6509" gradientTransform="matrix(2.1703 0 0 -2.0144 1898.2439 2052.8376)">
				<stop  offset="0" style="stop-color:#F5F9FA"/>
				<stop  offset="1" style="stop-color:#000000;stop-opacity:0"/>
			</linearGradient>
			<path id="Vector-44" class="st39" d="M22.6,13.3C22.6,13.3,22.6,13.3,22.6,13.3c0.2-0.3-0.7-0.8-0.8-0.6c0,0,0,0,0,0.1
				c0-0.1,0-0.2,0.1-0.2c0.2-0.3,0.5-0.3,0.7-0.2c0,0,0,0,0,0c0.3,0.2,0.3,0.5,0.2,0.8c0,0,0,0,0,0C22.8,13.2,22.7,13.3,22.6,13.3z"
				/>
			
				<linearGradient id="Vector-45_1_" gradientUnits="userSpaceOnUse" x1="-789.1117" y1="960.1644" x2="-788.8169" y2="959.8455" gradientTransform="matrix(1.4556 0 0 -1.4155 1168.3572 1370.7687)">
				<stop  offset="0" style="stop-color:#F5F9FA"/>
				<stop  offset="1" style="stop-color:#000000;stop-opacity:0"/>
			</linearGradient>
			<path id="Vector-45" class="st40" d="M20.5,12C20.5,12,20.4,12,20.5,12C20.4,12,20.4,12,20.5,12c-0.1-0.2-0.7,0.2-0.6,0.3l0,0
				c-0.1,0-0.1-0.1-0.1-0.1c-0.1-0.2-0.1-0.4,0.1-0.5c0.2-0.1,0.4-0.1,0.5,0.1c0,0,0,0,0,0C20.5,11.9,20.5,11.9,20.5,12z"/>
			
				<linearGradient id="Vector-46_1_" gradientUnits="userSpaceOnUse" x1="-789.2035" y1="962.3549" x2="-788.9087" y2="962.036" gradientTransform="matrix(1.4532 0 0 -1.4155 1167.2954 1377.2498)">
				<stop  offset="0" style="stop-color:#F5F9FA"/>
				<stop  offset="1" style="stop-color:#000000;stop-opacity:0"/>
			</linearGradient>
			<path id="Vector-46" class="st41" d="M21.2,15.4C21.2,15.4,21.2,15.4,21.2,15.4C21.2,15.4,21.2,15.4,21.2,15.4
				c-0.1-0.2-0.7,0.2-0.6,0.3l0,0c-0.1,0-0.1-0.1-0.1-0.1c-0.1-0.2-0.1-0.4,0.1-0.5c0.2-0.1,0.4-0.1,0.5,0.1c0,0,0,0,0,0
				C21.2,15.3,21.2,15.3,21.2,15.4z"/>
			
				<linearGradient id="Vector-47_1_" gradientUnits="userSpaceOnUse" x1="-789.8096" y1="962.8292" x2="-789.5148" y2="962.5167" gradientTransform="matrix(1.453 0 0 -1.4415 1169.0294 1398.7214)">
				<stop  offset="0" style="stop-color:#F5F9FA"/>
				<stop  offset="1" style="stop-color:#000000;stop-opacity:0"/>
			</linearGradient>
			<path id="Vector-47" class="st42" d="M22.2,11.2C22.2,11.2,22.2,11.2,22.2,11.2C22.2,11.2,22.2,11.2,22.2,11.2
				c-0.1-0.2-0.7,0.2-0.6,0.3l0,0c-0.1,0-0.1-0.1-0.1-0.1c-0.1-0.2-0.1-0.4,0.1-0.5c0.2-0.1,0.4-0.1,0.5,0.1c0,0,0,0,0,0.1
				C22.2,11.1,22.2,11.1,22.2,11.2z"/>
		</g>
	</g>
</g>
</svg>
