<?xml version="1.0" encoding="utf-8"?>
<!-- Generator: Adobe Illustrator 25.0.0, SVG Export Plug-In . SVG Version: 6.00 Build 0)  -->
<svg version="1.1" id="Layer_1" xmlns="http://www.w3.org/2000/svg" xmlns:xlink="http://www.w3.org/1999/xlink" x="0px" y="0px"
	 viewBox="0 0 158.4 134.8" style="enable-background:new 0 0 158.4 134.8;" xml:space="preserve">
<style type="text/css">
	.st0{fill:url(#Vector_1_);}
	.st1{fill:#FFFFFF;fill-opacity:0;}
	.st2{opacity:3.800000e-02;fill:#F7F7F7;enable-background:new    ;}
	.st3{opacity:7.700000e-02;fill:#EEEEEE;enable-background:new    ;}
	.st4{opacity:0.115;fill:#E6E6E6;enable-background:new    ;}
	.st5{opacity:0.154;fill:#DDDDDD;enable-background:new    ;}
	.st6{opacity:0.192;fill:#D5D5D5;enable-background:new    ;}
	.st7{opacity:0.231;fill:#CECDCD;enable-background:new    ;}
	.st8{opacity:0.269;fill:#C4C4C4;enable-background:new    ;}
	.st9{opacity:0.308;fill:#BCBCBC;enable-background:new    ;}
	.st10{opacity:0.346;fill:#B4B4B5;enable-background:new    ;}
	.st11{opacity:0.385;fill:#ACACAC;enable-background:new    ;}
	.st12{opacity:0.423;fill:#A3A3A3;enable-background:new    ;}
	.st13{opacity:0.461;fill:#9A9A9A;enable-background:new    ;}
	.st14{opacity:0.5;fill:#929292;enable-background:new    ;}
	.st15{opacity:0.539;fill:#8A8A8A;enable-background:new    ;}
	.st16{opacity:0.577;fill:#818181;enable-background:new    ;}
	.st17{opacity:0.615;fill:#7A7A7A;enable-background:new    ;}
	.st18{opacity:0.654;fill:#707071;enable-background:new    ;}
	.st19{opacity:0.692;fill:#686868;enable-background:new    ;}
	.st20{opacity:0.731;fill:#606161;enable-background:new    ;}
	.st21{opacity:0.769;fill:#575757;enable-background:new    ;}
	.st22{opacity:0.808;fill:#4F4F4F;enable-background:new    ;}
	.st23{opacity:0.846;fill:#474748;enable-background:new    ;}
	.st24{opacity:0.885;fill:#3E3E3E;enable-background:new    ;}
	.st25{opacity:0.923;fill:#363636;enable-background:new    ;}
	.st26{opacity:0.961;fill:#2D2D2D;enable-background:new    ;}
	.st27{fill:#252525;}
	.st28{fill:url(#Vector-29_1_);}
	.st29{fill:url(#Vector-30_1_);}
	.st30{fill:url(#Vector-31_1_);}
	.st31{fill:url(#Vector-32_1_);}
	.st32{fill:url(#Vector-33_1_);}
	.st33{fill:url(#Vector-34_1_);}
	.st34{fill:url(#Vector-35_1_);}
	.st35{fill:url(#Vector-36_1_);}
	.st36{fill:url(#Vector-37_1_);}
	.st37{fill:url(#Vector-38_1_);}
	.st38{fill:url(#Vector-39_1_);}
	.st39{fill:url(#Vector-40_1_);}
	.st40{fill:url(#Vector-41_1_);}
	.st41{fill:url(#Vector-42_1_);}
	.st42{fill:url(#Vector-43_1_);}
	.st43{fill:url(#Vector-44_1_);}
	.st44{fill:url(#Vector-45_1_);}
	.st45{fill:url(#Vector-46_1_);}
	.st46{fill:url(#Vector-47_1_);}
	.st47{fill:url(#Vector-48_1_);}
	.st48{fill:url(#Vector-49_1_);}
	.st49{fill:url(#Vector-50_1_);}
	.st50{opacity:0.5;fill:url(#Vector-51_1_);enable-background:new    ;}
	.st51{fill:url(#Vector-52_1_);}
	.st52{opacity:0.5;fill:url(#Vector-53_1_);enable-background:new    ;}
	.st53{fill:url(#Vector-54_1_);}
	.st54{opacity:0.5;fill:url(#Vector-55_1_);enable-background:new    ;}
	.st55{fill:url(#Vector-56_1_);}
	.st56{fill:url(#Vector-57_1_);}
	.st57{fill:url(#Vector-58_1_);}
	.st58{fill:url(#Vector-59_1_);}
	.st59{fill:url(#Vector-60_1_);}
	.st60{fill:url(#Vector-61_1_);}
	.st61{fill:url(#Vector-62_1_);}
	.st62{fill:url(#Vector-63_1_);}
	.st63{fill:#FFFFFF;}
	.st64{fill:url(#Vector-98_1_);}
	.st65{fill:url(#Vector-99_1_);}
	.st66{fill:url(#Vector-100_1_);}
	.st67{fill:url(#Vector-101_1_);}
	.st68{fill:url(#Vector-102_1_);}
</style>
<g id="Frame" transform="translate(0.005 0.006)">
	<g id="Group">
		
			<linearGradient id="Vector_1_" gradientUnits="userSpaceOnUse" x1="-1853.1842" y1="-155.3884" x2="-1854.7404" y2="-152.3047" gradientTransform="matrix(58.7853 0 0 38.533 109056.2344 6027.2031)">
			<stop  offset="0" style="stop-color:#121212"/>
			<stop  offset="7.600000e-02" style="stop-color:#1C1D1D"/>
			<stop  offset="0.185" style="stop-color:#262626"/>
			<stop  offset="0.336" style="stop-color:#292929"/>
			<stop  offset="1" style="stop-color:#010202"/>
		</linearGradient>
		<path id="Vector" class="st0" d="M149.3,132.5c0,1.2-1,2.3-2.2,2.3h-137c-1.2,0-2.2-1-2.2-2.2v-0.1v-88c0-1.2,1-2.3,2.2-2.3H147
			c1.2,0,2.2,1,2.2,2.2v0.1v88H149.3z"/>
		<g id="Group-2">
			<path id="Vector-2" class="st1" d="M149.9,44.1c0.1,2.8,0.1,5.5-0.1,8.3H8.6c-0.1,0-0.1-6.7-0.1-8.5s0.4-3.2,1.9-3.2h138.7
				C150.5,40.6,149.9,42.2,149.9,44.1z"/>
			<path id="Vector-3" class="st2" d="M149.9,44c0.1,2.7,0.1,5.4-0.3,8H8.7c-0.1,0-0.3-6.5-0.3-8.3s0.4-3.2,1.9-3.2h138.4
				C150.5,40.6,149.9,42.2,149.9,44z"/>
			<path id="Vector-4" class="st3" d="M149.7,44c0,1.7,0.1,7.8-0.4,7.8H8.9c-0.3-2.6-0.4-5.3-0.4-7.9c0-1.7,0.4-3.1,2.1-3.1h138.3
				C150.4,40.7,149.9,42.2,149.7,44z"/>
			<path id="Vector-5" class="st4" d="M149.7,44c0.1,2.5,0,5-0.4,7.5H9c-0.4-2.6-0.5-5.2-0.5-7.8c0-1.7,0.4-3.1,2.1-3.1h138.2
				C150.2,40.7,149.7,42.2,149.7,44z"/>
			<path id="Vector-6" class="st5" d="M149.7,44c0,1.7,0,7.2-0.5,7.2H9.1c-0.4-2.5-0.5-5-0.5-7.5c0-1.7,0.5-3,2.1-3h137.9
				C150.1,40.7,149.7,42.2,149.7,44z"/>
			<path id="Vector-7" class="st6" d="M149.7,43.8c0,1.6-0.1,7-0.6,7H9.2c-0.5-2.3-0.7-4.7-0.6-7.1c0-1.6,0.5-3,2.1-3h137.7
				C150,40.9,149.7,42.2,149.7,43.8z"/>
			<path id="Vector-8" class="st7" d="M149.7,43.8c0,1.6-0.1,6.7-0.8,6.7H9.5C9,48.3,8.7,46,8.7,43.6c0-1.6,0.5-2.8,2.2-2.8h137.5
				C150,40.9,149.7,42.2,149.7,43.8z"/>
			<path id="Vector-9" class="st8" d="M149.6,43.8c0,1.6-0.3,6.5-0.9,6.5H9.6c-0.5,0-0.9-5-0.9-6.6s0.6-2.8,2.2-2.8h137.4
				C149.9,40.9,149.7,42.2,149.6,43.8z"/>
			<path id="Vector-10" class="st9" d="M149.6,43.8c0,1.6-0.3,6.2-0.9,6.2H9.8c-0.5,0-1-4.9-1-6.3c0-1.6,0.6-2.7,2.2-2.7h137.2
				C149.7,41,149.6,42.3,149.6,43.8z"/>
			<path id="Vector-11" class="st10" d="M149.6,43.7c0,1.4-0.3,5.9-1,5.9H9.9c-0.6,0-1-4.7-1-6.1s0.6-2.7,2.2-2.7h137
				C149.6,41,149.6,42.3,149.6,43.7z"/>
			<path id="Vector-12" class="st11" d="M149.6,43.7c0,1.4-0.4,5.7-1.2,5.7H10c-0.6,0-1.2-4.4-1.2-5.8S9.4,41,11.1,41H148
				C149.6,41,149.6,42.3,149.6,43.7z"/>
			<path id="Vector-13" class="st12" d="M149.6,43.7c0,1.4-0.4,5.4-1.3,5.4H10.1c-0.6,0-1.3-4.1-1.3-5.6c-0.1-1.2,0.7-2.3,1.9-2.5
				c0.1,0,0.3,0,0.4,0h136.6C149.5,41,149.6,42.3,149.6,43.7z"/>
			<path id="Vector-14" class="st13" d="M149.5,43.7c0,1.3-0.5,5.2-1.3,5.2H10.3c-0.8,0-1.4-3.9-1.4-5.3c-0.1-1.3,0.8-2.3,2.1-2.4
				c0.1,0,0.2,0,0.3,0h136.5C149.3,41.1,149.6,42.3,149.5,43.7z"/>
			<path id="Vector-15" class="st14" d="M149.5,43.6c0,1.3-0.5,4.9-1.4,4.9H10.5c-0.8,0-1.4-3.8-1.4-5c-0.1-1.2,0.8-2.2,2-2.3
				c0.1,0,0.2,0,0.3,0h136.3C149.2,41.1,149.5,42.3,149.5,43.6z"/>
			<path id="Vector-16" class="st15" d="M149.5,43.6c0,1.3-0.6,4.7-1.6,4.7H10.7c-0.9,0-1.6-3.5-1.6-4.8c-0.1-1.2,0.9-2.3,2.1-2.3
				c0.1,0,0.3,0,0.4,0h136.1C149.1,41.1,149.5,42.3,149.5,43.6z"/>
			<path id="Vector-17" class="st16" d="M149.5,43.6c0,1.3-0.6,4.4-1.7,4.4h-137c-0.9,0-1.7-3.2-1.7-4.5c0-1.2,0.9-2.2,2.2-2.2
				c0.1,0,0.2,0,0.3,0h136C149.1,41.3,149.5,42.3,149.5,43.6z"/>
			<path id="Vector-18" class="st17" d="M149.5,43.6c0,1.2-0.6,4.1-1.8,4.1H10.9c-1,0-1.8-3-1.8-4.3c0-1.2,1.1-2.2,2.3-2.2
				c0.1,0,0.1,0,0.2,0h135.7C149,41.3,149.5,42.3,149.5,43.6z"/>
			<path id="Vector-19" class="st18" d="M149.3,43.5c0,1.2-0.8,3.9-1.8,3.9H11.1c-1,0-1.9-2.8-1.9-4s0.9-2.1,2.5-2.1h135.6
				C148.8,41.3,149.5,42.3,149.3,43.5z"/>
			<path id="Vector-20" class="st19" d="M149.3,43.5c0,1.2-0.8,3.6-1.9,3.6H11.2c-1.2,0-1.9-2.6-1.9-3.7c0-1.2,1-2.1,2.6-2.1h135.3
				c1.2-0.1,2.1,0.8,2.2,2C149.3,43.3,149.3,43.4,149.3,43.5z"/>
			<path id="Vector-21" class="st20" d="M149.3,43.5c0,1.2-0.9,3.4-2.1,3.4H11.4c-1.1-0.1-2-2.4-2-3.4c0-1.2,1-1.9,2.6-1.9h135.2
				c1-0.2,2,0.5,2.2,1.5C149.3,43.1,149.4,43.3,149.3,43.5z"/>
			<path id="Vector-22" class="st21" d="M149.3,43.5c0,1-0.9,3.1-2.2,3.1H11.6c-1.2,0-2.2-2.1-2.2-3.1s1-1.9,2.6-1.9h135
				c1-0.2,2.1,0.4,2.3,1.4C149.3,43.1,149.3,43.3,149.3,43.5z"/>
			<path id="Vector-23" class="st22" d="M149.3,43.5c0,1-1,2.8-2.3,2.8H11.7c-1.3,0-2.3-1.8-2.3-2.8s1-1.8,2.6-1.8h134.8
				C148.4,41.5,149.3,42.3,149.3,43.5z"/>
			<path id="Vector-24" class="st23" d="M149.3,43.3c-0.1,1.3-1,2.4-2.3,2.6H11.8c-1.3-0.2-2.3-1.3-2.5-2.6c0-1,1.2-1.8,2.7-1.8
				h134.7C148.3,41.5,149.3,42.3,149.3,43.3z"/>
			<path id="Vector-25" class="st24" d="M149.2,43.3c-0.1,1.3-1.2,2.3-2.5,2.3H12c-1.3-0.1-2.3-1.1-2.5-2.3c0-0.9,1.2-1.7,2.7-1.7
				h134.5C147.9,41.4,149,42.1,149.2,43.3L149.2,43.3z"/>
			<path id="Vector-26" class="st25" d="M149.2,43.3c-0.2,1.2-1.3,2.1-2.6,2.1H12.1c-1.3,0-2.3-0.8-2.6-2.1c0-0.9,1.2-1.7,2.7-1.7
				h134.3C148.2,41.6,149.2,42.4,149.2,43.3z"/>
			<path id="Vector-27" class="st26" d="M149.2,43.3c0,0.9-1.2,1.8-2.7,1.8H12.4c-1.6,0-2.7-0.9-2.7-1.8c0-0.9,1.2-1.6,2.7-1.6
				h134.1C148,41.6,149.2,42.4,149.2,43.3z"/>
			<path id="Vector-28" class="st27" d="M149.2,43.2c0,0.9-1.3,1.6-2.9,1.6H12.5c-1.6,0-2.9-0.6-2.9-1.6s1.3-1.6,2.9-1.6h133.9
				C147.9,41.6,149.2,42.4,149.2,43.2z"/>
		</g>
		<g id="Group-3">
			
				<linearGradient id="Vector-29_1_" gradientUnits="userSpaceOnUse" x1="-1854.9282" y1="-89.3284" x2="-1854.7023" y2="-85.6026" gradientTransform="matrix(61.8674 0 0 11.6931 114834.7109 1047.8396)">
				<stop  offset="6.700000e-02" style="stop-color:#121212"/>
				<stop  offset="0.411" style="stop-color:#1C1D1D"/>
				<stop  offset="1" style="stop-color:#000000"/>
			</linearGradient>
			<path id="Vector-29" class="st28" d="M153.9,12.8c0.1,0.9-1.8,2.5-3.5,2.7L9.8,31.4c-1.7,0.3-3.8-1-3.9-2.1L5.1,21
				c-0.1-0.9,0.3-1.2,1.6-1.4L151.2,3.3c1.3-0.1,1.7,0,1.8,1L153.9,12.8z"/>
			
				<linearGradient id="Vector-30_1_" gradientUnits="userSpaceOnUse" x1="-1854.7378" y1="-95.2546" x2="-1855.4449" y2="-90.2828" gradientTransform="matrix(62.0389 0 0 12.4413 115156.0547 1184.8527)">
				<stop  offset="0" style="stop-color:#121212"/>
				<stop  offset="7.400000e-02" style="stop-color:#1A1A1A"/>
				<stop  offset="0.252" style="stop-color:#2F2F2F"/>
				<stop  offset="0.373" style="stop-color:#363636"/>
				<stop  offset="0.76" style="stop-color:#2E2E2E"/>
				<stop  offset="1" style="stop-color:#262626"/>
			</linearGradient>
			<path id="Vector-30" class="st29" d="M153.7,11.9c0.1,1-0.1,1.4-1.6,1.6L7.6,29.9c-1.3,0.1-1.7-0.1-1.8-1.2L4.6,18.5
				c-0.1-1,0.9-2.1,2.2-2.2L149.9,0c1.2-0.2,2.3,0.5,2.6,1.7L153.7,11.9z"/>
			<g id="Group-4">
				<g id="SVGID_4_">
					<g id="Group-5">
						
							<linearGradient id="Vector-31_1_" gradientUnits="userSpaceOnUse" x1="-1773.6613" y1="8.2461" x2="-1773.1658" y2="14.0093" gradientTransform="matrix(12.447 0 0 5.8 22205.4258 -42.4212)">
							<stop  offset="0.253" style="stop-color:#E6E6E6"/>
							<stop  offset="0.532" style="stop-color:#E9E9E9"/>
							<stop  offset="0.756" style="stop-color:#F3F3F4"/>
							<stop  offset="0.914" style="stop-color:#FFFFFF"/>
						</linearGradient>
						<path id="Vector-31" class="st30" d="M144.3,14.2L128.1,16L114.4,3.9l16.2-1.8L144.3,14.2z"/>
					</g>
					
						<linearGradient id="Vector-32_1_" gradientUnits="userSpaceOnUse" x1="-1773.6613" y1="8.2461" x2="-1773.1658" y2="14.0093" gradientTransform="matrix(12.447 0 0 5.8 22205.4258 -42.4212)">
						<stop  offset="0.253" style="stop-color:#FFFFFF"/>
						<stop  offset="0.854" style="stop-color:#FFFFFF"/>
						<stop  offset="0.914" style="stop-color:#FFFFFF"/>
					</linearGradient>
					<path id="Vector-32" class="st31" d="M144.3,14.2L128.1,16L114.4,3.9l16.2-1.8L144.3,14.2z"/>
					
						<linearGradient id="Vector-33_1_" gradientUnits="userSpaceOnUse" x1="-1774.8478" y1="8.839" x2="-1774.3522" y2="14.5999" gradientTransform="matrix(12.447 0 0 5.8 22194.7051 -41.1848)">
						<stop  offset="0.253" style="stop-color:#FFFFFF"/>
						<stop  offset="0.854" style="stop-color:#FFFFFF"/>
						<stop  offset="0.914" style="stop-color:#FFFFFF"/>
					</linearGradient>
					<path id="Vector-33" class="st32" d="M118.5,17.2L102.3,19L88.6,6.9l16.2-1.8L118.5,17.2z"/>
					
						<linearGradient id="Vector-34_1_" gradientUnits="userSpaceOnUse" x1="-1776.0336" y1="9.4317" x2="-1775.5381" y2="15.1949" gradientTransform="matrix(12.447 0 0 5.8 22183.9824 -39.949)">
						<stop  offset="0.253" style="stop-color:#FFFFFF"/>
						<stop  offset="0.854" style="stop-color:#FFFFFF"/>
						<stop  offset="0.914" style="stop-color:#FFFFFF"/>
					</linearGradient>
					<path id="Vector-34" class="st33" d="M92.7,20.2L76.5,22L62.8,9.8L79,8L92.7,20.2z"/>
					
						<linearGradient id="Vector-35_1_" gradientUnits="userSpaceOnUse" x1="-1777.2216" y1="10.0247" x2="-1776.726" y2="15.7856" gradientTransform="matrix(12.447 0 0 5.8 22173.2598 -38.7131)">
						<stop  offset="0.253" style="stop-color:#FFFFFF"/>
						<stop  offset="0.854" style="stop-color:#FFFFFF"/>
						<stop  offset="0.914" style="stop-color:#FFFFFF"/>
					</linearGradient>
					<path id="Vector-35" class="st34" d="M66.9,23.2L50.6,25L37,13l16.2-1.9L66.9,23.2z"/>
				</g>
				<g id="SVGID_7_">
					<g id="Group-6">
						
							<linearGradient id="Vector-36_1_" gradientUnits="userSpaceOnUse" x1="-1774.8478" y1="8.839" x2="-1774.3522" y2="14.5999" gradientTransform="matrix(12.447 0 0 5.8 22194.7051 -41.1848)">
							<stop  offset="0.253" style="stop-color:#E6E6E6"/>
							<stop  offset="0.532" style="stop-color:#E9E9E9"/>
							<stop  offset="0.756" style="stop-color:#F3F3F4"/>
							<stop  offset="0.914" style="stop-color:#FFFFFF"/>
						</linearGradient>
						<path id="Vector-36" class="st35" d="M118.5,17.2L102.3,19L88.6,6.9l16.2-1.8L118.5,17.2z"/>
					</g>
				</g>
				<g id="SVGID_10_">
					<g id="Group-7">
						
							<linearGradient id="Vector-37_1_" gradientUnits="userSpaceOnUse" x1="-1776.0336" y1="9.4317" x2="-1775.5381" y2="15.1949" gradientTransform="matrix(12.447 0 0 5.8 22183.9824 -39.949)">
							<stop  offset="0.253" style="stop-color:#E6E6E6"/>
							<stop  offset="0.532" style="stop-color:#E9E9E9"/>
							<stop  offset="0.756" style="stop-color:#F3F3F4"/>
							<stop  offset="0.914" style="stop-color:#FFFFFF"/>
						</linearGradient>
						<path id="Vector-37" class="st36" d="M92.7,20.2L76.5,22L62.8,9.8L79,8L92.7,20.2z"/>
					</g>
				</g>
				<g id="SVGID_13_">
					<g id="Group-8">
						
							<linearGradient id="Vector-38_1_" gradientUnits="userSpaceOnUse" x1="-1777.2216" y1="10.0247" x2="-1776.726" y2="15.7856" gradientTransform="matrix(12.447 0 0 5.8 22173.2598 -38.7131)">
							<stop  offset="0.253" style="stop-color:#E6E6E6"/>
							<stop  offset="0.532" style="stop-color:#E9E9E9"/>
							<stop  offset="0.756" style="stop-color:#F3F3F4"/>
							<stop  offset="0.914" style="stop-color:#FFFFFF"/>
						</linearGradient>
						<path id="Vector-38" class="st37" d="M66.9,23.2L50.6,25L37,13l16.2-1.9L66.9,23.2z"/>
					</g>
				</g>
			</g>
		</g>
		<g id="Group-9">
			
				<linearGradient id="Vector-39_1_" gradientUnits="userSpaceOnUse" x1="-1854.8358" y1="24.06" x2="-1854.7444" y2="31.2207" gradientTransform="matrix(61.748 0 0 5.4281 114610.7109 -98.8859)">
				<stop  offset="6.700000e-02" style="stop-color:#121212"/>
				<stop  offset="0.411" style="stop-color:#1C1D1D"/>
				<stop  offset="1" style="stop-color:#000000"/>
			</linearGradient>
			<path id="Vector-39" class="st38" d="M153.4,42.3c0,1-2.1,2.5-3.9,2.5H8.5c-1.7,0-3.2-1.1-3.6-2.7L5,33c0-1,0.4-1.3,1.7-1.3h145
				c1.3,0,1.7,0.3,1.7,1.3V42.3z"/>
			
				<linearGradient id="Vector-40_1_" gradientUnits="userSpaceOnUse" x1="-1854.7567" y1="15.6789" x2="-1855.6274" y2="23.2028" gradientTransform="matrix(61.963 0 0 5.6488 115013.7734 -58.7148)">
				<stop  offset="0" style="stop-color:#121212"/>
				<stop  offset="7.400000e-02" style="stop-color:#1A1A1A"/>
				<stop  offset="0.252" style="stop-color:#2F2F2F"/>
				<stop  offset="0.373" style="stop-color:#363636"/>
				<stop  offset="0.76" style="stop-color:#2E2E2E"/>
				<stop  offset="1" style="stop-color:#262626"/>
			</linearGradient>
			<path id="Vector-40" class="st39" d="M153.6,41.6c-0.2,1.2-1.3,2.1-2.5,1.9H7c-1.2,0.1-2.3-0.8-2.5-1.9V31.3c0-1,0.4-1.3,1.7-1.3
				h145.5c1.3,0,1.7,0.3,1.7,1.3v10.3H153.6z"/>
			<g id="Group-10">
				<g id="SVGID_18_">
					<g id="Group-11">
						
							<linearGradient id="Vector-41_1_" gradientUnits="userSpaceOnUse" x1="-1769.0287" y1="15.9257" x2="-1768.8387" y2="19.8175" gradientTransform="matrix(11.908 0 0 5.643 21195.4863 -59.8454)">
							<stop  offset="0.253" style="stop-color:#E6E6E6"/>
							<stop  offset="0.532" style="stop-color:#E9E9E9"/>
							<stop  offset="0.756" style="stop-color:#F3F3F4"/>
							<stop  offset="0.914" style="stop-color:#FFFFFF"/>
						</linearGradient>
						<path id="Vector-41" class="st40" d="M144.9,30h-16.3l-12.3,13.6h16.3L144.9,30z"/>
					</g>
					
						<linearGradient id="Vector-42_1_" gradientUnits="userSpaceOnUse" x1="-1769.0287" y1="15.9257" x2="-1768.8387" y2="19.8175" gradientTransform="matrix(11.908 0 0 5.643 21195.4863 -59.8454)">
						<stop  offset="0.253" style="stop-color:#FFFFFF"/>
						<stop  offset="0.854" style="stop-color:#FFFFFF"/>
						<stop  offset="0.914" style="stop-color:#FFFFFF"/>
					</linearGradient>
					<path id="Vector-42" class="st41" d="M144.9,30h-16.3l-12.3,13.6h16.3L144.9,30z"/>
					
						<linearGradient id="Vector-43_1_" gradientUnits="userSpaceOnUse" x1="-1769.8203" y1="15.926" x2="-1769.6302" y2="20.1232" gradientTransform="matrix(11.854 0 0 5.643 21083.4473 -59.8454)">
						<stop  offset="0.253" style="stop-color:#FFFFFF"/>
						<stop  offset="0.854" style="stop-color:#FFFFFF"/>
						<stop  offset="0.914" style="stop-color:#FFFFFF"/>
					</linearGradient>
					<path id="Vector-43" class="st42" d="M118.9,30h-16.3L90.4,43.6h16.3L118.9,30z"/>
					
						<linearGradient id="Vector-44_1_" gradientUnits="userSpaceOnUse" x1="-1771.5687" y1="15.9264" x2="-1771.3788" y2="20.4292" gradientTransform="matrix(11.908 0 0 5.643 21173.8789 -59.8454)">
						<stop  offset="0.253" style="stop-color:#FFFFFF"/>
						<stop  offset="0.854" style="stop-color:#FFFFFF"/>
						<stop  offset="0.914" style="stop-color:#FFFFFF"/>
					</linearGradient>
					<path id="Vector-44" class="st43" d="M93,30H76.6L64.3,43.6h16.3L93,30z"/>
					
						<linearGradient id="Vector-45_1_" gradientUnits="userSpaceOnUse" x1="-1772.3781" y1="15.9267" x2="-1772.1855" y2="20.7326" gradientTransform="matrix(11.854 0 0 5.643 21061.8418 -59.8454)">
						<stop  offset="0.253" style="stop-color:#FFFFFF"/>
						<stop  offset="0.854" style="stop-color:#FFFFFF"/>
						<stop  offset="0.914" style="stop-color:#FFFFFF"/>
					</linearGradient>
					<path id="Vector-45" class="st44" d="M66.9,30H50.6L38.4,43.6h16.3L66.9,30z"/>
				</g>
				<g id="SVGID_21_">
					<g id="Group-12">
						
							<linearGradient id="Vector-46_1_" gradientUnits="userSpaceOnUse" x1="-1769.8203" y1="15.926" x2="-1769.6302" y2="20.1232" gradientTransform="matrix(11.854 0 0 5.643 21083.4473 -59.8454)">
							<stop  offset="0.253" style="stop-color:#E6E6E6"/>
							<stop  offset="0.532" style="stop-color:#E9E9E9"/>
							<stop  offset="0.756" style="stop-color:#F3F3F4"/>
							<stop  offset="0.914" style="stop-color:#FFFFFF"/>
						</linearGradient>
						<path id="Vector-46" class="st45" d="M118.9,30h-16.3L90.4,43.6h16.3L118.9,30z"/>
					</g>
				</g>
				<g id="SVGID_24_">
					<g id="Group-13">
						
							<linearGradient id="Vector-47_1_" gradientUnits="userSpaceOnUse" x1="-1771.5687" y1="15.9264" x2="-1771.3788" y2="20.4292" gradientTransform="matrix(11.908 0 0 5.643 21173.8789 -59.8454)">
							<stop  offset="0.253" style="stop-color:#E6E6E6"/>
							<stop  offset="0.532" style="stop-color:#E9E9E9"/>
							<stop  offset="0.756" style="stop-color:#F3F3F4"/>
							<stop  offset="0.914" style="stop-color:#FFFFFF"/>
						</linearGradient>
						<path id="Vector-47" class="st46" d="M93,30H76.6L64.3,43.6h16.3L93,30z"/>
					</g>
				</g>
				<g id="SVGID_27_">
					<g id="Group-14">
						
							<linearGradient id="Vector-48_1_" gradientUnits="userSpaceOnUse" x1="-1772.3781" y1="15.9267" x2="-1772.1855" y2="20.7326" gradientTransform="matrix(11.854 0 0 5.643 21061.8418 -59.8454)">
							<stop  offset="0.253" style="stop-color:#E6E6E6"/>
							<stop  offset="0.532" style="stop-color:#E9E9E9"/>
							<stop  offset="0.756" style="stop-color:#F3F3F4"/>
							<stop  offset="0.914" style="stop-color:#FFFFFF"/>
						</linearGradient>
						<path id="Vector-48" class="st47" d="M66.9,30H50.6L38.4,43.6h16.3L66.9,30z"/>
					</g>
				</g>
			</g>
		</g>
		<g id="Group-15">
			
				<linearGradient id="Vector-49_1_" gradientUnits="userSpaceOnUse" x1="-1767.3353" y1="-69.2193" x2="-1764.634" y2="-72.5891" gradientTransform="matrix(10.9736 0 0 10 19398.1875 740.5823)">
				<stop  offset="3.500000e-02" style="stop-color:#686868"/>
				<stop  offset="0.635" style="stop-color:#8D8D8D"/>
				<stop  offset="1" style="stop-color:#9F9E9E"/>
			</linearGradient>
			<path id="Vector-49" class="st48" d="M32.7,34c3.8,6.2-0.5,7.4-1.8,7.4H10.4c-1.4,0-2.6-1.2-2.6-2.6V19.9c0-1.4,1.2-2.6,2.6-2.6
				h8c1.5,0.1,2.8,0.9,3.6,2.2L32.7,34z"/>
			
				<linearGradient id="Vector-50_1_" gradientUnits="userSpaceOnUse" x1="-1763.9176" y1="-70.6232" x2="-1765.5266" y2="-66.3561" gradientTransform="matrix(10.8133 0 0 9.889 19097.4707 720.002)">
				<stop  offset="3.500000e-02" style="stop-color:#686868"/>
				<stop  offset="0.322" style="stop-color:#494849"/>
				<stop  offset="0.773" style="stop-color:#191919"/>
				<stop  offset="1" style="stop-color:#090909"/>
			</linearGradient>
			<path id="Vector-50" class="st49" d="M32.2,33.8c3.8,6.1-0.5,7.2-1.8,7.2H10.1c-1.4,0-2.5-1.1-2.5-2.5v-0.1V19.8
				c0-1.4,1.1-2.5,2.5-2.6H18c1.5,0.2,2.8,1,3.6,2.2L32.2,33.8z"/>
			<g id="Group-16">
				
					<linearGradient id="Vector-51_1_" gradientUnits="userSpaceOnUse" x1="-496.4095" y1="1139.3423" x2="-493.8694" y2="1139.3423" gradientTransform="matrix(0.8621 0 0 0.8601 437.4504 -941.1204)">
					<stop  offset="3.500000e-02" style="stop-color:#565656"/>
					<stop  offset="0.224" style="stop-color:#444545"/>
					<stop  offset="0.74" style="stop-color:#171717"/>
					<stop  offset="1" style="stop-color:#040504"/>
				</linearGradient>
				<path id="Vector-51" class="st50" d="M9.5,38.8c0-0.6,0.4-1,1-1l0,0c0.6,0,1,0.4,1,1l0,0c0,0.6-0.5,1-1,1S9.5,39.4,9.5,38.8z"/>
				
					<radialGradient id="Vector-52_1_" cx="96.7041" cy="1707.3567" r="1.5033" gradientTransform="matrix(0.6033 0 0 0.6018 -47.6602 -988.6752)" gradientUnits="userSpaceOnUse">
					<stop  offset="3.500000e-02" style="stop-color:#FFFFFF"/>
					<stop  offset="0.253" style="stop-color:#DFDEDE"/>
					<stop  offset="0.586" style="stop-color:#B0B0B1"/>
					<stop  offset="0.753" style="stop-color:#9E9D9E"/>
					<stop  offset="0.827" style="stop-color:#A3A3A3"/>
					<stop  offset="0.911" style="stop-color:#B0B0B1"/>
					<stop  offset="0.997" style="stop-color:#C6C6C5"/>
				</radialGradient>
				<path id="Vector-52" class="st51" d="M9.8,38.8c0-0.5,0.4-0.9,0.9-0.9l0,0c0.5,0,0.9,0.4,0.9,0.9l0,0c0,0.5-0.4,0.9-0.9,0.9l0,0
					C10.2,39.7,9.8,39.3,9.8,38.8L9.8,38.8z"/>
			</g>
			<g id="Group-17">
				
					<linearGradient id="Vector-53_1_" gradientUnits="userSpaceOnUse" x1="-496.4095" y1="1126.0822" x2="-493.8694" y2="1126.0822" gradientTransform="matrix(0.8621 0 0 0.8601 437.4504 -949.1089)">
					<stop  offset="3.500000e-02" style="stop-color:#565656"/>
					<stop  offset="0.224" style="stop-color:#444545"/>
					<stop  offset="0.74" style="stop-color:#171717"/>
					<stop  offset="1" style="stop-color:#040504"/>
				</linearGradient>
				<path id="Vector-53" class="st52" d="M9.5,19.4c0-0.6,0.4-1,1-1l0,0c0.6,0,1,0.4,1,1l0,0c0,0.6-0.5,1-1,1
					C10,20.5,9.5,20,9.5,19.4L9.5,19.4z"/>
				
					<radialGradient id="Vector-54_1_" cx="94.127" cy="1686.3312" r="1.5015" gradientTransform="matrix(0.6041 0 0 0.6025 -46.2038 -996.5463)" gradientUnits="userSpaceOnUse">
					<stop  offset="3.500000e-02" style="stop-color:#FFFFFF"/>
					<stop  offset="0.253" style="stop-color:#DFDEDE"/>
					<stop  offset="0.586" style="stop-color:#B0B0B1"/>
					<stop  offset="0.753" style="stop-color:#9E9D9E"/>
					<stop  offset="0.827" style="stop-color:#A3A3A3"/>
					<stop  offset="0.911" style="stop-color:#B0B0B1"/>
					<stop  offset="0.997" style="stop-color:#C6C6C5"/>
				</radialGradient>
				<path id="Vector-54" class="st53" d="M9.8,19.4c0-0.5,0.4-0.9,0.9-0.9l0,0c0.5,0,0.9,0.4,0.9,0.9l0,0c0,0.5-0.4,0.9-0.9,0.9l0,0
					C10.2,20.3,9.8,19.9,9.8,19.4L9.8,19.4z"/>
			</g>
			<g id="Group-18">
				
					<linearGradient id="Vector-55_1_" gradientUnits="userSpaceOnUse" x1="-482.7208" y1="1139.3423" x2="-480.188" y2="1139.3423" gradientTransform="matrix(0.8621 0 0 0.8601 445.8565 -941.1204)">
					<stop  offset="3.500000e-02" style="stop-color:#565656"/>
					<stop  offset="0.224" style="stop-color:#444545"/>
					<stop  offset="0.74" style="stop-color:#171717"/>
					<stop  offset="1" style="stop-color:#040504"/>
				</linearGradient>
				<path id="Vector-55" class="st54" d="M29.7,38.8c0-0.6,0.4-1,1-1l0,0c0.6,0,1,0.4,1,1l0,0c0,0.6-0.5,1-1,1S29.8,39.4,29.7,38.8z
					"/>
				
					<radialGradient id="Vector-56_1_" cx="116.2191" cy="1707.3567" r="1.5033" gradientTransform="matrix(0.6033 0 0 0.6018 -39.3452 -988.6752)" gradientUnits="userSpaceOnUse">
					<stop  offset="3.500000e-02" style="stop-color:#FFFFFF"/>
					<stop  offset="0.253" style="stop-color:#DFDEDE"/>
					<stop  offset="0.586" style="stop-color:#B0B0B1"/>
					<stop  offset="0.753" style="stop-color:#9E9D9E"/>
					<stop  offset="0.827" style="stop-color:#A3A3A3"/>
					<stop  offset="0.911" style="stop-color:#B0B0B1"/>
					<stop  offset="0.997" style="stop-color:#C6C6C5"/>
				</radialGradient>
				<path id="Vector-56" class="st55" d="M29.8,38.8c0-0.5,0.4-0.9,0.9-0.9l0,0c0.5,0,0.9,0.4,0.9,0.9l0,0c0,0.5-0.4,0.9-0.9,0.9
					l0,0C30.3,39.7,29.9,39.3,29.8,38.8L29.8,38.8z"/>
			</g>
		</g>
		<g id="Group-19">
			<g id="SVGID_38_">
				<g id="Group-20">
					
						<linearGradient id="Vector-57_1_" gradientUnits="userSpaceOnUse" x1="-1850.5004" y1="1621.2991" x2="-1851.9196" y2="1728.5963" gradientTransform="matrix(50.7563 0 0 0.6453 94003.9922 -961.1336)">
						<stop  offset="0.253" style="stop-color:#E6E6E6"/>
						<stop  offset="0.532" style="stop-color:#E9E9E9"/>
						<stop  offset="0.756" style="stop-color:#F3F3F4"/>
						<stop  offset="0.914" style="stop-color:#FFFFFF"/>
					</linearGradient>
					<path id="Vector-57" class="st56" d="M139.6,85.9c0-0.4-0.4-0.7-0.8-0.8H18.3c-0.4,0-0.7,0.4-0.8,0.8c0,0.4,0.4,0.7,0.8,0.8
						h120.5C139.3,86.6,139.6,86.3,139.6,85.9L139.6,85.9z"/>
				</g>
				
					<linearGradient id="Vector-58_1_" gradientUnits="userSpaceOnUse" x1="-1850.5004" y1="1621.2991" x2="-1851.9196" y2="1728.5963" gradientTransform="matrix(50.7563 0 0 0.6453 94003.9922 -961.1336)">
					<stop  offset="0.253" style="stop-color:#FFFFFF"/>
					<stop  offset="0.854" style="stop-color:#FFFFFF"/>
					<stop  offset="0.914" style="stop-color:#FFFFFF"/>
				</linearGradient>
				<path id="Vector-58" class="st57" d="M139.6,85.9c0-0.4-0.4-0.7-0.8-0.8H18.3c-0.4,0-0.7,0.4-0.8,0.8c0,0.4,0.4,0.7,0.8,0.8
					h120.5C139.3,86.6,139.6,86.3,139.6,85.9L139.6,85.9z"/>
				
					<linearGradient id="Vector-59_1_" gradientUnits="userSpaceOnUse" x1="-1850.5043" y1="1598.1292" x2="-1851.9259" y2="1740.1473" gradientTransform="matrix(50.7563 0 0 0.6453 94003.9922 -971.7747)">
					<stop  offset="0.253" style="stop-color:#FFFFFF"/>
					<stop  offset="0.854" style="stop-color:#FFFFFF"/>
					<stop  offset="0.914" style="stop-color:#FFFFFF"/>
				</linearGradient>
				<path id="Vector-59" class="st58" d="M139.6,60.3c0-0.4-0.4-0.7-0.8-0.8H18.3c-0.4,0-0.7,0.4-0.8,0.8c0,0.4,0.4,0.7,0.8,0.8
					h120.5C139.3,61.1,139.6,60.7,139.6,60.3L139.6,60.3z"/>
				
					<linearGradient id="Vector-60_1_" gradientUnits="userSpaceOnUse" x1="65.4103" y1="-84.5149" x2="5.6378" y2="-76.9069" gradientTransform="matrix(0.646 0 0 10.803 51.3529 906.9666)">
					<stop  offset="0.253" style="stop-color:#FFFFFF"/>
					<stop  offset="0.854" style="stop-color:#FFFFFF"/>
					<stop  offset="0.914" style="stop-color:#FFFFFF"/>
				</linearGradient>
				<path id="Vector-60" class="st59" d="M56.3,60.4c-0.3,0-0.5,0.1-0.8,0.1v25.7c0,0.1,0.4,0.1,0.8,0.1c0.3,0,0.5-0.1,0.8-0.1V60.5
					C56.8,60.4,56.5,60.4,56.3,60.4z"/>
				
					<linearGradient id="Vector-61_1_" gradientUnits="userSpaceOnUse" x1="93.8089" y1="-85.7896" x2="45.6878" y2="-76.6613" gradientTransform="matrix(0.646 0 0 10.8038 70.05 907.0961)">
					<stop  offset="0.253" style="stop-color:#FFFFFF"/>
					<stop  offset="0.854" style="stop-color:#FFFFFF"/>
					<stop  offset="0.914" style="stop-color:#FFFFFF"/>
				</linearGradient>
				<path id="Vector-61" class="st60" d="M101.3,60.4c-0.3,0-0.5,0.1-0.8,0.1v25.7c0,0.1,0.4,0.1,0.8,0.1c0.3,0,0.5-0.1,0.8-0.1
					V60.5C101.8,60.4,101.5,60.4,101.3,60.4z"/>
				
					<linearGradient id="Vector-62_1_" gradientUnits="userSpaceOnUse" x1="-1850.4977" y1="1633.9354" x2="-1851.9191" y2="1723.3394" gradientTransform="matrix(50.7563 0 0 0.6453 94003.9922 -955.3297)">
					<stop  offset="0.253" style="stop-color:#FFFFFF"/>
					<stop  offset="0.854" style="stop-color:#FFFFFF"/>
					<stop  offset="0.914" style="stop-color:#FFFFFF"/>
				</linearGradient>
				<path id="Vector-62" class="st61" d="M139.6,99.8c0-0.4-0.4-0.7-0.8-0.8H18.3c-0.4,0-0.7,0.4-0.8,0.8c0,0.4,0.4,0.7,0.8,0.8
					h120.5C139.3,100.6,139.6,100.3,139.6,99.8C139.6,99.9,139.6,99.8,139.6,99.8z"/>
				
					<linearGradient id="Vector-63_1_" gradientUnits="userSpaceOnUse" x1="-1850.4919" y1="1646.5702" x2="-1851.911" y2="1718.0808" gradientTransform="matrix(50.7563 0 0 0.6453 94003.9922 -949.5255)">
					<stop  offset="0.253" style="stop-color:#FFFFFF"/>
					<stop  offset="0.854" style="stop-color:#FFFFFF"/>
					<stop  offset="0.914" style="stop-color:#FFFFFF"/>
				</linearGradient>
				<path id="Vector-63" class="st62" d="M139.6,113.8c0-0.4-0.4-0.7-0.8-0.8H18.3c-0.4,0-0.7,0.4-0.8,0.8c0,0.4,0.4,0.7,0.8,0.8
					h120.5C139.3,114.6,139.6,114.2,139.6,113.8L139.6,113.8z"/>
				<g id="Group-21">
					<path id="Vector-64" class="st63" d="M27.9,67c0.3,0.3,0.7,0.5,1.2,0.5s0.8-0.3,0.8-0.5c0-0.4-0.3-0.5-0.6-0.6l-0.6-0.3
						c-0.5-0.2-0.9-0.6-0.9-1.2c0.1-0.8,0.8-1.3,1.6-1.3c0.5,0,1,0.2,1.4,0.5l-0.5,0.5c-0.2-0.2-0.6-0.4-0.9-0.4
						c-0.3,0-0.6,0.2-0.6,0.5c0,0.4,0.4,0.5,0.6,0.6l0.6,0.3c0.5,0.3,0.9,0.5,0.9,1.2c0,0.8-0.6,1.3-1.6,1.3c-0.6,0-1.1-0.2-1.6-0.6
						L27.9,67z"/>
					<path id="Vector-65" class="st63" d="M33.2,63.6c0.5,0,0.9,0.2,1.3,0.5l-0.4,0.5c-0.2-0.2-0.5-0.4-0.8-0.4
						c-0.8,0-1.3,0.7-1.3,1.4v0.1c0,1,0.5,1.7,1.2,1.7c0.3,0,0.7-0.1,0.9-0.4l0.4,0.5c-0.4,0.4-0.9,0.7-1.4,0.6
						c-1.1,0-2.1-0.9-2.1-2c0-0.1,0-0.2,0-0.3C31,64.7,32,63.7,33.2,63.6z"/>
					<path id="Vector-66" class="st63" d="M35.3,63.7H38v0.6h-1.9v1.2h1.6v0.6h-1.6v1.4H38v0.6h-2.7V63.7z"/>
					<path id="Vector-67" class="st63" d="M39,63.7h0.8l1.4,2.5l0.5,0.9c0-0.5-0.1-1-0.1-1.6v-1.9h0.8V68h-0.8l-1.4-2.5l-0.5-0.9
						c0,0.5,0.1,1,0.1,1.6v1.9H39V63.7z"/>
					<path id="Vector-68" class="st63" d="M43.5,63.7h2.7v0.6h-1.9v1.2h1.6v0.6h-1.6v1.4h1.9v0.6h-2.7V63.7z"/>
				</g>
				<g id="Group-22">
					<path id="Vector-69" class="st63" d="M18.1,91h1c1-0.1,1.8,0.6,1.9,1.6c0,0.1,0,0.2,0,0.4c0.1,1-0.6,1.8-1.6,1.9
						c-0.1,0-0.2,0-0.4,0h-1V91H18.1z M19.1,94.4c0.7,0,1.3-0.5,1.3-1.2c0-0.1,0-0.1,0-0.2c0.1-0.7-0.4-1.3-1.1-1.4
						c-0.1,0-0.1,0-0.2,0h-0.3v2.9h0.3V94.4z"/>
					<path id="Vector-70" class="st63" d="M23.6,93.9h-1.3l-0.3,1h-0.8l1.3-4h0.9l1.3,4h-0.8L23.6,93.9z M23.5,93.4l-0.1-0.5
						c-0.1-0.4-0.3-0.9-0.4-1.3c-0.1,0.4-0.3,0.9-0.4,1.3l-0.1,0.5H23.5z"/>
					<path id="Vector-71" class="st63" d="M25.7,91.5h-1.2v-0.6h3v0.6h-1.2v3.4h-0.6C25.7,94.9,25.7,91.5,25.7,91.5z"/>
					<path id="Vector-72" class="st63" d="M28.3,91h2.3v0.6h-1.7v1h1.5v0.6H29v1h1.7v0.6h-2.5v-4h0.1V91z"/>
				</g>
				<g id="Group-23">
					<path id="Vector-73" class="st63" d="M18.1,104.9h1c1-0.1,1.8,0.6,1.9,1.6c0,0.1,0,0.2,0,0.4c0.1,1-0.6,1.8-1.6,1.9
						c-0.1,0-0.2,0-0.4,0h-1v-3.9H18.1z M19.1,108.3c0.8,0,1.3-0.4,1.3-1.4c0.1-0.7-0.4-1.3-1.1-1.4c-0.1,0-0.1,0-0.2,0h-0.3v2.8
						H19.1z"/>
					<path id="Vector-74" class="st63" d="M21.8,104.9h0.6v4h-0.6V104.9z"/>
					<path id="Vector-75" class="st63" d="M25.7,108.9l-0.8-1.6h-0.6v1.6h-0.6v-4H25c0.8,0,1.4,0.3,1.4,1.2c0,0.5-0.3,1-0.8,1.2
						l0.9,1.7L25.7,108.9z M24.3,106.8h0.5c0.5,0,0.8-0.3,0.8-0.6c0-0.4-0.3-0.6-0.8-0.6h-0.5V106.8z"/>
					<path id="Vector-76" class="st63" d="M27.1,104.9h2.3v0.6h-1.6v1h1.4v0.6h-1.4v1.2h1.7v0.6H27v-4H27.1z"/>
					<path id="Vector-77" class="st63" d="M32.1,104.9c0.4,0,0.9,0.2,1.2,0.5l-0.4,0.4c-0.2-0.3-0.5-0.4-0.8-0.4
						c-0.6,0-1.2,0.5-1.2,1.4s0.4,1.4,1,1.4c0.3,0,0.6-0.1,0.8-0.4l0.4,0.4c-0.3,0.4-0.8,0.6-1.3,0.5c-1,0-1.8-0.8-1.8-1.9
						c0-0.1,0-0.1,0-0.2C30.2,105.6,31,104.9,32.1,104.9z"/>
					<path id="Vector-78" class="st63" d="M34.6,105.5h-1.2v-0.6h3v0.6h-1.2v3.4h-0.6V105.5z"/>
					<path id="Vector-79" class="st63" d="M36.7,106.9c0-1.3,0.8-2.1,1.7-2.1c1,0,1.7,0.8,1.7,2.1c0,1.3-0.8,2.1-1.7,2.1
						S36.7,108.2,36.7,106.9z M39.6,106.9c0-0.9-0.4-1.4-1-1.4s-1,0.5-1,1.4s0.4,1.4,1,1.4S39.6,107.7,39.6,106.9z"/>
					<path id="Vector-80" class="st63" d="M43.2,108.9l-0.8-1.6h-0.6v1.6h-0.6v-4h1.2c0.8,0,1.4,0.3,1.4,1.2c0,0.5-0.3,1-0.8,1.2
						l0.9,1.7L43.2,108.9z M41.8,106.8h0.5c0.5,0,0.8-0.3,0.8-0.6c0-0.4-0.3-0.6-0.8-0.6h-0.5V106.8z"/>
				</g>
				<g id="Group-24">
					<path id="Vector-81" class="st63" d="M19.7,120c0.4,0,0.9,0.2,1.2,0.5l-0.4,0.4c-0.2-0.3-0.5-0.4-0.8-0.4
						c-0.6,0-1.2,0.5-1.2,1.4s0.4,1.4,1,1.4c0.3,0,0.6-0.1,0.8-0.4l0.4,0.4c-0.3,0.4-0.8,0.6-1.3,0.5c-1,0-1.8-0.8-1.8-1.9
						c0-0.1,0-0.1,0-0.2C17.8,120.8,18.7,120,19.7,120z"/>
					<path id="Vector-82" class="st63" d="M23.4,122.8h-1.3l-0.3,1H21l1.3-4h0.8l1.3,4h-0.8L23.4,122.8z M23.2,122.3l-0.1-0.5
						c-0.1-0.4-0.3-0.9-0.4-1.3c-0.1,0.4-0.3,0.9-0.4,1.3l-0.1,0.5H23.2z"/>
					<path id="Vector-83" class="st63" d="M24.9,120h0.8l0.8,1.9l0.3,0.8l0.3-0.8l0.6-1.9h0.7v4h-0.6v-1.8c0-0.4,0-0.9,0.1-1.3
						l-0.3,0.9l-0.6,1.8h-0.4l-0.6-1.8l-0.3-0.9c0,0.4,0.1,0.9,0.1,1.3v1.8h-0.6v-4H24.9z"/>
					<path id="Vector-84" class="st63" d="M29.5,120h2.3v0.6h-1.7v1h1.4v0.6h-1.4v1.2h1.7v0.6h-2.5v-4.1L29.5,120L29.5,120z"/>
					<path id="Vector-85" class="st63" d="M34.9,124l-0.9-1.6h-0.6v1.6h-0.6v-4h1.3c0.8,0,1.4,0.3,1.4,1.2c0,0.5-0.3,1-0.8,1.2
						l0.9,1.7L34.9,124z M33.3,121.8h0.5c0.5,0,0.8-0.3,0.8-0.6c0-0.4-0.3-0.6-0.8-0.6h-0.5V121.8z"/>
					<path id="Vector-86" class="st63" d="M38.1,122.8h-1.3l-0.3,1h-0.9l1.3-4h0.8l1.3,4h-0.8L38.1,122.8z M37.9,122.3l-0.1-0.5
						c-0.1-0.4-0.3-0.9-0.4-1.3c-0.1,0.4-0.3,0.9-0.4,1.3v0.5H37.9z"/>
					<path id="Vector-87" class="st63" d="M39.6,120h0.8l0.8,1.9l0.3,0.8l0.3-0.8l0.6-1.9h0.8v4h-0.8v-1.8c0-0.4,0-0.9,0.1-1.3
						l-0.4,0.9l-0.6,1.8h-0.4l-0.6-1.8l-0.3-0.9c0,0.4,0.1,0.9,0.1,1.3v1.8h-0.8v-4H39.6z"/>
					<path id="Vector-88" class="st63" d="M45.9,122.8h-1.3l-0.3,1h-0.8l1.3-4h0.8l1.3,4h-0.8L45.9,122.8z M45.8,122.3l-0.1-0.5
						c-0.1-0.4-0.3-0.9-0.4-1.3c-0.1,0.4-0.3,0.9-0.4,1.3l-0.1,0.5H45.8z"/>
					<path id="Vector-89" class="st63" d="M47.5,120h0.8l1.3,2.2L50,123c0-0.4-0.1-0.9-0.1-1.3V120h0.6v4h-0.8l-1.3-2.2L48,121
						c0,0.4,0.1,0.9,0.1,1.3v1.7h-0.6V120z"/>
				</g>
				<g id="Group-25">
					<path id="Vector-90" class="st63" d="M72.9,64.4h-1.3v-0.6H75v0.6h-1.3v3.7h-0.8C72.9,68.1,72.9,64.4,72.9,64.4z"/>
					<path id="Vector-91" class="st63" d="M77.5,67h-1.6l-0.4,1.2h-0.8l1.4-4.4H77l1.4,4.4h-0.8L77.5,67z M77.4,66.3l-0.3-0.5
						c-0.1-0.5-0.3-1-0.4-1.4c-0.1,0.5-0.3,1-0.4,1.4l-0.1,0.5H77.4z"/>
					<path id="Vector-92" class="st63" d="M79.2,63.7H80v2.1l1.6-2.1h0.9l-1.4,1.7l1.6,2.7h-0.9L80.6,66L80,66.8v1.3h-0.8V63.7
						L79.2,63.7z"/>
					<path id="Vector-93" class="st63" d="M83.4,63.7h2.7v0.6h-1.9v1.2h1.6v0.6h-1.6v1.4h1.9v0.6h-2.7V63.7z"/>
				</g>
				<g id="Group-26">
					<path id="Vector-94" class="st63" d="M117.3,68.1l-0.9-1.6h-0.6v1.7H115v-4.4h1.6c0.9,0,1.7,0.4,1.7,1.3c0,0.6-0.4,1.1-0.9,1.3
						l1,1.8L117.3,68.1z M115.6,65.8h0.6c0.6,0,0.9-0.3,0.9-0.8s-0.4-0.6-0.9-0.6h-0.6V65.8z"/>
					<path id="Vector-95" class="st63" d="M118.6,65.9c0-1.4,0.8-2.3,1.9-2.3s1.9,0.9,1.9,2.3s-0.8,2.3-1.9,2.3
						C119.4,68.2,118.5,67.2,118.6,65.9C118.6,66,118.6,66,118.6,65.9z M121.7,65.9c0-1-0.4-1.6-1.2-1.6c-0.6,0-1.2,0.6-1.2,1.6
						s0.4,1.7,1.2,1.7C121.3,67.5,121.7,66.9,121.7,65.9z"/>
					<path id="Vector-96" class="st63" d="M123.5,63.7h0.8v3.8h1.8v0.6h-2.6V63.7z"/>
					<path id="Vector-97" class="st63" d="M126.9,63.7h0.8v3.8h1.8v0.6h-2.6V63.7z"/>
				</g>
			</g>
			<g id="SVGID_41_">
				<g id="Group-27">
					
						<linearGradient id="Vector-98_1_" gradientUnits="userSpaceOnUse" x1="-1850.5043" y1="1598.1292" x2="-1851.9259" y2="1740.1473" gradientTransform="matrix(50.7563 0 0 0.6453 94003.9922 -971.7747)">
						<stop  offset="0.253" style="stop-color:#E6E6E6"/>
						<stop  offset="0.532" style="stop-color:#E9E9E9"/>
						<stop  offset="0.756" style="stop-color:#F3F3F4"/>
						<stop  offset="0.914" style="stop-color:#FFFFFF"/>
					</linearGradient>
					<path id="Vector-98" class="st64" d="M139.6,60.3c0-0.4-0.4-0.7-0.8-0.8H18.3c-0.4,0-0.7,0.4-0.8,0.8c0,0.4,0.4,0.7,0.8,0.8
						h120.5C139.3,61.1,139.6,60.7,139.6,60.3L139.6,60.3z"/>
				</g>
			</g>
			<g id="SVGID_44_">
				<g id="Group-28">
					
						<linearGradient id="Vector-99_1_" gradientUnits="userSpaceOnUse" x1="65.4103" y1="-84.5149" x2="5.6378" y2="-76.9069" gradientTransform="matrix(0.646 0 0 10.803 51.3529 906.9666)">
						<stop  offset="0.253" style="stop-color:#E6E6E6"/>
						<stop  offset="0.532" style="stop-color:#E9E9E9"/>
						<stop  offset="0.756" style="stop-color:#F3F3F4"/>
						<stop  offset="0.914" style="stop-color:#FFFFFF"/>
					</linearGradient>
					<path id="Vector-99" class="st65" d="M56.3,60.4c-0.3,0-0.5,0.1-0.8,0.1v25.7c0,0.1,0.4,0.1,0.8,0.1c0.3,0,0.5-0.1,0.8-0.1
						V60.5C56.8,60.4,56.5,60.4,56.3,60.4z"/>
				</g>
			</g>
			<g id="SVGID_47_">
				<g id="Group-29">
					
						<linearGradient id="Vector-100_1_" gradientUnits="userSpaceOnUse" x1="93.8089" y1="-85.7896" x2="45.6878" y2="-76.6613" gradientTransform="matrix(0.646 0 0 10.8038 70.05 907.0961)">
						<stop  offset="0.253" style="stop-color:#E6E6E6"/>
						<stop  offset="0.532" style="stop-color:#E9E9E9"/>
						<stop  offset="0.756" style="stop-color:#F3F3F4"/>
						<stop  offset="0.914" style="stop-color:#FFFFFF"/>
					</linearGradient>
					<path id="Vector-100" class="st66" d="M101.3,60.4c-0.3,0-0.5,0.1-0.8,0.1v25.7c0,0.1,0.4,0.1,0.8,0.1c0.3,0,0.5-0.1,0.8-0.1
						V60.5C101.8,60.4,101.5,60.4,101.3,60.4z"/>
				</g>
			</g>
			<g id="SVGID_50_">
				<g id="Group-30">
					
						<linearGradient id="Vector-101_1_" gradientUnits="userSpaceOnUse" x1="-1850.4977" y1="1633.9354" x2="-1851.9191" y2="1723.3394" gradientTransform="matrix(50.7563 0 0 0.6453 94003.9922 -955.3297)">
						<stop  offset="0.253" style="stop-color:#E6E6E6"/>
						<stop  offset="0.532" style="stop-color:#E9E9E9"/>
						<stop  offset="0.756" style="stop-color:#F3F3F4"/>
						<stop  offset="0.914" style="stop-color:#FFFFFF"/>
					</linearGradient>
					<path id="Vector-101" class="st67" d="M139.6,99.8c0-0.4-0.4-0.7-0.8-0.8H18.3c-0.4,0-0.7,0.4-0.8,0.8c0,0.4,0.4,0.7,0.8,0.8
						h120.5C139.3,100.6,139.6,100.3,139.6,99.8C139.6,99.9,139.6,99.8,139.6,99.8z"/>
				</g>
			</g>
			<g id="SVGID_53_">
				<g id="Group-31">
					
						<linearGradient id="Vector-102_1_" gradientUnits="userSpaceOnUse" x1="-1850.4919" y1="1646.5702" x2="-1851.911" y2="1718.0808" gradientTransform="matrix(50.7563 0 0 0.6453 94003.9922 -949.5255)">
						<stop  offset="0.253" style="stop-color:#E6E6E6"/>
						<stop  offset="0.532" style="stop-color:#E9E9E9"/>
						<stop  offset="0.756" style="stop-color:#F3F3F4"/>
						<stop  offset="0.914" style="stop-color:#FFFFFF"/>
					</linearGradient>
					<path id="Vector-102" class="st68" d="M139.6,113.8c0-0.4-0.4-0.7-0.8-0.8H18.3c-0.4,0-0.7,0.4-0.8,0.8c0,0.4,0.4,0.7,0.8,0.8
						h120.5C139.3,114.6,139.6,114.2,139.6,113.8L139.6,113.8z"/>
				</g>
			</g>
		</g>
	</g>
</g>
</svg>
