<?xml version="1.0" encoding="utf-8"?>
<!-- Generator: Adobe Illustrator 25.0.0, SVG Export Plug-In . SVG Version: 6.00 Build 0)  -->
<svg version="1.1" id="Layer_1" xmlns="http://www.w3.org/2000/svg" xmlns:xlink="http://www.w3.org/1999/xlink" x="0px" y="0px"
	 viewBox="0 0 62 64.9" style="enable-background:new 0 0 62 64.9;" xml:space="preserve">
<style type="text/css">
	.st0{opacity:0.3;fill:#6B6B6B;enable-background:new    ;}
	.st1{fill:#8A8A8A;}
	.st2{fill:#7A7A7A;}
	.st3{fill:#707071;}
	.st4{fill:#6A6A6A;}
	.st5{fill:#747475;}
	.st6{fill:#B6B6B6;}
	.st7{fill:#A1A0A0;}
	.st8{fill:#727373;}
	.st9{fill:#9B9B9B;}
	.st10{fill:#C0C0C0;}
	.st11{fill:#727373;fill-opacity:0;}
	.st12{opacity:0.5;fill:#A5A4A4;enable-background:new    ;}
	.st13{fill:#D7D7D7;}
	.st14{fill:#565656;}
	.st15{fill:#2D2D2D;}
	.st16{fill:#414141;}
	.st17{fill:#505150;}
	.st18{fill:#5D5E5E;}
	.st19{fill:#515251;}
	.st20{fill:#272727;}
	.st21{fill:#3B3B3B;}
	.st22{fill:#4A494A;}
	.st23{fill:#585858;}
	.st24{opacity:0.7;}
	.st25{opacity:0.7;fill:#6B6B6B;enable-background:new    ;}
	.st26{opacity:0.7;fill:#919191;enable-background:new    ;}
	.st27{opacity:0.7;fill:#B6B6B6;enable-background:new    ;}
	.st28{opacity:0.69;}
	.st29{opacity:0.69;fill:#6B6B6B;enable-background:new    ;}
	.st30{opacity:0.69;fill:#919191;enable-background:new    ;}
	.st31{opacity:0.69;fill:#B6B6B6;enable-background:new    ;}
	.st32{opacity:0.5;}
	.st33{opacity:0.5;fill:#6B6B6B;enable-background:new    ;}
	.st34{opacity:0.5;fill:#919191;enable-background:new    ;}
	.st35{opacity:0.5;fill:#B6B6B6;enable-background:new    ;}
	.st36{opacity:0.2;fill:#6B6B6B;enable-background:new    ;}
	.st37{fill:#8F8F8F;}
	.st38{fill:#6D6D6D;}
	.st39{fill:#636464;}
	.st40{fill:#4D4D4E;}
	.st41{fill:#A4A3A4;}
	.st42{fill:#AFAEAE;}
	.st43{fill:#A7A7A7;}
	.st44{fill:#BAB9BA;}
	.st45{fill:#D5D5D5;}
	.st46{fill:#DBDADA;}
	.st47{fill:#D4D4D4;}
	.st48{fill:#F2F1F1;}
	.st49{fill:#787878;}
	.st50{fill:#C3C3C3;}
	.st51{fill:#2B2B2B;}
	.st52{fill:#464647;}
	.st53{fill:#5C5C5C;}
	.st54{fill:#6B6B6B;}
	.st55{fill:#919191;}
	.st56{fill:#9E9D9E;}
	.st57{fill:#787979;}
	.st58{fill:#4B4B4B;}
	.st59{fill:#D0D0CF;}
	.st60{fill:#E7E7E7;}
	.st61{fill:#C9C9C9;}
	.st62{fill:#F0EFEF;}
	.st63{fill:#A5A4A4;}
	.st64{fill:#356699;}
	.st65{fill:#6F93B8;}
	.st66{fill:#4774A3;}
	.st67{fill:#5581AD;}
	.st68{fill:#2C5D92;}
	.st69{fill:#25558A;}
	.st70{opacity:0.7;fill:#4774A3;enable-background:new    ;}
	.st71{opacity:0.7;fill:#6B96C7;enable-background:new    ;}
	.st72{opacity:0.7;fill:#8DB9E3;enable-background:new    ;}
	.st73{opacity:0.3;}
	.st74{opacity:0.3;fill:#6B96C7;enable-background:new    ;}
	.st75{opacity:0.3;fill:#8DB9E3;enable-background:new    ;}
</style>
<g id="Group">
	<path id="Vector" class="st0" d="M45.5,0.5c-1.3-0.3-2.7-0.3-4-0.1c-0.1,0-0.3,0.1-0.5,0.1L41,0.2C40.8,0.1,40.8,0,40.6,0
		c-2.4,0.2-2.3,0.2-2.3,0.2c-0.7,0.1-1.2,0.8-1,1.5l0,0c0,0.1,0.1,0.7,0.1,0.8c0.2,0.6,0.9,1,1.5,0.8c2.6-0.9,2.4-0.7,2.2-1.3
		c1.2-0.2,2.3-0.1,3.5,0.1c3.8,1,5.4,4.3,7.1,20.7h-0.1c-0.2,0-0.1,0,0.2,4.4c-0.7,0.3-0.9,1.5-0.8,2.4c0.2,1.2,0,2.4-0.5,3.5
		c-1.4,3.3-6.1,6.1-9.8,4.3c-3.4-1.5-3.4-3.3-4.4-4.8c-0.3-0.6-0.9-0.9-1.5-1.2c-1.3-3.5-1-3.5-1.4-3.3h-0.1
		c-0.1-0.1-0.1-0.3-0.1-0.5c-6.9-15.7-7.8-20.5-2-23.3c0.2,0.6,0,0.5,2.7-0.5c0.6-0.2,0.9-0.9,0.7-1.5c-0.1-0.3-0.2-0.7-0.5-0.9
		c-0.3-0.6-1-0.7-1.6-0.5c-2.3,1.5-2.2,1.2-1.9,1.9c-0.1,0.1-0.3,0.2-0.5,0.2c-0.8,0.5-1.5,0.9-2.2,1.5c-3.4,3.4-3.3,7.5,3.8,23.6
		l0.2,0.6l-0.1,0.1c-0.2,0.2,0.1,0.7,1.4,3.7c0.1,0.2,0.3,0.3,0.6,0.5c0.1,0.5,0.7,1.5,0.9,1.9l-0.1,0.1l-0.1,0.1
		c2.2,5.9,7.3,12.2,13.9,11.3c0.9,8.6-9.2,17.5-19.3,15.1c1.7-0.9,3.3-2.2,4.4-3.7c2.7-3.5,3.3-8.2,1.7-12.3
		c-0.5-1.4-1.2-2.7-2.1-3.8c-1.9-2.3-4.7-3.7-7.7-3.8l0,0c-9.8-0.3-14.8,12.2-5.7,21.2c-5.4-3.3-7.9-11-7-18.2
		c5.8-0.1,9.2-6.9,5-11.3v0.1c-2-2.4-5.4-3.1-8.3-1.9c-3.4,1.7-4.7,6.1-2.9,9.4c0.8,1.5,2.1,2.6,3.6,3.3V41C8.8,53,15.8,64.1,25,63
		c13.3,5.8,27.3-5.8,25.7-17.1c5.5-2.4,5.7-10.4,4.4-16.2l-0.1,0.1h-0.1L54.8,29c-0.1-0.7-0.1-1.3-0.1-1.9c0.1-0.1,0.1-0.3,0.1-0.5
		c-0.3-3.4-0.1-3.8-0.6-4h-0.1L54,22.3C52.1,6.4,50.6,1.7,45.5,0.5z M51.2,34.3c1.5-2.4,0.5-4.9,1.2-6.3v0.2h0.3
		c0.1,0.7,0.1,1.4,0.1,2.1l-0.3,0.1c1.2,5.1,1.2,12.7-4.4,13.7c-5.5,1-9.8-4.9-11.5-9.7l-0.1,0.1l-0.1,0.1c-0.2-0.5-0.5-0.9-0.7-1.4
		c0.1,0,0.1-0.1,0.1-0.1l0,0c-0.1-0.2-0.2-0.5-0.3-0.7c0.7,0.3,1.3,1,1.5,1.9C39.4,39.5,47.5,40.2,51.2,34.3L51.2,34.3z M21.9,41.4
		c1-0.5,2.2-0.7,3.3-0.7c2.3,0.1,4.4,1.2,5.9,2.9c5,6.2,1.3,15.8-5.9,16.9c-0.8-0.3-1.5-0.8-2.1-1.3C15.9,54.2,15,44.5,21.9,41.4
		L21.9,41.4z"/>
	<g id="Group-2">
		<g id="Group-3">
			<path id="Vector-2" class="st1" d="M51.2,27.8c-0.2,0.2-0.5,0.6-0.6,1V29c0,0.1-0.1,0.5-0.1,0.8v0.5c0,0.7-0.1,1.3-0.1,1.6
				c0,1-0.2,2-0.8,2.8c-0.8,1.3-2.9,3.5-5.2,3.8c-2,0.5-4.1,0.1-5.9-0.8c-1.3-0.7-2.2-1.9-2.8-3.1c-0.1-0.2-0.2-0.5-0.5-0.7
				c-0.1-0.2-0.3-0.6-0.7-0.7c-0.1,0-0.1-0.1-0.1-0.1c-0.2-0.1-0.6-0.3-0.8-0.5c-0.1-0.1-0.2-0.3-0.2-0.5s0.1-0.1,0.2-0.1h0.1
				c0.1,0.1,0.3,0.1,0.5,0.2c0.2,0.1,0.5,0.2,0.6,0.5l0.5,0.5c0.1,0.1,0.2,0.2,0.2,0.5c0.5,1.2,1.3,2.2,2.1,3.1
				c0.6,0.5,1.3,0.9,2.1,1.3c1.6,0.7,3.4,0.7,5,0.1c2.1-0.8,3.7-2.3,4.8-4.4c0.5-1.2,0.7-2.3,0.5-3.5c0-0.3,0-0.7,0.1-1
				c0-0.2,0.1-0.3,0.1-0.6c0.1-0.1,0.1-0.2,0.2-0.5c0.1-0.1,0.1-0.2,0.3-0.3c0.1,0,0.1-0.1,0.2-0.1C51,27.6,51.1,27.8,51.2,27.8z"/>
			<g id="Group-4">
				<path id="Vector-3" class="st2" d="M51.2,27.8c-0.2,0.2-0.5,0.6-0.6,1c-0.1,0.2-0.1,0.8-0.1,1.5c-0.1-0.3-0.2-0.7-0.5-0.9
					c0-0.1-0.1-0.1-0.1-0.2c0.1-0.5,0.3-0.9,0.7-1.3c0.1,0,0.1-0.1,0.2-0.1C51,27.6,51.1,27.8,51.2,27.8z"/>
				<path id="Vector-4" class="st3" d="M51.2,27.8c-0.2,0.2-0.5,0.6-0.6,1c-0.1,0.3-0.1,0.7-0.1,0.9c-0.1-0.3-0.1-0.6-0.1-0.9
					c0-0.1,0-0.3-0.1-0.5c0.1-0.3,0.3-0.6,0.6-0.7c0.1,0,0.1-0.1,0.2-0.1C51,27.6,51.1,27.8,51.2,27.8z"/>
				<path id="Vector-5" class="st4" d="M51.2,27.8c-0.2,0.2-0.5,0.6-0.6,1l0,0c0-0.2-0.1-0.5-0.1-0.7c0.1-0.1,0.1-0.2,0.3-0.3
					c0.1-0.1,0.1-0.1,0.2-0.1C51,27.6,51.1,27.8,51.2,27.8z"/>
			</g>
			<g id="Group-5">
				<path id="Vector-6" class="st2" d="M35.6,34.6l-0.5-0.8c-0.1-0.2-0.3-0.6-0.7-0.7c-0.1,0-0.1-0.1-0.1-0.1
					c-0.2-0.1-0.6-0.3-0.8-0.5c-0.1-0.1-0.2-0.3-0.2-0.5c0-0.1,0.1-0.1,0.2-0.1h0.1c0.1,0.1,0.3,0.1,0.5,0.2
					c0.2,0.1,0.5,0.2,0.6,0.5l0.5,0.5c0.1,0.1,0.2,0.2,0.2,0.5C35.5,33.9,35.6,34.3,35.6,34.6z"/>
				<path id="Vector-7" class="st5" d="M35.1,33.6c0,0.1,0.1,0.2,0.1,0.5c-0.2-0.2-0.3-0.6-0.7-0.7c-0.1,0-0.1-0.1-0.1-0.1
					c-0.2-0.1-0.6-0.3-0.8-0.5c-0.1-0.1-0.2-0.3-0.2-0.5c0.1,0,0.1-0.1,0.2-0.1h0.1c0.1,0.1,0.3,0.1,0.5,0.2
					c0.2,0.1,0.5,0.2,0.6,0.5C34.9,33,35,33.2,35.1,33.6z"/>
				<path id="Vector-8" class="st4" d="M34.4,33.2c-0.1,0-0.1-0.1-0.1-0.1c-0.2-0.1-0.6-0.3-0.8-0.5c-0.1-0.1-0.2-0.3-0.2-0.5
					s0.5-0.1,0.5-0.1c0.1,0.1,0.3,0.1,0.5,0.2C34.3,32.5,34.4,32.9,34.4,33.2z"/>
			</g>
			<g id="Group-6">
				<path id="Vector-9" class="st6" d="M46.3,38c-0.6,0.3-1.3,0.6-2,0.7c-2,0.5-4.1,0.2-5.9-0.8c-1.3-0.7-2.2-1.7-2.8-3
					c0,0,0-0.1-0.1-0.1l0,0c-0.2-0.6-0.7-1.2-1.3-1.5c-0.7-0.5-0.8-0.5-0.8-0.5l-0.1-0.1c0.3,0.1,0.6,0.3,0.9,0.5
					c0.6,0.3,0.9,0.9,1.3,1.5c0,0,0,0.1,0.1,0.1l0,0c0.6,1.3,1.5,2.3,2.7,3c1.7,1,3.8,1.3,5.8,0.7c2.2-0.6,4-2,5.2-3.8
					c0.5-0.7,0.8-1.6,0.8-2.6v-0.9c0-0.8,0-1.5,0.1-2.3c0.1-0.3,0.3-0.7,0.7-1l0.1,0.1c-0.2,0.2-0.5,0.6-0.6,1
					c-0.1,0.8-0.1,1.5-0.1,2.3v1c0,0.9-0.3,1.9-0.8,2.7C48.7,36.1,47.6,37.2,46.3,38z"/>
			</g>
			<g id="Group-7">
				<g id="Group-8">
					<g id="Group-9">
						<path id="Vector-10" class="st7" d="M39.4,2.6L39,0.9c0.2-0.1,0.5-0.1,0.7-0.1c0.1,0,0.5-0.1,0.6-0.1h1.3
							c0.8,0,1.6,0.1,2.4,0.3c0.8,0.2,1.6,0.6,2.3,1s1.4,1,1.9,1.9c0.2,0.3,0.5,0.7,0.7,1c0.1,0.5,0.3,0.7,0.5,1.2l0.5,1.2
							C49.9,7.8,50,8,50.2,8.5l0.1,0.6l0.1,0.6l0.2,1.2c0.2,0.7,0.3,1.5,0.5,2.2c1,6.1,1.6,12.1,2.1,18.2l-1.7,0.1
							c-0.2-3-0.6-6.1-0.9-9.1c-0.3-2.9-0.7-6.1-1.3-9c-0.1-0.7-0.2-1.5-0.5-2.2l-0.2-1l-0.1-0.6L48.3,9c-0.3-1.4-0.8-2.7-1.5-4
							c-0.3-0.6-0.8-1-1.4-1.4S44.2,3,43.5,2.8c-0.6-0.2-1.2-0.3-1.9-0.3c-0.3,0-0.7,0-1,0.1c-0.1,0-0.3,0.1-0.5,0.1
							C39.8,2.4,39.6,2.6,39.4,2.6z"/>
					</g>
					<g id="Group-10">
						<path id="Vector-11" class="st8" d="M39.4,2.4L39,1c0.2-0.1,0.5-0.1,0.7-0.1c0.1,0,0.5-0.1,0.6-0.1c0.3-0.1,0.8-0.1,1.3-0.1
							c0.8,0,1.6,0.1,2.4,0.3c0.8,0.2,1.6,0.6,2.3,0.9c0.7,0.5,1.3,1.2,1.9,1.9c0.2,0.3,0.5,0.7,0.7,1c0.1,0.3,0.3,0.7,0.5,1
							l0.1,1.2c0.1,0.5,0.2,0.7,0.3,1.2l0.1,0.6L50,9.4l0.2,1.2c0.2,0.7,0.3,1.5,0.5,2.2c1,6.1,1.6,12,2.1,18.2l-1.4,0.1
							c-0.5-6.1-1.2-12-2.1-17.9c-0.1-0.7-0.2-1.5-0.5-2.2l-0.2-1.2l-0.1-0.6l-0.1-0.6c-0.3-1.4-0.9-2.8-1.6-4
							c-0.3-0.6-0.8-1-1.4-1.4c-0.6-0.3-1.2-0.7-1.9-0.8s-1.4-0.2-2.1-0.2c-0.3,0-0.7,0-1,0.1c-0.2,0.1-0.3,0.1-0.6,0.1
							C39.7,2.4,39.6,2.4,39.4,2.4z"/>
					</g>
					<g id="Group-11">
						<path id="Vector-12" class="st9" d="M39.3,2.2l-0.2-1C39.6,1,39.9,1,40.3,0.9c0.3-0.1,0.8-0.1,1.2-0.1c0.8,0,1.6,0.1,2.4,0.2
							c0.8,0.2,1.5,0.6,2.2,1c0.7,0.5,1.3,1.2,1.7,1.9c0.2,0.3,0.5,0.7,0.6,1c0.1,0.3,0.2,0.8,0.5,1l0.5,1.2c0.1,0.3,0.2,0.7,0.3,1
							l0.1,0.6l0.1,0.6l0.2,1.2c0.2,0.7,0.3,1.5,0.5,2.2c1,6.1,1.6,12,2.1,18.2l-1,0.1c-0.5-6.1-1.2-12-2.1-17.9
							c-0.2-0.7-0.3-1.5-0.5-2.2l-0.3-1.2l-0.1-0.6V8.6c-0.3-1.4-0.9-2.8-1.6-4.1c-0.3-0.6-0.9-1-1.5-1.4c-0.6-0.3-1.2-0.7-1.9-0.8
							s-1.4-0.2-2.1-0.2c-0.3,0-0.7,0-1,0.1C40,2.1,39.7,2.1,39.3,2.2z"/>
					</g>
					<g id="Group-12">
						<path id="Vector-13" class="st10" d="M39.3,2l-0.1-0.5c1.5-0.3,3.1-0.3,4.7,0C44.7,1.6,45.4,2,46,2.4c0.7,0.5,1.3,0.9,1.6,1.6
							c0.2,0.3,0.5,0.7,0.6,1c0.1,0.3,0.3,0.7,0.5,1l0.3,1c0.1,0.3,0.2,0.7,0.3,1l0.1,0.6l0.1,0.6l0.2,1.2c0.2,0.7,0.3,1.5,0.5,2.2
							c1,6.1,1.6,12,2.1,18.1L51.9,31c-0.5-6.1-1.2-12-2.1-18.1c-0.2-0.7-0.3-1.5-0.5-2.2l-0.2-1L49,9.1l-0.1-0.6
							c-0.3-1.4-0.9-2.8-1.6-4.1c-0.5-0.6-0.9-1.2-1.5-1.5c-0.6-0.5-1.3-0.7-2-0.9c-0.7-0.1-1.4-0.2-2.1-0.2C40.7,1.7,40,1.9,39.3,2
							z"/>
					</g>
				</g>
				<g id="Group-13">
					<g id="Group-14">
						<path id="Vector-14" class="st7" d="M30.6,2.9l0.5,1.6c-0.1,0-0.3,0.1-0.5,0.1c-0.3,0.1-0.5,0.1-0.6,0.2
							c-0.3,0.1-0.6,0.3-0.9,0.5c-0.6,0.3-1.2,0.7-1.6,1.3c-0.5,0.5-0.8,0.9-1.2,1.5c-0.2,0.6-0.5,1.3-0.5,1.9
							c0,1.4,0.2,2.8,0.6,4.2l0.1,0.6l0.1,0.5l0.3,1c0.2,0.7,0.5,1.4,0.7,2.1c1,2.8,2.1,5.6,3.4,8.4c1.2,2.8,2.4,5.5,3.7,8.3
							l-1.5,0.7c-2.6-5.5-5-11.1-7.1-16.8c-0.2-0.7-0.5-1.5-0.7-2.1l-0.3-1l-0.2-0.5l-0.2-0.7c-0.1-0.3-0.1-0.7-0.2-1.2l-0.2-1.2
							c-0.1-0.5-0.1-0.8-0.1-1.3V9.8c0.1-0.8,0.3-1.6,0.7-2.4c0.3-0.7,0.9-1.4,1.5-2.1c0.6-0.6,1.3-1,2-1.5c0.2,0,0.6-0.2,0.9-0.5
							c0.1-0.1,0.5-0.1,0.6-0.2C30.1,3,30.2,3,30.6,2.9z"/>
					</g>
					<g id="Group-15">
						<path id="Vector-15" class="st8" d="M30.6,3l0.3,1.4c-0.2,0-0.3,0.1-0.5,0.1c-0.1,0.1-0.3,0.1-0.5,0.1
							c-0.3,0.1-0.6,0.3-0.9,0.5c-0.6,0.3-1.2,0.7-1.6,1.3c-0.5,0.5-0.9,1-1.2,1.6c-0.2,0.6-0.5,1.3-0.5,1.9c0,1.4,0.2,2.8,0.6,4.2
							l0.1,0.6l0.1,0.6l0.3,1c0.2,0.7,0.5,1.4,0.7,2.1c2.1,5.7,4.5,11.2,7.1,16.7l-1.3,0.7c-2.6-5.6-5-11.1-7.1-16.9
							c-0.2-0.7-0.5-1.5-0.7-2.1l-0.3-1l-0.1-0.6l-0.1-0.6c-0.1-0.3-0.1-0.7-0.2-1.2l-0.2-1.2c-0.1-0.5-0.1-0.8-0.1-1.3V9.7
							c0.1-0.8,0.3-1.6,0.7-2.4c0.3-0.7,0.9-1.4,1.5-2.1c0.6-0.6,1.3-1,2-1.5c0.1,0.1,0.5-0.1,0.8-0.3C29.7,3.1,30,3.1,30.1,3
							C30.2,3.1,30.4,3,30.6,3z"/>
					</g>
					<g id="Group-16">
						<path id="Vector-16" class="st9" d="M30.6,3.3l0.2,0.9c-0.3,0.1-0.7,0.2-1,0.3L28.8,5c-1.3,0.6-2.3,1.6-2.9,2.9
							c-0.3,0.6-0.5,1.3-0.6,2c0,1.4,0.2,2.9,0.6,4.3l0.1,0.6l0.1,0.6l0.3,1c0.2,0.7,0.5,1.4,0.7,2.1c2.1,5.7,4.5,11.2,7.1,16.8
							l-0.8,0.5c-2.6-5.6-5-11.1-7.1-16.9c-0.2-0.7-0.5-1.5-0.7-2.1l-0.3-1l-0.1-0.6l-0.1-0.6c-0.1-0.3-0.1-0.7-0.2-1.2l-0.2-1.2
							c-0.1-0.5-0.1-0.8-0.1-1.2V9.8c0.1-0.8,0.3-1.6,0.7-2.4c0.1-0.6,0.6-1.3,1.2-1.7c0.6-0.6,1.2-1,1.9-1.4
							c0.3-0.1,0.8-0.3,1.2-0.5C29.9,3.5,30.2,3.4,30.6,3.3z"/>
					</g>
					<g id="Group-17">
						<path id="Vector-17" class="st10" d="M30.7,3.5L30.8,4c-0.7,0.2-1.4,0.5-2.1,0.8C28,5.1,27.4,5.6,27,6.1
							c-0.5,0.6-0.9,1.2-1.2,1.7c-0.3,0.7-0.5,1.4-0.6,2.1c0,1.5,0.2,2.9,0.6,4.4l0.1,0.6l0.1,0.6l0.3,1c0.2,0.7,0.5,1.4,0.7,2.1
							c2.1,5.7,4.5,11.2,7.1,16.8l-0.5,0.2c-2.6-5.6-5-11.1-7.1-16.8c-0.2-0.7-0.5-1.4-0.7-2.1l-0.3-1l-0.1-0.6l-0.1-0.6
							c-0.1-0.3-0.1-0.7-0.2-1l-0.2-1.2c-0.1-0.5-0.1-0.7-0.1-1.2V10c0-0.8,0.2-1.6,0.7-2.3c0.3-0.7,0.8-1.4,1.4-1.9
							c0.6-0.6,1.2-1,1.9-1.4C29.2,4,29.9,3.6,30.7,3.5z"/>
					</g>
				</g>
				<g id="Group-18">
					<g id="Group-19">
						<path id="Vector-18" class="st11" d="M50.4,15c-0.5-0.8-0.8-1.9-1-2.8c-0.2-0.9-0.5-1.9-0.8-3c-0.1-0.2-0.1-0.6-0.2-0.8
							C48.2,8,48.1,7.8,48,7.5c-0.2-0.7-0.5-1.3-0.7-1.9c-0.5-1-1.3-2.1-2.2-2.8c-0.8-0.6-1.7-0.8-2.7-0.9c-0.7-0.1-1.4-0.1-2.1,0
							c-0.5,0-0.8,0-0.8-0.1s0.2-0.2,0.7-0.5c0.1-0.1,0.2-0.1,0.5-0.1C40.7,1,41,1,41.1,1c0.1,0,0.5-0.1,0.6-0.1
							c0.2,0,0.3-0.1,0.7-0.1c0.6,0,1.2,0,1.6,0.1c0.6,0.1,1.2,0.3,1.7,0.7C46.3,2,46.9,2.4,47.3,3c0.5,0.6,0.8,1.2,1.2,1.9
							c0.3,0.7,0.6,1.3,0.8,2c0.1,0.3,0.2,0.6,0.3,0.9c0.1,0.3,0.1,0.7,0.2,0.9c0.2,1,0.5,2.1,0.6,3.3C50.6,13.9,50.6,15,50.4,15z"
							/>
						<path id="Vector-19" class="st12" d="M49.7,11c-0.3-0.5-0.6-1-0.7-1.5c-0.3-1.4-0.9-2.7-1.5-3.8c-0.3-0.7-0.7-1.3-1.2-1.9
							C46,3.3,45.5,2.9,45,2.4c-0.3-0.2-0.7-0.5-1-0.6c-0.1-0.1-0.2-0.1-0.5-0.2c0-0.1,0.1-0.1,0.5,0c0.5,0,0.8,0.2,1.3,0.5
							c0.6,0.3,1.2,0.7,1.5,1.3c0.6,0.6,0.9,1.3,1.3,2c0.6,1.3,1,2.7,1.3,4.1C49.8,10.1,49.8,11,49.7,11z"/>
						<path id="Vector-20" class="st13" d="M48.5,6.9c-0.1,0-0.3-0.7-0.8-1.5c-0.5-0.8-0.8-1.5-0.8-1.5c0.1-0.1,0.6,0.6,1,1.4
							C48.3,5.7,48.4,6.3,48.5,6.9z"/>
					</g>
				</g>
				<g id="Group-20">
					<g id="Group-21">
						<path id="Vector-21" class="st11" d="M27.7,20.6c-0.1,0.1-0.7-0.9-1.5-2.7c-0.5-1-0.8-2-1-3C25,14.6,25,14.3,24.9,14
							s-0.1-0.7-0.1-1c-0.1-0.7-0.2-1.4-0.2-2.1c0-0.7,0-1.4,0.1-2.1c0.1-0.7,0.3-1.4,0.7-2c0.3-0.6,0.7-1,1.2-1.5
							c0.3-0.3,0.8-0.7,1.3-0.9C28,4.2,28.3,4.1,28.5,4c0.2-0.1,0.3-0.1,0.6-0.1c0.1-0.1,0.3-0.1,0.5-0.1c0.1,0,0.2,0,0.3-0.1
							c0.5-0.1,0.8-0.1,0.8,0S30.5,3.8,30,4.1c-0.5,0.2-1,0.6-1.9,1c-0.8,0.6-1.4,1.3-1.9,2.1c-0.5,1.2-0.7,2.3-0.6,3.5
							c0,0.6,0.1,1.3,0.1,1.9c0.1,0.3,0.1,0.7,0.1,0.9c0.1,0.3,0.1,0.6,0.1,0.9c0.2,1.2,0.5,2.2,0.7,3
							C27.6,19.5,27.9,20.5,27.7,20.6z"/>
						<path id="Vector-22" class="st12" d="M26.3,16.7c-0.3-0.5-0.6-1-0.7-1.5c-0.5-1.4-0.7-2.8-0.8-4.2c0-0.8,0-1.6,0.1-2.4
							c0.1-0.6,0.5-1.3,0.7-1.9c0.2-0.3,0.6-0.7,0.9-1c0.1-0.1,0.2-0.1,0.5-0.2c-0.1,0.1-0.1,0.2-0.2,0.5c-0.2,0.3-0.5,0.7-0.7,1
							c-0.2,0.6-0.5,1-0.6,1.6c0.1,0.8,0.1,1.5,0.1,2.3c0.1,1.4,0.2,2.7,0.6,4.1C26.3,16,26.4,16.5,26.3,16.7z"/>
						<path id="Vector-23" class="st13" d="M25.2,12.6c-0.2-0.5-0.3-1-0.2-1.6c-0.1-0.6,0-1.2,0.1-1.7c0.1,0,0,0.7,0.1,1.7
							C25.4,11.4,25.4,12,25.2,12.6z"/>
					</g>
				</g>
			</g>
			<path id="Vector-24" class="st0" d="M51.3,30.2l0.1,1.7l1.6-0.3L53,30.9l-0.1-1.3L51.3,30.2z"/>
			<path id="Vector-25" class="st0" d="M34.6,34.6l-1.7,0.3l1,2.3l1.5-0.7L34.6,34.6z"/>
			<g id="Group-22">
				<g id="Group-23">
					<path id="Vector-26" class="st14" d="M48.7,44.9c0.5,1.6,0.6,3.4,0.5,5c-0.1,1.6-0.7,3.3-1.4,4.7C47,56,46.1,57.3,45,58.6
						c-1,1.2-2.3,2.3-3.6,3.3l-0.9,0.7l-0.2,0.1L40,62.8l-0.7,0.1c-0.3,0.2-0.7,0.3-1,0.5c-0.3,0.1-0.7,0.3-1.2,0.5
						c-1.5,0.6-3.1,0.9-4.7,1c-1.6,0.1-3.3,0.1-4.9-0.2c-0.6-0.1-1.3-0.2-1.9-0.5L25,64c-0.6-0.2-1.2-0.3-1.7-0.7
						c-0.1,0-0.1-0.1-0.3-0.1L23,63v0.1l0.1-0.1v-0.1l0.1-0.1v-0.1l0.1-0.1v-0.1l0.1-0.2l0.1-0.1V62l0.1-0.1v-0.1l0.1-0.1v-0.1
						l0.1-0.1v-0.1l0.1-0.1V61c0.6,0.3,1.3,0.6,1.9,0.7c0.7,0.2,1.4,0.5,2.1,0.6c0.2,0.1,0.6,0.1,0.8,0.1c0.2,0,0.5,0.1,0.7,0.1
						c0.9,0.1,1.7,0.1,2.7,0c1.4-0.1,2.8-0.5,4.1-0.9c0.3-0.1,0.7-0.2,1-0.5l0.9-0.5l0.5-0.2l0.2-0.1l0.2-0.1l0.9-0.6
						c1.2-0.8,2.2-1.7,3.3-2.8c0.9-1,1.7-2.2,2.3-3.5c0.6-1.3,0.9-2.6,1.2-4c0.2-1.4,0.1-2.7-0.3-4.1l0.1-0.1l0.2-0.1L47,45l0.1-0.1
						l0.6-0.1l0.1-0.1l0.1-0.1l0.2-0.1h0.5V44.9z"/>
				</g>
				<g id="Group-24">
					<path id="Vector-27" class="st15" d="M48.4,44.9c0.5,1.6,0.6,3.3,0.5,4.9c-0.1,1.6-0.6,3.1-1.4,4.7c-0.7,1.5-1.5,2.8-2.7,4.1
						c-1,1.2-2.3,2.2-3.6,3.1l-0.9,0.7L40,62.4l-0.2,0.1l-0.5,0.2c-0.3,0.2-0.7,0.3-1,0.5c-0.3,0.1-0.7,0.3-1,0.5
						c-1.5,0.6-3.1,0.9-4.7,1c-1.6,0.1-3.3,0.1-4.8-0.2c-0.7,0-1.3-0.2-1.7-0.2c-1-0.2-2.1-0.7-3-1.2l0.1-0.2l0.1-0.3l0.1-0.2
						l0.1-0.1l0.1-0.1l0.1-0.1l0.1-0.1l0.1-0.2c0.5,0.2,0.9,0.5,1.5,0.6c0.8,0.3,1.6,0.6,2.6,0.7c0.3,0.1,0.8,0.1,1.3,0.1
						c0.9,0.1,2,0.1,2.9,0c1.4-0.1,2.8-0.5,4.1-0.9c0.3-0.1,0.7-0.2,1-0.5l0.9-0.5l0.5-0.2l0.2-0.1l0.2-0.1l0.9-0.6
						c1.2-0.8,2.2-1.7,3.3-2.8c0.9-1,1.7-2.3,2.3-3.5c0.6-1.3,1-2.7,1.3-4.1s0.1-2.8-0.3-4.1l0.2-0.1l0.1-0.1l0.1-0.1l0.6-0.1
						l0.1-0.1L48,45L48.4,44.9z"/>
				</g>
				<g id="Group-25">
					<path id="Vector-28" class="st16" d="M48.2,44.9c0.5,1.5,0.6,3.1,0.5,4.8c-0.2,1.6-0.6,3.1-1.3,4.5s-1.6,2.8-2.7,4
						c-1,1.2-2.2,2.2-3.5,3.1l-1,0.7l-0.2,0.1l-0.3,0.1l-0.5,0.2c-0.3,0.2-0.7,0.3-1,0.5c-0.3,0.1-0.7,0.3-1,0.5
						c-1.5,0.6-3,0.9-4.7,1c-1.5,0.1-3.1,0.1-4.7-0.1c-0.3-0.1-0.7-0.1-1-0.2c-1.2-0.3-2.3-0.7-3.4-1.3l0.1-0.1l0.1-0.1l0.1-0.2
						l0.1-0.1l0.1-0.1L24,62l0.1-0.1c0.3,0.1,0.6,0.2,0.9,0.5c1,0.5,2.1,0.7,3.3,0.9c0.3,0.1,0.6,0.1,0.9,0.1
						c1.2,0.1,2.3,0.2,3.5,0.1c1.4-0.1,2.8-0.5,4.2-0.9c0.3-0.1,0.7-0.2,0.9-0.5l1-0.5l0.5-0.2l0.2-0.1l0.2-0.1l0.9-0.6
						c1.2-0.8,2.3-1.7,3.3-2.9c0.9-1,1.7-2.3,2.3-3.6c0.7-1.3,1-2.7,1.3-4.1c0.2-1.4,0.1-2.8-0.3-4.2l0.1-0.1l0.1-0.1l0.6-0.1
						l0.1-0.1h0V44.9z"/>
				</g>
				<g id="Group-26">
					<path id="Vector-29" class="st17" d="M48,45c0.5,1.5,0.6,3.1,0.5,4.7c-0.2,1.5-0.6,3-1.3,4.4c-0.7,1.4-1.5,2.7-2.6,3.8
						c-1,1.2-2.2,2.2-3.5,3l-0.9,0.7l-0.2,0.1L39.4,62L39,62.2c-0.3,0.2-0.7,0.3-1,0.5c-0.3,0.1-0.7,0.3-1,0.5c-1.5,0.6-3,0.9-4.5,1
						s-3.1,0.1-4.7-0.1C27.4,64,27.2,64,27,64c-1.3-0.3-2.4-0.7-3.6-1.3l0.1-0.1l0.1-0.2l0.1-0.1l0.1-0.1L24,62
						c0.2,0.1,0.3,0.2,0.6,0.2c1.2,0.5,2.3,0.9,3.6,1c0.2,0,0.5,0.1,0.7,0.1c1.3,0.1,2.6,0.2,3.8,0.1c1.5-0.1,2.9-0.5,4.3-1
						c0.3-0.1,0.7-0.2,0.9-0.5l1-0.5l0.5-0.2l0.2-0.1l0.2-0.1l0.9-0.6c1.2-0.8,2.3-1.7,3.3-2.9c1-1,1.7-2.3,2.4-3.6s1-2.8,1.3-4.2
						c0.2-1.4,0.1-2.9-0.3-4.3l0.1-0.1L48,45L48,45z"/>
				</g>
				<g id="Group-27">
					<path id="Vector-30" class="st18" d="M47.8,45.1c0.5,1.5,0.6,3,0.3,4.7c-0.2,1.5-0.6,3-1.3,4.4c-0.7,1.4-1.5,2.7-2.4,3.8
						c-1,1.2-2.2,2.2-3.5,3l-1,0.6l-0.2,0.1l-0.3,0.1l-0.5,0.2c-0.3,0.1-0.7,0.3-1,0.5c-0.3,0.1-0.7,0.3-1,0.5
						c-1.4,0.6-2.9,0.9-4.4,1c-1.5,0.1-3.1,0.1-4.7-0.1c-0.1,0-0.3-0.1-0.5-0.1c-1.4-0.2-2.7-0.7-3.8-1.3l0.1-0.2l0.1-0.1l0.1-0.1
						c0.1,0,0.1,0.1,0.2,0.1c1.3,0.6,2.6,0.9,4,1.3c0.1,0,0.2,0.1,0.5,0.1c1.3,0.2,2.7,0.2,4.1,0.1c1.5-0.1,2.9-0.5,4.4-0.9
						c0.3-0.1,0.7-0.2,1-0.5l1-0.5l0.5-0.2l0.2-0.1l0.2-0.1l0.9-0.6c1.3-0.8,2.4-1.9,3.4-2.9c0.9-1.2,1.7-2.3,2.4-3.7
						c0.7-1.3,1-2.8,1.3-4.2c0.2-1.5,0.1-2.9-0.3-4.4L47.8,45.1z"/>
				</g>
			</g>
			<g id="Group-28">
				<g id="Group-29">
					<path id="Vector-31" class="st19" d="M23.6,38.8v2.4c-1.2,0-2.2,0.2-3.3,0.7c-1,0.5-2,1.2-2.7,2c-0.3,0.5-0.7,0.9-1,1.4
						c-0.2,0.5-0.5,1-0.7,1.5c-0.1,0.2-0.1,0.6-0.1,0.8l-0.1,0.5v2.1c0.1,1.2,0.5,2.3,0.9,3.5c0.2,0.6,0.5,1.2,0.8,1.6l0.5,0.7
						c0.1,0.2,0.3,0.5,0.6,0.7c0.8,0.9,1.6,1.9,2.7,2.6c0.1,0.1,0.2,0.2,0.5,0.3c0.5,0.3,0.9,0.6,1.3,0.9c0.3,0.2,0.7,0.5,1,0.6
						c0.1,0.1,0.1,0.1,0.2,0.1l-0.1,0.1v0.1L24,61.6v0.1L23.8,62v0.2l-0.2,0.5v0.2L23.5,63v0.1l-0.1,0.1v0.1l-0.1,0.1v0.1
						c-1.3-0.6-2.4-1.3-3.5-2.2c-0.7-0.5-1.3-1-1.9-1.7l-0.2-0.2c-0.3-0.3-0.6-0.6-0.8-1c-0.2-0.2-0.5-0.6-0.7-0.8l-0.6-0.9
						c-0.3-0.6-0.7-1.3-1-1.9c-0.6-1.4-0.9-2.8-1-4.2c0-0.3,0-0.7-0.1-1v-1.2c0-0.2,0-0.3,0.1-0.6l0.1-0.6c0-0.3,0.1-0.7,0.2-1
						c0.2-0.7,0.5-1.4,0.8-2.1c0.3-0.7,0.8-1.3,1.3-1.7c1-1.2,2.2-2,3.5-2.7C20.8,38.9,22.2,38.7,23.6,38.8z"/>
				</g>
				<g id="Group-30">
					<path id="Vector-32" class="st20" d="M23.6,38.9v1.9c-1.2,0-2.3,0.2-3.4,0.7c-1,0.5-2,1.2-2.8,2.1c-0.3,0.5-0.7,0.9-0.9,1.4
						c-0.2,0.6-0.5,1-0.7,1.6c-0.2,1.2-0.3,2.3-0.3,3.5c0.1,1.3,0.3,2.4,0.9,3.5c0.2,0.6,0.5,1.2,0.8,1.6l0.5,0.7
						c0.1,0.2,0.5,0.5,0.6,0.7c0.8,0.9,1.6,1.9,2.7,2.7c0.5,0.3,0.9,0.7,1.5,1l1.7,0.9L24,61.6L23.8,62l-0.2,0.6l-0.1,0.1l-0.1,0.1
						l-0.1,0.3c-1.3-0.6-2.4-1.3-3.5-2.2c-0.7-0.5-1.3-1-1.9-1.6c-0.5-0.3-0.8-0.8-1.2-1.3c-0.2-0.2-0.5-0.6-0.7-0.8l-0.6-0.9
						c-0.3-0.6-0.7-1.3-0.9-1.9c-0.6-1.3-0.9-2.7-1-4.1c-0.1-1.4,0-2.9,0.3-4.3c0.2-0.7,0.5-1.4,0.8-2.1c0.3-0.7,0.7-1.3,1.3-1.9
						c0.9-1,2.2-2,3.5-2.6C20.7,39.1,22.2,38.9,23.6,38.9z"/>
				</g>
				<g id="Group-31">
					<path id="Vector-33" class="st21" d="M23.6,39.3v1.3c-1.2,0-2.4,0.2-3.5,0.7c-1.2,0.5-2.1,1.3-2.9,2.1c-0.3,0.5-0.8,0.9-1,1.5
						c-0.2,0.6-0.5,1-0.7,1.6c-0.6,2.4-0.5,5,0.6,7.3c0.2,0.6,0.6,1.2,0.8,1.6l0.5,0.8c0.1,0.2,0.5,0.5,0.6,0.7
						c0.8,0.9,1.7,1.9,2.7,2.7l1,0.7c0.7,0.5,1.5,0.9,2.2,1.3l-0.1,0.1l-0.1,0.1l-0.2,0.6l-0.1,0.1l-0.1,0.1
						c-1.3-0.6-2.4-1.3-3.5-2.1c-0.5-0.3-0.9-0.7-1.3-1.2c-0.6-0.6-1.2-1.2-1.6-1.7c-0.2-0.3-0.5-0.6-0.7-0.8l-0.5-0.7
						c-0.3-0.6-0.6-1.2-0.9-1.9c-0.6-1.3-0.9-2.7-1-4.1c-0.1-1.4,0-2.8,0.3-4.2c0.2-0.7,0.5-1.4,0.8-2c0.3-0.6,0.7-1.2,1.3-1.7
						c0.9-1,2.1-1.9,3.4-2.4C20.8,39.5,22.2,39.3,23.6,39.3z"/>
				</g>
				<g id="Group-32">
					<path id="Vector-34" class="st22" d="M23.6,39.5v0.9c-1.3,0-2.4,0.2-3.6,0.7c-1.2,0.5-2.2,1.3-2.9,2.2c-0.3,0.5-0.7,0.9-1,1.5
						c-0.2,0.6-0.5,1.2-0.7,1.7C15,47.8,14.9,49,15,50.3c0.1,1.3,0.5,2.4,1,3.6c0.2,0.6,0.6,1.2,0.9,1.7l0.5,0.8
						c0.1,0.2,0.5,0.5,0.6,0.7c0.8,0.9,1.7,1.9,2.7,2.7c0.2,0.1,0.5,0.3,0.7,0.5c0.8,0.6,1.6,1,2.6,1.5L23.8,62l-0.2,0.6l-0.1,0.1
						c-1.3-0.6-2.4-1.3-3.5-2.1c-0.3-0.2-0.7-0.6-1-0.8c-0.7-0.7-1.3-1.3-1.9-2.1c-0.2-0.2-0.5-0.6-0.6-0.8l-0.6-0.7
						c-0.3-0.6-0.7-1.2-0.9-1.9c-0.6-1.3-0.9-2.6-1-4c-0.1-1.4,0-2.8,0.3-4.1c0.2-0.7,0.5-1.3,0.7-2c0.3-0.6,0.8-1.2,1.3-1.7
						c0.9-1,2-1.9,3.3-2.4C20.9,39.6,22.3,39.4,23.6,39.5z"/>
				</g>
				<g id="Group-33">
					<path id="Vector-35" class="st23" d="M23.6,39.7v0.6c-1.3,0-2.6,0.2-3.7,0.7c-1.2,0.5-2.2,1.3-3,2.2c-0.3,0.5-0.8,1-1,1.5
						c-0.3,0.6-0.5,1.2-0.7,1.7c-0.3,1.3-0.5,2.6-0.3,3.8c0.1,1.3,0.5,2.6,0.9,3.7c0.2,0.6,0.6,1.2,0.9,1.7l0.5,0.8
						c0.1,0.2,0.5,0.5,0.6,0.7c0.8,0.9,1.7,1.9,2.7,2.7c0.1,0.1,0.2,0.2,0.5,0.2c0.9,0.7,1.9,1.3,2.9,1.7l-0.2,0.6
						c-1.2-0.6-2.3-1.3-3.4-2.1c-0.2-0.1-0.5-0.3-0.7-0.6c-0.8-0.7-1.5-1.5-2.2-2.3c-0.2-0.2-0.5-0.6-0.6-0.8L16,55.9
						c-0.3-0.6-0.7-1.2-0.9-1.9c-0.6-1.3-0.8-2.6-0.9-3.8c-0.1-1.4,0-2.7,0.3-4.1c0.1-0.7,0.5-1.3,0.7-1.9c0.3-0.6,0.7-1.2,1.2-1.6
						c0.9-1,2-1.9,3.3-2.4C20.9,39.8,22.3,39.6,23.6,39.7z"/>
				</g>
			</g>
			<path id="Vector-36" class="st0" d="M28.7,62.6c-0.1,0.1-0.2,0.1-0.3,0.1l-0.5,0.2c-0.1,0.2-0.1,0.2-0.3,0.2
				c-0.1,0.1-0.1,0.1-0.2,0.1c-0.3,0.1-0.7,0.3-0.9,0.5c-0.1,0-0.1,0.1-0.3,0.1C25.9,64,25.8,64,25.7,64c-0.1,0.1-0.3,0.1-0.5,0.1
				s-0.2,0.1-0.5,0.1c-0.6-0.2-1.2-0.3-1.7-0.7v0.1c-1.3-0.6-2.4-1.3-3.5-2.2c-0.7-0.5-1.3-1-1.9-1.7h3.8c0.5,0.3,0.9,0.6,1.3,0.9
				c0.3,0.2,0.7,0.5,1,0.6V61c0.6,0.3,1.3,0.6,1.9,0.7c0.7,0.2,1.4,0.5,2.1,0.6C28.1,62.4,28.4,62.6,28.7,62.6z"/>
			<g id="Group-34">
				<g id="Group-35">
					<path id="Vector-37" class="st14" d="M33.4,46.4l0.1,0.5l0.1,0.5c0.1,0.3,0.1,0.7,0.2,1c0.1,0.7,0.2,1.4,0.2,2.1
						c0,1.4-0.2,2.9-0.7,4.2l-0.1,0.5l-0.1,0.5c-0.1,0.3-0.3,0.7-0.5,0.9c-0.3,0.7-0.7,1.3-1.2,1.9c-1.2,1.5-2.7,2.8-4.4,3.7
						c-0.1,0.1-0.1,0.1-0.3,0.1c-0.1,0.1-0.2,0.1-0.5,0.1c-0.1,0.1-0.1,0.1-0.3,0.1c-0.1,0-0.1,0.1-0.2,0.1c-0.3,0.1-0.7,0.2-1,0.3
						c-0.1,0-0.2,0.1-0.3,0.1h-0.1c-0.1,0-0.1,0.1-0.3,0.1c-0.1,0-0.5,0.1-0.6,0.1c-0.1,0-0.2,0-0.5,0.1c-1,0.1-2.1,0-3-0.1
						c-0.7-0.2-1.4-0.3-2.1-0.7c-0.7-0.3-1.3-0.7-1.9-1c-0.6-0.3-1.2-0.8-1.6-1.3s-1-0.9-1.5-1.5c-0.9-1-1.6-2.2-2.3-3.5
						c-1.2-2.4-2-5.1-2.3-7.9c-0.2-1.7-0.2-3.5-0.1-5.2c0.1-0.9,0.2-2,0.5-2.9l0.3,0.2l0.5,0.1h0.2l0.2,0.1l0.5,0.1h0.1l0.3,0.1
						l0.2,0.1c-0.2,1.4-0.5,2.8-0.5,4.3c0,1,0,2.1,0.1,3.1c0.2,2.4,0.9,4.9,2.1,7.1c1,2.2,2.7,4.1,4.7,5.5c0.1,0.1,0.2,0.1,0.5,0.2
						c0.2,0.1,0.5,0.2,0.7,0.5c0.1,0.1,0.2,0.1,0.5,0.1c0.1,0.1,0.3,0.1,0.5,0.1c0.2,0.1,0.3,0.1,0.6,0.1c0.1,0.1,0.2,0.1,0.5,0.1
						h0.3c0.5,0.1,0.8,0.1,1.3,0.1h0.7c0.1,0,0.3,0,0.5-0.1c0.1,0,0.2,0,0.3-0.1c0.1,0,0.3-0.1,0.5-0.1c2.3-0.6,4.3-1.9,5.7-3.8
						c1.4-1.9,2.1-4.2,2.1-6.6c0-0.6-0.1-1.2-0.1-1.7c-0.1-0.2-0.1-0.6-0.2-0.8l-0.1-0.3l-0.1-0.3c-0.3-1-0.9-2.1-1.6-3
						c-0.7-0.8-1.6-1.6-2.7-2.1l-0.1-0.1l-0.2-0.1l-0.5-0.1l-0.5-0.1l-0.1-0.1l-0.2-0.1l-0.5-0.1l-0.5-0.1h-0.9v-2.7l0.6,0.1h0.2
						l0.2,0.1l0.6,0.1l0.6,0.1l0.2,0.1l0.2,0.1l0.5,0.1l0.5,0.2l0.2,0.1c0.1,0,0.1,0.1,0.2,0.1c1.3,0.7,2.4,1.6,3.4,2.7
						C32.1,43.6,32.9,45,33.4,46.4z"/>
				</g>
				<g id="Group-36">
					<path id="Vector-38" class="st15" d="M33.2,46.5l0.1,0.5l0.1,0.5l0.2,0.9c0.1,0.7,0.2,1.4,0.2,2.1c0,1.4-0.2,2.8-0.6,4.2
						l-0.1,0.5L33,55.6c-0.1,0.3-0.2,0.7-0.5,0.9c-0.3,0.6-0.7,1.3-1,1.9c-1.2,1.6-2.8,2.9-4.5,3.8c-0.1,0.1-0.1,0.1-0.3,0.1
						c-0.1,0.1-0.2,0.1-0.5,0.1c-0.1,0.1-0.1,0.1-0.3,0.1c-0.1,0-0.1,0.1-0.2,0.1c-0.3,0.1-0.7,0.2-1,0.3h-0.1c-0.1,0-0.2,0-0.2,0.1
						c-0.1,0-0.2,0.1-0.5,0.1c-0.1,0-0.5,0.1-0.6,0.1h-0.6c-0.8,0.1-1.6,0-2.4-0.1c-0.7-0.1-1.4-0.3-2.1-0.7c-0.7-0.3-1.3-0.6-1.9-1
						c-0.6-0.3-1.2-0.8-1.6-1.3s-1-0.9-1.4-1.5c-0.9-1-1.6-2.2-2.2-3.5c-1.2-2.4-2-5.1-2.3-7.8c-0.2-1.7-0.2-3.4-0.1-5.1
						c0.1-0.9,0.2-2,0.5-2.9h0.7l0.2,0.1l0.5,0.1h0.1l0.3,0.1c-0.2,1.4-0.5,2.8-0.5,4.1c0,1,0,2.2,0.1,3.3c0.2,2.4,0.9,4.9,2.1,7.1
						c1,2.2,2.7,4.1,4.7,5.5c0.3,0.2,0.7,0.5,1.2,0.7c0.1,0.1,0.2,0.1,0.5,0.1c0.1,0,0.1,0.1,0.2,0.1c0.2,0.1,0.6,0.1,0.8,0.2
						c0.1,0.1,0.3,0.1,0.5,0.1h0.3c0.1,0,0.2,0.1,0.3,0.1c0.5,0.1,0.9,0.1,1.3,0.1H23c0.1,0,0.3,0,0.5-0.1c0.1,0,0.2,0,0.3-0.1h0.2
						c2.3-0.6,4.4-1.9,5.8-3.8c1.4-2,2.1-4.3,2.1-6.6c0-0.6-0.1-1.2-0.1-1.7c-0.1-0.2-0.1-0.6-0.2-0.9l-0.1-0.5l-0.1-0.5
						c-0.3-1.2-0.9-2.2-1.7-3.1C29,42.8,28,42.1,27,41.6l-0.1-0.1l-0.3,0l-0.5-0.1l-0.5-0.1l-0.1,0.1l-0.2-0.1l-0.5-0.1h-1.3V39
						l0.6,0.1h0.2l0.2,0.1l0.5,0.1l0.5,0.1l0.2,0.1h0.5l0.5,0.1l0.5,0.2l0.2,0.1l0.2,0.1c1.3,0.7,2.4,1.6,3.4,2.7
						C32.1,43.9,32.8,45.1,33.2,46.5z"/>
				</g>
				<g id="Group-37">
					<path id="Vector-39" class="st16" d="M32.9,46.5l0.1,0.5l0.1,0.5l0.2,0.9c0.1,0.7,0.2,1.4,0.2,2.1c0,1.4-0.2,2.7-0.6,4.1
						L32.8,55l-0.1,0.5c-0.1,0.3-0.2,0.6-0.5,0.9c-0.3,0.6-0.7,1.2-1,1.7C30,59.8,28.4,61,26.5,62c-0.1,0.1-0.1,0.1-0.3,0.1
						c-0.1,0.1-0.3,0.1-0.5,0.1c-0.1,0-0.2,0.1-0.3,0.1c-0.1,0-0.1,0.1-0.2,0.1c-0.2,0.1-0.5,0.1-0.7,0.1c-0.1,0-0.2,0.1-0.5,0.1
						c-0.1,0-0.2,0-0.3,0.1c-0.1,0-0.2,0-0.5,0.1H22c-0.6,0-1.3-0.1-1.9-0.1c-0.7-0.1-1.4-0.3-2-0.7c-0.6-0.2-1.3-0.6-1.9-0.9
						c-0.6-0.5-1-0.8-1.6-1.3l0-0.2c-0.3-0.3-0.8-0.8-1.2-1.3c-0.8-0.9-1.5-2.1-2.1-3.3c0-0.1-0.1-0.1-0.1-0.1c-1.3-2.4-2-5-2.2-7.7
						c-0.1-1.6-0.2-3.1-0.1-4.8c0.1-1,0.2-2.1,0.5-3.1h0.5l0.2,0.1l0.3,0.1h0.3c-0.2,1.3-0.5,2.7-0.5,4c-0.1,1.2,0,2.3,0.1,3.5
						c0.1,0.8,0.2,1.7,0.5,2.6c0.3,1.6,0.9,3.1,1.6,4.7c1,2.2,2.7,4.2,4.8,5.6c0.5,0.3,1,0.6,1.5,0.9c0.1,0.1,0.3,0.1,0.5,0.1
						c0.2,0.1,0.3,0.1,0.6,0.1c0.2,0.1,0.5,0.1,0.7,0.1h0.1c0.1,0,0.3,0.1,0.5,0.1H23c0.1,0,0.2,0,0.3-0.1h0.2c0.1,0,0.2,0,0.2-0.1
						H24c0.1,0,0.1-0.1,0.2-0.1c0.2-0.1,0.5-0.1,0.8-0.2c2-0.7,3.7-2,4.9-3.6c1.5-2,2.2-4.4,2.2-6.9c0-0.6-0.1-1.2-0.1-1.9
						c-0.1-0.3-0.1-0.6-0.2-0.9l-0.1-0.3v-0.1v-0.1c-0.5-1.2-1-2.2-1.7-3.3c-0.7-0.9-1.7-1.7-2.8-2.2L27,41.2l-0.2-0.1L26.3,41
						l-0.3,0.1h-0.1L25.6,41l-0.2-0.1l-0.5-0.1l-0.5-0.1h-0.9v-1.5l0.5,0.1h0.2l0.2,0.1l0.5,0.1l0.5,0.1l0.2,0.1l0.2,0.1l0.5,0.1
						l0.5,0.1l0.2,0.1l0.2,0.1c1.3,0.6,2.3,1.5,3.3,2.7C31.8,43.9,32.5,45.2,32.9,46.5z"/>
				</g>
				<g id="Group-38">
					<path id="Vector-40" class="st17" d="M32.8,46.6l0.1,0.5l0.1,0.5l0.2,1c0.1,0.7,0.2,1.4,0.2,2.1c0,1.2-0.1,2.3-0.5,3.5
						c-0.1,0.1-0.2,0.2-0.2,0.5l-0.1,0.5l-0.1,0.5c-0.1,0.3-0.2,0.6-0.5,0.9c-0.3,0.6-0.7,1.2-1,1.7c-1.3,1.7-2.9,3-4.9,3.8
						c-0.1,0.1-0.2,0.1-0.3,0.1c-0.1,0.1-0.3,0.1-0.5,0.1c-0.1,0-0.2,0.1-0.3,0.1c-0.1,0-0.1,0.1-0.3,0.1c-0.1,0-0.2,0-0.5,0.1
						s-0.5,0.1-0.7,0.1c-0.1,0-0.2,0-0.3,0.1h-1.3c-0.5,0-1-0.1-1.5-0.1c-0.7-0.1-1.3-0.3-1.9-0.6h-0.1c-0.7-0.2-1.3-0.6-1.9-0.9
						c-0.6-0.5-1-0.8-1.5-1.3c-0.5-0.5-0.9-0.9-1.4-1.5c-0.9-1-1.6-2.2-2.2-3.4c-1-2.1-1.7-4.2-2.1-6.5c-0.1-0.3-0.1-0.7-0.1-1
						c-0.2-1.6-0.2-3.1-0.1-4.8c0.1-1,0.2-2.2,0.5-3.3h0.2l0.2,0.1l0.3,0.1h0.1C10.2,41,10,42.3,10,43.6v1.6c0,0.7,0.1,1.4,0.1,2.1
						c0.2,2.6,0.9,5,2.1,7.3c1,2.3,2.8,4.2,4.9,5.7c0.5,0.3,1,0.7,1.6,0.9c0.3,0.1,0.7,0.2,1,0.5c0.2,0.1,0.3,0.1,0.6,0.1h0.3
						c0.1,0,0.3,0.1,0.6,0.1c0.1,0,0.2,0,0.5,0.1h0.5c0.5,0,0.8,0,1.3-0.1h0.7c0.1,0,0.2,0,0.2-0.1c0.1,0,0.1,0,0.1-0.1
						c0.1,0,0.2-0.1,0.3-0.1c0.6-0.2,1.2-0.3,1.6-0.7c1.5-0.8,2.9-1.9,4-3.3c1.5-2,2.3-4.5,2.2-7v-0.2c0-0.6-0.1-1-0.1-1.5
						c-0.1-0.3-0.1-0.6-0.2-0.9l-0.1-0.5l-0.1-0.5c-0.1-0.3-0.2-0.7-0.5-1c-0.3-0.8-0.8-1.6-1.4-2.3c-0.9-0.9-1.9-1.7-3-2.3
						l-0.1-0.1l-0.2-0.1L26.4,41l-0.5-0.1l-0.2-0.1l-0.2-0.1L25,40.5l-0.5-0.1h-1v-0.9h0.7l0.2,0.1l0.5,0.1l0.5,0.1l0.2,0.1l0.2,0.1
						l0.5,0.1l0.5,0.1l0.2,0.1l0.2,0.1c1.3,0.6,2.3,1.5,3.3,2.6C31.6,44.2,32.3,45.3,32.8,46.6z"/>
				</g>
				<g id="Group-39">
					<path id="Vector-41" class="st18" d="M32,45.2c0.2,0.5,0.5,0.9,0.6,1.5l0.1,0.5l0.1,0.5l0.2,1c0.1,0.3,0.1,0.7,0.1,0.9v0.1
						c0,0.3,0.1,0.6,0.1,0.9c0,1.4-0.2,2.7-0.6,4l-0.1,0.5l-0.1,0.5c-0.1,0.3-0.2,0.6-0.5,0.9c-0.3,0.6-0.7,1.2-1,1.7
						c-1.3,1.7-2.9,3-4.9,3.8c-0.1,0.1-0.2,0.1-0.3,0.1c-0.1,0.1-0.3,0.1-0.5,0.1s-0.2,0.1-0.3,0.1c-0.1,0-0.1,0.1-0.3,0.1
						c-0.1,0-0.1,0-0.1,0.1c-0.2,0.1-0.6,0.1-0.8,0.1h-2c-0.2,0-0.3,0-0.6-0.1c-0.1,0-0.5-0.1-0.6-0.1c-0.7-0.1-1.3-0.3-1.9-0.6
						c-0.6-0.2-1.2-0.6-1.7-0.9c-0.6-0.3-1-0.7-1.5-1.3c-0.5-0.5-0.9-0.9-1.4-1.5c-0.8-1-1.5-2.1-2.1-3.3c-0.5-0.9-0.8-1.9-1.2-2.9
						c-0.5-1.5-0.8-3.1-1-4.7c-0.1-1-0.1-2-0.1-3c0-0.5,0-1,0.1-1.5c0.1-1.2,0.2-2.2,0.5-3.4h0.1l0.2,0.1l0.3,0.1
						c-0.2,1.2-0.5,2.4-0.5,3.6v0.1c0,1.3,0,2.7,0.1,4c0.1,0.7,0.2,1.5,0.3,2.2c0.3,1.7,1,3.5,1.9,5.1c0.6,1.2,1.3,2.2,2.1,3.3
						c0.3,0.5,0.8,0.9,1.3,1.4c0.5,0.5,0.9,0.8,1.5,1.2c0.5,0.3,1,0.7,1.6,0.9c0.5,0.2,0.9,0.3,1.5,0.5c0.1,0,0.2,0,0.2,0.1H21
						c0.1,0,0.2,0,0.2,0.1c0.2,0,0.5,0.1,0.7,0.1h0.7c0.3,0,0.8,0,1.2-0.1h0.5c0.1,0,0.2-0.1,0.3-0.1h-0.5c0.1,0,0.2,0,0.5-0.1
						c0.1,0,0.2-0.1,0.3-0.1l1.3-0.5c1.6-0.8,3.1-2,4.2-3.5c1-1.4,1.7-2.9,2.1-4.7c0.1-0.8,0.2-1.6,0.2-2.4c0-0.6-0.1-1.3-0.2-1.9
						c0-0.2-0.1-0.3-0.1-0.6c0-0.1-0.1-0.2-0.1-0.3l-0.1-0.7L32,46.8c-0.3-0.9-0.7-1.7-1.3-2.6c-0.1-0.2-0.3-0.5-0.5-0.7
						c-0.3-0.5-0.8-0.9-1.3-1.3c-0.5-0.3-1-0.8-1.6-1l-0.1-0.1L26.8,41l-0.5-0.1l-0.5-0.1l-0.2-0.1l-0.2-0.1l-0.1-0.1L25,40.3
						l-0.5-0.1h-1v-0.7h1.2l0.3,0.1l0.5,0.1l0.2,0.1l0.2,0.1l0.5,0.1l0.1,0.1l0.2,0.1l0.2,0.1l0.2,0.1c1.2,0.6,2.3,1.4,3.1,2.4
						C31.1,43.6,31.5,44.4,32,45.2z"/>
				</g>
			</g>
			<g id="Group-40" class="st24">
				<g id="Group-41" class="st24">
					<path id="Vector-42" class="st25" d="M31.6,56v-0.3c0-0.1,0.1-0.1,0.1-0.3c0-0.1,0.1-0.1,0.1-0.1S32,55.1,32,55
						c0.3-0.9,0.5-1.7,0.6-2.7c0-0.6,0-1.3-0.1-1.9c0-0.3-0.1-0.7-0.1-1c0-0.2-0.1-0.3-0.1-0.6c0-0.1-0.1-0.1-0.1-0.2
						S32,48.5,32,48.3c-0.2-0.8-0.6-1.5-1-2.2c-0.1-0.2-0.2-0.3-0.3-0.6c-0.1-0.2-0.2-0.3-0.3-0.6c-0.2-0.3-0.6-0.7-0.8-1
						c-0.6-0.6-1.2-1.2-1.9-1.7c-0.7-0.5-1.4-0.8-2.1-1c-1.3-0.5-2.7-0.6-4.1-0.3c-0.9,0.2-1.9,0.5-2.7,0.7c-0.7,0.2-1,0.5-1,0.3
						c-0.1-0.1,0.2-0.3,0.8-0.8c0.8-0.6,1.7-1,2.8-1.3c1.5-0.3,3.1-0.3,4.7,0.1c0.9,0.2,1.7,0.7,2.4,1.3c0.8,0.6,1.6,1.2,2.2,2
						c0.3,0.3,0.6,0.7,0.9,1.2c0.1,0.2,0.2,0.3,0.5,0.6c0.1,0.2,0.2,0.5,0.3,0.7c0.5,0.8,0.7,1.6,1,2.6c0,0.1,0.1,0.2,0.1,0.3
						s0.1,0.2,0.1,0.3c0,0.2,0.1,0.5,0.1,0.6c0.1,0.3,0.1,0.8,0.1,1.2c0,0.7,0,1.4-0.1,2.1c-0.1,1-0.6,2-1.2,2.9
						c-0.1,0.1-0.1,0.1-0.1,0.2l-0.1,0.1l-0.2,0.2C31.8,56,31.6,56,31.6,56z"/>
					<path id="Vector-43" class="st26" d="M33.2,51L33,50.9c0-0.1-0.1-0.3-0.1-0.5c-0.1-0.2-0.1-0.5-0.1-0.7c0-0.1-0.1-0.3-0.1-0.5
						c0-0.2-0.1-0.3-0.1-0.5c-0.6-1.9-1.5-3.6-2.7-5c-0.7-0.8-1.5-1.5-2.4-2.1c-0.7-0.5-1.5-0.8-2.3-1c-1.4-0.5-2.4-0.5-2.4-0.5
						s0.2-0.1,0.7-0.1h0.8c0.1,0,0.3,0,0.5,0.1c0.2,0,0.3,0,0.6,0.1c0.9,0.2,1.9,0.6,2.7,0.9c1,0.6,1.9,1.3,2.7,2.2
						c1.4,1.6,2.3,3.5,2.7,5.5c0,0.1,0.1,0.5,0.1,0.6c0,0.1,0,0.3,0.1,0.5v0.8c0,0.2,0,0.5-0.1,0.5C33.2,51,33.2,51,33.2,51z"/>
					<path id="Vector-44" class="st27" d="M31.9,46c-0.1,0.1-0.7-1.3-1.9-2.6l-0.2-0.2L29.5,43c-0.1-0.1-0.2-0.3-0.5-0.5
						c-0.2-0.2-0.5-0.5-0.7-0.7c-0.5-0.5-0.7-0.6-0.7-0.7c0.3,0.1,0.6,0.2,0.8,0.5c0.2,0.1,0.5,0.5,0.8,0.7c0.1,0.1,0.3,0.2,0.5,0.5
						L30,43l0.2,0.2C30.9,43.9,31.5,45,31.9,46z"/>
				</g>
			</g>
			<g id="Group-42" class="st28">
				<g id="Group-43" class="st28">
					<path id="Vector-45" class="st29" d="M26.4,60.9c0,0.1-0.1,0.1-0.2,0.2c-0.1,0.1-0.2,0.2-0.3,0.2c-0.1,0.1-0.1,0.1-0.2,0.1
						c-0.1,0-0.1,0.1-0.2,0.1c-0.2,0.1-0.3,0.2-0.6,0.3l-0.7,0.2c-0.2,0.1-0.6,0.1-0.9,0.2c-0.1,0-0.3,0.1-0.5,0.1
						c-0.1,0-0.3,0.1-0.5,0.1c-0.8,0.1-1.6,0-2.4-0.1c-0.9-0.2-1.7-0.5-2.7-0.9c-1.9-1-3.5-2.4-4.7-4.3c-1.2-1.7-2-3.6-2.6-5.7
						c-0.5-1.6-0.7-3.3-0.7-4.9c-0.1-2.9,0.3-4.5,0.5-4.5c0.2,0,0.1,1.7,0.5,4.4c0.2,1.6,0.6,3.1,0.9,4.7c0.6,1.9,1.4,3.6,2.4,5.2
						c1,1.6,2.4,2.9,4.1,3.8c0.7,0.3,1.4,0.7,2.2,0.9c0.7,0.1,1.4,0.2,2.1,0.2H23c0.3,0,0.6-0.1,0.8-0.1c0.2-0.1,0.5-0.1,0.7-0.1
						c0.2,0,0.3-0.1,0.6-0.1c0.1,0,0.1-0.1,0.2-0.1c0.1,0,0.1-0.1,0.2-0.1s0.2-0.1,0.3-0.1C26.3,60.9,26.4,60.9,26.4,60.9z"/>
					<path id="Vector-46" class="st30" d="M20.7,62c0,0.1-0.2,0.1-0.7,0.1c-0.3,0-0.6-0.1-0.9-0.1c-0.2,0-0.3-0.1-0.6-0.1
						c-0.1,0-0.1-0.1-0.3-0.1c-0.1,0-0.1-0.1-0.3-0.1c-0.9-0.3-1.9-0.9-2.7-1.6c-0.9-0.8-1.9-1.7-2.6-2.8c-0.6-1-1.2-2.2-1.6-3.4
						c-0.3-0.9-0.7-2-0.9-3c-0.1-0.7-0.2-1.4-0.2-2.1c0-0.5,0-0.7,0.1-0.7s0.1,0.2,0.2,0.7c0.1,0.5,0.3,1.2,0.6,2
						c0.6,2.1,1.5,4.1,2.7,5.9c0.7,1,1.4,1.9,2.3,2.7c0.7,0.7,1.5,1.3,2.3,1.6c0.1,0.1,0.1,0.1,0.2,0.1s0.1,0.1,0.2,0.1l0.5,0.2
						c0.2,0.1,0.6,0.2,0.8,0.3C20.2,61.9,20.5,61.9,20.7,62z"/>
					<path id="Vector-47" class="st31" d="M15.4,59.5c0,0-0.1,0-0.2-0.1c-0.2-0.1-0.5-0.3-0.6-0.5c-0.6-0.6-1.2-1.3-1.6-2
						c-0.7-0.9-1.3-2.1-1.5-3.3c0.1,0,0.7,1.5,1.9,3.1c0.6,0.8,1.2,1.5,1.5,2c0.2,0.1,0.3,0.3,0.5,0.6
						C15.3,59.4,15.3,59.5,15.4,59.5z"/>
				</g>
			</g>
			<g id="Group-44" class="st32">
				<g id="Group-45" class="st32">
					<path id="Vector-48" class="st33" d="M47.6,49.6c0.1,0,0.2,0.8,0,2.1c0,0.1-0.1,0.3-0.1,0.5c0,0.2-0.1,0.3-0.1,0.5
						c-0.1,0.3-0.2,0.7-0.3,1.2c-0.3,0.8-0.8,1.6-1.3,2.4c-0.5,0.8-1,1.5-1.7,2.1c-0.2,0.3-0.6,0.6-0.9,0.8
						c-0.1,0.1-0.2,0.2-0.5,0.3c-0.1,0.1-0.2,0.1-0.5,0.2c-0.8,0.8-1.6,1-1.6,0.9c-0.1-0.1,0.5-0.6,1.4-1.4l0.3-0.3l0.3-0.3
						c0.2-0.2,0.5-0.6,0.7-0.8c0.6-0.7,1-1.4,1.5-2.1c0.5-0.7,0.8-1.5,1.3-2.2c0.1-0.3,0.3-0.7,0.5-1c0.1-0.1,0.1-0.3,0.1-0.5
						c0.1-0.1,0.1-0.3,0.1-0.5C47.3,50.4,47.5,49.6,47.6,49.6z"/>
					<path id="Vector-49" class="st34" d="M47.1,52.2c0.1,0,0.1,0.1,0,0.3c0,0.3-0.1,0.6-0.1,0.9c-0.3,0.9-0.8,1.9-1.3,2.7
						c-0.6,0.8-1.3,1.6-2,2.3c-0.2,0.2-0.6,0.5-0.7,0.6c-0.1,0.1-0.2,0.1-0.2,0.1c-0.1-0.1,1.3-1.4,2.4-3.4
						C46.4,53.9,46.9,52.2,47.1,52.2z"/>
					<path id="Vector-50" class="st35" d="M46.2,54.6c-0.1,0.6-0.3,1-0.7,1.5c-0.2,0.5-0.6,0.9-1,1.3c-0.1-0.1,0.3-0.7,0.8-1.4
						C45.9,55.3,46.1,54.6,46.2,54.6z"/>
				</g>
			</g>
			<path id="Vector-51" class="st0" d="M32,29l-0.3-0.7L30.1,29l0.5,1L32,29z"/>
			<path id="Vector-52" class="st0" d="M50.6,22.7h1.7l0.1,1l-1.9-0.2V22.7z"/>
			<path id="Vector-53" class="st36" d="M11.1,39.7c-0.2,1.2-0.3,2.2-0.5,3.4c-0.7-0.7-1.5-1.3-2.3-1.7c0.1-0.7,0.1-1.4,0.3-2.1
				l0.2,0.1l0.5,0.1h0.2l0.2,0.1l0.5,0.1h0.1l0.3,0.1L11.1,39.7z"/>
			<g id="Group-46">
				<g id="Group-47">
					<path id="Vector-54" class="st37" d="M17,31.9c1.6,3.4,0.2,7.3-3,9.1c0,0,0,0-0.1,0c-3.4,1.5-7.3,0.1-8.9-3.3
						c-1.6-3.4-0.2-7.3,3-9.1c0,0,0,0,0.1,0C11.4,27,15.3,28.5,17,31.9z"/>
					<path id="Vector-55" class="st38" d="M16.7,32.2c1.5,3.1,0.1,7-3,8.5l0,0c-3,1.4-6.8,0.1-8.2-3l0,0c-1.5-3.1-0.2-7,2.9-8.5l0,0
						c3-1.5,6.6-0.2,8.2,2.7C16.7,31.9,16.7,32,16.7,32.2z"/>
					<path id="Vector-56" class="st39" d="M16.6,32.3c1.4,3,0,6.6-3,8C11,41.6,7.9,40.5,6.5,38c-0.1-0.1-0.1-0.3-0.2-0.5
						c-1.5-2.9-0.2-6.5,2.7-8l0,0c2.6-1.4,5.8-0.5,7.3,2.1C16.4,31.8,16.5,32,16.6,32.3z"/>
					<path id="Vector-57" class="st23" d="M16.5,32.4c1.2,2.9-0.1,6.2-3,7.5c-2.4,1.2-5,0.3-6.4-2.7c-1.4-2.6-0.3-5.8,2.2-7.2
						c0.1,0,0.2-0.1,0.2-0.1C12.4,28.5,15.2,29.4,16.5,32.4z"/>
					<path id="Vector-58" class="st40" d="M16.3,32.5c1,2.7-0.2,5.8-2.9,6.9c-2.2,0.9-4.3,0.5-5.6-2.4c-1.3-2.3-0.3-5.2,1.9-6.4
						c0.1-0.1,0.3-0.1,0.5-0.2C12.8,29.1,15.2,29.7,16.3,32.5z"/>
				</g>
				<path id="Vector-59" class="st41" d="M15.9,30.4c0.3,0.3,0.6,0.8,0.9,1.3c0.2,0.5,0.5,0.9,0.6,1.5c1,3.1-0.6,6.6-3.6,7.9
					c3.5-2.1,4.5-6.6,2.4-10.1C16.1,30.8,16,30.5,15.9,30.4z"/>
				<path id="Vector-60" class="st42" d="M13.9,41c-0.5,0.2-1,0.5-1.6,0.6c-0.3,0.1-0.6,0.1-0.9,0.1h-0.8l-0.5-0.1
					c-0.1,0-0.2,0-0.5-0.1l-0.2-0.1l-0.2-0.1l-0.5-0.1L8.3,41l-0.2,0.1L8,41l-0.5-0.2l-0.5-0.2l-0.1-0.1l-0.1-0.1l-0.3-0.2l-0.3-0.3
					L6,39.6l-0.1-0.1L5.5,39l-0.3-0.5c-0.1-0.2-0.3-0.5-0.5-0.7c-0.5-1-0.7-2.2-0.7-3.5c0.1-1.2,0.5-2.3,1-3.4
					c0.7-1,1.6-1.9,2.7-2.4c1-0.5,2.3-0.7,3.5-0.7c1.2,0.1,2.3,0.5,3.3,1.2c-0.9-0.6-2.1-1-3.3-1c-1.2-0.1-2.3,0.2-3.4,0.7l-0.5,0.2
					C7.3,29,7.2,29,7.1,29.1c-0.2,0.1-0.5,0.3-0.7,0.5c-0.5,0.3-0.8,0.8-1,1.3c-0.6,1.2-0.9,2.3-0.9,3.5c-0.1,2.3,0.9,4.7,2.9,6.1
					C9.2,41.7,11.7,42.1,13.9,41z"/>
				<path id="Vector-61" class="st43" d="M16.3,32.3c1.5,2.8,0.3,6.3-2.4,7.8c0,0,0,0-0.1,0c-2.9,1.3-6.4,0-7.7-2.9
					c-1.5-2.8-0.3-6.3,2.4-7.8c0,0,0,0,0.1,0C11.5,28,15,29.4,16.3,32.3z"/>
				<path id="Vector-62" class="st44" d="M16,32.4c1.3,2.6,0.3,5.7-2.2,7c-0.1,0-0.2,0.1-0.2,0.1C11,40.8,8,39.7,6.8,37.2
					c0-0.1-0.1-0.2-0.1-0.3c-1.5-2.7-0.5-6.1,2.2-7.6l0,0C11.6,28.2,14.9,29.6,16,32.4z"/>
				<path id="Vector-63" class="st45" d="M13.4,39.7l-0.1,0.1c-2.4,1.3-5.5,0.2-6.8-2.3c-0.1-0.1-0.1-0.2-0.2-0.5
					c-1.4-2.9-0.5-6.4,2.1-7.6c0.1,0,0.1-0.1,0.1-0.1c-2.4,1.3-3.3,4.5-1.9,7.5C8,39.7,10.9,40.8,13.4,39.7z"/>
				<path id="Vector-64" class="st46" d="M13.6,39.5C13.6,39.5,13.6,39.6,13.6,39.5C13.6,39.6,13.6,39.6,13.6,39.5
					c-2.9,1.4-6.2,0.2-7.6-2.6c0,0,0,0,0-0.1c-1.3-2.8-0.1-6.2,2.7-7.6c0,0,0.1,0,0.1-0.1l0,0C6,30.6,5,34,6.5,36.8
					C7.8,39.5,10.9,40.7,13.6,39.5z"/>
				<g id="Group-48">
					<path id="Vector-65" class="st44" d="M4.8,35.4c-0.2-0.8-0.2-1.6,0-2.4c0.1-0.8,0.6-1.6,1.3-2.1c-0.1,0.3-0.3,0.7-0.5,1
						c-0.1,0.3-0.2,0.7-0.3,1.2c-0.1,0.5-0.1,0.7-0.2,1.2C5,34.6,5,34.9,4.8,35.4z"/>
					<path id="Vector-66" class="st47" d="M4.8,34.7c-0.1-0.6-0.1-1.2,0.1-1.9c0.1-0.6,0.5-1.2,0.8-1.6c-0.1,0.2-0.1,0.5-0.2,0.6
						c-0.1,0.3-0.2,0.8-0.3,1.2c-0.1,0.3-0.1,0.7-0.2,1.2C5,34.4,4.8,34.5,4.8,34.7z"/>
					<path id="Vector-67" class="st48" d="M4.8,34.1c0-0.5,0.1-0.8,0.1-1.3c0.1-0.5,0.2-0.8,0.5-1.2c-0.1,0.5-0.2,0.8-0.5,1.2
						C5,33.3,4.8,33.8,4.8,34.1z"/>
				</g>
				<g id="Group-49">
					<path id="Vector-68" class="st49" d="M11.6,28.4c0.7,0,1.4,0.1,2.1,0.5c0.6,0.3,1.2,0.8,1.5,1.4c-0.2-0.2-0.6-0.5-0.8-0.7
						c-0.2-0.1-0.6-0.3-0.8-0.5c-0.3-0.1-0.6-0.2-0.9-0.5C12.3,28.7,12,28.5,11.6,28.4z"/>
					<path id="Vector-69" class="st9" d="M12.2,28.5c0.5,0,1,0.1,1.5,0.5c0.5,0.2,0.9,0.6,1.3,1c-0.1-0.1-0.2-0.2-0.5-0.3
						c-0.2-0.2-0.6-0.3-0.9-0.5c-0.3-0.1-0.6-0.3-0.9-0.5C12.5,28.7,12.3,28.7,12.2,28.5z"/>
					<path id="Vector-70" class="st50" d="M12.7,28.7c0.3,0.1,0.7,0.2,1,0.3c0.3,0.1,0.6,0.3,0.9,0.6c-0.2-0.2-0.6-0.3-0.9-0.5
						C13.4,28.9,13,28.8,12.7,28.7z"/>
				</g>
			</g>
			<g id="Group-50">
				<g id="Group-51">
					<path id="Vector-71" class="st39" d="M32.8,35.8l2.3-0.8c0.1,0.3,0.2,0.7,0.5,0.9l0.5,1c0.3,0.7,0.7,1.3,1,1.9
						c0.7,1.2,1.6,2.3,2.6,3.3c0.5,0.5,1,0.9,1.5,1.3c0.6,0.3,1.2,0.7,1.7,0.9c1.2,0.5,2.6,0.6,3.8,0.3s2.3-0.8,3.1-1.9
						c0.5-0.5,0.8-1,0.9-1.6c0.2-0.6,0.5-1.3,0.6-1.9c0.2-1.4,0.3-2.8,0.2-4.2c0-0.7-0.1-1.4-0.1-2.1c-0.1-0.3-0.1-0.7-0.1-1
						c-0.1-0.3-0.1-0.7-0.1-0.9l2.3-0.6c0.1,0.5,0.1,0.8,0.2,1.2C54,32,54,32.3,54,32.7c0.1,0.7,0.1,1.5,0.2,2.3
						c0.1,1.6,0,3.3-0.3,4.8c-0.1,0.8-0.5,1.6-0.7,2.4c-0.3,0.8-0.8,1.5-1.3,2.2c-0.6,0.7-1.3,1.3-2.1,1.7c-0.2,0.1-0.3,0.2-0.6,0.3
						c-0.1,0.1-0.5,0.1-0.6,0.2c-0.2,0-0.5,0-0.7,0l-0.7,0.1c-1.7,0.3-3.5,0.1-5.1-0.5c-0.8-0.3-1.5-0.7-2.2-1.2
						c-0.7-0.5-1.3-1-1.9-1.5c-1.2-1.2-2.1-2.4-2.9-3.8c-0.5-0.7-0.8-1.4-1.2-2.1c-0.1-0.3-0.3-0.7-0.5-1
						C33.2,36.6,32.9,36.2,32.8,35.8z"/>
				</g>
				<g id="Group-52">
					<path id="Vector-72" class="st51" d="M33,35.8l1.9-0.7c0.1,0.3,0.2,0.7,0.5,1l0.5,0.9c0.3,0.7,0.7,1.3,1,1.9
						c0.7,1.3,1.6,2.3,2.7,3.4c0.5,0.5,1,0.9,1.5,1.3c0.6,0.5,1.2,0.7,1.9,0.9c1.3,0.5,2.6,0.6,3.8,0.3c1.3-0.1,2.4-0.8,3.3-1.9
						c0.3-0.5,0.7-1,0.9-1.6c0.2-0.7,0.5-1.3,0.6-2c0.2-1.4,0.3-2.8,0.2-4.3c0-0.7-0.1-1.4-0.1-2.1c-0.1-0.3-0.1-0.7-0.1-1
						c-0.1-0.3-0.1-0.7-0.1-1l2-0.5c0.1,0.5,0.1,0.7,0.2,1.2s0.1,0.7,0.1,1.2c0.1,0.7,0.1,1.5,0.2,2.3c0.1,1.6,0,3.1-0.3,4.7
						c-0.1,0.8-0.3,1.5-0.7,2.3c-0.3,0.8-0.8,1.5-1.3,2.1c-0.6,0.7-1.3,1.2-2,1.6c-0.2,0.1-0.3,0.2-0.6,0.3
						c-0.1,0.1-0.5,0.1-0.6,0.2L48,46.5l-0.8,0.3c-1.6,0.3-3.4,0.2-4.9-0.5c-0.7-0.3-1.5-0.7-2.2-1.2c-0.7-0.5-1.3-1-1.9-1.5
						c-1-1.2-2.1-2.3-2.9-3.7c-0.5-0.7-0.8-1.4-1.2-2.1c-0.1-0.3-0.3-0.7-0.5-1C33.4,36.6,33.2,36.1,33,35.8z"/>
				</g>
				<g id="Group-53">
					<path id="Vector-73" class="st52" d="M33.4,35.6l1.3-0.5c0.2,0.7,0.6,1.3,0.9,2c0.3,0.7,0.7,1.3,1,1.9c0.7,1.3,1.6,2.3,2.7,3.4
						c0.5,0.5,1,0.9,1.6,1.3c0.6,0.3,1.2,0.7,1.9,0.9c1.3,0.5,2.7,0.6,4.1,0.3c1.3-0.2,2.6-0.9,3.4-2c0.3-0.6,0.8-1.2,1-1.7
						c0.2-0.7,0.5-1.4,0.6-2.1c0.2-1.4,0.3-2.8,0.2-4.3c0-0.7-0.1-1.5-0.1-2.2c-0.1-0.7-0.2-1.4-0.5-2.1l1.3-0.3
						c0.2,0.8,0.3,1.5,0.5,2.3c0.1,0.8,0.1,1.5,0.1,2.3c0.1,1.5,0,3.1-0.2,4.7c-0.1,0.8-0.3,1.5-0.7,2.3c-0.3,0.8-0.7,1.5-1.3,2.1
						c-0.5,0.7-1.2,1.2-1.9,1.5c-0.2,0.1-0.3,0.2-0.6,0.2c-0.1,0.1-0.5,0.1-0.6,0.2L47.6,46L47,46.1c-1.6,0.3-3.3,0.2-4.8-0.5
						c-0.7-0.3-1.5-0.7-2.1-1.2c-0.7-0.5-1.3-0.9-1.9-1.5c-1-1-2.1-2.3-2.9-3.6c-0.5-0.7-0.8-1.3-1.2-2C33.9,37,33.6,36.3,33.4,35.6
						z"/>
				</g>
				<g id="Group-54">
					<path id="Vector-74" class="st53" d="M33.5,35.6l0.9-0.3c0.2,0.7,0.6,1.3,0.9,2c0.3,0.7,0.7,1.3,1,1.9c0.8,1.3,1.6,2.4,2.7,3.5
						c0.5,0.5,1,0.9,1.6,1.4s1.3,0.7,1.9,0.9c1.3,0.5,2.8,0.6,4.1,0.3c1.4-0.2,2.7-0.9,3.5-2.1c0.5-0.6,0.8-1.2,1-1.9
						c0.2-0.7,0.5-1.4,0.6-2.1c0.2-1.4,0.3-2.9,0.2-4.4c-0.1-1.5-0.2-2.9-0.6-4.4l1-0.2c0.3,1.5,0.5,3,0.6,4.5
						c0.1,1.5,0,3.1-0.2,4.7c-0.1,0.8-0.3,1.5-0.7,2.2c-0.3,0.7-0.7,1.4-1.3,2.1c-0.5,0.6-1.2,1.2-1.9,1.5c0.1,0.3-0.1,0.5-0.3,0.5
						c-0.2,0.1-0.3,0.2-0.6,0.2l-0.6,0.2l-0.6,0.1c-1.5,0.3-3.1,0.1-4.7-0.5c-0.7-0.2-1.4-0.6-2.1-1c-0.7-0.5-1.3-0.9-1.9-1.5
						c-1-1-2.1-2.3-2.9-3.6c-0.5-0.7-0.7-1.3-1.2-2C34.1,37,33.7,36.3,33.5,35.6z"/>
				</g>
				<g id="Group-55">
					<path id="Vector-75" class="st38" d="M33.6,35.5l0.6-0.2c0.6,1.4,1.2,2.7,2,4c0.8,1.3,1.6,2.4,2.7,3.5c0.5,0.5,1,0.9,1.6,1.4
						s1.3,0.7,1.9,1c1.4,0.5,2.9,0.6,4.3,0.3c1.4-0.2,2.7-0.9,3.6-2.1c0.5-0.6,0.8-1.2,1-1.9c0.2-0.7,0.5-1.4,0.6-2.1
						c0.2-1.4,0.3-2.9,0.2-4.4c-0.1-1.5-0.2-2.9-0.6-4.4l0.7-0.1c0.3,1.5,0.5,3,0.6,4.5c0.1,1.5,0,3-0.2,4.5
						c-0.1,0.8-0.3,1.5-0.7,2.2c-0.2,0.7-0.7,1.4-1.2,2c-0.5,0.6-1.2,1.2-1.9,1.5l-0.2,0.3c-0.2,0.1-0.3,0.2-0.6,0.2L47.5,46
						l-0.6,0.1c-1.5,0.3-3.1,0.2-4.7-0.5c-0.7-0.2-1.4-0.6-2.1-1s-1.3-0.9-1.9-1.5c-1-1-2-2.3-2.8-3.6
						C34.9,38.3,34.2,36.9,33.6,35.5z"/>
				</g>
			</g>
			<g id="Group-56">
				<g id="Group-57">
					<path id="Vector-76" class="st54" d="M48.4,45.6c-0.1-0.1,0.7-0.7,1.5-1.9c0.5-0.6,0.9-1.3,1.3-2.1c0.5-0.9,0.7-1.9,0.9-2.9
						c0.3-1.9,0.3-3.7,0.2-5.5c0-0.3-0.1-0.7-0.1-0.9v-0.7c0-0.5,0-0.7,0.1-0.7s0.1,0.1,0.3,0.6c0.1,0.2,0.2,0.5,0.2,0.7
						c0.1,0.3,0.2,0.7,0.2,1c0.3,1.9,0.3,3.8,0.1,5.8c-0.2,1-0.6,2.1-1,3c-0.5,0.8-0.9,1.5-1.5,2.1C49.5,45.3,48.5,45.7,48.4,45.6z"
						/>
					<path id="Vector-77" class="st55" d="M50.6,43.3c0-0.1,0-0.2,0.1-0.5c0.1-0.1,0.1-0.2,0.1-0.5c0.1-0.2,0.2-0.3,0.2-0.6
						c0.5-1,0.7-2.1,0.9-3.3c0.2-1.2,0.3-2.3,0.3-3.5c0-0.5,0-1,0.1-1.5c0.1,0,0.2,0.5,0.3,1.4c0.1,1.2,0,2.3-0.1,3.5
						c-0.2,1.2-0.6,2.3-1.3,3.4c-0.1,0.1-0.2,0.3-0.3,0.5c-0.1,0.1-0.2,0.2-0.3,0.3C50.9,43.3,50.7,43.5,50.6,43.3z"/>
					<path id="Vector-78" class="st6" d="M52,40.8c0.1-0.6,0.2-1.2,0.3-1.9c0.1-0.2,0.1-0.5,0.1-0.7s0.1-0.5,0.1-0.6
						c0.1-0.3,0.1-0.6,0.1-0.6s0.1,0.2,0.1,0.6c0,0.2,0,0.3-0.1,0.6c0,0.2-0.1,0.5-0.1,0.7C52.6,39.6,52.4,40.2,52,40.8z"/>
				</g>
			</g>
			<g id="Group-58">
				<g id="Group-59">
					<path id="Vector-79" class="st1" d="M34.3,33.7l-0.1,0.1l-0.1,0.1C34,33.9,34,34,34,34c-0.1,0-0.1,0.1-0.3,0.1H33
						c-0.1,0-0.1,0-0.1-0.1c-0.1,0-0.1,0-0.1-0.1c-0.1,0-0.1-0.1-0.2-0.1c-0.2-0.1-0.5-0.2-0.7-0.5l-1.5-3.3c0-0.1-0.1-0.2-0.1-0.5
						c0,0,0-0.1,0.1-0.1l0,0l0.2-0.1l0.7-0.5l0.1-0.1l0.3-0.1l0.1-0.1l0.1-0.1c0,0,0.1,0,0.1,0.1C32.3,29.1,34.3,33.7,34.3,33.7z"/>
					<path id="Vector-80" class="st56" d="M32,28.8l2.1,4.9L34,33.8l-2.1-4.9L32,28.8z"/>
					<g id="Group-60">
						<path id="Vector-81" class="st57" d="M31.9,28.9l2.1,4.9c-0.1,0-0.1,0.1-0.1,0.1S33.6,34,33.5,34h-0.1l-2.1-4.9l0.1-0.1
							l0.3-0.1C31.8,28.9,31.9,28.9,31.9,28.9z"/>
					</g>
					<g id="Group-61">
						<path id="Vector-82" class="st58" d="M31.6,28.9l2.1,4.9c-0.1,0-0.1,0.1-0.3,0.1L31.3,29L31.6,28.9z"/>
					</g>
					<g id="Group-62">
						<g id="Group-63">
							<path id="Vector-83" class="st59" d="M31.1,29.4l2,4.7c-0.1,0-0.1,0-0.1-0.1c-0.1,0-0.1,0-0.1-0.1c-0.1,0-0.1-0.1-0.2-0.1
								l-1.9-4.2L31.1,29.4z"/>
						</g>
						<g id="Group-64">
							<path id="Vector-84" class="st60" d="M30.8,29.5l1.9,4.4c-0.1,0-0.1,0-0.1-0.1L30.8,29.5L30.8,29.5z"/>
						</g>
					</g>
					<g id="Group-65">
						<path id="Vector-85" class="st61" d="M32,28.8c-0.3,0.3-0.7,0.6-1,0.7c-0.2,0.1-0.5,0.1-0.7,0.1c0,0,0-0.1,0.1-0.1l0,0l1-0.6
							L32,28.8z"/>
					</g>
					<path id="Vector-86" class="st62" d="M31.5,29c-0.1,0.1-0.1,0.1-0.1,0.1c-0.2,0.2-0.5,0.3-0.8,0.3l0.8-0.5H31.5z"/>
				</g>
				<path id="Vector-87" class="st63" d="M34.3,33.7c-0.1,0.1-0.2,0.1-0.3,0.1c-0.1,0.1-0.2,0.1-0.3,0.1C33.5,34,33.4,34,33.3,34
					h-0.3c-0.1,0-0.2-0.1-0.3-0.1c-0.1-0.1-0.2-0.1-0.3-0.1c-0.2-0.1-0.5-0.2-0.6-0.5c0.2,0.1,0.3,0.2,0.6,0.3l0.3,0.1
					c0.1,0,0.2,0.1,0.3,0.1c0.2,0,0.5,0,0.7-0.1c0.1,0,0.2-0.1,0.3-0.1S34.2,33.7,34.3,33.7z"/>
			</g>
			<g id="Group-66">
				<g id="Group-67">
					<path id="Vector-88" class="st1" d="M50.9,28.7h0.6c0.1,0,0.2,0,0.3-0.1c0.1,0,0.1,0,0.1-0.1c0.1-0.1,0.2-0.1,0.3-0.1l0.1-0.1
						l0.1-0.1l0.1-0.1c0.2-0.2,0.3-0.5,0.5-0.7l-0.3-3.5c0,0,0-0.2-0.1-0.3l-0.1-0.1h-1.9c0,0-0.1,0-0.1,0.2
						C50.6,25.3,50.6,27,50.9,28.7z"/>
					<path id="Vector-89" class="st56" d="M50.5,23.3l0.6,5.4h0.1l-0.6-5.4H50.5z"/>
					<g id="Group-68">
						<path id="Vector-90" class="st57" d="M50.6,23.3l0.6,5.4h0.1c0.1,0,0.2,0,0.3-0.1c0.1,0,0.1,0,0.1-0.1l-0.6-5.2h-0.5
							L50.6,23.3z"/>
					</g>
					<g id="Group-69">
						<path id="Vector-91" class="st58" d="M50.9,23.3l0.6,5.4c0.1,0,0.2,0,0.3-0.1l-0.7-5.2H50.9z"/>
					</g>
					<g id="Group-70">
						<g id="Group-71">
							<path id="Vector-92" class="st59" d="M51.7,23.3l0.5,4.9l0.1-0.1l0.1-0.1l0.1-0.1l-0.3-4.5H51.7z"/>
						</g>
						<g id="Group-72">
							<path id="Vector-93" class="st60" d="M51.8,23.3l0.5,4.9l0.1-0.1l-0.5-4.7h-0.1V23.3z"/>
						</g>
					</g>
					<g id="Group-73">
						<path id="Vector-94" class="st61" d="M50.5,23.3c0.5,0.2,0.8,0.2,1.3,0.2c0.2,0,0.5-0.1,0.7-0.1l-0.1-0.1h-1.3H50.5z"/>
					</g>
					<path id="Vector-95" class="st62" d="M51,23.3h0.2c0.3,0,0.6,0,0.9-0.1h-0.9L51,23.3z"/>
				</g>
				<path id="Vector-96" class="st63" d="M50.9,28.7h0.7c0.1,0,0.2-0.1,0.3-0.1c0.1-0.1,0.2-0.1,0.3-0.1l0.2-0.2l0.2-0.2
					c0.1-0.2,0.2-0.5,0.2-0.7c-0.1,0.2-0.2,0.3-0.3,0.6l-0.3,0.3L52,28.4c-0.1,0.1-0.3,0.2-0.6,0.2c-0.1,0-0.2,0.1-0.3,0.1h-0.2
					V28.7z"/>
			</g>
		</g>
		<path id="Vector-97" class="st0" d="M29.2,3.3c-0.2,0.1-0.6,0.2-0.8,0.5l0.7,1.5l1-0.5L29.2,3.3z"/>
		<path id="Vector-98" class="st0" d="M39.1,0.9c0.3-0.1,0.6-0.1,0.9-0.1l0.3,1.6l-1.2,0.1C39.1,2,39.1,1.5,39.1,0.9z"/>
		<g id="Group-74">
			<g id="Group-75">
				<path id="Vector-99" class="st64" d="M32.2,4.7L30,5.4h-0.1c0,0-0.1,0-0.1-0.1l0,0l-0.9-2.1V3c0-0.1,0-0.1,0-0.2l2-1.3
					c0.3-0.1,0.6-0.1,0.8,0c0.2,0.1,0.5,0.2,0.7,0.3c0.1,0.1,0.2,0.2,0.3,0.5L33,3c0.1,0.2,0.1,0.5,0.1,0.7c0,0.1,0,0.1-0.1,0.1
					C32.9,4.2,32.6,4.4,32.2,4.7z"/>
			</g>
			<path id="Vector-100" class="st65" d="M32.2,4.7L30,5.4h-0.1c0,0-0.1,0-0.1-0.1l0,0l-0.9-2.1V3c0-0.1,0-0.1,0-0.2l2-1.3
				c0.2,0.1,0.3,0.3,0.5,0.6c0.1,0.1,0.1,0.2,0.1,0.3c0.1,0.1,0.1,0.2,0.1,0.3c0.1,0.1,0.1,0.2,0.1,0.3c0.1,0.1,0.1,0.2,0.1,0.3
				c0.1,0.1,0.1,0.2,0.1,0.5C32.2,4.1,32.3,4.4,32.2,4.7z"/>
			<path id="Vector-101" class="st66" d="M32.2,4.4L30,5.2h-0.1c0,0-0.1,0-0.1-0.1l0,0l-0.9-1.9V3.1C28.8,3,29,3,29,3l2-1.3
				c0.3,0.2,0.6,0.5,0.7,0.8C32.1,3.1,32.3,3.8,32.2,4.4z"/>
			<path id="Vector-102" class="st67" d="M32.2,4.4c0-0.2-0.1-0.5-0.1-0.7c0-0.1-0.1-0.2-0.1-0.3c-0.1-0.1-0.1-0.2-0.1-0.3
				c-0.1-0.1-0.1-0.2-0.1-0.3c-0.1-0.1-0.1-0.2-0.1-0.3c-0.1-0.1-0.1-0.2-0.1-0.3c-0.3,0-0.3-0.1-0.6-0.3c0.2,0.2,0.5,0.5,0.7,0.7
				C32.1,3,32.2,3.7,32.2,4.4z"/>
			<g id="Group-76">
				<path id="Vector-103" class="st68" d="M33,3.6c-0.3-0.5-0.6-1-0.7-1.6V1.9l0.2,0.2l0.1,0.1L33,2.9c-0.1,0.1,0,0.3,0,0.5V3.6z"/>
			</g>
			<path id="Vector-104" class="st69" d="M33,3.3c-0.1-0.1-0.1-0.2-0.2-0.5c-0.1-0.1-0.1-0.2-0.1-0.3c0-0.1-0.1-0.2-0.1-0.3l0.1,0.1
				L33,2.9C32.9,3,33,3.1,33,3.3z"/>
			<g id="Group-77" class="st24">
				<path id="Vector-105" class="st70" d="M32.1,3.8l-2.6,0.9L29,3.6l2.4-1.4c0.1,0.1,0.1,0.2,0.1,0.3c0.1,0.1,0.1,0.2,0.1,0.3
					c0.1,0.1,0.1,0.2,0.1,0.3c0.1,0.1,0.1,0.2,0.1,0.3C32.1,3.6,32.1,3.7,32.1,3.8z"/>
				<path id="Vector-106" class="st71" d="M32,3.6l-2.6,1L29.1,4l2.4-1.3c0.1,0.1,0.1,0.2,0.1,0.3c0.1,0.1,0.1,0.2,0.1,0.3
					C32,3.4,32,3.5,32,3.6z"/>
				<path id="Vector-107" class="st72" d="M31.9,3.1l-2.6,1.2l-0.1-0.2l2.4-1.3C31.8,3,31.9,3,31.9,3.1z"/>
			</g>
			<g id="Group-78" class="st73">
				<path id="Vector-108" class="st74" d="M32.5,3.8c-0.1,0-0.1-0.5-0.3-0.9c-0.2-0.5-0.6-0.8-0.5-0.9c0.1-0.1,0.6,0.1,0.9,0.7
					C32.8,3.4,32.6,3.8,32.5,3.8z"/>
				<path id="Vector-109" class="st75" d="M32.5,3.4c-0.1,0-0.1-0.2-0.2-0.5C32.1,2.8,32,2.6,32,2.3c0.1,0.1,0.2,0.2,0.3,0.3
					C32.6,3.1,32.6,3.4,32.5,3.4z"/>
			</g>
		</g>
		<g id="Group-79">
			<g id="Group-80">
				<path id="Vector-110" class="st64" d="M36.9,0.6l2.3-0.2h0.1l0.1,0.1L40,2.7v0.1c0,0.1-0.1,0.1-0.1,0.1l-2.1,0.8
					c-0.2,0-0.6,0-0.8-0.1c-0.2-0.1-0.5-0.2-0.6-0.5c-0.1-0.1-0.1-0.2-0.2-0.5L36.1,2c-0.2,0-0.2-0.3-0.1-0.6c0-0.1,0-0.1,0.1-0.1
					C36.2,0.9,36.5,0.7,36.9,0.6z"/>
			</g>
			<path id="Vector-111" class="st65" d="M36.9,0.6l2.3-0.2h0.1l0.1,0.1L40,2.7v0.1c0,0.1-0.1,0.1-0.1,0.1l-2.1,0.8
				c-0.1-0.2-0.3-0.5-0.5-0.7c-0.1-0.1-0.1-0.2-0.1-0.3c-0.1,0-0.2-0.1-0.2-0.2s0-0.2,0-0.2S36.9,2,36.9,1.9c0-0.1,0-0.2-0.1-0.3
				C36.8,1.2,36.8,0.9,36.9,0.6z"/>
			<path id="Vector-112" class="st66" d="M36.9,0.7c0,0,2.3-0.3,2.4-0.3h0.1l0.1,0.1L40,2.6v0.1c0,0.1-0.1,0.1-0.1,0.1l-2.2,0.8
				c-0.2-0.2-0.5-0.5-0.6-0.8C36.8,2.2,36.7,1.4,36.9,0.7z"/>
			<path id="Vector-113" class="st67" d="M36.9,0.7v0.7c0,0.1,0,0.2,0.1,0.3c0,0.1,0.1,0.2,0.1,0.3c-0.1,0.1,0,0.2,0,0.5
				c0,0.1,0.1,0.2,0.1,0.3c0,0.1,0.1,0.2,0.1,0.3c0.1,0.2,0.1,0.5,0.3,0.6c-0.2-0.2-0.5-0.6-0.6-0.9C36.8,2.2,36.7,1.4,36.9,0.7z"/>
			<g id="Group-81">
				<path id="Vector-114" class="st68" d="M36,1.4c0.2,0.6,0.3,1.2,0.3,1.7v0.1c-0.1-0.1-0.1-0.2-0.1-0.3v0l-0.1-0.7
					c0-0.1-0.1-0.2,0-0.5C36,1.7,36,1.5,36,1.4z"/>
			</g>
			<path id="Vector-115" class="st69" d="M36,1.9c0.1,0.1,0.1,0.3,0.1,0.5s0.1,0.2,0.1,0.3v0.2l-0.1-0.7C36,2.1,36,2,36,1.9z"/>
			<g id="Group-82" class="st24">
				<path id="Vector-116" class="st70" d="M36.9,1.4l2.7-0.5l0.3,1.3l-2.7,0.9c-0.1-0.1-0.1-0.2-0.1-0.3c0-0.1-0.1-0.2-0.1-0.3
					s0-0.2,0-0.2S36.9,2,36.9,1.9C36.9,1.6,36.9,1.5,36.9,1.4z"/>
				<path id="Vector-117" class="st71" d="M36.9,1.7l2.7-0.5L39.7,2L37,2.8c0.1-0.1,0-0.2,0-0.3s0-0.2,0-0.2C37,2,36.9,1.9,36.9,1.7
					z"/>
				<path id="Vector-118" class="st72" d="M37,2.1l2.7-0.6l0.1,0.2l-2.7,0.7C37.1,2.3,37,2.2,37,2.1z"/>
			</g>
			<g id="Group-83" class="st73">
				<path id="Vector-119" class="st74" d="M36.5,1.3c0.1,0,0,0.5,0.1,1c0.1,0.5,0.5,0.9,0.3,0.9S36.4,3,36.3,2.3
					C36.2,2,36.3,1.5,36.5,1.3z"/>
				<path id="Vector-120" class="st75" d="M36.5,1.7c0.1,0,0.1,0.2,0.1,0.6c0.1,0.3,0.1,0.6,0.1,0.6c-0.1,0-0.2-0.2-0.3-0.5
					C36.3,2.1,36.4,1.7,36.5,1.7z"/>
			</g>
		</g>
	</g>
</g>
</svg>
