<?xml version="1.0" encoding="utf-8"?>
<!-- Generator: Adobe Illustrator 25.0.0, SVG Export Plug-In . SVG Version: 6.00 Build 0)  -->
<svg version="1.1" id="Layer_1" xmlns="http://www.w3.org/2000/svg" xmlns:xlink="http://www.w3.org/1999/xlink" x="0px" y="0px"
	 viewBox="0 0 87.4 75.9" style="enable-background:new 0 0 87.4 75.9;" xml:space="preserve">
<style type="text/css">
	.st0{fill:none;}
	.st1{fill:url(#Vector-2_1_);}
	.st2{fill:url(#Vector-3_1_);}
	.st3{fill:url(#Vector-4_1_);}
	.st4{fill:url(#Vector-5_1_);}
</style>
<g id="Layer_x0020_1_1_">
	<path id="Vector" class="st0" d="M4-3.1h82v82H4V-3.1z"/>
	<g id="_2495296918544_1_">
		
			<linearGradient id="Vector-2_1_" gradientUnits="userSpaceOnUse" x1="-991.0157" y1="1179.1877" x2="-991.0157" y2="1177.8567" gradientTransform="matrix(44.2942 0 0 -47.2553 43947.0508 55726.2109)">
			<stop  offset="0" style="stop-color:#64C0ED"/>
			<stop  offset="1" style="stop-color:#417CBF"/>
		</linearGradient>
		<path id="Vector-2" class="st1" d="M79.8,44.8c4.9-5.2,4.3-9.9-0.1-14c-6.8-6-14.2-11.3-22.2-15.7c-7.8-4.5-16-8.3-24.5-11.3
			c-4.8-1.7-10.1,0.8-11.8,5.6c-0.2,0.4-0.3,0.9-0.3,1.4c-3.3,17.9-3.3,36.2-0.1,54.1c0.9,5,5.7,8.3,10.7,7.4c0.5-0.1,1-0.2,1.4-0.4
			c8.6-3.1,17-7,24.9-11.6C65.8,55.8,73.6,51.2,79.8,44.8z"/>
		
			<linearGradient id="Vector-3_1_" gradientUnits="userSpaceOnUse" x1="-966.6223" y1="1177.9146" x2="-966.6223" y2="1176.6246" gradientTransform="matrix(9.8405 0 0 -37.1918 9525.959 43819.5078)">
			<stop  offset="0" style="stop-color:#F8B839"/>
			<stop  offset="1" style="stop-color:#F47538"/>
		</linearGradient>
		<path id="Vector-3" class="st2" d="M20.8,11.5c-0.2,0-0.5-0.1-0.7-0.2C15.3,9.8,11,11.5,9,16.8c-2.4,6.6-2.3,14-2.3,21.2
			c0,7.2-0.1,14.5,2.2,21.1c2.1,6.1,6.3,7,11.1,5.5c0.2-0.1,0.8-0.4,1-0.4c-1.7-8.6-2.6-17.4-2.8-26.2
			C18.4,29.1,19.3,20.3,20.8,11.5z"/>
		
			<linearGradient id="Vector-4_1_" gradientUnits="userSpaceOnUse" x1="-988.5647" y1="1177.7625" x2="-988.5647" y2="1176.4548" gradientTransform="matrix(32.8968 0 0 -36.269 32563.0996 42727.7031)">
			<stop  offset="0" style="stop-color:#B3D334"/>
			<stop  offset="1" style="stop-color:#61BB46"/>
		</linearGradient>
		<path id="Vector-4" class="st3" d="M20.8,11.4C17.6,29,17.6,47,20.7,64.5c7.7-2.4,15.2-5.4,22.4-9c7.2-3.4,13.9-7.4,20.2-12.2
			c4.5-3.6,4-7.7-0.1-11c-6.4-4.8-13.3-8.9-20.6-12.2C35.7,16.6,28.3,13.7,20.8,11.4z"/>
		
			<linearGradient id="Vector-5_1_" gradientUnits="userSpaceOnUse" x1="-979.6964" y1="1170.7944" x2="-979.6964" y2="1169.6771" gradientTransform="matrix(17.1997 0 0 -16.9727 16890.9766 19897.1309)">
			<stop  offset="0" style="stop-color:#FFFFFF"/>
			<stop  offset="0.6" style="stop-color:#FFFFFF"/>
			<stop  offset="1" style="stop-color:#E5F0D2"/>
		</linearGradient>
		<path id="Vector-5" class="st4" d="M28.6,27c0,0-0.7,1.1-0.7,10.9c0,9.9,0.7,11.1,0.7,11.1c0.2,1.2,0.8,1.6,2.1,1.3
			c0,0,2.2-0.3,11.1-4.8s10.4-6.2,10.4-6.2c1-1,1.2-1.6,0-2.6c0,0-2.4-2.2-10.4-6.3c-7.8-4-11.1-4.7-11.1-4.7
			C29.6,25.3,28.9,25.7,28.6,27z"/>
	</g>
	<path id="Vector-6" class="st0" d="M4-3.1h82v82H4V-3.1z"/>
</g>
</svg>
