<?xml version="1.0" encoding="utf-8"?>
<!-- Generator: Adobe Illustrator 25.0.0, SVG Export Plug-In . SVG Version: 6.00 Build 0)  -->
<svg version="1.1" id="Layer_1" xmlns="http://www.w3.org/2000/svg" xmlns:xlink="http://www.w3.org/1999/xlink" x="0px" y="0px"
	 viewBox="0 0 72.8 24" style="enable-background:new 0 0 72.8 24;" xml:space="preserve">
<style type="text/css">
	.st0{fill:#61BE78;}
</style>
<path id="XMLID_2_" class="st0" d="M44.6,24h5.8V0h-5.8V24z M34.4,17.2c0,0.9-0.7,1.5-1.5,1.6c0,0,0,0,0,0h-3.4
	c-0.9,0-1.6-0.7-1.6-1.6V7.5h-5.8v10.2c0,4.2,2.7,6.3,6.6,6.3h5.7c3.6,0,5.8-2.6,5.8-6.3V7.5h-5.8C34.4,7.5,34.4,16.9,34.4,17.2
	L34.4,17.2z M67.1,7.5v9.7c0,0.9-0.7,1.5-1.5,1.6c0,0,0,0,0,0h-3.4c-0.9,0-1.5-0.7-1.6-1.5c0,0,0,0,0,0V7.5h-5.8v10.2
	c0,4.2,2.7,6.3,6.6,6.3H67c3.6,0,5.8-2.6,5.8-6.3V7.5H67.1z M11.5,7.5H7.7c-0.7,0-1.3,0.1-2,0.4V0H0v24h5.8v-9.7
	c0-0.9,0.7-1.5,1.6-1.6h3.4c0.9,0,1.5,0.7,1.6,1.5c0,0,0,0,0,0V24h5.8V13.6C18,9.2,15.1,7.5,11.5,7.5L11.5,7.5z"/>
</svg>
