<?xml version="1.0" encoding="utf-8"?>
<!-- Generator: Adobe Illustrator 25.0.0, SVG Export Plug-In . SVG Version: 6.00 Build 0)  -->
<svg version="1.1" id="Layer_1" xmlns="http://www.w3.org/2000/svg" xmlns:xlink="http://www.w3.org/1999/xlink" x="0px" y="0px"
	 viewBox="0 0 62 64.9" style="enable-background:new 0 0 62 64.9;" xml:space="preserve">
<style type="text/css">
	.st0{fill:#1D75BC;}
	.st1{fill:url(#Vector-2_1_);}
	.st2{fill:url(#Vector-3_1_);}
	.st3{fill:#FFFFFF;}
	.st4{fill:url(#Vector-5_1_);}
</style>
<g id="dc_comic">
	<path id="Vector" class="st0" d="M55.9,50c1.2-5.9-0.7-13.6-5.3-21.2l0.2-0.9L54,15.8l0.5-2H41.6c-1.1,0-2.2,0.3-3.2,0.6
		C26.2,4,12.1,0.8,5.2,7.5c-6,5.9-4.6,17.7,2.7,29l-2.1,8.3l-0.5,2h11c12.9,12.5,28.8,16.9,36.2,9.7c1.6-1.6,2.7-3.5,3.2-5.7
		c0.2-0.2,0.3-0.5,0.4-0.7L55.9,50z M51,46.5c-2.8,3-8.3,2.9-14.6,0.3H39c2.4,0,7.5-1.9,9.3-8.8l1.5-6.2l0-0.1
		C53.2,37.8,53.9,43.4,51,46.5z M12.2,11.3c4-4.4,13.8-2.3,23.3,4.6c-0.8,0.6-1.6,1.3-2.2,2.1c-0.1-0.9-0.5-1.8-1-2.6
		c-0.9-1.1-2.3-1.8-3.7-1.8H14.1l-0.3,1.2l-1.6,6.1L10.7,19C10.1,15.8,10.5,13.1,12.2,11.3z"/>
	<g id="Group">
		
			<linearGradient id="Vector-2_1_" gradientUnits="userSpaceOnUse" x1="-993.4435" y1="1134.8378" x2="-991.8935" y2="1133.6578" gradientTransform="matrix(27.9365 0 0 -34.99 27756.8027 39723.8477)">
			<stop  offset="0" style="stop-color:#62A6DB"/>
			<stop  offset="0.17" style="stop-color:#FFFFFF"/>
			<stop  offset="0.66" style="stop-color:#FFFFFF"/>
			<stop  offset="1" style="stop-color:#62A6DB"/>
		</linearGradient>
		<path id="Vector-2" class="st1" d="M26.5,40.1c0,0,2.7-9.4,4.8-17.4s-3-7.4-3-7.4H15.3l-4,15.3c0.3-1.4-0.7-1.7-0.7-1.7l1.5-5
			L9,19.4c-1.8-2.7-2.6-5.9-2.2-9.1c0,0-3,2.2-3,7.6c0,8.8,10,19.1,10,19.1c-1.5-1.6-4.2-1.2-4.2-1.2l-2.3,9.5h9.6
			C25.5,45.3,26.5,40.1,26.5,40.1z M24.1,21.7c-0.8,3-4.6,16.6-4.6,16.6c-0.4,2.1-2.2,3.6-4.4,3.5c0,0,0.8-0.3,1.6-3.2l4.7-17.8
			c0,0,0.8-2.3-0.5-2.3h2.3C23.3,18.6,24.9,18.7,24.1,21.7z"/>
		
			<linearGradient id="Vector-3_1_" gradientUnits="userSpaceOnUse" x1="-994.5315" y1="1120.7236" x2="-993.7475" y2="1119.6107" gradientTransform="matrix(31.37 0 0 -11.861 31225.5391 13334.3779)">
			<stop  offset="0" style="stop-color:#62A6DB"/>
			<stop  offset="0.17" style="stop-color:#FFFFFF"/>
			<stop  offset="0.66" style="stop-color:#FFFFFF"/>
			<stop  offset="1" style="stop-color:#62A6DB"/>
		</linearGradient>
		<path id="Vector-3" class="st2" d="M47.8,52.1c-9.2,0-20.9-9.7-20.9-9.7c-1.4,3.2-3.6,3.1-3.6,3.1s10.9,8.8,22,8.8
			c7.2,0,9.4-4.9,9.4-4.9S53.1,52.1,47.8,52.1z"/>
	</g>
	<path id="Vector-4" class="st3" d="M29.9,43.8c0.7,0.4,2.7,1.4,2.7,1.4h6.4c1.9,0,6.2-1.5,7.7-7.6l1.5-6.2h-7.6l-1.7,6.5
		c-0.3,2.2-2.2,3.9-4.5,3.8c0.2-0.1,0.9-0.6,1.8-4.1C37.4,33.2,40,23,40,23s1-4.5,5.2-4.5c0,0-1.1,0.1-2.2,4.1
		c-1.1,4-1.4,4.9-1.4,4.9h7.7l3.1-12.1H41.6c0,0-6.9-0.1-9.2,8.1s-4.9,18.6-4.9,18.6S29.3,43.5,29.9,43.8z"/>
	
		<linearGradient id="Vector-5_1_" gradientUnits="userSpaceOnUse" x1="-981.0027" y1="1129.1476" x2="-981.5837" y2="1128.8005" gradientTransform="matrix(13.568 0 0 -20.222 13365.1562 22878.0137)">
		<stop  offset="0" style="stop-color:#1D75BC"/>
		<stop  offset="1" style="stop-color:#62A6DB"/>
	</linearGradient>
	<path id="Vector-5" class="st4" d="M54.5,34.8c0.8,1.2,1.4,2.5,1.8,3.8c0.6,2.1,0.9,3.9,0.9,3.9l3.2,2.8c0,0-0.1,1-2.2,2.3L58,55
		c-0.8-2.1-1.9-4-3.3-5.7c0,0-1.8,2.2-7.2,2.2l-0.1-0.1c2.2-1.6,3.8-3.9,4.5-6.5c-1.4-2.5-3.1-4.8-5.1-6.8c2.4,0.1,4.7,0.8,6.7,2
		C54.2,38.5,54.6,36.7,54.5,34.8z"/>
	<path id="Vector-6" class="st3" d="M55.1,37.1c0.5,1,0.9,2.1,1.2,3.1c0.3,1,0.4,2,0.5,3l2.6,2c0,0-0.2,0.8-1.8,1.8l0,5.2
		c-0.6-1.4-1.3-2.7-2.3-3.9c0,0-1.3,1.7-5.2,1.7l-0.1,0c1.8-1.3,3.1-3.1,3.7-5.3c-1.2-1.8-2.6-3.5-4.2-5.1c1.8,0.3,3.5,1,5,2
		C54.9,40.2,55.1,38.7,55.1,37.1z"/>
</g>
</svg>
