<?xml version="1.0" encoding="utf-8"?>
<!-- Generator: Adobe Illustrator 25.0.0, SVG Export Plug-In . SVG Version: 6.00 Build 0)  -->
<svg version="1.1" id="Layer_1" xmlns="http://www.w3.org/2000/svg" xmlns:xlink="http://www.w3.org/1999/xlink" x="0px" y="0px"
	 viewBox="0 0 70.7 32" style="enable-background:new 0 0 70.7 32;" xml:space="preserve">
<style type="text/css">
	.st0{fill:#EC1F27;}
	.st1{fill:#FFFFFF;}
	.st2{fill:none;stroke:#FFFFFF;stroke-width:0.25;}
</style>
<g id="Group">
	<path id="Vector" class="st0" d="M0,0h70.7v32H0V0z"/>
	<path id="Vector-2" class="st1" d="M61.1,4.5h4v18.8h3.4V28h-7.3V4.5z"/>
	<g id="Group-2">
		<path id="Vector-3" class="st2" d="M68.7,5.8c0,0.8-0.7,1.5-1.5,1.5s-1.5-0.7-1.5-1.5s0.7-1.5,1.5-1.5c0,0,0,0,0,0
			C68,4.3,68.7,5,68.7,5.8z"/>
		<path id="Vector-4" class="st1" d="M66.6,6.6V5h0.7c0.1,0,0.2,0,0.3,0c0.1,0,0.1,0.1,0.2,0.2c0,0.1,0.1,0.2,0.1,0.2
			c0,0.1,0,0.2-0.1,0.3c-0.1,0.1-0.2,0.1-0.3,0.2c0.1,0,0.1,0.1,0.1,0.1c0.1,0.1,0.1,0.1,0.2,0.2L68,6.6h-0.3l-0.2-0.3
			c0-0.1-0.1-0.2-0.2-0.2c0,0-0.1-0.1-0.1-0.1c0,0-0.1,0-0.1,0h-0.4v0.7L66.6,6.6L66.6,6.6z M66.8,5.7h0.4c0.1,0,0.2,0,0.2,0
			c0,0,0.1,0,0.1-0.1c0,0,0-0.1,0-0.1c0-0.1,0-0.1-0.1-0.2c-0.1-0.1-0.2-0.1-0.3-0.1h-0.5L66.8,5.7L66.8,5.7z"/>
	</g>
	<path id="Vector-5" class="st1" d="M2.9,27.9V4.5h5.3l1.9,9.8l2.2-9.8h5.2v21.1l3.4-21.1H26l3.3,21.1v-21h7c0,0,2.4,0.4,3.6,3.8
		l-0.5-3.9h4.2l2,12.1l2.1-12h11.9V9H56v4.8h3.4v4.9h-3.3v4.5h3.4v4.7h-7.7V5.4l-4,22.5h-4.7l-2.5-15c0,0-0.4,4.1-2.8,6l3,8.9h-4.1
		l-2.9-7.8v7.8h-8.3l-0.4-2.2h-3.2l-0.7,2.2h-7.9v-8.6l-2.1,8.6H9.1l-1.9-8.5v8.4L2.9,27.9z M24.7,21.1L23.5,14l-1,7.1L24.7,21.1z
		 M33.8,15.7c2.8-0.2,2.6-3.7,2.6-3.7c-0.4-3.4-2.6-3.3-2.6-3.3V15.7z"/>
</g>
</svg>
