<?xml version="1.0" encoding="utf-8"?>
<!-- Generator: Adobe Illustrator 25.0.0, SVG Export Plug-In . SVG Version: 6.00 Build 0)  -->
<svg version="1.1" id="Layer_1" xmlns:serif="http://www.serif.com/"
	 xmlns="http://www.w3.org/2000/svg" xmlns:xlink="http://www.w3.org/1999/xlink" x="0px" y="0px" viewBox="0 0 1775.2 962.9"
	 style="enable-background:new 0 0 1775.2 962.9;" xml:space="preserve">
<style type="text/css">
	.st0{fill:#FFFFFF;}
	.st1{fill:none;}
	.st2{fill:url(#SVGID_1_);}
</style>
<g transform="matrix(0.955463,0,0,0.580103,-356.942,25.8683)">
	<g id="Disney-Plus" serif:id="Disney Plus">
		<g>
			<path class="st0" d="M1686.7,1029.9c-25.7,9.7-93.4,15.3-93.4,15.3l-8.6,44.1c0,0,33.8-4.7,58.4-0.6c0,0,8-1.5,8.9,15
				c0.4,15.3-0.7,31.8-0.7,31.8s-0.5,10-9.1,12.4c-9.3,2.6-72.9,6.5-72.9,6.5l-10.4,57.4c0,0-3.8,13.2,4.8,9.4
				c8-3.5,74.6-24.1,83.4-21.2c9.3,3.8,19.6,24.1,16.6,42.9c-3.6,22.9-70,92.9-110.5,87.9c0,0-21.2,2.4-39.3-45
				c-16.8-45,6.4-130.6,6.4-130.6s-10.5-40-2.9-53.2c0,0,4.6-6.8,17.9-8.5l16.2-55.6c0,0-18.6,2.1-29.6-20.3
				c-10.4-21.5-11.1-31.2-3.2-37.1c8.4-6.8,85.7-30,138.9-27.1c0,0,18.6-2.9,34.5,50C1692,1003.4,1699.9,1024.9,1686.7,1029.9z
				 M1486.5,1243.4c-6.8,26.5-24.8,54.7-47.1,37.1c-22.1-17.6-57.3-136.2-57.3-136.2s-13.4-44.1-15.9-43.2c0,0-2.9-8.5-4.6,39.7
				c-1.8,48.2,0.4,142.1-11.2,156.8c-11.1,14.7-24.5,8.8-31.4-8.5c-6.2-17.1-8.9-57.6-5.5-128.8c4.1-71.2,14.1-147.1,27-170.9
				c12.9-23.5,23.2-6.5,27.1-0.3c0,0,17.1,25.6,45.5,100.9l5,13.8c0,0,25.7,71.2,28.4,70.9c0,0,2.1,3.2,3.9,0.9
				c2.7-1.2,1.6-24.1,1.6-24.1s-5.4-77.4-28.8-208.5c0,0-3.6-16.5-1.1-31.8c2.3-15.6,11.8-8.2,11.8-8.2s36.4,30,53.9,127.6
				C1505.1,1129,1493.3,1216.9,1486.5,1243.4z M1307.6,992.5c-3,10-4.8,24.4-20.2,28.2c0,0-147,16.5-153.9,33.5c0,0-5.2,10,2.9,12.9
				c8,2.6,41.2,10,57.3,11.5c17.1,0.3,75,1.2,95.7,43.8c0,0,12.3,20.3,11.8,66.2c-0.5,47.1-5.5,63.5-16.6,80.6
				c-11.6,15.9-111.2,89.4-175.5-23.5c0,0-29.6-54.4,10.2-95.6c0,0,28.7-28.5,101.8,5c0,0,22.1,13.2,21.1,26.5
				c-1.3,14.1-18.2,29.1-42.9,28.2c-23.9-1.2-41.4-20-38-17.1c3.2,2.1-25.7-22.9-34.6-5.9c-8.9,15.6-6.8,25.3,2,35
				c22.3,20.9,108.6,13.5,134.3-33.5c0,0,10.2-19.1-5.4-34.7c-15.5-14.7-60-23.5-77.3-25c-16.6-1.5-78.4,0.3-87.3-26.8
				c0,0-8.9-18.2,0.9-70c10.4-54.1,82.3-75,113.4-79.7c0,0,85.5-5,101.2,23.8C1308.1,976.1,1310.2,982.8,1307.6,992.5z
				 M1064.7,1309.9c-10.4,12.6-32.3,7.1-38.6-7.1c-6.2-12.6-8.4-62.9-7.1-141.8c1.2-79.7,2.3-178.5,12.7-194.1
				c11.1-15.9,17.9-2.1,22.1,8.8c4.6,10.6,10.2,22.4,11.4,47.4c1.1,25,4.6,156.2,4.6,156.2S1074.5,1297.5,1064.7,1309.9z
				 M1087,886.9c-30.2,16.5-50.9,10.9-68.4-1.5c-7.7,22.1-12.1,28.8-18,30.3c-8.6,1.5-16.2-21.2-17.7-28.5c-1.4-5.6-5.5-15-0.5-37.4
				c-17.1-25.3-18.4-59.4-15.5-82.4c4.3-26.5,33.2-127.1,121.2-138.8c0,0,43-5.3,50.4,32.6h1.2c0,0,41.8,0.3,40.9,61.5
				C1180.1,784.3,1134.2,860.8,1087,886.9z M1004.9,750.8c-8.9,23.5-9.3,37.6-5.2,47.4c10.2-25.6,28.8-65.9,56.1-96.5
				C1034.7,704.6,1017,719.6,1004.9,750.8z M1126.5,711.4c-27.7,6.8-70.5,67.9-90.9,117.9c31.2,9.4,86.4,5.9,110.9-76.2
				C1146.3,753.1,1158.1,702.2,1126.5,711.4z M1877.9,1185.2c-16.6,47.6-63.2,147.1-125.4,123.8c-20.5,82.1-37.7,164.7-47.5,288.8
				c0,0-2.1,24.1-14.3,15.6c-12-7.1-32-40-35.9-85.6c-4.3-60,12-161.5,45-277.6c-9.6-25.9-16.2-62.9-10.5-115.6
				c0,0,8.4-97.6,67.9-185.9c0,0,7.1-10.3,11.2-7.1c4.6,3.2,2.5,35-1.2,50.3s-30.4,91.2-30.4,91.2s-16.6,51.2-12,91.5
				c31.2-79.1,102.3-238.8,146.4-188.5c14.8,17.4,21.6,55.3,21.6,96.2C1892.7,1118.4,1887.6,1156.6,1877.9,1185.2z M1865.1,1059.9
				c0,0-2.5-31.5-21.1,3.2c-16.1,29.1-45,84.1-68.4,158.5c24.5-4.4,48-26.5,55.2-37.6C1842.4,1166.9,1869.4,1121.1,1865.1,1059.9z
				 M998.1,1099.9c-3.4,71.2-20,190.9-137.7,250c-77.7,38.5-151.1,20-191.1,3.2c-0.9,26.2-2.7,37.4-5.2,41.8
				c-3.4,5.6-28.8,29.7-42.7-4.4c-6.2-16.2-9.5-45.6-11.2-71.8c-90-68.2-131.4-166.5-133-170.9c-2-3.2-22.5-38.5-2-81.8
				c19.3-39.1,82.3-78.2,139.1-94.1c2-80,7.7-140.3,14.5-167.9c8.2-32.1,18.6-3.2,27.5,18.5c7.5,16.2,12,85.9,12.3,141.5
				c37.1-2.9,59.1,1.5,100.5,13.8c53.9,16.2,90,61.5,86.8,112.9c-2.3,50.6-30.5,71.5-41.2,72.9c-11.2,1.5-28.7-11.8-28.7-11.8
				c-12-9.4-0.9-17.6,13.6-27.9c15.7-12.6,12.1-25.6,12.1-25.6c-5.9-28.2-75.9-47.9-145.5-47.9c-0.4,63.2,1.6,168.2,2.5,229.4
				c48.7,15.3,85.2,12.4,85.2,12.4s177.9-8.2,183.2-195.3c5.5-187.4-177.3-367.1-312.5-424.1c-135-58.2-211.4-17.6-218-12.1
				c-7.1,5.9-0.5,7.6-0.5,7.6s7.3,1.8,20,8.8c13.4,7.1,3,18.5,3,18.5c-23,12.1-48.9,4.4-53.9-12.9c-5-17.4,3.4-32.9,13-55.3
				c9.6-23.5,20.2-22.6,20.2-22.6c167-95.3,370.4,77.1,370.4,77.1C969.2,841.1,1001.7,1027.5,998.1,1099.9z M494.2,1090.2
				c-18.9,15.3-5.9,37.4-5.9,37.4c35.5,62.9,79.3,102.4,120.9,126.8c4.8-108.5,4.1-146.8,4.6-201.5
				C548.8,1060.2,511.3,1077.2,494.2,1090.2z"/>
			<path class="st0" d="M2231.5,1067.8v38.8c0,8.5-4.1,15.3-9.3,15.3h-112.3c0,9.7,0.2,18.2,0.2,26.2c0,57.4-1.4,104.1-4.8,156.8
				c-0.5,7.9-4.5,13.8-9.1,13.8h-24.3c-2.5,0-4.8-1.8-6.4-4.7s-2.5-7.1-2.1-11.2c3.4-52.4,5-98.5,5-154.7c0-8.2,0-16.8-0.2-26.2
				H1957c-5.2,0-9.3-6.8-9.3-15.3v-38.8c0-8.5,4.1-15.3,9.3-15.3h109.5c-2.3-63.2-7-124.1-14.5-185.9c-0.4-3.8,0.2-7.6,1.6-10.6
				c1.4-2.9,3.6-4.7,5.9-4.7h26.3c4.1,0,7.5,4.7,8.4,11.5c7.3,63.8,12,125.9,14.3,189.7h113.7
				C2227.2,1052.5,2231.5,1059.6,2231.5,1067.8z"/>
			<g>
				<path class="st1" d="M730.2,555.2H730 M728.8,555.5c-0.5,0-1.1-0.3-1.6-0.3C727.7,555.5,728.3,555.5,728.8,555.5h0.5H728.8z
					 M728.8,555.5c-0.5,0-1.1-0.3-1.6-0.3C727.7,555.5,728.3,555.5,728.8,555.5h0.5H728.8z"/>
				
					<radialGradient id="SVGID_1_" cx="525.3557" cy="-1813.8445" r="1" gradientTransform="matrix(1239.1501 0 0 752.3419 -648938.8125 1365408.5)" gradientUnits="userSpaceOnUse">
					<stop  offset="0" style="stop-color:#FFFFFF"/>
					<stop  offset="1.000000e-02" style="stop-color:#FFFFFF"/>
					<stop  offset="3.000000e-02" style="stop-color:#CBFFFF"/>
					<stop  offset="6.000000e-02" style="stop-color:#96FFFF"/>
					<stop  offset="8.000000e-02" style="stop-color:#68FFFF"/>
					<stop  offset="0.11" style="stop-color:#43FFFF"/>
					<stop  offset="0.14" style="stop-color:#25FFFF"/>
					<stop  offset="0.16" style="stop-color:#11FFFF"/>
					<stop  offset="0.19" style="stop-color:#04FFFF"/>
					<stop  offset="0.22" style="stop-color:#00FFFF"/>
					<stop  offset="1" style="stop-color:#0000FF;stop-opacity:0"/>
				</radialGradient>
				<path class="st2" d="M2078.6,759.9c-58-235-156.1-435.3-283.6-579.4C1664.5,33.1,1511.5-44.8,1352.6-44.8
					c-262.9,0-506.8,215-652.3,575.3c-1.6,3.8-2,8.8-1.1,13.2c0.9,4.7,3,7.9,5.7,9.4l20.4,11.5c1.2,0.6,2.5,0.9,3.6,0.9
					c3.7,0,7.3-3.2,9.5-8.2c66.8-161.8,157.1-296.2,261.4-389.1c107.7-95.9,229.6-146.8,352.7-146.8c148.8,0,292.1,72.4,415,208.8
					c119.8,133.2,212.9,319.4,269.1,537.9c1.6,6.5,5.5,10.9,9.8,10.9h24.3c2.9,0,5.5-2.4,7-6.2
					C2079.4,769,2079.7,764.3,2078.6,759.9z M728.8,555.5c-0.5,0-1.1-0.3-1.6-0.6C727.7,555.2,728.3,555.5,728.8,555.5h0.4H728.8z
					 M2041.3,773.7c0.5,0.6,1.1,1.2,1.6,1.5C2042.4,774.6,2041.9,774.3,2041.3,773.7z"/>
			</g>
		</g>
	</g>
</g>
</svg>
