<?xml version="1.0" encoding="utf-8"?>
<!-- Generator: Adobe Illustrator 25.0.0, SVG Export Plug-In . SVG Version: 6.00 Build 0)  -->
<svg version="1.1" id="Layer_1" xmlns="http://www.w3.org/2000/svg" xmlns:xlink="http://www.w3.org/1999/xlink" x="0px" y="0px"
	 viewBox="0 0 36.4 80.5" style="enable-background:new 0 0 36.4 80.5;" xml:space="preserve">
<style type="text/css">
	.st0{fill:none;}
	.st1{fill:#FFFFFF;stroke:#ED2024;stroke-width:6.100000e-02;}
	.st2{fill:#FFFFFF;}
</style>
<rect x="-1500.9" y="-2020.6" class="st0" width="2983.5" height="4096"/>
<g id="Group" transform="translate(-214 -32)">
	<path id="Vector-14" class="st1" d="M224.1,111.5C224.1,111.5,224.1,111.6,224.1,111.5c-0.1,0.1-0.1,0.1-0.1,0.2s0.1,0.1,0.1,0
		C224.1,111.7,224.1,111.7,224.1,111.5C224.2,111.6,224.2,111.6,224.1,111.5C224.2,111.5,224.1,111.5,224.1,111.5z"/>
	<g id="Group-2">
		<path id="Vector-15" class="st2" d="M244.5,41.8c0,0-0.2-0.1-0.3-0.2c0,0,0-0.1-0.1-0.1c0,0,0-0.1-0.1-0.1
			c-0.1-0.1-0.1-0.1-0.2-0.1c-0.1,0-0.1,0-0.2-0.1c0,0-0.2,0-0.3,0s-0.2,0.1-0.4,0.1c0,0-0.1,0-0.2,0.1s-0.1,0-0.2,0.1
			c-0.1,0-0.2,0.1-0.3,0.1s-0.2,0.1-0.2,0.1c-0.1,0-0.1,0-0.2-0.1c0,0-0.1-0.1-0.2-0.1c-0.1,0-0.1,0-0.2,0h-0.1l0,0l-0.1,0.1h-0.1
			c0,0-0.1,0-0.1-0.1s-0.1-0.3-0.1-0.4c0,0-0.1-0.2-0.2-0.2c-0.1,0-0.1,0-0.2,0.1l-0.2,0.1l-0.5-0.4c0,0-0.2-0.1-0.2-0.2v-0.1
			c0-0.1,0-0.2-0.1-0.2c0,0-0.1-0.1-0.2-0.1c-0.1,0-0.1,0-0.2,0c-0.1,0-0.1,0.1-0.2,0.1c-0.1,0-0.1,0-0.2,0c-0.1,0-0.2-0.1-0.2-0.2
			c-0.1-0.1-0.1-0.1-0.2-0.2c-0.1-0.1-0.1-0.1-0.2-0.2c0,0-0.1,0-0.2,0c-0.1,0-0.1,0.1-0.1,0.1h-0.1c0-0.1-0.1-0.6-0.1-0.6
			c0-0.1,0-0.4,0-0.5s0-0.4,0-0.5s0-0.2,0-0.3s0-0.2,0-0.3s-0.1-0.2-0.1-0.2h-0.1c-0.1-0.1-0.1-0.1-0.2-0.2l-0.1-0.1
			c0-0.1-0.1-0.1-0.1-0.1v-0.1v-0.1c0,0,0-0.1,0.1-0.1l0.1-0.1h0.1c0.1,0,0.1,0,0.2-0.1c0,0,0.1,0,0.1-0.1s0.1-0.1,0.1-0.2
			c0-0.1,0.1-0.2,0.1-0.3s0-0.1,0-0.2v-0.1v-0.1v-0.2v-0.1c0,0-0.1,0-0.1-0.1c-0.1-0.1-0.2-0.1-0.3-0.2l-0.1-0.1l-0.2-0.1H237
			l-0.1-0.1c-0.1,0-0.1,0-0.2,0l-0.3,0.1c0,0-0.5,0.1-0.6,0.1c0,0-0.2,0-0.3,0s-0.1,0-0.2,0c-0.1,0-0.2-0.1-0.2-0.2l-0.1-0.1
			c-0.1-0.1-0.2-0.1-0.2-0.1c-0.1,0-0.2,0-0.2,0c-0.1,0-0.2-0.1-0.4-0.1c-0.1,0-0.1,0-0.2,0c0,0,0,0-0.1,0s-0.2,0.1-0.2,0.1
			s0,0.1-0.1,0.1s-0.1,0.1-0.1,0.1c-0.1,0-0.2,0-0.2-0.1c-0.1-0.1-0.4-0.3-0.4-0.3l-0.2-0.2c-0.1,0-0.2-0.1-0.2-0.1
			c-0.1,0-0.2,0-0.2,0c-0.1,0-0.3-0.1-0.4-0.1c-0.1-0.1-0.2-0.2-0.3-0.3l-0.2-0.3c0-0.1-0.1-0.1-0.1-0.2c-0.1-0.1-0.1-0.1-0.1-0.1
			s0,0-0.1-0.1c0-0.1-0.1-0.1-0.1-0.2c-0.1-0.1-0.1-0.1-0.2-0.1s-0.1-0.1-0.2-0.1c-0.1-0.1-0.1-0.1-0.1-0.1c0-0.1,0-0.1-0.1-0.1
			l-0.1-0.1c-0.1,0-0.1,0.1-0.1,0.1c0,0.1-0.1,0.1-0.1,0.2l-0.1,0.1c-0.1,0-0.1,0.1-0.2,0.1c-0.1,0-0.2,0-0.3,0.1
			c-0.1,0-0.3,0.1-0.3,0.1s-0.1,0.1-0.2,0.1c-0.1,0-0.1,0.1-0.2,0.1h-0.1c-0.2,0-0.3,0.1-0.5,0.1c-0.1,0-0.3,0.2-0.3,0.2
			c-0.1,0.1-0.1,0.1-0.2,0.2c0,0.1-0.1,0.4-0.2,0.5c0,0.1-0.1,0.2-0.1,0.4c-0.1,0.1-0.1,0.2-0.2,0.3c0,0-0.3,0.2-0.3,0.3l-0.2,0.2
			c-0.1,0-0.1,0.1-0.2,0.1c-0.1,0-0.3,0-0.4,0c-0.1,0-0.1,0.1-0.1,0.1c-0.1,0.1-0.1,0.1-0.2,0.2c0,0-0.1,0.1-0.1,0.2
			c0,0.1-0.1,0.1-0.1,0.2c0,0-0.1,0.1-0.2,0.1c-0.1,0-0.1,0-0.2,0c-0.1,0,0,0-0.2,0c-0.1,0-0.2-0.1-0.2-0.1s-0.1,0-0.2-0.1
			c0-0.1,0-0.1-0.1-0.1c0,0,0-0.1-0.1-0.2c-0.1-0.1-0.3-0.1-0.3-0.1c-0.1,0.1-0.2,0.1-0.3,0.2l-0.2,0.2c-0.1,0.1-0.1,0.1-0.1,0.2
			c-0.1,0.1-0.2,0.2-0.2,0.3c0,0-0.1,0.1-0.1,0.2c0,0.1-0.1,0.2-0.1,0.2c0,0.1-0.1,0.3-0.1,0.4c0,0.1,0.1,0.2-0.1,0.2
			c-0.1,0-0.2,0-0.3-0.1s-0.3-0.2-0.3-0.3s-0.3-0.3-0.3-0.3c-0.1-0.1-0.2-0.2-0.3-0.3s-0.1-0.1-0.2-0.2c0,0-0.1-0.1-0.2,0
			c-0.1,0.1-0.1,0.2-0.1,0.2c0,0.1-0.1,0.2-0.1,0.4l-0.1,0.2c0,0.1-0.1,0.3-0.1,0.2s-0.2,0-0.2,0.1s-0.1,0-0.1-0.1s-0.1-0.2-0.1-0.3
			s0-0.2,0-0.2c0-0.1,0.1-0.2,0-0.2c-0.1-0.1-0.1-0.1-0.1-0.2c0-0.1-0.1-0.1-0.1-0.2s-0.1-0.2-0.1-0.2c0-0.1,0-0.2-0.1-0.2
			c0,0-0.2-0.2-0.3-0.1c-0.1,0.1-0.2,0.2-0.2,0.3c0,0-0.1,0.2-0.1,0.3s-0.1,0.1-0.1,0.1s-0.3,0.1-0.4,0.1c-0.1,0.1-0.1,0.2-0.1,0.2
			c0,0.1,0,0.3,0,0.4c0,0.1,0,0.2-0.1,0.2c-0.1,0.1-0.2,0.1-0.3,0.2c-0.1,0-0.2,0-0.3,0s-0.2,0-0.2-0.1c-0.1,0-0.2,0-0.2-0.1
			c-0.1,0-0.1,0-0.2,0c0,0-0.1-0.1-0.2-0.1c0-0.1,0-0.2-0.1-0.3c0-0.1,0-0.4-0.1-0.5c0-0.1-0.1-0.2-0.1-0.2c-0.1,0-0.1-0.1-0.2-0.1
			c-0.1-0.1-0.3-0.2-0.4-0.2c-0.1,0-0.3,0-0.4,0c-0.1,0-0.3,0-0.4,0c-0.1,0-0.4,0-0.6,0c-0.1,0-0.3,0-0.3,0.1s-0.1,0.2-0.1,0.3
			s0,0.1-0.1,0.2c0,0.1-0.1,0.2-0.1,0.2c0,0.1-0.1,0.1-0.1,0.2c0,0.1-0.1,0.1-0.1,0.2c0,0.1-0.3,0.3-0.3,0.3l0.7,1.1l0.4,0.5
			c0.1,0.1,0.3,0.1,0.4,0.3c0.1,0.1,0.2,0.2,0.3,0.4c0,0.1,0.2,0.3,0.2,0.3c0,0.1,0,0.1,0,0.2c0,0,0,0.2,0,0.3s0,0.3,0.1,0.3
			s0.2,0,0.2,0c0.1,0,0.1,0,0.2,0c0.1,0,0.1-0.1,0.1-0.1c0-0.1,0.1-0.2,0.1-0.3s0-0.1,0.1-0.2c0.1-0.1,0.2-0.1,0.2-0.1s0,0,0,0.1
			s0.1,0.2,0.1,0.3c0,0,0.2,0,0.2,0.1s0.2,0,0.2,0s0.1,0,0.2,0.2c0,0.1,0,0.2,0,0.3s0,0.3,0,0.4c0,0.1-0.1,0.2-0.1,0.2
			s-0.2,0.1-0.3,0.1s-0.2,0.1-0.2,0.1c0,0.1-0.1,0.1-0.1,0.1c0,0.1,0,0.2,0,0.2s0.1,0,0.2,0l0.1,0.1c0,0.1,0,0.1,0,0.2
			c0,0.1-0.1,0.3-0.2,0.4H217c0,0-0.1,0.1-0.1,0.2c0.1,0.1,0.1,0.1,0.2,0.2c0.1,0,0.1,0,0.1,0.1s0,0.2,0.1,0.2
			c0,0.1,0.1,0.2,0.1,0.3s0.1,0.2,0.2,0.2c0.1,0,0.2,0.1,0.2,0.1s0,0,0.1,0.2c0.1,0.1,0.1,0.2,0.1,0.3s0.2,0.3,0.3,0.5
			c0.1,0.1,0.3,0.2,0.4,0.3c0.1,0.1,0.3,0.1,0.5,0.2c0.1,0,0.3,0.1,0.5,0.1c0.1,0,0.2,0.1,0.2,0s0-0.1,0.1-0.1s0.1,0,0.1,0.1v0.1
			v0.1c0.1,0.1,0.3,0.1,0.4,0.2c0.1,0,0.2,0.1,0.3,0.2c0.1,0.1,0.1,0.1,0.2,0.2c0,0.1,0,0.1,0.1,0.2c0.1,0,0.1,0,0.2,0
			c0.1,0,0.1,0,0.1-0.1s0-0.1,0-0.2c0.1-0.1,0.1-0.2,0.1-0.2l0.1-0.2c0,0,0,0,0.1-0.1c0.1,0,0.2-0.1,0.3-0.1
			c0.2-0.1,0.4-0.2,0.6-0.2c0.2-0.1,0.3-0.1,0.5-0.2c0.1-0.1,0.3-0.1,0.4-0.1c0.1,0,0.2,0,0.3,0.1s0.3,0.2,0.4,0.3
			c0.1,0.1,0.1,0.1,0.2,0.2s0,0.1,0.1,0.2c0.1,0.1,0.2,0.2,0.3,0.3c0.1,0,0,0,0.1,0.1s0.2,0.1,0.2,0.1c0,0.1,0.1,0.1,0.1,0.2
			c0.1,0.1,0.1,0.1,0.2,0.2c0.1,0.1,0-0.1,0.1,0.1c0.1,0.2,0.1,0.3,0.1,0.5c0,0.1-0.1,0.2-0.1,0.3l-0.1,0.1c0,0-0.2,0-0.3,0
			s-0.2,0-0.2,0s0,0-0.1,0.1s-0.1,0.1-0.1,0.1v0.1c0,0-0.1,0.1,0,0.1c0.1,0.1,0.1,0.1,0.2,0.1c0.1,0,0.1,0.1,0.3,0s0.1-0.1,0.2-0.1
			s0.2,0.2,0.4,0.3c0.1,0.1,0.2,0.1,0.3,0.2c0.1,0.1,0.1,0.2,0.1,0.3s0.1,0.3,0.2,0.4c0.2,0.1,0.3,0.2,0.5,0.4c0.1,0,0.2,0,0.3,0
			s0.2,0.1,0.2,0.2c0.1,0.1,0.1,0.2,0.2,0.3c0,0.1,0,0.3,0,0.4c0,0.1-0.1,0.2-0.2,0.2c-0.1,0.1-0.2,0.1-0.3,0.1s-0.3,0.1-0.3,0.1
			c0,0.1-0.1,0.1-0.2,0.2c0,0.1,0,0.2,0,0.4c0.1,0.1-0.1,0.3-0.2,0.4s-0.3,0.1-0.4,0.2c-0.1,0.1-0.2,0.2-0.3,0.3s0,0.2-0.2,0.2
			c-0.1,0-0.5-0.1-0.6-0.1s-0.2-0.1-0.3-0.2c-0.1-0.1-0.2-0.2-0.3-0.1c-0.1,0.1-0.2,0.1-0.3,0.1s-0.4-0.1-0.4-0.1
			c-0.1,0-0.2-0.1-0.3-0.1s-0.3,0-0.3,0s-0.1,0-0.2,0l-0.1,0.1c0,0-0.2-0.1-0.3-0.1c0,0-0.1,0-0.1,0.1l0,0c0.1,0.2,0.2,0.3,0.3,0.5
			c0.1,0.1,0.2,0.2,0.2,0.3s-0.2,0.2-0.3,0.3s-0.2,0.1-0.3,0.2c0,0,0-0.1-0.1,0s-0.1,0.1-0.2,0.2c0,0.1-0.1,0.1-0.2,0.2
			c-0.1,0-0.2,0.1-0.2,0.1c0,0.1,0,0.1,0.1,0.2c0.1,0.1,0.2,0.1,0.2,0.2s0.5,0.2,0.5,0.2c0.1,0,0.3,0.1,0.4,0.1
			c0.1,0.1,0.5,0.6,0.6,0.6s0.5,0.5,0.7,0.6s0.4,0.2,0.5,0.3s0.2,0.2,0.3,0.3s0.3,0.2,0.5,0.3c0.1,0,0.2,0.1,0.2,0.1
			c0.1,0.1,0.2,0.2,0.2,0.3c0.1,0.1,0.2,0.2,0.3,0.2s0.2,0,0.4,0.1c0.1,0,0.2,0,0.3,0s0.2,0,0.2,0.1c0.1,0.1,0.2,0.2,0.4,0.3
			c0,0.1,0.1,0.1,0.2,0.1c0.1,0,0.2,0,0.2,0.1c0.1,0.1,0.2,0.1,0.2,0.2c0,0.1,0,0.1,0,0.2c0,0-0.1,0-0.2,0.1c0,0.2,0,0.3-0.1,0.5
			c0,0.1,0,0.2,0,0.2c0,0.1,0.1,0.1,0.1,0.2c0,0.1,0.2,0.3,0.2,0.4c0.1,0.1,0.1,0.2,0.2,0.4c0,0.1,0,0.1,0.1,0.1s0.2,0,0.2,0.1
			c0.1,0.1,0.1,0.1,0.1,0.2c0.1,0.1,0.1,0.1,0.2,0.2c0.1,0,0.2,0,0.3,0s0.1,0,0.2,0c0.1,0,0.2,0.1,0.2,0.1c0,0.1,0.1,0.4,0.2,0.4
			c0.1,0,0.1,0,0.2,0.1c0,0.1,0,0.1,0.1,0.2h0.1c0.1,0,0-0.1,0.1,0c0.1,0.1,0,0.5,0,0.6c0.1,0.4,0.3,0.7,0.6,1
			c0.1,0.1,0.2,0.1,0.3,0.2c0.1,0,0.2,0.1,0.3,0.2s1.3,1.5,1.3,1.5l0.6,0.5h0.3c0.1,0,0.1,0,0.1,0.1s0,0.1,0,0.2s0.1,0.1,0.1,0.2
			s0.3,0.8,0.3,0.8c0.1,0.1,0.1,0.2,0.2,0.2c0.1,0,0.2,0.1,0.2,0.1c0.1,0,0.1,0,0.2,0c0.1,0,0.2,0,0.2,0s0,0.1,0,0.2s0,0.1,0,0.1
			c0,0.2-0.1,0.3-0.1,0.5s0.1,0.4,0.1,0.6c0,0.1,0.1,0.2,0.1,0.3c0,0,0.1,0.1,0.1,0.2l0.2,0.1l0.1,0.1c0,0.1,0,0.1,0,0.2
			s0,0.2,0.1,0.2c0.1,0.1,0.1,0.2,0.2,0.2c0.1,0,0.2,0,0.3,0s0.1-0.1,0.2-0.2c0-0.1,0.1-0.1,0.1-0.2c0,0,0-0.1,0.1-0.1
			s0.2-0.1,0.3,0c0.1,0,0,0,0,0.1s0,0.2,0,0.3c0,0.1,0,0.1,0.1,0.1c0.1,0.1,0.1,0.1,0.1,0.2s0.1,0.1,0.1,0.2s0.1,0.1,0.1,0.2
			c0.1,0,0.1,0,0.2,0.1c0,0,0.1,0.1,0.2,0.1h0.2l0.3,0.2c0,0,0-0.1,0.1,0.1c0,0.1,0.1,0.2,0.1,0.3c0,0-0.1,0.1,0,0.2
			s0.2,0.1,0.3,0.2c0.2,0.1,0.3,0.1,0.5,0.2c0.1,0.1,0.2,0.1,0.3,0.2s0.2,0.1,0.3,0.2s0.1,0.1,0.1,0.1s0,0,0,0.1s0,0.2,0,0.3
			c0,0.1,0,0.2-0.1,0.2c0,0-0.1,0.1-0.2,0.1c-0.1,0-0.3,0-0.4,0.1c-0.1,0-0.2,0.1-0.3,0.1s0,0.1,0,0.1c0,0.1,0,0.1-0.1,0.1
			s0,0.1-0.1,0.1s-0.1,0-0.1,0.1s0,0.1,0,0.2c0.1,0,0.2,0.1,0.2,0.1c0.1,0,0.1,0,0.2,0.1c0.1,0.1,0.1,0.2,0.1,0.4
			c0,0.1,0.1,0.2,0.1,0.2s0.1,0.1,0.1,0.2s0.2,0.2,0.2,0.3c0,0.1,0.1,0.1,0.1,0.1c0.1,0,0.1,0,0.2,0c0.1,0,0.1,0,0.2,0.1
			c0.1,0.1,0.2,0.2,0.2,0.2c0.1,0.1,0.1,0.1,0.2,0.1c0.1,0,0.2,0,0.3,0.1s0.1,0.2,0.1,0.2c0,0.1,0.1,0.1,0.1,0.2s0,0.1,0.1,0.2
			s0.2,0.1,0.2,0.1s0.1,0.1,0.1,0.2s-0.1,0.1-0.1,0.2c-0.1,0-0.2,0-0.3,0.1c0,0-0.1,0.1-0.1,0.2s0,0.2,0,0.3c0,0.1-0.1,0.2-0.2,0.2
			c-0.1,0-0.3,0.1-0.4,0.2c-0.1,0-0.1,0.1-0.2,0.1c-0.1,0-0.1,0.1-0.1,0.2s0,0.2,0,0.2s0,0.1,0.1,0.1S240,79,240,79
			c0,0.1,0,0.1,0,0.2c0,0,0,0.1-0.1,0.1c0,0-0.1,0-0.1,0.1c0,0.2-0.1,0.3-0.1,0.5c0,0.1-0.1,0.4-0.1,0.5s0,0.3,0,0.4
			s-0.1,0.1-0.1,0.2s0,0.1,0,0.2s0,0.1-0.1,0.2s-0.1,0.1-0.1,0.2s-0.1,0.1-0.1,0.2l-0.1,0.1c-0.1,0-0.1,0-0.1,0.1s-0.1,0.1-0.1,0.2
			s-0.1,0.1-0.1,0.1c0,0.1,0,0.1,0,0.2s0,0.1,0,0.2c0,0.2-0.1,0.3-0.2,0.5c-0.1,0-0.1,0.1-0.1,0.2s0,0.2,0,0.2c0,0.1,0,0.1,0,0.2
			s-0.1,0,0,0.2c0.1,0.1,0.1,0.2,0.2,0.2s0.1,0,0.2,0s0.1,0.1,0.1,0.1c0,0.1,0,0.2,0,0.2v0.1c0,0-0.1,0.1,0,0.1s0.1,0.1,0,0.1
			c0,0.1-0.1,0.1-0.1,0.1c0,0.1,0,0.2,0.1,0.2c0.1,0.1,0.2,0.1,0.3,0.2c0,0,0,0,0.1,0.2s0.3,0.8,0.3,0.9s0,0.3,0,0.3
			c0,0.1,0,0.6,0,0.7c-0.1,0.2-0.1,0.4-0.2,0.6c-0.1,0.1-0.5,0.9-0.5,1c0,0.2-0.1,0.3,0,0.5c0,0.2,0.1,0.4,0.2,0.5
			c0.1,0.1,0.1,0,0.1,0.2s0.1,0.3,0.1,0.4s0,0.1,0,0.2s0,0.1,0,0.1s-0.1,0.1,0,0.1c0,0,0.1,0.1,0.1,0.2s-0.1,0.2,0,0.2
			c0,0.1,0.1,0.1,0,0.1s-0.1,0-0.1,0.1s0.1,0.2,0,0.3c0,0.1-0.2,0.1-0.2,0.3c0,0.2,0,0.2,0,0.3s-0.5,0.3-0.5,0.3s0,0.2-0.1,0.2
			s-0.1,0-0.2-0.1c0-0.1,0-0.1-0.1-0.1s-0.1,0-0.2,0c-0.1-0.1-0.1-0.1-0.2-0.1c-0.1,0-0.1,0-0.2,0.1c-0.1,0-0.2,0-0.2,0l-0.1,0.1
			h-0.1c-0.1,0-0.2-0.1-0.2,0S237,93,237,93c-0.1,0-0.1,0.1-0.1,0.2s-0.1,0.1-0.2,0.1s-0.1,0-0.1,0.1s0,0.1,0,0.2s-0.1,0-0.1,0v0.1
			c-0.1,0-0.2,0-0.2,0.1s-0.1,0.1-0.2,0.2c-0.1,0-0.2-0.1-0.2,0c0,0-0.1,0.1-0.2,0.1c-0.1,0-0.2-0.1-0.2,0c-0.1,0-0.1,0-0.2,0.1
			c-0.1,0-0.2-0.1-0.2-0.1s-0.1,0-0.2,0.1c0,0.1-0.1,0.2-0.1,0.3c0,0.1,0,0.1-0.2,0.2c-0.1,0.1-0.1,0.2-0.2,0.1s-0.2-0.1-0.2,0
			c-0.1,0.1-0.2,0.1-0.2,0c-0.1,0-0.2,0-0.3,0c0,0-0.1,0-0.1-0.1c0,0,0-0.1-0.1,0c0,0,0,0.1-0.1,0.1c-0.1-0.1-0.1-0.2-0.1-0.1
			c-0.1,0-0.1,0.1-0.1,0.1h-0.1c0,0-0.1,0.1,0,0.2s0.1,0.2,0.2,0.4c0,0.1,0,0.1-0.1,0.2s-0.2,0.2-0.2,0.3c0,0.1,0.1,0.1,0.1,0.2
			s0.1,0.2,0.1,0.2c-0.1,0.1-0.2,0.1-0.3,0c-0.1,0-0.1-0.1-0.1-0.1c-0.1,0-0.1,0.1-0.2,0.1s-0.2-0.1-0.3-0.1s-0.1,0.1-0.1,0
			s-0.1-0.1-0.1-0.2c-0.1-0.1-0.1-0.1-0.2-0.1c-0.1,0-0.1,0-0.2-0.1c-0.1,0-0.1,0-0.2,0c-0.1,0-0.2,0-0.2,0s0-0.1-0.1-0.1H231h-0.1
			c-0.1,0-0.2,0-0.2,0.2s0,0.2-0.1,0.2c-0.1,0.1,0,0.2-0.1,0.2s-0.1,0-0.2,0s-0.2,0-0.2,0s-0.1-0.1-0.1,0l0,0
			c-0.1,0.1-0.2,0.1-0.3,0.2c0,0.1,0,0.2,0.1,0.3c0.1,0.1,0.1,0.1,0.2,0.2s0,0.2,0.1,0.2c0,0.1,0,0.1,0,0.2s0,0.1,0,0.2v0.1
			c0,0.1,0,0.2,0,0.3c0,0.1,0,0.2,0,0.2c0,0.1,0,0.1,0,0.2c0,0,0,0,0.1,0.1s0.1,0,0.1,0.1s-0.1,0.1,0.1,0.1c0.1,0,0.2,0.1,0.2,0.1
			c0.1,0,0.1,0,0.2,0c0,0.1,0.1,0.2,0.2,0.3c0.1,0.1,0.1,0.1,0.2,0.2c0.1,0,0,0,0.1,0.1s0.2,0,0.2,0c0.1,0,0.1-0.1,0.1,0
			s0.1,0,0.1,0.2s0.1,0.1,0,0.2s-0.1,0.1-0.1,0.1s-0.1,0-0.1,0.1c-0.1,0.1-0.1,0.1,0,0.2c0,0.1,0.1,0.1,0.1,0.2s0.1,0.1,0.1,0.3
			s0.1,0.2,0,0.2s-0.1-0.1-0.2-0.1c-0.1,0-0.1,0-0.2,0c-0.1,0-0.2,0-0.2,0c-0.1,0-0.2,0-0.2-0.1s-0.1-0.1-0.2-0.1
			c-0.1,0-0.2,0-0.2-0.1s-0.1-0.3-0.2-0.3c-0.1,0-0.1,0.1-0.1,0.2c-0.1,0.1-0.1,0.1-0.2,0.1c0-0.1-0.1-0.1-0.1-0.2
			c0,0-0.1,0-0.1-0.1s0-0.1-0.1-0.2l-0.1-0.1c0-0.1-0.1-0.1-0.1-0.2c0,0,0-0.1-0.1-0.1s-0.1,0-0.2,0c0,0-0.2,0-0.2,0.1
			c0,0-0.1,0.1-0.2,0.1c-0.1,0-0.1,0-0.2,0c-0.1,0-0.2,0-0.3,0s-0.2,0-0.3,0h-0.1c0,0,0,0-0.1,0l0,0c0,0,0,0-0.1,0
			c-0.1-0.1-0.2-0.1-0.2,0s0,0.1,0,0.1s0,0.1-0.1,0.1s-0.2,0-0.2,0.1c0,0,0,0.1-0.1,0.1s-0.1,0-0.2,0c-0.1-0.1-0.1-0.1-0.2-0.1h-0.1
			h-0.1c-0.1,0-0.1-0.1-0.2-0.1c-0.1,0-0.1,0-0.2-0.1c-0.1,0-0.2,0-0.2,0c-0.1,0-0.1-0.1-0.2,0c-0.1,0.1-0.2,0.1-0.1,0.2
			c0.1,0.2,0.1,0.3,0.2,0.5c0,0.2,0,0.3-0.1,0.3s-0.2,0.1-0.3,0.1c-0.1,0.1-0.1,0.1-0.2,0.1c-0.1,0-0.1,0.1-0.2,0.2
			c0,0.1,0,0.1-0.1,0.2s-0.1,0.2-0.2,0.2c-0.1,0-0.2,0-0.3,0s-0.2,0-0.3,0c-0.2,0-0.2,0-0.3,0s-0.2,0-0.2,0c-0.1,0-0.2-0.1-0.2-0.1
			h-0.1c0,0-0.1,0-0.2,0s-0.1,0.1-0.1,0.1l-0.1,0.1l-0.1,0.1c0,0,0,0-0.1,0.1c-0.1,0-0.1,0.1-0.2,0.1l-0.1,0.1v0.1c0,0,0,0,0,0.1
			c0,0,0,0.1,0.1,0.1s0.1,0,0.2-0.1c0,0,0,0,0.1,0.1c0,0.1,0.2,0.2,0.2,0.2s-0.1,0.1,0,0.1s0.2,0.1,0.2,0.2s0,0.2,0.1,0.3
			c0,0.1,0,0.2,0,0.3c0,0.1,0.2,0.1,0.2,0.1c0.1-0.1,0.2-0.1,0.3-0.2c0.2-0.1,0.3-0.2,0.4-0.1c0.1,0.1,0.3,0.1,0.4,0.2
			c0.1,0.1,0.1,0.1,0.1,0.2s0.1,0.1,0.2,0.1s0,0.1,0.1,0.1s0.3,0,0.4,0c0.1,0,0.2,0.1,0.3,0.1c0.1,0.1,0.2,0.2,0.2,0.3
			c0,0.1,0.2,0.1,0.2,0.2v0.2c0,0,0,0.1-0.1,0.1s0-0.1-0.1-0.1c0,0-0.1-0.1-0.1,0c-0.1,0.1-0.3,0.2-0.4,0.3c0,0-0.1,0-0.1,0.1
			s-0.1,0.1-0.1,0.1s-0.1,0-0.2,0c-0.1,0-0.1,0-0.2,0s-0.1,0.2-0.2,0.2l-0.1,0.1v0.1c0,0.1,0,0,0,0.1s0,0.2,0,0.3c0,0.1,0,0.1,0,0.2
			c0,0,0,0,0,0.1s-0.1,0.2-0.1,0.3c0,0.1,0,0.1,0,0.2s0,0.3,0,0.4s-0.1,0.3-0.1,0.4s-0.1,0.5-0.1,0.5v0.9c0,0.1,0,0.2,0,0.3
			c0,0.1,0,0.2,0,0.3c0,0.1,0,0.2,0,0.2s0.1,0,0.1,0.1s0,0.1-0.1,0.1c0,0.1,0,0.1,0,0.2v0.1c0,0.1,0,0.1,0,0.2s0,0.2,0,0.2l0.1,0.1
			c0.1,0,0.1,0,0.1-0.1h0.1h0.2c0.1,0,0.1,0,0.1,0v0.2h-0.1v0.1v0.1c0,0-0.1-0.1-0.1,0s-0.1,0.1-0.2,0.1s-0.2,0-0.2,0v0.1
			c0,0,0.1,0,0.1,0.1s0,0.1,0,0.1h-0.1c0,0,0,0.1-0.1,0.1c0,0,0,0.1,0.1,0.1v0.1l0,0h-0.1c0,0,0,0-0.1,0.1l-0.1,0.1h-0.1
			c-0.1,0-0.1,0-0.1-0.1c0,0-0.1-0.1-0.1,0s0,0.1,0,0.1s0,0,0.1,0.1s0.1,0,0.1,0.1c0.1,0,0.2,0.1,0.3,0.1h0.2c0.1,0,0.1,0,0.2,0.1
			c0.1,0,0.3,0,0.4-0.1c0.1,0,0.1-0.1,0.2-0.1c0.1,0,0.1,0,0.2,0c0.1,0.1,0.1,0.1,0.2,0.1s0.2-0.1,0.2-0.1c0.1,0,0.2-0.1,0.2-0.2
			s0.1-0.1,0.2-0.2c0.1-0.1,0.2-0.1,0.2-0.2v-0.2c0,0-0.1,0,0,0s0.1,0.1,0.1,0.1h0.1c0.1,0,0.1,0,0.1,0c0.1,0,0.1,0,0.2-0.1l0.2-0.2
			c0-0.1,0.1-0.1,0.1-0.2s0.1-0.1,0.1-0.2s0-0.1,0.1-0.2l0.1-0.1l0.1-0.1c0,0,0.1-0.1,0.1-0.2s-0.1-0.1,0-0.2s0.1-0.2,0.2-0.2
			s0.3-0.3,0.4-0.4c0.1,0,1.1-0.3,1.1-0.3c0.1,0,0.2-0.1,0.3-0.1s0.7-0.2,0.8-0.2s0.3,0,0.4-0.1c0.2-0.1,0.3-0.1,0.5-0.2
			c0.1,0,0.2-0.1,0.3-0.1s0.1,0,0.1-0.1v-0.1h-0.1h-0.1v-0.1c0,0,0.1,0,0.1-0.1c0.1-0.1,0-0.1,0.1-0.1s0.2,0,0.2-0.1s0,0,0-0.1
			s0-0.1,0-0.2v-0.1c0,0,0,0,0.1,0s0-0.1,0-0.1l-0.3-0.3l-0.1-0.1h-0.1l-0.1-0.1l-0.1-0.5c0.1,0,0.1,0,0.2-0.1
			c0.1,0,0.1,0.1,0.2,0.1c0.1,0.1,0.2,0.2,0.3,0.3c0.1,0.1,0.2,0.3,0.3,0.3s0.3,0.1,0.3,0.1c0.1,0,0.1,0,0.2,0.1
			c0,0.1,0,0.1,0.1,0.1s0.1,0.1,0.1,0.1c0.1,0,0.1,0,0.2,0h0.1c0,0,0-0.1,0.1,0s0.1,0.1,0.2,0c0.1,0,0.1,0,0.1-0.1l0.1-0.1l0.1-0.1
			V107l0.1-0.1c0,0,0,0,0-0.1c0,0,0-0.1,0-0.2s0-0.1,0-0.1c0-0.1-0.1-0.1-0.1-0.2c-0.1-0.1-0.1-0.1-0.1-0.1s-0.1-0.1-0.1-0.2
			s-0.1-0.2-0.1-0.2c-0.1-0.1-0.2-0.3-0.3-0.4s-0.2-0.2-0.3-0.3c-0.1-0.1-0.2-0.2-0.3-0.2c-0.1-0.1-0.2-0.2-0.3-0.2
			s-0.1-0.1-0.2-0.1c-0.1-0.1-0.1-0.1-0.2-0.2c-0.1,0-0.1-0.1-0.2-0.2l-0.1-0.1v-0.2v-0.1l0.2,0.1c0.1,0.1,0.1,0.2,0.2,0.2
			c0.1,0.1,0.3,0.3,0.5,0.4c0.1,0.1,0.5,0.3,0.6,0.3c0.1,0.1,0.2,0.2,0.3,0.3c0.1,0.1,0.2,0.1,0.2,0.2c0.1,0.1,0.1,0.1,0.2,0.2
			s0.1,0.1,0.2,0.1s0.1,0,0.1,0s0-0.1,0.1-0.1s0.1,0,0.1-0.1c0,0,0.1,0,0.1-0.1c0,0,0.1,0,0-0.1c-0.2-0.1-0.2-0.1-0.3-0.2
			s0,0-0.1-0.1s-0.2-0.2-0.3-0.2s-0.2-0.1-0.3-0.1c-0.2,0-0.3,0-0.3-0.1s-0.5-0.7-0.6-0.8c-0.1-0.1-0.1-0.3-0.2-0.4
			c-0.1-0.1-0.1-0.1-0.2-0.2c-0.1,0-0.1,0-0.2,0c-0.1,0-0.1,0-0.2,0c-0.1,0-0.2,0-0.2,0s-0.1,0-0.1-0.1s0-0.1-0.1-0.1s-0.1,0-0.1,0
			c-0.1,0-0.2,0-0.2-0.1H231c0,0-0.1,0-0.1-0.1l-0.1-0.1c0,0-0.1,0-0.1-0.1s-0.1,0,0-0.1c0,0,0,0,0.1,0c0.1,0.1,0.3,0.1,0.4,0.2
			c0.1,0,0.1,0.1,0.2,0.1c0.1,0,0.2,0.1,0.2,0c0.1,0,0.1-0.1,0.2-0.1c0.1,0,0,0,0.2,0h0.3c0.1,0,0.1,0,0.2,0c0.1,0,0.1-0.1,0.2,0
			s0.3,0.1,0.3,0.1s0,0.1,0.1,0.1c0.2,0,0.3,0.1,0.4,0.1c0.1,0,0.1,0,0.2,0.1c0.1,0,0.1,0.1,0.2,0.1c0.1,0,0.2,0,0.3,0.1
			c0.1,0,0.1,0,0.2,0.1c0.1,0,0.1,0.1,0.2,0.1c0.1,0,0.1,0.1,0.2,0.1c0.1,0,0.1,0,0.1,0v-0.1l0,0c0,0-0.1,0-0.1-0.1h-0.1
			c0,0-0.1-0.1,0-0.1h0.1c0,0,0.1,0.1,0.2,0.1c0.1,0,0.1,0.1,0.1,0s0-0.1,0-0.2V103c0-0.1,0-0.1,0-0.1v-0.1c0,0,0,0-0.1,0
			c0-0.1-0.1-0.1-0.1-0.2s-0.1-0.1-0.1-0.2s0-0.1-0.1-0.1s-0.1,0-0.1-0.1s0-0.1,0.1-0.2c0-0.1,0.1-0.1,0.1-0.2v-0.1c0,0,0,0,0-0.1
			c0,0,0-0.1,0.1-0.1v-0.1v-0.1c0,0,0,0,0-0.1v-0.1c0,0,0,0,0-0.1v-0.1c0,0,0-0.1,0,0s0.1,0.1,0.1,0.2v0.1c0,0-0.1,0-0.1,0.1
			s0,0.1,0,0.2s0,0.1,0,0.1l-0.1,0.1c0,0.1,0,0.1,0,0.2c0,0-0.1,0,0,0.2c0.1,0.1,0.1,0.2,0.2,0.3c0.1,0.1,0.1,0.2,0.2,0.3h0.1
			c0,0,0-0.1,0.1-0.2v-0.1c0,0,0,0.1,0.1,0.1c0,0.1,0,0.2,0.1,0.2c0,0,0,0.1,0.1,0.1s0.1,0,0.2,0s0-0.1,0.1-0.1s0.1,0,0.1,0
			c0-0.1,0.1-0.1,0-0.2c-0.1,0-0.1,0-0.1-0.1c0,0-0.1,0-0.1-0.1v-0.1v-0.1c0-0.1-0.1-0.1,0-0.1s0.1,0,0.1,0.1s0,0.2,0.1,0.2l0,0h0.1
			c0-0.1,0-0.1,0-0.2s0-0.1,0.1-0.1s0.1,0,0.1,0.1s0,0.2,0,0.3l0.1,0.1c0,0,0.1,0.1,0.1,0c0,0,0.1,0,0.1-0.1c0,0,0-0.1,0.1-0.1
			c0,0,0.1-0.1,0.1,0s0.1,0.1,0,0.2s-0.1,0.1-0.2,0.1s-0.2,0-0.2,0.1s0,0.1,0,0.2l0.1,0.1c0,0,0.1,0,0.1-0.1s0-0.1,0-0.1l0.2-0.1
			c0.1,0,0.1,0,0.2,0h0.1c0,0,0.1,0,0.2,0c0,0.1,0,0.1,0.1,0.1c0.1,0.1,0.1,0.1,0.2,0c0.1-0.1,0.3-0.1,0.4-0.2
			c0.1-0.1,0.1-0.1,0.2-0.2c0.1-0.1,0.2-0.1,0.4-0.1c0.1,0,0.2,0,0.3,0s0-0.1,0.1-0.2c0.2-0.1,0.3-0.2,0.5-0.3l0.2-0.1
			c0,0,0.1-0.1,0.2-0.1s0.1-0.1,0.2-0.1c0.1,0,0.3-0.1,0.4-0.2c0.1-0.1,0.2-0.1,0.2-0.1c0.1,0,0.2,0,0.3-0.1c0.1,0,0.3,0,0.3,0h0.1
			c0.1,0,0.1,0,0.2,0c0.1,0,0.1,0.1,0.2,0s0-0.3,0.1-0.4c0-0.1,0.1-0.3,0.1-0.4s0-0.1,0.1-0.2s0.4-0.3,0.5-0.3s0.2,0,0.3,0.1
			c0,0,0.1,0,0.2,0.1s0,0,0.1,0.1c0,0.1,0,0.1,0.1,0.1c0,0,0.1,0,0.1-0.1s0-0.1,0-0.1h0.1c0,0,0,0,0-0.1s0.1-0.2,0.1-0.2
			c0.1,0,0.1,0,0.2-0.1c0.1,0,0.1,0,0.2-0.1c0.1,0,0.2,0,0.3-0.1s0.1-0.1,0.2-0.2c0.1-0.1,0-0.1,0.1-0.2s0.2-0.1,0.2-0.2
			c0.1-0.1,0.1-0.1,0.2-0.1c0.1,0,0.3,0,0.4,0c0.1,0,0.2,0,0.2,0s0.1,0.1,0.1,0s0.1,0,0.1-0.1s0.1-0.2,0.1-0.3c0-0.1,0-0.2,0.1-0.2
			s0.1,0,0.2-0.1c0.1,0,0.1,0,0.2-0.1c0.1,0,0.1-0.1,0.2-0.1c0,0,0,0,0.1,0s0.1-0.1,0.1-0.1l0.1,0.1l0.1,0.1c0,0,0.1-0.1,0.2-0.1
			s0.2-0.1,0.2-0.1c0-0.1-0.1-0.1,0-0.1c0.1-0.1,0-0.1,0.1-0.2c0-0.1,0-0.2,0-0.3V97v-0.1l0,0v-0.1v-0.1c0,0,0,0,0-0.1v-0.1v-0.1
			v-0.1h0.1c0,0,0,0,0,0.1s0,0.1,0,0.1v0.1h0.1c0.1,0,0.1,0.1,0.2,0.1c0,0,0.1,0,0.1-0.1c0,0,0-0.1,0.1-0.1c0-0.1,0-0.1,0-0.2v-0.1
			l0.1-0.1V96c0,0,0-0.1,0.1-0.1c0,0,0.1,0,0.1-0.1v-0.1c0,0,0,0,0.1,0s0,0.1,0.1,0v-0.1l-0.1-0.2c0,0-0.1-0.1-0.1-0.2s0-0.1,0-0.2
			s0-0.1,0-0.1s0.1,0,0-0.1c0,0-0.1-0.1-0.1,0l0,0c-0.1,0.1-0.1,0.1-0.1,0.2s-0.1,0.1-0.1,0.1s-0.1,0-0.1-0.1v-0.1
			c0-0.1,0-0.1,0-0.2v-0.1c0,0,0.1,0,0.1-0.1h0.1c0,0,0-0.1,0.1-0.1s0.1-0.1,0.1-0.1v-0.2l0.1,0.1v0.1v0.1c0,0.1-0.1,0,0,0.1
			c0,0.1,0,0.1,0.1,0.1c0,0,0.1,0,0.1,0.1c0,0,0,0,0.1,0l0.1-0.1v-0.1v-0.1v-0.1c0,0,0-0.1-0.1-0.1s-0.1,0-0.1-0.1s-0.1-0.1-0.1-0.2
			v-0.1c0-0.1,0-0.2,0-0.3c0-0.1,0-0.1,0.1-0.2c0-0.1,0,0-0.1-0.1s-0.1-0.1-0.1-0.1c0-0.1,0-0.1,0-0.2l0.1-0.2c0,0,0-0.1,0.1-0.1
			s0.1,0,0.1,0v-0.1c0,0-0.1,0-0.1-0.1c0,0,0,0,0-0.1v-0.2V92l-0.1-0.1l-0.1-0.1v-0.1c0,0-0.1-0.1,0-0.1s0.2,0,0.2,0.1
			s0.1,0.1,0.2,0.2c0,0.1,0.1,0.1,0.1,0.1v0.1c0,0,0.1,0,0.1,0.1c0,0,0,0,0.1,0h0.1l0.1-0.1c0,0,0.1,0.1,0.1,0V92h-0.1
			c0,0-0.1,0-0.1-0.1s-0.1-0.2-0.1-0.2s0-0.1-0.1-0.1l-0.1-0.1v-0.1c0-0.1,0-0.1-0.1-0.2c0-0.1,0-0.1,0.1-0.2v-0.2l-0.1,0.1h-0.1
			c0,0-0.1,0,0-0.1c0-0.1,0.1-0.3,0.1-0.4c0.1-0.1,0.1-0.2,0.2-0.3c0,0,0.2-0.1,0.2-0.2c0,0,0-0.1,0.1-0.1s0.1-0.1,0.1,0
			s0.1,0.1,0.1,0.2v0.1v0.1v0.1c0,0-0.1,0,0,0c0,0,0,0,0.1,0s0.1,0,0.1-0.1c0,0,0.1,0,0.1-0.1h0.1c0,0,0-0.2,0,0s0,0.2,0,0.2
			c0,0.1,0,0,0,0.1s0,0.1,0,0.1s0,0,0.1,0.1c0,0,0,0,0,0.1l0,0c0,0,0,0.1,0,0c0,0,0-0.1,0-0.2c0,0,0,0,0-0.1v-0.1c0,0-0.1-0.1,0-0.1
			s0.2,0,0.2-0.1s-0.1-0.1-0.1-0.1s0,0-0.1,0c0,0-0.1,0-0.1-0.1c0,0,0-0.1-0.1-0.1c0,0-0.1-0.1-0.2-0.1l-0.1-0.1l-0.1-0.1v-0.2
			c0-0.1,0.1-0.2,0.2-0.3l0.2-0.1h0.1V89c0,0,0,0.1-0.1,0.1c0,0-0.1,0.1,0,0.1s0.2,0,0.2-0.1v0c0-0.1,0-0.1-0.1-0.1s-0.1,0-0.2-0.1
			c0,0-0.1,0-0.2-0.1l0,0v-0.1c0.1,0,0.1,0,0.1,0v-0.1c0,0-0.3-0.6-0.4-0.7c0,0-0.1-0.1-0.1-0.2s0-0.2,0-0.3c0,0,0.1-0.1,0.1-0.2
			s0-0.1,0-0.2c0,0-0.1-0.1-0.1-0.2s0.1-0.2,0-0.3c0-0.1-0.1-0.1-0.1-0.1s-0.1,0.1-0.2,0c-0.1-0.1-0.1-0.1-0.1-0.2s0-0.2,0-0.2
			c0-0.1,0-0.1,0-0.2s0.1-0.1,0.2,0s0.1,0.1,0.1,0.1h0.1c0,0,0,0-0.1,0.1c0,0.1-0.1,0.1,0,0.1s0.2,0.1,0.2,0V86v-0.1v-0.1v-0.1
			c0-0.1,0-0.1,0-0.2c0,0,0,0-0.1,0c0,0-0.1,0.1-0.1,0l-0.1-0.1c0,0-0.1,0,0-0.1c0-0.1,0.1-0.1,0-0.1s-0.2,0-0.2,0s0,0-0.1-0.1
			c0,0,0-0.1-0.1-0.1v-0.1c0,0,0.1,0,0.1,0.1l0.1,0.1l0.1,0.1h0.1v0.1c0,0,0.1,0.1,0.1,0c0,0,0-0.1,0-0.2c0,0,0-0.1-0.1-0.1
			c0,0-0.1,0-0.1-0.1c0,0-0.1,0-0.1-0.1l-0.1-0.1v-0.2c0-0.1,0-0.3,0-0.3v-0.1V84v-0.1c0-0.1,0-0.1,0-0.2s0-0.1,0-0.1l0.1-0.1
			c0,0,0-0.1,0.1,0c0,0,0.1,0.1,0.1,0.2v0.1V84c0,0.1,0,0,0,0.1s-0.1,0.1,0,0.1s0.1,0.1,0.1,0c0,0,0-0.1,0-0.2v-0.1
			c0-0.1,0-0.1,0-0.1c0-0.1,0-0.1,0-0.2s0-0.1-0.1-0.2l-0.1-0.1v-0.1c0,0,0,0,0-0.1V83v-0.1v-0.1v0.3h-0.1c0-0.1,0-0.1-0.1-0.1h-0.1
			c-0.1,0-0.1,0-0.2-0.1c-0.1,0-0.1-0.1-0.2-0.1l-0.1-0.1l0.1-0.1c0,0,0.1,0,0.1,0.1l0.1,0.1c0.1,0,0.1,0.1,0.1,0.1s0.1,0,0.1-0.1
			s0-0.1-0.1-0.1c0-0.1-0.1-0.1-0.1-0.2s-0.1-0.1-0.1-0.1v-0.1c0,0,0-0.1,0.1-0.1c0-0.1,0-0.2,0-0.3c-0.1-0.2-0.2-0.3-0.3-0.4
			s-0.1-0.2-0.1-0.3c0-0.1,0-0.2,0-0.3c0-0.1-0.1-0.1-0.1-0.2s-0.1-0.1-0.1-0.2s0-0.1,0-0.1l0.1-0.1c0-0.1,0,0,0-0.1s-0.1,0,0-0.1
			c0-0.1,0-0.1,0.1-0.2c0-0.1,0-0.1,0-0.2s-0.1-0.2-0.1-0.3c-0.1-0.1-0.1-0.1-0.1-0.2c-0.1-0.1-0.1-0.2-0.2-0.3
			c0-0.1-0.1-0.2-0.1-0.2c0-0.1-0.1-0.7-0.1-0.7c0-0.1-0.1-0.3-0.1-0.4s0-0.1,0-0.2c0,0-0.1,0-0.1,0.1s0,0.1,0,0.1l-0.1-0.1v-0.1
			c0,0-0.1,0-0.1-0.1s0.1-0.1,0.1-0.1c0.1,0,0.1,0.1,0.1,0s-0.1-0.1,0-0.2s0.1-0.1,0.1-0.1s0.1-0.1,0-0.1s-0.1-0.1-0.2-0.1
			c-0.1-0.1-0.1-0.2-0.2-0.3v-0.1c0-0.1,0-0.1,0-0.2l-0.1-0.1v-0.1c0,0-0.1,0-0.1-0.1s0-0.1,0-0.2c0,0-0.1,0-0.1,0.1
			s-0.1,0.1-0.1,0.1v0.1c0,0.1,0,0.1,0,0.1s-0.1,0.1-0.1,0s0,0,0-0.1s0.1-0.2,0-0.2s-0.1,0-0.2-0.1c0-0.1-0.1-0.1-0.1-0.1
			s0-0.1,0-0.2c0,0,0-0.1-0.1-0.1c0,0-0.1,0-0.1,0.1v0.1h-0.1h-0.1c0,0,0-0.1-0.1-0.1c0,0-0.1,0-0.1-0.1c0,0-0.2,0-0.1-0.1
			c0,0,0.1,0,0.1-0.1c0,0,0,0,0.1,0c0,0,0.1,0.1,0.1,0s0,0,0.1,0s0.1,0,0.1,0s0.1-0.1,0-0.1s-0.1,0-0.2,0c0,0-0.1,0.1-0.1,0
			l-0.1-0.1c-0.1-0.1-0.1-0.1-0.1-0.2s-0.1-0.2-0.1-0.2s-0.1-0.1-0.2-0.2c-0.1-0.1-0.2-0.2-0.3-0.4c-0.1-0.2-0.2-0.3-0.2-0.4
			s-0.1-0.2-0.1-0.3c0-0.1,0-0.1,0-0.2s0-0.1-0.1-0.1c0,0-0.1,0-0.1,0.1c0,0,0,0.1-0.1,0c-0.1,0,0,0-0.1,0v-0.1l0,0
			c0.1,0,0.1-0.1,0.1-0.1s0-0.1-0.1-0.1c0,0-0.1,0-0.1-0.1c-0.1-0.1-0.1-0.1-0.2-0.2c0-0.1-0.1,0-0.1-0.1s-0.1-0.3-0.1-0.3l-0.1-0.2
			v-0.1v-0.1c0,0,0,0,0.1,0s0.2,0,0.2,0c0.1,0,0.2,0,0.2,0s0-0.1,0-0.2c0,0,0,0-0.1,0l-0.1,0.1c-0.1,0-0.1,0-0.2,0s0,0-0.1-0.1
			c-0.2,0-0.2-0.1-0.2,0c0,0,0,0,0,0.1c0,0,0,0.1,0.1,0.1c0,0,0,0,0.1,0.1c0,0.1,0,0.1,0,0.1h-0.1l0,0l-0.1,0.1h-0.1l-0.1-0.1
			c0,0-0.1-0.1,0-0.1c0-0.1,0.1-0.1,0.1-0.2v-0.1c0,0,0,0,0.1-0.1c0.1,0,0.1-0.1,0.1-0.1l-0.1-0.1c-0.1,0-0.1,0-0.1,0
			c-0.1,0-0.2,0-0.2,0c0-0.1-0.1-0.1-0.1-0.2s-0.1-0.1-0.1-0.2c0,0-0.1,0-0.1-0.1s0-0.2-0.1-0.1c-0.1,0,0,0.1-0.1,0.1s-0.2,0-0.2,0
			l-0.1-0.1c0-0.1-0.1-0.1-0.2-0.2c-0.1,0-0.5-0.4-0.6-0.4c0,0-0.3-0.2-0.3-0.3s-0.4-0.2-0.4-0.3l-0.1-0.1v0.1c0,0,0.1,0.1,0.1,0.2
			s0.1,0.1,0.1,0.1s0.1,0,0.1,0.1c0,0,0.1,0,0.1,0.1l0.1,0.1c0.1,0,0.1,0,0.1,0s0,0.1,0.1,0.1s0.1,0.1,0.2,0.1c0.1,0,0,0,0.1,0.1
			s0.1,0.1,0.1,0.1s0,0,0.1,0l0.1,0.1c0,0.1,0,0.1,0,0.2s-0.1,0.1-0.2,0.1c-0.1,0-0.2,0-0.2,0c-0.1,0-0.2,0-0.2-0.1
			c-0.1-0.1-0.1-0.1-0.1-0.1l0.1-0.1h0.1c0,0,0.1,0.1,0.1,0s0.1,0,0-0.1s-0.9-0.7-0.9-0.7l-0.1-0.1c0,0,0,0.1-0.1,0
			s-0.1-0.1-0.1-0.2l0,0v-0.1c-0.1,0-0.1,0-0.2,0l-0.1-0.1c0,0,0,0-0.1,0s-0.1,0-0.1,0l-0.1-0.1c-0.1,0-0.1,0-0.2,0
			c-0.1,0-0.3-0.1-0.3-0.1s-0.1-0.1,0-0.1s0,0,0.1,0s0.2,0,0.3,0s0.2,0.1,0.3,0.1s0.2,0.1,0.2,0.1l0.1,0.1c0,0,0,0.1,0,0
			c0,0,0-0.1-0.1-0.1s-0.3-0.2-0.4-0.2c-0.1-0.1-0.2-0.1-0.3-0.2s-0.3-0.2-0.3-0.2c0-0.1-0.1-0.1-0.2-0.2c-0.1,0-0.1-0.1-0.1-0.1
			c-0.1-0.1-0.2-0.1-0.2-0.1c-0.1-0.1-0.2-0.2-0.3-0.2c-0.1-0.1-0.1-0.1-0.2-0.2l-0.1-0.1H238h-0.1c0,0,0,0,0.1-0.1v-0.1l-0.1-0.1
			c0,0-0.1,0-0.1-0.1s0-0.1,0-0.2s0-0.2-0.1-0.2c-0.1-0.1-1.2-0.8-1.2-0.8c-0.1-0.1-0.3-0.2-0.4-0.3c-0.1-0.1-0.1-0.2-0.2-0.3
			s-0.4-0.2-0.5-0.3s-0.3-0.3-0.3-0.4c-0.1-0.1-0.2-0.2-0.3-0.4c0-0.1-0.1-0.1-0.1-0.2s0-0.1-0.1-0.2s-0.2-0.2-0.2-0.3
			c0-0.1-0.1-0.1-0.1-0.2v-0.1c0,0-0.1-0.2-0.1-0.3c0-0.2,0-0.4,0-0.6c0-0.1,0.1-0.1,0.1-0.2l0.1-0.1v-0.1l-0.1-0.1
			c0-0.1,0-0.1-0.1-0.2c0-0.1-0.1-0.1-0.1-0.1s0-0.1-0.1-0.1v-0.1l0,0c0,0,0-0.1,0.1-0.1L234,61c0,0,0-0.1-0.1,0c0,0.1,0,0.1,0,0.1
			h-0.1c0,0,0,0-0.1,0c0,0,0,0,0,0.1h-0.1v-0.1c0,0,0,0,0-0.1c0,0,0,0,0-0.1s-0.3-0.3-0.3-0.3l-0.3-0.2c-0.1-0.1-0.2-0.1-0.2-0.2
			c0,0-0.1-0.1-0.2-0.1c-0.1,0-0.1,0-0.2-0.1c-0.1,0-0.1-0.1-0.2-0.1c-0.1-0.1-0.3-0.3-0.4-0.4l-0.1-0.1l-0.1-0.1
			c0,0-0.1-0.1-0.1-0.2c0-0.1,0-0.1,0-0.1l-0.1,0.1v0.1l0,0l-0.1-0.1c0-0.1,0-0.1,0-0.2c0-0.1-0.3-0.5-0.4-0.6s-0.3-0.6-0.3-0.6
			c0-0.1,0-0.1,0-0.2c0-0.1,0-0.1,0-0.2s0,0-0.1-0.1c-0.1,0-0.1,0-0.1-0.1s-0.1-0.1-0.1-0.2c0-0.1,0-0.1,0-0.1s0,0-0.1-0.1
			c0,0,0-0.1-0.1-0.1l0,0v-0.1c0-0.1,0-0.1,0-0.2c0,0-0.1,0-0.2,0c-0.1,0-0.1-0.1-0.1-0.2l-0.1-0.3v-0.1c0,0,0.1-0.1,0-0.2
			c0-0.1,0-0.1,0-0.2v-0.1c0,0,0-0.1,0.1-0.1s0.1,0,0.1,0.1c0,0,0.1,0.1,0.1,0v-0.1v0l0,0l0,0c0,0,0,0.1,0.1,0.1h0.1v-0.1
			c0-0.1,0-0.1,0-0.2v-0.2v-0.1h0.1l0.1-0.1c0.1,0,0.2-0.1,0.2-0.1s0.1,0,0.1-0.1s-0.1-0.1,0-0.1c0.1-0.1,0.1-0.1,0-0.1V54
			c-0.1,0-0.1,0-0.1-0.1s0-0.1,0-0.1s0,0-0.1,0h-0.1c0,0-0.1,0,0-0.1s0-0.1,0.1-0.1s0.1,0,0.1,0s0-0.1,0.1,0s0.1,0,0.1,0
			s0,0.1,0.1,0.1c0,0,0.1,0,0.1-0.1l0,0c0,0,0,0,0-0.1s-0.1-0.1-0.1-0.1c0-0.2,0-0.4,0-0.6c0,0-0.1,0-0.1-0.1c0,0-0.1-0.1,0-0.1h0.1
			l0,0l0.1-0.1c0-0.1,0.1-0.2,0.1-0.3s0-0.1,0.1-0.1s0.1,0,0.2-0.1c0.1,0,0.1-0.1,0.2-0.1c0.1-0.1,0.1-0.2,0.2-0.3
			c0-0.1,0-0.1,0-0.2v-0.1c0,0-0.1,0,0-0.1s0.1-0.1,0.1-0.1s0-0.1,0.1-0.1c0-0.1,0-0.1,0.1-0.2l0.1-0.1c0,0,0-0.1,0.1-0.1
			s0.1,0.1,0.1,0.1h0.1c0,0,0-0.1,0.1,0c0,0.1,0,0.1,0.1,0.1s0.1,0,0.1,0s0,0,0.1,0h0.1c0.2,0,0.3-0.1,0.4-0.2
			c0.1-0.1,0.2-0.2,0.2-0.2c0.1-0.1,0.1-0.1,0.2-0.2c0-0.1,0-0.1,0.1-0.1s0.1,0,0.1-0.1s0,0,0.1-0.1s0-0.1,0.1-0.1s0.1-0.1,0.1,0
			c0.1,0.1,0.1,0.1,0.1,0.1h0.1c0,0,0,0,0.1,0.1c0.1,0,0.1,0.1,0.2,0c0.1-0.1,0.1-0.1,0.2-0.2c0.1,0,0.1,0,0.1-0.1s0-0.1,0.1-0.1
			l0,0l0.1-0.1v-0.1c0.1-0.1,0.1-0.2,0.2-0.3c0-0.1,0.1-0.2,0.1-0.2c0-0.1,0-0.1,0-0.1c0-0.1,0-0.1,0-0.2c0-0.1,0-0.1,0-0.2
			l-0.1-0.1l0,0l0.1-0.1l0.1-0.1c0-0.1,0-0.1,0-0.2h0.1c0.1,0,0,0.1,0.1,0.1s0.1,0.1,0.1,0.1l0,0c0,0-0.1-0.1,0-0.1
			c0.1-0.1,0.1-0.2,0.2-0.3c0.1,0,0.2-0.2,0.2-0.2h0.3v-0.1c0,0-0.1,0-0.2-0.1s-0.2,0-0.2-0.1s0-0.1,0-0.2c0-0.1,0-0.3,0-0.3
			s0-0.1,0.1,0s0.1,0.2,0.2,0.3h0.1h0.1v-0.1c0,0-0.1,0-0.1-0.1c0,0,0-0.1-0.1-0.1c0,0,0-0.1-0.1-0.1c0,0-0.1,0-0.1-0.1l-0.1-0.1
			v-0.1v-0.1v-0.1c0,0-0.1,0-0.1-0.1l-0.1-0.1v-0.1c0,0,0-0.1,0.1-0.1l0.1,0.1l0.2,0.1h0.1h0.1c0,0.1,0,0-0.1,0.1s0,0,0,0.1
			s0,0.1,0,0.1v0.1c0,0.1,0,0,0,0.1c0,0,0,0.1,0.1,0.1l0.1,0.1h0.1c0,0,0,0,0.1,0c0,0,0,0,0.1,0.1s0.1,0.1,0.1,0.1s0,0,0-0.1v-0.1
			c0-0.1,0-0.1,0-0.2c0-0.1,0-0.1,0-0.1s0.1,0,0.1-0.1c0.1,0,0.1,0,0.2,0s0.1,0,0.1-0.1c0,0,0-0.1-0.1-0.1l-0.1-0.1v-0.1
			c0,0,0-0.1,0.1-0.1s0.1,0,0.2,0c0.1,0,0,0,0.1,0s0.1,0,0.1,0v-0.1c0,0,0.1-0.1,0.2-0.1h0.1l0,0h0.1h0.1c0,0,0.1,0,0.1,0.1v0.1
			c0,0-0.1,0.1,0,0.1s0.1,0.1,0.2,0.1c0.1,0,0.1,0,0.2,0.1c0,0,0,0.1,0.1,0.1s0.1,0,0.2-0.1c0.1-0.1,0.2-0.2,0.4-0.2
			c0.1,0,0.1,0,0.2,0c0.1,0,0.1,0.1,0.2,0c0.1-0.1,0.1-0.1,0.1-0.2c0-0.1,0-0.1,0-0.1s0.5-0.3,0.5-0.4s0-0.1,0.1-0.1
			c0,0,0.1,0,0.1-0.1s0-0.1,0-0.2c0,0,0,0,0-0.1s0.1-0.2,0.2-0.2l0.1-0.1H241h-0.1c0,0,0-0.1-0.1-0.1c0-0.1,0-0.1,0.1-0.1s0,0,0.2,0
			c0.1,0,0.2,0,0.2,0V44c0,0,0.1,0,0.1,0.1h0.1h0.1c0.1,0,0.1,0,0.1,0c0.1,0,0.1,0,0.2,0c0.1,0,0.1,0,0.2,0c0.1,0,0.1-0.1,0.1-0.1
			l0,0c0-0.1,0-0.1,0-0.1l0.1-0.1v-0.1h0.1h0.3c0,0,0.1-0.1,0.2-0.1c0,0,0-0.1,0.1-0.1c0,0,0-0.1,0.1-0.1s0.1,0,0.1-0.1l0.1-0.1
			v-0.1c0-0.1,0-0.2,0-0.2c0-0.1,0.1-0.2,0.1-0.2v-0.1c0-0.1,0-0.1,0-0.2l0.1-0.1v-0.1c0,0,0-0.1,0.1,0c0,0.1,0,0.1,0.1,0.1
			c0,0,0.1,0.1,0.1,0l0.1-0.1c0,0,0,0,0.1,0.1h0.1c0.1,0,0.1,0,0.1,0s0-0.1,0.1-0.1C244.3,42,244.4,41.9,244.5,41.8z"/>
		<path id="Vector-16" class="st2" d="M249.9,82.6h-0.1l0,0c0,0-0.1,0.1,0,0.1C249.8,82.8,249.8,82.7,249.9,82.6
			C249.9,82.7,249.9,82.7,249.9,82.6L249.9,82.6z"/>
		<path id="Vector-17" class="st2" d="M250.2,85.2h-0.1v0.1L250.2,85.2C250.2,85.3,250.2,85.3,250.2,85.2
			C250.2,85.3,250.2,85.2,250.2,85.2z"/>
		<path id="Vector-18" class="st2" d="M250,90.7c0-0.1,0-0.1-0.1-0.1s-0.1,0-0.2,0s-0.2,0-0.1,0c0,0.1,0.1,0.1,0.2,0.2l0.1,0.1
			C250,91,250,91,250,91h0.1v-0.1C250.1,90.8,250.1,90.7,250,90.7L250,90.7z"/>
		<path id="Vector-19" class="st2" d="M234.9,103.2L234.9,103.2c0,0.1-0.1,0.1,0,0.2s0.1,0,0.1,0c0.1,0,0.1-0.1,0.1-0.1
			c0.1,0,0.1-0.1,0.1-0.1s0-0.1,0.1-0.2c0-0.1,0-0.1-0.1-0.1s-0.1-0.1-0.2-0.1l-0.1-0.1c0,0,0,0-0.1,0s-0.1,0-0.1-0.1
			c-0.1,0-0.1,0-0.2-0.1c-0.1,0-0.3-0.1-0.3-0.1s-0.2-0.1-0.3-0.1s-0.2-0.1-0.2-0.1c-0.1,0-0.1,0-0.2-0.1c-0.1,0-0.1,0-0.1-0.1
			c0,0-0.1-0.1-0.2-0.1c0,0-0.1-0.1-0.2-0.1h-0.2c0,0,0,0-0.1,0s-0.1,0-0.2,0h-0.3l-0.2,0.1c0,0,0,0.1,0.1,0.1s0.2,0,0.3,0
			s0.2,0,0.3,0c0.1,0.1,0.2,0.1,0.3,0.2s0.7,0.9,0.8,1s0.2,0.2,0.3,0.2c0.2,0.1,0.4,0.1,0.6,0.2c0.1,0,0.1-0.1,0.1-0.2
			S234.8,103.2,234.9,103.2C234.8,103.3,234.8,103.3,234.9,103.2L234.9,103.2z"/>
		<path id="Vector-20" class="st2" d="M234.1,104.6c0-0.1,0-0.1-0.1-0.1s-0.1-0.1-0.1-0.1s-0.1-0.1-0.1,0s0,0.1,0.1,0.1
			c0,0.1,0,0.1,0.1,0.1H234.1L234.1,104.6z"/>
		<path id="Vector-21" class="st2" d="M234.2,104.8l-0.1-0.1C234.1,104.7,234.1,104.8,234.2,104.8
			C234.1,104.9,234.2,104.9,234.2,104.8L234.2,104.8z"/>
		<path id="Vector-22" class="st2" d="M232.5,106l-0.1-0.1l-0.1-0.1c0,0-0.2-0.1-0.2,0s0.1,0.2,0.2,0.2v0.1c0,0,0,0.1,0.1,0.1
			C232.4,106.1,232.5,106.1,232.5,106L232.5,106z"/>
		<path id="Vector-23" class="st2" d="M223.6,104.1h-0.2c0,0-0.1,0,0,0.1s0.1,0.1,0.1,0.1C223.5,104.3,223.5,104.3,223.6,104.1
			C223.6,104.2,223.6,104.2,223.6,104.1C223.6,104.2,223.6,104.2,223.6,104.1z"/>
		<path id="Vector-24" class="st2" d="M224.6,103.3C224.6,103.3,224.5,103.4,224.6,103.3C224.6,103.4,224.5,103.4,224.6,103.3
			C224.6,103.4,224.7,103.4,224.6,103.3C224.7,103.4,224.7,103.4,224.6,103.3C224.7,103.4,224.7,103.4,224.6,103.3
			C224.7,103.3,224.6,103.3,224.6,103.3z"/>
		<path id="Vector-25" class="st2" d="M223.1,102.8C223.1,102.8,223,102.9,223.1,102.8C223.1,102.9,223.1,102.9,223.1,102.8
			C223.1,102.9,223.2,102.9,223.1,102.8C223.2,102.8,223.2,102.8,223.1,102.8L223.1,102.8z"/>
		<path id="Vector-26" class="st2" d="M220.6,101.2C220.5,101.2,220.5,101.2,220.6,101.2c-0.1,0.1-0.1,0.2-0.1,0.2v0.1v0.1
			c0,0,0,0,0,0.1s0,0.1,0,0.1v0.1c0,0,0,0.1-0.1,0.1c-0.1,0.1-0.1,0.1-0.1,0.2s0,0.2,0,0.2c0,0.1,0,0.1,0,0.2c0,0,0,0,0,0.1v0.1v0.1
			c-0.1,0-0.1,0-0.1,0s-0.1-0.1-0.1-0.2c0,0-0.1-0.1-0.1-0.2s0-0.1,0-0.2s0-0.1,0-0.2c0,0,0-0.1-0.1-0.1c0-0.1-0.1-0.1-0.1-0.2
			s-0.1-0.2-0.1-0.2c0-0.1,0-0.1-0.1-0.2c0-0.1,0,0-0.1-0.1c-0.1,0-0.1-0.1-0.2-0.1c0,0,0,0,0-0.1s0-0.1,0-0.1s-0.1,0-0.1-0.1
			c0,0,0,0,0.1-0.1c0.1,0,0.2,0,0.3,0h0.1c0,0,0.1,0,0.1-0.1v-0.1l0,0c0,0,0,0,0.1,0c0,0,0-0.1,0.1-0.1s0.1-0.1,0.2-0.1l0.1,0.1
			c0,0,0.1,0.1,0.1,0.2C220.5,101.1,220.5,101.1,220.6,101.2C220.6,101.1,220.6,101.2,220.6,101.2z"/>
	</g>
</g>
</svg>
