<?xml version="1.0" encoding="utf-8"?>
<!-- Generator: Adobe Illustrator 25.0.0, SVG Export Plug-In . SVG Version: 6.00 Build 0)  -->
<svg version="1.1" id="Layer_1" xmlns="http://www.w3.org/2000/svg" xmlns:xlink="http://www.w3.org/1999/xlink" x="0px" y="0px"
	 viewBox="0 0 158.4 52.6" style="enable-background:new 0 0 158.4 52.6;" xml:space="preserve">
<style type="text/css">
	.st0{fill:#FFFFFF;}
</style>
<g id="Group_2" transform="translate(-858 -2324)">
	<path id="_2022" class="st0" d="M859.2,2344.5c-0.4-5.3,1.3-10.6,4.6-14.6c3.5-4,8.6-6.1,13.8-5.8c4.5-0.1,8.9,1.5,12.3,4.4
		c3.3,2.8,5.2,7.1,5,11.5c0,2.3-0.4,4.5-1.3,6.6c-0.7,1.9-1.8,3.6-3.2,4.9s-3,2.6-4.6,3.9c-1.7,1.3-3.3,2.4-5.1,3.5
		c-1.8,1.2-3.5,2.4-5.1,3.7c-1.6,1.4-3,2.8-4.3,4.5h23.9v8.8h-37.2c0-1.8,0.1-3.6,0.5-5.3c0.3-1.6,0.9-3.1,1.8-4.6
		c0.8-1.4,1.7-2.6,2.4-3.6c0.9-1.3,2.1-2.4,3.5-3.5c1.6-1.3,2.7-2.2,3.7-2.8c0.9-0.6,2.4-1.7,4.4-3c0.3-0.2,1.2-0.8,2.7-1.8
		c1.5-1,2.5-1.8,3-2.2c0.6-0.5,1.4-1.3,2.3-2.2c0.8-0.8,1.6-1.8,2-2.9c0.4-1,0.6-2.2,0.6-3.3c0.1-2.1-0.6-4.2-2.1-5.8
		c-1.5-1.5-3.5-2.2-5.5-2.1c-2.5-0.1-4.9,1.3-6.2,3.5c-1.4,2.5-2,5.3-1.9,8.2h-9.9V2344.5z"/>
	<path id="_2022-2" class="st0" d="M908.6,2350.2v4.2c0,1,0.2,2.6,0.5,4.6c0.2,1.7,0.6,3.2,1.3,4.8c0.6,1.3,1.5,2.3,2.5,3.2
		c1.2,0.9,2.6,1.4,4.1,1.4c1.5,0,2.9-0.4,4.1-1.4c1-0.8,2-2,2.5-3.2c0.6-1.6,1-3.1,1.3-4.8c0.3-2,0.4-3.5,0.5-4.6
		c0-1.2,0.1-2.5,0.1-4.2c0-1.2,0-2-0.1-2.7c0-0.6,0-1.7-0.1-3c-0.1-1.2-0.2-2.3-0.4-3.5c-0.2-1-0.5-2.1-0.9-3.1
		c-0.3-1-0.8-2-1.5-2.7c-0.6-0.7-1.4-1.4-2.2-1.8c-0.9-0.5-2-0.8-3.1-0.8c-1.3,0-2.4,0.3-3.5,0.8c-1,0.6-1.9,1.6-2.4,2.6
		c-0.5,1-1,2.2-1.4,3.3c-0.4,1.3-0.6,2.6-0.7,4c-0.1,1.7-0.2,2.8-0.3,3.7v3.2H908.6z M898.4,2350.2c0-9.3,1.7-15.9,5-20
		c3.2-4.1,8.3-6.3,13.5-6.2c2.5,0,4.9,0.4,7.2,1.4c2.3,0.9,4.3,2.4,5.9,4.3c2,2.3,3.5,5.1,4.1,8.2c1,4.1,1.6,8.2,1.5,12.3
		c0.1,4.3-0.4,8.6-1.5,12.7c-0.7,3-2.1,5.9-4.1,8.3c-1.7,1.9-3.7,3.2-6,4.3c-2.3,0.9-4.7,1.4-7.2,1.3c-5.2,0.2-10.1-2.1-13.5-6.2
		C900.1,2366.4,898.4,2359.6,898.4,2350.2z"/>
	<path id="_2022-3" class="st0" d="M939.9,2344.5c-0.4-5.3,1.3-10.6,4.6-14.6c3.5-4,8.6-6.1,13.8-5.8c4.5-0.1,8.9,1.5,12.3,4.4
		c3.3,2.8,5.2,7.1,5.1,11.5c0,2.3-0.4,4.5-1.3,6.6c-0.7,1.9-1.8,3.6-3.2,4.9s-3,2.6-4.6,3.9c-1.7,1.3-3.3,2.4-5.1,3.5
		c-1.8,1.2-3.6,2.3-5.1,3.7c-1.6,1.4-3,2.8-4.3,4.5h24v8.8h-37.2c0-1.8,0.1-3.6,0.5-5.3c0.3-1.6,0.9-3.1,1.8-4.6
		c0.8-1.4,1.7-2.6,2.4-3.6c0.9-1.3,2.1-2.4,3.5-3.5c1.6-1.3,2.7-2.2,3.7-2.8c0.9-0.6,2.4-1.7,4.4-3c0.3-0.2,1.2-0.8,2.7-1.8
		c1.6-0.9,2.5-1.8,3-2.2c0.6-0.5,1.4-1.3,2.3-2.2c0.8-0.8,1.6-1.8,2-2.9c0.4-1,0.6-2.2,0.6-3.3c0.1-2.1-0.6-4.2-2.1-5.8
		c-1.5-1.5-3.5-2.2-5.5-2.1c-2.5-0.1-4.9,1.3-6.2,3.5c-1.4,2.5-2,5.3-1.9,8.2h-10.1V2344.5z"/>
	<path id="_2022-4" class="st0" d="M980.3,2344.5c-0.4-5.3,1.3-10.6,4.6-14.6c3.5-4,8.6-6.1,13.8-5.8c4.5-0.1,8.9,1.5,12.3,4.4
		c3.3,2.8,5.2,7.1,5,11.5c0,2.3-0.4,4.5-1.3,6.6c-0.7,1.9-1.8,3.6-3.2,4.9c-1.5,1.4-3,2.6-4.6,3.9c-1.7,1.3-3.3,2.4-5.1,3.5
		c-1.8,1.2-3.6,2.3-5.1,3.7c-1.6,1.4-3,2.8-4.3,4.5h24v8.8h-37.2c0-1.8,0.1-3.6,0.5-5.3c0.3-1.6,0.9-3.1,1.8-4.6
		c0.8-1.4,1.7-2.6,2.4-3.6c0.9-1.3,2.1-2.4,3.5-3.5c1.6-1.3,2.7-2.2,3.7-2.8c0.9-0.6,2.4-1.7,4.4-3c0.3-0.2,1.2-0.8,2.7-1.8
		c1.6-0.9,2.5-1.8,3-2.2c0.6-0.5,1.4-1.3,2.3-2.2c0.8-0.8,1.6-1.8,2-2.9c0.4-1,0.6-2.2,0.6-3.3c0.1-2.1-0.6-4.2-2.1-5.8
		c-1.5-1.5-3.5-2.2-5.5-2.1c-2.5-0.1-4.9,1.3-6.2,3.5c-1.4,2.5-2,5.3-1.9,8.2h-10V2344.5z"/>
</g>
</svg>
