<?xml version="1.0" encoding="utf-8"?>
<!-- Generator: Adobe Illustrator 25.0.0, SVG Export Plug-In . SVG Version: 6.00 Build 0)  -->
<svg version="1.1" id="Layer_1" xmlns="http://www.w3.org/2000/svg" xmlns:xlink="http://www.w3.org/1999/xlink" x="0px" y="0px"
	 viewBox="0 0 64.4 19.6" style="enable-background:new 0 0 64.4 19.6;" xml:space="preserve">
<style type="text/css">
	.st0{fill:#FFFFFF;}
</style>
<g id="Group_1" transform="translate(-868 -1116)">
	<path id="_1990s" class="st0" d="M875.9,1134.2h-3.4v-10.9h-4.2v-2.6c1.2,0.1,2.3-0.2,3.3-0.7c0.9-0.6,1.5-1.5,1.6-2.6h2.7V1134.2z
		"/>
	<path id="_1990s-2" class="st0" d="M886.3,1126.1c0.8,0,1.5-0.3,2-0.9c0.5-0.6,0.7-1.4,0.7-2.2c0-0.8-0.2-1.6-0.7-2.2
		c-0.5-0.6-1.2-1-2-0.9c-0.7,0-1.4,0.3-1.9,0.9c-0.5,0.6-0.7,1.4-0.7,2.1c0,0.8,0.2,1.6,0.6,2.2
		C884.9,1125.8,885.6,1126.2,886.3,1126.1z M883.9,1129.9c0.1,0.6,0.4,1.1,0.8,1.5c0.4,0.4,0.9,0.6,1.5,0.6c0.6,0,1.1-0.2,1.5-0.5
		c0.4-0.4,0.8-0.8,1-1.4c0.2-0.5,0.4-1.1,0.5-1.6c0.1-0.5,0.2-1.1,0.2-1.6l0,0c-0.9,1.2-2.3,2-3.8,1.9c-0.7,0-1.4-0.2-2.1-0.5
		c-0.7-0.3-1.3-0.7-1.8-1.3c-0.9-1-1.3-2.4-1.3-3.7c0-1.6,0.5-3.2,1.6-4.4c1.1-1.2,2.6-1.8,4.2-1.8c1.1,0,2.2,0.2,3.1,0.7
		c0.9,0.5,1.5,1.2,2,2c0.5,0.9,0.8,1.8,1,2.7c0.2,1,0.3,2.1,0.3,3.2c0,1.1-0.1,2.1-0.4,3.1c-0.2,1-0.6,1.9-1.1,2.8
		c-0.5,0.9-1.2,1.6-2.1,2.1c-0.9,0.5-2,0.8-3,0.8c-1.3,0-2.7-0.4-3.7-1.2c-1-0.9-1.6-2.1-1.8-3.4H883.9z"/>
	<path id="_1990s-3" class="st0" d="M899.7,1126.1c0.8,0,1.5-0.3,2-0.9c0.5-0.6,0.7-1.4,0.7-2.2c0-0.8-0.2-1.6-0.7-2.2
		c-0.5-0.6-1.2-1-2-0.9c-0.7,0-1.4,0.3-1.9,0.9c-0.5,0.6-0.7,1.4-0.7,2.1c0,0.8,0.2,1.6,0.6,2.2
		C898.2,1125.8,898.9,1126.2,899.7,1126.1z M897.2,1129.9c0.1,0.6,0.4,1.1,0.8,1.5c0.4,0.4,0.9,0.6,1.5,0.6c0.6,0,1.1-0.2,1.5-0.5
		c0.4-0.4,0.8-0.8,1-1.4c0.2-0.5,0.4-1.1,0.5-1.6c0.1-0.5,0.2-1.1,0.2-1.6l0,0c-0.9,1.2-2.3,2-3.8,1.9c-0.7,0-1.4-0.2-2.1-0.5
		c-0.7-0.3-1.3-0.7-1.7-1.3c-0.9-1-1.3-2.4-1.3-3.7c0-1.6,0.5-3.2,1.6-4.4c1.1-1.2,2.6-1.8,4.2-1.8c1.1,0,2.2,0.2,3.1,0.7
		c0.9,0.5,1.5,1.2,2,2c0.5,0.9,0.8,1.8,1,2.7c0.2,1,0.3,2.1,0.3,3.2c0,1.1-0.1,2.1-0.4,3.1c-0.2,1-0.6,1.9-1.1,2.8
		c-0.5,0.9-1.2,1.6-2.1,2.1c-0.9,0.5-2,0.8-3,0.8c-1.3,0-2.7-0.4-3.7-1.2c-1-0.9-1.6-2.1-1.8-3.4H897.2z"/>
	<path id="_1990s-4" class="st0" d="M910.4,1125.8v1.4c0,0.4,0.1,0.9,0.2,1.5c0.1,0.5,0.2,1.1,0.4,1.6c0.2,0.4,0.5,0.8,0.8,1.1
		c0.4,0.3,0.9,0.5,1.3,0.5c0.5,0,1-0.1,1.3-0.5c0.4-0.3,0.6-0.6,0.8-1.1c0.2-0.5,0.3-1,0.4-1.6c0.1-0.7,0.2-1.2,0.2-1.5
		c0-0.4,0-0.8,0-1.4c0-0.4,0-0.7,0-0.9c0-0.2,0-0.6,0-1c0-0.4-0.1-0.8-0.1-1.2c-0.1-0.4-0.2-0.7-0.3-1c-0.1-0.3-0.3-0.6-0.5-0.9
		c-0.2-0.2-0.5-0.5-0.7-0.6c-0.3-0.2-0.7-0.3-1-0.3c-0.4,0-0.8,0.1-1.2,0.3c-0.3,0.2-0.6,0.5-0.8,0.9c-0.2,0.4-0.3,0.7-0.5,1.1
		c-0.1,0.4-0.2,0.9-0.2,1.3c0,0.5-0.1,1-0.1,1.2L910.4,1125.8z M907,1125.8c0-3.1,0.6-5.3,1.7-6.6c1.1-1.3,2.7-2.1,4.5-2
		c0.8,0,1.6,0.1,2.4,0.5c0.8,0.3,1.4,0.8,1.9,1.4c0.7,0.8,1.1,1.7,1.4,2.7c0.3,1.3,0.5,2.7,0.5,4.1c0,1.4-0.1,2.8-0.5,4.2
		c-0.2,1-0.7,1.9-1.4,2.7c-0.5,0.6-1.2,1.1-2,1.4c-0.8,0.3-1.6,0.4-2.4,0.4c-1.7,0.1-3.4-0.7-4.5-2
		C907.6,1131.1,907,1128.9,907,1125.8z"/>
	<path id="_1990s-5" class="st0" d="M923.8,1130.2c0,0.6,0.3,1.2,0.8,1.6c0.5,0.4,1.2,0.5,1.8,0.5c0.5,0,1.1-0.1,1.5-0.4
		c0.4-0.2,0.7-0.7,0.7-1.2c0-0.5-0.4-1-0.9-1.1c-1-0.4-2-0.6-3-0.8c-0.5-0.1-1-0.2-1.5-0.4c-0.4-0.2-0.8-0.4-1.2-0.6
		c-0.4-0.2-0.7-0.6-0.9-1c-0.2-0.4-0.3-0.9-0.3-1.4c0-0.7,0.1-1.3,0.5-1.9c0.3-0.5,0.7-1,1.2-1.2c0.5-0.3,1.1-0.5,1.7-0.6
		c0.7-0.1,1.3-0.2,2-0.2c1.3-0.1,2.6,0.3,3.8,0.9c1,0.7,1.7,1.8,1.7,3h-3.2c-0.1-1.1-0.9-1.7-2.3-1.7c-1.3,0-1.9,0.4-1.9,1.2
		c0,0.2,0,0.3,0.1,0.5c0.1,0.1,0.2,0.3,0.3,0.4c0.2,0.1,0.3,0.2,0.5,0.3c0.2,0.1,0.4,0.1,0.6,0.2c0.3,0.1,0.5,0.1,0.7,0.2l0.8,0.2
		c0.3,0.1,0.6,0.1,0.8,0.2c1,0.2,2,0.6,2.9,1.2c0.7,0.5,1.1,1.4,1.1,2.3c0,0.7-0.1,1.4-0.5,2.1c-0.3,0.6-0.8,1-1.3,1.3
		c-0.6,0.3-1.2,0.5-1.8,0.7c-0.7,0.1-1.4,0.2-2.1,0.2c-0.9,0-1.9-0.1-2.8-0.4c-0.8-0.3-1.5-0.7-2.1-1.4c-0.6-0.7-0.9-1.6-0.9-2.6
		L923.8,1130.2z"/>
</g>
</svg>
