<?xml version="1.0" encoding="utf-8"?>
<!-- Generator: Adobe Illustrator 25.0.0, SVG Export Plug-In . SVG Version: 6.00 Build 0)  -->
<svg version="1.1" xmlns="http://www.w3.org/2000/svg" xmlns:xlink="http://www.w3.org/1999/xlink" x="0px" y="0px"
	 viewBox="0 0 1200 675" style="enable-background:new 0 0 1200 675;" xml:space="preserve">
<style type="text/css">
	.st0{fill:#FFFFFF;}
	.st1{fill:#8796B2;}
	.st2{fill:#9EABC2;}
	.st3{fill:none;}
	.st4{fill:#E0E8F3;}
	.st5{font-family:'Poppins-Regular';}
	.st6{font-size:10.6883px;}
	.st7{font-family:'Poppins-Bold';}
	.st8{font-size:28.5021px;}
	.st9{letter-spacing:22;}
</style>
<g id="Background">
</g>
<g id="Objects">
	<g>
		<g>
			<polygon class="st0" points="459.1,886.4 447.2,874.5 447.2,874.5 271.1,874.5 259.2,886.4 259.2,932.6 389.1,932.6 401,944.5 
				401,944.5 401,1038.4 329.2,1038.4 317.3,1026.5 317.3,944.5 259.2,944.5 259.2,1084.6 259.2,1084.6 271.1,1096.5 447.2,1096.5 
				447.2,1096.5 459.1,1084.6 459.1,1084.6 459.1,886.4 			"/>
			<g>
				<polygon class="st0" points="105.5,944.5 117.4,932.6 247.3,932.6 247.3,886.4 235.4,874.5 59.3,874.5 47.4,886.4 47.4,944.5 
									"/>
				<polygon class="st0" points="189.2,944.5 177.2,956.4 59.3,956.4 47.4,968.4 47.4,1084.6 59.3,1096.5 235.4,1096.5 
					247.3,1084.6 247.3,1026.5 189.2,1026.5 177.2,1038.4 105.5,1038.4 105.5,1026.5 117.4,1014.6 235.4,1014.6 247.3,1002.6 
					247.3,944.5 				"/>
			</g>
			<g>
				<polygon class="st0" points="529.1,944.5 541.1,932.6 670.9,932.6 670.9,886.4 659,874.5 483,874.5 471,886.4 471,944.5 				"/>
				<polygon class="st0" points="612.8,944.5 600.9,956.4 483,956.4 471,968.4 471,1084.6 483,1096.5 659,1096.5 670.9,1084.6 
					670.9,1026.5 612.8,1026.5 600.9,1038.4 529.1,1038.4 529.1,1026.5 541.1,1014.6 659,1014.6 670.9,1002.6 670.9,944.5 				"/>
			</g>
			<g>
				<polygon class="st0" points="741,944.5 752.9,932.6 882.8,932.6 882.8,886.4 870.8,874.5 694.8,874.5 682.9,886.4 682.9,944.5 
									"/>
				<polygon class="st0" points="824.6,944.5 812.7,956.4 694.8,956.4 682.9,968.4 682.9,1084.6 694.8,1096.5 870.8,1096.5 
					882.8,1084.6 882.8,1026.5 824.6,1026.5 812.7,1038.4 741,1038.4 741,1026.5 752.9,1014.6 870.8,1014.6 882.8,1002.6 
					882.8,944.5 				"/>
			</g>
		</g>
	</g>
	<g>
		<path class="st0" d="M317.3,944.5c-4.8,0.2-9.7,0.3-14.5,0.4c-4.8,0.1-9.7,0.1-14.5,0.1c-4.8,0-9.7,0-14.5-0.1l-7.3-0.1
			c-2.4-0.1-4.8-0.1-7.3-0.2c2.4-0.1,4.8-0.2,7.3-0.2l7.3-0.1c4.8-0.1,9.7-0.1,14.5-0.1c4.8,0,9.7,0,14.5,0.1
			C307.6,944.2,312.5,944.3,317.3,944.5z"/>
		<path class="st0" d="M259.2,886.4l11.8-12l0,0l0.1,0c14.7-0.2,29.3-0.2,44-0.3l44-0.1l44,0.1c14.7,0.1,29.3,0.1,44,0.3l0.1,0l0,0
			l0,0l0,0l0,0l11.8,12l-12-11.8l0,0l0,0l0.1,0c-14.7,0.2-29.3,0.2-44,0.3l-44,0.1l-44-0.1c-14.7-0.1-29.3-0.1-44-0.3l0.1,0
			L259.2,886.4z"/>
		<path class="st1" d="M401,1038.4c-0.1-15.6-0.3-31.3-0.3-46.9l-0.1-46.9l0.4,0.4h0h-0.2l-0.1-0.1l-12-11.9l0.3,0.1l-32.5,0.1
			l-32.5-0.1l-64.9-0.2l-0.3,0l0-0.3c0-15.4,0.2-30.8,0.3-46.2c0.1,15.4,0.3,30.8,0.3,46.2l-0.3-0.3l64.9-0.2l32.5-0.1l32.5,0.1
			l0.2,0l0.1,0.1l11.9,12l-0.3-0.1h0h0.4l0,0.4l-0.1,46.9C401.2,1007.1,401.1,1022.8,401,1038.4z"/>
		<path class="st0" d="M401,1038.4c-6,0.2-12,0.3-17.9,0.3c-6,0.1-12,0.1-17.9,0.1l-9,0l-9,0c-6,0-12-0.1-17.9-0.1l-0.1,0l-0.1-0.1
			c-3.9-4-7.8-8.1-11.7-12.2c4.1,3.9,8.1,7.8,12.2,11.7l-0.2-0.1c6-0.1,12-0.1,17.9-0.1l9,0l9,0c6,0,12,0,17.9,0.1
			C389,1038.1,395,1038.2,401,1038.4z"/>
		<path class="st1" d="M317.3,944.5c0.2,6.8,0.3,13.7,0.4,20.5l0.1,20.5l-0.1,20.5l-0.1,10.2c-0.1,3.4-0.1,6.8-0.2,10.2
			c-0.1-3.4-0.2-6.8-0.2-10.2l-0.1-10.2l-0.1-20.5l0.1-20.5C317,958.2,317.1,951.3,317.3,944.5z"/>
		<polygon class="st1" points="259.2,944.5 259.4,1014.6 259.5,1084.6 259.4,1084.3 259.4,1084.3 259.4,1084.3 259.4,1084.4 
			271.4,1096.3 271.1,1096.2 359.2,1096.1 403.2,1096 447.2,1096.1 446.8,1096.5 446.8,1096.5 446.8,1096.3 446.9,1096.2 
			458.8,1084.3 458.9,1084.2 459.1,1084.2 459.1,1084.2 458.7,1084.6 458.8,985.5 459.1,886.4 459.4,985.5 459.5,1084.6 459.5,1085 
			459.1,1085 459.1,1085 459.4,1084.9 447.5,1096.8 447.6,1096.5 447.6,1096.5 447.6,1097 447.2,1097 403.2,1097 359.2,1097 
			271.1,1096.9 271,1096.9 270.9,1096.8 259,1084.8 259.1,1084.9 259.1,1084.9 258.9,1084.8 258.9,1084.6 259,1014.6 		"/>
	</g>
	<g>
		<path class="st0" d="M47.4,886.4l11.8-12l0,0l0.1,0c14.7-0.2,29.3-0.2,44-0.3l44-0.1l44,0.1c14.7,0.1,29.3,0.1,44,0.3l0.1,0l0,0
			l11.8,12l-12-11.8l0.1,0c-14.7,0.2-29.3,0.2-44,0.3l-44,0.1l-44-0.1c-14.7-0.1-29.3-0.1-44-0.3l0.1,0L47.4,886.4z"/>
		<path class="st1" d="M247.3,886.4l0.3,46.2l0,0.3l-0.3,0l-64.9,0.1l-32.5,0.1l-32.5,0l0.3-0.1l-12,11.9l-0.1,0.1l-0.2,0l-58.1-0.1
			l-0.3-0.3c0-9.7,0-19.4,0.1-29.1l0.2-29.1l0.2,29.1c0.1,9.7,0.1,19.4,0.1,29.1l-0.3-0.3l58.1-0.1l-0.3,0.1l11.9-12l0.1-0.1l0.2,0
			l32.5,0l32.5,0.1l64.9,0.1l-0.3,0.3L247.3,886.4z"/>
		<polygon class="st0" points="47.4,968.4 59.2,956.3 59.2,956.3 59.3,956.3 88.8,956.1 118.3,956 147.7,955.9 177.2,956 
			176.9,956.1 188.9,944.2 189,944.1 189.2,944.1 218.2,944.3 247.3,944.5 218.2,944.8 189.2,944.9 189.5,944.8 177.6,956.8 
			177.4,956.9 177.2,956.9 147.7,956.9 118.3,956.9 88.8,956.8 59.3,956.6 59.4,956.6 		"/>
		<polygon class="st1" points="105.5,1038.4 105.4,1026.5 105.4,1026.4 105.4,1026.4 117.2,1014.4 117.3,1014.3 117.4,1014.3 
			146.9,1014.2 176.4,1014.1 205.9,1014.1 235.4,1014.1 235,1014.2 247,1002.4 246.9,1002.6 247,973.6 247.3,944.5 247.5,973.6 
			247.7,1002.6 247.7,1002.8 247.6,1002.9 235.7,1014.9 235.5,1015 235.4,1015 205.9,1015 176.4,1015 146.9,1015 117.4,1014.8 
			117.6,1014.7 105.6,1026.6 105.6,1026.5 		"/>
		<polygon class="st2" points="247.3,1026.5 247.5,1084.6 247.5,1084.7 247.5,1084.8 235.6,1096.7 235.5,1096.8 235.4,1096.8 
			147.3,1097 103.3,1097 59.3,1096.9 59.1,1096.9 59,1096.8 47.1,1084.9 47,1084.8 47,1084.6 47.1,1026.5 47.4,968.4 47.6,1026.5 
			47.7,1084.6 47.6,1084.3 59.6,1096.2 59.3,1096.1 103.3,1096.1 147.3,1096.1 235.4,1096.2 235.1,1096.3 247.1,1084.4 247,1084.6 
					"/>
		<path class="st0" d="M105.5,1038.4c12-0.2,23.9-0.3,35.9-0.4l35.9-0.1l-0.4,0.1l11.9-11.9l0.1-0.1l0.2,0c9.7,0,19.4,0,29.1,0.1
			c9.7,0.1,19.4,0.2,29.1,0.3c-9.7,0.2-19.4,0.3-29.1,0.3c-9.7,0.1-19.4,0.1-29.1,0.1l0.3-0.1l-11.9,11.9l-0.1,0.1l-0.2,0l-35.9-0.1
			C129.4,1038.7,117.4,1038.6,105.5,1038.4z"/>
	</g>
	<g>
		<path class="st0" d="M471,886.4l11.8-12l0,0l0.1,0c14.7-0.2,29.3-0.2,44-0.3l44-0.1l44,0.1c14.7,0.1,29.3,0.1,44,0.3l0.1,0l0,0
			l11.8,12l-12-11.8l0.1,0c-14.7,0.2-29.3,0.2-44,0.3l-44,0.1l-44-0.1c-14.7-0.1-29.3-0.1-44-0.3l0.1,0L471,886.4z"/>
		<path class="st1" d="M670.9,886.4l0.3,46.2l0,0.3l-0.3,0L606,933l-32.5,0.1l-32.5,0l0.3-0.1l-12,11.9l-0.1,0.1l-0.2,0l-58.1-0.1
			l-0.3-0.3c0-9.7,0-19.4,0.1-29.1l0.2-29.1l0.2,29.1c0.1,9.7,0.1,19.4,0.1,29.1l-0.3-0.3l58.1-0.1l-0.3,0.1l11.9-12l0.1-0.1l0.2,0
			l32.5,0l32.5,0.1l64.9,0.1l-0.3,0.3L670.9,886.4z"/>
		<polygon class="st0" points="471,968.4 482.8,956.3 482.9,956.3 483,956.3 512.4,956.1 541.9,956 571.4,955.9 600.9,956 
			600.6,956.1 612.5,944.2 612.6,944.1 612.8,944.1 641.9,944.3 670.9,944.5 641.9,944.8 612.8,944.9 613.1,944.8 601.2,956.8 
			601.1,956.9 600.9,956.9 571.4,956.9 541.9,956.9 512.4,956.8 483,956.6 483.1,956.6 		"/>
		<polygon class="st1" points="529.1,1038.4 529,1026.5 529,1026.4 529.1,1026.4 540.9,1014.4 541,1014.3 541.1,1014.3 
			570.6,1014.2 600,1014.1 629.5,1014.1 659,1014.1 658.7,1014.2 670.7,1002.4 670.5,1002.6 670.7,973.6 670.9,944.5 671.2,973.6 
			671.3,1002.6 671.3,1002.8 671.2,1002.9 659.3,1014.9 659.2,1015 659,1015 629.5,1015 600,1015 570.6,1015 541.1,1014.8 
			541.2,1014.7 529.2,1026.6 529.3,1026.5 		"/>
		<polygon class="st2" points="670.9,1026.5 671.2,1084.6 671.2,1084.7 671.1,1084.8 659.2,1096.7 659.1,1096.8 659,1096.8 
			571,1097 527,1097 483,1096.9 482.8,1096.9 482.7,1096.8 470.8,1084.9 470.7,1084.8 470.7,1084.6 470.8,1026.5 471,968.4 
			471.3,1026.5 471.4,1084.6 471.3,1084.3 483.2,1096.2 483,1096.1 527,1096.1 571,1096.1 659,1096.2 658.8,1096.3 670.7,1084.4 
			670.7,1084.6 		"/>
		<path class="st0" d="M529.1,1038.4c12-0.2,23.9-0.3,35.9-0.4l35.9-0.1l-0.4,0.1l11.9-11.9l0.1-0.1l0.2,0c9.7,0,19.4,0,29.1,0.1
			c9.7,0.1,19.4,0.2,29.1,0.3c-9.7,0.2-19.4,0.3-29.1,0.3c-9.7,0.1-19.4,0.1-29.1,0.1l0.3-0.1l-11.9,11.9l-0.1,0.1l-0.2,0l-35.9-0.1
			C553.1,1038.7,541.1,1038.6,529.1,1038.4z"/>
	</g>
	<g>
		<path class="st0" d="M682.9,886.4l11.8-12l0,0l0.1,0c14.7-0.2,29.3-0.2,44-0.3l44-0.1l44,0.1c14.7,0.1,29.3,0.1,44,0.3l0.1,0l0,0
			l11.8,12l-12-11.8l0.1,0c-14.7,0.2-29.3,0.2-44,0.3l-44,0.1l-44-0.1c-14.7-0.1-29.3-0.1-44-0.3l0.1,0L682.9,886.4z"/>
		<path class="st1" d="M882.8,886.4l0.3,46.2l0,0.3l-0.3,0l-64.9,0.1l-32.5,0.1l-32.5,0l0.3-0.1l-12,11.9l-0.1,0.1l-0.2,0l-58.1-0.1
			l-0.3-0.3c0-9.7,0-19.4,0.1-29.1l0.2-29.1l0.2,29.1c0.1,9.7,0.1,19.4,0.1,29.1l-0.3-0.3l58.1-0.1l-0.3,0.1l11.9-12l0.1-0.1l0.2,0
			l32.5,0l32.5,0.1l64.9,0.1l-0.3,0.3L882.8,886.4z"/>
		<polygon class="st0" points="682.9,968.4 694.7,956.3 694.7,956.3 694.8,956.3 724.3,956.1 753.8,956 783.2,955.9 812.7,956 
			812.4,956.1 824.4,944.2 824.5,944.1 824.6,944.1 853.7,944.3 882.8,944.5 853.7,944.8 824.6,944.9 824.9,944.8 813,956.8 
			812.9,956.9 812.7,956.9 783.2,956.9 753.8,956.9 724.3,956.8 694.8,956.6 694.9,956.6 		"/>
		<polygon class="st1" points="741,1038.4 740.9,1026.5 740.9,1026.4 740.9,1026.4 752.7,1014.4 752.8,1014.3 752.9,1014.3 
			782.4,1014.2 811.9,1014.1 841.4,1014.1 870.8,1014.1 870.5,1014.2 882.5,1002.4 882.4,1002.6 882.5,973.6 882.8,944.5 883,973.6 
			883.2,1002.6 883.2,1002.8 883,1002.9 871.2,1014.9 871,1015 870.8,1015 841.4,1015 811.9,1015 782.4,1015 752.9,1014.8 
			753.1,1014.7 741.1,1026.6 741.1,1026.5 		"/>
		<polygon class="st2" points="882.8,1026.5 883,1084.6 883,1084.7 883,1084.8 871,1096.7 871,1096.8 870.8,1096.8 782.8,1097 
			738.8,1097 694.8,1096.9 694.6,1096.9 694.5,1096.8 682.6,1084.9 682.5,1084.8 682.5,1084.6 682.6,1026.5 682.9,968.4 
			683.1,1026.5 683.2,1084.6 683.1,1084.3 695.1,1096.2 694.8,1096.1 738.8,1096.1 782.8,1096.1 870.8,1096.2 870.6,1096.3 
			882.6,1084.4 882.5,1084.6 		"/>
		<path class="st0" d="M741,1038.4c12-0.2,23.9-0.3,35.9-0.4l35.9-0.1l-0.4,0.1l11.9-11.9l0.1-0.1l0.2,0c9.7,0,19.4,0,29.1,0.1
			c9.7,0.1,19.4,0.2,29.1,0.3c-9.7,0.2-19.4,0.3-29.1,0.3c-9.7,0.1-19.4,0.1-29.1,0.1l0.3-0.1l-11.9,11.9l-0.1,0.1l-0.2,0l-35.9-0.1
			C764.9,1038.7,752.9,1038.6,741,1038.4z"/>
	</g>
	<g>
		<rect x="282.3" y="486.9" class="st3" width="635.5" height="34.1"/>
		<text transform="matrix(1 0 0 1 284.998 494.7637)"><tspan x="0" y="0" class="st4 st5 st6">Lorem ipsum dolor sit amet, consectetuer adipiscing elit, sed diam nonummy nibh euismod tincidunt ut laoreet dolore </tspan><tspan x="5.2" y="12.8" class="st4 st5 st6">magna aliquam erat volutpat. Ut wisi enim ad minim veniam, quis nostrud exerci tation ullamcorper suscipit lobortis </tspan><tspan x="203.2" y="25.7" class="st4 st5 st6">nisl ut aliquip ex ea commodo consequat. </tspan></text>
		<rect x="282.3" y="154" class="st3" width="635.5" height="71.9"/>
		<text transform="matrix(1 0 0 1 326.9937 175.0898)" class="st4 st7 st8 st9">HAPPY NEW YEAR</text>
	</g>
</g>
</svg>
