<?xml version="1.0" encoding="utf-8"?>
<!-- Generator: Adobe Illustrator 25.0.0, SVG Export Plug-In . SVG Version: 6.00 Build 0)  -->
<svg version="1.1" id="Layer_1" xmlns="http://www.w3.org/2000/svg" xmlns:xlink="http://www.w3.org/1999/xlink" x="0px" y="0px"
	 viewBox="0 0 224.1 211.5" style="enable-background:new 0 0 224.1 211.5;" xml:space="preserve">
<style type="text/css">
	.st0{display:none;}
	.st1{fill:#1C75BC;}
	.st2{fill:url(#SVGID_1_);}
	.st3{fill:url(#SVGID_2_);}
	.st4{fill:#FFFFFF;}
	.st5{fill:url(#SVGID_3_);}
</style>
<g id="Layer_1_1_" class="st0">
	
		<image style="display:inline;overflow:visible;enable-background:new    ;" width="300" height="280" xlink:href="37802FF0.jpg"  transform="matrix(0.7488 0 0 0.7488 -0.8951 1.3634)">
	</image>
</g>
<g id="Layer_2_1_">
	<path class="st1" d="M207.1,173.8c4.6-22.3-2.7-51.4-20-80.2l0.9-3.5l11.7-45.7l1.9-7.5h-7.7h-41.1h-0.1c-0.5,0-5.6,0.1-12.2,2.4
		C94,0,40.3-12,14.3,13.2C-8.6,35.5-3.1,80,24.4,122.9l-7.8,31.5l-1.8,7.4h7.7h34c48.9,47.4,109.6,63.9,137.8,36.5
		c5.9-5.8,10-13,12.2-21.4c1-1.5,1.4-2.5,1.5-2.7L207.1,173.8z M188.5,160.6c-10.6,11.5-31.7,11-55.6,1.1h9.7
		c9.3,0,28.7-7,35.3-33.4l5.8-23.3l0.1-0.5C196.6,127.6,199.3,148.9,188.5,160.6z M40.7,27.7c15.1-16.5,52.3-8.6,88.6,17.5
		c-2.9,2.1-5.7,4.8-8.3,8.1c-0.6-3.8-1.9-7.1-3.9-9.7c-4.7-6.1-11.5-6.8-14.2-6.8c-0.4,0-0.8,0-1.1,0H52.5h-4.6l-1.2,4.5l-6.2,23.2
		l-5.4-8C32.9,44.6,34.5,34.5,40.7,27.7z"/>
	<g>
		
			<linearGradient id="SVGID_1_" gradientUnits="userSpaceOnUse" x1="2.3765" y1="171.7643" x2="173.8766" y2="15.7643" gradientTransform="matrix(1 0 0 -1 0 214)">
			<stop  offset="0" style="stop-color:#5CA8E6"/>
			<stop  offset="0.17" style="stop-color:#FFFFFF"/>
			<stop  offset="0.66" style="stop-color:#FFFFFF"/>
			<stop  offset="1" style="stop-color:#5CA8E6"/>
		</linearGradient>
		<path class="st2" d="M95.4,136.4c0,0,10.1-35.6,18.1-65.6s-11.3-27.9-11.3-27.9H52.5l-15.3,57.7c1.2-5.2-2.5-6.4-2.5-6.4l5.8-18.7
			c0,0,0,0-11.7-17.5s-8.3-34.4-8.3-34.4S9.2,31.9,9.2,52.4c0,33.4,38,72.1,38,72.1c-5.8-6.1-15.9-4.6-15.9-4.6l-8.9,35.9h36.5
			C91.4,155.8,95.4,136.4,95.4,136.4z M86.2,66.8c-3.1,11.3-17.5,62.9-17.5,62.9s-1.8,13.2-16.6,13.2c0,0,3.1-1,6.1-12L76,63.7
			c0,0,3.1-8.6-1.8-8.6h8.9C83.1,55.2,89.3,55.5,86.2,66.8z"/>
		
			<linearGradient id="SVGID_2_" gradientUnits="userSpaceOnUse" x1="5.2041" y1="174.8728" x2="176.7041" y2="18.8729" gradientTransform="matrix(1 0 0 -1 0 214)">
			<stop  offset="0" style="stop-color:#5CA8E6"/>
			<stop  offset="0.17" style="stop-color:#FFFFFF"/>
			<stop  offset="0.66" style="stop-color:#FFFFFF"/>
			<stop  offset="1" style="stop-color:#5CA8E6"/>
		</linearGradient>
		<path class="st3" d="M176.4,181.8c-35,0-79.4-36.5-79.4-36.5c-5.5,12-13.8,11.7-13.8,11.7s41.4,33.1,83.7,33.1
			c27.3,0,35.6-18.4,35.6-18.4S196.3,181.8,176.4,181.8z"/>
	</g>
	<path class="st4" d="M108.3,150.4c2.5,1.5,10.1,5.4,10.1,5.4s15.9,0,24.2,0c7.1,0,23.6-5.5,29.4-28.8c5.8-23.3,5.8-23.3,5.8-23.3
		H149l-6.4,24.5c0,0-1.5,14.2-17.1,14.4c0.9-0.2,3.6-2.2,7-15.6c4.3-16.9,14.1-55.2,14.1-55.2s3.7-16.9,19.9-16.9
		c0,0-4.3,0.3-8.3,15.3S153,88.6,153,88.6h29.1l11.7-45.7h-41.1c0,0-26.4-0.3-35,30.7S99,143.8,99,143.8S106,149,108.3,150.4z"/>
	
		<linearGradient id="SVGID_3_" gradientUnits="userSpaceOnUse" x1="203.3081" y1="61.4605" x2="173.3081" y2="34.9606" gradientTransform="matrix(1 0 0 -1 0 214)">
		<stop  offset="0" style="stop-color:#1C75BC"/>
		<stop  offset="1" style="stop-color:#5CA8E6"/>
	</linearGradient>
	<path class="st5" d="M201.7,116.4c0,0,4.5,6.3,6.8,14.5c2.3,8.1,3.6,14.9,3.6,14.9l12,10.4c0,0-0.3,3.7-8.5,8.6l-0.6,28
		c0,0-4.1-11.7-12.5-21.4c0,0-7,8.4-27.2,8.4l-0.5-0.2c0,0,11.6-7,17.3-24.7c0,0-6.2-12.6-19.6-25.7c0,0,15.1,0.4,25.4,7.6
		C197.9,136.9,201.9,129.5,201.7,116.4z"/>
	<path class="st4" d="M204,124.9c0,0,3.1,5.6,4.7,11.9c1.7,6.3,1.8,11.4,1.8,11.4l9.7,7.6c0,0-0.8,3.1-6.8,6.9l-0.1,19.7
		c0,0-2.7-7.4-8.8-14.8c0,0-5.1,6.5-19.8,6.5l-0.4-0.1c0,0,10-6.2,14.1-19.9c0,0-6-9-15.8-19.1c0,0,11.7,2,19.2,7.6
		C202,142.4,204.1,135.1,204,124.9z"/>
</g>
</svg>
