<?xml version="1.0" encoding="utf-8"?>
<!-- Generator: Adobe Illustrator 25.0.0, SVG Export Plug-In . SVG Version: 6.00 Build 0)  -->
<svg version="1.1" id="Layer_1" xmlns="http://www.w3.org/2000/svg" xmlns:xlink="http://www.w3.org/1999/xlink" x="0px" y="0px"
	 viewBox="0 0 173.8 373.8" style="enable-background:new 0 0 173.8 373.8;" xml:space="preserve">
<style type="text/css">
	.st0{fill:url(#SVGID_1_);}
	.st1{fill:url(#SVGID_2_);}
	.st2{fill:url(#SVGID_3_);}
	.st3{fill:url(#SVGID_4_);}
	.st4{fill:url(#SVGID_5_);}
	.st5{fill:url(#SVGID_6_);}
	.st6{fill:#342D56;}
	.st7{fill:url(#SVGID_7_);}
	.st8{fill:url(#SVGID_8_);}
	.st9{fill:url(#SVGID_9_);}
	.st10{fill:url(#SVGID_10_);}
	.st11{fill:url(#SVGID_11_);}
	.st12{fill:url(#SVGID_12_);}
	.st13{fill:url(#SVGID_13_);}
	.st14{opacity:0.5;fill:#FFFFFF;enable-background:new    ;}
	.st15{fill:url(#SVGID_14_);}
	.st16{fill:url(#SVGID_15_);}
	.st17{fill:url(#SVGID_16_);}
	.st18{fill:url(#SVGID_17_);}
	.st19{fill:url(#SVGID_18_);}
	.st20{fill:url(#SVGID_19_);}
	.st21{fill:url(#SVGID_20_);}
	.st22{fill:url(#SVGID_21_);}
	.st23{fill:#FFFCF2;}
	.st24{fill:url(#SVGID_22_);}
	.st25{opacity:0.4;fill:#FFFFFF;enable-background:new    ;}
	.st26{fill:#DEB99E;}
	.st27{fill:#CCC08B;}
	.st28{fill:#EB6600;}
	.st29{fill:url(#SVGID_23_);}
	.st30{fill:#DBD8EB;}
	.st31{fill:url(#SVGID_24_);}
	.st32{fill:url(#SVGID_25_);}
	.st33{fill:url(#SVGID_26_);}
	.st34{fill:url(#SVGID_27_);}
	.st35{fill:url(#SVGID_28_);}
	.st36{fill:url(#SVGID_29_);}
	.st37{fill:url(#SVGID_30_);}
	.st38{fill:url(#SVGID_31_);}
	.st39{fill:url(#SVGID_32_);}
	.st40{fill:url(#SVGID_33_);}
	.st41{fill:url(#SVGID_34_);}
	.st42{fill:#FFFFFF;}
	.st43{fill:url(#SVGID_35_);}
	.st44{fill:url(#SVGID_36_);}
	.st45{fill:#2F2854;}
	.st46{fill:url(#SVGID_37_);}
	.st47{fill:#37305C;}
	.st48{fill:url(#SVGID_38_);}
	.st49{fill:url(#SVGID_39_);}
	.st50{fill:url(#SVGID_40_);}
	.st51{fill:url(#SVGID_41_);}
	.st52{fill:url(#SVGID_42_);}
	.st53{fill:url(#SVGID_43_);}
	.st54{fill:url(#SVGID_44_);}
	.st55{fill:url(#SVGID_45_);}
	.st56{fill:#CFCAE6;}
</style>
<g>
	<g>
		<g>
		</g>
		<g>
		</g>
		
			<linearGradient id="SVGID_1_" gradientUnits="userSpaceOnUse" x1="105.0121" y1="68.1773" x2="105.0121" y2="2.0352" gradientTransform="matrix(1 0 0 -1 0 381.96)">
			<stop  offset="0" style="stop-color:#F2D200"/>
			<stop  offset="1" style="stop-color:#F27900"/>
		</linearGradient>
		<path class="st0" d="M119.3,314.2c0,7.9-14.3,59.6-14.3,59.6s-14.3-51.7-14.3-59.6s6.4-14.3,14.3-14.3
			C112.9,299.9,119.3,306.3,119.3,314.2z"/>
		
			<linearGradient id="SVGID_2_" gradientUnits="userSpaceOnUse" x1="68.912" y1="68.1773" x2="68.912" y2="2.0352" gradientTransform="matrix(1 0 0 -1 0 381.96)">
			<stop  offset="0" style="stop-color:#F2D200"/>
			<stop  offset="1" style="stop-color:#F27900"/>
		</linearGradient>
		<path class="st1" d="M83.2,314.2c0,7.9-14.3,59.6-14.3,59.6s-14.3-51.7-14.3-59.6s6.4-14.3,14.3-14.3S83.2,306.3,83.2,314.2z"/>
		
			<linearGradient id="SVGID_3_" gradientUnits="userSpaceOnUse" x1="68.8121" y1="71.4129" x2="68.8121" y2="29.6567" gradientTransform="matrix(1 0 0 -1 0 381.96)">
			<stop  offset="0" style="stop-color:#F2D200"/>
			<stop  offset="1" style="stop-color:#F27900"/>
		</linearGradient>
		<path class="st2" d="M79.8,310.6c0,5-11,37.8-11,37.8s-11-32.8-11-37.8C57.6,298.8,80.1,298.8,79.8,310.6z"/>
		
			<linearGradient id="SVGID_4_" gradientUnits="userSpaceOnUse" x1="104.9121" y1="71.4129" x2="104.9121" y2="29.6567" gradientTransform="matrix(1 0 0 -1 0 381.96)">
			<stop  offset="0" style="stop-color:#F2D200"/>
			<stop  offset="1" style="stop-color:#F27900"/>
		</linearGradient>
		<path class="st3" d="M115.9,310.6c0,5-11,37.8-11,37.8s-11-32.8-11-37.8C93.7,298.8,116.2,298.8,115.9,310.6z"/>
		
			<linearGradient id="SVGID_5_" gradientUnits="userSpaceOnUse" x1="68.8121" y1="75.0104" x2="68.8121" y2="49.9265" gradientTransform="matrix(1 0 0 -1 0 381.96)">
			<stop  offset="0" style="stop-color:#F2D200"/>
			<stop  offset="1" style="stop-color:#F27900"/>
		</linearGradient>
		<path class="st4" d="M75.4,307c0,3-6.6,22.7-6.6,22.7S62.2,310,62.2,307C62,299.9,75.6,299.9,75.4,307z"/>
		
			<linearGradient id="SVGID_6_" gradientUnits="userSpaceOnUse" x1="104.912" y1="75.0104" x2="104.912" y2="49.9265" gradientTransform="matrix(1 0 0 -1 0 381.96)">
			<stop  offset="0" style="stop-color:#F2D200"/>
			<stop  offset="1" style="stop-color:#F27900"/>
		</linearGradient>
		<path class="st5" d="M111.5,307c0,3-6.6,22.7-6.6,22.7S98.3,310,98.3,307C98.1,299.9,111.7,299.9,111.5,307z"/>
	</g>
	<rect x="44.6" y="85.1" class="st6" width="84.7" height="10.1"/>
	<rect x="44.6" y="163.6" class="st6" width="84.7" height="10.1"/>
	<g>
		<g>
			
				<linearGradient id="SVGID_7_" gradientUnits="userSpaceOnUse" x1="122.012" y1="220.6534" x2="150.012" y2="220.6534" gradientTransform="matrix(1 0 0 -1 0 381.96)">
				<stop  offset="0" style="stop-color:#FFFFFF"/>
				<stop  offset="1" style="stop-color:#BEB7E8"/>
			</linearGradient>
			<path class="st7" d="M138,38c-0.5-1-3.5-0.8-4,0c-0.3,0.8-12,34.4-12,36c0,3.6,0,211.3,0,211.3c7,0,21,0,28,0
				c0,0,0-207.7,0-211.3C150,72.5,138.3,38.8,138,38z"/>
			
				<linearGradient id="SVGID_8_" gradientUnits="userSpaceOnUse" x1="170.8259" y1="287.6591" x2="141.1587" y2="198.9921" gradientTransform="matrix(1 0 0 -1 0 381.96)">
				<stop  offset="0" style="stop-color:#FFFFFF"/>
				<stop  offset="1" style="stop-color:#BEB7E8"/>
			</linearGradient>
			<path class="st8" d="M122,111.4c0,60.7,0,173.9,0,173.9c7,0,21,0,28,0c-2.1-14.9,6.1-221.9-7.2-233.5
				C147.6,74.7,141.2,99.2,122,111.4z"/>
			
				<linearGradient id="SVGID_9_" gradientUnits="userSpaceOnUse" x1="148.4307" y1="220.0493" x2="97.7639" y2="170.7154" gradientTransform="matrix(1 0 0 -1 0 381.96)">
				<stop  offset="0" style="stop-color:#FFFFFF"/>
				<stop  offset="1" style="stop-color:#BEB7E8"/>
			</linearGradient>
			<path class="st9" d="M150,281.9c0-9.4,0-36.8,0-68.7c-10.4-11.2-16.6-18.5-19.8-33.7c-1.9-68.9,4.7-76.5-4.6-116.9
				c-2,6.1-3.6,11-3.6,11.6c0,3.6,0,211.3,0,211.3h8.3c0-0.9,0-1.9,0-2.9C140.2,282.3,143.9,283.3,150,281.9z"/>
			<g>
				
					<linearGradient id="SVGID_10_" gradientUnits="userSpaceOnUse" x1="122.012" y1="304.51" x2="150.012" y2="304.51" gradientTransform="matrix(1 0 0 -1 0 381.96)">
					<stop  offset="0" style="stop-color:#584D94"/>
					<stop  offset="1" style="stop-color:#312B52"/>
				</linearGradient>
				<rect x="122" y="76.7" class="st10" width="28" height="1.5"/>
				
					<linearGradient id="SVGID_11_" gradientUnits="userSpaceOnUse" x1="122.012" y1="249.91" x2="150.012" y2="249.91" gradientTransform="matrix(1 0 0 -1 0 381.96)">
					<stop  offset="0" style="stop-color:#584D94"/>
					<stop  offset="1" style="stop-color:#312B52"/>
				</linearGradient>
				<rect x="122" y="131.3" class="st11" width="28" height="1.5"/>
				
					<linearGradient id="SVGID_12_" gradientUnits="userSpaceOnUse" x1="122.012" y1="195.31" x2="150.012" y2="195.31" gradientTransform="matrix(1 0 0 -1 0 381.96)">
					<stop  offset="0" style="stop-color:#584D94"/>
					<stop  offset="1" style="stop-color:#312B52"/>
				</linearGradient>
				<rect x="122" y="185.9" class="st12" width="28" height="1.5"/>
				
					<linearGradient id="SVGID_13_" gradientUnits="userSpaceOnUse" x1="122.012" y1="140.71" x2="150.012" y2="140.71" gradientTransform="matrix(1 0 0 -1 0 381.96)">
					<stop  offset="0" style="stop-color:#584D94"/>
					<stop  offset="1" style="stop-color:#312B52"/>
				</linearGradient>
				<rect x="122" y="240.5" class="st13" width="28" height="1.5"/>
			</g>
			<path class="st14" d="M146.6,143c0,1.6-1.3,2.8-2.8,2.8c-1.7,0.1-2.9-1.6-2.8-2.8c0-0.5,0-16.6,0-16.8c0.1-1.5,1.3-2.7,2.8-2.7
				c1.6,0,2.8,1.3,2.8,2.8V143z M146.6,116c0-1.6-1.3-2.8-2.8-2.8c-4-0.1-3.9,8.2,0,8.1C146.7,121.3,146.8,118.1,146.6,116z"/>
		</g>
		<g>
			
				<linearGradient id="SVGID_14_" gradientUnits="userSpaceOnUse" x1="23.812" y1="220.6534" x2="51.812" y2="220.6534" gradientTransform="matrix(1 0 0 -1 0 381.96)">
				<stop  offset="0" style="stop-color:#FFFFFF"/>
				<stop  offset="1" style="stop-color:#BEB7E8"/>
			</linearGradient>
			<path class="st15" d="M39.8,38c-0.5-1-3.5-0.8-4,0c-0.3,0.8-12,34.4-12,36c0,3.6,0,211.3,0,211.3c7,0,21,0,28,0
				c0,0,0-207.7,0-211.3C51.8,72.5,40.1,38.8,39.8,38z"/>
			
				<linearGradient id="SVGID_15_" gradientUnits="userSpaceOnUse" x1="23.1198" y1="213.41" x2="52.0108" y2="213.41" gradientTransform="matrix(1 0 0 -1 0 381.96)">
				<stop  offset="0" style="stop-color:#FFFFFF"/>
				<stop  offset="1" style="stop-color:#BEB7E8"/>
			</linearGradient>
			<path class="st16" d="M23.8,111.4c0,60.7,0,173.9,0,173.9c7,0,21,0,28,0C49.7,270.4,58,63.4,44.6,51.8
				C49.4,74.7,43,99.2,23.8,111.4z"/>
			
				<linearGradient id="SVGID_16_" gradientUnits="userSpaceOnUse" x1="-3211.772" y1="220.0489" x2="-3262.439" y2="170.715" gradientTransform="matrix(-1 0 0 -1 -3186.3782 381.96)">
				<stop  offset="0" style="stop-color:#FFFFFF"/>
				<stop  offset="1" style="stop-color:#BEB7E8"/>
			</linearGradient>
			<path class="st17" d="M23.8,281.9c0-9.4,0-36.8,0-68.7c10.4-11.2,16.6-18.5,19.8-33.7c1.9-68.9-4.7-76.5,4.6-116.9
				c2,6.1,3.6,11,3.6,11.6c0,3.6,0,211.3,0,211.3h-8.3c0-0.9,0-1.9,0-2.9C33.6,282.3,29.9,283.3,23.8,281.9z"/>
			<g>
				
					<linearGradient id="SVGID_17_" gradientUnits="userSpaceOnUse" x1="23.812" y1="304.51" x2="51.812" y2="304.51" gradientTransform="matrix(1 0 0 -1 0 381.96)">
					<stop  offset="0" style="stop-color:#584D94"/>
					<stop  offset="1" style="stop-color:#312B52"/>
				</linearGradient>
				<rect x="23.8" y="76.7" class="st18" width="28" height="1.5"/>
				
					<linearGradient id="SVGID_18_" gradientUnits="userSpaceOnUse" x1="23.812" y1="249.91" x2="51.812" y2="249.91" gradientTransform="matrix(1 0 0 -1 0 381.96)">
					<stop  offset="0" style="stop-color:#584D94"/>
					<stop  offset="1" style="stop-color:#312B52"/>
				</linearGradient>
				<rect x="23.8" y="131.3" class="st19" width="28" height="1.5"/>
				
					<linearGradient id="SVGID_19_" gradientUnits="userSpaceOnUse" x1="23.812" y1="195.31" x2="51.812" y2="195.31" gradientTransform="matrix(1 0 0 -1 0 381.96)">
					<stop  offset="0" style="stop-color:#584D94"/>
					<stop  offset="1" style="stop-color:#312B52"/>
				</linearGradient>
				<rect x="23.8" y="185.9" class="st20" width="28" height="1.5"/>
				
					<linearGradient id="SVGID_20_" gradientUnits="userSpaceOnUse" x1="23.812" y1="140.71" x2="51.812" y2="140.71" gradientTransform="matrix(1 0 0 -1 0 381.96)">
					<stop  offset="0" style="stop-color:#584D94"/>
					<stop  offset="1" style="stop-color:#312B52"/>
				</linearGradient>
				<rect x="23.8" y="240.5" class="st21" width="28" height="1.5"/>
			</g>
			<path class="st14" d="M34.8,144.8c0,1.6-1.3,2.8-2.8,2.8c-1.7,0.1-2.9-1.6-2.8-2.8c0-0.5,0-16.6,0-16.8c0.1-1.5,1.3-2.7,2.8-2.7
				c1.6,0,2.8,1.3,2.8,2.8V144.8z M34.8,117.8c0-1.6-1.3-2.8-2.8-2.8c-4-0.1-3.9,8.2,0,8.1C34.9,123.1,35,119.9,34.8,117.8z"/>
		</g>
	</g>
	<g>
		
			<linearGradient id="SVGID_21_" gradientUnits="userSpaceOnUse" x1="3.0781" y1="339.9531" x2="109.6766" y2="190.6095" gradientTransform="matrix(1 0 0 -1 0 381.96)">
			<stop  offset="0" style="stop-color:#F2D200"/>
			<stop  offset="1" style="stop-color:#F27900"/>
		</linearGradient>
		<path class="st22" d="M86.9,0C31.5,40.6,62.8,144.6,55,281.5c15.9,0,47.9,0,63.8,0c0,0,0-199.8,0-213.6
			C118.8,47.2,110.2,13.8,86.9,0z"/>
		<path class="st23" d="M86.9,0C65.7,14.9,57,43.4,55.1,68.1C54.3,43,64,13.1,86.9,0z"/>
		<g>
		</g>
		
			<linearGradient id="SVGID_22_" gradientUnits="userSpaceOnUse" x1="-1.8107" y1="287.4697" x2="102.4392" y2="221.2198" gradientTransform="matrix(1 0 0 -1 0 381.96)">
			<stop  offset="0" style="stop-color:#F27900;stop-opacity:0.2"/>
			<stop  offset="1" style="stop-color:#F27900"/>
		</linearGradient>
		<path class="st24" d="M86.9,281.5h31.9c0,0,0-199.8,0-213.6c0-20.7-8.6-54.1-31.9-67.9C112,32.5,106.5,81.5,55,107.5
			c0,37.1,0,63,0,174H86.9z"/>
		<path class="st25" d="M64.3,49.9c-7.7-1.5,0.7-14.5,1.8-19c1.8-4.1,8.2-1.3,6.4,2.8C69.5,37.7,69.9,49.5,64.3,49.9z M76.3,25.9
			c3.4-3.6-2.3-8.7-5.3-4.6C67.4,24.9,73.4,30,76.3,25.9z"/>
		<path class="st26" d="M73.1,281.5c9,0,36.3,0,45.7,0c-2.4-0.6,4.9-117.2-2.8-159.2C115.6,95.4,97.4,24.8,80.4,82
			C65.9,128.5,75.9,201.8,73.1,281.5z"/>
		<g>
			<rect x="55" y="70.6" class="st27" width="63.9" height="1.2"/>
			<rect x="55" y="71.2" class="st28" width="63.9" height="1.2"/>
		</g>
		<g>
			<rect x="55" y="114.3" class="st27" width="63.9" height="1.2"/>
			<rect x="55" y="114.9" class="st28" width="63.9" height="1.2"/>
		</g>
		<g>
			<rect x="55" y="158" class="st27" width="63.9" height="1.2"/>
			<rect x="55" y="158.6" class="st28" width="63.9" height="1.2"/>
		</g>
	</g>
	<g>
		<g>
			
				<linearGradient id="SVGID_23_" gradientUnits="userSpaceOnUse" x1="26.8407" y1="182.9142" x2="79.0047" y2="172.3303" gradientTransform="matrix(1 0 0 -1 0 381.96)">
				<stop  offset="0" style="stop-color:#FFFFFF"/>
				<stop  offset="1" style="stop-color:#BEB7E8"/>
			</linearGradient>
			<path class="st29" d="M65.5,118.5c-9.4,14.9-3.5,64-17.1,85.5c-23.8,33.6-47.3,37.3-47.5,75.7c0.2,0.9,34.7,10.3,37.2,10.3
				c4.1,0,20.9,0,29.1,0V118.5H65.5z"/>
			<path class="st30" d="M2.2,268.6h64.9v1.3H44.8V290c-0.4,0-0.7,0-1.1,0v-20.1h-19v17c-0.4-0.1-0.7-0.2-1.1-0.3v-16.7H2
				C2,269.5,2.1,269,2.2,268.6z"/>
			
				<linearGradient id="SVGID_24_" gradientUnits="userSpaceOnUse" x1="21.291" y1="166.9823" x2="28.8631" y2="110.3003" gradientTransform="matrix(1 0 0 -1 0 381.96)">
				<stop  offset="0" style="stop-color:#584D94"/>
				<stop  offset="1" style="stop-color:#312B52"/>
			</linearGradient>
			<path class="st31" d="M6.6,249.7c4.1-7.3,27.3-26.6,38.8-41.4h4.9C28.6,241,6.3,245,5.6,281.4c-2.9-0.9-5.6-1.5-5.6-1.8
				C-0.2,278.8,2.1,257.7,6.6,249.7z"/>
			<g>
				
					<linearGradient id="SVGID_25_" gradientUnits="userSpaceOnUse" x1="27.1373" y1="149.9152" x2="55.2286" y2="121.1756" gradientTransform="matrix(1 0 0 -1 0 381.96)">
					<stop  offset="0" style="stop-color:#4F9BFC"/>
					<stop  offset="1" style="stop-color:#363DAD"/>
				</linearGradient>
				<path class="st32" d="M55.3,248.9c0.3,15.2-23.7,15.2-23.4,0C31.6,233.7,55.6,233.7,55.3,248.9z"/>
				
					<linearGradient id="SVGID_26_" gradientUnits="userSpaceOnUse" x1="33.5876" y1="142.7992" x2="50.8329" y2="125.156" gradientTransform="matrix(1 0 0 -1 0 381.96)">
					<stop  offset="0" style="stop-color:#F2EA00"/>
					<stop  offset="1" style="stop-color:#F29500"/>
				</linearGradient>
				<polygon class="st33" points="43.6,241.3 45.7,246.1 51,246.6 47,250.1 48.2,255.2 43.6,252.6 39.1,255.2 40.3,250.1 
					36.3,246.6 41.5,246.1 				"/>
			</g>
		</g>
		<g>
			
				<linearGradient id="SVGID_27_" gradientUnits="userSpaceOnUse" x1="189.0898" y1="157.5825" x2="104.8624" y2="178.351" gradientTransform="matrix(1 0 0 -1 0 381.96)">
				<stop  offset="0" style="stop-color:#FFFFFF"/>
				<stop  offset="1" style="stop-color:#BEB7E8"/>
			</linearGradient>
			<path class="st34" d="M108.3,118.5c9.4,14.9,3.5,64,17.1,85.5c23.8,33.6,47.3,37.3,47.5,75.7c-0.2,0.9-34.7,10.3-37.2,10.3
				c-4.1,0-20.9,0-29.1,0V118.5H108.3z"/>
			<path class="st30" d="M171.6,268.6h-64.9v1.3H129V290c0.4,0,0.7,0,1.1,0v-20.1h19v17c0.4-0.1,0.7-0.2,1.1-0.3v-16.7h21.6
				C171.8,269.5,171.7,269,171.6,268.6z"/>
			
				<linearGradient id="SVGID_28_" gradientUnits="userSpaceOnUse" x1="131.0682" y1="172.3734" x2="175.8511" y2="104.0089" gradientTransform="matrix(1 0 0 -1 0 381.96)">
				<stop  offset="0" style="stop-color:#584D94"/>
				<stop  offset="1" style="stop-color:#312B52"/>
			</linearGradient>
			<path class="st35" d="M167.2,249.7c-4.1-7.3-27.4-26.6-38.8-41.4h-4.9c21.7,32.7,44,36.7,44.7,73.1c2.9-0.9,5.6-1.5,5.6-1.8
				C174,278.8,171.7,257.7,167.2,249.7z"/>
			<g>
				
					<linearGradient id="SVGID_29_" gradientUnits="userSpaceOnUse" x1="113.6982" y1="149.9404" x2="141.7908" y2="121.1995" gradientTransform="matrix(1 0 0 -1 0 381.96)">
					<stop  offset="0" style="stop-color:#4F9BFC"/>
					<stop  offset="1" style="stop-color:#363DAD"/>
				</linearGradient>
				<path class="st36" d="M141.9,248.9c0.3,15.2-23.7,15.2-23.4,0C118.3,233.7,142.1,233.7,141.9,248.9z"/>
				
					<linearGradient id="SVGID_30_" gradientUnits="userSpaceOnUse" x1="120.106" y1="142.7802" x2="137.351" y2="125.1376" gradientTransform="matrix(1 0 0 -1 0 381.96)">
					<stop  offset="0" style="stop-color:#F2EA00"/>
					<stop  offset="1" style="stop-color:#F29500"/>
				</linearGradient>
				<polygon class="st37" points="130.2,241.3 132.3,246.1 137.5,246.6 133.6,250.1 134.7,255.2 130.2,252.6 125.6,255.2 
					126.8,250.1 122.8,246.6 128.1,246.1 				"/>
			</g>
		</g>
		
			<linearGradient id="SVGID_31_" gradientUnits="userSpaceOnUse" x1="178.1178" y1="160.0277" x2="102.8767" y2="178.5804" gradientTransform="matrix(1 0 0 -1 0 381.96)">
			<stop  offset="0" style="stop-color:#FFFFFF"/>
			<stop  offset="1" style="stop-color:#BEB7E8"/>
		</linearGradient>
		<path class="st38" d="M131.6,212.4c-22.6-19.7-12.5-90.8-24.8-93.8v171.5c8.2,0,24.9,0,29.1,0c1.1,0,17.2-4.2,24.9-6.3
			L131.6,212.4z"/>
		
			<linearGradient id="SVGID_32_" gradientUnits="userSpaceOnUse" x1="78.0388" y1="272.9241" x2="118.6043" y2="116.5073" gradientTransform="matrix(1 0 0 -1 0 381.96)">
			<stop  offset="0" style="stop-color:#FFFFFF"/>
			<stop  offset="1" style="stop-color:#BEB7E8"/>
		</linearGradient>
		<path class="st39" d="M132.4,290l-12.9-25c-0.5-10.3-6.4-14.9-7.9-15.9c-2.4-3.8,5.6-134.3-4.8-130.5v130.3H96.1v38.8h10.7v2.3
			C113.4,290,125.8,290,132.4,290z"/>
		
			<linearGradient id="SVGID_33_" gradientUnits="userSpaceOnUse" x1="32.2915" y1="214.4091" x2="188.1884" y2="169.7431" gradientTransform="matrix(1 0 0 -1 0 381.96)">
			<stop  offset="0" style="stop-color:#FFFFFF"/>
			<stop  offset="1" style="stop-color:#BEB7E8"/>
		</linearGradient>
		<path class="st40" d="M101,78.2h-4.6l-2.5,2.5H80.1l-2.5-2.5H73c-14,31.4-5.2,172.9-7.5,204.8c0,7.9,18.9,3.7,21.5,4.7
			c2.7-1,21.5,3.1,21.5-4.7C106.2,250.3,115,110.3,101,78.2z"/>
		
			<linearGradient id="SVGID_34_" gradientUnits="userSpaceOnUse" x1="64.3158" y1="208.2583" x2="107.8165" y2="208.2583" gradientTransform="matrix(1 0 0 -1 0 381.96)">
			<stop  offset="0" style="stop-color:#FFFFFF"/>
			<stop  offset="1" style="stop-color:#BEB7E8"/>
		</linearGradient>
		<path class="st41" d="M65.3,132c0,31.2,0,148,0,150.9c0,3.3,3.5,4.7,6.1,4.7c11.9,0,19,0,30.8,0c2.7,0,6.1-1.4,6.1-4.7
			c0-3.3,0-149.3,0-158.1c-0.4-28-5.8-46.1-15.1-65C100.5,79.9,95.6,117.6,65.3,132z"/>
		<path class="st42" d="M65.3,132c1.3,36.9,1.2,79.6,0,116.7C64.1,211.7,64.1,168.9,65.3,132z"/>
		<path class="st42" d="M86.2,151.8c0.6,24,0.2,51.8,0.2,76C86.1,203.7,86.7,175.8,86.2,151.8z"/>
		
			<linearGradient id="SVGID_35_" gradientUnits="userSpaceOnUse" x1="108.8626" y1="105.868" x2="76.5393" y2="113.8382" gradientTransform="matrix(1 0 0 -1 0 381.96)">
			<stop  offset="0" style="stop-color:#FFFFFF"/>
			<stop  offset="1" style="stop-color:#BEB7E8"/>
		</linearGradient>
		<path class="st43" d="M73.9,287.7c13.3-0.4,18.6,0.8,31.3-0.5l-24.6-38.3h-6.7L73.9,287.7L73.9,287.7z"/>
		
			<linearGradient id="SVGID_36_" gradientUnits="userSpaceOnUse" x1="72.8461" y1="313.3105" x2="100.9784" y2="313.3105" gradientTransform="matrix(1 0 0 -1 0 381.96)">
			<stop  offset="0" style="stop-color:#584D94"/>
			<stop  offset="1" style="stop-color:#312B52"/>
		</linearGradient>
		<path class="st44" d="M100.5,76.8c-4.8-10.3-3.9-19-13.6-20.2c-9.8,1.1-9.4,11.5-14.1,21.6h4.6l2.5,2.5h13.8l2.5-2.5h4.6
			C100.8,77.7,100.6,77.2,100.5,76.8z"/>
		<path class="st45" d="M84.1,80.7h9.6l2.5-2.5h4.6c-2.5-7.2-5.7-15.4-7.6-18.3C93.4,59.9,94.7,72.5,84.1,80.7z"/>
		
			<linearGradient id="SVGID_37_" gradientUnits="userSpaceOnUse" x1="76.8993" y1="290.3915" x2="97.8029" y2="271.1562" gradientTransform="matrix(1 0 0 -1 0 381.96)">
			<stop  offset="0" style="stop-color:#584D94"/>
			<stop  offset="1" style="stop-color:#312B52"/>
		</linearGradient>
		<path class="st46" d="M97.7,95.4c-1.7-1.5-7.7-5.7-10.8-5.7c-3,0-9,4.2-10.8,5.7c-3.4,2.4-3.1,4.9-3,7.8c0.6,2,3.9-1.3,4.5-1.7
			c0.7-3.4-0.1-3.1,3.1-4.9c1.7-0.4-0.3,2.8,1.6,2.8c3.4,0,5.8,0,9.2,0c1.3-0.2,0.8-1.5,0.9-2.4c0-1.5,2.3,0.8,2.9,1.1
			c1.7,3-0.9,2.8,3.8,5.5c2.6,1.3,1.3-2.4,1.6-4.1C100.7,98.3,99.4,96.9,97.7,95.4z"/>
		<path class="st47" d="M97.7,95.4c-1.7-1.5-7.7-5.7-10.8-5.7c-4.8,1-13.7,5.8-13.8,10.7c1.2-4.1,8.9-9,13.8-9.8
			c4.7,0.8,12.6,5.7,13.8,9.8C100.9,98.4,99.8,97.3,97.7,95.4z"/>
		<g>
			
				<linearGradient id="SVGID_38_" gradientUnits="userSpaceOnUse" x1="83.7621" y1="274.1967" x2="83.7621" y2="267.905" gradientTransform="matrix(1 0 0 -1 0 381.96)">
				<stop  offset="0" style="stop-color:#584D94"/>
				<stop  offset="1" style="stop-color:#312B52"/>
			</linearGradient>
			<path class="st48" d="M85.9,112.1c0,1.5-2.3,1-3.2,1.1c-1.5,0-1-2.3-1.1-3.2c0-1.5,2.3-1,3.2-1.1
				C86.4,108.9,85.8,111.2,85.9,112.1z"/>
			
				<linearGradient id="SVGID_39_" gradientUnits="userSpaceOnUse" x1="90.1621" y1="274.1967" x2="90.1621" y2="267.905" gradientTransform="matrix(1 0 0 -1 0 381.96)">
				<stop  offset="0" style="stop-color:#584D94"/>
				<stop  offset="1" style="stop-color:#312B52"/>
			</linearGradient>
			<path class="st49" d="M92.3,112.1c0,1.5-2.3,1-3.2,1.1c-1.5,0-1-2.3-1.1-3.2c0-1.5,2.3-1,3.2-1.1
				C92.8,108.9,92.2,111.2,92.3,112.1z"/>
		</g>
		<g>
			
				<linearGradient id="SVGID_40_" gradientUnits="userSpaceOnUse" x1="104.943" y1="72.4653" x2="105.0514" y2="98.6964" gradientTransform="matrix(1 0 0 -1 0 381.96)">
				<stop  offset="0" style="stop-color:#584D94"/>
				<stop  offset="1" style="stop-color:#312B52"/>
			</linearGradient>
			<path class="st50" d="M118.8,300.8c0.5,2.3-1.1,4.2-3.5,4.2H94.6c-2.4,0-3.9-1.9-3.5-4.2l4.3-20.6c1-5.9,9.9-3.9,13.9-4.2
				c2.4,0,4.7,1.9,5.2,4.2L118.8,300.8z"/>
			
				<linearGradient id="SVGID_41_" gradientUnits="userSpaceOnUse" x1="105.512" y1="102.1097" x2="105.512" y2="83.212" gradientTransform="matrix(1 0 0 -1 0 381.96)">
				<stop  offset="0" style="stop-color:#FFFFFF"/>
				<stop  offset="1" style="stop-color:#BEB7E8"/>
			</linearGradient>
			<path class="st51" d="M100.6,276c-6.6-0.4-6.1,11.7-7.6,15.7l0,0l25,5.3l-3.5-16.8C113.5,274.3,104.6,276.3,100.6,276z"/>
			
				<linearGradient id="SVGID_42_" gradientUnits="userSpaceOnUse" x1="68.8429" y1="72.4653" x2="68.9513" y2="98.6964" gradientTransform="matrix(1 0 0 -1 0 381.96)">
				<stop  offset="0" style="stop-color:#584D94"/>
				<stop  offset="1" style="stop-color:#312B52"/>
			</linearGradient>
			<path class="st52" d="M82.7,300.8c0.5,2.3-1.1,4.2-3.5,4.2H58.5c-2.4,0-3.9-1.9-3.5-4.2l4.3-20.6c1-5.9,9.9-3.9,13.9-4.2
				c2.4,0,4.7,1.9,5.2,4.2L82.7,300.8z"/>
			
				<linearGradient id="SVGID_43_" gradientUnits="userSpaceOnUse" x1="69.412" y1="102.1097" x2="69.412" y2="83.212" gradientTransform="matrix(1 0 0 -1 0 381.96)">
				<stop  offset="0" style="stop-color:#FFFFFF"/>
				<stop  offset="1" style="stop-color:#BEB7E8"/>
			</linearGradient>
			<path class="st53" d="M64.5,276c-6.6-0.4-6.1,11.7-7.6,15.7l0,0l25,5.3l-3.5-16.8C77.4,274.3,68.5,276.3,64.5,276z"/>
			
				<linearGradient id="SVGID_44_" gradientUnits="userSpaceOnUse" x1="56.6908" y1="113.66" x2="82.1912" y2="113.66" gradientTransform="matrix(1 0 0 -1 0 381.96)">
				<stop  offset="0" style="stop-color:#FCFCFE"/>
				<stop  offset="1" style="stop-color:#BEB7E8"/>
			</linearGradient>
			<path class="st54" d="M65.4,248.9c0,0-8.3,4.7-8.3,17.6s0,21.2,0,21.2h23.5v-38.8L65.4,248.9L65.4,248.9z"/>
			
				<linearGradient id="SVGID_45_" gradientUnits="userSpaceOnUse" x1="122.8997" y1="113.66" x2="93.5657" y2="113.66" gradientTransform="matrix(1 0 0 -1 0 381.96)">
				<stop  offset="0" style="stop-color:#FFFFFF"/>
				<stop  offset="1" style="stop-color:#BEB7E8"/>
			</linearGradient>
			<path class="st55" d="M108.4,248.9c0,0,8.3,4.7,8.3,17.6s0,21.2,0,21.2H93.2v-38.8L108.4,248.9L108.4,248.9z"/>
		</g>
		<g>
			<rect x="65.3" y="124.8" class="st56" width="43.1" height="0.9"/>
			<rect x="86.5" y="124.8" class="st56" width="0.9" height="117.3"/>
			<rect x="65.3" y="163.6" class="st56" width="43.1" height="0.9"/>
			<rect x="65.3" y="202.4" class="st56" width="43.1" height="0.9"/>
			<rect x="65.3" y="241.2" class="st56" width="43.1" height="0.9"/>
		</g>
		<path class="st42" d="M74.6,89.7c-5.6-1.1-0.1-10,0.5-13.7c1.1-3.1,5.9-1.3,4.7,1.7C77.6,81,78.7,89,74.6,89.7z M82.4,71.9
			c2-2.7-2.6-5.8-4.3-2.6C76.2,72.3,80.6,75.1,82.4,71.9z"/>
		<path class="st14" d="M105,211.8c0,1.6-1.3,2.8-2.8,2.8c-1.7,0.1-2.9-1.6-2.8-2.8c0-0.5,0-16.6,0-16.8c0.1-1.5,1.3-2.7,2.8-2.7
			c1.6,0,2.8,1.3,2.8,2.8V211.8z M105,184.8c0-1.6-1.3-2.8-2.8-2.8c-4-0.1-3.9,8.2,0,8.1C105.1,190.1,105.2,186.9,105,184.8z"/>
		<path class="st14" d="M19.8,265.3c-10.9-3.2,7.7-18.5,13.4-25.2c1.7-2,4.7-5,7.2-2.4c2.7,2.5-0.2,5.5-2.2,7.2
			c-6.6,6.8-12.9,13.2-15.3,18.3C22.3,264.6,21.1,265.3,19.8,265.3z M47.7,234.9c4.6-3.2,0.3-9.9-4-6
			C39,231.7,43.6,238.8,47.7,234.9z"/>
		<path class="st14" d="M146.7,258.5c-2.7-5.4-11.6-13.5-18.3-20c-3.3-3.1,1.7-8.2,4.8-5c7.6,7.3,16.4,15.3,19.6,21.8
			C154.9,259.2,148.9,262.6,146.7,258.5z M123.5,232.1c7.1-0.7,1.1-11.8-3.7-7.4C116.9,227.2,120.5,231.9,123.5,232.1z"/>
	</g>
</g>
</svg>
