<?xml version="1.0" encoding="utf-8"?>
<!-- Generator: Adobe Illustrator 25.0.0, SVG Export Plug-In . SVG Version: 6.00 Build 0)  -->
<svg version="1.1"
	 id="Layer_1_1_" xmlns:cc="http://creativecommons.org/ns#" xmlns:dc="http://purl.org/dc/elements/1.1/" xmlns:inkscape="http://www.inkscape.org/namespaces/inkscape" xmlns:rdf="http://www.w3.org/1999/02/22-rdf-syntax-ns#" xmlns:sodipodi="http://sodipodi.sourceforge.net/DTD/sodipodi-0.dtd" xmlns:svg="http://www.w3.org/2000/svg"
	 xmlns="http://www.w3.org/2000/svg" xmlns:xlink="http://www.w3.org/1999/xlink" x="0px" y="0px" viewBox="0 0 720 340"
	 style="enable-background:new 0 0 720 340;" xml:space="preserve">
<style type="text/css">
	.st0{fill:url(#XMLID_3_);}
</style>
<sodipodi:namedview  bordercolor="#666666" borderopacity="1" fit-margin-bottom="0" fit-margin-left="0" fit-margin-right="0" fit-margin-top="0" gridtolerance="10" guidetolerance="10" id="namedview3482" inkscape:current-layer="Layer_1_1_" inkscape:cx="1220.7335" inkscape:cy="-80.975343" inkscape:pageopacity="0" inkscape:pageshadow="2" inkscape:window-height="1027" inkscape:window-maximized="1" inkscape:window-width="1680" inkscape:window-x="-8" inkscape:window-y="-8" inkscape:zoom="0.49015356" objecttolerance="10" pagecolor="#ffffff" showgrid="false">
	</sodipodi:namedview>
<path id="path3441" inkscape:connector-curvature="0" d="M260.8,184.4h-13v-18.5h-8.4v18.5H226v-47.8h13.3v17.9h8.4v-17.9h13
	L260.8,184.4L260.8,184.4z M320.4,184.6c13.3,0,24.2-11.1,24.2-24.6c0-13.7-10.9-24.3-24.2-24.3c-13.5,0-20.3,9.8-22,13.8
	c0-5.9-5.9-13-12.8-13h-22.2v47.9h20.7c8.4,0,14.3-7.2,14.3-13.5C300.3,174.8,306.9,184.6,320.4,184.6L320.4,184.6L320.4,184.6z
	 M282.4,165.1c1.9,0,3.5,1.9,3.5,4c0,2.2-1.5,4.1-3.5,4.1h-6.6v-8.1H282.4L282.4,165.1z M282.4,147.2c1.9,0,3.5,1.9,3.5,4
	c0,2.1-1.5,4-3.5,4h-6.6v-8H282.4L282.4,147.2z M291.2,160c1.5-0.1,4.1-1.9,5-2.9c-0.4,1.3-0.4,5.3,0,6.6
	C295.1,162.1,292.7,160.3,291.2,160L291.2,160z M308.2,160c0-6.7,5.5-12.2,12.2-12.2c6.8,0.1,12.2,5.6,12.1,12.3
	c-0.1,6.7-5.5,12-12.2,12C313.7,172.2,308.2,166.8,308.2,160L308.2,160L308.2,160z M320.4,169.6c5.2,0,9.5-4.3,9.5-9.6
	s-4.4-9.5-9.5-9.5c-5.3,0-9.6,4.2-9.6,9.5S315,169.6,320.4,169.6L320.4,169.6z"/>
<linearGradient id="XMLID_3_" gradientUnits="userSpaceOnUse" x1="349.2764" y1="179.2448" x2="508.1654" y2="179.2448" gradientTransform="matrix(1 0 0 -1 0 339.3897)">
	<stop  offset="0" style="stop-color:#991EEB"/>
	<stop  offset="0.399" style="stop-color:#5822B4"/>
	<stop  offset="0.727" style="stop-color:#5822B4"/>
	<stop  offset="1" style="stop-color:#991EEB"/>
</linearGradient>
<path id="XMLID_1_" inkscape:connector-curvature="0" class="st0" d="M414.1,153.5c-0.3-11.6-8.5-17.7-18.5-17.7
	c-5.5,0-10.5,1.8-13.9,5.4c-3.4-3.6-8.4-5.4-13.9-5.4c-10.1,0-18.3,6.2-18.5,17.8c0,0,0,0.1,0,0.1V180c0,2.4,2,4.4,4.4,4.4h4.2
	c0.4,0,0.7-0.3,0.7-0.7v-30.1l0,0c0.2-5.7,4.2-8.7,9.2-8.7c5,0,9.1,3,9.2,8.7l0,0V180c0,2.4,2,4.4,4.4,4.4h4.2
	c0.4,0,0.7-0.3,0.7-0.7v-30.1l0,0c0.2-5.7,4.2-8.7,9.2-8.7c5,0,9.1,3,9.2,8.7l0,0V180c0,2.4,2,4.4,4.4,4.4h4.2
	c0.4,0,0.7-0.3,0.7-0.7L414.1,153.5C414.1,153.5,414.1,153.5,414.1,153.5L414.1,153.5z M507.6,136.5h-7.1c-1.9,0-3.8,1-4.9,2.6
	l-7.8,11.5c-1,1.5-3.2,1.5-4.3,0l-7.8-11.5c-1.1-1.6-2.9-2.6-4.9-2.6h-7.1c-0.4,0-0.7,0.5-0.5,0.8l13.9,20.6c1,1.5,1,3.4,0,4.9
	l-13.9,20.6c-0.3,0.4,0,0.8,0.5,0.8h7.1c1.9,0,3.8-1,4.9-2.6l7.8-11.5c1-1.5,3.2-1.5,4.3,0l7.8,11.5c1.1,1.6,2.9,2.6,4.9,2.6h7.1
	c0.4,0,0.7-0.5,0.5-0.8l-13.9-20.6c-1-1.5-1-3.4,0-4.9l13.9-20.6C508.3,137,508.1,136.5,507.6,136.5L507.6,136.5z M460.3,136.5h-4.2
	c-2.1,0-3.9,1.5-4.3,3.5c-3.7-2.8-8.3-4.3-13.3-4.3c-12.2,0-22,8.5-22,24.4c0,16,9.8,24.4,22,24.4c5,0,9.6-1.4,13.3-4.2
	c0.2,2.2,2.1,4,4.4,4h4.2c0.4,0,0.7-0.3,0.7-0.7v-46.4C461,136.8,460.7,136.5,460.3,136.5z M438.5,175.5c-7.3,0-13.2-5.3-13.2-15.3
	c0-10,5.9-15.3,13.2-15.3s13.2,5.3,13.2,15.3C451.6,170.2,445.7,175.5,438.5,175.5z"/>
</svg>
