<?xml version="1.0" encoding="utf-8"?>
<!-- Generator: Adobe Illustrator 25.0.0, SVG Export Plug-In . SVG Version: 6.00 Build 0)  -->
<svg version="1.1" id="Layer_1" xmlns="http://www.w3.org/2000/svg" xmlns:xlink="http://www.w3.org/1999/xlink" x="0px" y="0px"
	 viewBox="0 0 800 425" style="enable-background:new 0 0 800 425;" xml:space="preserve">
<style type="text/css">
	.st0{fill:#1CE783;}
</style>
<g id="XMLID_2489_">
	<path id="XMLID_2490_" class="st0" d="M463.3,293.2h42.9V115.3h-42.9V293.2z M387.7,242.6c0,6.4-5.1,11.5-11.5,11.5h-25
		c-6.3,0-11.5-5.1-11.5-11.5c0-2.4,0-71.8,0-71.8h-42.9v75.3c0,30.8,19.7,47,48.8,47h42c26.8,0,42.9-19.3,42.9-47v-75.3h-42.9
		C387.7,170.8,387.7,240.2,387.7,242.6z M629.6,170.8c0,0,0,69.4,0,71.8c0,6.4-5.1,11.5-11.5,11.5h-25c-6.4,0-11.5-5.1-11.5-11.5
		c0-2.4,0-71.8,0-71.8h-42.9v75.3c0,30.8,19.7,47,48.8,47h42c26.8,0,42.9-19.3,42.9-47v-75.3H629.6z M217.4,170.8c0,0-22.3,0-27.5,0
		c-9.6,0-14.5,2.6-14.5,2.6v-58.1h-42.9v177.9h42.9v-71.8c0-6.3,5.2-11.5,11.5-11.5h25c6.4,0,11.5,5.1,11.5,11.5v71.8h42.9v-77.3
		C266.2,183.3,244.5,170.8,217.4,170.8z"/>
</g>
</svg>
