<?xml version="1.0" encoding="utf-8"?>
<!-- Generator: Adobe Illustrator 25.0.0, SVG Export Plug-In . SVG Version: 6.00 Build 0)  -->
<svg version="1.1"
	 id="wide_rectangle" xmlns:cc="http://creativecommons.org/ns#" xmlns:dc="http://purl.org/dc/elements/1.1/" xmlns:inkscape="http://www.inkscape.org/namespaces/inkscape" xmlns:rdf="http://www.w3.org/1999/02/22-rdf-syntax-ns#" xmlns:sodipodi="http://sodipodi.sourceforge.net/DTD/sodipodi-0.dtd" xmlns:svg="http://www.w3.org/2000/svg"
	 xmlns="http://www.w3.org/2000/svg" xmlns:xlink="http://www.w3.org/1999/xlink" x="0px" y="0px" viewBox="0 0 3000 1460.8"
	 style="enable-background:new 0 0 3000 1460.8;" xml:space="preserve">
<style type="text/css">
	.st0{fill-rule:evenodd;clip-rule:evenodd;fill:url(#background_2_);}
	.st1{opacity:0.4;fill-rule:evenodd;clip-rule:evenodd;fill:url(#highlight_2_);enable-background:new    ;}
	.st2{fill-rule:evenodd;clip-rule:evenodd;}
	.st3{opacity:0.3;}
	.st4{fill:#FBFBED;}
</style>
<g id="g4211" transform="matrix(1.4095238,0,0,1.4095238,20,19.801257)">
	<g id="g5">
		
			<radialGradient id="background_2_" cx="1037.796" cy="401.7036" r="846.5253" gradientTransform="matrix(1.9867 0 0 1.9867 -1029.5531 -256.3873)" gradientUnits="userSpaceOnUse">
			<stop  offset="0" style="stop-color:#FCF06E"/>
			<stop  offset="0.99" style="stop-color:#DBA506"/>
		</radialGradient>
		<path id="background_1_" inkscape:connector-curvature="0" class="st0" d="M2100,920.4V86.8c-5.7-44.4-40.3-79.7-84.3-86.6H85.2
			C36.9,7.8,0,49.4,0,99.7v807.7c0,55.6,45.2,100.7,100.9,100.7h1899C2051.3,1008.2,2093.7,969.9,2100,920.4z"/>
		
			<radialGradient id="highlight_2_" cx="1042.6934" cy="-830.4788" r="794.369" gradientTransform="matrix(1.9867 0 0 1.732 -1029.5531 1484.3845)" gradientUnits="userSpaceOnUse">
			<stop  offset="0" style="stop-color:#FFFFFF"/>
			<stop  offset="1" style="stop-color:#FFFFFF;stop-opacity:0"/>
		</radialGradient>
		<path id="highlight_1_" inkscape:connector-curvature="0" class="st1" d="M90,0.6h1920v352.6H90V0.6z"/>
	</g>
	<g id="g22">
		<g id="g24">
			<g id="g26">
				<path id="rect28" inkscape:connector-curvature="0" class="st2" d="M290,199.2h158.7v611H290V199.2z"/>
				<g id="g30" class="st3">
					<path id="path32" inkscape:connector-curvature="0" class="st4" d="M448.7,199.2v611H290v-611H448.7 M462.7,185.2h-14H290h-14
						v14v611v14h14h158.7h14v-14v-611V185.2L462.7,185.2z"/>
				</g>
			</g>
			<g id="g34">
				<path id="path36" inkscape:connector-curvature="0" class="st2" d="M787.2,199.2l-36.7,285.5l-22.8-155.3
					c-6.6-49.8-13-93.2-19-130.2H502.9v611h139l0.5-403.4l58.5,403.4h99l55.6-412.4l0.5,412.4h138.6v-611H787.2L787.2,199.2z"/>
				<g id="g38" class="st3">
					<path id="path40" inkscape:connector-curvature="0" class="st4" d="M994.6,199.2v611H856l-0.5-412.4L800,810.2h-99l-58.6-403.4
						l-0.5,403.4h-139v-611h205.8c6,37,12.4,80.4,19,130.2l22.7,155.2l36.8-285.4H994.6 M1008.6,185.2h-14H787.2h-12.3l-1.6,12.2
						L749.6,382l-8-54.5c-6.6-49.7-13-93.6-19.1-130.5l-1.9-11.7h-11.9H502.9h-14v14v611v14h14h139h14v-14l0.3-211l30.9,213l1.7,12
						h12.1h99h12.2l1.6-12.1L841.6,605l0.2,205.3v14h14h138.6h14v-14v-611L1008.6,185.2L1008.6,185.2L1008.6,185.2z"/>
				</g>
			</g>
			<g id="g42">
				<path id="path44" inkscape:connector-curvature="0" class="st2" d="M1242.8,309.2c6.3,3.6,10.3,9.4,12,17.1
					c1.8,7.8,2.6,25.5,2.6,53.1v236.9c0,40.7-2.6,65.6-7.9,74.8c-5.3,9.2-19.3,13.8-42.1,13.8V303.8
					C1224.7,303.7,1236.5,305.5,1242.8,309.2L1242.8,309.2z M1241.1,810.2c38,0,66.5-2.1,85.4-6.2c18.9-4.1,34.8-11.4,47.6-21.8
					c12.8-10.4,21.8-24.9,27-43.3c5.2-18.4,8.2-55.1,8.2-109.8V414.5c0-57.8-2.3-96.5-5.8-116.3c-3.5-19.7-12.3-37.6-26.4-53.7
					c-14.1-16.1-34.7-27.6-61.8-34.7c-27.1-7-71.3-10.6-148.1-10.6h-118.4v611L1241.1,810.2L1241.1,810.2z"/>
				<g id="g46" class="st3">
					<path id="path48" inkscape:connector-curvature="0" class="st4" d="M1167.3,199.2c76.8,0,121,3.5,148.1,10.6
						c27.1,7,47.7,18.6,61.8,34.7c14.1,16.1,22.9,34,26.4,53.7c3.5,19.7,5.8,58.5,5.8,116.3v214.6c0,54.8-3.1,91.4-8.2,109.8
						c-5.2,18.5-14.2,32.9-27,43.3c-12.9,10.4-28.7,17.7-47.6,21.8c-18.9,4.2-47.4,6.2-85.4,6.2h-192.4v-611H1167.3 M1207.4,704.8
						c22.8,0,36.9-4.6,42.1-13.8c5.3-9.2,7.9-34.1,7.9-74.8V379.3c0-27.6-0.9-45.3-2.6-53.1c-1.8-7.8-5.8-13.5-12-17.1
						c-6.3-3.6-18.1-5.5-35.4-5.5V704.8 M1167.3,185.2h-118.5h-14v14v611v14h14h192.3c39.4,0,68.3-2.1,88.4-6.5
						c20.9-4.6,38.9-12.9,53.4-24.6c15.1-12.2,25.7-29.2,31.7-50.4c5.8-20.8,8.7-59,8.7-113.6V414.5c0-55.7-2.1-96.7-6-118.7
						c-4-22.2-14-42.5-29.7-60.5c-15.9-18.1-39.1-31.3-68.8-39C1289.6,188.6,1242.8,185.2,1167.3,185.2L1167.3,185.2L1167.3,185.2z
						 M1221.4,690V318.2c9.7,0.8,13.3,2.4,14.3,3c1.9,1.1,4.3,3,5.4,8.1c0.9,3.8,2.3,15.4,2.3,50v236.9c0,53.1-4.6,65.3-6,67.8
						C1237.1,684.6,1234.5,688.4,1221.4,690L1221.4,690L1221.4,690z"/>
				</g>
			</g>
			<g id="g50">
				<path id="path52" inkscape:connector-curvature="0" class="st2" d="M1669.9,662c0,29.6-1.5,48.2-4.4,56s-15.7,11.7-25.4,11.7
					c-9.4,0-15.8-3.8-18.9-11.3c-3.2-7.5-4.8-24.7-4.8-51.5V505.4c0-27.8,1.4-45.2,4.2-52.1c2.8-6.9,8.9-10.3,18.4-10.3
					c9.7,0,22.7,3.9,26,11.8c3.3,7.9,5,24.8,5,50.6L1669.9,662L1669.9,662z M1463.4,199.2v611h142.9l9.9-38.9
					c12.9,15.7,27.2,27.4,42.8,35.2c15.6,7.8,38.9,11.7,56.8,11.7c25.1,0,46.8-6.6,65-19.8c18.2-13.2,29.8-28.7,34.8-46.7
					c4.9-18,7.4-45.2,7.4-81.9V498.4c0-36.9-0.8-61-2.5-72.3s-6.5-22.8-14.6-34.6s-19.9-20.9-35.3-27.5c-15.4-6.5-33.7-9.8-54.7-9.8
					c-18.2,0-41.6,3.6-57.2,10.8c-15.6,7.2-29.7,18.1-42.4,32.8V199.1L1463.4,199.2L1463.4,199.2z"/>
				<g id="g54" class="st3">
					<path id="path56" inkscape:connector-curvature="0" class="st4" d="M1616.3,199.2V398c12.7-14.7,26.8-25.6,42.4-32.8
						c15.6-7.2,39-10.8,57.2-10.8c21,0,39.2,3.3,54.7,9.8s27.2,15.7,35.3,27.5c8.1,11.8,13,23.3,14.6,34.6s2.5,35.4,2.5,72.3V670
						c0,36.6-2.5,63.9-7.4,81.9c-4.9,17.9-16.6,33.5-34.8,46.7c-18.2,13.2-39.9,19.8-65,19.8c-18,0-41.3-3.9-56.8-11.7
						c-15.6-7.8-29.8-19.6-42.8-35.2l-9.9,38.9h-142.9v-611h152.9 M1640,729.7c9.7,0,22.5-3.9,25.4-11.7s4.4-26.4,4.4-56V505.4
						c0-25.8-1.7-42.7-5-50.6c-3.3-7.9-16.3-11.8-26-11.8c-9.4,0-15.6,3.5-18.4,10.3c-2.8,6.9-4.2,24.3-4.2,52.1v161.5
						c0,26.8,1.6,44,4.8,51.5C1624.3,725.9,1630.6,729.7,1640,729.7 M1630.3,185.2h-14h-152.9h-14v14v611v14h14h142.9h10.9l2.7-10.6
						l3.7-14.6c9.2,8.1,18.9,14.8,29.1,19.9c19.4,9.7,46.1,13.2,63.1,13.2c28,0,52.6-7.5,73.2-22.4c20.8-15,34.3-33.3,40.1-54.3
						c5.3-19.4,7.9-47.3,7.9-85.6V498.4c0-37.9-0.9-62.2-2.6-74.3c-2-13.4-7.7-27-16.9-40.5c-9.6-14-23.6-24.9-41.4-32.4
						c-17.1-7.2-37.3-10.9-60.1-10.9c-17,0-43.7,3.2-63.1,12.1c-7.8,3.6-15.3,8.1-22.5,13.4V199.2L1630.3,185.2L1630.3,185.2
						L1630.3,185.2z M1640,715.7c-4.9,0-5.5-1.3-6.1-2.8c-0.9-2-3.7-11.3-3.7-46.1V505.3c0-36.2,2.4-45,3.2-46.8
						c0.3-0.6,0.4-0.7,0.6-0.8c0.3-0.2,1.6-0.8,4.8-0.8c6.3,0,11.8,2.3,13.2,3.7c1.2,3.3,3.7,13.7,3.7,44.8V662
						c0,35.3-2.1,46.8-3.3,50.4C1651,713.6,1645.8,715.7,1640,715.7L1640,715.7z"/>
				</g>
			</g>
		</g>
	</g>
</g>
</svg>
