<?xml version="1.0" encoding="utf-8"?>
<!-- Generator: Adobe Illustrator 25.0.0, SVG Export Plug-In . SVG Version: 6.00 Build 0)  -->
<svg version="1.1" id="Capa_1" xmlns="http://www.w3.org/2000/svg" xmlns:xlink="http://www.w3.org/1999/xlink" x="0px" y="0px"
	 viewBox="0 0 411 186" style="enable-background:new 0 0 411 186;" xml:space="preserve">
<style type="text/css">
	.st0{fill:#ED1B24;}
	.st1{fill:#FFFFFF;}
	.st2{fill:none;stroke:#FFFFFF;stroke-width:1.6667;}
</style>
<g>
	<rect class="st0" width="411" height="186"/>
	<polygon class="st1" points="354.9,26.4 377.9,26.4 377.9,135.4 397.4,135.4 397.4,162.9 354.9,162.9 	"/>
	<g>
		<circle class="st2" cx="390.6" cy="33.7" r="8.8"/>
		<path class="st1" d="M387.2,38.2V29h4.1c0.8,0,1.4,0.1,1.9,0.2c0.4,0.2,0.8,0.5,1,0.9c0.3,0.4,0.4,0.9,0.4,1.4
			c0,0.7-0.2,1.2-0.6,1.6s-1.1,0.7-2,0.9c0.3,0.2,0.6,0.3,0.7,0.5c0.4,0.3,0.7,0.7,1,1.2l1.6,2.5h-1.5l-1.2-1.9
			c-0.4-0.6-0.6-1-0.9-1.3c-0.2-0.3-0.4-0.5-0.6-0.6s-0.4-0.2-0.6-0.2c-0.1,0-0.4,0-0.7,0h-1.4v4.1h-1.2V38.2z M388.5,33h2.6
			c0.6,0,1-0.1,1.3-0.2s0.6-0.3,0.7-0.5c0.2-0.3,0.2-0.5,0.2-0.8c0-0.4-0.2-0.8-0.5-1.1c-0.3-0.3-0.8-0.4-1.5-0.4h-2.9L388.5,33
			L388.5,33z"/>
	</g>
	<path class="st1" d="M16.9,162.4v-136h31l11,57l12.5-57h30v122.5l19.5-122.5h30.5l19,122.5v-122h40.5c0,0,14,2.5,21,22l-3-22.5
		h24.5l11.5,70.5l12-70h69v25.5h-20.5v28h19.5v28.5h-19v26h20v27.5h-44.5v-131l-23,131h-27.5l-14.5-87c0,0-2.5,24-16,35l17.5,52h-24
		l-17-45.5v45.5h-48.5l-2.5-13h-18.5l-4,13h-46v-50l-12,50H52.9l-11-49.5v49L16.9,162.4z M143.4,122.9l-7-41.5l-6,41.5H143.4z
		 M196.4,91.4c16.5-1,15-21.5,15-21.5c-2.5-20-15-19-15-19V91.4z"/>
</g>
</svg>
