<?xml version="1.0" encoding="utf-8"?>
<!-- Generator: Adobe Illustrator 25.0.0, SVG Export Plug-In . SVG Version: 6.00 Build 0)  -->
<svg version="1.1" id="Layer_1" xmlns="http://www.w3.org/2000/svg" xmlns:xlink="http://www.w3.org/1999/xlink" x="0px" y="0px"
	 viewBox="0 0 1544.9 690.6" style="enable-background:new 0 0 1544.9 690.6;" xml:space="preserve">
<style type="text/css">
	.st0{fill:#FFFFFF;}
	.st1{fill:#1D89E4;}
	.st2{opacity:0.3;fill:url(#SVGID_1_);}
	.st3{filter:url(#Adobe_OpacityMaskFilter);}
	.st4{opacity:0.3;mask:url(#SVGID_2_);fill:url(#SVGID_3_);}
	.st5{fill:none;stroke:#FFFFFF;stroke-width:4;stroke-miterlimit:10;}
	.st6{opacity:0.3;fill:url(#SVGID_4_);}
	.st7{filter:url(#Adobe_OpacityMaskFilter_1_);}
	.st8{opacity:0.3;mask:url(#SVGID_5_);fill:url(#SVGID_6_);}
	.st9{fill:#CE0246;}
	.st10{opacity:0.3;fill:url(#SVGID_7_);}
	.st11{filter:url(#Adobe_OpacityMaskFilter_2_);}
	.st12{opacity:0.3;mask:url(#SVGID_8_);fill:url(#SVGID_9_);}
	.st13{opacity:0.7;}
	.st14{opacity:0.8;}
</style>
<rect x="0" class="st0" width="1544.9" height="690.6"/>
<g>
	<g>
		
			<ellipse transform="matrix(0.7071 -0.7071 0.7071 0.7071 -156.662 244.2073)" class="st1" cx="216.5" cy="311.2" rx="153.5" ry="153.5"/>
		<linearGradient id="SVGID_1_" gradientUnits="userSpaceOnUse" x1="-66.3741" y1="184.0368" x2="308.4472" y2="321.5499">
			<stop  offset="2.513970e-02" style="stop-color:#1D89E4"/>
			<stop  offset="0.1586" style="stop-color:#1A7ACB"/>
			<stop  offset="0.4429" style="stop-color:#12538B"/>
			<stop  offset="0.8519" style="stop-color:#051625"/>
			<stop  offset="0.9944" style="stop-color:#000000"/>
		</linearGradient>
		<path class="st2" d="M67.1,318.9c0-84.8,68.7-153.5,153.5-153.5c60.1,0,112.1,34.5,137.3,84.8c-23.3-55-77.9-93.7-141.4-93.7
			c-84.8,0-153.5,68.7-153.5,153.5c0,24.7,5.9,48,16.2,68.7C71.4,360.4,67.1,340.1,67.1,318.9z"/>
	</g>
	<defs>
		<filter id="Adobe_OpacityMaskFilter" filterUnits="userSpaceOnUse" x="113.6" y="194.2" width="292.4" height="300.1">
			<feColorMatrix  type="matrix" values="1 0 0 0 0  0 1 0 0 0  0 0 1 0 0  0 0 0 1 0"/>
		</filter>
	</defs>
	<mask maskUnits="userSpaceOnUse" x="113.6" y="194.2" width="292.4" height="300.1" id="SVGID_2_">
		<g class="st3">
			
				<ellipse transform="matrix(0.7071 -0.7071 0.7071 0.7071 -156.662 244.2073)" class="st0" cx="216.5" cy="311.2" rx="153.5" ry="153.5"/>
		</g>
	</mask>
	<linearGradient id="SVGID_3_" gradientUnits="userSpaceOnUse" x1="181.5387" y1="227.4203" x2="293.5139" y2="436.0476">
		<stop  offset="5.586590e-03" style="stop-color:#000000"/>
		<stop  offset="0.2324" style="stop-color:#404040"/>
		<stop  offset="0.6119" style="stop-color:#A6A6A6"/>
		<stop  offset="0.876" style="stop-color:#E6E6E6"/>
		<stop  offset="1" style="stop-color:#FFFFFF"/>
	</linearGradient>
	<path class="st4" d="M113.6,384l102.9,103.4c0,0,119.2,30.3,162.1-35.4s22.8-98.2,22.8-98.2l-17.1-27.8L247.9,194.2l-61.5,97.1
		l-24.3-22.1c0,0-31.1,33.9-31.5,35.1C130.2,305.4,113.6,384,113.6,384z"/>
	<g>
		<path class="st0" d="M323,280.9c-0.9-7.9-8.1-13.7-16.1-13.7l-52.9,0c-2.9,0-4.9-2.8-3.9-5.5c4-11.4,7.3-23.2,8.5-35.2
			c1.1-11.3,0.2-26.2-11.1-32.3c-4.9-2.6-12.8-4.3-18.1-2c-4.9,2.1-3.2,9.5-3.2,13.6c0,6.2-2.4,12.1-4.3,17.9
			c-5.9,8.2-11.1,16.8-16.9,25c-5.1,7.1-11.2,16.6-20.4,18.6c-4.3,0.9-7.6,4.5-7.6,9v99.6c0,5.1,4.1,9.2,9.2,9.2h15.4H238h41.5
			c8,0,15.2-5.8,16.1-13.8c0.7-6.3-2.3-11.9-7.2-15c0,0,0-0.1,0-0.1h0.2c8,0,15.2-5.8,16.1-13.8c0.7-6.3-2.3-11.9-7.2-15
			c0,0,0-0.1,0-0.1h0.2c8.1,0,15.2-5.9,16.1-13.9c0.7-6.3-2.4-12-7.3-15h0.9C316.8,298.5,324.1,290.4,323,280.9z"/>
		<path class="st0" d="M159.4,268.7h-41.8c-4.3,0-7.9,3.5-7.9,7.9v100.7c0,4.3,3.5,7.9,7.9,7.9h41.8c4.3,0,7.9-3.5,7.9-7.9V276.6
			C167.2,272.2,163.7,268.7,159.4,268.7z"/>
	</g>
</g>
<g>
	<g>
		<path class="st5" d="M544.3-409.5l-93.8,75.8c-1.6,1.3-4.1,0.2-4.1-2v-40.7c-8.9-2.3-18.5-3.2-28.5-2.1
			c-11.5,1.2-23.5,5.1-34.6,11.6c-11.1,6.5-21.4,15.7-29.7,27.1c-8.3,11.4-14.5,25.1-17.8,40.1h-2.4c-3.2-15.3-3.5-31.9-0.1-48.5
			c3.3-16.6,10.2-33.1,20.6-48.1c10.3-14.9,24.1-28.3,40.6-38.6c15.3-9.7,33.1-16.7,51.9-20.2v-32.3c0-2.1,2.5-3.3,4.1-2l93.8,75.8
			C545.5-412.4,545.5-410.5,544.3-409.5z"/>
	</g>
</g>
<g>
	<g>
		<circle class="st1" cx="953.3" cy="329.3" r="153.5"/>
		<linearGradient id="SVGID_4_" gradientUnits="userSpaceOnUse" x1="670.4412" y1="203.2891" x2="1045.2626" y2="340.8022">
			<stop  offset="2.513970e-02" style="stop-color:#1D89E4"/>
			<stop  offset="0.1586" style="stop-color:#1A7ACB"/>
			<stop  offset="0.4429" style="stop-color:#12538B"/>
			<stop  offset="0.8519" style="stop-color:#051625"/>
			<stop  offset="0.9944" style="stop-color:#000000"/>
		</linearGradient>
		<path class="st6" d="M803.9,338.1c0-84.8,68.7-153.5,153.5-153.5c60.1,0,112.1,34.5,137.3,84.8c-23.3-55-77.9-93.7-141.4-93.7
			c-84.8,0-153.5,68.7-153.5,153.5c0,24.7,5.9,48,16.2,68.7C808.2,379.6,803.9,359.4,803.9,338.1z"/>
	</g>
	<defs>
		<filter id="Adobe_OpacityMaskFilter_1_" filterUnits="userSpaceOnUse" x="865.6" y="261.2" width="271.5" height="251.5">
			<feColorMatrix  type="matrix" values="1 0 0 0 0  0 1 0 0 0  0 0 1 0 0  0 0 0 1 0"/>
		</filter>
	</defs>
	<mask maskUnits="userSpaceOnUse" x="865.6" y="261.2" width="271.5" height="251.5" id="SVGID_5_">
		<g class="st7">
			<circle class="st0" cx="953.3" cy="329.3" r="153.5"/>
		</g>
	</mask>
	<linearGradient id="SVGID_6_" gradientUnits="userSpaceOnUse" x1="928.903" y1="281.962" x2="1051.4861" y2="443.4419">
		<stop  offset="5.586590e-03" style="stop-color:#000000"/>
		<stop  offset="0.2324" style="stop-color:#404040"/>
		<stop  offset="0.6119" style="stop-color:#A6A6A6"/>
		<stop  offset="0.876" style="stop-color:#E6E6E6"/>
		<stop  offset="1" style="stop-color:#FFFFFF"/>
	</linearGradient>
	<path class="st8" d="M882.8,421.7l100.2,91l146.9-58.1l7.1-89.6l-5.5-16.5l-98.3-87.2c0,0-100.3,0.8-114.9,32.2
		c-14.7,31.4-3.8,93.5-3.8,93.5l-48.9-28.8l26.3,48.7L882.8,421.7z"/>
	<g>
		<ellipse class="st0" cx="960.5" cy="325" rx="102" ry="91"/>
		<path class="st0" d="M894.4,382.3l-11.6,39.4c-0.5,1.8,1.2,3.4,2.9,2.8l60.6-20.4L894.4,382.3z"/>
	</g>
</g>
<g>
	<g>
		
			<ellipse transform="matrix(0.7071 -0.7071 0.7071 0.7071 -54.9585 505.1703)" class="st9" cx="582.3" cy="318.9" rx="153.5" ry="153.5"/>
		<linearGradient id="SVGID_7_" gradientUnits="userSpaceOnUse" x1="299.4879" y1="192.9113" x2="674.3091" y2="330.4244">
			<stop  offset="2.513970e-02" style="stop-color:#EC2E46"/>
			<stop  offset="0.1546" style="stop-color:#D3293F"/>
			<stop  offset="0.4303" style="stop-color:#931D2C"/>
			<stop  offset="0.8269" style="stop-color:#2D090D"/>
			<stop  offset="0.9944" style="stop-color:#000000"/>
		</linearGradient>
		<path class="st10" d="M432.9,327.8c0-84.8,68.7-153.5,153.5-153.5c60.1,0,112.1,34.5,137.3,84.8c-23.3-55-77.9-93.7-141.4-93.7
			c-84.8,0-153.5,68.7-153.5,153.5c0,24.7,5.9,48,16.2,68.7C437.2,369.2,432.9,349,432.9,327.8z"/>
	</g>
	<defs>
		<filter id="Adobe_OpacityMaskFilter_2_" filterUnits="userSpaceOnUse" x="508.3" y="243.7" width="282" height="241.7">
			<feColorMatrix  type="matrix" values="1 0 0 0 0  0 1 0 0 0  0 0 1 0 0  0 0 0 1 0"/>
		</filter>
	</defs>
	<mask maskUnits="userSpaceOnUse" x="508.3" y="243.7" width="282" height="241.7" id="SVGID_8_">
		<g class="st11">
			
				<ellipse transform="matrix(0.7071 -0.7071 0.7071 0.7071 -54.9585 505.1703)" class="st0" cx="582.3" cy="318.9" rx="153.5" ry="153.5"/>
		</g>
	</mask>
	<linearGradient id="SVGID_9_" gradientUnits="userSpaceOnUse" x1="505.1157" y1="223.6271" x2="766.6213" y2="467.1253">
		<stop  offset="5.586590e-03" style="stop-color:#000000"/>
		<stop  offset="0.2324" style="stop-color:#404040"/>
		<stop  offset="0.6119" style="stop-color:#A6A6A6"/>
		<stop  offset="0.876" style="stop-color:#E6E6E6"/>
		<stop  offset="1" style="stop-color:#FFFFFF"/>
	</linearGradient>
	<polygon class="st12" points="508.3,357.5 644.2,485.4 758.5,458.3 790.4,356.9 661.6,245.3 593.5,267.4 558.2,243.7 520.4,276.5 	
		"/>
	<g>
		<path class="st0" d="M582.3,411l-30.6-19.8c-1.6-1-15.7-10.2-30.4-22.3c-21.3-17.5-45.7-41.9-45.7-75.3
			c0-31.1,25.2-56.3,56.3-56.3c22,0,41.1,12.6,50.3,31c9.3-18.4,28.3-31,50.3-31c31.1,0,56.3,25.2,56.3,56.3
			c0,33.4-24.4,57.8-45.7,75.3c-14.7,12.1-28.8,21.3-30.4,22.3L582.3,411z"/>
	</g>
</g>
<g class="st13">
	<g class="st14">
		
			<image style="overflow:visible;opacity:0.4;" width="1353" height="132" xlink:href="A72422C6.png"  transform="matrix(0.24 0 0 0.24 54.1121 509.9707)">
		</image>
	</g>
</g>
<g class="st13">
	<g class="st14">
		
			<image style="overflow:visible;opacity:0.4;" width="1354" height="132" xlink:href="A72422CA.png"  transform="matrix(0.24 0 0 0.24 419.8721 509.9707)">
		</image>
	</g>
</g>
<g class="st13">
	<g class="st14">
		
			<image style="overflow:visible;opacity:0.4;" width="1353" height="132" xlink:href="A72422CD.png"  transform="matrix(0.24 0 0 0.24 798.1121 511.6507)">
		</image>
	</g>
</g>
<g class="st13">
	<g class="st14">
		
			<image style="overflow:visible;opacity:0.4;" width="1354" height="132" xlink:href="A72422CE.png"  transform="matrix(0.24 0 0 0.24 1166.5121 515.2507)">
		</image>
	</g>
</g>
</svg>
