<?xml version="1.0" encoding="utf-8"?>
<!-- Generator: Adobe Illustrator 25.0.0, SVG Export Plug-In . SVG Version: 6.00 Build 0)  -->
<svg version="1.1" id="Layer_1" xmlns="http://www.w3.org/2000/svg" xmlns:xlink="http://www.w3.org/1999/xlink" x="0px" y="0px"
	 viewBox="0 0 566.9 850.4" style="enable-background:new 0 0 566.9 850.4;" xml:space="preserve">
<style type="text/css">
	.st0{fill-rule:evenodd;clip-rule:evenodd;}
	.st1{fill-rule:evenodd;clip-rule:evenodd;fill:#4D4D4D;}
	.st2{fill-rule:evenodd;clip-rule:evenodd;fill:#EC1C76;}
	.st3{fill-rule:evenodd;clip-rule:evenodd;fill:#FFFFFF;}
</style>
<g>
	<path class="st0" d="M284.5,275.2c-6.1,0-12.2,1.2-17.8,3.6c-10.5,4.4-19.1,12.4-25.1,22c-5.7,9.2-8.9,19.6-9.7,30.3
		c34.9,12,70.2,11,105.3,0.1c-0.8-10.7-4-21.2-9.7-30.4c-6-9.6-14.6-17.6-25.1-22C296.7,276.4,290.6,275.2,284.5,275.2L284.5,275.2z
		 M324.7,273.5c22.3,14.8,35.2,40.2,35.2,66.8c0,21.4-8.2,42.1-23,57.1c36.3,34.6,44.4,72,8.5,110.7c-0.7,10.7-1.6,21.4-3.2,32
		c-1.2,8.2-2.7,16.5-5,24.5c-2.5,8.5-7.3,21.4-16.7,24.4c-0.1,0-0.1,0-0.2,0.1c-1.6,0.3-3.2,0.4-4.8,0.2
		c-8.7-1.3-13.9-11.3-16.9-18.7c-2.6-6.4-4.5-13.2-6-20c-1.9-8.3-3.4-16.8-4.6-25.3c-3.1-0.1-6.1-0.1-9.2,0
		c-1.2,8.5-2.7,17-4.6,25.3c-1.5,6.7-3.4,13.6-6,20c-3,7.3-8.2,17.3-16.9,18.7c-1.6,0.2-3.2,0.2-4.8-0.2c-0.1,0-0.1,0-0.2-0.1
		c-9.4-3-14.2-15.9-16.7-24.4c-2.3-7.9-3.9-16.3-5-24.5c-1.5-10.6-2.5-21.3-3.2-32c-36-38.6-27.9-76,8.5-110.7
		c-14.8-14.9-23.1-35.6-23-57.1c0-26.6,12.9-52,35.2-66.8C266.3,257.4,300.3,257.4,324.7,273.5L324.7,273.5z M229.4,470.8h52.9
		v-51.7c-7.3-0.1-14.5-1-20.6-2.8c-1.2-0.3-1.9-1.6-1.5-2.8c0.3-1.2,1.6-1.9,2.8-1.5c6.2,1.8,12.8,2.7,19.4,2.8v-12.5
		c-30.6-1.4-55.1-30.3-55.1-65.8c0-36.4,25.7-65.9,57.3-65.9c31.7,0,57.3,29.5,57.3,65.9c0,35.5-24.5,64.5-55.1,65.8v12.4
		c5.8-0.3,11.5-1.2,16.9-2.7c1.2-0.3,2.4,0.3,2.8,1.5c0.3,1.2-0.3,2.4-1.5,2.8c-5.4,1.6-11.7,2.5-18.2,2.7v51.7h50.5
		c-2.3-15.7-5.5-31.3-9.5-46.7c-0.3-1.2,0.4-2.4,1.6-2.7s2.4,0.4,2.7,1.6c3.4,12.9,6.2,25.9,8.3,39c7.6,0.1,17.9-0.7,23.7-5.6
		c-0.4-19.2-11.4-37.8-30.4-55.9c-3.1,2.7-6.4,5.2-9.9,7.5c-1,0.7-2.4,0.4-3.1-0.7c-0.7-1-0.4-2.4,0.7-3.1
		c21.7-13.8,34.1-38.3,34.1-63.8c0-25.1-12.1-49.1-33.2-63.1c-23.2-15.4-54.7-15.4-77.9,0c-21.1,14-33.2,37.9-33.2,63.1
		c0,25.6,12.4,50,34.1,63.8c1,0.7,1.4,2,0.7,3.1c-0.7,1-2,1.4-3.1,0.7c-3.5-2.2-6.8-4.8-9.9-7.5c-19,18.1-30,36.7-30.4,55.9
		c5.8,4.9,16.2,5.7,23.7,5.6c2.2-13.1,5-26.1,8.3-39c0.3-1.2,1.5-1.9,2.7-1.6s1.9,1.5,1.6,2.7C234.9,439.5,231.7,455.1,229.4,470.8
		L229.4,470.8z M338.7,482.5h-52v17.4c0,1.2-1,2.2-2.2,2.2s-2.2-1-2.2-2.2v-17.4h-54.4c-1,8.2-1.7,16.4-2.2,24.6
		c0.4,6.1,1.3,20.2,3.5,34.8c14,6.8,28.3,8.4,42.1,0.5c1.7-8.5,2.7-15.9,3.2-19.6c0.1-1.1,1-1.9,2.1-1.9c4.5-0.2,8.8-0.2,13.4,0
		c1.1,0.1,1.9,0.9,2.1,1.9c0.5,3.7,1.5,11.1,3.2,19.6c13.8,7.8,28.1,6.3,42.1-0.5c2.3-14.6,3.2-28.7,3.5-34.8
		C340.4,498.8,339.7,490.6,338.7,482.5L338.7,482.5z M225.5,466.4c-1.8,11.7-3.2,23.4-4,35.2c-11.7-13.5-17.7-26.8-18.8-39.8
		C209.2,465.6,218.1,466.4,225.5,466.4L225.5,466.4z M270.1,548c-3.8,16.8-10,35.2-19.6,36.6c-1,0.2-2.1,0.1-3.1-0.1
		c-8.9-2.9-14.2-19.8-17.3-37.4C243.4,553,257,554.2,270.1,548L270.1,548z M341.1,466.4c1.8,11.7,3.2,23.4,4,35.2
		c11.7-13.5,17.7-26.8,18.8-39.8C357.3,465.6,348.5,466.4,341.1,466.4L341.1,466.4z M296.5,548c3.8,16.8,10,35.2,19.6,36.6
		c1,0.2,2.1,0.1,3.1-0.1c8.9-2.9,14.2-19.8,17.3-37.4C323.2,553,309.6,554.2,296.5,548L296.5,548z M231.7,335.8c0,0.3,0,0.6,0,0.8
		c0,12.6,3.3,25.1,9.9,35.9c6,9.6,14.6,17.6,25.1,22c5,2.1,10.3,3.3,15.7,3.5v-53.7C265.4,344.1,248.5,341.4,231.7,335.8
		L231.7,335.8z M286.9,398c5.3-0.3,10.5-1.5,15.5-3.5c10.5-4.4,19.1-12.4,25.1-22c6.7-10.7,9.9-23.3,9.9-35.9c0-0.3,0-0.5,0-0.8
		c-16.8,5.1-33.7,8-50.5,8.4V398L286.9,398z"/>
	<path class="st1" d="M286.9,398c5.3-0.3,10.5-1.5,15.5-3.5c10.5-4.4,19.1-12.4,25.1-22c6.7-10.7,9.9-23.3,9.9-35.9
		c0-0.3,0-0.5,0-0.8c-16.8,5.1-33.7,8-50.5,8.4V398L286.9,398z M231.7,335.8c0,0.3,0,0.6,0,0.8c0,12.6,3.3,25.1,9.9,35.9
		c6,9.6,14.6,17.6,25.1,22c5,2.1,10.3,3.3,15.7,3.5v-53.7C265.4,344.1,248.5,341.4,231.7,335.8L231.7,335.8z M284.5,275.2
		c-6.1,0-12.2,1.2-17.8,3.6c-10.5,4.4-19.1,12.4-25.1,22c-5.7,9.2-8.9,19.6-9.7,30.3c34.9,12,70.2,11,105.3,0.1
		c-0.8-10.7-4-21.2-9.7-30.4c-6-9.6-14.6-17.6-25.1-22C296.7,276.4,290.6,275.2,284.5,275.2L284.5,275.2z"/>
	<path class="st2" d="M296.5,548c3.8,16.8,10,35.2,19.6,36.6c1,0.2,2.1,0.1,3.1-0.1c8.9-2.9,14.2-19.8,17.3-37.4
		C323.2,553,309.6,554.2,296.5,548L296.5,548z M341.1,466.4c1.8,11.7,3.2,23.4,4,35.2c11.7-13.5,17.7-26.8,18.8-39.8
		C357.3,465.6,348.5,466.4,341.1,466.4L341.1,466.4z M270.1,548c-3.8,16.8-10,35.2-19.6,36.6c-1,0.2-2.1,0.1-3.1-0.1
		c-8.9-2.9-14.2-19.8-17.3-37.4C243.4,553,257,554.2,270.1,548L270.1,548z M225.5,466.4c-1.8,11.7-3.2,23.4-4,35.2
		c-11.7-13.5-17.7-26.8-18.8-39.8C209.2,465.6,218.1,466.4,225.5,466.4L225.5,466.4z M338.7,482.5h-52v17.4c0,1.2-1,2.2-2.2,2.2
		s-2.2-1-2.2-2.2v-17.4h-54.4c-1,8.2-1.7,16.4-2.2,24.6c0.4,6.1,1.3,20.2,3.5,34.8c14,6.8,28.3,8.4,42.1,0.5
		c1.7-8.5,2.7-15.9,3.2-19.6c0.1-1.1,1-1.9,2.1-1.9c4.5-0.2,8.8-0.2,13.4,0c1.1,0.1,1.9,0.9,2.1,1.9c0.5,3.7,1.5,11.1,3.2,19.6
		c13.8,7.8,28.1,6.3,42.1-0.5c2.3-14.6,3.2-28.7,3.5-34.8C340.4,498.8,339.7,490.6,338.7,482.5L338.7,482.5z M229.4,470.8h52.9
		v-51.7c-7.3-0.1-14.5-1-20.6-2.8c-1.2-0.3-1.9-1.6-1.5-2.8c0.3-1.2,1.6-1.9,2.8-1.5c6.2,1.8,12.8,2.7,19.4,2.8v-12.5
		c-30.6-1.4-55.1-30.3-55.1-65.8c0-36.4,25.7-65.9,57.3-65.9c31.7,0,57.3,29.5,57.3,65.9c0,35.5-24.5,64.5-55.1,65.8v12.4
		c5.8-0.3,11.5-1.2,16.9-2.7c1.2-0.3,2.4,0.3,2.8,1.5c0.3,1.2-0.3,2.4-1.5,2.8c-5.4,1.6-11.7,2.5-18.2,2.7v51.7h50.5
		c-2.3-15.7-5.5-31.3-9.5-46.7c-0.3-1.2,0.4-2.4,1.6-2.7s2.4,0.4,2.7,1.6c3.4,12.9,6.2,25.9,8.3,39c7.6,0.1,17.9-0.7,23.7-5.6
		c-0.4-19.2-11.4-37.8-30.4-55.9c-3.1,2.7-6.4,5.2-9.9,7.5c-1,0.7-2.4,0.4-3.1-0.7c-0.7-1-0.4-2.4,0.7-3.1
		c21.7-13.8,34.1-38.3,34.1-63.8c0-25.1-12.1-49.1-33.2-63.1c-23.2-15.4-54.7-15.4-77.9,0c-21.1,14-33.2,37.9-33.2,63.1
		c0,25.6,12.4,50,34.1,63.8c1,0.7,1.4,2,0.7,3.1c-0.7,1-2,1.4-3.1,0.7c-3.5-2.2-6.8-4.8-9.9-7.5c-19,18.1-30,36.7-30.4,55.9
		c5.8,4.9,16.2,5.7,23.7,5.6c2.2-13.1,5-26.1,8.3-39c0.3-1.2,1.5-1.9,2.7-1.6s1.9,1.5,1.6,2.7C234.9,439.5,231.7,455.1,229.4,470.8
		L229.4,470.8z"/>
	<path class="st3" d="M283.3,295.9c7.2,0,13.1,5.9,13.1,13.1c0,7.2-5.9,13.1-13.1,13.1c-7.2,0-13.1-5.9-13.1-13.1
		C270.2,301.8,276,295.9,283.3,295.9L283.3,295.9z M283.3,287.9c11.7,0,21.1,9.4,21.1,21.1c0,11.7-9.4,21.1-21.1,21.1
		s-21.1-9.4-21.1-21.1C262.2,297.4,271.6,287.9,283.3,287.9L283.3,287.9z"/>
</g>
</svg>
