<?xml version="1.0" encoding="utf-8"?>
<!-- Generator: Adobe Illustrator 25.0.0, SVG Export Plug-In . SVG Version: 6.00 Build 0)  -->
<svg version="1.1" id="Layer_1" xmlns="http://www.w3.org/2000/svg" xmlns:xlink="http://www.w3.org/1999/xlink" x="0px" y="0px"
	 viewBox="0 0 1000 800" style="enable-background:new 0 0 1000 800;" xml:space="preserve">
<style type="text/css">
	.st0{fill:#333333;}
	.st1{fill:#333333;stroke:#333333;stroke-width:0.25;stroke-miterlimit:10;}
</style>
<g>
	<g>
		<path class="st0" d="M823.6,515.2c-0.5,0-1-0.2-1.3-0.5c-0.7-0.6-0.9-1.5-0.5-2.3l5.3-11.9h-13.7c-1.1,0-2-0.9-2-2v-45.6
			c0-1.1,0.9-2,2-2h70c1.1,0,2,0.9,2,2v45.6c0,1.1-0.9,2-2,2H849l-24.3,14.4C824.3,515.1,824,515.2,823.6,515.2z M815.4,496.5h14.8
			c0.7,0,1.3,0.3,1.7,0.9c0.4,0.6,0.4,1.3,0.1,1.9l-4,9l19.4-11.5c0.3-0.2,0.7-0.3,1-0.3h33v-41.6h-66V496.5z"/>
	</g>
	<g>
		<path class="st0" d="M918.2,538c-0.4,0-0.7-0.1-1-0.3l-24.3-14.4h-36.5c-1.1,0-2-0.9-2-2v-16.8h4v14.8h35c0.4,0,0.7,0.1,1,0.3
			l19.4,11.5l-4-8.9c-0.3-0.6-0.2-1.3,0.1-1.9c0.4-0.6,1-0.9,1.7-0.9h12.8v-41.6h-34.6v-4h36.6c1.1,0,2,0.9,2,2v45.6
			c0,1.1-0.9,2-2,2h-11.7l5.3,11.9c0.4,0.8,0.2,1.7-0.5,2.3C919.2,537.8,918.7,538,918.2,538z"/>
	</g>
	<g>
		<path class="st0" d="M831.8,477.4c-0.3,0-0.5-0.1-0.8-0.2c-0.2-0.1-0.5-0.2-0.6-0.4c-0.4-0.4-0.6-0.9-0.6-1.4c0-0.5,0.2-1,0.6-1.4
			c0.8-0.8,2.1-0.8,2.8,0c0.4,0.4,0.6,0.9,0.6,1.4c0,0.5-0.2,1-0.6,1.4c-0.1,0.1-0.2,0.2-0.3,0.2c-0.1,0.1-0.2,0.1-0.3,0.2
			c-0.1,0-0.2,0.1-0.4,0.1C832,477.4,831.9,477.4,831.8,477.4z"/>
	</g>
	<g>
		<path class="st0" d="M848.4,477.4c-0.5,0-1-0.2-1.4-0.6c-0.4-0.4-0.6-0.9-0.6-1.4c0-0.1,0-0.3,0-0.4c0-0.1,0.1-0.2,0.1-0.4
			c0.1-0.1,0.1-0.2,0.2-0.3c0.1-0.1,0.2-0.2,0.2-0.3c0.1-0.1,0.2-0.2,0.3-0.2c0.1-0.1,0.2-0.1,0.3-0.2c0.1,0,0.2-0.1,0.4-0.1
			c0.6-0.1,1.3,0.1,1.8,0.5c0.4,0.4,0.6,0.9,0.6,1.4c0,0.5-0.2,1-0.6,1.4C849.5,477.2,849,477.4,848.4,477.4z"/>
	</g>
	<g>
		<path class="st0" d="M865.1,477.4c-0.3,0-0.5,0-0.8-0.1c-0.2-0.1-0.5-0.2-0.7-0.4c-0.4-0.4-0.6-0.9-0.6-1.4c0-0.5,0.2-1,0.6-1.4
			c0.1-0.1,0.2-0.2,0.3-0.2c0.1-0.1,0.2-0.1,0.4-0.2c0.1,0,0.2-0.1,0.4-0.1c0.6-0.1,1.3,0.1,1.8,0.5c0.1,0.1,0.2,0.2,0.2,0.3
			c0.1,0.1,0.1,0.2,0.2,0.3c0.1,0.1,0.1,0.2,0.1,0.4c0,0.1,0,0.3,0,0.4c0,0.5-0.2,1-0.6,1.4c-0.1,0.1-0.2,0.2-0.3,0.2
			c-0.1,0.1-0.2,0.1-0.3,0.2c-0.1,0-0.2,0.1-0.4,0.1C865.4,477.4,865.2,477.4,865.1,477.4z"/>
	</g>
</g>
<g>
	<g>
		<path class="st0" d="M905.4,358c-0.3,0-0.6-0.1-0.9-0.2l-26.6-12.7c-2.6,0.4-5.3,0.6-8,0.6c-26.9,0-48.8-19.3-48.8-43.1
			c0-23.8,21.9-43.1,48.8-43.1c26.9,0,48.8,19.3,48.8,43.1c0,10.5-4.3,20.5-12.1,28.4l0.7,25c0,0.7-0.3,1.4-0.9,1.7
			C906.1,357.9,905.8,358,905.4,358z M878.2,341.1c0.3,0,0.6,0.1,0.9,0.2l24.2,11.5l-0.7-22.6c0-0.6,0.2-1.1,0.6-1.5
			c7.4-7.2,11.5-16.5,11.5-26.1c0-21.6-20.1-39.1-44.8-39.1c-24.7,0-44.8,17.5-44.8,39.1c0,21.6,20.1,39.1,44.8,39.1
			c2.7,0,5.4-0.2,8-0.6C878,341.1,878.1,341.1,878.2,341.1z"/>
	</g>
	<g>
		<path class="st0" d="M853.2,303.3c-0.1,0-0.3,0-0.4,0c-0.1,0-0.2-0.1-0.4-0.1c-0.1,0-0.2-0.1-0.4-0.2c-0.1-0.1-0.2-0.1-0.3-0.2
			c-0.4-0.4-0.6-0.9-0.6-1.4c0-0.1,0-0.3,0-0.4c0-0.1,0.1-0.2,0.1-0.4c0.1-0.1,0.1-0.2,0.2-0.4c0.1-0.1,0.2-0.2,0.2-0.3
			c0.1-0.1,0.2-0.2,0.3-0.2c0.1-0.1,0.2-0.1,0.4-0.2c0.1-0.1,0.2-0.1,0.4-0.1c0.7-0.1,1.3,0.1,1.8,0.6c0.1,0.1,0.2,0.2,0.2,0.3
			c0.1,0.1,0.1,0.2,0.2,0.4c0,0.1,0.1,0.2,0.1,0.4c0,0.1,0,0.3,0,0.4c0,0.5-0.2,1-0.6,1.4C854.3,303.1,853.8,303.3,853.2,303.3z"/>
	</g>
	<g>
		<path class="st0" d="M869.9,303.3c-0.1,0-0.3,0-0.4,0c-0.1,0-0.2-0.1-0.4-0.1c-0.1,0-0.2-0.1-0.4-0.2c-0.1-0.1-0.2-0.1-0.3-0.2
			c-0.4-0.4-0.6-0.9-0.6-1.4c0-0.5,0.2-1,0.6-1.4c0.1-0.1,0.2-0.2,0.3-0.2c0.1-0.1,0.2-0.1,0.4-0.2c0.1,0,0.2-0.1,0.4-0.1
			c0.3,0,0.5,0,0.8,0c0.1,0,0.3,0.1,0.4,0.1c0.1,0.1,0.2,0.1,0.3,0.2c0.1,0.1,0.2,0.2,0.3,0.2c0.4,0.4,0.6,0.9,0.6,1.4
			c0,0.5-0.2,1-0.6,1.4c-0.1,0.1-0.2,0.2-0.3,0.2c-0.1,0.1-0.2,0.1-0.3,0.2c-0.1,0.1-0.2,0.1-0.4,0.1
			C870.2,303.3,870,303.3,869.9,303.3z"/>
	</g>
	<g>
		<path class="st0" d="M886.6,303.3c-0.5,0-1-0.2-1.4-0.6c-0.4-0.4-0.6-0.9-0.6-1.4c0-0.1,0-0.3,0-0.4c0-0.1,0.1-0.2,0.1-0.4
			c0-0.1,0.1-0.2,0.2-0.4c0.1-0.1,0.2-0.2,0.2-0.3c0.7-0.8,2.1-0.8,2.8,0c0.1,0.1,0.2,0.2,0.2,0.3c0.1,0.1,0.1,0.2,0.2,0.4
			c0.1,0.1,0.1,0.2,0.1,0.4c0,0.1,0,0.3,0,0.4c0,0.1,0,0.3,0,0.4c0,0.1-0.1,0.3-0.1,0.4c0,0.1-0.1,0.2-0.2,0.3
			c-0.1,0.1-0.2,0.2-0.2,0.3C887.6,303.1,887.1,303.3,886.6,303.3z"/>
	</g>
</g>
<g>
	<g>
		<g>
			<path class="st0" d="M736.9,177.3c-0.3,0-0.6-0.1-0.9-0.2l-23.1-11c-2.3,0.3-4.6,0.5-6.9,0.5c-23.6,0-42.8-17-42.8-37.8
				c0-20.9,19.2-37.8,42.8-37.8c23.6,0,42.8,17,42.8,37.8c0,9.2-3.7,18-10.5,24.9l0.6,21.6c0,0.7-0.3,1.4-0.9,1.7
				C737.6,177.2,737.2,177.3,736.9,177.3z M713.2,162c0.3,0,0.6,0.1,0.9,0.2l20.7,9.9l-0.6-19.2c0-0.6,0.2-1.1,0.6-1.5
				c6.4-6.2,9.9-14.2,9.9-22.6c0-18.6-17.4-33.8-38.8-33.8c-21.4,0-38.8,15.2-38.8,33.8c0,18.7,17.4,33.8,38.8,33.8
				c2.3,0,4.6-0.2,6.9-0.5C713,162,713.1,162,713.2,162z"/>
		</g>
	</g>
	<g>
		<g>
			<path class="st0" d="M631.7,143.8c-0.4,0-0.8-0.1-1.1-0.3c-0.6-0.4-0.9-1-0.9-1.7l0.6-18.5c-5.8-6-9-13.5-9-21.4
				c0-18.1,16.6-32.7,37-32.7c14.5,0,27.7,7.6,33.7,19.3l-3.6,1.8c-5.3-10.4-17.1-17.1-30.2-17.1c-18.2,0-33,12.9-33,28.7
				c0,7.1,3,13.9,8.4,19.2c0.4,0.4,0.6,0.9,0.6,1.5l-0.5,16.1l17.4-8.3c0.4-0.2,0.8-0.2,1.2-0.2c1.9,0.3,3.9,0.5,5.9,0.5v4
				c-2,0-3.9-0.1-5.9-0.4l-19.8,9.4C632.3,143.7,632,143.8,631.7,143.8z"/>
		</g>
		<g>
			<path class="st0" d="M671.8,132.3l-1.3-3.8c12.6-4.4,20.7-14.9,20.7-26.7h4C695.3,115.4,686.1,127.4,671.8,132.3z"/>
		</g>
	</g>
</g>
<g>
	<g>
		<path class="st1" d="M464.6,523.1c-0.3,0-0.6-0.1-0.9-0.2c-0.7-0.3-1.1-1-1.1-1.8v-12.6H456c-8.7,0-15.7-7.2-15.7-16v-32.4
			c0-8.8,7.1-16,15.7-16h53.8c8.7,0,15.7,7.2,15.7,16v32.4c0,8.8-7.1,16-15.7,16h-26.2l-17.7,14.1
			C465.5,522.9,465,523.1,464.6,523.1z M456,448.1c-6.5,0-11.7,5.4-11.7,12v32.4c0,6.6,5.3,12,11.7,12h8.6c1.1,0,2,0.9,2,2v10.4
			l15-12c0.4-0.3,0.8-0.4,1.2-0.4h26.9c6.5,0,11.7-5.4,11.7-12v-32.4c0-6.6-5.3-12-11.7-12H456z"/>
	</g>
	<g>
		<path class="st1" d="M538.9,544.7c-0.4,0-0.9-0.1-1.2-0.4l-14.9-11.9h-22c-7.5,0-13.6-6.2-13.6-13.8v-4.5h4v4.5
			c0,5.4,4.3,9.8,9.6,9.8h22.7c0.5,0,0.9,0.2,1.2,0.4l12.2,9.7v-8.1c0-1.1,0.9-2,2-2h7.3c5.3,0,9.6-4.4,9.6-9.8v-27.4
			c0-5.4-4.3-9.8-9.6-9.8h-16.1v-4h16.1c7.5,0,13.6,6.2,13.6,13.8v27.4c0,7.6-6.1,13.8-13.6,13.8h-5.3v10.3c0,0.8-0.4,1.5-1.1,1.8
			C539.5,544.7,539.2,544.7,538.9,544.7z"/>
	</g>
	<g>
		<path class="st1" d="M466.2,478.5c-0.5,0-1-0.2-1.4-0.6c-0.4-0.4-0.6-0.9-0.6-1.4c0-0.1,0-0.3,0-0.4c0-0.1,0.1-0.2,0.1-0.4
			c0-0.1,0.1-0.2,0.2-0.3c0.1-0.1,0.2-0.2,0.2-0.3c0.7-0.8,2.1-0.8,2.8,0c0.4,0.4,0.6,0.9,0.6,1.4c0,0.5-0.2,1-0.6,1.4
			c-0.2,0.2-0.4,0.3-0.6,0.4C466.7,478.4,466.4,478.5,466.2,478.5z"/>
	</g>
	<g>
		<path class="st1" d="M482.8,478.5c-0.5,0-1-0.2-1.4-0.6c-0.4-0.4-0.6-0.9-0.6-1.4c0-0.5,0.2-1,0.6-1.4c0.1-0.1,0.2-0.2,0.3-0.2
			c0.1-0.1,0.2-0.1,0.3-0.2c0.1,0,0.2-0.1,0.4-0.1c0.6-0.1,1.3,0.1,1.8,0.5c0.4,0.4,0.6,0.9,0.6,1.4c0,0.5-0.2,1-0.6,1.4
			C483.9,478.3,483.4,478.5,482.8,478.5z"/>
	</g>
	<g>
		<path class="st1" d="M499.5,478.5c-0.3,0-0.5,0-0.8-0.1c-0.2-0.1-0.5-0.2-0.7-0.4c-0.4-0.4-0.6-0.9-0.6-1.4c0-0.5,0.2-1,0.6-1.4
			c0.1-0.1,0.2-0.2,0.3-0.2c0.1-0.1,0.2-0.1,0.4-0.2c0.1,0,0.2-0.1,0.4-0.1c0.3,0,0.5,0,0.8,0c0.1,0,0.2,0.1,0.4,0.1
			c0.1,0,0.2,0.1,0.4,0.2c0.1,0.1,0.2,0.2,0.3,0.2c0.4,0.4,0.6,0.9,0.6,1.4c0,0.5-0.2,1-0.6,1.4C500.5,478.3,500,478.5,499.5,478.5z
			"/>
	</g>
	<g>
		<path class="st1" d="M537.5,510.6c-0.5,0-1-0.2-1.4-0.6c-0.1-0.1-0.2-0.2-0.3-0.3c-0.1-0.1-0.1-0.2-0.2-0.3c0-0.1-0.1-0.2-0.1-0.4
			c0-0.1,0-0.3,0-0.4c0-0.1,0-0.3,0-0.4c0-0.1,0.1-0.2,0.1-0.4c0.1-0.1,0.1-0.2,0.2-0.3c0.1-0.1,0.2-0.2,0.2-0.3
			c0.7-0.8,2.1-0.8,2.8,0c0.1,0.1,0.2,0.2,0.2,0.3c0.1,0.1,0.1,0.2,0.2,0.3c0,0.1,0.1,0.2,0.1,0.4c0,0.1,0,0.3,0,0.4
			c0,0.1,0,0.3,0,0.4c0,0.1-0.1,0.3-0.1,0.4c0,0.1-0.1,0.2-0.2,0.3c-0.1,0.1-0.2,0.2-0.2,0.3C538.5,510.4,538,510.6,537.5,510.6z"/>
	</g>
	<g>
		<path class="st1" d="M522.5,510.6c-0.5,0-1-0.2-1.4-0.6c-0.1-0.1-0.2-0.2-0.2-0.3c-0.1-0.1-0.1-0.2-0.2-0.3c0-0.1-0.1-0.2-0.1-0.4
			c0-0.1,0-0.3,0-0.4c0-0.1,0-0.3,0-0.4c0-0.1,0.1-0.2,0.1-0.4c0.1-0.1,0.1-0.2,0.2-0.3c0.1-0.1,0.2-0.2,0.2-0.3
			c0.1-0.1,0.2-0.2,0.3-0.2c0.1-0.1,0.2-0.1,0.3-0.2s0.2-0.1,0.4-0.1c0.6-0.1,1.3,0.1,1.8,0.6c0.4,0.4,0.6,0.9,0.6,1.4
			c0,0.1,0,0.3,0,0.4c0,0.1-0.1,0.3-0.1,0.4c0,0.1-0.1,0.2-0.2,0.3c-0.1,0.1-0.2,0.2-0.2,0.3c-0.1,0.1-0.2,0.2-0.3,0.2
			c-0.1,0.1-0.2,0.1-0.3,0.2c-0.1,0-0.2,0.1-0.4,0.1C522.8,510.6,522.6,510.6,522.5,510.6z"/>
	</g>
</g>
<g>
	<g>
		<g>
			<path class="st0" d="M886.3,123.2c-0.6,0-1.1-0.3-1.5-0.7c-0.5-0.6-0.6-1.4-0.3-2l5.1-12.5c0.1-0.3,0.3-0.6,0.6-0.8l26.4-22.2
				c0.8-0.7,2.1-0.6,2.8,0.2l8.1,9.6c0.3,0.4,0.5,0.9,0.5,1.5c0,0.5-0.3,1-0.7,1.4l-26.4,22.2c-0.2,0.2-0.5,0.4-0.9,0.4l-13.2,2.9
				C886.6,123.1,886.4,123.2,886.3,123.2z M893.1,109.8l-3.5,8.5l9-2l24.5-20.6l-5.5-6.5L893.1,109.8z"/>
		</g>
		<g>
			<path class="st0" d="M925.9,98c-0.6,0-1.1-0.2-1.5-0.7l-8.1-9.6c-0.3-0.4-0.5-0.9-0.5-1.5c0-0.5,0.3-1,0.7-1.4l5.3-4.5
				c0.8-0.7,2.1-0.6,2.8,0.2l8.1,9.6c0.3,0.4,0.5,0.9,0.5,1.5c0,0.5-0.3,1-0.7,1.4l-5.3,4.5C926.8,97.8,926.4,98,925.9,98z
				 M920.6,86.6l5.5,6.5l2.2-1.9l-5.5-6.5L920.6,86.6z"/>
		</g>
	</g>
	<g>
		<g>
			<path class="st0" d="M905.9,166.7c-0.3,0-0.7-0.1-1-0.2l-19.7-10.8c-2,0.2-4.1,0.4-6.2,0.4c-23.3,0-42.2-15.4-42.2-34.4
				c0-19,18.9-34.4,42.2-34.4c6.2,0,12.3,1.1,17.9,3.2l-1.4,3.7c-5.2-2-10.7-3-16.4-3c-21.1,0-38.2,13.6-38.2,30.4
				c0,16.8,17.1,30.4,38.2,30.4c2.2,0,4.3-0.1,6.4-0.4c0.4-0.1,0.9,0,1.2,0.2l15.7,8.7l-3.7-10.8c-0.1-0.2-0.1-0.4-0.1-0.6
				c0-0.8,0.4-1.4,1.1-1.8c11.1-5.6,17.7-15.2,17.7-25.6c0-2.9-0.5-5.8-1.6-8.6l3.8-1.4c1.2,3.2,1.8,6.6,1.8,10
				c0,11.4-6.8,21.9-18.3,28.4l4.9,14.1c0.3,0.8,0,1.6-0.6,2.2C906.9,166.5,906.4,166.7,905.9,166.7z"/>
		</g>
		<g>
			<path class="st0" d="M818.7,140.3c-0.5,0-0.9-0.2-1.3-0.5c-0.6-0.5-0.9-1.4-0.6-2.2l3.5-10.2c-8.6-4.9-13.6-12.8-13.6-21.5
				c0-14.5,14.4-26.3,32.1-26.3c7.4,0,14.6,2.1,20.3,5.9l-2.2,3.3c-5.1-3.4-11.5-5.2-18.1-5.2c-15.5,0-28.1,10-28.1,22.3
				c0,7.6,4.8,14.6,13,18.7c0.7,0.3,1.1,1,1.1,1.8c0,0.2,0,0.4-0.1,0.7l-2.4,6.9l10.6-5.9l1.9,3.5l-15.2,8.4
				C819.3,140.2,819,140.3,818.7,140.3z"/>
		</g>
	</g>
	<g>
		<rect x="858" y="110.1" class="st0" width="21" height="4"/>
	</g>
	<g>
		<rect x="858" y="128.4" class="st0" width="42.8" height="4"/>
	</g>
</g>
<g>
	<g>
		<g>
			<path class="st0" d="M134.5,678.1c-0.6,0-1.1-0.3-1.5-0.7c-0.5-0.6-0.6-1.4-0.3-2l5.6-13.7c0.1-0.3,0.3-0.6,0.6-0.8l28.9-24.3
				c0.8-0.7,2.1-0.6,2.8,0.2l8.8,10.5c0.3,0.4,0.5,0.9,0.5,1.5c0,0.5-0.3,1-0.7,1.4l-28.9,24.3c-0.2,0.2-0.5,0.4-0.9,0.4L135,678
				C134.8,678.1,134.7,678.1,134.5,678.1z M141.8,663.6l-4,9.7l10.2-2.3l27-22.7l-6.2-7.4L141.8,663.6z"/>
		</g>
		<g>
			<path class="st0" d="M177.8,650.5c-0.1,0-0.1,0-0.2,0c-0.5,0-1-0.3-1.4-0.7l-8.8-10.5c-0.7-0.8-0.6-2.1,0.2-2.8l5.8-4.9
				c0.4-0.3,0.9-0.5,1.5-0.5c0.5,0,1,0.3,1.4,0.7l8.8,10.5c0.7,0.8,0.6,2.1-0.2,2.8l-5.8,4.9C178.8,650.4,178.3,650.5,177.8,650.5z
				 M171.8,638.3l6.2,7.4l2.7-2.3l-6.2-7.4L171.8,638.3z"/>
		</g>
	</g>
	<g>
		<rect x="101" y="666.7" class="st0" width="23" height="4"/>
	</g>
	<g>
		<rect x="101" y="686.6" class="st0" width="46.8" height="4"/>
	</g>
	<g>
		<path class="st0" d="M90.7,728.8c-0.5,0-1-0.2-1.3-0.5c-0.6-0.6-0.9-1.5-0.5-2.3l7.6-17.2H76.8c-1.1,0-2-0.9-2-2v-62
			c0-1.1,0.9-2,2-2h69.8v4H78.8v58h20.8c0.7,0,1.3,0.3,1.7,0.9c0.4,0.6,0.4,1.3,0.1,1.9l-6.3,14.2l28.3-16.8c0.3-0.2,0.7-0.3,1-0.3
			H170v-40h4v42c0,1.1-0.9,2-2,2h-47l-33.2,19.7C91.4,728.7,91,728.8,90.7,728.8z"/>
	</g>
</g>
<g>
	<g>
		<path class="st0" d="M638.7,320.5c-0.5,0-1-0.2-1.3-0.5c-0.7-0.6-0.9-1.5-0.5-2.3l5.3-11.9h-13.7c-1.1,0-2-0.9-2-2v-45.6
			c0-1.1,0.9-2,2-2h70c1.1,0,2,0.9,2,2v45.6c0,1.1-0.9,2-2,2H664l-24.3,14.4C639.4,320.4,639,320.5,638.7,320.5z M630.5,301.8h14.8
			c0.7,0,1.3,0.3,1.7,0.9c0.4,0.6,0.4,1.3,0.1,1.9l-4,9l19.4-11.5c0.3-0.2,0.7-0.3,1-0.3h33v-41.6h-66V301.8z"/>
	</g>
	<g>
		<path class="st0" d="M659.2,361.4c-0.5,0-1-0.2-1.3-0.5c-0.7-0.6-0.9-1.5-0.5-2.3l3.1-6.8h-7.9c-1.1,0-2-0.9-2-2v-30
			c0-1.1,0.9-2,2-2h13.3v4h-11.3v26h9c0.7,0,1.3,0.3,1.7,0.9c0.4,0.6,0.4,1.3,0.1,1.9l-1.8,3.9l10.9-6.5c0.3-0.2,0.7-0.3,1-0.3h21
			v-15.2h4v17.2c0,1.1-0.9,2-2,2H676l-15.8,9.4C659.9,361.3,659.5,361.4,659.2,361.4z"/>
	</g>
	<g>
		<path class="st0" d="M733.3,343.3c-0.4,0-0.7-0.1-1-0.3l-24.3-14.4h-36.5c-1.1,0-2-0.9-2-2v-16.8h4v14.8h35c0.4,0,0.7,0.1,1,0.3
			l19.4,11.5l-4-8.9c-0.3-0.6-0.2-1.3,0.1-1.9c0.4-0.6,1-0.9,1.7-0.9h12.8V283h-34.6v-4h36.6c1.1,0,2,0.9,2,2v45.6c0,1.1-0.9,2-2,2
			h-11.7l5.3,11.9c0.4,0.8,0.2,1.7-0.5,2.3C734.2,343.2,733.8,343.3,733.3,343.3z"/>
	</g>
</g>
<g>
	<g>
		<path class="st0" d="M359.3,167.7c-0.3,0-0.7-0.1-1-0.2L340,157.3c-1.9,0.2-3.8,0.3-5.8,0.3c-21.8,0-39.5-14.5-39.5-32.2
			c0-17.8,17.7-32.2,39.5-32.2c21.8,0,39.5,14.5,39.5,32.2c0,10.7-6.3,20.5-17,26.5l4.5,13.1c0.3,0.8,0,1.6-0.6,2.2
			C360.3,167.5,359.8,167.7,359.3,167.7z M340.4,153.2c0.3,0,0.7,0.1,1,0.2l14.4,7.9l-3.4-9.8c-0.1-0.2-0.1-0.4-0.1-0.6
			c0-0.8,0.4-1.4,1.1-1.8c10.3-5.2,16.4-14.1,16.4-23.8c0-15.6-15.9-28.2-35.5-28.2c-19.6,0-35.5,12.7-35.5,28.2
			c0,15.6,15.9,28.2,35.5,28.2c2,0,4-0.1,5.9-0.4C340.2,153.3,340.3,153.2,340.4,153.2z"/>
	</g>
	<g>
		<path class="st0" d="M268.7,140.7c-0.5,0-0.9-0.2-1.3-0.5c-0.6-0.5-0.9-1.4-0.6-2.2l3.6-10.5c-8.8-5-14-13.1-14-22
			c0-14.8,14.8-26.9,32.9-26.9c11.2,0,21.5,4.6,27.6,12.3l-3.1,2.5c-5.3-6.7-14.5-10.8-24.5-10.8c-15.9,0-28.9,10.3-28.9,22.9
			c0,7.8,5,15,13.3,19.2c0.7,0.3,1.1,1,1.1,1.8c0,0.2,0,0.4-0.1,0.7l-2.5,7.2l11-6.1c0.4-0.2,0.8-0.3,1.2-0.2
			c1.6,0.2,3.2,0.3,4.8,0.3v4c-1.6,0-3.2-0.1-4.7-0.3l-15,8.3C269.4,140.6,269.1,140.7,268.7,140.7z"/>
	</g>
</g>
<g>
	<g>
		<path class="st0" d="M90.5,557.3c-0.3,0-0.6-0.1-0.9-0.2c-0.7-0.3-1.1-1-1.1-1.8v-12.9c-8-0.9-14.2-7.8-14.2-16.1v-12
			c0-8.9,7.2-16.2,15.9-16.2h10.5v4H90.3c-6.6,0-11.9,5.5-11.9,12.2v12c0,6.7,5.4,12.2,11.9,12.2h0.2c1.1,0,2,0.9,2,2v10.6
			l15.3-12.2c0.4-0.3,0.8-0.4,1.2-0.4h35.8c6.6,0,11.9-5.5,11.9-12.2h4c0,8.9-7.2,16.2-15.9,16.2h-35.1l-18,14.3
			C91.4,557.1,90.9,557.3,90.5,557.3z"/>
	</g>
	<g>
		<path class="st0" d="M176.8,531.2c-0.4,0-0.9-0.1-1.2-0.4l-18-14.3h-35.1c-8.8,0-15.9-7.3-15.9-16.2v-12c0-8.9,7.2-16.2,15.9-16.2
			H177c8.8,0,15.9,7.3,15.9,16.2v12c0,8.3-6.2,15.2-14.2,16.1v12.9c0,0.8-0.4,1.5-1.1,1.8C177.4,531.1,177.1,531.2,176.8,531.2z
			 M122.5,476c-6.6,0-11.9,5.5-11.9,12.2v12c0,6.7,5.4,12.2,11.9,12.2h35.8c0.5,0,0.9,0.2,1.2,0.4l15.3,12.2v-10.6c0-1.1,0.9-2,2-2
			h0.2c6.6,0,11.9-5.5,11.9-12.2v-12c0-6.7-5.4-12.2-11.9-12.2H122.5z"/>
	</g>
	<g>
		<path class="st0" d="M83.6,490.7c-0.3,0-0.6-0.1-0.9-0.2c-0.7-0.3-1.1-1-1.1-1.8v-12.9c-8-0.9-14.2-7.8-14.2-16.1v-12
			c0-8.9,7.2-16.2,15.9-16.2h54.6c8.8,0,15.9,7.3,15.9,16.2v12c0,3.2-0.9,6.3-2.7,9l-3.3-2.2c1.3-2,2-4.4,2-6.8v-12
			c0-6.7-5.4-12.2-11.9-12.2H83.4c-6.6,0-11.9,5.5-11.9,12.2v12c0,6.7,5.4,12.2,11.9,12.2h0.2c1.1,0,2,0.9,2,2v10.6l15.3-12.2
			c0.4-0.3,0.8-0.4,1.2-0.4h6.4v4h-5.7l-18,14.3C84.5,490.6,84,490.7,83.6,490.7z"/>
	</g>
</g>
<g>
	<g>
		<path class="st0" d="M524,164.5c-0.3,0-0.7-0.1-1-0.2l-16.8-9.3c-4.4,0.5-9.1,0.4-13.5-0.5l0.7-3.9c4.2,0.8,8.8,0.9,12.9,0.3
			c0.4-0.1,0.9,0,1.2,0.2l12.8,7.1l-2.9-8.6c-0.1-0.2-0.1-0.4-0.1-0.6c0-0.8,0.4-1.4,1.1-1.8c9.4-4.8,15-12.9,15-21.7
			c0-14.2-14.6-25.8-32.5-25.8c-17.9,0-32.5,11.6-32.5,25.8h-4c0-16.4,16.4-29.8,36.5-29.8c20.1,0,36.5,13.4,36.5,29.8
			c0,9.8-5.8,18.9-15.6,24.4l4.1,11.9c0.3,0.8,0,1.6-0.6,2.2C524.9,164.4,524.5,164.5,524,164.5z"/>
	</g>
	<g>
		<path class="st0" d="M447.5,177c-0.5,0-0.9-0.2-1.3-0.5c-0.6-0.5-0.9-1.4-0.6-2.2l2.7-7.8c-6.7-4-10.7-10.3-10.7-17.2
			c0-11.7,11.6-21.3,25.9-21.3c8.5,0,16.5,3.4,21.4,9.2c3,3.6,4.6,7.7,4.6,12.1c0,7.3-4.4,14-11.9,17.9c-4.2,2.2-9,3.4-14,3.4
			c-1.2,0-2.4-0.1-3.5-0.2l-11.5,6.3C448.1,177,447.8,177,447.5,177z M463.5,132.1c-12.1,0-21.9,7.7-21.9,17.3
			c0,5.9,3.8,11.3,10.1,14.5c0.7,0.3,1.1,1,1.1,1.8c0,0.2,0,0.4-0.1,0.7l-1.5,4.4l7.5-4.1c0.4-0.2,0.8-0.3,1.2-0.2
			c1.2,0.2,2.4,0.2,3.7,0.2c4.3,0,8.5-1,12.1-2.9c6.1-3.2,9.8-8.6,9.8-14.4c0-3.4-1.3-6.7-3.6-9.5
			C477.7,135.1,470.8,132.1,463.5,132.1z"/>
	</g>
	<g>
		<path class="st0" d="M448,108.5c-0.5,0-0.9-0.2-1.3-0.5c-0.6-0.5-0.9-1.4-0.6-2.2l2-5.7c-5.2-3.2-8.3-8.2-8.3-13.7
			c0-9.4,9.3-17.1,20.7-17.1c6.8,0,13.2,2.7,17,7.4c2.4,2.9,3.7,6.2,3.7,9.7c0,5.9-3.6,11.2-9.5,14.4c-3.3,1.8-7.2,2.7-11.2,2.7
			c-0.9,0-1.8,0-2.7-0.1l-8.9,4.9C448.6,108.4,448.3,108.5,448,108.5z M460.5,73.3c-9.2,0-16.7,5.9-16.7,13.1
			c0,4.4,2.8,8.5,7.6,10.9c0.7,0.3,1.1,1,1.1,1.8c0,0.2,0,0.4-0.1,0.7l-0.8,2.4l4.9-2.7c0.4-0.2,0.8-0.3,1.2-0.2
			c0.9,0.1,1.9,0.2,2.8,0.2c3.3,0,6.5-0.8,9.3-2.2c4.6-2.4,7.4-6.5,7.4-10.8c0-2.5-0.9-5-2.7-7.1C471.3,75.6,466.1,73.3,460.5,73.3z
			"/>
	</g>
	<g>
		<path class="st0" d="M552.5,120.7c-0.3,0-0.7-0.1-1-0.2l-11.5-6.3c-1.2,0.1-2.3,0.2-3.5,0.2v-4c1.2,0,2.5-0.1,3.7-0.2
			c0.4-0.1,0.9,0,1.2,0.2l7.5,4.1l-1.5-4.4c-0.1-0.2-0.1-0.4-0.1-0.6c0-0.8,0.4-1.4,1.1-1.8c6.3-3.2,10-8.6,10-14.5
			c0-9.5-9.8-17.3-21.9-17.3c-7.4,0-14.2,2.9-18.3,7.8c-2.4,2.8-3.6,6.1-3.6,9.5h-4c0-4.3,1.6-8.5,4.6-12.1
			c4.8-5.8,12.8-9.2,21.4-9.2c14.3,0,25.9,9.5,25.9,21.3c0,6.9-4,13.2-10.7,17.2l2.7,7.8c0.3,0.8,0,1.6-0.6,2.2
			C553.4,120.6,553,120.7,552.5,120.7z"/>
	</g>
	<g>
		<path class="st0" d="M501,127c-0.5,0-1-0.2-1.4-0.6c-0.4-0.4-0.6-0.9-0.6-1.4c0-0.1,0-0.3,0-0.4c0-0.1,0.1-0.2,0.1-0.4
			s0.1-0.2,0.2-0.4c0.1-0.1,0.2-0.2,0.2-0.3c0.7-0.8,2.1-0.8,2.8,0c0.4,0.4,0.6,0.9,0.6,1.4c0,0.5-0.2,1-0.6,1.4
			C502,126.8,501.5,127,501,127z"/>
	</g>
	<g>
		<path class="st0" d="M512.6,127c-0.1,0-0.3,0-0.4,0c-0.1,0-0.3-0.1-0.4-0.1c-0.1,0-0.2-0.1-0.3-0.2c-0.1-0.1-0.2-0.2-0.3-0.2
			c-0.1-0.1-0.2-0.2-0.2-0.3c-0.1-0.1-0.1-0.2-0.2-0.3c-0.1-0.1-0.1-0.2-0.1-0.4c0-0.1,0-0.3,0-0.4c0-0.5,0.2-1,0.6-1.4
			c0.1-0.1,0.2-0.2,0.3-0.2c0.1-0.1,0.2-0.1,0.3-0.2c0.1,0,0.2-0.1,0.4-0.1c0.3,0,0.5,0,0.8,0c0.1,0,0.2,0.1,0.4,0.1
			c0.1,0.1,0.2,0.1,0.4,0.2c0.1,0.1,0.2,0.2,0.3,0.2c0.4,0.4,0.6,0.9,0.6,1.4c0,0.5-0.2,1-0.6,1.4c-0.1,0.1-0.2,0.2-0.3,0.2
			c-0.1,0.1-0.2,0.1-0.4,0.2c-0.1,0.1-0.2,0.1-0.4,0.1C512.9,127,512.8,127,512.6,127z"/>
	</g>
	<g>
		<path class="st0" d="M489.3,127c-0.1,0-0.3,0-0.4,0c-0.1,0-0.3-0.1-0.4-0.1c-0.1,0-0.2-0.1-0.3-0.2c-0.1-0.1-0.2-0.2-0.3-0.2
			c-0.4-0.4-0.6-0.9-0.6-1.4c0-0.5,0.2-1,0.6-1.4c0.8-0.7,2.1-0.8,2.8,0c0.4,0.4,0.6,0.9,0.6,1.4c0,0.5-0.2,1-0.6,1.4
			C490.3,126.8,489.8,127,489.3,127z"/>
	</g>
</g>
<g>
	<g>
		<path class="st0" d="M138.8,186.7c-0.3,0-0.6-0.1-0.9-0.2c-0.7-0.3-1.1-1-1.1-1.8v-10.1h-5.2c-7.4,0-13.5-6.1-13.5-13.7V156h4v4.9
			c0,5.3,4.2,9.7,9.5,9.7h7.2c1.1,0,2,0.9,2,2v8l12-9.5c0.4-0.3,0.8-0.4,1.2-0.4h22.4c5.2,0,9.5-4.3,9.5-9.7v-27
			c0-5.3-4.2-9.7-9.5-9.7h-40.2v-4h40.2c7.4,0,13.5,6.1,13.5,13.7v27c0,7.5-6,13.7-13.5,13.7h-21.7l-14.7,11.7
			C139.7,186.5,139.3,186.7,138.8,186.7z"/>
	</g>
	<g>
		<path class="st0" d="M146,116.6c-0.3,0-0.6-0.1-0.9-0.2c-0.7-0.3-1.1-1-1.1-1.8v-8.3h-4.1c-6.4,0-11.7-5.3-11.7-11.9V71.6
			c0-6.5,5.2-11.9,11.7-11.9h37.9c6.4,0,11.7,5.3,11.7,11.9v22.9c0,6.5-5.2,11.9-11.7,11.9h-18.3l-12.3,9.8
			C146.9,116.4,146.4,116.6,146,116.6z M139.9,63.7c-4.2,0-7.7,3.5-7.7,7.9v22.9c0,4.3,3.4,7.9,7.7,7.9h6.1c1.1,0,2,0.9,2,2v6.1
			l9.6-7.7c0.4-0.3,0.8-0.4,1.2-0.4h19c4.2,0,7.7-3.5,7.7-7.9V71.6c0-4.3-3.4-7.9-7.7-7.9H139.9z"/>
	</g>
	<g>
		<path class="st0" d="M113.2,162.6c-0.4,0-0.9-0.1-1.2-0.4l-12.1-9.6H82c-6.3,0-11.5-5.2-11.5-11.7v-22.4c0-6.4,5.2-11.7,11.5-11.7
			h37.2c6.3,0,11.5,5.2,11.5,11.7v22.4c0,6.4-5.2,11.7-11.5,11.7h-4v8.1c0,0.8-0.4,1.5-1.1,1.8C113.8,162.5,113.5,162.6,113.2,162.6
			z M82,110.8c-4.1,0-7.5,3.4-7.5,7.7v22.4c0,4.2,3.4,7.7,7.5,7.7h18.6c0.5,0,0.9,0.2,1.2,0.4l9.4,7.5v-5.9c0-1.1,0.9-2,2-2h6
			c4.1,0,7.5-3.4,7.5-7.7v-22.4c0-4.2-3.4-7.7-7.5-7.7H82z"/>
	</g>
	<g>
		<path class="st0" d="M121.1,105.9c-0.4,0-0.9-0.1-1.2-0.4l-8.9-7.1H97.7c-5,0-9.1-4.2-9.1-9.3V72.3c0-5.1,4.1-9.3,9.1-9.3h27.9v4
			H97.7c-2.8,0-5.1,2.4-5.1,5.3v16.8c0,2.9,2.3,5.3,5.1,5.3h13.9c0.5,0,0.9,0.2,1.2,0.4l6.2,5v-3.4c0-1.1,0.9-2,2-2h4.5v4h-2.5v5.5
			c0,0.8-0.4,1.5-1.1,1.8C121.7,105.8,121.4,105.9,121.1,105.9z"/>
	</g>
	<g>
		<rect x="141.5" y="134.7" class="st0" width="17.7" height="4"/>
	</g>
	<g>
		<rect x="141.5" y="147.2" class="st0" width="30.2" height="4"/>
	</g>
</g>
<g>
	<g>
		<path class="st0" d="M339.5,355.8c-0.4,0-0.9-0.1-1.2-0.4l-23.8-18.6h-35.2c-11.2,0-20.3-9.1-20.3-20.3v-34.3
			c0-11.2,9.1-20.3,20.3-20.3H351c11.2,0,20.3,9.1,20.3,20.3v34.3c0,11.2-9.1,20.3-20.3,20.3h-9.5v17.1c0,0.8-0.4,1.5-1.1,1.8
			C340.1,355.8,339.8,355.8,339.5,355.8z M279.3,265.8c-9,0-16.3,7.3-16.3,16.3v34.3c0,9,7.3,16.3,16.3,16.3h35.9
			c0.4,0,0.9,0.1,1.2,0.4l21.1,16.5v-15c0-1.1,0.9-2,2-2H351c9,0,16.3-7.3,16.3-16.3v-34.3c0-9-7.3-16.3-16.3-16.3H279.3z"/>
	</g>
	<g>
		<rect x="285.3" y="288.5" class="st0" width="29.9" height="4"/>
	</g>
	<g>
		<rect x="285.3" y="302.7" class="st0" width="62.1" height="4"/>
	</g>
</g>
<g>
	<g>
		<path class="st0" d="M272.8,704.8c-0.3,0-0.5-0.1-0.8-0.2c-0.7-0.3-1.2-1-1.2-1.8v-12.2h-2.7c-6,0-10.8-4.9-10.8-10.8v-25.1
			c0-5.4,4-10,9.3-10.7l45.5-6.5c3.1-0.4,6.2,0.5,8.6,2.5c2.4,2.1,3.7,5,3.7,8.2v31.5c0,6-4.9,10.8-10.8,10.8h-25.5l-13.9,13.6
			C273.8,704.6,273.3,704.8,272.8,704.8z M313.6,641.5c-0.3,0-0.6,0-1,0.1l-45.5,6.5c-3.3,0.5-5.9,3.4-5.9,6.8v25.1
			c0,3.8,3.1,6.8,6.8,6.8h4.7c1.1,0,2,0.9,2,2v9.4l11.1-10.8c0.4-0.4,0.9-0.6,1.4-0.6h26.3c3.8,0,6.8-3.1,6.8-6.8v-31.5
			c0-2-0.9-3.9-2.4-5.2C316.8,642,315.3,641.5,313.6,641.5z"/>
	</g>
	<g>
		<path class="st0" d="M355.6,722.5c-0.5,0-1-0.2-1.4-0.6l-15.9-15.5h-28.9c-6.6,0-12-5.4-12-12h4c0,4.4,3.6,8,8,8h29.7
			c0.5,0,1,0.2,1.4,0.6l13.1,12.7v-11.3c0-1.1,0.9-2,2-2h5.3c4.4,0,8-3.6,8-8v-28.4c0-4-3-7.4-6.9-7.9l-32.4-4.6l0.6-4l32.4,4.6
			c5.9,0.8,10.3,5.9,10.3,11.9v28.4c0,6.6-5.4,12-12,12h-3.3v14c0,0.8-0.5,1.5-1.2,1.8C356.2,722.5,355.9,722.5,355.6,722.5z"/>
	</g>
	<g>
		<path class="st0" d="M301.4,681.4h-4v-22.6c0-3.5,1.5-6.8,4.1-9.1c2.6-2.3,6.1-3.3,9.5-2.8l5.1,0.7l-0.6,4l-5.1-0.7
			c-2.3-0.3-4.6,0.4-6.4,1.9c-1.8,1.5-2.8,3.7-2.8,6V681.4z"/>
	</g>
	<g>
		<path class="st0" d="M290.9,669.8c-0.3,0-0.5,0-0.8-0.2c-0.2-0.1-0.5-0.2-0.6-0.4c-0.2-0.2-0.3-0.4-0.4-0.7
			c-0.1-0.2-0.2-0.5-0.2-0.8c0-0.5,0.2-1,0.6-1.4c0.7-0.7,2.1-0.7,2.8,0c0.4,0.4,0.6,0.9,0.6,1.4c0,0.3,0,0.5-0.1,0.8
			c-0.1,0.2-0.2,0.5-0.4,0.7C291.9,669.5,291.4,669.8,290.9,669.8z"/>
	</g>
	<g>
		<path class="st0" d="M307.1,669.8c-0.3,0-0.5,0-0.8-0.2c-0.2-0.1-0.5-0.2-0.6-0.4c-0.2-0.2-0.3-0.4-0.4-0.7
			c-0.1-0.2-0.2-0.5-0.2-0.8c0-0.5,0.2-1,0.6-1.4c0.1-0.1,0.2-0.2,0.3-0.2c0.1-0.1,0.2-0.1,0.4-0.2c0.1-0.1,0.2-0.1,0.4-0.1
			c0.6-0.1,1.3,0.1,1.8,0.5c0.4,0.4,0.6,0.9,0.6,1.4c0,0.3,0,0.5-0.1,0.8c-0.1,0.2-0.2,0.5-0.4,0.7
			C308.2,669.5,307.6,669.8,307.1,669.8z"/>
	</g>
	<g>
		<path class="st0" d="M274.6,669.8c-0.3,0-0.5,0-0.8-0.2c-0.2-0.1-0.5-0.2-0.6-0.4c-0.2-0.2-0.3-0.4-0.4-0.7
			c-0.1-0.2-0.2-0.5-0.2-0.8c0-0.5,0.2-1,0.6-1.4c0.1-0.1,0.2-0.2,0.3-0.2c0.1-0.1,0.2-0.1,0.4-0.2c0.1-0.1,0.2-0.1,0.4-0.1
			c0.6-0.1,1.3,0.1,1.8,0.5c0.4,0.4,0.6,0.9,0.6,1.4c0,0.3,0,0.5-0.1,0.8c-0.1,0.2-0.2,0.5-0.4,0.7
			C275.7,669.5,275.1,669.8,274.6,669.8z"/>
	</g>
</g>
<g>
	<g>
		<path class="st0" d="M825.3,714.5c-0.3,0-0.5-0.1-0.8-0.2c-0.7-0.3-1.2-1-1.2-1.8v-12.2h-2.7c-6,0-10.8-4.9-10.8-10.8v-25.1
			c0-5.4,4-10,9.3-10.7l45.5-6.5c3.1-0.4,6.2,0.5,8.6,2.5c2.4,2.1,3.7,5,3.7,8.2v31.5c0,6-4.9,10.8-10.8,10.8h-25.5l-13.9,13.6
			C826.3,714.3,825.8,714.5,825.3,714.5z M866.1,651.2c-0.3,0-0.6,0-1,0.1l-45.5,6.5c-3.3,0.5-5.9,3.4-5.9,6.8v25.1
			c0,3.8,3.1,6.8,6.8,6.8h4.7c1.1,0,2,0.9,2,2v9.4l11.1-10.8c0.4-0.4,0.9-0.6,1.4-0.6h26.3c3.8,0,6.8-3.1,6.8-6.8V658
			c0-2-0.9-3.9-2.4-5.2C869.3,651.8,867.7,651.2,866.1,651.2z"/>
	</g>
	<g>
		<path class="st0" d="M914.5,688.7c-0.5,0-1-0.2-1.4-0.6l-13.9-13.6h-19.1v-4H900c0.5,0,1,0.2,1.4,0.6l11.1,10.8v-9.4
			c0-1.1,0.9-2,2-2h4.7c3.8,0,6.8-3.1,6.8-6.8v-25.1c0-3.4-2.5-6.3-5.9-6.8l-45.5-6.5c-2-0.3-3.9,0.3-5.4,1.6
			c-1.5,1.3-2.4,3.2-2.4,5.2v11.5h-4v-11.5c0-3.1,1.4-6.1,3.7-8.2c2.4-2.1,5.5-3,8.6-2.5l45.5,6.5c5.3,0.7,9.3,5.4,9.3,10.7v25.1
			c0,6-4.9,10.8-10.8,10.8h-2.7v12.2c0,0.8-0.5,1.5-1.2,1.8C915.1,688.6,914.8,688.7,914.5,688.7z"/>
	</g>
	<g>
		<path class="st0" d="M899,738.7c-0.5,0-1-0.2-1.4-0.6l-11-10.7h-20c-5,0-9-4-9-9v-14h4v14c0,2.8,2.2,5,5,5h20.9
			c0.5,0,1,0.2,1.4,0.6l8.1,7.9v-6.5c0-1.1,0.9-2,2-2h3.7c2.8,0,5-2.2,5-5v-19.9c0-2.5-1.8-4.6-4.3-5l-22.8-3.2l0.6-4l22.8,3.2
			c4.4,0.6,7.7,4.5,7.7,8.9v19.9c0,5-4,9-9,9H901v9.2c0,0.8-0.5,1.5-1.2,1.8C899.5,738.6,899.3,738.7,899,738.7z"/>
	</g>
	<g>
		<path class="st0" d="M843.4,679.5c-0.5,0-1-0.2-1.4-0.6c-0.4-0.4-0.6-0.9-0.6-1.4c0-0.1,0-0.3,0-0.4c0-0.1,0.1-0.3,0.1-0.4
			c0-0.1,0.1-0.2,0.2-0.3c0.1-0.1,0.2-0.2,0.2-0.3c0.5-0.5,1.2-0.7,1.8-0.5c0.1,0,0.2,0.1,0.4,0.1c0.1,0,0.2,0.1,0.3,0.2
			c0.1,0.1,0.2,0.2,0.3,0.2c0.1,0.1,0.2,0.2,0.2,0.3c0.1,0.1,0.1,0.2,0.2,0.3c0,0.1,0.1,0.2,0.1,0.4c0,0.1,0,0.3,0,0.4
			c0,0.5-0.2,1-0.6,1.4c-0.1,0.1-0.2,0.2-0.3,0.2c-0.1,0.1-0.2,0.1-0.3,0.2c-0.1,0-0.2,0.1-0.4,0.1
			C843.6,679.5,843.5,679.5,843.4,679.5z"/>
	</g>
	<g>
		<path class="st0" d="M859.6,679.5c-0.5,0-1-0.2-1.4-0.6c-0.4-0.4-0.6-0.9-0.6-1.4c0-0.5,0.2-1,0.6-1.4c0.5-0.5,1.2-0.7,1.8-0.5
			c0.1,0,0.2,0.1,0.4,0.1c0.1,0,0.2,0.1,0.3,0.2c0.1,0.1,0.2,0.2,0.3,0.2c0.4,0.4,0.6,0.9,0.6,1.4c0,0.5-0.2,1-0.6,1.4
			c-0.2,0.2-0.4,0.3-0.6,0.4C860.1,679.4,859.9,679.5,859.6,679.5z"/>
	</g>
	<g>
		<path class="st0" d="M827.1,679.5c-0.5,0-1-0.2-1.4-0.6c-0.1-0.1-0.2-0.2-0.2-0.3c-0.1-0.1-0.1-0.2-0.2-0.4c0-0.1-0.1-0.2-0.1-0.4
			c0-0.1,0-0.3,0-0.4c0-0.5,0.2-1,0.6-1.4c0.1-0.1,0.2-0.2,0.3-0.2c0.1-0.1,0.2-0.1,0.3-0.2c0.1-0.1,0.2-0.1,0.4-0.1
			c0.6-0.1,1.3,0.1,1.8,0.5c0.4,0.4,0.6,0.9,0.6,1.4c0,0.1,0,0.3,0,0.4c0,0.1-0.1,0.2-0.1,0.4c0,0.1-0.1,0.2-0.2,0.4
			c-0.1,0.1-0.2,0.2-0.2,0.3C828.1,679.3,827.6,679.5,827.1,679.5z"/>
	</g>
</g>
<g>
	<g>
		<g>
			<path class="st0" d="M697.9,483.3c-0.6,0-1.1-0.3-1.5-0.7c-0.5-0.6-0.6-1.4-0.3-2l5.1-12.5c0.1-0.3,0.3-0.6,0.6-0.8l26.4-22.2
				c0.8-0.7,2.1-0.6,2.8,0.2l8.1,9.6c0.3,0.4,0.5,0.9,0.5,1.5c0,0.5-0.3,1-0.7,1.4l-26.4,22.2c-0.2,0.2-0.5,0.4-0.9,0.4l-13.2,2.9
				C698.2,483.3,698.1,483.3,697.9,483.3z M704.8,470l-3.5,8.5l9-2l24.5-20.6l-5.5-6.5L704.8,470z"/>
		</g>
		<g>
			<path class="st0" d="M737.6,458.1c-0.1,0-0.1,0-0.2,0c-0.5,0-1-0.3-1.4-0.7l-8.1-9.6c-0.7-0.8-0.6-2.1,0.2-2.8l5.3-4.5
				c0.4-0.3,0.9-0.5,1.5-0.5c0.5,0,1,0.3,1.4,0.7l8.1,9.6c0.7,0.8,0.6,2.1-0.2,2.8l-5.3,4.5C738.5,458,738,458.1,737.6,458.1z
				 M732.3,446.8l5.5,6.5l2.2-1.9l-5.5-6.5L732.3,446.8z"/>
		</g>
	</g>
	<g>
		<path class="st0" d="M648.4,548.7c-0.3,0-0.5-0.1-0.8-0.2c-0.7-0.3-1.2-1-1.2-1.8v-20.2H641c-8.7,0-15.8-7.1-15.8-15.8v-39.3
			c0-7.8,5.9-14.6,13.6-15.7l71.3-10.1c3.1-0.4,6.3,0,9.1,1.4l-1.7,3.6c-2.1-1-4.5-1.4-6.8-1l-71.3,10.1
			c-5.8,0.8-10.2,5.9-10.2,11.7v39.3c0,6.5,5.3,11.8,11.8,11.8h7.4c1.1,0,2,0.9,2,2V542l19.4-18.9c0.4-0.4,0.9-0.6,1.4-0.6h41.2
			c6.5,0,11.8-5.3,11.8-11.8v-37.4h4v37.4c0,8.7-7.1,15.8-15.8,15.8h-40.4l-22.2,21.6C649.4,548.5,648.9,548.7,648.4,548.7z"/>
	</g>
	<g>
		<rect x="648.4" y="481.6" class="st0" width="28.3" height="4"/>
	</g>
	<g>
		<rect x="648.4" y="498.3" class="st0" width="56.6" height="4"/>
	</g>
</g>
<g>
	<g>
		<g>
			<path class="st0" d="M509.4,676.5c-0.6,0-1.1-0.3-1.5-0.7c-0.5-0.6-0.6-1.4-0.3-2l5.1-12.5c0.1-0.3,0.3-0.6,0.6-0.8l26.4-22.2
				c0.4-0.3,0.9-0.5,1.5-0.5c0.5,0,1,0.3,1.4,0.7l8.1,9.6c0.7,0.8,0.6,2.1-0.2,2.8l-26.4,22.2c-0.2,0.2-0.5,0.4-0.9,0.4l-13.2,2.9
				C509.7,676.5,509.5,676.5,509.4,676.5z M516.2,663.2l-3.5,8.5l9-2l24.5-20.6l-5.5-6.5L516.2,663.2z"/>
		</g>
		<g>
			<path class="st0" d="M549,651.3c-0.1,0-0.1,0-0.2,0c-0.5,0-1-0.3-1.4-0.7l-8.1-9.6c-0.7-0.8-0.6-2.1,0.2-2.8l5.3-4.5
				c0.4-0.3,0.9-0.5,1.5-0.5c0.5,0,1,0.3,1.4,0.7l8.1,9.6c0.3,0.4,0.5,0.9,0.5,1.5c0,0.5-0.3,1-0.7,1.4l-5.3,4.5
				C549.9,651.1,549.5,651.3,549,651.3z M543.8,640l5.5,6.5l2.2-1.9l-5.5-6.5L543.8,640z"/>
		</g>
	</g>
	<g>
		<rect x="470.1" y="667.6" class="st0" width="28.3" height="4"/>
	</g>
	<g>
		<rect x="470.1" y="684.2" class="st0" width="56.6" height="4"/>
	</g>
	<g>
		<path class="st0" d="M535.7,726.7c-0.4,0-0.9-0.1-1.2-0.4l-23.8-19h-46.4c-11.2,0-20.3-9.3-20.3-20.7v-15.8
			c0-11.4,9.1-20.7,20.3-20.7h52.6v4h-52.6c-9,0-16.3,7.5-16.3,16.7v15.8c0,9.2,7.3,16.7,16.3,16.7h47.1c0.5,0,0.9,0.2,1.2,0.4
			l21.1,16.8v-15.3c0-1.1,0.9-2,2-2h0.3c9,0,16.3-7.5,16.3-16.7v-15.8c0-4.5-1.7-8.6-4.8-11.8l2.9-2.8c3.8,3.9,5.9,9.1,5.9,14.6
			v15.8c0,10.8-8.2,19.7-18.6,20.6v17.5c0,0.8-0.4,1.5-1.1,1.8C536.3,726.7,536,726.7,535.7,726.7z"/>
	</g>
</g>
<g>
	<g>
		<path class="st0" d="M350.7,532.6c-0.4,0-0.9-0.1-1.2-0.4l-23.8-19h-46.4c-11.2,0-20.3-9.3-20.3-20.7v-15.8
			c0-11.4,9.1-20.7,20.3-20.7H351c11.2,0,20.3,9.3,20.3,20.7v15.8c0,10.8-8.2,19.7-18.6,20.6v17.5c0,0.8-0.4,1.5-1.1,1.8
			C351.3,532.6,351,532.6,350.7,532.6z M279.3,460.2c-9,0-16.3,7.5-16.3,16.7v15.8c0,9.2,7.3,16.7,16.3,16.7h47.1
			c0.5,0,0.9,0.2,1.2,0.4l21.1,16.8v-15.3c0-1.1,0.9-2,2-2h0.3c9,0,16.3-7.5,16.3-16.7v-15.8c0-9.2-7.3-16.7-16.3-16.7H279.3z"/>
	</g>
	<g>
		<path class="st0" d="M294.1,489.4c-0.5,0-1-0.2-1.4-0.6c-0.2-0.2-0.3-0.4-0.4-0.6c-0.1-0.2-0.1-0.5-0.1-0.8c0-0.5,0.2-1,0.6-1.4
			c0.8-0.8,2.1-0.8,2.8,0c0.4,0.4,0.6,0.9,0.6,1.4c0,0.5-0.2,1-0.6,1.4c-0.1,0.1-0.2,0.2-0.3,0.2c-0.1,0.1-0.2,0.1-0.3,0.2
			c-0.1,0-0.2,0.1-0.4,0.1C294.4,489.4,294.2,489.4,294.1,489.4z"/>
	</g>
	<g>
		<path class="st0" d="M315.1,489.4c-0.1,0-0.3,0-0.4,0c-0.1,0-0.2-0.1-0.4-0.1c-0.1,0-0.2-0.1-0.3-0.2c-0.1-0.1-0.2-0.2-0.3-0.2
			c-0.2-0.2-0.3-0.4-0.4-0.6c-0.1-0.2-0.2-0.5-0.2-0.8c0-0.1,0-0.3,0-0.4c0-0.1,0.1-0.2,0.1-0.4c0-0.1,0.1-0.2,0.2-0.3
			c0.1-0.1,0.2-0.2,0.2-0.3c0.1-0.1,0.2-0.2,0.3-0.2c0.1-0.1,0.2-0.1,0.3-0.2c0.1,0,0.2-0.1,0.4-0.1c0.6-0.1,1.3,0.1,1.8,0.5
			c0.1,0.1,0.2,0.2,0.2,0.3c0.1,0.1,0.1,0.2,0.2,0.3c0,0.1,0.1,0.2,0.1,0.4c0,0.1,0,0.3,0,0.4c0,0.3-0.1,0.5-0.1,0.8
			c-0.1,0.2-0.2,0.5-0.4,0.6C316.2,489.2,315.7,489.4,315.1,489.4z"/>
	</g>
	<g>
		<path class="st0" d="M336.2,489.4c-0.1,0-0.3,0-0.4,0c-0.1,0-0.2-0.1-0.4-0.1c-0.1,0-0.2-0.1-0.3-0.2c-0.1-0.1-0.2-0.2-0.3-0.2
			c-0.4-0.4-0.6-0.9-0.6-1.4c0-0.5,0.2-1,0.6-1.4c0.7-0.8,2.1-0.8,2.8,0c0.4,0.4,0.6,0.9,0.6,1.4c0,0.3-0.1,0.5-0.1,0.8
			c-0.1,0.2-0.2,0.5-0.4,0.6c-0.1,0.1-0.2,0.2-0.3,0.2c-0.1,0.1-0.2,0.1-0.3,0.2c-0.1,0-0.2,0.1-0.4,0.1
			C336.4,489.4,336.3,489.4,336.2,489.4z"/>
	</g>
</g>
<g>
	<g>
		<path class="st0" d="M736.7,737.3c-0.2,0-0.4,0-0.6-0.1l-17.9-5.2c-4,1.4-8.1,2-12.4,2c-21.2,0-38.5-17.3-38.5-38.5
			c0-21.2,17.3-38.5,38.5-38.5c21.2,0,38.5,17.3,38.5,38.5c0,7.1-1.9,14-5.6,20.1v19.7c0,0.6-0.3,1.2-0.8,1.6
			C737.6,737.2,737.2,737.3,736.7,737.3z M718.2,727.9c0.2,0,0.4,0,0.6,0.1l16,4.7V715c0-0.4,0.1-0.7,0.3-1.1
			c3.5-5.5,5.3-11.9,5.3-18.4c0-19-15.5-34.5-34.5-34.5s-34.5,15.5-34.5,34.5c0,19,15.5,34.5,34.5,34.5c4,0,7.9-0.7,11.7-2
			C717.7,728,717.9,727.9,718.2,727.9z"/>
	</g>
	<g>
		<path class="st0" d="M721.3,657l-3.8-1.3c0.8-2.3,1.2-4.7,1.2-7.1c0-12.1-9.8-21.9-21.9-21.9c-10.7,0-19.7,7.6-21.6,18.1l-3.9-0.7
			c2.2-12.4,12.9-21.4,25.5-21.4c14.3,0,25.9,11.6,25.9,25.9C722.6,651.5,722.2,654.3,721.3,657z"/>
	</g>
	<g>
		<path class="st0" d="M659,707.6c-5.6,0-11.1-1.5-15.9-4.4h-15.4c-0.6,0-1.2-0.3-1.6-0.8c-0.4-0.5-0.5-1.2-0.3-1.8l4.1-14
			c-1.1-3.1-1.6-6.4-1.6-9.8c0-17,13.8-30.8,30.8-30.8c9.8,0,18.8,4.5,24.6,12.3l-3.2,2.4c-5.1-6.8-12.9-10.7-21.4-10.7
			c-14.8,0-26.8,12-26.8,26.8c0,3.1,0.5,6.2,1.6,9c0.1,0.4,0.2,0.8,0,1.2l-3.5,12h13.3c0.4,0,0.7,0.1,1.1,0.3
			c4.3,2.7,9.2,4.1,14.3,4.1c1.6,0,3.3-0.1,4.9-0.4l0.7,3.9C662.7,707.5,660.8,707.6,659,707.6z"/>
	</g>
	<g>
		<path class="st0" d="M684.8,699.2c-0.3,0-0.5-0.1-0.8-0.2c-0.2-0.1-0.5-0.2-0.6-0.4c-0.1-0.1-0.2-0.2-0.2-0.3
			c-0.1-0.1-0.1-0.2-0.2-0.3c0-0.1-0.1-0.2-0.1-0.4c0-0.1,0-0.3,0-0.4s0-0.3,0-0.4c0-0.1,0.1-0.2,0.1-0.4c0.1-0.1,0.1-0.2,0.2-0.4
			c0.1-0.1,0.2-0.2,0.2-0.3c0.7-0.7,2.1-0.7,2.8,0c0.1,0.1,0.2,0.2,0.2,0.3c0.1,0.1,0.1,0.2,0.2,0.4c0,0.1,0.1,0.2,0.1,0.4
			c0,0.1,0,0.3,0,0.4s0,0.3,0,0.4c0,0.1-0.1,0.2-0.1,0.4c0,0.1-0.1,0.2-0.2,0.3c-0.1,0.1-0.2,0.2-0.2,0.3c-0.1,0.1-0.2,0.2-0.3,0.2
			c-0.1,0.1-0.2,0.1-0.3,0.2c-0.1,0-0.2,0.1-0.4,0.1C685,699.2,684.9,699.2,684.8,699.2z"/>
	</g>
	<g>
		<path class="st0" d="M705.8,699.2c-0.1,0-0.3,0-0.4,0c-0.1,0-0.2-0.1-0.4-0.1c-0.1,0-0.2-0.1-0.3-0.2c-0.1-0.1-0.2-0.2-0.3-0.2
			c-0.1-0.1-0.2-0.2-0.2-0.3c-0.1-0.1-0.1-0.2-0.2-0.3c0-0.1-0.1-0.2-0.1-0.4c0-0.1,0-0.3,0-0.4s0-0.3,0-0.4c0-0.1,0.1-0.2,0.1-0.4
			c0.1-0.1,0.1-0.2,0.2-0.4c0.1-0.1,0.2-0.2,0.2-0.3c0.1-0.1,0.2-0.2,0.3-0.2c0.1-0.1,0.2-0.1,0.3-0.2s0.2-0.1,0.4-0.1
			c0.3,0,0.5,0,0.8,0c0.1,0,0.2,0.1,0.4,0.1c0.1,0,0.2,0.1,0.3,0.2c0.1,0.1,0.2,0.2,0.3,0.2c0.1,0.1,0.2,0.2,0.2,0.3
			c0.1,0.1,0.1,0.2,0.2,0.4c0,0.1,0.1,0.2,0.1,0.4c0,0.1,0,0.3,0,0.4s0,0.3,0,0.4c0,0.1-0.1,0.2-0.1,0.4c0,0.1-0.1,0.2-0.2,0.3
			c-0.1,0.1-0.2,0.2-0.2,0.3C706.9,699,706.4,699.2,705.8,699.2z"/>
	</g>
	<g>
		<path class="st0" d="M726.9,699.2c-0.3,0-0.5-0.1-0.8-0.2c-0.2-0.1-0.5-0.2-0.6-0.4c-0.1-0.1-0.2-0.2-0.2-0.3
			c-0.1-0.1-0.1-0.2-0.2-0.3c0-0.1-0.1-0.2-0.1-0.4c0-0.1,0-0.3,0-0.4s0-0.3,0-0.4c0-0.1,0.1-0.2,0.1-0.4c0-0.1,0.1-0.2,0.2-0.4
			c0.1-0.1,0.2-0.2,0.2-0.3c0.8-0.7,2.1-0.7,2.8,0c0.1,0.1,0.2,0.2,0.2,0.3c0.1,0.1,0.1,0.2,0.2,0.4c0,0.1,0.1,0.2,0.1,0.4
			c0,0.1,0,0.3,0,0.4s0,0.3,0,0.4c0,0.1-0.1,0.2-0.1,0.4c0,0.1-0.1,0.2-0.2,0.3c-0.1,0.1-0.2,0.2-0.2,0.3c-0.1,0.1-0.2,0.2-0.3,0.2
			c-0.1,0.1-0.2,0.1-0.3,0.2c-0.1,0-0.2,0.1-0.4,0.1C727.1,699.2,727,699.2,726.9,699.2z"/>
	</g>
</g>
<g>
	<g>
		<path class="st0" d="M101.8,360.4c-0.3,0-0.5-0.1-0.8-0.2c-0.7-0.3-1.2-1-1.2-1.8v-20.2h-5.4c-8.8,0-15.9-7.1-15.9-15.8v-39.3
			c0-7.8,5.9-14.6,13.7-15.7l71.7-10.1c4.6-0.6,9.2,0.7,12.7,3.7c3.5,3,5.5,7.4,5.5,11.9v49.4c0,8.7-7.1,15.8-15.9,15.8h-40.6
			l-22.3,21.6C102.8,360.2,102.3,360.4,101.8,360.4z M166.1,261.2c-0.6,0-1.1,0-1.7,0.1l-71.7,10.1c-5.8,0.8-10.2,5.9-10.2,11.7
			v39.3c0,6.5,5.3,11.8,11.9,11.8h7.4c1.1,0,2,0.9,2,2v17.5l19.5-18.9c0.4-0.4,0.9-0.6,1.4-0.6H166c6.6,0,11.9-5.3,11.9-11.8V273
			c0-3.4-1.5-6.7-4.1-8.9C171.7,262.2,168.9,261.2,166.1,261.2z"/>
	</g>
	<g>
		<path class="st0" d="M108.9,305.1c-0.5,0-1-0.2-1.4-0.6c-0.4-0.4-0.6-0.9-0.6-1.4c0-0.1,0-0.3,0-0.4c0-0.1,0.1-0.2,0.1-0.4
			c0-0.1,0.1-0.2,0.2-0.3c0.1-0.1,0.2-0.2,0.2-0.3c0.7-0.8,2.1-0.8,2.8,0c0.1,0.1,0.2,0.2,0.2,0.3c0.1,0.1,0.1,0.2,0.2,0.3
			c0.1,0.1,0.1,0.2,0.1,0.4c0,0.1,0,0.3,0,0.4c0,0.5-0.2,1-0.6,1.4C110,304.9,109.4,305.1,108.9,305.1z"/>
	</g>
	<g>
		<path class="st0" d="M129.9,305.1c-0.5,0-1-0.2-1.4-0.6c-0.4-0.4-0.6-0.9-0.6-1.4c0-0.1,0-0.3,0-0.4c0-0.1,0.1-0.2,0.1-0.4
			c0-0.1,0.1-0.2,0.2-0.3c0.1-0.1,0.2-0.2,0.2-0.3c0.7-0.8,2.1-0.8,2.8,0c0.1,0.1,0.2,0.2,0.2,0.3c0.1,0.1,0.1,0.2,0.2,0.3
			c0,0.1,0.1,0.2,0.1,0.4c0,0.1,0,0.3,0,0.4c0,0.5-0.2,1-0.6,1.4C131,304.9,130.5,305.1,129.9,305.1z"/>
	</g>
	<g>
		<path class="st0" d="M151,305.1c-0.5,0-1-0.2-1.4-0.6c-0.4-0.4-0.6-0.9-0.6-1.4c0-0.1,0-0.3,0-0.4c0-0.1,0.1-0.2,0.1-0.4
			c0-0.1,0.1-0.2,0.2-0.3c0.1-0.1,0.2-0.2,0.2-0.3c0.7-0.8,2.1-0.8,2.8,0c0.1,0.1,0.2,0.2,0.2,0.3c0.1,0.1,0.1,0.2,0.2,0.3
			c0,0.1,0.1,0.2,0.1,0.4c0,0.1,0,0.3,0,0.4c0,0.5-0.2,1-0.6,1.4C152,304.9,151.5,305.1,151,305.1z"/>
	</g>
</g>
<g>
	<g>
		<g>
			<path class="st0" d="M534.6,360.8c-0.2,0-0.4,0-0.6-0.1l-17.5-5.1c-3.9,1.3-8,2-12.1,2c-20.8,0-37.7-16.9-37.7-37.7
				s16.9-37.7,37.7-37.7c7.6,0,14.8,2.2,21.1,6.4l-2.2,3.3c-5.6-3.8-12.1-5.8-18.8-5.8c-18.6,0-33.7,15.1-33.7,33.7
				c0,18.6,15.1,33.7,33.7,33.7c3.9,0,7.8-0.7,11.4-2c0.4-0.1,0.8-0.2,1.2,0l15.6,4.5V339c0-0.4,0.1-0.7,0.3-1.1
				c3.4-5.4,5.2-11.6,5.2-18c0-2.2-0.2-4.5-0.7-6.7l3.9-0.8c0.5,2.4,0.7,4.9,0.7,7.5c0,7-1.9,13.7-5.5,19.6v19.3
				c0,0.6-0.3,1.2-0.8,1.6C535.4,360.7,535,360.8,534.6,360.8z"/>
		</g>
		<g>
			<path class="st0" d="M462.6,317.2c-2.4-0.7-4.7-1.8-6.8-3.1h-15.5c-0.6,0-1.2-0.3-1.6-0.8c-0.4-0.5-0.5-1.2-0.3-1.8l4.1-14.1
				c-1.1-3.2-1.6-6.5-1.6-9.8c0-17,13.9-30.9,30.9-30.9c13.3,0,25.1,8.5,29.3,21l-3.8,1.3c-3.7-11-13.9-18.3-25.5-18.3
				c-14.8,0-26.9,12.1-26.9,26.9c0,3.1,0.5,6.2,1.6,9.1c0.1,0.4,0.2,0.8,0,1.2l-3.5,12.1h13.4c0.4,0,0.7,0.1,1.1,0.3
				c2,1.3,4.1,2.2,6.3,2.9L462.6,317.2z"/>
		</g>
	</g>
	<g>
		<g>
			<path class="st0" d="M515,317.2c-0.6,0-1.1-0.3-1.5-0.7c-0.5-0.6-0.6-1.4-0.3-2l5.1-12.5c0.1-0.3,0.3-0.6,0.6-0.8l26.4-22.2
				c0.8-0.7,2.1-0.6,2.8,0.2l8.1,9.6c0.3,0.4,0.5,0.9,0.5,1.5c0,0.5-0.3,1-0.7,1.4l-26.4,22.2c-0.2,0.2-0.5,0.4-0.9,0.4l-13.2,2.9
				C515.3,317.2,515.2,317.2,515,317.2z M521.8,303.9l-3.5,8.5l9-2l24.5-20.6l-5.5-6.5L521.8,303.9z"/>
		</g>
		<g>
			<path class="st0" d="M554.6,292.1c-0.6,0-1.1-0.2-1.5-0.7l-8.1-9.6c-0.3-0.4-0.5-0.9-0.5-1.5c0-0.5,0.3-1,0.7-1.4l5.3-4.5
				c0.8-0.7,2.1-0.6,2.8,0.2l8.1,9.6c0.3,0.4,0.5,0.9,0.5,1.5c0,0.5-0.3,1-0.7,1.4l-5.3,4.5C555.5,291.9,555.1,292.1,554.6,292.1z
				 M549.4,280.7l5.5,6.5l2.2-1.9l-5.5-6.5L549.4,280.7z"/>
		</g>
	</g>
	<g>
		<rect x="487.3" y="307.8" class="st0" width="22.1" height="4"/>
	</g>
	<g>
		<rect x="487.3" y="326" class="st0" width="37.5" height="4"/>
	</g>
</g>
</svg>
