<?xml version="1.0" encoding="utf-8"?>
<!-- Generator: Adobe Illustrator 25.0.0, SVG Export Plug-In . SVG Version: 6.00 Build 0)  -->
<svg version="1.1" id="Layer_1" xmlns="http://www.w3.org/2000/svg" xmlns:xlink="http://www.w3.org/1999/xlink" x="0px" y="0px"
	 viewBox="0 0 4000 1500" style="enable-background:new 0 0 4000 1500;" xml:space="preserve">
<style type="text/css">
	.st0{fill:#FF0000;}
	.st1{fill:#FFFFFF;}
	.st2{fill:#282828;}
</style>
<g>
	<g>
		<path class="st0" d="M1395.1,502.7c-11.8-44.2-46.6-79-90.8-90.8c-80.1-21.5-401.4-21.5-401.4-21.5s-321.3,0-401.4,21.5
			c-44.2,11.8-79,46.6-90.8,90.8C389.1,582.8,389.1,750,389.1,750s0,167.2,21.5,247.3c11.8,44.2,46.6,79,90.8,90.8
			c80.1,21.5,401.4,21.5,401.4,21.5s321.3,0,401.4-21.5c44.2-11.8,79-46.6,90.8-90.8c21.5-80.1,21.5-247.3,21.5-247.3
			S1416.6,582.8,1395.1,502.7z"/>
		<polygon class="st1" points="800.1,904.1 1067.1,750 800.1,595.9 		"/>
	</g>
	<g>
		<path class="st2" d="M1880.5,1044.7c-20.3-13.7-34.8-35-43.4-63.9c-8.6-28.9-12.9-67.3-12.9-115.4v-65.4
			c0-48.5,4.9-87.4,14.7-116.8c9.8-29.4,25.1-50.8,45.9-64.3c20.8-13.5,48.1-20.2,81.9-20.2c33.3,0,60,6.9,80.1,20.6
			c20.1,13.7,34.8,35.2,44.1,64.3c9.3,29.1,14,68,14,116.5v65.4c0,48-4.5,86.6-13.6,115.7c-9.1,29.1-23.8,50.5-44.1,63.9
			c-20.3,13.5-47.9,20.2-82.7,20.2C1928.9,1065.3,1900.8,1058.4,1880.5,1044.7z M1994.4,974.2c5.6-14.7,8.4-38.7,8.4-72V761.8
			c0-32.3-2.8-56-8.4-70.9c-5.6-14.9-15.6-22.4-29.8-22.4c-13.7,0-23.4,7.5-29,22.4c-5.6,14.9-8.4,38.6-8.4,70.9v140.3
			c0,33.3,2.7,57.3,8.1,72c5.4,14.7,15.2,22,29.4,22C1978.8,996.2,1988.8,988.9,1994.4,974.2z"/>
		<path class="st2" d="M3441.1,866.5v22.8c0,28.9,0.8,50.6,2.6,65c1.7,14.5,5.3,25,10.7,31.6c5.4,6.6,13.7,9.9,25,9.9
			c15.2,0,25.6-5.9,31.2-17.6c5.6-11.8,8.7-31.3,9.2-58.8l87.4,5.1c0.5,3.9,0.7,9.3,0.7,16.2c0,41.6-11.4,72.7-34.2,93.3
			c-22.8,20.6-55,30.9-96.6,30.9c-50,0-85-15.7-105.1-47c-20.1-31.3-30.1-79.8-30.1-145.5v-78.6c0-67.6,10.4-116.9,31.2-148.1
			c20.8-31.1,56.5-46.7,106.9-46.7c34.8,0,61.5,6.4,80.1,19.1c18.6,12.7,31.7,32.6,39.3,59.5c7.6,26.9,11.4,64.2,11.4,111.7v77.2
			H3441.1z M3454,676.9c-5.1,6.4-8.6,16.8-10.3,31.2c-1.7,14.5-2.6,36.4-2.6,65.8v32.3h74.2v-32.3c0-28.9-1-50.8-2.9-65.8
			c-2-14.9-5.5-25.5-10.7-31.6c-5.1-6.1-13.1-9.2-23.9-9.2C3467.1,667.4,3459.1,670.6,3454,676.9z"/>
		<path class="st2" d="M1633.6,858.1l-115.4-416.6h100.7l40.4,188.8c10.3,46.5,17.9,86.2,22.8,119h2.9c3.4-23.5,11-62.9,22.8-118.3
			l41.9-189.6h100.7l-116.8,416.6V1058h-99.9V858.1z"/>
		<path class="st2" d="M2432.4,607.5V1058H2353l-8.8-55.1h-2.2c-21.6,41.6-53.9,62.5-97,62.5c-29.9,0-51.9-9.8-66.1-29.4
			c-14.2-19.6-21.3-50.2-21.3-91.8V607.5H2259v330.6c0,20.1,2.2,34.4,6.6,43c4.4,8.6,11.8,12.9,22,12.9c8.8,0,17.3-2.7,25.4-8.1
			c8.1-5.4,14.1-12.2,18-20.6V607.5H2432.4z"/>
		<path class="st2" d="M2952.5,607.5V1058h-79.4l-8.8-55.1h-2.2c-21.6,41.6-53.9,62.5-97,62.5c-29.9,0-51.9-9.8-66.1-29.4
			c-14.2-19.6-21.3-50.2-21.3-91.8V607.5h101.4v330.6c0,20.1,2.2,34.4,6.6,43c4.4,8.6,11.8,12.9,22,12.9c8.8,0,17.3-2.7,25.4-8.1
			c8.1-5.4,14.1-12.2,18-20.6V607.5H2952.5z"/>
		<path class="st2" d="M2707.9,523h-100.7V1058h-99.2V523h-100.7v-81.6h300.5V523z"/>
		<path class="st2" d="M3288.1,679.5c-6.1-28.4-16.1-49-29.8-61.7c-13.7-12.7-32.6-19.1-56.6-19.1c-18.6,0-36,5.3-52.2,15.8
			c-16.2,10.5-28.7,24.4-37.5,41.5h-0.7l0-237.3h-97.7v639.2h83.8l10.3-42.6h2.2c7.8,15.2,19.6,27.2,35.3,36
			c15.7,8.8,33.1,13.2,52.2,13.2c34.3,0,59.5-15.8,75.7-47.4c16.2-31.6,24.2-80.9,24.2-148.1v-71.3
			C3297.3,747.4,3294.2,708,3288.1,679.5z M3195.1,863.3c0,32.8-1.4,58.5-4,77.1c-2.7,18.6-7.2,31.9-13.6,39.7
			c-6.4,7.8-14.9,11.8-25.7,11.8c-8.3,0-16.1-2-23.1-5.9c-7.1-3.9-12.9-9.8-17.3-17.6V712.6c3.4-12.2,9.3-22.3,17.6-30.1
			c8.3-7.8,17.4-11.8,27.2-11.8c10.3,0,18.2,4,23.9,12.1c5.6,8.1,9.6,21.7,11.8,40.8c2.2,19.1,3.3,46.3,3.3,81.6V863.3z"/>
	</g>
</g>
</svg>
