<?xml version="1.0" encoding="utf-8"?>
<!-- Generator: Adobe Illustrator 25.0.0, SVG Export Plug-In . SVG Version: 6.00 Build 0)  -->
<svg version="1.1" id="Ñëîé_1" xmlns="http://www.w3.org/2000/svg" xmlns:xlink="http://www.w3.org/1999/xlink" x="0px" y="0px"
	 viewBox="0 0 100 100" style="enable-background:new 0 0 100 100;" xml:space="preserve">
<style type="text/css">
	.st0{fill:#FFFFFF;}
	.st1{fill:url(#SVGID_1_);}
	.st2{opacity:0.3;fill:#6B6B6B;}
	.st3{fill:#8A8A8A;}
	.st4{fill:#797979;}
	.st5{fill:#707070;}
	.st6{fill:#6A6A6A;}
	.st7{fill:#747474;}
	.st8{fill:#B6B6B6;}
	.st9{fill:#A1A1A1;}
	.st10{fill:#727272;}
	.st11{fill:#9C9C9C;}
	.st12{fill:#C0C0C0;}
	.st13{opacity:0;fill:#727272;}
	.st14{opacity:0.5;fill:#A5A5A5;}
	.st15{fill:#D7D7D7;}
	.st16{fill:#565656;}
	.st17{fill:#2D2D2D;}
	.st18{fill:#404040;}
	.st19{fill:#505050;}
	.st20{fill:#5D5D5D;}
	.st21{fill:#515151;}
	.st22{fill:#272727;}
	.st23{fill:#3B3B3B;}
	.st24{fill:#494949;}
	.st25{fill:#585858;}
	.st26{opacity:0.7;}
	.st27{fill:#6B6B6B;}
	.st28{fill:#919191;}
	.st29{opacity:0.69;}
	.st30{opacity:0.5;}
	.st31{opacity:0.2;fill:#6B6B6B;}
	.st32{fill:#8F8F8F;}
	.st33{fill:#6D6D6D;}
	.st34{fill:#636363;}
	.st35{fill:#4D4D4D;}
	.st36{fill:#A4A4A4;}
	.st37{fill:#AEAEAE;}
	.st38{fill:#A7A7A7;}
	.st39{fill:#B9B9B9;}
	.st40{fill:#D5D5D5;}
	.st41{fill:#DADADA;}
	.st42{fill:#D4D4D4;}
	.st43{fill:#F1F1F1;}
	.st44{fill:#777777;}
	.st45{fill:#C3C3C3;}
	.st46{fill:#2B2B2B;}
	.st47{fill:#464646;}
	.st48{fill:#5B5B5B;}
	.st49{fill:#9E9E9E;}
	.st50{fill:#787878;}
	.st51{fill:#4A4A4A;}
	.st52{fill:#CFCFCF;}
	.st53{fill:#E7E7E7;}
	.st54{fill:#C9C9C9;}
	.st55{fill:#EFEFEF;}
	.st56{fill:#A5A5A5;}
	.st57{fill:#366698;}
	.st58{fill:#6F93B8;}
	.st59{fill:#4774A3;}
	.st60{fill:#5580AC;}
	.st61{fill:#2C5D91;}
	.st62{fill:#25558A;}
	.st63{fill:#6B96C7;}
	.st64{fill:#8ABAEB;}
	.st65{opacity:0.3;}
</style>
<rect class="st0" width="100" height="100"/>
<g>
	
		<radialGradient id="SVGID_1_" cx="56.1524" cy="-0.9122" r="172.6721" gradientTransform="matrix(0.3431 0 0 0.4156 33.3928 29.5167)" gradientUnits="userSpaceOnUse">
		<stop  offset="0" style="stop-color:#008CFF"/>
		<stop  offset="6.303060e-02" style="stop-color:#1595FF"/>
		<stop  offset="0.3298" style="stop-color:#67BAFF"/>
		<stop  offset="0.5662" style="stop-color:#A8D8FF"/>
		<stop  offset="0.7634" style="stop-color:#D7EDFF"/>
		<stop  offset="0.914" style="stop-color:#F4FAFF"/>
		<stop  offset="1" style="stop-color:#FFFFFF"/>
	</radialGradient>
	<path class="st1" d="M95.4,36.8c-0.7-0.3-1.1-1.1-1.4-1.9c-0.4-0.9-0.9-1.9-1.9-1.7c-0.4,0.1-1,0.8-1.6,1.4
		c-0.3,0.4-0.7,0.8-0.9,0.9c-0.7,0.5-1.3,0.6-1.9,0.8c-0.3,0.1-0.6,0.1-0.9,0.2c-1.6,0.5-1.7,2.9-1.7,4.5c0,0.5,0,1.1-0.1,1.2
		c-0.3-0.2-0.5-3.6-0.6-5.6c-0.1-3.3-0.2-4.2-0.5-4.4c-0.1-0.1-0.2,0-0.2,0c-0.3,0.2-0.3,0.8-0.3,2c0,1.2-0.1,2.8-0.6,3.3
		c-0.3,0.3-1.2,0.1-1.8,0c-0.3-0.1-0.6-0.1-0.8-0.2c-0.6,0-1.1,0.1-1.6,0.2c-0.4,0.1-0.8,0.2-1.3,0.2c-0.6,0-1.2,0.1-1.7,0.2
		c-0.9,0.1-1.9,0.2-2.9,0.2c-0.5,0-1,0-1.5,0c-0.6,0-1.2,0-1.8,0c-2.4-0.1-5.1-0.3-8.1,0c-1.2,0.1-1.6-0.8-2-1.8
		c-0.3-0.6-0.5-1.2-0.9-1.4c-0.9-0.4-1.5,0.3-2.2,1c-0.3,0.3-0.5,0.6-0.8,0.8c-0.4,0.3-1.1,0.4-1.7,0.4c-0.8,0-1.7,0.1-2.1,0.8
		c-0.1,0.2-0.3,1-0.5,2.1c-0.1,0.7-0.3,1.6-0.5,1.9c-0.1-0.3-0.2-1.4-0.3-4.1c0-0.2,0-0.4,0-0.4c0-0.2,0-0.5,0-0.9
		c-0.1-2.3-0.2-3.4-0.5-3.6c-0.1-0.1-0.2-0.1-0.3,0c-0.2,0.1-0.3,0.7-0.4,1.9c-0.1,1.1-0.2,2.5-0.5,3.1c-0.3,0.7-1.2,0.4-2,0.1
		c-0.5-0.2-0.9-0.3-1.3-0.3c-1.5,0.1-2.7,0.2-4.2,0.6c-1,0.2-2,0-3.1-0.3c-0.7-0.2-1.4-0.3-2-0.4c-0.9-0.1-1.8-0.3-2.6-0.5
		c-1-0.3-2.1-0.5-3.1-0.5h-0.3c-1.5,0-3,0.1-4.1-1.3c-0.3-0.4-0.5-0.7-0.6-1c-0.4-0.8-0.6-1-1.8-0.4c-0.3,0.2-0.7,0.4-1,0.7
		c-0.7,0.5-1.4,0.9-2,1.1c-0.4,0.1-0.7,0.1-1.1,0.1c-0.8,0-1.5,0-2,1.3c-0.1,0.3-0.2,0.9-0.2,1.5c-0.1,0.7-0.2,1.7-0.4,1.9
		c-0.1-0.5-0.3-3.2-0.4-5.2c-0.3-4.3-0.3-4.5-0.5-4.5c-0.1,0-0.1,0-0.2,0.1c-0.3,0.5-0.2,1.3-0.2,2.2c0,1.2,0,2.5-0.6,3.1
		c-0.3,0.3-0.8,0.5-1.4,0.4c-0.4,0-0.7-0.1-1-0.2c-0.5-0.1-1.1-0.3-1.7-0.2l-0.2,0c-0.7,0.1-1.4,0.3-2.2,0.3
		c-1.3,0.1-2.6,0.1-3.8,0.2C3,36.9,1.5,37,0,37l0,0.4c1.5-0.1,3-0.1,4.6-0.2c1.2-0.1,2.5-0.1,3.8-0.2c0.8,0,1.5-0.2,2.2-0.3l0.2,0
		c0.6-0.1,1.1,0,1.6,0.1c0.3,0.1,0.6,0.2,1,0.2c0.7,0.1,1.2-0.1,1.6-0.5c0.7-0.8,0.7-2.1,0.7-3.4c0-0.5,0-1.1,0.1-1.5
		c0.1,0.8,0.2,2.4,0.3,3.7c0.3,5,0.4,5.5,0.6,5.5c0.1,0,0.2,0,0.3-0.1c0.3-0.3,0.4-1.1,0.5-2.2c0.1-0.6,0.1-1.2,0.2-1.4
		c0.4-1.1,1-1.1,1.7-1.1c0.4,0,0.7,0,1.2-0.1c0.6-0.2,1.4-0.7,2.1-1.1c0.4-0.2,0.7-0.5,1-0.6c1-0.6,1.1-0.4,1.4,0.2
		c0.2,0.3,0.3,0.7,0.7,1.1c1.2,1.5,2.9,1.5,4.3,1.4l0.2,0c1,0,2.1,0.3,3.1,0.5c0.9,0.2,1.8,0.5,2.7,0.5c0.7,0,1.3,0.2,2,0.3
		c1.1,0.2,2.2,0.5,3.2,0.3c1.5-0.3,2.7-0.5,4.2-0.6c0.3,0,0.8,0.1,1.2,0.3c0.9,0.3,1.9,0.6,2.4-0.3c0.4-0.8,0.5-2.2,0.6-3.3
		c0.1-0.6,0.1-1.3,0.2-1.5c0.2,0.4,0.3,2.6,0.3,3.3c0,0.4,0,0.7,0,0.9c0,0.1,0,0.2,0,0.4c0.1,3.5,0.3,4.4,0.5,4.6
		c0.1,0.1,0.1,0.1,0.2,0c0.2-0.1,0.3-0.5,0.7-2.3c0.2-0.8,0.4-1.8,0.5-2c0.3-0.6,1.1-0.6,1.9-0.6c0.7,0,1.4-0.1,1.9-0.4
		c0.3-0.2,0.6-0.5,0.9-0.8c0.6-0.7,1.2-1.3,1.9-1c0.3,0.2,0.5,0.6,0.8,1.2c0.4,0.9,0.9,2.1,2.3,2c3-0.3,5.7-0.1,8,0
		c0.6,0,1.2,0,1.8,0c0.5,0,1,0,1.5,0c1,0,2-0.1,2.9-0.2c0.6-0.1,1.1-0.1,1.7-0.2c0.6,0,1-0.1,1.4-0.2c0.5-0.1,0.9-0.2,1.5-0.2
		c0.2,0,0.5,0.1,0.8,0.1c0.8,0.2,1.6,0.4,2.1-0.1c0.6-0.6,0.7-2.3,0.7-3.6c0-0.6,0-1.3,0.1-1.6c0.2,0.5,0.2,2.4,0.3,4
		c0.1,3.5,0.3,5.6,0.7,5.9c0.1,0,0.1,0.1,0.2,0.1c0,0,0.1,0,0.1,0c0.3-0.1,0.3-0.7,0.3-1.6c0-1.5,0.1-3.7,1.5-4.2
		c0.3-0.1,0.6-0.2,0.9-0.2c0.7-0.2,1.2-0.3,2-0.8c0.2-0.2,0.6-0.5,0.9-1c0.5-0.6,1.1-1.3,1.4-1.3c0.8-0.2,1.1,0.6,1.5,1.5
		c0.4,0.8,0.8,1.7,1.6,2c0.8,0.3,3.4,0.1,4.7-0.7v-0.4C98.8,36.8,96.2,37.1,95.4,36.8z"/>
</g>
<g>
	<path class="st2" d="M152.6,27.9c-1.6-0.4-3.2-0.5-4.8-0.2l0,0c-0.1,0-0.4,0.1-0.5,0.1l-0.1-0.3l0,0c-0.1-0.2-0.1-0.3-0.3-0.3
		c-2.9,0.3-2.8,0.3-2.8,0.3c-0.9,0.2-1.4,1.1-1.2,1.9c0,0.2,0.2,0.8,0.2,1c0.3,0.8,1.1,1.2,1.9,1c3.1-1.2,2.9-0.9,2.7-1.6
		c1.4-0.2,2.9-0.2,4.3,0.1c4.6,1.2,6.5,5.2,8.6,25.1c-0.1,0-0.1,0-0.2,0v0c-0.3,0-0.2,0,0.3,5.4c-0.8,0.4-1.1,1.9-1,2.9
		c0.3,2.7-0.6,4.3-0.6,4.3c-1.7,4-7.3,7.3-11.9,5.2c-4.1-1.9-4.1-4-5.4-5.8c-0.5-0.7-1.4-1.3-1.9-1.4c-1.8-4-1.6-4-1.9-3.8l0,0
		l-0.1,0c-0.1-0.2-0.2-0.4-0.2-0.6l0,0c-8.4-19.1-9.5-24.9-2.5-28.3c0.3,0.7,0,0.6,3.2-0.5c0.7-0.3,1.1-1.1,0.8-1.9
		c0-0.2-0.4-1-0.6-1.2c-0.5-0.6-1.3-0.9-2-0.5c-2.8,1.8-2.7,1.4-2.3,2.2c-0.1,0.1-0.4,0.2-0.6,0.3l0,0c-1,0.5-1.9,1.2-2.7,1.9
		c-4.1,4.1-3.9,9.1,4.7,28.7l0,0l0.3,0.7l-0.1,0.1c-0.3,0.3,0.1,0.8,1.7,4.5c0,0,0,0,0,0c0,0,0,0,0,0c0.2,0.2,0.4,0.4,0.7,0.5
		c0.2,0.5,0.9,1.9,1.1,2.3l-0.2,0.1v0l-0.2,0.1c2.7,7.2,8.9,14.8,16.8,13.7c1.1,10.4-11.1,21.2-23.5,18.4c2.1-1.1,3.9-2.6,5.3-4.5
		c2.3-3,4.4-8.6,2.1-14.9c-0.6-1.6-1.4-3.2-2.5-4.6c-2.3-2.9-5.5-4.3-9.3-4.7l0,0.3l0,0l0-0.3c-11.9-0.4-18,14.8-6.9,25.7
		c-6.5-4-9.6-13.3-8.5-22.1c7-0.1,11.2-8.4,6.1-13.7c0,0,0,0.1,0,0.1c-2.4-2.8-6.5-4-10-2.2c-6.2,3.1-6,12.4,0.9,15.3
		c0,0.1,0,0.2,0,0.3c0,0,0,0,0,0c-1.7,14.6,6.8,27.9,17.9,26.7c16.1,7.1,33.1-7,31.2-20.7c6.6-3,6.9-12.5,5.3-19.6l-0.2,0.1l0,0
		l-0.2,0c0,0-0.1-1-0.1-1l0,0c-0.1-0.8-0.1-1.5-0.2-2.3c0.1-0.2,0.2-0.4,0.2-0.6c0,0,0,0,0,0c0,0,0,0,0,0c-0.4-4.1-0.2-4.7-0.7-4.8
		l-0.1,0l-0.1-0.6h0C160.6,35,158.7,29.4,152.6,27.9z M159.5,68.8c1.8-2.9,0.6-5.9,1.4-7.6c0,0.2,0,0.3,0,0.3s0,0,0.1,0
		c0,0,0,0-0.1,0c0.1,0,0.3,0,0.4,0c0.1,0.8,0.2,1.7,0.2,2.6l-0.4,0.1c1.4,6.2,1.4,15.4-5.3,16.7c-6.6,1.3-11.9-5.9-14-11.7l-0.2,0.1
		l0,0l-0.2,0.1c-0.3-0.6-0.5-1.1-0.8-1.7c0.1,0,0.1-0.1,0.2-0.1c0,0,0,0-0.1,0c0,0,0.1,0,0.1,0s-0.1-0.3-0.4-0.8
		c0.6,0.3,1.2,0.7,1.9,2.3C145.3,75.1,155,76,159.5,68.8z M123.9,77.4c1.3-0.6,2.7-0.8,4-0.8l0,0c2.9,0.2,5.3,1.3,7.2,3.6
		c6.1,7.5,1.6,19.2-7.2,20.5c-0.5-0.3-1.3-0.7-2.6-1.6l0,0C116.7,92.9,115.6,81.2,123.9,77.4z"/>
	<g>
		<g>
			<path class="st3" d="M159.5,61c0,0-0.5,0.5-0.7,1.2c0,0.1,0,0.1,0,0.2c0,0.2-0.1,0.6-0.1,1c0,0.2,0,0.4,0,0.6
				c0,0.8-0.1,1.6-0.1,2c0,0.6,0,1.8-1,3.4c-1,1.6-3.6,4.3-6.4,4.7c-2.8,0.5-4.8,0.3-7.2-0.9c-2.3-1.3-3.2-3.4-3.4-3.8l0,0
				c-0.1-0.2-0.3-0.6-0.5-0.9c-0.2-0.3-0.5-0.7-0.8-0.9l0,0c-0.1,0-0.1-0.1-0.2-0.1c-0.9-0.5-1-0.6-1-0.6s-0.3-0.3-0.3-0.6
				c0,0,0,0,0,0c0-0.2,0.2-0.1,0.3-0.1c0.1,0,0.1,0,0.1,0s0.3,0.1,0.6,0.3c0.2,0.1,0.5,0.3,0.7,0.6c0.2,0.2,0.3,0.3,0.5,0.5
				c0.1,0.1,0.2,0.3,0.3,0.5c0.6,1.1,1.4,2.9,2.6,3.8c0,0,0.9,0.8,2.5,1.5c1.6,0.8,4.2,0.9,6.1,0.1c1.9-0.8,4.6-2.6,5.8-5.3
				c0,0,0.9-1.6,0.6-4.3c0,0,0-0.6,0.1-1.3c0-0.2,0.1-0.5,0.2-0.7c0.1-0.2,0.2-0.4,0.3-0.5c0.1-0.1,0.2-0.3,0.4-0.4
				c0,0,0.1-0.1,0.3-0.1C159.3,60.8,159.4,61,159.5,61z"/>
			<g>
				<path class="st4" d="M159.5,61c0,0-0.5,0.5-0.7,1.2c-0.1,0.3-0.1,1-0.2,1.8c-0.2-0.4-0.3-0.8-0.5-1.2c0-0.1-0.1-0.2-0.1-0.3
					c0.1-0.6,0.4-1.2,0.9-1.6c0,0,0.1-0.1,0.3-0.1C159.3,60.8,159.4,61,159.5,61z"/>
				<path class="st5" d="M159.5,61c0,0-0.5,0.5-0.7,1.2c-0.1,0.2-0.1,0.7-0.1,1.2c-0.1-0.4-0.2-0.7-0.2-1.1c0-0.2-0.1-0.4-0.2-0.5
					c0.2-0.4,0.4-0.7,0.7-0.9c0,0,0.1-0.1,0.3-0.1C159.3,60.8,159.4,61,159.5,61z"/>
				<path class="st6" d="M159.5,61c0,0-0.5,0.5-0.7,1.2c0,0.1,0,0.1,0,0.2c0-0.1,0-0.1,0-0.2c0-0.3-0.1-0.6-0.2-0.9
					c0.1-0.1,0.2-0.3,0.4-0.4c0,0,0.1-0.1,0.3-0.1C159.3,60.8,159.4,61,159.5,61z"/>
			</g>
			<g>
				<path class="st4" d="M140.6,69.3L140.6,69.3c-0.1-0.2-0.3-0.6-0.5-1c-0.2-0.3-0.5-0.7-0.8-0.9l0,0c-0.1,0-0.1-0.1-0.2-0.1
					c-0.9-0.5-1-0.6-1-0.6s-0.3-0.3-0.3-0.6c0,0,0,0,0,0c0-0.2,0.2-0.1,0.3-0.1c0.1,0,0.1,0,0.1,0s0.3,0.1,0.6,0.3
					c0.2,0.1,0.5,0.3,0.7,0.6c0.2,0.2,0.3,0.3,0.5,0.5c0.1,0.1,0.2,0.3,0.3,0.5C140.5,68.4,140.6,68.9,140.6,69.3z"/>
				<path class="st7" d="M140,67.9c0,0.2,0.1,0.3,0.1,0.5c-0.2-0.3-0.5-0.7-0.8-0.9l0,0c-0.1,0-0.1-0.1-0.2-0.1
					c-0.9-0.5-1-0.6-1-0.6s-0.3-0.3-0.3-0.6c0,0,0,0,0,0c0.1,0,0.2-0.1,0.3-0.1c0.1,0,0.1,0,0.1,0s0.3,0.1,0.6,0.3
					c0.2,0.1,0.5,0.3,0.7,0.6C139.7,67.2,139.9,67.6,140,67.9z"/>
				<path class="st6" d="M139.2,67.5c-0.1,0-0.1-0.1-0.2-0.1c-0.9-0.5-1-0.6-1-0.6s-0.3-0.4-0.3-0.6c0-0.2,0.5-0.1,0.5-0.1
					s0.3,0.1,0.6,0.3C139,66.7,139.2,67.1,139.2,67.5z"/>
			</g>
			<g>
				<path class="st8" d="M153.6,73.3c-0.8,0.4-1.6,0.8-2.4,0.9c-2.6,0.4-4.7,0.4-7.2-1c-1.5-0.8-2.6-2.1-3.4-3.7c0,0,0-0.1-0.1-0.1
					l0,0c-0.2-0.4-0.7-1.4-1.5-1.9c-0.8-0.5-1-0.6-1-0.6l-0.1-0.2c0,0,0.3,0.1,1.1,0.6c0.8,0.5,1.3,1.5,1.5,1.9l0,0
					c0,0,0,0.1,0.1,0.1c0.7,1.6,1.9,2.9,3.3,3.7c2.5,1.4,4.5,1.4,7.1,0.9c2.8-0.5,5.3-3.1,6.3-4.7c0.9-1.4,1-2.5,1-3.1
					c0-0.1,0-0.1,0-0.2c0-0.2,0-0.5,0-0.9c0-1,0.1-2.3,0.2-2.8c0.2-0.7,0.7-1.2,0.8-1.2l0.1,0.1c0,0-0.5,0.5-0.7,1.2
					c-0.1,0.5-0.2,1.8-0.2,2.8c0,0.4,0,0.8,0,1c0,0.1,0,0.1,0,0.2c0,0.7-0.1,1.7-1,3.2C156.9,70.6,155.4,72.2,153.6,73.3z"/>
			</g>
			<g>
				<g>
					<g>
						<path class="st9" d="M145.3,30.4l-0.6-2c0.3-0.1,0.5-0.1,0.8-0.2c0.2,0,0.5-0.1,0.7-0.1c0.5-0.1,1-0.1,1.5-0.1
							c1,0,2,0.1,3,0.4c1,0.3,2,0.7,2.8,1.3c0.9,0.6,1.6,1.3,2.2,2.2c0.3,0.4,0.6,0.9,0.8,1.3c0.2,0.5,0.4,0.9,0.6,1.4l0.5,1.4
							c0.1,0.5,0.3,0.9,0.4,1.4l0.2,0.7l0.2,0.7l0.3,1.4c0.2,0.9,0.4,1.8,0.5,2.7c1.3,7.3,2,14.7,2.6,22l-2.1,0.2
							c-0.3-3.7-0.7-7.3-1.1-11c-0.4-3.6-0.9-7.3-1.6-10.9c-0.2-0.9-0.3-1.8-0.5-2.7l-0.3-1.3l-0.2-0.7l-0.2-0.6
							c-0.5-1.7-1-3.4-1.9-4.8c-0.5-0.7-1-1.2-1.7-1.7c-0.7-0.4-1.4-0.8-2.2-1c-0.8-0.2-1.6-0.3-2.5-0.3c-0.4,0-0.8,0-1.3,0.1
							c-0.2,0-0.4,0.1-0.6,0.1C145.7,30.4,145.4,30.4,145.3,30.4z"/>
					</g>
					<g>
						<path class="st10" d="M145.2,30.3l-0.5-1.7c0.3-0.1,0.5-0.1,0.8-0.2c0.2,0,0.5-0.1,0.7-0.1c0.5-0.1,1-0.1,1.5-0.1
							c1,0,2,0.1,3,0.4c1,0.3,1.9,0.7,2.8,1.2c0.8,0.6,1.6,1.3,2.2,2.2c0.3,0.4,0.6,0.9,0.8,1.3c0.2,0.4,0.4,0.9,0.6,1.3l0.5,1.4
							c0.1,0.5,0.3,0.9,0.4,1.4L158,38l0.2,0.7l0.3,1.4c0.2,0.9,0.4,1.8,0.5,2.7c1.3,7.3,2,14.6,2.6,22l-1.7,0.2
							c-0.6-7.3-1.4-14.6-2.6-21.8c-0.2-0.9-0.3-1.8-0.5-2.7l-0.3-1.3l-0.2-0.7l-0.2-0.7c-0.5-1.7-1-3.5-1.9-4.8
							c-0.5-0.7-1.1-1.3-1.7-1.7c-0.7-0.5-1.4-0.8-2.2-1c-0.8-0.2-1.7-0.3-2.5-0.3c-0.4,0-0.9,0-1.3,0.1c-0.2,0-0.4,0.1-0.6,0.1
							C145.6,30.2,145.4,30.2,145.2,30.3z"/>
					</g>
					<g>
						<path class="st11" d="M145.2,30l-0.3-1.2c0.5-0.1,1-0.2,1.4-0.3c0.5-0.1,1-0.1,1.4-0.1c1,0,1.9,0.1,2.9,0.3
							c0.9,0.2,1.9,0.7,2.7,1.2c0.8,0.6,1.5,1.3,2.1,2.1c0.3,0.4,0.5,0.8,0.7,1.3c0.2,0.4,0.4,0.9,0.6,1.3l0.5,1.3
							c0.1,0.4,0.3,0.9,0.4,1.3l0.2,0.7l0.2,0.7l0.3,1.4c0.2,0.9,0.4,1.8,0.5,2.7c1.3,7.3,2,14.6,2.6,22l-1.2,0.1
							c-0.6-7.3-1.4-14.6-2.6-21.8c-0.2-0.9-0.4-1.8-0.5-2.7l-0.3-1.3l-0.2-0.7l-0.2-0.7c-0.5-1.7-1-3.5-2-4.9
							c-0.5-0.7-1.1-1.3-1.8-1.8c-0.7-0.5-1.5-0.8-2.3-1c-0.8-0.2-1.7-0.3-2.6-0.3c-0.4,0-0.9,0-1.3,0.1
							C146,29.9,145.5,29.9,145.2,30z"/>
					</g>
					<g>
						<path class="st12" d="M145.1,29.7l-0.2-0.6c0.9-0.2,1.9-0.3,2.8-0.3c0.9,0,1.9,0.1,2.8,0.3c0.9,0.2,1.8,0.6,2.6,1.2
							c0.8,0.5,1.5,1.2,2,2c0.3,0.4,0.5,0.8,0.7,1.2c0.2,0.4,0.4,0.9,0.6,1.3l0.5,1.3c0.1,0.4,0.3,0.9,0.4,1.3l0.2,0.7l0.2,0.7
							l0.3,1.4c0.2,0.9,0.4,1.8,0.5,2.7c1.3,7.3,2,14.6,2.6,21.9l-0.6,0.1c-0.6-7.3-1.4-14.6-2.6-21.9c-0.2-0.9-0.4-1.8-0.5-2.7
							L157,39l-0.2-0.7l-0.2-0.7c-0.5-1.8-1-3.5-2-5c-0.5-0.7-1.1-1.4-1.9-1.9c-0.7-0.5-1.5-0.9-2.4-1.1c-0.9-0.2-1.8-0.3-2.6-0.3
							C146.8,29.4,145.9,29.5,145.1,29.7z"/>
					</g>
				</g>
				<g>
					<g>
						<path class="st9" d="M134.5,30.8l0.5,2c-0.1,0-0.4,0.1-0.6,0.2c-0.2,0.1-0.4,0.1-0.6,0.2c-0.4,0.2-0.8,0.4-1.1,0.6
							c-0.7,0.4-1.4,0.9-2,1.5c-0.6,0.6-1.1,1.2-1.4,1.9c-0.3,0.7-0.6,1.5-0.6,2.3c-0.1,1.6,0.3,3.3,0.7,5.1l0.2,0.7l0.2,0.6
							l0.4,1.3c0.3,0.9,0.6,1.7,0.9,2.6c1.2,3.4,2.6,6.8,4.1,10.2c1.4,3.4,3,6.7,4.5,10l-1.9,0.9c-3.1-6.7-6.1-13.4-8.6-20.4
							c-0.3-0.9-0.6-1.8-0.9-2.6l-0.4-1.3l-0.2-0.7l-0.2-0.7c-0.1-0.5-0.2-0.9-0.3-1.4l-0.3-1.4c-0.1-0.5-0.1-1-0.2-1.5
							c0-0.5,0-1,0-1.5c0.1-1,0.4-2.1,0.8-3c0.5-0.9,1.1-1.8,1.8-2.5c0.7-0.7,1.6-1.3,2.4-1.8c0.4-0.2,0.9-0.5,1.3-0.7
							c0.2-0.1,0.5-0.2,0.7-0.3C134,30.9,134.2,30.9,134.5,30.8z"/>
					</g>
					<g>
						<path class="st10" d="M134.5,31l0.4,1.7c-0.2,0-0.4,0.1-0.6,0.2c-0.2,0.1-0.4,0.1-0.6,0.2c-0.4,0.2-0.8,0.4-1.1,0.6
							c-0.7,0.4-1.4,0.9-2,1.5c-0.6,0.6-1.1,1.3-1.4,2c-0.3,0.7-0.6,1.5-0.6,2.3c-0.1,1.6,0.3,3.4,0.7,5.1l0.2,0.7l0.2,0.7l0.4,1.3
							c0.3,0.9,0.6,1.7,0.9,2.6c2.5,6.9,5.5,13.6,8.6,20.2l-1.6,0.7c-3.1-6.7-6.1-13.4-8.6-20.4c-0.3-0.9-0.6-1.8-0.9-2.6l-0.4-1.3
							l-0.2-0.7l-0.2-0.7c-0.1-0.5-0.2-0.9-0.3-1.4l-0.3-1.4c-0.1-0.5-0.1-1-0.2-1.5c0-0.5,0-1,0-1.5c0.1-1,0.4-2,0.8-2.9
							c0.5-0.9,1.1-1.8,1.8-2.5c0.7-0.7,1.5-1.3,2.4-1.8c0.4-0.2,0.9-0.5,1.3-0.7c0.2-0.1,0.5-0.2,0.7-0.3
							C134,31.1,134.3,31,134.5,31z"/>
					</g>
					<g>
						<path class="st11" d="M134.6,31.2l0.3,1.2c-0.4,0.1-0.8,0.3-1.2,0.4c-0.4,0.2-0.8,0.4-1.2,0.6c-0.8,0.4-1.5,0.9-2.1,1.5
							c-0.6,0.6-1.1,1.3-1.5,2.1c-0.4,0.8-0.6,1.6-0.7,2.4c-0.1,1.7,0.3,3.5,0.7,5.2l0.2,0.7l0.2,0.7l0.4,1.3
							c0.3,0.9,0.6,1.7,0.9,2.6c2.5,6.9,5.5,13.6,8.6,20.3l-1.1,0.5c-3.1-6.7-6.1-13.4-8.6-20.4c-0.3-0.9-0.6-1.8-0.9-2.6l-0.4-1.3
							l-0.2-0.7l-0.2-0.7c-0.1-0.5-0.2-0.9-0.3-1.4l-0.3-1.4c-0.1-0.5-0.1-1-0.2-1.4c0-0.5,0-1,0-1.5c0.1-1,0.4-2,0.8-2.9
							c0.4-0.9,1-1.7,1.7-2.4c0.7-0.7,1.5-1.3,2.3-1.7c0.4-0.2,0.9-0.5,1.3-0.6C133.7,31.5,134.1,31.3,134.6,31.2z"/>
					</g>
					<g>
						<path class="st12" d="M134.7,31.5l0.2,0.6c-0.8,0.2-1.7,0.6-2.5,1c-0.8,0.4-1.5,1-2.1,1.6c-0.6,0.6-1.2,1.3-1.6,2.1
							c-0.4,0.8-0.6,1.7-0.7,2.5c-0.1,1.8,0.3,3.6,0.7,5.3l0.2,0.7l0.2,0.7l0.4,1.3c0.3,0.9,0.6,1.7,0.9,2.6
							c2.5,6.9,5.5,13.6,8.6,20.3l-0.6,0.3c-3.1-6.7-6.1-13.4-8.6-20.3c-0.3-0.9-0.6-1.7-0.9-2.6l-0.4-1.3l-0.2-0.7l-0.2-0.7
							c-0.1-0.5-0.2-0.9-0.3-1.3l-0.3-1.4c-0.1-0.5-0.1-0.9-0.2-1.4c0-0.5,0-0.9,0-1.4c0.1-1,0.3-1.9,0.8-2.8c0.4-0.9,1-1.6,1.7-2.3
							c0.7-0.7,1.5-1.2,2.3-1.7C132.9,32.1,133.7,31.8,134.7,31.5z"/>
					</g>
				</g>
				<g>
					<g>
						<path class="st13" d="M158.6,45.5c-0.2,0-0.6-1.3-1.2-3.4c-0.3-1.1-0.6-2.3-1-3.7c-0.1-0.3-0.2-0.7-0.3-1
							c-0.1-0.3-0.2-0.7-0.4-1.1c-0.3-0.7-0.6-1.5-0.9-2.2c-0.7-1.4-1.6-2.6-2.7-3.4c-1.1-0.8-2.3-1-3.3-1.2c-1-0.1-1.9-0.1-2.5,0
							c-0.6,0-1,0-1-0.1c0-0.1,0.3-0.3,0.9-0.5c0.2-0.1,0.3-0.1,0.5-0.2c0.2-0.1,0.4-0.1,0.6-0.2c0.2,0,0.5-0.1,0.7-0.1
							c0.3,0,0.5-0.1,0.8-0.1c0.6,0,1.3,0,2,0.2c0.7,0.2,1.4,0.4,2.1,0.9c0.7,0.4,1.3,1,1.9,1.7c0.6,0.7,1,1.4,1.4,2.2
							c0.4,0.8,0.7,1.6,1,2.4c0.1,0.4,0.2,0.8,0.4,1.2c0.1,0.4,0.2,0.8,0.3,1.1c0.4,1.5,0.6,2.8,0.7,3.9
							C158.9,44.1,158.8,45.5,158.6,45.5z"/>
						<path class="st14" d="M157.7,40.5c-0.1,0-0.4-0.7-0.8-1.9c-0.4-1.2-1-2.9-1.8-4.6c-0.4-0.9-0.9-1.6-1.4-2.2
							c-0.5-0.6-1.1-1.1-1.6-1.5c-0.5-0.3-1-0.6-1.3-0.7c-0.3-0.2-0.5-0.3-0.5-0.3c0-0.1,0.2-0.1,0.6,0c0.4,0,0.9,0.2,1.5,0.5
							c0.6,0.3,1.3,0.8,1.9,1.5c0.6,0.7,1.2,1.5,1.6,2.4c0.9,1.8,1.4,3.6,1.6,4.9C157.8,39.7,157.8,40.5,157.7,40.5z"/>
						<path class="st15" d="M156.3,35.6c-0.1,0-0.4-0.8-1-1.8c-0.5-1-1-1.8-1-1.8c0.1-0.1,0.7,0.7,1.2,1.7
							C156.1,34.7,156.4,35.6,156.3,35.6z"/>
					</g>
				</g>
				<g>
					<g>
						<path class="st13" d="M131,52.3c-0.2,0.1-0.9-1.1-1.8-3.2c-0.4-1-0.9-2.3-1.3-3.7c-0.1-0.4-0.2-0.7-0.3-1.1
							c-0.1-0.4-0.2-0.8-0.2-1.2c-0.2-0.8-0.3-1.7-0.3-2.6c0-0.9,0-1.8,0.2-2.6c0.2-0.9,0.4-1.7,0.8-2.4c0.4-0.7,0.9-1.3,1.4-1.8
							c0.5-0.5,1.1-0.8,1.6-1.1c0.3-0.1,0.5-0.3,0.8-0.4c0.2-0.1,0.5-0.2,0.7-0.3c0.2-0.1,0.4-0.1,0.6-0.2c0.2,0,0.4-0.1,0.5-0.1
							c0.6-0.1,1-0.1,1,0c0,0.1-0.3,0.3-0.8,0.6c-0.5,0.3-1.3,0.7-2.2,1.3c-0.8,0.6-1.7,1.4-2.3,2.6c-0.6,1.2-0.8,2.7-0.7,4.3
							c0,0.8,0.1,1.6,0.2,2.3c0.1,0.4,0.1,0.8,0.2,1.1c0.1,0.4,0.1,0.7,0.2,1.1c0.3,1.4,0.6,2.7,0.9,3.7
							C130.9,50.9,131.2,52.2,131,52.3z"/>
						<path class="st14" d="M129.3,47.5c-0.1,0-0.5-0.7-0.9-1.9c-0.4-1.2-0.9-3-1-5.1c0-1,0-2,0.2-2.9c0.2-0.9,0.6-1.6,0.9-2.2
							c0.4-0.6,0.8-1,1.1-1.2c0.3-0.2,0.5-0.3,0.5-0.3c0,0-0.1,0.2-0.3,0.5c-0.2,0.3-0.5,0.7-0.8,1.3c-0.3,0.6-0.5,1.2-0.7,2
							c-0.1,0.8-0.2,1.7-0.2,2.7c0.1,1.9,0.4,3.7,0.7,4.9C129.3,46.7,129.4,47.5,129.3,47.5z"/>
						<path class="st15" d="M128.1,42.6c-0.1,0-0.3-0.9-0.3-2c-0.1-1.2,0.1-2.1,0.2-2.1c0.1,0,0,0.9,0.1,2.1
							C128.1,41.6,128.2,42.5,128.1,42.6z"/>
					</g>
				</g>
			</g>
			<polygon class="st2" points="159.6,63.8 159.8,65.9 161.9,65.5 161.8,64.7 161.7,63.1 			"/>
			<polygon class="st2" points="139.3,69.2 137.2,69.6 138.5,72.4 140.4,71.6 			"/>
			<g>
				<g>
					<path class="st16" d="M156.4,81.6c0.6,2,0.7,4.1,0.5,6.1c-0.2,2-0.8,3.9-1.7,5.7c-0.9,1.8-2,3.4-3.3,4.9
						c-1.3,1.5-2.8,2.7-4.4,3.9l-1.2,0.8l-0.3,0.2l-0.3,0.2l-0.6,0.3c-0.4,0.2-0.9,0.5-1.3,0.6c-0.4,0.2-0.9,0.4-1.4,0.6
						c-1.8,0.7-3.8,1.2-5.7,1.3c-2,0.2-3.9,0.1-5.9-0.3c-0.8-0.1-1.5-0.3-2.3-0.5c-0.3-0.1-0.6-0.2-0.9-0.3
						c-0.7-0.2-1.4-0.5-2.1-0.8c-0.1-0.1-0.2-0.1-0.3-0.2l0.1-0.1l0-0.1l0.1-0.2l0-0.1l0.1-0.1l0,0l0-0.1l0.1-0.1l0,0l0-0.1l0.2-0.3
						l0.1-0.2l0,0l0-0.1l0-0.1l0.1-0.1l0-0.1l0.1-0.1l0-0.1l0.1-0.2l0-0.1l0.1-0.1l0-0.1c0.8,0.4,1.5,0.7,2.3,0.9
						c0.8,0.3,1.7,0.5,2.5,0.7c0.3,0.1,0.7,0.1,1,0.2c0.3,0,0.6,0.1,0.8,0.1c1.1,0.1,2.2,0.1,3.2,0c1.7-0.2,3.4-0.6,5-1.2
						c0.4-0.1,0.8-0.3,1.2-0.5c0.4-0.2,0.8-0.4,1.2-0.6l0.6-0.3l0.3-0.2l0.3-0.2l1.1-0.7c1.4-1,2.7-2.1,3.9-3.4
						c1.1-1.3,2.1-2.7,2.8-4.2c0.7-1.5,1.2-3.2,1.4-4.8c0.2-1.6,0.1-3.3-0.4-4.9l0.2-0.1l0.3-0.1l0.2-0.1l0.2-0.1l0.7-0.2l0.2-0.1
						l0.2-0.1l0.3-0.1L156.4,81.6z"/>
				</g>
				<g>
					<path class="st17" d="M156.2,81.6c0.6,1.9,0.7,4,0.5,6c-0.2,2-0.8,3.9-1.7,5.6c-0.8,1.8-1.9,3.4-3.2,4.9
						c-1.3,1.5-2.8,2.7-4.4,3.8l-1.2,0.8l-0.3,0.2l-0.3,0.2l-0.6,0.3c-0.4,0.2-0.8,0.5-1.3,0.6c-0.4,0.2-0.9,0.4-1.3,0.6
						c-1.8,0.7-3.7,1.1-5.7,1.3c-1.9,0.2-3.9,0.1-5.8-0.3c-0.6-0.1-1.3-0.3-1.9-0.4c-1.3-0.3-2.5-0.8-3.7-1.4l0.2-0.3l0.2-0.4
						l0.2-0.3l0.1-0.2l0,0l0.1-0.1l0.1-0.2l0.1-0.2l0.2-0.3c0.6,0.3,1.2,0.5,1.8,0.7c1,0.4,2.1,0.7,3.1,0.8c0.5,0.1,1,0.2,1.5,0.2
						c1.2,0.1,2.4,0.1,3.6,0c1.7-0.2,3.4-0.6,5-1.2c0.4-0.1,0.8-0.3,1.2-0.5c0.4-0.2,0.8-0.4,1.2-0.6l0.6-0.3l0.3-0.2l0.3-0.2
						l1.1-0.7c1.4-1,2.8-2.1,3.9-3.4c1.1-1.3,2.1-2.8,2.8-4.3c0.7-1.5,1.3-3.2,1.5-4.9c0.2-1.7,0.1-3.4-0.4-5l0.3-0.1l0.2-0.1
						l0.2-0.1l0.7-0.2l0.2-0.1l0.2-0.1L156.2,81.6z"/>
				</g>
				<g>
					<path class="st18" d="M155.8,81.8c0.6,1.9,0.7,3.9,0.5,5.8c-0.2,1.9-0.8,3.8-1.6,5.5c-0.8,1.7-1.9,3.3-3.2,4.8
						c-1.3,1.4-2.7,2.7-4.3,3.8l-1.2,0.8l-0.3,0.2l-0.3,0.2l-0.6,0.3c-0.4,0.2-0.8,0.5-1.3,0.6c-0.4,0.2-0.9,0.4-1.3,0.5
						c-1.8,0.7-3.7,1.1-5.6,1.3c-1.9,0.2-3.8,0.1-5.7-0.2c-0.4-0.1-0.9-0.2-1.3-0.3c-1.4-0.4-2.8-0.9-4.1-1.5l0.1-0.2l0.1-0.2
						l0.2-0.3l0.1-0.2l0,0l0.1-0.1l0.1-0.2l0.1-0.2c0.4,0.2,0.7,0.3,1.1,0.5c1.3,0.5,2.6,0.9,3.9,1.1c0.4,0.1,0.7,0.1,1.1,0.2
						c1.4,0.2,2.8,0.2,4.2,0.1c1.8-0.2,3.5-0.6,5.1-1.2c0.4-0.1,0.8-0.3,1.2-0.5c0.4-0.2,0.8-0.4,1.2-0.6l0.6-0.3l0.3-0.2l0.3-0.2
						l1.1-0.7c1.5-1,2.8-2.2,4-3.5c1.2-1.3,2.1-2.8,2.9-4.4c0.8-1.6,1.3-3.3,1.5-5c0.2-1.7,0.1-3.5-0.4-5.1l0.2-0.1l0.2-0.1l0.7-0.2
						l0.2-0.1L155.8,81.8z"/>
				</g>
				<g>
					<path class="st19" d="M155.6,81.8c0.6,1.9,0.7,3.8,0.5,5.7c-0.2,1.9-0.8,3.7-1.6,5.4c-0.8,1.7-1.9,3.3-3.1,4.7
						c-1.3,1.4-2.7,2.6-4.3,3.7l-1.2,0.8l-0.3,0.2l-0.3,0.2l-0.6,0.3c-0.4,0.2-0.8,0.5-1.3,0.6c-0.4,0.2-0.9,0.4-1.3,0.5
						c-1.8,0.7-3.6,1.1-5.5,1.3c-1.9,0.2-3.8,0.1-5.7-0.2c-0.3-0.1-0.6-0.1-0.9-0.2c-1.5-0.4-3-0.9-4.4-1.5l0.1-0.2l0.2-0.3l0.1-0.2
						l0.1-0.1l0.1-0.2c0.2,0.1,0.4,0.2,0.7,0.3c1.4,0.6,2.9,1.1,4.4,1.3c0.3,0,0.5,0.1,0.8,0.1c1.5,0.2,3,0.2,4.6,0.1
						c1.8-0.2,3.5-0.6,5.2-1.2c0.4-0.1,0.8-0.3,1.2-0.5c0.4-0.2,0.8-0.4,1.2-0.6l0.6-0.3l0.3-0.2l0.3-0.2l1.1-0.7
						c1.5-1,2.8-2.2,4-3.5c1.2-1.3,2.2-2.8,2.9-4.4c0.8-1.6,1.3-3.3,1.5-5.1c0.2-1.8,0.1-3.5-0.4-5.2l0.2-0.1l0.7-0.2L155.6,81.8z"
						/>
				</g>
				<g>
					<path class="st20" d="M155.4,81.9c0.6,1.8,0.7,3.7,0.4,5.6c-0.2,1.9-0.8,3.7-1.6,5.4c-0.8,1.7-1.9,3.3-3.1,4.7
						c-1.2,1.4-2.7,2.6-4.2,3.7l-1.2,0.7l-0.3,0.2l-0.3,0.2l-0.6,0.3c-0.4,0.2-0.8,0.4-1.3,0.6c-0.4,0.2-0.9,0.4-1.3,0.5
						c-1.8,0.7-3.6,1.1-5.4,1.3c-1.9,0.2-3.8,0.1-5.6-0.2c-0.2,0-0.4-0.1-0.6-0.1c-1.6-0.3-3.2-0.9-4.7-1.6l0.2-0.3l0.1-0.2l0,0
						l0.1-0.1c0.1,0,0.2,0.1,0.3,0.1c1.5,0.7,3.2,1.2,4.8,1.5c0.2,0,0.3,0.1,0.5,0.1c1.6,0.3,3.3,0.3,4.9,0.2
						c1.8-0.2,3.6-0.6,5.3-1.2c0.4-0.1,0.8-0.3,1.3-0.5c0.4-0.2,0.8-0.4,1.2-0.6l0.6-0.3l0.3-0.2l0.3-0.2l1.1-0.7
						c1.5-1,2.9-2.2,4.1-3.6c1.2-1.4,2.2-2.9,3-4.5c0.8-1.6,1.3-3.4,1.5-5.1c0.2-1.8,0.1-3.6-0.4-5.3L155.4,81.9z"/>
				</g>
			</g>
			<g>
				<g>
					<path class="st21" d="M126.1,74.3l0,0.3l0,0.4l0,0.2l0,0.2l0,0.1l0,0.2l0,0.6l0,0.2l0,0.4l0,0.3c-1.4,0-2.7,0.2-4,0.8
						c-1.3,0.6-2.4,1.4-3.3,2.4c-0.5,0.5-0.8,1.1-1.2,1.7c-0.3,0.6-0.6,1.2-0.8,1.9c-0.1,0.3-0.2,0.7-0.2,1l-0.1,0.5
						c0,0.2,0,0.4,0,0.5l0,0.5c0,0.2,0,0.4,0,0.5l0,1.1c0.1,1.4,0.5,2.8,1.1,4.2c0.3,0.7,0.6,1.3,1,2l0.6,0.9
						c0.2,0.3,0.4,0.6,0.7,0.9c0.9,1.1,2,2.2,3.2,3.1c0.2,0.1,0.3,0.3,0.5,0.4l0,0c0.5,0.4,1.1,0.7,1.6,1.1c0.4,0.3,0.9,0.5,1.3,0.7
						c0.1,0.1,0.2,0.1,0.3,0.2l-0.1,0.1l0,0.1l-0.1,0.2l0,0.1l-0.1,0.1l0,0.1l0,0.1l0,0.1l-0.3,0.6l0,0.1l0,0.1l0,0.1l-0.1,0.1
						l0,0.1l-0.1,0.2l0,0.1l-0.1,0.1l0,0.1c-1.5-0.7-3-1.6-4.3-2.7c-0.8-0.6-1.6-1.3-2.3-2.1c-0.1-0.1-0.2-0.2-0.3-0.3
						c-0.4-0.4-0.7-0.8-1-1.2c-0.3-0.3-0.5-0.7-0.8-1l-0.7-1.1c-0.4-0.8-0.9-1.5-1.2-2.3c-0.7-1.6-1.1-3.3-1.3-5.1
						c0-0.4,0-0.9-0.1-1.3c0-0.2,0-0.4,0-0.7l0-0.7c0-0.2,0-0.4,0.1-0.7l0.1-0.7c0.1-0.4,0.1-0.9,0.3-1.3c0.2-0.9,0.6-1.7,1-2.5
						c0.5-0.8,1-1.6,1.6-2.2c1.2-1.4,2.7-2.4,4.3-3.2C122.5,74.6,124.3,74.2,126.1,74.3z"/>
				</g>
				<g>
					<path class="st22" d="M126.1,74.6l0,0.4l0,0.2l0,0.2l0,0.1l0,0.2l0,0.4l0,0.2l0,0.2l0,0.4c-1.4,0-2.8,0.2-4.1,0.8
						c-1.3,0.6-2.5,1.4-3.4,2.5c-0.5,0.5-0.9,1.1-1.2,1.7c-0.3,0.6-0.6,1.3-0.8,2c-0.3,1.4-0.5,2.9-0.4,4.3c0.1,1.5,0.5,2.9,1.1,4.3
						c0.3,0.7,0.6,1.3,1,2l0.6,0.9c0.2,0.3,0.5,0.6,0.7,0.9c0.9,1.2,2,2.2,3.2,3.2c0.6,0.4,1.1,0.8,1.8,1.2c0.7,0.4,1.4,0.8,2.1,1.2
						l-0.2,0.3l-0.2,0.4l-0.3,0.7l-0.1,0.2l-0.1,0.2l-0.2,0.3c-1.5-0.7-3-1.6-4.3-2.7c-0.8-0.6-1.5-1.3-2.2-2c-0.5-0.5-1-1-1.4-1.6
						c-0.3-0.3-0.5-0.7-0.8-1l-0.7-1.1c-0.4-0.7-0.8-1.5-1.2-2.3c-0.7-1.6-1.1-3.3-1.3-5c-0.1-1.7,0-3.5,0.4-5.2
						c0.2-0.9,0.6-1.7,1-2.5c0.4-0.8,0.9-1.5,1.5-2.2c1.2-1.3,2.6-2.4,4.3-3.1C122.5,74.8,124.3,74.5,126.1,74.6z"/>
				</g>
				<g>
					<path class="st23" d="M126.1,74.9l0,0.2l0,0.2l0,0.1l0,0.2l0,0.4l0,0.2l0,0.2c-1.5,0-2.9,0.2-4.3,0.8c-1.3,0.6-2.6,1.5-3.5,2.6
						c-0.5,0.5-0.9,1.2-1.3,1.8c-0.3,0.7-0.6,1.3-0.8,2c-0.4,1.4-0.5,3-0.4,4.5c0.1,1.5,0.5,3,1.1,4.4c0.3,0.7,0.7,1.4,1,2l0.6,1
						c0.2,0.3,0.5,0.6,0.7,0.9c1,1.2,2.1,2.3,3.3,3.2c0.4,0.3,0.8,0.6,1.2,0.9c0.9,0.6,1.8,1.1,2.7,1.6l-0.1,0.2l-0.1,0.2l-0.3,0.7
						l-0.1,0.2l-0.1,0.2c-1.5-0.7-2.9-1.6-4.2-2.6c-0.5-0.4-1.1-0.9-1.6-1.4c-0.7-0.7-1.4-1.4-2-2.1c-0.2-0.3-0.5-0.7-0.8-1
						l-0.7-1.1c-0.4-0.7-0.8-1.5-1.1-2.2c-0.7-1.5-1.1-3.2-1.3-4.9c-0.1-1.7,0-3.4,0.4-5.1c0.2-0.8,0.6-1.6,1-2.4
						c0.4-0.7,0.9-1.5,1.5-2.1c1.1-1.3,2.6-2.3,4.1-3C122.6,75.2,124.4,74.9,126.1,74.9z"/>
				</g>
				<g>
					<path class="st24" d="M126.1,75.2l0,0.2l0,0.1l0,0.2l0,0.4l0,0.2c-1.5,0-3,0.2-4.4,0.9c-1.4,0.6-2.6,1.5-3.6,2.7
						c-0.5,0.6-0.9,1.2-1.3,1.8c-0.3,0.7-0.7,1.4-0.8,2.1c-0.4,1.5-0.5,3-0.4,4.5c0.1,1.5,0.6,3,1.2,4.4c0.3,0.7,0.7,1.4,1.1,2.1
						l0.6,1c0.2,0.3,0.5,0.6,0.7,0.9c1,1.2,2.1,2.3,3.3,3.3c0.3,0.2,0.5,0.4,0.8,0.6c1,0.7,2,1.3,3.1,1.9l-0.1,0.2l-0.3,0.7
						l-0.1,0.2c-1.5-0.7-2.9-1.6-4.2-2.6c-0.4-0.3-0.8-0.6-1.2-1c-0.8-0.8-1.6-1.6-2.3-2.5c-0.2-0.3-0.5-0.6-0.7-1l-0.7-1
						c-0.4-0.7-0.8-1.4-1.1-2.2c-0.6-1.5-1.1-3.1-1.2-4.8c-0.1-1.7,0-3.3,0.4-5c0.2-0.8,0.6-1.6,0.9-2.4c0.4-0.7,0.9-1.4,1.5-2.1
						c1.1-1.3,2.5-2.3,4-3C122.7,75.4,124.4,75.1,126.1,75.2z"/>
				</g>
				<g>
					<path class="st25" d="M126.1,75.4l0,0.1l0,0.2l0,0.4c-1.5,0-3.1,0.2-4.5,0.9c-1.4,0.6-2.7,1.5-3.7,2.7
						c-0.5,0.6-0.9,1.2-1.3,1.9c-0.3,0.7-0.7,1.4-0.8,2.1c-0.4,1.5-0.5,3.1-0.4,4.6c0.2,1.6,0.6,3.1,1.2,4.5
						c0.3,0.7,0.7,1.4,1.1,2.1l0.6,1c0.2,0.3,0.5,0.6,0.7,0.9c1,1.2,2.1,2.3,3.3,3.3c0.1,0.1,0.3,0.2,0.5,0.3
						c1.1,0.8,2.3,1.5,3.5,2.1l-0.3,0.7c-1.5-0.7-2.9-1.6-4.1-2.6c-0.3-0.2-0.5-0.4-0.8-0.7c-1-0.8-1.9-1.8-2.7-2.8
						c-0.2-0.3-0.5-0.6-0.7-1l-0.7-1c-0.4-0.7-0.8-1.4-1.1-2.2c-0.6-1.5-1.1-3.1-1.2-4.7c-0.1-1.6,0-3.3,0.4-4.9
						c0.2-0.8,0.5-1.6,0.9-2.3c0.4-0.7,0.9-1.4,1.4-2c1.1-1.3,2.5-2.2,4-2.9C122.7,75.6,124.4,75.3,126.1,75.4z"/>
				</g>
			</g>
			<path class="st2" d="M132.3,103.2c-0.1,0.1-0.3,0.1-0.4,0.2l0,0c-0.2,0.1-0.4,0.2-0.6,0.3c-0.1,0.1-0.2,0.1-0.4,0.2
				c-0.1,0.1-0.2,0.1-0.3,0.2c-0.4,0.2-0.8,0.4-1.2,0.5c-0.1,0-0.2,0.1-0.4,0.1c-0.1,0.1-0.3,0.1-0.4,0.1c-0.2,0.1-0.4,0.1-0.6,0.2
				l0,0c-0.2,0-0.3,0.1-0.5,0.1c-0.7-0.2-1.4-0.5-2.1-0.8l0,0.1c-1.5-0.7-3-1.6-4.3-2.7c-0.8-0.6-1.6-1.3-2.3-2.1c0.1,0,0.2,0,0.4,0
				c0.2,0,0.3,0,0.5,0l0,0c0.1,0,0.2,0,0.4,0c0.1,0,0.2,0,0.3,0l0,0c0.4,0,0.8,0,1.2,0l0,0c0.1,0,0.2,0,0.4,0l0,0l0,0
				c0.1,0,0.3,0,0.4,0c0.2,0,0.4,0,0.6,0c0.1,0,0.3,0,0.4,0c0,0,0.1,0,0.1,0l0,0c0.5,0.4,1.1,0.7,1.6,1.1c0.4,0.3,0.9,0.5,1.3,0.7
				l0-0.1c0.8,0.4,1.5,0.7,2.3,0.9c0.8,0.3,1.7,0.5,2.5,0.7C131.6,103.1,131.9,103.1,132.3,103.2z"/>
			<g>
				<g>
					<path class="st16" d="M137.9,83.5l0.2,0.6l0.2,0.6c0.1,0.4,0.2,0.8,0.3,1.3c0.2,0.9,0.3,1.7,0.3,2.6c0,1.7-0.2,3.5-0.8,5.1
						l-0.2,0.6l-0.2,0.6c-0.2,0.4-0.4,0.8-0.5,1.2c-0.4,0.8-0.8,1.5-1.4,2.2c-1.4,1.9-3.2,3.4-5.3,4.5c-0.1,0.1-0.2,0.1-0.4,0.2
						c-0.2,0.1-0.4,0.2-0.5,0.2c-0.1,0.1-0.2,0.1-0.4,0.1c-0.1,0-0.2,0.1-0.3,0.1c-0.4,0.2-0.8,0.3-1.3,0.4c-0.1,0-0.3,0.1-0.4,0.1
						c0,0,0,0-0.1,0c-0.1,0-0.2,0.1-0.4,0.1c-0.2,0-0.5,0.1-0.7,0.1c-0.2,0-0.3,0-0.5,0.1c-1.2,0.1-2.5,0.1-3.7-0.2
						c-0.9-0.2-1.7-0.5-2.6-0.8c-0.8-0.4-1.6-0.8-2.3-1.3c-0.7-0.5-1.4-1-2-1.6c-0.6-0.6-1.2-1.2-1.8-1.9c-1.1-1.3-2-2.7-2.8-4.2
						c-1.5-3-2.4-6.3-2.8-9.6c-0.2-2.1-0.3-4.3-0.1-6.4c0.1-1.2,0.3-2.4,0.5-3.5l0.3,0.1l0.6,0.1l0.2,0l0.1,0l0,0l0.3,0.1l0.6,0.1
						l0.2,0l0.4,0.1l0.3,0.1c-0.3,1.7-0.5,3.5-0.6,5.2c0,1.3,0,2.5,0.2,3.8c0.3,3,1.2,5.9,2.5,8.6c1.3,2.6,3.2,5,5.6,6.6
						c0.2,0.1,0.3,0.2,0.5,0.3c0.3,0.2,0.6,0.3,0.9,0.5c0.2,0.1,0.3,0.2,0.5,0.2c0.2,0.1,0.4,0.2,0.6,0.2c0.2,0.1,0.4,0.2,0.7,0.2
						c0.2,0.1,0.4,0.1,0.5,0.1c0,0,0.1,0,0.1,0c0.5,0.1,1,0.2,1.6,0.2c0.1,0,0.3,0,0.4,0c0.1,0,0.3,0,0.4,0c0.2,0,0.4,0,0.6-0.1
						c0.1,0,0.3,0,0.4-0.1c0.2,0,0.4-0.1,0.6-0.1c2.7-0.6,5.2-2.3,6.9-4.6c1.7-2.3,2.6-5.2,2.5-8c0-0.7-0.1-1.4-0.2-2.1
						c-0.1-0.3-0.2-0.7-0.3-1l-0.1-0.5l-0.2-0.5c-0.5-1.4-1.2-2.6-2-3.7c-0.9-1.1-2-1.9-3.2-2.6l-0.2-0.1l-0.2-0.1l-0.5-0.2
						l-0.5-0.2l-0.2-0.1l-0.3-0.1l-0.5-0.1l-0.5-0.1l-0.3,0l-0.3,0l-0.5,0l0,0l0-0.3l0-0.4l0-0.2l0-0.1l0,0l0-0.2l0,0l0-0.1l0-0.1
						l0-0.4l0-0.1l0-0.1l0,0l0-0.2l0,0l0-0.2l0-0.1l0,0l0-0.4l0-0.3l0.7,0.1l0.3,0l0.3,0.1l0.7,0.1l0.7,0.2l0.3,0.1l0.3,0.1l0.6,0.2
						l0.6,0.3l0.3,0.1c0.1,0,0.2,0.1,0.3,0.2c1.6,0.8,3,1.9,4.1,3.3C136.5,80.3,137.4,81.9,137.9,83.5z"/>
				</g>
				<g>
					<path class="st17" d="M137.7,83.6l0.2,0.6l0.2,0.6c0.1,0.4,0.2,0.8,0.3,1.2c0.2,0.8,0.3,1.7,0.3,2.6c0,1.7-0.2,3.4-0.7,5.1
						l-0.2,0.6l-0.2,0.6c-0.1,0.4-0.3,0.8-0.5,1.2c-0.4,0.8-0.8,1.5-1.3,2.2c-1.4,1.9-3.3,3.5-5.5,4.6c-0.1,0.1-0.2,0.1-0.4,0.2
						c-0.2,0.1-0.4,0.2-0.5,0.2c-0.1,0.1-0.2,0.1-0.4,0.1c-0.1,0-0.2,0.1-0.3,0.1c-0.4,0.1-0.8,0.3-1.3,0.4c0,0,0,0-0.1,0
						c-0.1,0-0.2,0-0.3,0.1c-0.1,0-0.3,0.1-0.5,0.1c-0.2,0-0.5,0.1-0.7,0.1c-0.1,0-0.1,0-0.2,0c0,0,0,0,0,0c-0.1,0-0.2,0-0.3,0
						c-0.1,0-0.1,0-0.2,0c-1,0.1-2,0-3-0.2c-0.9-0.2-1.7-0.4-2.5-0.8c-0.8-0.3-1.5-0.8-2.3-1.2c-0.7-0.5-1.4-1-2-1.6
						c-0.6-0.6-1.2-1.2-1.7-1.8c-1.1-1.3-2-2.7-2.7-4.2c-1.5-3-2.4-6.2-2.8-9.5c-0.2-2.1-0.3-4.1-0.1-6.2c0.1-1.2,0.3-2.4,0.5-3.6
						l0.6,0.1l0.2,0l0.1,0l0,0l0.3,0.1l0.6,0.1l0.2,0l0.4,0.1c-0.3,1.7-0.5,3.3-0.6,5c0,1.3,0,2.7,0.2,4c0.3,3,1.2,6,2.5,8.6
						c1.4,2.7,3.2,5.1,5.7,6.7c0.4,0.3,0.9,0.6,1.4,0.8c0.2,0.1,0.3,0.2,0.5,0.2c0.1,0,0.2,0.1,0.3,0.1c0.3,0.1,0.7,0.2,1,0.3
						c0.2,0.1,0.4,0.1,0.6,0.1c0,0,0.1,0,0.1,0c0.1,0,0.3,0.1,0.4,0.1c0.5,0.1,1.1,0.1,1.6,0.1c0.1,0,0.3,0,0.4,0c0.1,0,0.3,0,0.4,0
						c0.2,0,0.4,0,0.6-0.1c0.1,0,0.3,0,0.4-0.1c0,0,0,0,0,0c0.1,0,0.1,0,0.2,0c0,0,0.1,0,0.1,0c2.8-0.6,5.3-2.3,7-4.7
						c1.7-2.3,2.6-5.3,2.6-8.1c0-0.7-0.1-1.4-0.2-2.1c-0.1-0.3-0.2-0.7-0.3-1.1l-0.1-0.5l-0.2-0.5c-0.5-1.4-1.2-2.7-2.1-3.8
						c-0.9-1.1-2-2-3.3-2.6l-0.2-0.1l-0.2-0.1l-0.5-0.2l-0.5-0.2l-0.3-0.1l-0.3-0.1l-0.5-0.1l-0.5-0.1l-0.3,0l-0.3,0l-0.5,0l0-0.4
						l0-0.2l0-0.1l0,0l0-0.2l0,0l0-0.1l0-0.1l0-0.4l0-0.1l0,0l0-0.1l0,0l0-0.2l0,0l0-0.2l0-0.1l0-0.4l0,0l0.7,0.1l0.3,0l0.3,0.1
						l0.6,0.1l0.6,0.2L129,75l0.3,0.1l0.6,0.2l0.6,0.3l0.3,0.1l0.3,0.2c1.6,0.8,3,1.9,4.1,3.3C136.3,80.5,137.1,82,137.7,83.6z"/>
				</g>
				<g>
					<path class="st18" d="M137.4,83.7l0.2,0.6l0.2,0.6c0.1,0.4,0.2,0.8,0.3,1.2c0.2,0.8,0.2,1.7,0.3,2.5c0,1.7-0.2,3.4-0.7,4.9
						l-0.2,0.6l-0.2,0.6c-0.1,0.4-0.3,0.8-0.5,1.1c-0.4,0.7-0.8,1.5-1.3,2.1c-1.5,2-3.4,3.6-5.7,4.6c-0.1,0.1-0.2,0.1-0.4,0.2
						c-0.2,0.1-0.4,0.1-0.5,0.2c-0.1,0-0.3,0.1-0.4,0.1c-0.1,0-0.2,0.1-0.3,0.1c-0.3,0.1-0.6,0.2-0.9,0.2c-0.2,0-0.3,0.1-0.5,0.1
						c-0.1,0-0.3,0-0.4,0.1c-0.2,0-0.3,0-0.5,0.1c0,0,0,0,0,0c-0.1,0-0.1,0-0.2,0c-0.1,0-0.2,0-0.3,0c-0.1,0-0.3,0-0.4,0
						c-0.2,0-0.3,0-0.5,0c-0.8,0-1.6-0.1-2.3-0.2c-0.8-0.1-1.7-0.4-2.4-0.8c-0.8-0.3-1.5-0.8-2.2-1.2c-0.7-0.5-1.3-1-2-1.5
						c-0.1-0.1-0.2-0.2-0.3-0.3c-0.5-0.5-1-1-1.4-1.5c-1-1.2-1.9-2.5-2.6-3.9l0,0c0-0.1-0.1-0.1-0.1-0.2c-1.5-2.9-2.4-6.1-2.7-9.3
						c-0.2-1.9-0.2-3.9-0.1-5.8c0.1-1.3,0.3-2.6,0.5-3.8l0.2,0l0.2,0l0,0l0.1,0l0,0l0.3,0.1l0.4,0.1l0.2,0l0.2,0
						c-0.3,1.6-0.5,3.2-0.6,4.8c-0.1,1.4,0,2.9,0.2,4.3c0.1,1.1,0.3,2.1,0.5,3.1c0.5,2,1.1,3.8,2,5.6c1.4,2.7,3.3,5.2,5.8,6.8
						c0.6,0.4,1.3,0.8,1.9,1.1c0.2,0.1,0.4,0.2,0.6,0.2c0.2,0.1,0.5,0.2,0.7,0.2c0.3,0.1,0.5,0.1,0.8,0.2c0,0,0.1,0,0.1,0
						c0.2,0,0.4,0.1,0.6,0.1c0.2,0,0.3,0,0.5,0c0.5,0,1,0,1.5,0c0.1,0,0.3,0,0.4,0c0.1,0,0.3,0,0.4-0.1c0.1,0,0.2,0,0.3,0
						c0.1,0,0.2,0,0.3-0.1c0,0,0.1,0,0.1,0c0,0,0,0,0,0c0,0,0.1,0,0.1,0c0.1,0,0.2-0.1,0.3-0.1c0.3-0.1,0.6-0.2,1-0.3
						c2.4-0.8,4.5-2.4,5.9-4.4c1.8-2.4,2.7-5.4,2.7-8.4c0-0.7-0.1-1.5-0.2-2.2c-0.1-0.4-0.2-0.7-0.3-1.1l-0.1-0.5l0-0.1l-0.1-0.4
						c-0.5-1.4-1.2-2.7-2.1-3.9c-0.9-1.2-2.1-2.1-3.4-2.7l-0.2-0.1l-0.3-0.1l-0.5-0.2l-0.4-0.1l-0.1,0l-0.3-0.1l-0.3-0.1l-0.5-0.1
						l-0.5-0.1l-0.3,0l-0.3,0l-0.5,0l0-0.2l0-0.1l0,0l0-0.2l0,0l0-0.1l0-0.1l0-0.4l0-0.1l0,0l0-0.1l0,0l0-0.2l0,0l0-0.2l0-0.1l0,0
						l0.6,0.1l0.3,0l0.3,0.1l0.6,0.1l0.6,0.1l0.3,0.1l0.3,0.1l0.6,0.2l0.6,0.2l0.3,0.1l0.3,0.1c1.5,0.8,2.9,1.8,3.9,3.2
						C136,80.7,136.8,82.2,137.4,83.7z"/>
				</g>
				<g>
					<path class="st19" d="M137.1,83.8l0.2,0.6l0.2,0.6c0.1,0.4,0.2,0.8,0.3,1.2c0.2,0.8,0.2,1.6,0.3,2.5c0,1.4-0.2,2.9-0.5,4.3
						c0,0,0,0,0,0c-0.1,0.2-0.1,0.4-0.2,0.6l-0.2,0.6l-0.2,0.6c-0.1,0.4-0.3,0.8-0.5,1.1c-0.4,0.7-0.8,1.4-1.3,2.1
						c-1.5,2.1-3.5,3.7-5.9,4.7c-0.1,0.1-0.3,0.1-0.4,0.2c-0.2,0.1-0.4,0.1-0.5,0.2c-0.1,0-0.3,0.1-0.4,0.1c-0.1,0-0.2,0.1-0.4,0.1
						c-0.2,0-0.4,0.1-0.5,0.1c-0.3,0.1-0.5,0.1-0.8,0.2c-0.1,0-0.3,0-0.4,0.1c0,0,0,0,0,0c-0.1,0-0.1,0-0.2,0c-0.1,0-0.1,0-0.2,0
						c-0.1,0-0.2,0-0.3,0c-0.2,0-0.5,0-0.7,0c-0.2,0-0.4,0-0.5,0c-0.6,0-1.2-0.1-1.8-0.2c-0.8-0.1-1.5-0.4-2.3-0.7c0,0-0.1,0-0.1,0
						c-0.8-0.3-1.5-0.7-2.2-1.2c-0.7-0.5-1.3-1-1.9-1.5c-0.6-0.6-1.2-1.1-1.7-1.8c-1.1-1.2-1.9-2.6-2.7-4.1
						c-1.3-2.5-2.1-5.2-2.5-7.9c-0.1-0.4-0.1-0.9-0.2-1.3c-0.2-1.9-0.2-3.8-0.1-5.6c0.1-1.3,0.3-2.7,0.5-4l0.2,0l0,0l0.1,0l0,0
						l0.3,0.1l0.4,0.1l0.2,0c-0.3,1.5-0.5,3.1-0.6,4.7c0,0.7,0,1.3,0,2c0,0.9,0.1,1.7,0.2,2.6c0.3,3.1,1.2,6.1,2.6,8.9
						c1.4,2.7,3.3,5.2,5.9,6.9c0.6,0.4,1.3,0.8,2,1.1c0.4,0.2,0.8,0.3,1.3,0.5c0.2,0.1,0.4,0.1,0.7,0.2c0.1,0,0.1,0,0.2,0
						c0.2,0,0.4,0.1,0.7,0.1c0.2,0,0.4,0,0.5,0.1c0.2,0,0.3,0,0.5,0c0,0,0,0,0,0c0.5,0,1,0,1.5-0.1c0.1,0,0.3,0,0.4,0
						c0.1,0,0.1,0,0.2,0c0.1,0,0.1,0,0.2,0c0.1,0,0.1,0,0.2,0c0,0,0,0,0.1,0c0.1,0,0.2,0,0.3-0.1c0.1,0,0.2,0,0.2-0.1
						c0.1,0,0.3-0.1,0.4-0.1c0,0,0,0,0,0c0.7-0.2,1.3-0.5,2-0.8c1.9-0.9,3.5-2.3,4.8-4c1.8-2.4,2.8-5.5,2.7-8.5c0-0.1,0-0.2,0-0.3
						c0-0.6-0.1-1.3-0.2-1.9c-0.1-0.4-0.2-0.7-0.3-1.1l-0.2-0.6l-0.2-0.5c-0.1-0.4-0.3-0.8-0.5-1.2c-0.5-1-1-1.9-1.7-2.8
						c-0.9-1.2-2.1-2.1-3.5-2.8l0,0l-0.2-0.1l-0.3-0.1l-0.5-0.2l-0.5-0.2l-0.3-0.1l-0.3-0.1l-0.5-0.1l-0.6-0.1l-0.3,0l-0.3,0l-0.6,0
						l0,0l0-0.2l0-0.1l0-0.1l0-0.4l0-0.1l0-0.1l0,0l0-0.2l0.6,0l0.3,0l0.3,0.1l0.6,0.1l0.6,0.1l0.3,0.1l0.3,0.1l0.6,0.2l0.6,0.2
						l0.3,0.1l0.3,0.1c1.5,0.8,2.8,1.8,3.9,3.1C135.8,80.8,136.6,82.3,137.1,83.8z"/>
				</g>
				<g>
					<path class="st20" d="M136.2,82.1c0.3,0.6,0.5,1.2,0.7,1.8l0.2,0.6l0.2,0.6c0.1,0.4,0.2,0.8,0.3,1.2c0.1,0.4,0.1,0.8,0.2,1.2
						c0,0,0,0,0,0.1c0,0,0,0.1,0,0.1c0,0.4,0.1,0.7,0.1,1.1c0,1.6-0.2,3.3-0.7,4.8l-0.2,0.6l0,0l-0.2,0.6c-0.1,0.4-0.3,0.7-0.5,1.1
						c-0.4,0.7-0.8,1.4-1.3,2.1c-1.5,2.1-3.6,3.7-6,4.7c-0.1,0.1-0.3,0.1-0.4,0.1c-0.2,0.1-0.4,0.1-0.6,0.2c-0.1,0-0.3,0.1-0.4,0.1
						c-0.1,0-0.2,0.1-0.4,0.1c-0.1,0-0.2,0-0.2,0.1c-0.3,0.1-0.7,0.1-1,0.2c0,0-0.1,0-0.1,0c-0.1,0-0.1,0-0.2,0c0,0-0.1,0-0.1,0l0,0
						c-0.1,0-0.2,0-0.3,0c-0.2,0-0.3,0-0.5,0c-0.2,0-0.5,0-0.7,0c-0.2,0-0.4,0-0.5,0c-0.2,0-0.4,0-0.7-0.1c0,0,0,0,0,0
						c-0.2,0-0.5-0.1-0.7-0.1c-0.8-0.1-1.6-0.4-2.3-0.7c-0.7-0.3-1.5-0.7-2.1-1.2c0,0,0,0,0,0c-0.7-0.4-1.3-0.9-1.9-1.5
						c-0.6-0.6-1.2-1.1-1.7-1.8c-1-1.2-1.9-2.6-2.6-4c-0.6-1.1-1-2.3-1.4-3.5c-0.6-1.9-1-3.8-1.3-5.7c-0.1-1.2-0.2-2.4-0.2-3.6
						c0,0,0,0,0,0c0-0.6,0-1.2,0.1-1.8c0.1-1.4,0.3-2.8,0.6-4.1l0,0l0.1,0l0,0l0.3,0.1l0.4,0.1c-0.3,1.5-0.5,2.9-0.6,4.4
						c0,0,0,0.1,0,0.1c-0.1,1.6,0,3.2,0.1,4.8c0.1,0.9,0.2,1.8,0.4,2.7c0,0,0,0,0,0c0.5,2.2,1.2,4.2,2.2,6.2
						c0.7,1.4,1.5,2.7,2.5,3.9c0.5,0.6,1,1.2,1.6,1.7c0.6,0.5,1.2,1,1.8,1.4c0.6,0.4,1.3,0.8,2,1.1c0.6,0.2,1.2,0.5,1.8,0.6
						c0.1,0,0.2,0,0.3,0.1c0,0,0.1,0,0.1,0c0.1,0,0.2,0,0.3,0.1c0.3,0,0.6,0.1,0.8,0.1c0.2,0,0.3,0,0.5,0c0.1,0,0.3,0,0.4,0
						c0.5,0,1,0,1.4-0.1c0,0,0.1,0,0.1,0c0,0,0,0,0,0c0.1,0,0.1,0,0.2,0c0.1,0,0.1,0,0.2,0c0,0,0,0,0,0c0.1,0,0.3-0.1,0.4-0.1
						c0,0,0,0,0.1,0c0.2,0,0.4-0.1,0.5-0.1c0.1,0,0.3-0.1,0.4-0.1c0.5-0.2,1-0.4,1.5-0.6c2-0.9,3.8-2.4,5.1-4.2
						c1.2-1.7,2.1-3.6,2.5-5.6c0.2-1,0.3-2,0.3-3c0-0.8-0.1-1.5-0.3-2.3c0-0.2-0.1-0.5-0.2-0.7c0-0.1-0.1-0.3-0.1-0.4l-0.2-0.6
						l-0.2-0.5c-0.4-1.1-0.9-2.2-1.6-3.1c0,0,0,0,0,0c-0.2-0.3-0.4-0.6-0.6-0.8c-0.5-0.6-1-1.1-1.6-1.6c-0.6-0.5-1.3-0.9-2-1.3
						l-0.3-0.1l-0.3-0.1l-0.5-0.2l-0.5-0.2l-0.3-0.1l-0.3-0.1l-0.2-0.1l-0.3-0.1l-0.6-0.1l-0.3,0l-0.3,0l-0.6,0l0,0l0-0.1l0-0.1
						l0-0.4l0-0.1l0-0.1l0.6,0l0.3,0l0.3,0l0.2,0c0,0,0,0,0,0l0.4,0.1l0.6,0.1l0.3,0.1l0.3,0.1l0.5,0.2l0,0l0.2,0.1c0,0,0,0,0,0
						l0.3,0.1l0.3,0.1l0.3,0.1c1.5,0.7,2.8,1.8,3.8,3C135.2,80.4,135.7,81.2,136.2,82.1z"/>
				</g>
			</g>
			<g class="st26">
				<g>
					<path class="st27" d="M135.8,95.2c0,0,0-0.2,0-0.4c0-0.1,0.1-0.2,0.1-0.4c0-0.1,0.1-0.1,0.1-0.2c0-0.1,0.1-0.2,0.1-0.3
						c0.3-0.8,0.6-1.9,0.7-3.3c0-0.7,0-1.5-0.1-2.3c0-0.4-0.1-0.8-0.2-1.3c0-0.2-0.1-0.4-0.2-0.7c0-0.1-0.1-0.2-0.1-0.3
						c0-0.1-0.1-0.2-0.1-0.3c-0.3-0.9-0.7-1.8-1.2-2.7c-0.1-0.2-0.2-0.5-0.4-0.7c-0.1-0.2-0.3-0.4-0.4-0.7c-0.3-0.4-0.6-0.9-1-1.3
						c-0.7-0.8-1.5-1.5-2.3-2.1c-0.8-0.6-1.7-1-2.6-1.3c-1.7-0.6-3.4-0.7-4.9-0.4c-1.4,0.2-2.5,0.7-3.3,0.9
						c-0.8,0.3-1.2,0.5-1.3,0.4c-0.1-0.1,0.3-0.4,1-1c0.7-0.5,1.8-1.2,3.4-1.6c1.5-0.4,3.5-0.5,5.6,0.1c1,0.3,2,0.8,3,1.5
						c1,0.6,1.9,1.5,2.7,2.4c0.4,0.5,0.8,0.9,1.1,1.4c0.2,0.3,0.3,0.5,0.5,0.7c0.2,0.2,0.3,0.5,0.4,0.8c0.5,1,0.9,2,1.2,3.1
						c0,0.1,0.1,0.3,0.1,0.4c0,0.1,0.1,0.3,0.1,0.4c0,0.3,0.1,0.5,0.1,0.7c0.1,0.5,0.1,1,0.1,1.4c0.1,0.9,0,1.8-0.1,2.6
						c-0.3,1.6-0.8,2.8-1.4,3.5c-0.1,0.1-0.1,0.2-0.2,0.3c-0.1,0.1-0.1,0.1-0.2,0.2c-0.1,0.1-0.2,0.2-0.3,0.3
						C136,95.2,135.8,95.2,135.8,95.2z"/>
					<path class="st28" d="M137.6,89.2c0,0-0.1-0.1-0.1-0.2c0-0.1-0.1-0.3-0.1-0.6c-0.1-0.3-0.1-0.6-0.2-0.9c0-0.2-0.1-0.4-0.1-0.6
						c0-0.2-0.1-0.4-0.2-0.6c-0.5-1.7-1.5-4.1-3.3-6.1c-0.9-1-1.9-1.9-2.9-2.5c-1-0.6-2-1.1-2.8-1.3c-1.7-0.5-2.9-0.5-2.9-0.6
						c0-0.1,0.3-0.2,0.8-0.2c0.3,0,0.6,0,1,0c0.2,0,0.4,0,0.6,0.1c0.2,0,0.4,0,0.7,0.1c1,0.2,2.1,0.6,3.2,1.2
						c1.1,0.6,2.2,1.5,3.2,2.7c1.9,2.2,2.9,4.8,3.3,6.7c0,0.2,0.1,0.5,0.1,0.7c0,0.2,0,0.4,0.1,0.6c0,0.4,0,0.7,0,1
						c0,0.3,0,0.5-0.1,0.6C137.7,89.1,137.6,89.2,137.6,89.2z"/>
					<path class="st8" d="M136.1,83.1c-0.1,0.1-0.9-1.5-2.3-3.1c-0.1-0.1-0.2-0.2-0.3-0.3c-0.1-0.1-0.2-0.2-0.3-0.3
						c-0.2-0.2-0.3-0.4-0.5-0.5c-0.3-0.3-0.6-0.6-0.9-0.8c-0.5-0.5-0.9-0.7-0.9-0.8c0,0,0.4,0.1,1,0.5c0.3,0.2,0.6,0.5,1,0.8
						c0.2,0.2,0.4,0.3,0.5,0.5c0.1,0.1,0.2,0.2,0.3,0.3c0.1,0.1,0.2,0.2,0.3,0.3C135.6,81.3,136.2,83,136.1,83.1z"/>
				</g>
			</g>
			<g class="st29">
				<g>
					<path class="st27" d="M129.5,101.2c0,0.1-0.1,0.2-0.3,0.3c-0.1,0.1-0.2,0.2-0.4,0.3c-0.1,0.1-0.2,0.1-0.3,0.2
						c-0.1,0-0.2,0.1-0.3,0.2c-0.2,0.1-0.5,0.2-0.7,0.4c-0.3,0.1-0.6,0.2-0.9,0.3c-0.3,0.1-0.7,0.2-1.1,0.3c-0.2,0-0.4,0.1-0.6,0.1
						c-0.2,0-0.4,0.1-0.6,0.1c-0.9,0.1-1.9,0-2.9-0.2c-1-0.2-2.1-0.6-3.2-1.1c-2.1-1.1-4.1-2.9-5.6-5.2c-1.5-2.2-2.5-4.6-3.1-6.9
						c-0.6-2.2-0.8-4.3-0.9-6c-0.1-3.5,0.4-5.5,0.6-5.5c0.3,0,0.2,2.1,0.6,5.4c0.2,1.6,0.6,3.6,1.2,5.7c0.7,2.1,1.6,4.3,3,6.3
						c1.4,2,3.1,3.7,4.9,4.7c0.9,0.5,1.8,0.9,2.7,1.1c0.9,0.2,1.8,0.3,2.6,0.3c0.2,0,0.4,0,0.6,0c0.2,0,0.4,0,0.6,0
						c0.4,0,0.7-0.1,1-0.1c0.3-0.1,0.6-0.1,0.9-0.2c0.3-0.1,0.5-0.1,0.7-0.2c0.1,0,0.2-0.1,0.3-0.1c0.1,0,0.2-0.1,0.3-0.1
						c0.2-0.1,0.3-0.1,0.4-0.1C129.3,101.1,129.4,101.1,129.5,101.2z"/>
					<path class="st28" d="M122.5,102.5c0,0.1-0.3,0.1-0.9,0.1c-0.3,0-0.7-0.1-1.1-0.2c-0.2,0-0.4-0.1-0.7-0.2
						c-0.1,0-0.2-0.1-0.4-0.1c-0.1,0-0.2-0.1-0.4-0.1c-1-0.4-2.1-1-3.2-2c-1.1-0.9-2.2-2.1-3.1-3.4c-0.9-1.4-1.6-2.8-2.1-4.1
						c-0.5-1.3-0.9-2.5-1.1-3.6c-0.2-1-0.3-1.9-0.3-2.5c0-0.6,0-0.9,0.1-0.9c0.1,0,0.2,0.3,0.3,0.9c0.2,0.6,0.4,1.4,0.7,2.4
						c0.6,2,1.6,4.7,3.3,7.2c0.9,1.3,1.8,2.4,2.8,3.3c1,0.9,2,1.6,2.9,2c0.1,0.1,0.2,0.1,0.3,0.2c0.1,0,0.2,0.1,0.3,0.1
						c0.2,0.1,0.4,0.2,0.6,0.3c0.4,0.1,0.7,0.3,1,0.4C122.2,102.3,122.6,102.5,122.5,102.5z"/>
					<path class="st8" d="M116.2,99.6c0,0-0.1,0-0.3-0.2c-0.2-0.1-0.4-0.3-0.7-0.6c-0.6-0.5-1.3-1.4-2-2.4c-1.4-2-2-4-1.9-4
						c0.1,0,0.9,1.8,2.2,3.8c0.7,1,1.4,1.8,1.9,2.4c0.3,0.3,0.5,0.5,0.6,0.7C116.1,99.4,116.2,99.5,116.2,99.6z"/>
				</g>
			</g>
			<g class="st30">
				<g>
					<path class="st27" d="M155.2,87.5c0.2,0,0.3,1,0,2.5c0,0.2-0.1,0.4-0.1,0.6c0,0.2-0.1,0.4-0.2,0.6c-0.1,0.4-0.3,0.9-0.4,1.4
						c-0.4,1-0.9,2-1.5,3c-0.6,1-1.4,1.9-2.1,2.6c-0.4,0.4-0.7,0.7-1.1,1c-0.2,0.1-0.3,0.3-0.5,0.4c-0.2,0.1-0.3,0.2-0.5,0.3
						c-1.3,0.9-2.2,1.1-2.3,1c-0.1-0.2,0.6-0.7,1.7-1.7c0.1-0.1,0.3-0.3,0.4-0.4c0.1-0.1,0.3-0.3,0.4-0.4c0.3-0.3,0.6-0.6,0.9-1
						c0.6-0.7,1.3-1.6,1.9-2.5c0.6-0.9,1.1-1.9,1.5-2.7c0.2-0.4,0.4-0.9,0.5-1.3c0.1-0.2,0.2-0.4,0.2-0.6c0.1-0.2,0.1-0.4,0.2-0.5
						C154.8,88.4,155,87.5,155.2,87.5z"/>
					<path class="st28" d="M154.6,90.6c0.1,0,0.1,0.2,0,0.4c0,0.3-0.1,0.6-0.2,1.1c-0.3,0.9-0.8,2.1-1.6,3.3
						c-0.8,1.2-1.7,2.2-2.4,2.8c-0.3,0.3-0.7,0.5-0.9,0.7c-0.2,0.1-0.4,0.2-0.4,0.2c-0.2-0.2,1.5-1.7,3-4.1
						C153.7,92.7,154.4,90.6,154.6,90.6z"/>
					<path class="st8" d="M153.5,93.6c0.1,0-0.3,0.9-0.8,1.8c-0.6,0.9-1.2,1.5-1.3,1.5c-0.1-0.1,0.4-0.8,1-1.7
						C152.9,94.3,153.4,93.5,153.5,93.6z"/>
				</g>
			</g>
			<polygon class="st2" points="136.2,62.5 135.9,61.7 134,62.5 134.5,63.8 			"/>
			<polygon class="st2" points="158.8,54.8 160.9,54.8 161,56 158.9,55.8 			"/>
			<path class="st31" d="M111,75.6c-0.3,1.4-0.5,2.7-0.5,4.1c-0.8-0.8-1.8-1.5-2.8-2.1c0.1-0.9,0.2-1.8,0.4-2.6l0.3,0.1l0.6,0.1
				l0.2,0l0.1,0l0,0l0.3,0.1l0.6,0.1l0.2,0l0.4,0.1L111,75.6z"/>
			<g>
				<g>
					<path class="st32" d="M118,66c2,4.1,0.3,9.1-3.8,11c-4,1.9-8.9,0.1-10.9-4c-2-4.1-0.3-9.1,3.8-11C111.2,60.1,116.1,61.9,118,66
						z"/>
					<path class="st33" d="M117.8,66.2c1.8,3.9,0.2,8.5-3.7,10.3c-3.7,1.7-8,0.2-9.9-3.7c-1.9-3.9-0.3-8.4,3.5-10.3
						C111.6,60.7,116,62.3,117.8,66.2z"/>
					<path class="st34" d="M117.6,66.4c1.6,3.6,0.1,7.9-3.7,9.7c-3.4,1.6-7.1,0.3-8.8-3.4c-1.8-3.7-0.4-7.8,3.3-9.6
						C112.1,61.3,115.9,62.6,117.6,66.4z"/>
					<path class="st25" d="M117.4,66.6c1.4,3.3,0,7.4-3.6,9c-3,1.4-6.1,0.4-7.8-3.2c-1.7-3.5-0.4-7.2,3-8.9
						C112.5,61.9,115.9,63,117.4,66.6z"/>
					<path class="st35" d="M117.2,66.7c1.2,3-0.1,6.8-3.6,8.4c-2.7,1.2-5.2,0.5-6.8-2.9c-1.6-3.3-0.5-6.6,2.8-8.2
						C112.9,62.5,115.8,63.3,117.2,66.7z"/>
				</g>
				<path class="st36" d="M116.8,64.2c0.4,0.5,0.8,1,1.1,1.5c0.3,0.6,0.5,1.2,0.7,1.8c0.8,2.7,0.5,7.2-4.4,9.6
					C118.7,74.3,119.8,68.6,116.8,64.2z"/>
				<path class="st37" d="M114.2,77c-0.6,0.3-1.3,0.6-2,0.7c-0.3,0.1-0.7,0.1-1.1,0.1c-0.2,0-0.4,0-0.5,0c-0.2,0-0.4,0-0.5,0
					l-0.5-0.1c-0.2,0-0.4-0.1-0.5-0.1l-0.3-0.1l-0.3-0.1l-0.5-0.2l-0.5-0.2l-0.2-0.1L107,77l-0.5-0.3l-0.5-0.3l-0.2-0.1l-0.2-0.2
					l-0.4-0.3l-0.4-0.4l-0.2-0.2l-0.2-0.2l-0.3-0.4l-0.3-0.4c-0.2-0.3-0.4-0.6-0.5-0.9c-0.6-1.3-0.9-2.8-0.9-4.2
					c0.1-1.4,0.5-2.9,1.3-4.1c0.8-1.2,1.9-2.2,3.2-2.9c1.3-0.6,2.8-0.9,4.2-0.8c1.4,0.1,2.8,0.6,4,1.4c-1.2-0.8-2.6-1.2-4-1.3
					c-1.4-0.1-2.8,0.2-4.1,0.9l-0.5,0.3c-0.2,0.1-0.3,0.2-0.4,0.3c-0.3,0.2-0.6,0.4-0.8,0.6c-0.5,0.5-1,1-1.3,1.6
					c-0.8,1.2-1.2,2.6-1.2,3.9c-0.1,1.4,0.2,2.8,0.8,4.1c0.6,1.2,1.5,2.4,2.7,3.2C108.5,77.9,111.6,78.2,114.2,77z"/>
				<path class="st38" d="M117.2,66.5c1.7,3.6,0.4,7.9-3.1,9.5c-3.4,1.6-7.6,0-9.3-3.6c-1.7-3.6-0.4-7.9,3.1-9.5
					C111.3,61.2,115.5,62.8,117.2,66.5z"/>
				<path class="st39" d="M116.8,66.6c1.7,3.6,0.1,7.2-3.1,8.7c-3.2,1.5-6.7,0.3-8.4-3.2c-1.7-3.6-0.5-7.7,2.7-9.2
					C111.2,61.4,115.2,63.1,116.8,66.6z"/>
				<path class="st40" d="M113.6,75.4c-0.1,0-0.1,0.1-0.2,0.1c-3.2,1.5-6.7,0.3-8.4-3.3c-1.7-3.6-0.5-7.7,2.6-9.2
					c0.1,0,0.1-0.1,0.2-0.1c-2.9,1.5-3.9,5.5-2.2,9C107.3,75.4,110.6,76.7,113.6,75.4z"/>
				<path class="st41" d="M113.9,75.2c0,0-0.1,0-0.1,0.1c-3.4,1.6-7.5,0.2-9.1-3.3c-1.6-3.4-0.2-7.5,3.2-9.2c0,0,0.1,0,0.1-0.1
					c-3.3,1.7-4.7,5.7-3.1,9.1C106.6,75.2,110.6,76.7,113.9,75.2z"/>
				<g>
					<path class="st39" d="M103.4,70.2c-0.3-1-0.3-2,0-3c0.2-1,0.7-1.9,1.5-2.6c-0.2,0.4-0.4,0.9-0.6,1.3c-0.2,0.4-0.3,0.9-0.4,1.4
						c-0.1,0.5-0.2,0.9-0.3,1.4C103.4,69.2,103.4,69.7,103.4,70.2z"/>
					<path class="st42" d="M103.4,69.5c-0.1-0.7-0.1-1.5,0.1-2.2c0.2-0.7,0.5-1.4,1-2c-0.1,0.2-0.2,0.5-0.3,0.7
						c-0.2,0.5-0.3,0.9-0.4,1.4c-0.1,0.4-0.2,0.9-0.3,1.4C103.4,68.9,103.4,69.2,103.4,69.5z"/>
					<path class="st43" d="M103.3,68.7c0-0.5,0.1-1,0.2-1.5c0.1-0.5,0.3-1,0.6-1.4c0,0,0,0,0,0c-0.2,0.5-0.3,1-0.5,1.4
						C103.5,67.7,103.4,68.1,103.3,68.7C103.3,68.7,103.3,68.7,103.3,68.7z"/>
				</g>
				<g>
					<path class="st44" d="M111.6,61.8c0.8,0,1.7,0.2,2.5,0.5c0.8,0.4,1.4,1,1.9,1.7c-0.3-0.3-0.7-0.5-1-0.8c-0.3-0.2-0.7-0.4-1-0.6
						c-0.4-0.2-0.7-0.3-1.1-0.5C112.4,62,112,61.9,111.6,61.8z"/>
					<path class="st11" d="M112.2,61.9c0.6,0,1.3,0.2,1.8,0.5c0.6,0.3,1.1,0.7,1.5,1.2c-0.2-0.1-0.3-0.3-0.5-0.4
						c-0.4-0.2-0.7-0.5-1.1-0.6c-0.3-0.2-0.7-0.3-1.1-0.5C112.6,62,112.4,62,112.2,61.9z"/>
					<path class="st45" d="M112.8,62c0.4,0.1,0.8,0.2,1.2,0.4c0.4,0.2,0.7,0.4,1.1,0.7c0,0,0,0,0,0c-0.4-0.3-0.7-0.5-1.1-0.6
						C113.6,62.4,113.3,62.2,112.8,62C112.8,62,112.8,62,112.8,62z"/>
				</g>
			</g>
			<g>
				<g>
					<path class="st34" d="M137.3,70.8l2.8-1c0.1,0.4,0.3,0.8,0.5,1.2c0.2,0.4,0.4,0.8,0.6,1.2c0.4,0.8,0.8,1.5,1.3,2.3
						c0.9,1.5,2,2.8,3.1,4c0.6,0.6,1.2,1.1,1.9,1.6c0.7,0.5,1.4,0.8,2.1,1.1c1.5,0.6,3,0.7,4.6,0.4c1.5-0.3,2.9-1,3.8-2.2
						c0.5-0.6,0.9-1.2,1.2-2c0.3-0.7,0.5-1.5,0.7-2.3c0.3-1.6,0.4-3.4,0.3-5.1c0-0.9-0.1-1.7-0.2-2.6c-0.1-0.4-0.1-0.9-0.2-1.3
						c-0.1-0.4-0.2-0.9-0.2-1.2l2.8-0.7c0.1,0.5,0.2,1,0.3,1.4c0.1,0.5,0.1,0.9,0.2,1.4c0.1,0.9,0.2,1.9,0.3,2.8
						c0.1,1.9,0,3.8-0.4,5.8c-0.2,1-0.5,1.9-0.9,2.9c-0.4,0.9-0.9,1.9-1.6,2.7c-0.7,0.8-1.5,1.6-2.5,2.1c-0.2,0.2-0.5,0.3-0.7,0.4
						c-0.2,0.1-0.5,0.2-0.7,0.3c-0.3,0.1-0.5,0.2-0.8,0.2l-0.8,0.2c-2,0.4-4.2,0.2-6.2-0.5c-1-0.4-1.9-0.9-2.7-1.4
						c-0.8-0.6-1.6-1.2-2.3-1.9c-1.4-1.4-2.6-2.9-3.6-4.6c-0.5-0.8-1-1.6-1.4-2.5c-0.2-0.4-0.4-0.9-0.6-1.3
						C137.6,71.7,137.4,71.3,137.3,70.8z"/>
				</g>
				<g>
					<path class="st46" d="M137.5,70.7l2.3-0.8c0.1,0.4,0.3,0.8,0.5,1.2c0.2,0.4,0.4,0.8,0.6,1.2c0.4,0.8,0.8,1.5,1.3,2.3
						c0.9,1.5,2,2.9,3.2,4.1c0.6,0.6,1.2,1.1,1.9,1.6c0.7,0.5,1.4,0.9,2.2,1.1c1.5,0.6,3.1,0.7,4.7,0.4c1.6-0.3,3-1,3.9-2.3
						c0.5-0.6,0.9-1.3,1.2-2c0.3-0.8,0.5-1.6,0.7-2.4c0.3-1.7,0.4-3.4,0.3-5.2c0-0.9-0.1-1.7-0.2-2.6c-0.1-0.4-0.1-0.9-0.2-1.3
						c-0.1-0.4-0.2-0.9-0.2-1.3l2.4-0.6c0.1,0.5,0.2,0.9,0.3,1.4c0.1,0.5,0.1,0.9,0.2,1.4c0.1,0.9,0.2,1.9,0.3,2.8
						c0.1,1.9,0,3.8-0.4,5.7c-0.2,1-0.5,1.9-0.8,2.8c-0.4,0.9-0.9,1.8-1.6,2.6c-0.7,0.8-1.5,1.5-2.4,2c-0.2,0.1-0.5,0.2-0.7,0.4
						c-0.2,0.1-0.5,0.2-0.7,0.3l-0.7,0.2l-0.8,0.2c-2,0.4-4.1,0.2-6-0.5c-0.9-0.4-1.8-0.9-2.7-1.4c-0.8-0.6-1.6-1.2-2.3-1.9
						c-1.4-1.4-2.5-2.9-3.5-4.5c-0.5-0.8-1-1.6-1.4-2.5c-0.2-0.4-0.4-0.8-0.6-1.3C137.9,71.6,137.7,71.2,137.5,70.7z"/>
				</g>
				<g>
					<path class="st47" d="M137.8,70.6l1.6-0.6c0.3,0.8,0.7,1.6,1.1,2.4c0.4,0.8,0.8,1.6,1.3,2.3c0.9,1.5,2,2.9,3.2,4.1
						c0.6,0.6,1.3,1.2,2,1.6c0.7,0.5,1.5,0.9,2.2,1.2c1.6,0.6,3.3,0.8,4.9,0.4c1.6-0.3,3.1-1.1,4.1-2.4c0.5-0.6,0.9-1.4,1.3-2.1
						c0.3-0.8,0.5-1.6,0.7-2.5c0.3-1.7,0.4-3.5,0.3-5.2c0-0.9-0.1-1.8-0.2-2.7c-0.1-0.9-0.3-1.8-0.5-2.6l1.6-0.4
						c0.2,0.9,0.4,1.8,0.5,2.8c0.1,0.9,0.2,1.9,0.2,2.8c0.1,1.9,0,3.8-0.3,5.6c-0.2,0.9-0.4,1.9-0.8,2.8c-0.4,0.9-0.9,1.8-1.5,2.6
						c-0.6,0.8-1.4,1.5-2.3,1.9c-0.2,0.1-0.4,0.2-0.7,0.3c-0.2,0.1-0.5,0.2-0.7,0.3l-0.7,0.2l-0.7,0.2c-1.9,0.4-4,0.2-5.8-0.5
						c-0.9-0.4-1.8-0.8-2.6-1.4c-0.8-0.5-1.5-1.2-2.2-1.8c-1.4-1.3-2.5-2.9-3.5-4.4c-0.5-0.8-1-1.6-1.4-2.4
						C138.6,72.3,138.2,71.5,137.8,70.6z"/>
				</g>
				<g>
					<path class="st48" d="M138.1,70.5l1.1-0.4c0.3,0.8,0.7,1.6,1.1,2.4c0.4,0.8,0.8,1.6,1.3,2.3c0.9,1.5,2,2.9,3.3,4.2
						c0.6,0.6,1.3,1.2,2,1.7c0.7,0.5,1.5,0.9,2.3,1.2c1.6,0.6,3.4,0.8,5,0.4c1.7-0.3,3.2-1.1,4.3-2.5c0.5-0.6,1-1.4,1.3-2.2
						c0.3-0.8,0.6-1.6,0.7-2.5c0.3-1.7,0.4-3.5,0.3-5.3c-0.1-1.8-0.3-3.6-0.7-5.3l1.2-0.3c0.4,1.8,0.6,3.7,0.7,5.5
						c0.1,1.9,0,3.7-0.3,5.6c-0.2,0.9-0.4,1.8-0.8,2.7c-0.4,0.9-0.9,1.7-1.5,2.5c-0.6,0.8-1.4,1.4-2.2,1.9c-0.2,0.1-0.4,0.2-0.7,0.3
						c-0.2,0.1-0.4,0.2-0.7,0.3l-0.7,0.2l-0.7,0.2c-1.9,0.4-3.9,0.2-5.7-0.5c-0.9-0.3-1.7-0.8-2.5-1.3c-0.8-0.5-1.5-1.2-2.2-1.8
						c-1.3-1.3-2.5-2.8-3.5-4.4c-0.5-0.8-0.9-1.6-1.4-2.4C138.8,72.2,138.4,71.4,138.1,70.5z"/>
				</g>
				<g>
					<path class="st33" d="M138.3,70.4l0.7-0.3c0.6,1.7,1.5,3.3,2.4,4.8c1,1.5,2,3,3.3,4.2c0.6,0.6,1.3,1.2,2,1.7
						c0.7,0.5,1.5,0.9,2.3,1.2c1.6,0.6,3.4,0.8,5.2,0.4c1.7-0.3,3.3-1.2,4.4-2.5c0.6-0.7,1-1.4,1.3-2.2c0.3-0.8,0.6-1.7,0.7-2.5
						c0.3-1.7,0.4-3.6,0.3-5.3c-0.1-1.8-0.3-3.6-0.7-5.3l0.8-0.2c0.4,1.8,0.6,3.6,0.7,5.5c0.1,1.8,0,3.7-0.3,5.5
						c-0.2,0.9-0.4,1.8-0.8,2.7c-0.4,0.9-0.8,1.7-1.4,2.4c-0.6,0.7-1.3,1.4-2.2,1.8c-0.2,0.1-0.4,0.2-0.6,0.3
						c-0.2,0.1-0.4,0.2-0.7,0.3l-0.7,0.2l-0.7,0.1c-1.9,0.4-3.8,0.2-5.6-0.5c-0.9-0.3-1.7-0.8-2.5-1.3c-0.8-0.5-1.5-1.1-2.2-1.8
						c-1.3-1.3-2.4-2.8-3.4-4.4C139.8,73.8,139,72.1,138.3,70.4z"/>
				</g>
			</g>
			<g>
				<g>
					<path class="st27" d="M156.2,82.5c-0.1-0.2,0.8-0.8,1.8-2.2c0.5-0.7,1.1-1.5,1.5-2.5c0.5-1,0.8-2.2,1.1-3.5
						c0.5-2.5,0.4-5,0.3-6.7c0-0.4-0.1-0.8-0.1-1.2c0-0.4,0-0.7,0-0.9c0-0.5,0-0.8,0.1-0.8c0.1,0,0.2,0.2,0.4,0.7
						c0.1,0.2,0.2,0.5,0.3,0.9c0.1,0.3,0.2,0.7,0.3,1.2c0.3,1.8,0.6,4.3,0.1,7c-0.3,1.4-0.7,2.7-1.3,3.7c-0.6,1.1-1.3,2-1.9,2.6
						C157.3,82.2,156.3,82.6,156.2,82.5z"/>
					<path class="st28" d="M158.9,80c0,0,0-0.2,0.1-0.5c0.1-0.1,0.1-0.3,0.2-0.5c0.1-0.2,0.2-0.4,0.3-0.7c0.4-1,0.9-2.4,1.2-3.9
						c0.3-1.6,0.4-3.1,0.4-4.2c0-1.1,0.1-1.8,0.2-1.8c0.1,0,0.3,0.6,0.4,1.7c0.1,1.1,0.1,2.6-0.2,4.3c-0.3,1.7-0.9,3.1-1.5,4.1
						c-0.2,0.2-0.3,0.5-0.4,0.6c-0.1,0.2-0.3,0.3-0.4,0.4C159.1,79.9,158.9,80,158.9,80z"/>
					<path class="st8" d="M160.6,76.7c-0.1,0,0.2-1,0.4-2.2c0.1-0.3,0.1-0.6,0.1-0.9c0-0.3,0.1-0.5,0.1-0.7c0.1-0.4,0.1-0.7,0.2-0.7
						c0,0,0.1,0.3,0.1,0.7c0,0.2,0,0.5-0.1,0.7c0,0.3-0.1,0.6-0.1,0.9C161.1,75.8,160.7,76.7,160.6,76.7z"/>
				</g>
			</g>
			<g>
				<g>
					<path class="st3" d="M139.1,68.1c0,0-0.1,0.1-0.2,0.1c0,0-0.1,0.1-0.2,0.1c-0.1,0-0.1,0.1-0.2,0.1c-0.1,0-0.2,0.1-0.4,0.1
						c-0.1,0-0.1,0-0.2,0c-0.2,0-0.3,0-0.5,0c0,0,0,0,0,0c0,0-0.1,0-0.2-0.1c-0.1,0-0.1,0-0.2-0.1c-0.1,0-0.2-0.1-0.3-0.1
						c-0.3-0.1-0.6-0.3-0.8-0.5l-1.8-4c0,0-0.1-0.2-0.1-0.5c0,0,0-0.1,0.1-0.1l0.3-0.1l0,0l0.9-0.5l0.1-0.1l0.4-0.2l0.2-0.1l0.2-0.1
						c0,0,0.1,0,0.2,0.2C136.6,62.6,139.1,68.1,139.1,68.1z"/>
					<path class="st49" d="M136.3,62.2l2.6,6c0,0-0.1,0.1-0.2,0.1l-2.6-6L136.3,62.2z"/>
					<g>
						<path class="st50" d="M136.1,62.3l2.6,6c-0.1,0-0.1,0.1-0.2,0.1c-0.1,0-0.2,0.1-0.4,0.1c-0.1,0-0.1,0-0.2,0l-2.5-5.9l0.1-0.1
							l0.4-0.2L136.1,62.3z"/>
					</g>
					<g>
						<path class="st51" d="M135.9,62.3l2.6,6c-0.1,0-0.2,0.1-0.4,0.1l-2.6-6L135.9,62.3z"/>
					</g>
					<g>
						<g>
							<path class="st52" d="M135.1,62.9l2.4,5.6c0,0,0,0,0,0c0,0-0.1,0-0.2-0.1c-0.1,0-0.1,0-0.2-0.1c-0.1,0-0.2-0.1-0.3-0.1
								l-2.2-5.1L135.1,62.9z"/>
						</g>
						<g>
							<path class="st53" d="M134.9,63l2.3,5.4c-0.1,0-0.1,0-0.2-0.1l-2.3-5.3L134.9,63z"/>
						</g>
					</g>
					<g>
						<path class="st54" d="M136.2,62.2c-0.4,0.4-0.8,0.7-1.3,0.9c-0.2,0.1-0.5,0.2-0.8,0.2c0,0,0-0.1,0.1-0.1l1.3-0.7L136.2,62.2z"
							/>
					</g>
					<path class="st55" d="M135.7,62.5c-0.1,0.1-0.2,0.1-0.2,0.2c-0.3,0.2-0.6,0.4-1,0.4l1-0.6L135.7,62.5z"/>
				</g>
				<path class="st56" d="M139.1,68.1c-0.1,0.1-0.2,0.2-0.4,0.2c-0.1,0.1-0.3,0.1-0.4,0.2c-0.1,0.1-0.3,0.1-0.4,0.1
					c-0.1,0-0.3,0-0.4,0l0,0l0,0l0,0c-0.1,0-0.3-0.1-0.4-0.1c-0.1-0.1-0.3-0.1-0.4-0.2c-0.3-0.1-0.5-0.3-0.7-0.5
					c0.2,0.2,0.5,0.3,0.7,0.4l0.4,0.1c0.1,0,0.3,0.1,0.4,0.1l0,0l0,0l0,0c0.2,0.1,0.5,0,0.8-0.1c0.1,0,0.3-0.1,0.4-0.1
					C138.8,68.2,138.9,68.2,139.1,68.1z"/>
			</g>
			<g>
				<g>
					<path class="st3" d="M159.1,62.1c0,0,0.1,0,0.3,0c0.1,0,0.1,0,0.2,0c0.1,0,0.1,0,0.2,0c0.1,0,0.2,0,0.4-0.1
						c0.1,0,0.1,0,0.2-0.1c0.2-0.1,0.3-0.1,0.4-0.2c0,0,0,0,0,0c0,0,0.1-0.1,0.2-0.2c0,0,0.1-0.1,0.2-0.2c0.1-0.1,0.1-0.1,0.2-0.2
						c0.2-0.2,0.4-0.5,0.5-0.8l-0.4-4.3c0,0,0-0.3-0.2-0.4c0,0-0.1-0.1-0.1-0.1l-0.3,0l0,0l-1,0l-0.1,0l-0.4,0l-0.2,0l-0.3,0
						c0,0-0.1,0-0.1,0.3C158.6,56.1,159.1,62.1,159.1,62.1z"/>
					<path class="st49" d="M158.7,55.6l0.7,6.5c0.1,0,0.1,0,0.2,0l-0.7-6.5L158.7,55.6z"/>
					<g>
						<path class="st50" d="M158.8,55.6l0.7,6.5c0.1,0,0.1,0,0.2,0c0.1,0,0.2,0,0.4-0.1c0.1,0,0.1,0,0.2-0.1l-0.7-6.4l-0.1,0l-0.4,0
							L158.8,55.6z"/>
					</g>
					<g>
						<path class="st51" d="M159,55.5l0.7,6.5c0.1,0,0.2,0,0.4-0.1l-0.7-6.5L159,55.5z"/>
					</g>
					<g>
						<g>
							<path class="st52" d="M160.1,55.6l0.6,6c0,0,0,0,0,0c0,0,0.1-0.1,0.2-0.2c0,0,0.1-0.1,0.2-0.2c0.1-0.1,0.1-0.1,0.2-0.2
								l-0.6-5.5L160.1,55.6z"/>
						</g>
						<g>
							<path class="st53" d="M160.3,55.6l0.6,5.9c0,0,0.1-0.1,0.2-0.2l-0.6-5.7L160.3,55.6z"/>
						</g>
					</g>
					<g>
						<path class="st54" d="M158.7,55.6c0.5,0.2,1.1,0.2,1.6,0.2c0.3,0,0.6-0.1,0.8-0.2c0,0-0.1-0.1-0.1-0.1l-1.5,0L158.7,55.6z"/>
					</g>
					<path class="st55" d="M159.3,55.5c0.1,0,0.2,0,0.3,0c0.4,0,0.7,0,1.1-0.1l-1.2,0L159.3,55.5z"/>
				</g>
				<path class="st56" d="M159.1,62.1c0.1,0,0.3,0,0.4,0c0.1,0,0.3,0,0.4,0c0.1,0,0.3-0.1,0.4-0.1c0.1-0.1,0.3-0.1,0.4-0.2l0,0l0,0
					l0,0c0.1-0.1,0.2-0.2,0.3-0.3c0.1-0.1,0.2-0.2,0.3-0.3c0.2-0.2,0.3-0.5,0.3-0.8c-0.1,0.3-0.3,0.5-0.4,0.7l-0.3,0.3
					c-0.1,0.1-0.2,0.2-0.3,0.3l0,0l0,0l0,0c-0.2,0.2-0.4,0.3-0.7,0.3c-0.1,0-0.3,0.1-0.4,0.1C159.4,62.1,159.2,62.1,159.1,62.1z"/>
			</g>
		</g>
		<path class="st2" d="M132.9,31.4c0,0-0.7,0.3-1,0.5l0.9,1.9c0,0,0.6-0.3,1.2-0.6L132.9,31.4z"/>
		<path class="st2" d="M144.8,28.4c0,0,0.7-0.2,1.1-0.2l0.4,2c0,0-0.7,0.1-1.4,0.2C144.8,30.5,144.8,28.4,144.8,28.4z"/>
		<g>
			<g>
				<path class="st57" d="M136.6,32.9C136.6,32.9,136.6,32.9,136.6,32.9l-2.7,0.9c-0.1,0-0.2,0-0.2,0c-0.1,0-0.1-0.1-0.1-0.1
					l-1.2-2.5c0-0.1,0-0.1,0-0.2c0-0.1,0.1-0.1,0.1-0.2l2.4-1.5l0,0c0.3-0.2,0.7-0.2,1-0.1c0.3,0.1,0.5,0.2,0.8,0.4
					c0.1,0.1,0.3,0.3,0.4,0.5l0.4,0.8c0.1,0.3,0.2,0.6,0.1,0.9c0,0.1,0,0.2-0.1,0.2C137.3,32.4,137,32.7,136.6,32.9z"/>
			</g>
			<path class="st58" d="M136.6,32.9C136.6,32.9,136.6,32.9,136.6,32.9l-2.7,0.9c-0.1,0-0.2,0-0.2,0c-0.1,0-0.1-0.1-0.1-0.1
				l-1.2-2.5c0-0.1,0-0.1,0-0.2c0-0.1,0.1-0.1,0.1-0.2l2.4-1.5l0,0c0.2,0.1,0.4,0.4,0.6,0.7c0.1,0.1,0.2,0.2,0.2,0.4
				c0.1,0.1,0.1,0.3,0.2,0.4c0.1,0.1,0.1,0.3,0.2,0.4c0.1,0.1,0.1,0.3,0.2,0.4c0.1,0.1,0.1,0.3,0.1,0.4
				C136.5,32.3,136.6,32.7,136.6,32.9z"/>
			<path class="st59" d="M136.6,32.8c0,0-2.7,0.9-2.7,0.9c-0.1,0-0.2,0-0.2,0c-0.1,0-0.1-0.1-0.1-0.1l-1.1-2.3c0-0.1,0-0.1,0-0.2
				c0-0.1,0.1-0.1,0.2-0.2c0,0,2.4-1.5,2.4-1.5c0.4,0.3,0.7,0.6,0.9,1C136.3,31.1,136.7,31.9,136.6,32.8z"/>
			<path class="st60" d="M136.6,32.7C136.6,32.7,136.6,32.7,136.6,32.7c0-0.2-0.1-0.5-0.2-0.8c0-0.1-0.1-0.3-0.1-0.4
				c-0.1-0.1-0.1-0.3-0.2-0.4c-0.1-0.1-0.1-0.3-0.2-0.4c-0.1-0.1-0.1-0.3-0.2-0.4c-0.1-0.1-0.2-0.3-0.2-0.4
				c-0.2-0.2-0.3-0.4-0.5-0.6c0.4,0.3,0.6,0.6,0.9,0.9C136.3,31.1,136.7,31.9,136.6,32.7z"/>
			<g>
				<path class="st61" d="M137.5,31.8c-0.4-0.6-0.7-1.3-0.8-2c0-0.1,0-0.1,0-0.2c0.1,0.1,0.2,0.2,0.3,0.3c0,0,0.1,0.1,0.1,0.1
					l0.4,0.8c0.1,0.1,0.1,0.3,0.1,0.4C137.5,31.4,137.5,31.6,137.5,31.8z"/>
			</g>
			<path class="st62" d="M137.5,31.3c-0.1-0.2-0.2-0.4-0.3-0.5c-0.1-0.1-0.1-0.3-0.2-0.4c0-0.1-0.1-0.3-0.1-0.4c0,0,0,0,0,0
				c0,0,0.1,0.1,0.1,0.1l0.4,0.8C137.4,31,137.4,31.1,137.5,31.3z"/>
			<g class="st26">
				<path class="st59" d="M136.4,32l-3.1,1.1l-0.7-1.4l2.9-1.7c0.1,0.1,0.2,0.2,0.2,0.4c0.1,0.1,0.1,0.3,0.2,0.4
					c0.1,0.1,0.1,0.3,0.2,0.4c0.1,0.1,0.1,0.3,0.2,0.4C136.3,31.7,136.4,31.9,136.4,32z"/>
				<path class="st63" d="M136.3,31.6l-3.1,1.3l-0.4-0.8l3-1.6c0.1,0.1,0.1,0.3,0.2,0.4c0.1,0.1,0.1,0.3,0.2,0.4
					C136.2,31.3,136.2,31.4,136.3,31.6z"/>
				<path class="st64" d="M136.1,31.2l-3.1,1.4l-0.1-0.3l3-1.5C136,30.9,136.1,31,136.1,31.2z"/>
			</g>
			<g class="st65">
				<path class="st63" d="M136.8,32c-0.1,0-0.2-0.6-0.4-1.2c-0.3-0.6-0.7-1-0.6-1.1c0.1-0.1,0.7,0.2,1.1,0.9
					C137.1,31.4,136.9,32.1,136.8,32z"/>
				<path class="st64" d="M136.8,31.4c-0.1,0-0.2-0.3-0.3-0.6c-0.2-0.3-0.3-0.6-0.3-0.7c0,0,0.3,0.2,0.5,0.5
					C136.9,31.1,136.9,31.4,136.8,31.4z"/>
			</g>
		</g>
		<g>
			<g>
				<path class="st57" d="M142.2,28C142.2,28,142.2,28,142.2,28l2.8-0.3c0.1,0,0.2,0,0.2,0c0,0,0.1,0.1,0.1,0.2l0.7,2.7
					c0,0.1,0,0.1,0,0.2c0,0.1-0.1,0.1-0.2,0.1l-2.6,1l0,0c-0.3,0.1-0.7,0-1-0.1c-0.3-0.1-0.5-0.3-0.7-0.5c-0.1-0.2-0.2-0.3-0.3-0.5
					L141,30c-0.1-0.3-0.1-0.7,0.1-1c0-0.1,0.1-0.2,0.1-0.2C141.4,28.4,141.7,28.1,142.2,28z"/>
			</g>
			<path class="st58" d="M142.2,28C142.2,28,142.2,28,142.2,28l2.8-0.3c0.1,0,0.2,0,0.2,0c0,0,0.1,0.1,0.1,0.2l0.7,2.7
				c0,0.1,0,0.1,0,0.2c0,0.1-0.1,0.1-0.2,0.1l-2.6,1l0,0c-0.2-0.2-0.3-0.5-0.5-0.8c-0.1-0.1-0.1-0.3-0.2-0.4c0-0.1-0.1-0.3-0.1-0.4
				c0-0.1-0.1-0.3-0.1-0.4c0-0.1-0.1-0.3-0.1-0.4c0-0.1,0-0.3-0.1-0.4C142.1,28.6,142.1,28.3,142.2,28z"/>
			<path class="st59" d="M142.1,28.2c0,0,2.8-0.4,2.9-0.4c0.1,0,0.2,0,0.2,0c0,0,0.1,0.1,0.1,0.1l0.6,2.5c0,0.1,0,0.1,0,0.2
				c0,0.1-0.1,0.1-0.2,0.1c0,0-2.7,1-2.7,1c-0.4-0.4-0.5-0.7-0.7-1.1C142.1,29.9,141.9,29,142.1,28.2z"/>
			<path class="st60" d="M142.1,28.2C142.1,28.2,142.1,28.2,142.1,28.2c0,0.2,0,0.5,0,0.8c0,0.1,0,0.3,0.1,0.4
				c0,0.1,0.1,0.3,0.1,0.4c0,0.1,0.1,0.3,0.1,0.4c0,0.1,0.1,0.3,0.1,0.4c0,0.1,0.1,0.3,0.2,0.4c0.1,0.3,0.2,0.5,0.4,0.7
				c-0.4-0.4-0.5-0.7-0.6-1.1C142.1,29.9,141.9,29,142.1,28.2z"/>
			<g>
				<path class="st61" d="M141.1,29c0.2,0.7,0.4,1.4,0.4,2.1c0,0.1,0,0.1,0,0.2c-0.1-0.1-0.2-0.2-0.2-0.4c0,0,0-0.1,0-0.1L141,30
					c0-0.2-0.1-0.3,0-0.5C141,29.3,141,29.2,141.1,29z"/>
			</g>
			<path class="st62" d="M141,29.5c0.1,0.2,0.2,0.4,0.2,0.6c0,0.1,0.1,0.3,0.1,0.4c0,0.1,0,0.3,0,0.4c0,0,0,0,0,0c0,0,0-0.1,0-0.1
				L141,30C141,29.8,141,29.6,141,29.5z"/>
			<g class="st26">
				<path class="st59" d="M142.1,29l3.3-0.5l0.4,1.5l-3.2,1.1c-0.1-0.1-0.1-0.3-0.2-0.4c0-0.1-0.1-0.3-0.1-0.4
					c0-0.1-0.1-0.3-0.1-0.4c0-0.1-0.1-0.3-0.1-0.4C142.2,29.3,142.1,29.1,142.1,29z"/>
				<path class="st63" d="M142.2,29.4l3.3-0.6l0.2,0.9l-3.2,1c0-0.1-0.1-0.3-0.1-0.4c0-0.1-0.1-0.3-0.1-0.4
					C142.2,29.7,142.2,29.6,142.2,29.4z"/>
				<path class="st64" d="M142.3,29.9l3.3-0.8l0.1,0.3l-3.3,0.9C142.3,30.1,142.3,30,142.3,29.9z"/>
			</g>
			<g class="st65">
				<path class="st63" d="M141.8,28.9c0.1,0,0,0.6,0.2,1.2c0.1,0.6,0.5,1.1,0.4,1.2c-0.1,0.1-0.7-0.3-0.8-1.1
					C141.3,29.4,141.6,28.8,141.8,28.9z"/>
				<path class="st64" d="M141.7,29.4c0.1,0,0.1,0.3,0.2,0.7c0.1,0.4,0.2,0.7,0.1,0.7c-0.1,0-0.3-0.2-0.4-0.6
					C141.5,29.8,141.6,29.4,141.7,29.4z"/>
			</g>
		</g>
	</g>
</g>
</svg>
